<svg width="90" height="23" viewBox="0 0 90 23" fill="none" xmlns="http://www.w3.org/2000/svg">
<path fill-rule="evenodd" clip-rule="evenodd" d="M4.5149 0C2.02139 0 0 2.02139 0 4.5149V18.0596C0 20.5531 2.02139 22.5745 4.5149 22.5745H18.0596C20.5531 22.5745 22.5745 20.5531 22.5745 18.0596V4.5149C22.5745 2.02139 20.5531 0 18.0596 0H4.5149ZM8.05691 7.26661C7.76305 6.97275 7.76305 6.4963 8.05691 6.20244L10.7173 3.54201C11.0112 3.24815 11.4876 3.24815 11.7815 3.54201L14.4419 6.20244C14.7358 6.4963 14.7358 6.97275 14.4419 7.26661L11.7815 9.92704C11.4876 10.2209 11.0112 10.2209 10.7173 9.92704L8.05691 7.26661ZM8.05691 16.2964C7.76305 16.0025 7.76305 15.5261 8.05691 15.2322L10.7173 12.5718C11.0112 12.2779 11.4876 12.2779 11.7815 12.5718L14.4419 15.2322C14.7358 15.5261 14.7358 16.0025 14.4419 16.2964L11.7815 18.9568C11.4876 19.2507 11.0112 19.2507 10.7173 18.9568L8.05691 16.2964ZM12.7599 11.7815C12.4661 11.4876 12.4661 11.0112 12.7599 10.7173L15.4204 8.05691C15.7142 7.76305 16.1907 7.76305 16.4845 8.05691L19.145 10.7173C19.4388 11.0112 19.4388 11.4876 19.145 11.7815L16.4845 14.4419C16.1907 14.7358 15.7142 14.7358 15.4204 14.4419L12.7599 11.7815ZM3.54201 11.7815C3.24815 11.4876 3.24815 11.0112 3.54201 10.7173L6.20244 8.05691C6.4963 7.76305 6.97275 7.76305 7.26661 8.05691L9.92704 10.7173C10.2209 11.0112 10.2209 11.4876 9.92704 11.7815L7.26661 14.4419C6.97275 14.7358 6.4963 14.7358 6.20244 14.4419L3.54201 11.7815Z" fill="#14D0BE"/>
<path d="M27.9652 19.1883H31.2679V10.7601H33.9272V7.97219H31.2679V7.39316C31.2679 6.32087 31.8898 5.93484 32.9621 5.93484C33.2838 5.93484 33.6698 5.97774 34.0344 6.04207V3.25412C33.6484 3.16834 33.2194 3.104 32.6619 3.104C30.0455 3.104 27.9652 4.6481 27.9652 7.39316V7.97219H26.0137V10.7601H27.9652V19.1883Z" fill="#2C3E50"/>
<path d="M40.2201 19.3813C43.2869 19.3813 45.0669 17.6013 45.3671 15.5854H42.1717C41.9787 16.1001 41.4426 16.7006 40.2201 16.7006C38.7189 16.7006 38.0541 15.7785 38.0327 14.4703H45.5173V13.2478C45.5173 10.2026 43.5871 7.77918 40.1558 7.77918C36.51 7.77918 34.6657 10.417 34.6657 13.591C34.6657 16.8078 36.6816 19.3813 40.2201 19.3813ZM38.0541 12.39C38.1185 11.3177 38.7404 10.4813 40.1558 10.4813C41.464 10.4813 42.0859 11.3177 42.1503 12.39H38.0541Z" fill="#2C3E50"/>
<path d="M52.1368 19.3813C55.2035 19.3813 56.9835 17.6013 57.2838 15.5854H54.0884C53.8953 16.1001 53.3592 16.7006 52.1368 16.7006C50.6356 16.7006 49.9708 15.7785 49.9493 14.4703H57.4339V13.2478C57.4339 10.2026 55.5038 7.77918 52.0725 7.77918C48.4267 7.77918 46.5823 10.417 46.5823 13.591C46.5823 16.8078 48.5982 19.3813 52.1368 19.3813ZM49.9708 12.39C50.0351 11.3177 50.657 10.4813 52.0725 10.4813C53.3806 10.4813 54.0026 11.3177 54.0669 12.39H49.9708Z" fill="#2C3E50"/>
<path d="M63.0455 19.3813C64.6325 19.3813 65.4903 18.7594 66.0264 18.116H66.1122L66.4554 19.1883H69.4149V3.31846H66.1122V9.04448H66.0264C65.4903 8.40111 64.6325 7.77918 63.0455 7.77918C60.2146 7.77918 58.499 10.224 58.499 13.5695C58.499 16.9365 60.2146 19.3813 63.0455 19.3813ZM64.0534 16.4862C62.4235 16.4862 61.8445 15.1351 61.8445 13.5695C61.8445 12.004 62.3807 10.6744 64.0534 10.6744C65.7262 10.6744 66.2623 12.004 66.2623 13.5695C66.2623 15.1351 65.6833 16.4862 64.0534 16.4862Z" fill="#2C3E50"/>
<path d="M76.368 19.3813C79.4347 19.3813 81.2147 17.6013 81.515 15.5854H78.3196C78.1265 16.1001 77.5904 16.7006 76.368 16.7006C74.8668 16.7006 74.202 15.7785 74.1805 14.4703H81.6651V13.2478C81.6651 10.2026 79.735 7.77918 76.3036 7.77918C72.6579 7.77918 70.8135 10.417 70.8135 13.591C70.8135 16.8078 72.8294 19.3813 76.368 19.3813ZM74.202 12.39C74.2663 11.3177 74.8882 10.4813 76.3036 10.4813C77.6118 10.4813 78.2338 11.3177 78.2981 12.39H74.202Z" fill="#2C3E50"/>
<path d="M83.2663 19.1883H86.3545V13.6553C86.3545 11.8539 87.3625 10.803 88.928 10.803H90.0003V7.77918H89.2282C87.7914 7.77918 86.8478 8.61556 86.3545 9.60207H86.2687L86.0114 7.97219H83.2663V19.1883Z" fill="#2C3E50"/>
</svg>
