<svg width="581" height="434" viewBox="0 0 581 434" fill="none" xmlns="http://www.w3.org/2000/svg">
<path opacity="0.1" d="M331.46 60.8636C296.053 59.6398 262.331 48.221 230.13 35.7314C197.928 23.2418 166.034 9.38634 131.475 2.79187C109.247 -1.46967 83.8238 -2.07066 65.9178 9.83434C48.6902 21.2859 43.11 41.0747 40.1175 59.3994C37.8635 73.2002 36.5396 87.7277 42.7106 100.649C46.9998 109.62 54.6042 117.16 59.8671 125.748C78.1779 155.65 65.234 192.518 45.3968 221.71C36.0964 235.401 25.2916 248.481 18.1084 263.041C10.9252 277.601 7.60445 294.32 13.8904 309.191C20.1162 323.943 34.9585 335.001 51.0372 342.787C83.6925 358.603 122.158 363.127 159.693 365.695C242.756 371.366 326.257 368.913 409.539 366.449C440.362 365.542 471.316 364.619 501.635 359.86C518.474 357.216 535.855 353.02 548.082 342.89C563.597 330.035 567.443 308.268 557.043 292.145C539.602 265.106 491.394 258.392 479.188 229.375C472.481 213.4 479.369 195.61 489.123 180.799C510.044 149.017 545.106 121.137 546.95 84.8157C548.219 59.8692 531.363 34.8846 505.3 23.0779C477.985 10.703 440.099 12.2601 419.956 32.7374C399.194 53.8321 362.715 61.9508 331.46 60.8636Z" fill="white"/>
<path d="M141.973 67.4635H0V209.247H141.973V67.4635Z" fill="#E8E9ED"/>
<path d="M580.999 67.4635H439.026V209.247H580.999V67.4635Z" fill="#E8E9ED"/>
<path d="M257.522 104.626H99.3062V262.631H257.522V104.626Z" fill="#F3F5F7"/>
<path d="M480.922 104.626H322.707V262.631H480.922V104.626Z" fill="#F3F5F7"/>
<path opacity="0.1" d="M66.957 92.634H14.1855V98.4909H66.957V92.634Z" fill="black"/>
<path opacity="0.1" d="M517.348 92.634H464.576V98.4909H517.348V92.634Z" fill="black"/>
<path d="M375.549 315.999C377.262 318.791 387.295 323.779 387.295 323.779C387.295 323.779 387.383 312.584 385.654 309.792C384.83 308.453 383.507 307.495 381.975 307.13C380.444 306.764 378.83 307.022 377.489 307.845C376.147 308.668 375.188 309.989 374.823 311.518C374.457 313.048 374.714 314.659 375.539 315.999H375.549Z" fill="white"/>
<path opacity="0.1" d="M172.5 138.353H119.729V144.21H172.5V138.353Z" fill="black"/>
<path opacity="0.1" d="M248.479 189.835H216.972V195.692H248.479V189.835Z" fill="black"/>
<path opacity="0.1" d="M263.627 229.14H216.972V234.997H263.627V229.14Z" fill="black"/>
<path opacity="0.1" d="M172.5 158.994H119.729V164.851H172.5V158.994Z" fill="black"/>
<path opacity="0.1" d="M409.972 138.353H357.2V144.21H409.972V138.353Z" fill="black"/>
<path opacity="0.1" d="M409.972 158.994H357.2V164.851H409.972V158.994Z" fill="black"/>
<path opacity="0.1" d="M385.5 154.792H189.924V350.108H385.5V154.792Z" fill="white"/>
<path d="M392.066 145.504H196.49V340.82H392.066V145.504Z" fill="white"/>
<path opacity="0.5" d="M371.577 167.14H216.972V172.997H371.577V167.14Z" fill="white"/>
<path opacity="0.1" d="M315.419 209.488H216.972V215.345H315.419V209.488Z" fill="black"/>
<path opacity="0.1" d="M312.493 248.798H216.972V254.655H312.493V248.798Z" fill="black"/>
<path opacity="0.1" d="M347.183 268.45H216.972V274.307H347.183V268.45Z" fill="black"/>
<path opacity="0.5" d="M343.304 210.007L342.631 209.313C342.601 209.285 342.562 209.27 342.522 209.269C342.483 209.269 342.445 209.285 342.418 209.313L337.751 214.011L336.05 212.312C336.019 212.286 335.981 212.27 335.94 212.269C335.901 212.27 335.864 212.285 335.836 212.312L335.152 212.995C335.138 213.009 335.126 213.026 335.118 213.045C335.111 213.064 335.106 213.084 335.106 213.104C335.106 213.125 335.111 213.145 335.118 213.164C335.126 213.183 335.138 213.2 335.152 213.214L337.297 215.35C337.414 215.477 337.574 215.555 337.746 215.569C337.915 215.554 338.072 215.478 338.189 215.355L343.304 210.225C343.329 210.194 343.342 210.156 343.342 210.116C343.342 210.076 343.329 210.038 343.304 210.007Z" fill="#3ACC6C"/>
<path opacity="0.5" d="M339.228 205.527C340.823 205.525 342.369 206.077 343.603 207.086C344.836 208.096 345.681 209.502 345.993 211.064C346.305 212.626 346.065 214.248 345.314 215.653C344.563 217.058 343.347 218.16 341.873 218.77C340.4 219.38 338.76 219.461 337.234 218.999C335.707 218.537 334.389 217.56 333.502 216.236C332.616 214.912 332.217 213.321 332.373 211.736C332.529 210.151 333.231 208.669 334.359 207.543C334.997 206.902 335.756 206.393 336.591 206.047C337.427 205.701 338.323 205.524 339.228 205.527ZM339.228 204.461C337.653 204.46 336.114 204.926 334.804 205.799C333.494 206.672 332.473 207.913 331.87 209.366C331.267 210.819 331.108 212.418 331.415 213.96C331.722 215.503 332.481 216.92 333.594 218.032C334.708 219.144 336.127 219.901 337.671 220.208C339.216 220.514 340.817 220.356 342.271 219.754C343.726 219.152 344.969 218.132 345.844 216.824C346.718 215.516 347.184 213.978 347.183 212.405C347.18 210.3 346.34 208.282 344.849 206.795C343.358 205.308 341.336 204.472 339.228 204.472V204.461Z" fill="#3ACC6C"/>
<path opacity="0.5" d="M343.304 249.311L342.631 248.623C342.617 248.608 342.6 248.597 342.581 248.589C342.562 248.582 342.542 248.578 342.522 248.579C342.502 248.578 342.483 248.582 342.465 248.589C342.447 248.597 342.431 248.608 342.418 248.623L337.751 253.316L336.05 251.622C336.036 251.607 336.019 251.595 336 251.587C335.981 251.578 335.961 251.574 335.94 251.573C335.92 251.574 335.901 251.578 335.883 251.587C335.865 251.595 335.849 251.607 335.836 251.622L335.152 252.3C335.138 252.314 335.126 252.331 335.118 252.35C335.111 252.369 335.106 252.389 335.106 252.409C335.106 252.429 335.111 252.45 335.118 252.468C335.126 252.487 335.138 252.504 335.152 252.518L337.297 254.66C337.414 254.787 337.574 254.865 337.746 254.879C337.914 254.862 338.071 254.787 338.189 254.666L343.304 249.53C343.329 249.499 343.342 249.46 343.342 249.421C343.342 249.381 343.329 249.342 343.304 249.311Z" fill="#3ACC6C"/>
<path opacity="0.5" d="M339.228 244.864C340.823 244.863 342.369 245.414 343.603 246.424C344.836 247.434 345.681 248.839 345.993 250.401C346.305 251.964 346.065 253.585 345.314 254.99C344.563 256.396 343.347 257.497 341.873 258.107C340.4 258.717 338.76 258.798 337.234 258.336C335.707 257.874 334.389 256.898 333.502 255.573C332.616 254.249 332.217 252.659 332.373 251.074C332.529 249.488 333.231 248.006 334.359 246.88C334.997 246.239 335.756 245.731 336.591 245.385C337.427 245.039 338.323 244.862 339.228 244.864ZM339.228 243.771C337.654 243.77 336.114 244.235 334.804 245.108C333.495 245.981 332.474 247.222 331.87 248.675C331.267 250.127 331.108 251.726 331.415 253.268C331.721 254.811 332.479 256.228 333.592 257.34C334.705 258.452 336.124 259.21 337.668 259.517C339.212 259.824 340.813 259.667 342.268 259.066C343.722 258.464 344.966 257.445 345.841 256.138C346.716 254.83 347.183 253.293 347.183 251.721C347.183 250.677 346.978 249.643 346.579 248.679C346.179 247.715 345.594 246.838 344.855 246.1C344.116 245.362 343.239 244.776 342.274 244.376C341.308 243.977 340.273 243.771 339.228 243.771Z" fill="#3ACC6C"/>
<path opacity="0.1" d="M280.384 434C301.961 434 319.451 431.07 319.451 427.455C319.451 423.84 301.961 420.909 280.384 420.909C258.808 420.909 241.317 423.84 241.317 427.455C241.317 431.07 258.808 434 280.384 434Z" fill="white"/>
<path opacity="0.1" d="M323.237 252.3C322.871 251.551 319.955 241.919 319.955 241.919L314.336 227.676C314.336 227.676 310.928 208.93 305.84 213.607C300.752 218.284 308.575 229.506 308.575 229.506C308.575 229.506 311.787 237.701 311.623 239.34C311.459 240.979 313.412 246.989 313.412 246.989L312.777 250.442C311.951 250.388 311.415 250.388 311.415 250.388C311.415 250.388 310.911 251.109 310.43 251.158C310.348 251.169 310.265 251.158 310.189 251.125C309.642 250.879 307.831 250.928 306.907 250.928C306.048 250.813 305.216 250.546 304.45 250.142C304.133 249.508 302.339 249.131 300.747 248.918C299.538 245.913 297.836 242.99 297.601 239.854C297.485 239 297.654 238.132 298.082 237.384C298.189 237.224 298.309 237.074 298.443 236.936C298.887 236.488 299.428 236.095 299.921 235.68C300.167 235.472 300.391 235.259 300.604 235.04C304.779 230.997 304.117 224.736 300.331 220.404C295.954 215.394 276.216 204.614 270.241 213.848C269.41 215.137 269.383 216.628 269.147 218.06C268.552 221.561 266.908 224.799 264.431 227.348C262.451 229.451 259.852 231.391 258.714 233.773L258.676 233.686C258.405 234.202 258.206 234.754 258.085 235.325C257.511 238.226 259.469 241.018 260.498 243.842C260.848 244.802 261.101 245.794 261.253 246.803L261.319 246.181C261.571 247.623 261.657 249.089 261.576 250.551C254.409 252.016 254.403 264.352 254.403 264.352C254.403 264.352 253.523 269.269 253.67 271.023C253.818 272.777 253.818 276.612 253.818 277.547C253.818 278.481 252.932 284.218 252.833 284.906C252.708 285.665 251.362 289.304 254.611 290.124C254.836 290.184 255.076 290.233 255.323 290.277C255.459 293.221 255.716 299.401 255.492 300.767C255.492 300.767 256.674 309.06 257.653 311.147C258.282 312.381 259.014 313.56 259.841 314.671C259.772 315.175 259.603 315.66 259.344 316.097C258.846 316.824 259.103 317.419 259.94 317.676C259.914 317.928 259.882 318.212 259.841 318.529C259.486 321.73 258.95 328.084 259.841 331.308C261.094 335.722 261.165 337.192 261.165 337.192C261.165 337.91 261.341 338.618 261.68 339.252C262.227 339.989 263.157 346.83 263.157 347.933C263.157 349.037 265.662 358.969 264.924 361.324C264.185 363.679 264.776 366.99 264.776 366.99C264.776 366.99 264.333 372.803 263.819 374.054C263.304 375.305 263.08 395.466 263.89 400.689C264.7 405.912 265.219 410.255 265.219 410.255C265.219 410.255 264.672 415.036 265.143 415.719C265.613 416.402 266.395 420.358 265.805 420.576C265.214 420.795 264.924 422.417 264.924 422.417C265.235 422.892 265.571 423.349 265.93 423.789C265.702 423.709 265.479 423.614 265.263 423.505C265.498 423.838 265.848 424.297 266.275 424.799L265.876 430.088C265.859 430.295 265.915 430.502 266.035 430.672C266.155 430.841 266.331 430.964 266.532 431.017C267.825 431.371 269.191 431.366 270.481 431.001C271.771 430.636 272.937 429.925 273.852 428.946C277.534 425.193 278.776 425.712 279.454 423.428C279.52 423.182 279.586 422.947 279.635 422.718C279.736 422.278 279.711 421.818 279.561 421.392C279.411 420.966 279.143 420.591 278.789 420.31C278.434 420.03 278.007 419.856 277.558 419.808C277.108 419.761 276.654 419.841 276.248 420.041C276.484 418.402 276.67 416.604 276.489 415.572C276.123 413.441 276.194 407.846 276.194 407.846L275.679 381.075C275.679 381.075 276.637 375.781 277.742 373.721C278.847 371.661 278.699 364.433 278.699 364.433L279.952 340.738L281.199 329.264C281.199 329.264 282.376 325.292 283.847 329.707C283.847 329.707 283.038 338.607 283.41 340.743C283.782 342.879 284.29 353.249 283.924 355.533C283.557 357.817 281.933 370.323 282.967 373.486C284.001 376.649 285.1 380.474 284.881 381.725C284.662 382.976 283.924 410.135 283.924 410.135C283.924 410.135 285.91 415.358 284.438 417.052C282.967 418.746 284.367 425.515 284.367 425.515C284.367 425.515 284.542 425.641 284.849 425.821L284.805 426.367L284.345 432.454C284.329 432.661 284.386 432.867 284.506 433.036C284.626 433.206 284.801 433.328 285.002 433.383C286.295 433.736 287.66 433.729 288.95 433.364C290.24 433 291.406 432.29 292.322 431.312C296.004 427.558 297.245 428.072 297.924 425.794C297.989 425.548 298.055 425.307 298.11 425.078C298.221 424.591 298.177 424.081 297.983 423.621C297.789 423.16 297.456 422.771 297.03 422.509C296.604 422.247 296.107 422.125 295.608 422.159C295.109 422.194 294.633 422.383 294.247 422.701C294.223 422.728 294.195 422.752 294.165 422.772C294.072 422.854 293.974 422.925 293.875 422.996L293.733 423.089C294.1 421.407 294.636 418.538 294.384 417.183C294.018 415.195 294.751 409.163 294.751 409.163C294.751 409.163 296.89 401.951 296.939 399.083C296.988 396.214 297.53 376.136 297.53 376.136C297.53 376.136 297.459 366.793 297.754 364.515C298.05 362.237 300.402 342.513 302.76 336.651C304.571 332.138 305.38 320.637 304.899 314.797C304.872 314.502 304.844 314.251 304.817 313.966C307.7 311.803 308.006 308.241 308.006 308.241C308.006 308.241 305.353 303.138 302.798 300.98C300.243 298.822 299.653 295.095 299.751 293.522C299.796 292.562 299.482 291.619 298.87 290.878C298.87 290.878 297.689 287.053 296.901 286.66C296.836 286.628 296.778 286.583 296.731 286.529C296.184 285.95 296.605 284.305 296.605 284.305V284.256C296.693 283.873 297.267 281.404 297.081 280.77C296.895 280.136 297.18 276.847 297.18 276.847C297.18 276.847 299.051 271.258 298.755 266.844C298.46 262.429 302.585 262.817 302.585 262.817L315.326 262.686H316.776C317.388 262.165 317.938 261.577 318.417 260.932C318.909 261.024 319.415 261.011 319.901 260.892C320.387 260.773 320.841 260.552 321.235 260.244C323.937 257.774 323.604 253.059 323.237 252.3ZM263.983 290.544L264.076 288.304L264.574 288.73C264.726 289.318 264.726 289.935 264.574 290.523C264.497 290.799 264.358 291.054 264.169 291.27C263.979 291.485 263.744 291.656 263.48 291.768C263.416 291.799 263.356 291.836 263.299 291.877L263.173 290.599C263.693 290.566 263.983 290.539 263.983 290.539V290.544Z" fill="black"/>
<path d="M311.781 256.643C311.781 256.643 319.036 261.304 321.782 258.829C324.528 256.354 324.189 251.579 323.817 250.825C323.445 250.071 320.491 240.373 320.491 240.373L314.785 226.015C314.785 226.015 311.316 207.117 306.141 211.81C300.966 216.503 308.931 227.834 308.931 227.834C308.931 227.834 312.214 236.1 312.028 237.756C311.842 239.411 313.844 245.476 313.844 245.476L311.781 256.643Z" fill="url(#paint0_linear)"/>
<path d="M298.252 425.013C298.197 425.247 298.137 425.488 298.061 425.734C297.388 428.034 296.113 427.515 292.371 431.296C291.437 432.284 290.251 433 288.94 433.368C287.63 433.736 286.244 433.741 284.931 433.383C284.728 433.33 284.55 433.207 284.428 433.036C284.306 432.866 284.247 432.658 284.263 432.448L284.734 426.313L284.958 423.357C284.958 423.357 290.916 425.029 293.952 422.915C294.051 422.844 294.149 422.773 294.242 422.691L294.33 422.62C294.72 422.3 295.201 422.11 295.704 422.075C296.208 422.04 296.71 422.163 297.141 422.426C297.572 422.688 297.911 423.079 298.11 423.542C298.309 424.006 298.358 424.52 298.252 425.013Z" fill="url(#paint1_linear)"/>
<path d="M279.558 422.696C279.509 422.931 279.444 423.171 279.372 423.417C278.7 425.717 277.425 425.198 273.683 428.979C272.748 429.966 271.562 430.682 270.252 431.051C268.942 431.419 267.556 431.426 266.243 431.072C266.038 431.019 265.858 430.896 265.736 430.724C265.614 430.552 265.557 430.342 265.575 430.132L266.04 423.996L266.27 421.041C266.27 421.041 272.228 422.712 275.258 420.598C275.362 420.527 275.455 420.456 275.554 420.374L275.641 420.303C276.031 419.982 276.512 419.791 277.016 419.755C277.52 419.72 278.023 419.842 278.454 420.106C278.885 420.369 279.223 420.76 279.421 421.224C279.619 421.689 279.667 422.203 279.558 422.696Z" fill="url(#paint2_linear)"/>
<g opacity="0.1">
<path opacity="0.1" d="M273.387 423.619L273.634 426.805C270.209 430.192 266.139 425.165 264.935 423.494C268.07 425.1 273.387 423.619 273.387 423.619Z" fill="url(#paint3_linear)"/>
</g>
<g opacity="0.1">
<path opacity="0.1" d="M293.493 424.914L293.947 424.619C290.817 429.329 286.178 427.154 284.734 426.313L284.958 423.357C284.958 423.357 290.916 425.029 293.952 422.915C293.711 424.067 293.493 424.914 293.493 424.914Z" fill="url(#paint4_linear)"/>
</g>
<path d="M303.006 335.826C300.61 341.759 298.214 361.641 297.913 363.941C297.612 366.241 297.689 375.661 297.689 375.661L297.065 398.804C296.994 401.7 294.822 408.966 294.822 408.966C294.822 408.966 294.072 415.053 294.444 417.052C294.816 419.052 293.471 424.324 293.471 424.324L293.925 424.029C290.177 429.662 284.263 425.433 284.263 425.433C284.263 425.433 282.841 418.609 284.334 416.905C285.828 415.2 283.815 409.933 283.815 409.933C283.815 409.933 284.559 382.561 284.788 381.299C285.018 380.037 283.935 376.18 282.841 372.989C281.747 369.798 283.437 357.188 283.815 354.888C284.192 352.588 283.661 342.131 283.267 339.978C282.874 337.826 283.716 328.849 283.716 328.849C282.217 324.402 281.019 328.407 281.019 328.407L279.821 340.055L278.59 363.969C278.59 363.969 278.743 371.235 277.616 373.311C276.489 375.387 275.521 380.731 275.521 380.731L276.068 407.731C276.068 407.731 275.991 413.37 276.369 415.522C276.746 417.675 275.543 423.237 275.543 423.237C271.352 433.027 264.601 422.423 264.601 422.423C264.601 422.423 264.896 420.784 265.498 420.565C266.1 420.347 265.274 416.336 264.825 415.648C264.377 414.96 264.896 410.185 264.896 410.185C264.896 410.185 264.377 405.814 263.551 400.536C262.725 395.258 262.954 374.945 263.474 373.683C263.994 372.421 264.448 366.58 264.448 366.58C264.448 366.58 263.852 363.242 264.601 360.865C265.351 358.489 262.801 348.48 262.801 347.365C262.801 346.25 261.827 339.355 261.302 338.623C260.95 337.987 260.762 337.274 260.755 336.547C260.755 336.547 260.678 335.061 259.404 330.614C258.474 327.336 259.021 320.954 259.404 317.731C259.535 316.534 259.644 315.775 259.644 315.775C259.644 315.775 302.629 308.875 304.352 310.437C304.757 310.798 305.025 312.076 305.178 313.857C305.665 319.681 304.839 331.28 303.006 335.826Z" fill="url(#paint5_linear)"/>
<g opacity="0.1">
<path opacity="0.1" d="M286.752 369.181C286.955 369.181 291.676 369.58 293.443 369.23C295.21 368.88 286.752 369.181 286.752 369.181Z" fill="url(#paint6_linear)"/>
</g>
<g opacity="0.1">
<path opacity="0.1" d="M287.103 371.951C287.103 371.951 293.668 373.087 293.996 372.497C294.324 371.907 287.103 371.951 287.103 371.951Z" fill="url(#paint7_linear)"/>
</g>
<g opacity="0.1">
<path opacity="0.1" d="M267.085 370.765C267.085 370.765 270.477 370.913 272.326 371.754C274.175 372.595 267.085 370.765 267.085 370.765Z" fill="url(#paint8_linear)"/>
</g>
<path d="M254.753 287.583C254.753 287.583 255.301 297.92 255.005 299.745C255.005 299.745 256.203 308.104 257.193 310.229C258.087 311.925 259.14 313.531 260.339 315.026L263.282 294.505L262.599 287.479L254.753 287.583Z" fill="url(#paint9_linear)"/>
<path d="M285.707 240.499C292.076 240.499 297.24 235.384 297.24 229.074C297.24 222.765 292.076 217.65 285.707 217.65C279.338 217.65 274.175 222.765 274.175 229.074C274.175 235.384 279.338 240.499 285.707 240.499Z" fill="url(#paint10_linear)"/>
<path d="M279.717 234.418C279.717 234.418 276.123 241.389 272.529 244.656C268.934 247.924 294.094 251.628 294.691 251.628C295.287 251.628 290.199 236.794 291.096 235.013C291.994 233.232 279.717 234.418 279.717 234.418Z" fill="url(#paint11_linear)"/>
<g opacity="0.1">
<path opacity="0.1" d="M305.178 313.803C304.614 314.231 303.991 314.577 303.329 314.83C298.739 316.611 293.744 319.086 290.347 318.108C286.949 317.13 279.766 318.108 279.766 318.108C279.766 318.108 265.285 316.917 262.391 317.611C261.42 317.905 260.388 317.932 259.404 317.687C259.535 316.491 259.645 315.731 259.645 315.731C259.645 315.731 302.629 308.831 304.352 310.393C304.757 310.743 305.025 312.005 305.178 313.803Z" fill="url(#paint12_linear)"/>
</g>
<path d="M308.324 307.214C308.324 307.214 307.925 312.131 303.329 313.939C298.734 315.748 293.744 318.195 290.347 317.217C286.95 316.239 279.766 317.217 279.766 317.217C279.766 317.217 265.285 316.026 262.391 316.72C259.497 317.414 258.014 316.523 258.895 315.234C259.776 313.945 259.699 309.7 259.699 307.918C259.699 306.137 258.698 298.915 259.595 297.631C260.493 296.347 261.291 291.402 263.091 290.61C263.361 290.498 263.602 290.327 263.796 290.11C263.99 289.892 264.132 289.634 264.213 289.353C264.37 288.761 264.37 288.138 264.213 287.545C264.213 287.545 263.912 287.299 263.491 286.928C262.435 285.993 260.64 284.256 261.215 283.688C262.014 282.896 261.215 277.749 261.215 277.749C261.215 277.749 259.316 273.793 260.017 272.313C260.717 270.832 253.928 263.025 253.928 263.025C253.928 263.025 253.928 249.574 262.134 248.978C262.134 248.978 267.922 249.18 268.622 246.607C269.323 244.033 273.913 242.547 273.913 242.547L284.395 244.826C284.395 244.826 293.695 246.804 295.38 245.618C297.065 244.432 298.378 247.197 298.378 247.197C298.378 247.197 304.166 247.497 304.768 248.683C305.37 249.869 302.87 261.44 302.87 261.44C302.87 261.44 298.673 261.047 298.974 265.5C299.275 269.952 297.377 275.585 297.377 275.585C297.377 275.585 297.076 278.863 297.278 279.541C297.481 280.218 296.885 282.666 296.792 283.054V283.103C296.792 283.103 296.376 284.742 296.917 285.349C296.97 285.4 297.028 285.444 297.092 285.48C297.891 285.873 299.089 289.73 299.089 289.73C299.714 290.477 300.036 291.43 299.992 292.402C299.893 293.986 300.49 297.74 303.083 299.92C305.676 302.1 308.324 307.214 308.324 307.214Z" fill="url(#paint13_linear)"/>
<path d="M263.786 284.316V284.737L263.6 289.364C263.6 289.364 257.462 289.856 254.114 289.015C250.765 288.173 252.182 284.518 252.314 283.753C252.412 283.059 253.309 277.274 253.309 276.334C253.309 275.394 253.309 271.537 253.162 269.778C253.014 268.018 253.911 263.052 253.911 263.052L254.557 262.26L261.598 264.931L263.786 284.316Z" fill="url(#paint14_linear)"/>
<g opacity="0.1">
<path opacity="0.1" d="M263.775 284.748L263.589 289.375C263.589 289.375 257.451 289.867 254.102 289.026C250.754 288.184 252.171 284.529 252.302 283.764L263.775 284.748Z" fill="url(#paint15_linear)"/>
</g>
<g opacity="0.1">
<path opacity="0.1" d="M264.24 289.342C264.397 288.75 264.397 288.127 264.24 287.534C264.24 287.534 263.939 287.288 263.518 286.917C268.808 286.19 289.745 283.338 296.802 283.032V283.081C296.802 283.081 296.387 284.72 296.928 285.327L264.24 289.342Z" fill="url(#paint16_linear)"/>
</g>
<g opacity="0.1">
<path opacity="0.1" d="M297.541 292.943C297.541 292.943 298.837 300.215 293.996 302.777C293.996 302.777 296.742 299.155 297.541 292.943Z" fill="url(#paint17_linear)"/>
</g>
<g opacity="0.1">
<path opacity="0.1" d="M265.837 302.963C265.837 302.963 277.518 300.985 279.815 302.515C282.113 304.045 265.837 302.963 265.837 302.963Z" fill="url(#paint18_linear)"/>
</g>
<g opacity="0.1">
<path opacity="0.1" d="M293.493 257.911C293.493 257.911 291.698 265.226 293.044 266.909C294.39 268.592 293.493 257.911 293.493 257.911Z" fill="url(#paint19_linear)"/>
</g>
<g opacity="0.1">
<path opacity="0.1" d="M259.644 251.923C259.644 251.923 261.286 254.655 260.295 257.463C259.305 260.271 259.644 251.923 259.644 251.923Z" fill="url(#paint20_linear)"/>
</g>
<path d="M256.253 275.76C256.253 275.76 258.348 277 257.648 278.929C256.948 280.858 256.253 275.76 256.253 275.76Z" fill="url(#paint21_linear)"/>
<g opacity="0.1">
<path opacity="0.1" d="M256.034 270.122C256.034 270.122 257.981 271.165 258.222 272.695C258.463 274.225 256.034 270.122 256.034 270.122Z" fill="url(#paint22_linear)"/>
</g>
<g opacity="0.1">
<path opacity="0.1" d="M284.909 329.27C284.909 329.27 297.141 330.51 299.587 327.631C299.587 327.642 288.552 329.816 284.909 329.27Z" fill="url(#paint23_linear)"/>
</g>
<g opacity="0.1">
<path opacity="0.1" d="M263.792 328.581C263.792 328.581 276.921 331.646 279.515 329.221C279.515 329.221 268.234 330.062 263.792 328.581Z" fill="url(#paint24_linear)"/>
</g>
<g opacity="0.1">
<path opacity="0.1" d="M285.855 333.28C285.855 333.28 291.326 333.28 293.892 333.428C296.458 333.575 285.855 333.28 285.855 333.28Z" fill="url(#paint25_linear)"/>
</g>
<g opacity="0.1">
<path opacity="0.1" d="M264.689 335.602C264.689 335.602 267.386 338.618 270.428 338.077C273.47 337.536 264.689 335.602 264.689 335.602Z" fill="url(#paint26_linear)"/>
</g>
<path d="M269.985 212.083C269.137 213.383 269.109 214.886 268.89 216.328C268.288 219.873 266.616 223.149 264.098 225.72C261.702 228.244 258.414 230.528 257.796 233.609C257.21 236.538 259.202 239.351 260.247 242.198C262.982 249.71 259.152 257.583 258.031 265.336C257.724 267.477 258.096 270.215 260.766 270.925C261.598 271.149 262.55 271.122 263.294 271.471C264.3 271.947 264.607 272.935 264.793 273.826C265.459 277.009 265.689 280.268 265.477 283.513C265.356 285.338 265.225 287.43 266.959 288.681C267.844 289.226 268.818 289.611 269.837 289.818C272.572 290.55 276.112 291.134 277.956 289.424C278.732 288.709 279.05 287.692 279.985 287.124C281.429 286.277 283.481 286.851 285.303 286.938C287.024 287.012 288.734 286.624 290.255 285.816C291.776 285.007 293.053 283.806 293.952 282.338C295.424 279.71 295.298 276.716 294.751 273.886C294.204 271.056 293.263 268.259 293.192 265.396C293.107 264.393 293.332 263.388 293.837 262.517C294.931 260.812 297.541 260.036 299.308 258.692C302.623 256.179 302.591 252.059 301.409 248.612C300.227 245.164 298.039 241.87 297.771 238.308C297.653 237.446 297.826 236.569 298.263 235.816C298.842 235.101 299.52 234.472 300.276 233.948C305.118 229.899 304.549 223.245 300.544 218.694C296.102 213.629 276.03 202.757 269.985 212.083Z" fill="url(#paint27_linear)"/>
<g opacity="0.1">
<path opacity="0.1" d="M260.859 245.306C261.335 242.317 261.074 239.256 260.099 236.39C259.552 234.953 258.802 233.522 258.249 232.085C257.971 232.6 257.769 233.151 257.648 233.724C257.057 236.647 259.054 239.46 260.099 242.312C260.451 243.283 260.706 244.286 260.859 245.306Z" fill="url(#paint28_linear)"/>
<path opacity="0.1" d="M265.334 277.705C265.548 274.46 265.316 271.201 264.645 268.018C264.459 267.128 264.152 266.139 263.151 265.664C262.402 265.308 261.45 265.336 260.618 265.117C260.11 264.995 259.637 264.76 259.233 264.429C258.829 264.097 258.506 263.679 258.288 263.205C258.14 263.959 258.003 264.713 257.894 265.461C257.582 267.603 257.954 270.34 260.629 271.051C261.461 271.275 262.413 271.247 263.162 271.597C264.163 272.072 264.47 273.061 264.656 273.952C264.966 275.428 265.181 276.923 265.301 278.426C265.29 278.191 265.334 277.946 265.334 277.705Z" fill="url(#paint29_linear)"/>
<path opacity="0.1" d="M293.782 276.552C292.884 278.02 291.608 279.22 290.088 280.029C288.568 280.838 286.859 281.226 285.138 281.153C283.317 281.065 281.265 280.492 279.821 281.338C278.858 281.885 278.562 282.923 277.791 283.638C275.947 285.349 272.408 284.764 269.672 284.032C268.653 283.827 267.679 283.442 266.795 282.895C266.039 282.351 265.53 281.53 265.378 280.612C265.378 281.628 265.378 282.65 265.312 283.666C265.192 285.485 265.06 287.578 266.795 288.829C267.679 289.375 268.653 289.76 269.672 289.965C272.408 290.703 275.947 291.282 277.791 289.572C278.562 288.856 278.885 287.845 279.821 287.277C281.265 286.425 283.317 286.999 285.138 287.091C286.86 287.165 288.57 286.777 290.09 285.967C291.61 285.157 292.885 283.955 293.782 282.486C295.199 279.962 295.139 277.099 294.647 274.367C294.457 275.131 294.166 275.865 293.782 276.552Z" fill="url(#paint30_linear)"/>
<path opacity="0.1" d="M300.123 228.146C299.365 228.67 298.685 229.299 298.104 230.014C297.67 230.768 297.498 231.644 297.617 232.505C297.71 233.588 297.94 234.655 298.301 235.68C298.86 235.093 299.47 234.558 300.123 234.079C303.406 231.347 304.193 227.413 303.132 223.747C302.57 225.47 301.526 226.996 300.123 228.146Z" fill="url(#paint31_linear)"/>
<path opacity="0.1" d="M299.155 252.89C297.382 254.228 294.778 255.004 293.684 256.714C293.176 257.584 292.951 258.59 293.038 259.594C293.08 260.751 293.223 261.903 293.465 263.036C293.531 262.902 293.604 262.773 293.684 262.648C294.778 260.949 297.382 260.167 299.155 258.823C302.18 256.529 302.437 252.895 301.54 249.655C301.083 250.945 300.253 252.071 299.155 252.89Z" fill="url(#paint32_linear)"/>
</g>
<path d="M321.951 254.103C319.905 259.244 317.258 261.271 317.258 261.271H315.786L302.831 261.402L301.332 257.348L303.433 248.606L304.724 248.688C305.503 249.097 306.347 249.365 307.219 249.481C308.165 249.481 310.014 249.431 310.561 249.677C310.638 249.712 310.724 249.723 310.807 249.71C311.294 249.661 311.814 248.934 311.814 248.934C311.814 248.934 323.998 248.956 321.951 254.103Z" fill="url(#paint33_linear)"/>
<g opacity="0.1">
<path opacity="0.1" d="M321.952 254.103C319.906 259.244 317.258 261.271 317.258 261.271H315.786C316.552 259.233 318.172 255.048 318.806 254.086C319.441 253.125 313.987 250.896 310.813 249.666C311.3 249.617 311.82 248.891 311.82 248.891C311.82 248.891 323.998 248.956 321.952 254.103Z" fill="url(#paint34_linear)"/>
</g>
<path d="M311.398 258.086C311.398 258.086 318.51 262.708 321.246 260.238C323.981 257.769 323.615 253.048 323.248 252.3C322.881 251.551 319.966 241.919 319.966 241.919L314.347 227.676C314.347 227.676 310.939 208.93 305.851 213.607C300.763 218.284 308.586 229.506 308.586 229.506C308.586 229.506 311.798 237.701 311.634 239.34C311.469 240.979 313.422 246.989 313.422 246.989L311.398 258.086Z" fill="#EFB7B9"/>
<path d="M298.088 425.084C298.033 425.313 297.968 425.553 297.902 425.799C297.235 428.078 295.982 427.564 292.3 431.317C291.384 432.295 290.218 433.005 288.928 433.37C287.638 433.735 286.273 433.741 284.98 433.388C284.779 433.334 284.604 433.211 284.484 433.042C284.364 432.872 284.307 432.666 284.323 432.459L284.783 426.373L285.007 423.444C285.007 423.444 290.872 425.084 293.854 423.002C293.952 422.931 294.051 422.86 294.144 422.778C294.173 422.757 294.201 422.733 294.226 422.707C294.611 422.389 295.087 422.199 295.586 422.165C296.085 422.13 296.583 422.252 297.009 422.515C297.435 422.777 297.768 423.165 297.961 423.626C298.155 424.087 298.199 424.596 298.088 425.084Z" fill="white"/>
<path d="M279.679 422.789C279.629 423.018 279.564 423.253 279.498 423.499C278.831 425.783 277.578 425.264 273.896 429.017C272.981 429.996 271.815 430.707 270.525 431.072C269.235 431.437 267.869 431.442 266.576 431.088C266.375 431.035 266.199 430.913 266.079 430.743C265.959 430.573 265.902 430.366 265.92 430.159L266.379 424.073L266.603 421.144C266.603 421.144 272.468 422.783 275.45 420.702C275.55 420.634 275.647 420.561 275.74 420.483L275.822 420.407C276.208 420.09 276.684 419.902 277.182 419.868C277.681 419.835 278.178 419.958 278.603 420.221C279.028 420.483 279.36 420.872 279.553 421.333C279.746 421.793 279.79 422.302 279.679 422.789Z" fill="white"/>
<path opacity="0.1" d="M273.622 423.701L273.863 426.865C270.498 430.219 266.488 425.226 265.307 423.587C268.403 425.16 273.622 423.701 273.622 423.701Z" fill="black"/>
<path opacity="0.1" d="M293.405 424.985L293.848 424.696C290.774 429.361 286.189 427.209 284.783 426.373L285.008 423.444C285.008 423.444 290.872 425.084 293.854 423.002C293.619 424.144 293.405 424.985 293.405 424.985Z" fill="black"/>
<path d="M302.76 336.651C300.402 342.535 298.044 362.253 297.754 364.515C297.464 366.777 297.53 376.136 297.53 376.136L296.939 399.083C296.868 401.951 294.751 409.163 294.751 409.163C294.751 409.163 294.018 415.173 294.384 417.183C294.751 419.194 293.427 424.395 293.427 424.395L293.87 424.1C290.188 429.689 284.367 425.499 284.367 425.499C284.367 425.499 282.967 418.729 284.438 417.036C285.91 415.342 283.924 410.119 283.924 410.119C283.924 410.119 284.663 382.971 284.881 381.709C285.1 380.447 283.995 376.633 282.967 373.47C281.938 370.306 283.557 357.795 283.924 355.517C284.291 353.238 283.776 342.858 283.41 340.727C283.043 338.596 283.847 329.691 283.847 329.691C282.376 325.276 281.2 329.248 281.2 329.248L280.018 340.798L278.743 364.515C278.743 364.515 278.891 371.721 277.786 373.803C276.681 375.885 275.729 381.135 275.729 381.135L276.243 407.906C276.243 407.906 276.172 413.501 276.538 415.632C276.905 417.762 275.729 423.281 275.729 423.281C271.604 432.989 264.973 422.472 264.973 422.472C264.973 422.472 265.269 420.833 265.854 420.631C266.439 420.429 265.635 416.435 265.192 415.774C264.749 415.113 265.269 410.31 265.269 410.31C265.269 410.31 264.721 405.967 263.939 400.744C263.157 395.52 263.354 375.36 263.868 374.109C264.382 372.858 264.825 367.045 264.825 367.045C264.825 367.045 264.235 363.734 264.973 361.379C265.712 359.024 263.206 349.091 263.206 347.988C263.206 346.884 262.249 340.044 261.729 339.306C261.391 338.672 261.214 337.965 261.215 337.247C261.215 337.247 261.144 335.777 259.891 331.362C258.977 328.139 259.513 321.785 259.891 318.583C260.022 317.398 260.131 316.644 260.131 316.644C260.131 316.644 302.421 309.803 304.117 311.349C304.511 311.71 304.779 312.989 304.926 314.742C305.381 320.61 304.571 332.111 302.76 336.651Z" fill="#444053"/>
<path opacity="0.1" d="M286.774 369.705C286.971 369.705 291.638 370.099 293.339 369.755C295.041 369.41 286.774 369.705 286.774 369.705Z" fill="black"/>
<path opacity="0.1" d="M287.119 372.454C287.119 372.454 293.553 373.585 293.898 373C294.242 372.415 287.119 372.454 287.119 372.454Z" fill="black"/>
<path opacity="0.1" d="M267.424 371.279C267.424 371.279 270.762 371.426 272.578 372.257C274.394 373.087 267.424 371.279 267.424 371.279Z" fill="black"/>
<path d="M255.29 288.774C255.29 288.774 255.837 299.024 255.536 300.838C255.536 300.838 256.718 309.131 257.697 311.218C258.577 312.898 259.614 314.492 260.794 315.977L263.693 295.642L263.009 288.676L255.29 288.774Z" fill="#EFB7B9"/>
<path d="M285.746 242.078C292.012 242.078 297.092 237.004 297.092 230.746C297.092 224.488 292.012 219.415 285.746 219.415C279.479 219.415 274.399 224.488 274.399 230.746C274.399 237.004 279.479 242.078 285.746 242.078Z" fill="#EFB7B9"/>
<path d="M279.848 236.046C279.848 236.046 276.314 242.957 272.774 246.197C269.235 249.437 293.996 253.114 294.587 253.114C295.177 253.114 290.166 238.395 291.047 236.63C291.928 234.866 279.848 236.046 279.848 236.046Z" fill="#EFB7B9"/>
<path opacity="0.1" d="M304.899 314.797C304.345 315.221 303.733 315.565 303.083 315.819C298.564 317.583 293.651 320.036 290.308 319.053C286.966 318.07 279.914 319.053 279.914 319.053C279.914 319.053 265.69 317.878 262.823 318.561C261.86 318.851 260.837 318.871 259.863 318.621C259.995 317.436 260.104 316.682 260.104 316.682C260.104 316.682 302.393 309.842 304.089 311.388C304.483 311.748 304.751 312.999 304.899 314.797Z" fill="black"/>
<path d="M308.007 308.241C308.007 308.241 307.613 313.158 303.083 314.912C298.553 316.666 293.651 319.13 290.309 318.152C286.966 317.174 279.914 318.152 279.914 318.152C279.914 318.152 265.69 316.971 262.823 317.66C259.957 318.348 258.501 317.463 259.382 316.185C260.263 314.906 260.17 310.721 260.17 308.929C260.17 307.137 259.185 300.002 260.071 298.723C260.958 297.445 261.713 292.544 263.513 291.757C263.777 291.645 264.012 291.475 264.202 291.259C264.391 291.043 264.53 290.788 264.607 290.512C264.759 289.924 264.759 289.307 264.607 288.72C264.607 288.72 264.311 288.474 263.896 288.108C262.856 287.179 261.094 285.458 261.663 284.895C262.446 284.108 261.663 279.005 261.663 279.005C261.663 279.005 259.792 275.083 260.482 273.613C261.171 272.143 254.464 264.391 254.464 264.391C254.464 264.391 254.464 251.049 262.522 250.459C262.522 250.459 268.217 250.655 268.907 248.104C269.596 245.552 274.115 244.083 274.115 244.083L284.427 246.339C284.427 246.339 293.564 248.301 295.232 247.126C296.901 245.951 298.159 248.688 298.159 248.688C298.159 248.688 303.854 248.983 304.445 250.158C305.036 251.333 302.58 262.812 302.58 262.812C302.58 262.812 298.455 262.424 298.75 266.838C299.045 271.253 297.174 276.842 297.174 276.842C297.174 276.842 296.879 280.082 297.076 280.765C297.273 281.448 296.688 283.868 296.6 284.25V284.3C296.6 284.3 296.195 285.939 296.726 286.523C296.773 286.578 296.831 286.622 296.895 286.654C297.683 287.042 298.865 290.872 298.865 290.872C299.477 291.614 299.791 292.557 299.746 293.517C299.647 295.09 300.238 298.816 302.793 300.974C305.348 303.132 308.007 308.241 308.007 308.241Z" fill="white"/>
<path d="M264.18 285.534V285.95L263.999 290.539C263.999 290.539 257.982 291.031 254.699 290.195C251.417 289.359 252.795 285.736 252.921 284.977C253.019 284.289 253.906 278.547 253.906 277.618C253.906 276.689 253.906 272.859 253.758 271.094C253.61 269.33 254.491 264.423 254.491 264.423L255.131 263.637L262.057 266.286L264.18 285.534Z" fill="white"/>
<path opacity="0.1" d="M264.163 285.95L263.983 290.539C263.983 290.539 257.965 291.031 254.682 290.195C251.4 289.359 252.779 285.736 252.904 284.977L264.163 285.95Z" fill="black"/>
<path opacity="0.1" d="M264.601 290.517C264.753 289.929 264.753 289.313 264.601 288.725C264.601 288.725 264.306 288.479 263.89 288.113C269.098 287.392 289.696 284.567 296.638 284.289V284.338C296.638 284.338 296.234 285.977 296.764 286.561L264.601 290.517Z" fill="black"/>
<path opacity="0.1" d="M297.382 294.068C297.382 294.068 298.663 301.28 293.897 303.832C293.897 303.832 296.6 300.253 297.382 294.068Z" fill="black"/>
<path opacity="0.1" d="M266.193 304.028C266.193 304.028 277.682 302.067 279.947 303.586C282.212 305.105 266.193 304.028 266.193 304.028Z" fill="black"/>
<path opacity="0.1" d="M293.405 259.342C293.405 259.342 291.638 266.603 292.962 268.27C294.286 269.936 293.405 259.342 293.405 259.342Z" fill="black"/>
<path opacity="0.1" d="M260.104 253.409C260.104 253.409 261.745 256.102 260.744 258.9C259.743 261.697 260.104 253.409 260.104 253.409Z" fill="black"/>
<path d="M256.767 277.05C256.767 277.05 258.83 278.279 258.14 280.191C257.451 282.103 256.767 277.05 256.767 277.05Z" fill="white"/>
<path opacity="0.1" d="M256.581 271.46C256.581 271.46 258.496 272.487 258.742 274.006C258.988 275.525 256.581 271.46 256.581 271.46Z" fill="black"/>
<path opacity="0.1" d="M284.958 330.122C284.958 330.122 296.994 331.351 299.396 328.483C299.396 328.505 288.541 330.641 284.958 330.122Z" fill="black"/>
<path opacity="0.1" d="M264.18 329.434C264.18 329.434 277.096 332.477 279.651 330.073C279.651 330.095 268.551 330.909 264.18 329.434Z" fill="black"/>
<path opacity="0.1" d="M285.888 334.094C285.888 334.094 291.293 334.094 293.799 334.242C296.305 334.389 285.888 334.094 285.888 334.094Z" fill="black"/>
<path opacity="0.1" d="M265.066 336.4C265.066 336.4 267.72 339.394 270.712 338.853C273.705 338.312 265.066 336.4 265.066 336.4Z" fill="black"/>
<path d="M270.258 213.864C269.426 215.153 269.399 216.645 269.164 218.076C268.568 221.577 266.924 224.816 264.448 227.364C262.095 229.867 258.862 232.134 258.249 235.188C257.675 238.089 259.634 240.881 260.662 243.706C263.397 251.152 259.568 258.965 258.474 266.652C258.167 268.778 258.534 271.493 261.154 272.198C261.975 272.416 262.911 272.389 263.649 272.744C264.634 273.214 264.935 274.198 265.115 275.077C265.774 278.235 266.003 281.468 265.794 284.688C265.673 286.496 265.542 288.572 267.249 289.818C268.121 290.355 269.08 290.736 270.083 290.943C272.774 291.67 276.254 292.244 278.07 290.55C278.831 289.84 279.115 288.834 280.067 288.272C281.489 287.43 283.508 287.998 285.297 288.086C286.994 288.156 288.679 287.77 290.176 286.967C291.672 286.165 292.925 284.976 293.804 283.524C295.254 280.912 295.128 277.951 294.592 275.143C294.056 272.334 293.126 269.559 293.06 266.718C292.974 265.725 293.196 264.729 293.695 263.866C294.789 262.172 297.333 261.402 299.078 260.074C302.361 257.583 302.328 253.518 301.146 250.076C299.964 246.634 297.825 243.389 297.563 239.854C297.447 239 297.616 238.132 298.044 237.384C298.635 236.692 299.318 236.083 300.074 235.576C304.839 231.56 304.275 224.96 300.336 220.447C295.971 215.421 276.221 204.642 270.258 213.864Z" fill="#E3787D"/>
<g opacity="0.1">
<path opacity="0.1" d="M261.302 246.842C261.766 243.876 261.507 240.841 260.547 237.996C260.033 236.57 259.278 235.155 258.726 233.729C258.454 234.246 258.256 234.798 258.135 235.368C257.56 238.269 259.519 241.061 260.547 243.886C260.897 244.844 261.15 245.834 261.302 246.842Z" fill="black"/>
<path opacity="0.1" d="M265.69 278.978C265.899 275.759 265.671 272.526 265.012 269.368C264.831 268.488 264.53 267.505 263.546 267.035C262.807 266.68 261.872 266.707 261.051 266.489C260.551 266.365 260.085 266.131 259.688 265.802C259.291 265.474 258.973 265.061 258.759 264.593C258.611 265.336 258.48 266.084 258.37 266.827C258.064 268.953 258.43 271.668 261.051 272.373C261.872 272.591 262.807 272.564 263.546 272.919C264.53 273.394 264.831 274.372 265.012 275.258C265.315 276.722 265.527 278.203 265.646 279.694C265.657 279.454 265.674 279.213 265.69 278.978Z" fill="black"/>
<path opacity="0.1" d="M293.701 277.814C292.822 279.267 291.569 280.456 290.073 281.259C288.576 282.061 286.891 282.447 285.193 282.376C283.404 282.289 281.364 281.721 279.963 282.562C279.017 283.109 278.727 284.13 277.966 284.841C276.15 286.534 272.671 285.961 269.979 285.234C268.976 285.028 268.019 284.645 267.151 284.103C266.409 283.558 265.907 282.747 265.75 281.841C265.75 282.846 265.75 283.857 265.69 284.862C265.57 286.671 265.438 288.747 267.151 289.993C268.02 290.53 268.978 290.911 269.979 291.118C272.671 291.845 276.15 292.418 277.966 290.73C278.727 290.014 279.017 289.009 279.963 288.446C281.386 287.605 283.404 288.173 285.193 288.261C286.891 288.332 288.576 287.946 290.073 287.143C291.569 286.34 292.822 285.151 293.701 283.699C295.096 281.191 295.035 278.355 294.549 275.646C294.362 276.403 294.077 277.132 293.701 277.814Z" fill="black"/>
<path opacity="0.1" d="M299.926 229.823C299.18 230.344 298.511 230.967 297.94 231.675C297.512 232.423 297.343 233.291 297.459 234.145C297.555 235.219 297.783 236.278 298.137 237.297C298.683 236.713 299.282 236.181 299.926 235.707C303.148 232.975 303.931 229.096 302.886 225.463C302.336 227.169 301.309 228.682 299.926 229.823Z" fill="black"/>
<path opacity="0.1" d="M298.974 254.365C297.229 255.693 294.685 256.463 293.591 258.151C293.094 259.017 292.873 260.014 292.956 261.009C292.998 262.157 293.139 263.299 293.378 264.423C293.438 264.29 293.509 264.162 293.591 264.041C294.685 262.347 297.229 261.577 298.974 260.249C301.95 257.971 302.202 254.371 301.321 251.158C300.87 252.433 300.054 253.549 298.974 254.365Z" fill="black"/>
</g>
<path d="M321.404 255.567C319.391 260.67 316.782 262.67 316.782 262.67H315.332L302.59 262.801L301.119 258.78L303.181 250.098L304.456 250.147C305.222 250.552 306.053 250.818 306.912 250.934C307.848 250.934 309.648 250.885 310.195 251.131C310.271 251.163 310.354 251.175 310.435 251.163C310.917 251.114 311.42 250.393 311.42 250.393C311.42 250.393 323.412 250.464 321.404 255.567Z" fill="white"/>
<path opacity="0.1" d="M321.405 255.567C319.392 260.67 316.782 262.67 316.782 262.67H315.332C316.093 260.648 317.685 256.501 318.308 255.567C318.932 254.633 313.565 252.404 310.447 251.196C310.928 251.147 311.432 250.426 311.432 250.426C311.432 250.426 323.413 250.464 321.405 255.567Z" fill="black"/>
<defs>
<linearGradient id="paint0_linear" x1="314.232" y1="259.544" x2="314.232" y2="211.061" gradientUnits="userSpaceOnUse">
<stop stop-color="#808080" stop-opacity="0.25"/>
<stop offset="0.54" stop-color="#808080" stop-opacity="0.12"/>
<stop offset="1" stop-color="#808080" stop-opacity="0.1"/>
</linearGradient>
<linearGradient id="paint1_linear" x1="8732.08" y1="10223.6" x2="8732.08" y2="9978" gradientUnits="userSpaceOnUse">
<stop stop-color="#808080" stop-opacity="0.25"/>
<stop offset="0.54" stop-color="#808080" stop-opacity="0.12"/>
<stop offset="1" stop-color="#808080" stop-opacity="0.1"/>
</linearGradient>
<linearGradient id="paint2_linear" x1="8231.67" y1="10176.3" x2="8231.67" y2="9930.6" gradientUnits="userSpaceOnUse">
<stop stop-color="#808080" stop-opacity="0.25"/>
<stop offset="0.54" stop-color="#808080" stop-opacity="0.12"/>
<stop offset="1" stop-color="#808080" stop-opacity="0.1"/>
</linearGradient>
<linearGradient id="paint3_linear" x1="5146.77" y1="4151.44" x2="5146.77" y2="4115.06" gradientUnits="userSpaceOnUse">
<stop stop-color="#808080" stop-opacity="0.25"/>
<stop offset="0.54" stop-color="#808080" stop-opacity="0.12"/>
<stop offset="1" stop-color="#808080" stop-opacity="0.1"/>
</linearGradient>
<linearGradient id="paint4_linear" x1="5796.17" y1="4296.44" x2="5796.17" y2="4257.07" gradientUnits="userSpaceOnUse">
<stop stop-color="#808080" stop-opacity="0.25"/>
<stop offset="0.54" stop-color="#808080" stop-opacity="0.12"/>
<stop offset="1" stop-color="#808080" stop-opacity="0.1"/>
</linearGradient>
<linearGradient id="paint5_linear" x1="27401.5" y1="98159" x2="27401.5" y2="73020.4" gradientUnits="userSpaceOnUse">
<stop stop-color="#808080" stop-opacity="0.25"/>
<stop offset="0.54" stop-color="#808080" stop-opacity="0.12"/>
<stop offset="1" stop-color="#808080" stop-opacity="0.1"/>
</linearGradient>
<linearGradient id="paint6_linear" x1="4443.37" y1="597.15" x2="4443.37" y2="596.972" gradientUnits="userSpaceOnUse">
<stop stop-color="#808080" stop-opacity="0.25"/>
<stop offset="0.54" stop-color="#808080" stop-opacity="0.12"/>
<stop offset="1" stop-color="#808080" stop-opacity="0.1"/>
</linearGradient>
<linearGradient id="paint7_linear" x1="4430.24" y1="898.873" x2="4430.24" y2="897.934" gradientUnits="userSpaceOnUse">
<stop stop-color="#808080" stop-opacity="0.25"/>
<stop offset="0.54" stop-color="#808080" stop-opacity="0.12"/>
<stop offset="1" stop-color="#808080" stop-opacity="0.1"/>
</linearGradient>
<linearGradient id="paint8_linear" x1="3386.96" y1="1258.5" x2="3386.96" y2="1255.82" gradientUnits="userSpaceOnUse">
<stop stop-color="#808080" stop-opacity="0.25"/>
<stop offset="0.54" stop-color="#808080" stop-opacity="0.12"/>
<stop offset="1" stop-color="#808080" stop-opacity="0.1"/>
</linearGradient>
<linearGradient id="paint9_linear" x1="4881.42" y1="17626.1" x2="4881.42" y2="16237.5" gradientUnits="userSpaceOnUse">
<stop stop-color="#808080" stop-opacity="0.25"/>
<stop offset="0.54" stop-color="#808080" stop-opacity="0.12"/>
<stop offset="1" stop-color="#808080" stop-opacity="0.1"/>
</linearGradient>
<linearGradient id="paint10_linear" x1="12319.6" y1="10275.3" x2="12319.6" y2="9319.78" gradientUnits="userSpaceOnUse">
<stop stop-color="#808080" stop-opacity="0.25"/>
<stop offset="0.54" stop-color="#808080" stop-opacity="0.12"/>
<stop offset="1" stop-color="#808080" stop-opacity="0.1"/>
</linearGradient>
<linearGradient id="paint11_linear" x1="13519.1" y1="9267.81" x2="13519.1" y2="8701.02" gradientUnits="userSpaceOnUse">
<stop stop-color="#808080" stop-opacity="0.25"/>
<stop offset="0.54" stop-color="#808080" stop-opacity="0.12"/>
<stop offset="1" stop-color="#808080" stop-opacity="0.1"/>
</linearGradient>
<linearGradient id="paint12_linear" x1="27036.9" y1="5499.34" x2="27036.9" y2="5377.25" gradientUnits="userSpaceOnUse">
<stop stop-color="#808080" stop-opacity="0.25"/>
<stop offset="0.54" stop-color="#808080" stop-opacity="0.12"/>
<stop offset="1" stop-color="#808080" stop-opacity="0.1"/>
</linearGradient>
<linearGradient id="paint13_linear" x1="31958.2" y1="47711.2" x2="31958.2" y2="37443.4" gradientUnits="userSpaceOnUse">
<stop stop-color="#808080" stop-opacity="0.25"/>
<stop offset="0.54" stop-color="#808080" stop-opacity="0.12"/>
<stop offset="1" stop-color="#808080" stop-opacity="0.1"/>
</linearGradient>
<linearGradient id="paint14_linear" x1="6671.55" y1="16139.6" x2="6671.55" y2="14778.3" gradientUnits="userSpaceOnUse">
<stop stop-color="#808080" stop-opacity="0.25"/>
<stop offset="0.54" stop-color="#808080" stop-opacity="0.12"/>
<stop offset="1" stop-color="#808080" stop-opacity="0.1"/>
</linearGradient>
<linearGradient id="paint15_linear" x1="6671.32" y1="3636.57" x2="6671.32" y2="3575.98" gradientUnits="userSpaceOnUse">
<stop stop-color="#808080" stop-opacity="0.25"/>
<stop offset="0.54" stop-color="#808080" stop-opacity="0.12"/>
<stop offset="1" stop-color="#808080" stop-opacity="0.1"/>
</linearGradient>
<linearGradient id="paint16_linear" x1="19678.5" y1="3958.23" x2="19678.5" y2="3885.35" gradientUnits="userSpaceOnUse">
<stop stop-color="#808080" stop-opacity="0.25"/>
<stop offset="0.54" stop-color="#808080" stop-opacity="0.12"/>
<stop offset="1" stop-color="#808080" stop-opacity="0.1"/>
</linearGradient>
<linearGradient id="paint17_linear" x1="2551.86" y1="6262.2" x2="2551.86" y2="6084.98" gradientUnits="userSpaceOnUse">
<stop stop-color="#808080" stop-opacity="0.25"/>
<stop offset="0.54" stop-color="#808080" stop-opacity="0.12"/>
<stop offset="1" stop-color="#808080" stop-opacity="0.1"/>
</linearGradient>
<linearGradient id="paint18_linear" x1="8330.13" y1="1152.97" x2="8330.13" y2="1149.39" gradientUnits="userSpaceOnUse">
<stop stop-color="#808080" stop-opacity="0.25"/>
<stop offset="0.54" stop-color="#808080" stop-opacity="0.12"/>
<stop offset="1" stop-color="#808080" stop-opacity="0.1"/>
</linearGradient>
<linearGradient id="paint19_linear" x1="1043.83" y1="5229.57" x2="1043.83" y2="5075.38" gradientUnits="userSpaceOnUse">
<stop stop-color="#808080" stop-opacity="0.25"/>
<stop offset="0.54" stop-color="#808080" stop-opacity="0.12"/>
<stop offset="1" stop-color="#808080" stop-opacity="0.1"/>
</linearGradient>
<linearGradient id="paint20_linear" x1="817.476" y1="3464.35" x2="817.476" y2="3395.77" gradientUnits="userSpaceOnUse">
<stop stop-color="#808080" stop-opacity="0.25"/>
<stop offset="0.54" stop-color="#808080" stop-opacity="0.12"/>
<stop offset="1" stop-color="#808080" stop-opacity="0.1"/>
</linearGradient>
<linearGradient id="paint21_linear" x1="1085.06" y1="2309.32" x2="1085.06" y2="2285.53" gradientUnits="userSpaceOnUse">
<stop stop-color="#808080" stop-opacity="0.25"/>
<stop offset="0.54" stop-color="#808080" stop-opacity="0.12"/>
<stop offset="1" stop-color="#808080" stop-opacity="0.1"/>
</linearGradient>
<linearGradient id="paint22_linear" x1="1444.74" y1="1880.85" x2="1444.74" y2="1865.29" gradientUnits="userSpaceOnUse">
<stop stop-color="#808080" stop-opacity="0.25"/>
<stop offset="0.54" stop-color="#808080" stop-opacity="0.12"/>
<stop offset="1" stop-color="#808080" stop-opacity="0.1"/>
</linearGradient>
<linearGradient id="paint23_linear" x1="9138.61" y1="1577.05" x2="9138.61" y2="1570.44" gradientUnits="userSpaceOnUse">
<stop stop-color="#808080" stop-opacity="0.25"/>
<stop offset="0.54" stop-color="#808080" stop-opacity="0.12"/>
<stop offset="1" stop-color="#808080" stop-opacity="0.1"/>
</linearGradient>
<linearGradient id="paint24_linear" x1="9155.96" y1="1362.45" x2="9155.96" y2="1357.92" gradientUnits="userSpaceOnUse">
<stop stop-color="#808080" stop-opacity="0.25"/>
<stop offset="0.54" stop-color="#808080" stop-opacity="0.12"/>
<stop offset="1" stop-color="#808080" stop-opacity="0.1"/>
</linearGradient>
<linearGradient id="paint25_linear" x1="5341.54" y1="458.495" x2="5341.54" y2="458.43" gradientUnits="userSpaceOnUse">
<stop stop-color="#808080" stop-opacity="0.25"/>
<stop offset="0.54" stop-color="#808080" stop-opacity="0.12"/>
<stop offset="1" stop-color="#808080" stop-opacity="0.1"/>
</linearGradient>
<linearGradient id="paint26_linear" x1="3828.5" y1="2041.74" x2="3828.5" y2="2029.93" gradientUnits="userSpaceOnUse">
<stop stop-color="#808080" stop-opacity="0.25"/>
<stop offset="0.54" stop-color="#808080" stop-opacity="0.12"/>
<stop offset="1" stop-color="#808080" stop-opacity="0.1"/>
</linearGradient>
<linearGradient id="paint27_linear" x1="27056.9" y1="48206.5" x2="27056.9" y2="35867.9" gradientUnits="userSpaceOnUse">
<stop stop-color="#808080" stop-opacity="0.25"/>
<stop offset="0.54" stop-color="#808080" stop-opacity="0.12"/>
<stop offset="1" stop-color="#808080" stop-opacity="0.1"/>
</linearGradient>
<linearGradient id="paint28_linear" x1="2185.16" y1="6866.86" x2="2185.16" y2="6546.9" gradientUnits="userSpaceOnUse">
<stop stop-color="#808080" stop-opacity="0.25"/>
<stop offset="0.54" stop-color="#808080" stop-opacity="0.12"/>
<stop offset="1" stop-color="#808080" stop-opacity="0.1"/>
</linearGradient>
<linearGradient id="paint29_linear" x1="4421.59" y1="8824.15" x2="4421.59" y2="8399.93" gradientUnits="userSpaceOnUse">
<stop stop-color="#808080" stop-opacity="0.25"/>
<stop offset="0.54" stop-color="#808080" stop-opacity="0.12"/>
<stop offset="1" stop-color="#808080" stop-opacity="0.1"/>
</linearGradient>
<linearGradient id="paint30_linear" x1="17530" y1="9819.31" x2="17530" y2="9331.81" gradientUnits="userSpaceOnUse">
<stop stop-color="#808080" stop-opacity="0.25"/>
<stop offset="0.54" stop-color="#808080" stop-opacity="0.12"/>
<stop offset="1" stop-color="#808080" stop-opacity="0.1"/>
</linearGradient>
<linearGradient id="paint31_linear" x1="4004.5" y1="6001.25" x2="4004.5" y2="5740.65" gradientUnits="userSpaceOnUse">
<stop stop-color="#808080" stop-opacity="0.25"/>
<stop offset="0.54" stop-color="#808080" stop-opacity="0.12"/>
<stop offset="1" stop-color="#808080" stop-opacity="0.1"/>
</linearGradient>
<linearGradient id="paint32_linear" x1="5792.43" y1="7398.02" x2="5792.43" y2="7070.47" gradientUnits="userSpaceOnUse">
<stop stop-color="#808080" stop-opacity="0.25"/>
<stop offset="0.54" stop-color="#808080" stop-opacity="0.12"/>
<stop offset="1" stop-color="#808080" stop-opacity="0.1"/>
</linearGradient>
<linearGradient id="paint33_linear" x1="13622.2" y1="7046.87" x2="13622.2" y2="6746.95" gradientUnits="userSpaceOnUse">
<stop stop-color="#808080" stop-opacity="0.25"/>
<stop offset="0.54" stop-color="#808080" stop-opacity="0.12"/>
<stop offset="1" stop-color="#808080" stop-opacity="0.1"/>
</linearGradient>
<linearGradient id="paint34_linear" x1="7673.29" y1="6823.59" x2="7673.29" y2="6543.06" gradientUnits="userSpaceOnUse">
<stop stop-color="#808080" stop-opacity="0.25"/>
<stop offset="0.54" stop-color="#808080" stop-opacity="0.12"/>
<stop offset="1" stop-color="#808080" stop-opacity="0.1"/>
</linearGradient>
</defs>
</svg>
