<svg width="55" height="17" viewBox="0 0 55 17" fill="none" xmlns="http://www.w3.org/2000/svg">
<g opacity="0.4">
<path d="M18.6948 12.8511V2.26781H20.8859V7.93839H20.9686L23.0838 5.40282H25.7779L23.3801 8.08309L25.9639 12.8511H23.511L21.8712 9.75739L20.8859 10.8598V12.8511H18.6948Z" fill="#2C3E50"/>
<path d="M27.2317 4.24528C26.9928 4.02939 26.8734 3.7423 26.8734 3.38402C26.8734 3.02573 26.9928 2.73864 27.2317 2.52275C27.4706 2.30686 27.7806 2.19891 28.1619 2.19891C28.5431 2.19891 28.8509 2.30686 29.0851 2.52275C29.324 2.73405 29.4434 3.02114 29.4434 3.38402C29.4434 3.7469 29.324 4.03628 29.0851 4.25217C28.8509 4.46347 28.5431 4.56912 28.1619 4.56912C27.7806 4.56912 27.4706 4.46117 27.2317 4.24528ZM27.0732 12.8511V5.40282H29.2643V12.8511H27.0732Z" fill="#2C3E50"/>
<path d="M30.8628 12.8511V5.40282H32.9229V6.21586H33.0401C33.2008 5.93566 33.4558 5.6991 33.8049 5.50618C34.1586 5.31325 34.5697 5.21679 35.0382 5.21679C35.8512 5.21679 36.4989 5.46484 36.9812 5.96093C37.4635 6.45701 37.7047 7.0978 37.7047 7.88327V12.8511H35.5205V8.5585C35.5205 8.16806 35.4126 7.85341 35.1967 7.61456C34.9808 7.37111 34.6891 7.24938 34.3216 7.24938C33.945 7.24938 33.6395 7.38718 33.4053 7.66279C33.171 7.9338 33.0539 8.27142 33.0539 8.67564V12.8511H30.8628Z" fill="#2C3E50"/>
<path d="M38.6211 5.40282H40.9086L42.5416 10.1295H42.6518L44.209 5.40282H46.5241L43.3615 13.9259C43.0951 14.6425 42.7299 15.1822 42.266 15.5451C41.802 15.9126 41.1934 16.0963 40.4401 16.0963H39.4548V14.1602H40.3161C40.8443 14.1602 41.2187 13.8892 41.4391 13.3471L41.5701 12.9889L38.6211 5.40282Z" fill="#2C3E50"/>
<path d="M47.6334 10.3706V5.40282H49.8175V9.68849C49.8175 10.0835 49.9255 10.4028 50.1414 10.6462C50.3573 10.8851 50.6512 11.0045 51.0233 11.0045C51.4 11.0045 51.7054 10.869 51.9397 10.598C52.174 10.3224 52.2911 9.98247 52.2911 9.57824V5.40282H54.4753V12.8511H52.4013V12.0311H52.2911C52.1349 12.3067 51.88 12.5433 51.5263 12.7408C51.1772 12.9383 50.7684 13.0371 50.2999 13.0371C49.4868 13.0371 48.8391 12.789 48.3568 12.293C47.8745 11.7969 47.6334 11.1561 47.6334 10.3706Z" fill="#2C3E50"/>
<rect width="15.1189" height="15.1189" rx="4" fill="#2C3E50"/>
<path d="M5.396 4.154C5.19919 4.35081 5.19919 4.6699 5.396 4.86671L7.17778 6.64849C7.37459 6.8453 7.69368 6.8453 7.89049 6.64849L9.67227 4.86671C9.86909 4.6699 9.86909 4.35081 9.67227 4.154L7.89049 2.37222C7.69368 2.17541 7.37459 2.17541 7.17778 2.37222L5.396 4.154Z" fill="white"/>
<path d="M5.396 10.2016C5.19919 10.3984 5.19919 10.7175 5.396 10.9143L7.17778 12.6961C7.37459 12.8929 7.69368 12.8929 7.89049 12.6961L9.67227 10.9143C9.86909 10.7175 9.86909 10.3984 9.67227 10.2016L7.89049 8.41978C7.69368 8.22297 7.37459 8.22297 7.17778 8.41978L5.396 10.2016Z" fill="white"/>
<path d="M8.54577 7.89049C8.34896 7.69368 8.34896 7.37459 8.54577 7.17778L10.3276 5.396C10.5244 5.19919 10.8435 5.19919 11.0403 5.396L12.822 7.17778C13.0189 7.37459 13.0189 7.69368 12.822 7.89049L11.0403 9.67228C10.8435 9.86909 10.5244 9.86909 10.3276 9.67228L8.54577 7.89049Z" fill="white"/>
<path d="M2.37222 7.17778C2.17541 7.37459 2.17541 7.69368 2.37222 7.89049L4.154 9.67228C4.35081 9.86909 4.6699 9.86909 4.86671 9.67228L6.64849 7.89049C6.8453 7.69368 6.8453 7.37459 6.64849 7.17778L4.86671 5.396C4.6699 5.19919 4.35081 5.19919 4.154 5.396L2.37222 7.17778Z" fill="white"/>
</g>
</svg>
