<svg width="30" height="30" viewBox="0 0 30 30" fill="none" xmlns="http://www.w3.org/2000/svg">
<path d="M0 6C0 2.68629 2.68629 0 6 0H24C27.3137 0 30 2.68629 30 6V24C30 27.3137 27.3137 30 24 30H6C2.68629 30 0 27.3137 0 24V6Z" fill="#14D0BE"/>
<path d="M10.4933 7.99721C10.0903 8.40495 10.0903 9.06603 10.4933 9.47377L14.1414 13.1652C14.5444 13.5729 15.1977 13.5729 15.6006 13.1652L19.2488 9.47377C19.6517 9.06603 19.6517 8.40495 19.2488 7.99721L15.6006 4.30581C15.1977 3.89806 14.5444 3.89806 14.1414 4.30581L10.4933 7.99721Z" fill="white"/>
<path d="M10.4933 20.5262C10.0903 20.934 10.0903 21.5951 10.4933 22.0028L14.1414 25.6942C14.5444 26.1019 15.1977 26.1019 15.6006 25.6942L19.2488 22.0028C19.6517 21.5951 19.6517 20.934 19.2488 20.5262L15.6006 16.8348C15.1977 16.4271 14.5444 16.4271 14.1414 16.8348L10.4933 20.5262Z" fill="white"/>
<path d="M16.9423 15.7383C16.5393 15.3305 16.5393 14.6695 16.9423 14.2617L20.5904 10.5703C20.9934 10.1626 21.6467 10.1626 22.0497 10.5703L25.6978 14.2617C26.1007 14.6695 26.1007 15.3305 25.6978 15.7383L22.0497 19.4297C21.6467 19.8374 20.9934 19.8374 20.5904 19.4297L16.9423 15.7383Z" fill="white"/>
<path d="M4.30222 14.2617C3.89926 14.6695 3.89926 15.3305 4.30222 15.7383L7.95034 19.4297C8.3533 19.8374 9.00662 19.8374 9.40958 19.4297L13.0577 15.7383C13.4607 15.3305 13.4607 14.6695 13.0577 14.2617L9.40958 10.5703C9.00662 10.1626 8.3533 10.1626 7.95034 10.5703L4.30222 14.2617Z" fill="white"/>
</svg>
