<?xml version="1.0" encoding="UTF-8"?>
<svg width="494px" height="159px" viewBox="0 0 494 159" version="1.1" xmlns="http://www.w3.org/2000/svg" xmlns:xlink="http://www.w3.org/1999/xlink">
    <!-- Generator: Sketch 61 (89581) - https://sketch.com -->
    <title>Group 6</title>
    <desc>Created with Sketch.</desc>
    <g id="Page-1" stroke="none" stroke-width="1" fill="none" fill-rule="evenodd">
        <g id="Group-6">
            <path d="M61.6296,123.7622 L66.4744,158.997 L92.9004,158.997 L63.6115,0 L29.6981,0 L0.4092,158.997 L26.8353,158.997 L31.6801,123.7622 L35.644,99.9788 L46.4346,31.711 L46.8751,31.711 L57.6657,99.9788 L61.6296,123.7622 Z M234.738,158.997 L262.045,158.997 L262.045,23.784 L288.471,23.784 L288.471,0 L208.312,0 L208.312,23.784 L234.738,23.784 L234.738,158.997 Z M136.07,93.8127 C140.914,93.8127 146.64,93.5924 150.163,93.152 L169.543,158.997 L197.29,158.997 L174.167,86.986 C183.416,82.8018 193.326,72.4516 193.326,46.906 C193.326,12.993 177.691,0 147.08,0 L108.763,0 L108.763,158.997 L136.07,158.997 L136.07,93.8127 Z M136.07,22.462 L145.759,22.462 C160.514,22.462 166.019,27.968 166.019,46.906 C166.019,65.8451 160.514,71.3505 145.759,71.3505 L136.07,71.3505 L136.07,22.462 Z" id="Fill-1" fill="#FFFFFF"></path>
            <polygon id="Fill-2" fill="#FFFFFF" points="7 68.9506 298 68.9506 298 100.9506 0 100.9506"></polygon>
            <polygon id="Fill-3" fill="#000000" points="297 68.9506 494 68.9506 487 100.9506 290 100.9506"></polygon>
            <path d="M11.0107,91.7062 C11.0107,95.141 12.9908,97.9361 17.281,97.9361 C21.5712,97.9361 23.5514,95.141 23.5514,91.7062 L23.5514,79.1791 C23.5514,75.7441 21.5712,72.9491 17.281,72.9491 C12.9908,72.9491 11.0107,75.7441 11.0107,79.1791 L11.0107,91.7062 Z M185.382,81.4016 L185.382,79.6168 C185.382,75.9798 183.402,72.9491 179.309,72.9491 C175.019,72.9491 173.039,75.7441 173.039,79.1791 L173.039,91.7062 C173.039,95.141 175.019,97.9361 179.309,97.9361 C183.402,97.9361 185.382,95.141 185.382,91.7062 L185.382,88.9111 L181.29,88.9111 L181.29,91.8408 C181.29,93.4237 180.795,94.2992 179.309,94.2992 C177.659,94.2992 177.131,93.4237 177.131,91.6051 L177.131,79.28 C177.131,77.4616 177.659,76.586 179.309,76.586 C180.366,76.586 181.29,77.4616 181.29,79.5157 L181.29,81.4016 L185.382,81.4016 Z M276.296,88.5744 L278.904,88.5744 L278.904,90.9316 C278.904,93.3563 278.31,94.2992 276.659,94.2992 C275.24,94.2992 274.745,93.2889 274.745,91.7399 L274.745,79.2464 C274.745,77.1922 275.57,76.586 276.56,76.586 C278.177,76.586 278.904,77.5289 278.904,81.1658 L282.798,81.1658 L282.798,79.6168 C282.798,75.9798 280.752,72.9491 276.659,72.9491 C272.633,72.9491 270.653,75.7441 270.653,79.1791 L270.653,91.7062 C270.653,95.5789 272.897,97.9361 276.131,97.9361 C278.046,97.9361 279.036,97.2626 280.257,95.7809 L281.016,97.5994 L282.996,97.5994 L282.996,85.2742 L276.296,85.2742 L276.296,88.5744 Z M212.672,97.5994 L212.672,73.2859 L208.58,73.2859 L208.58,97.5994 L212.672,97.5994 Z M50.0829,97.5994 L50.0829,86.8232 L55.5612,86.8232 L55.5612,83.1863 L50.0829,83.1863 L50.0829,76.9227 L57.4093,76.9227 L57.4093,73.2859 L45.9907,73.2859 L45.9907,97.5994 L50.0829,97.5994 Z M239.369,97.5994 L239.369,82.4118 L239.435,82.4118 L244.65,97.5994 L248.214,97.5994 L248.214,73.2859 L244.518,73.2859 L244.518,87.1937 L244.452,87.1937 L239.468,73.2859 L235.673,73.2859 L235.673,97.5994 L239.369,97.5994 Z M109.02,87.6314 C109.746,87.6314 110.604,87.5978 111.132,87.5305 L114.036,97.5994 L118.194,97.5994 L114.729,86.5876 C116.115,85.9477 117.6,84.365 117.6,80.4587 C117.6,75.2727 115.257,73.2859 110.67,73.2859 L104.928,73.2859 L104.928,97.5994 L109.02,97.5994 L109.02,87.6314 Z M143.01,92.2113 L147.498,92.2113 L148.224,97.5994 L152.184,97.5994 L147.795,73.2859 L142.713,73.2859 L138.324,97.5994 L142.284,97.5994 L143.01,92.2113 Z M15.1029,79.28 C15.1029,77.4616 15.6309,76.586 17.281,76.586 C18.931,76.586 19.4591,77.4616 19.4591,79.28 L19.4591,91.6051 C19.4591,93.4237 18.931,94.2992 17.281,94.2992 C15.6309,94.2992 15.1029,93.4237 15.1029,91.6051 L15.1029,79.28 Z M145.221,78.135 L145.287,78.135 L146.904,88.5744 L143.604,88.5744 L145.221,78.135 Z M109.02,76.7207 L110.472,76.7207 C112.683,76.7207 113.508,77.5626 113.508,80.4587 C113.508,83.3547 112.683,84.1966 110.472,84.1966 L109.02,84.1966 L109.02,76.7207 Z" id="Fill-4" fill="#000000"></path>
            <path d="M317.434,78.8423 C317.07,75.4074 315.085,72.9491 311.745,72.9491 C307.71,72.9491 305.395,75.1379 305.395,79.0106 C305.395,85.9814 313.73,87.261 313.73,92.0766 C313.73,93.5246 312.77,94.2992 311.348,94.2992 C310.025,94.2992 309.066,93.0868 308.901,90.6285 L304.998,91.2011 C305.164,94.8379 307.347,97.9361 311.15,97.9361 C314.986,97.9361 317.632,95.7135 317.632,91.7062 C317.632,85.1058 309.298,83.119 309.298,78.9769 C309.298,77.4616 310.025,76.586 311.348,76.586 C312.274,76.586 313.366,77.1922 313.531,79.28 L317.434,78.8423 Z M479.81,78.8423 C479.446,75.4074 477.462,72.9491 474.122,72.9491 C470.087,72.9491 467.772,75.1379 467.772,79.0106 C467.772,85.9814 476.106,87.261 476.106,92.0766 C476.106,93.5246 475.147,94.2992 473.725,94.2992 C472.402,94.2992 471.443,93.0868 471.277,90.6285 L467.375,91.2011 C467.54,94.8379 469.723,97.9361 473.526,97.9361 C477.363,97.9361 480.009,95.7135 480.009,91.7062 C480.009,85.1058 471.674,83.119 471.674,78.9769 C471.674,77.4616 472.402,76.586 473.725,76.586 C474.651,76.586 475.742,77.1922 475.908,79.28 L479.81,78.8423 Z M412.18,97.5994 L412.18,73.2859 L408.079,73.2859 L408.079,97.5994 L412.18,97.5994 Z M350.702,97.5994 L350.702,93.9624 L343.36,93.9624 L343.36,86.8232 L348.652,86.8232 L348.652,83.1863 L343.36,83.1863 L343.36,76.9227 L350.239,76.9227 L350.239,73.2859 L339.259,73.2859 L339.259,97.5994 L350.702,97.5994 Z M446.674,97.5994 L446.674,93.9624 L439.331,93.9624 L439.331,86.8232 L444.623,86.8232 L444.623,83.1863 L439.331,83.1863 L439.331,76.9227 L446.211,76.9227 L446.211,73.2859 L435.23,73.2859 L435.23,97.5994 L446.674,97.5994 Z M376.563,87.6314 C377.291,87.6314 378.15,87.5978 378.68,87.5305 L381.59,97.5994 L385.757,97.5994 L382.285,86.5876 C383.674,85.9477 385.162,84.365 385.162,80.4587 C385.162,75.2727 382.814,73.2859 378.217,73.2859 L372.462,73.2859 L372.462,97.5994 L376.563,97.5994 L376.563,87.6314 Z M376.563,76.7207 L378.018,76.7207 C380.234,76.7207 381.061,77.5626 381.061,80.4587 C381.061,83.3547 380.234,84.1966 378.018,84.1966 L376.563,84.1966 L376.563,76.7207 Z" id="Fill-5" fill="#FFFFFF"></path>
        </g>
    </g>
</svg>