<?xml version="1.0" encoding="UTF-8"?>
<svg width="80px" height="80px" viewBox="0 0 80 80" version="1.1" xmlns="http://www.w3.org/2000/svg" xmlns:xlink="http://www.w3.org/1999/xlink">
    <!-- Generator: Sketch 51.2 (57519) - http://www.bohemiancoding.com/sketch -->
    <title>Combined Shape</title>
    <desc>Created with Sketch.</desc>
    <defs></defs>
    <g id="Page-1" stroke="none" stroke-width="1" fill="none" fill-rule="evenodd">
        <g id="Artboard-Copy" transform="translate(-120.000000, -20.000000)" fill="#FFFFFF" fill-rule="nonzero">
            <g id="hero">
                <path d="M120,20 L200,20 L200,100 L120,100 L120,20 Z M129.608836,36.9351127 L129.608836,48.0533824 L134.873447,48.0533824 C137.376898,48.0533824 139.033594,47.0225495 139.033594,44.997699 L139.033594,44.9608836 C139.033594,43.4882651 138.260469,42.7151404 136.971928,42.2365393 C137.781868,41.7947538 138.444547,41.09526 138.444547,39.8435343 L138.444547,39.8067188 C138.444547,39.0704096 138.186838,38.4445467 137.671422,37.9291302 C137.008744,37.2664519 136.014726,36.9351127 134.763,36.9351127 L129.608836,36.9351127 Z M135.977911,40.2116889 C135.977911,41.0584445 135.278417,41.3897837 134.247584,41.4265992 L132.001841,41.4265992 L132.001841,39.0704096 L134.394846,39.0704096 C135.425679,39.0704096 135.977911,39.4753797 135.977911,40.2116889 Z M134.799816,43.4146341 C136.051542,43.4146341 136.603774,43.8932352 136.603774,44.5927289 L136.603774,44.6295444 C136.603774,45.4763 135.941095,45.8444547 134.873447,45.8444547 L131.965025,45.8444547 L131.965025,43.4146341 L134.799816,43.4146341 Z M147.243442,39.180856 L147.243442,48.016567 L149.636447,48.016567 L149.636447,39.180856 L153.02347,39.180856 L153.02347,36.9351127 L143.85642,36.9351127 L143.85642,39.180856 L147.243442,39.180856 Z M157.883111,36.9351127 L161.638288,48.0901979 L163.773585,48.0901979 L166.277036,40.8375518 L168.780488,48.0901979 L170.915785,48.0901979 L174.707777,36.9351127 L172.16751,36.9351127 L169.884952,44.4454671 L167.3815,36.8982973 L165.283019,36.8982973 L162.779567,44.4454671 L160.497009,36.9351127 L157.883111,36.9351127 Z M180.266912,36.9351127 L180.303728,36.9351127 L180.303728,48.016567 L182.696733,48.016567 L182.696733,40.9848136 L188.07179,48.016567 L190.133456,48.016567 L190.133456,36.9351127 L187.740451,36.9351127 L187.740451,43.7459733 L182.512655,36.9351127 L180.266912,36.9351127 Z M129.608836,56.2264151 L129.535205,56.2264151 L129.535205,64.2521859 L131.302347,64.2521859 L131.302347,61.711919 L132.701335,61.711919 L134.431661,64.2521859 L136.493327,64.2521859 L134.542108,61.3805798 C135.572941,61.0124252 136.272434,60.202485 136.272434,58.9139439 L136.272434,58.8771284 C136.272434,58.1040037 136.014726,57.4781408 135.572941,57.0363553 C135.057524,56.5209388 134.284399,56.2264151 133.253566,56.2264151 L129.608836,56.2264151 Z M133.14312,60.0920387 L133.14312,60.0552232 L131.375978,60.0552232 L131.375978,57.7726645 L133.106305,57.7726645 C133.989876,57.7726645 134.505292,58.1776346 134.505292,58.9139439 L134.505292,58.9507593 C134.505292,59.6502531 133.989876,60.0920387 133.14312,60.0920387 Z M143.672342,56.1527842 L140.248504,64.2153705 L142.015647,64.2153705 L142.751956,62.4114128 L146.138978,62.4114128 L146.875288,64.2153705 L148.716061,64.2153705 L145.292223,56.1527842 L143.672342,56.1527842 Z M145.549931,60.8651634 L143.414634,60.8651634 L144.482283,58.288081 L145.549931,60.8651634 Z M152.176714,60.2393005 C152.176714,62.5218592 153.943856,64.3258168 156.300046,64.3994478 C157.846295,64.3994478 158.766682,63.8472158 159.576622,62.9636447 L158.472158,61.8223654 C157.846295,62.3745973 157.294064,62.742752 156.373677,62.742752 C155.011505,62.742752 154.054303,61.6014726 154.054303,60.2393005 L154.054303,60.202485 C154.054303,58.8034975 155.011505,57.6990336 156.373677,57.6990336 C157.146802,57.6990336 157.772665,58.0303728 158.398527,58.5826047 L159.502991,57.2940635 C158.729867,56.5945697 157.846295,56.0791532 156.336861,56.0791532 C153.907041,56.0791532 152.176714,57.9567418 152.176714,60.2393005 Z M164.14174,56.2264151 L164.14174,64.2153705 L165.908882,64.2153705 L165.908882,56.2264151 L164.14174,56.2264151 Z M170.989416,56.2264151 L170.989416,64.2153705 L172.719742,64.2153705 L172.719742,59.1348366 L176.585366,64.2153705 L178.0948,64.2153705 L178.0948,56.2264151 L176.364473,56.2264151 L176.364473,61.1596871 L172.609296,56.2264151 L170.989416,56.2264151 Z M182.733548,60.2393005 C182.733548,62.5954901 184.463875,64.3258168 186.930511,64.3626323 C188.403129,64.3626323 189.544409,63.8104004 190.354349,63.1109066 L190.354349,59.6502531 L186.893695,59.6502531 L186.893695,61.1596871 L188.660838,61.1596871 L188.660838,62.3009664 C188.219052,62.6323056 187.630005,62.7795674 187.004142,62.7795674 C185.568339,62.7795674 184.574321,61.711919 184.574321,60.2393005 L184.574321,60.202485 C184.574321,58.8403129 185.568339,57.6990336 186.85688,57.6990336 C187.777266,57.6990336 188.329498,57.9935573 188.955361,58.5089738 L190.059825,57.1836171 C189.249885,56.4841233 188.366314,56.0791532 186.930511,56.0791532 C184.50069,56.0791532 182.733548,57.9567418 182.733548,60.2393005 Z M129.424758,72.1306949 L129.424758,83.2121491 L137.376898,83.2121491 L137.376898,81.0032214 L131.854579,81.0032214 L131.854579,72.1306949 L129.424758,72.1306949 Z M143.12011,72.1306949 L143.12011,83.2121491 L145.549931,83.2121491 L145.549931,72.1306949 L143.12011,72.1306949 Z M152.139899,72.1306949 L152.139899,83.2121491 L154.532904,83.2121491 L154.532904,76.1803958 L159.907961,83.2121491 L161.969627,83.2121491 L161.969627,72.1306949 L159.576622,72.1306949 L159.576622,78.9415555 L154.385642,72.1306949 L152.139899,72.1306949 Z M168.449149,72.1306949 L168.449149,83.2121491 L176.87989,83.2121491 L176.87989,81.0400368 L170.878969,81.0400368 L170.878969,78.7206627 L176.106765,78.7206627 L176.106765,76.5485504 L170.878969,76.5485504 L170.878969,74.3028072 L176.806259,74.3028072 L176.806259,72.1306949 L168.449149,72.1306949 Z M182.07087,81.5922688 C183.396226,82.7703636 185.089738,83.359411 186.709618,83.359411 C189.102623,83.359411 190.796134,82.1445007 190.796134,79.9355729 L190.796134,79.8987575 C190.796134,77.9843534 189.544409,77.1744133 187.298665,76.5853659 C185.384261,76.0699494 184.90566,75.8490566 184.90566,75.1127474 L184.90566,75.0759319 C184.90566,74.5605154 185.421077,74.1187299 186.341463,74.1187299 C187.26185,74.1187299 188.219052,74.5605154 189.213069,75.2231937 L190.464795,73.3824206 C189.323516,72.4988495 187.961344,71.983433 186.341463,71.983433 C184.09572,71.983433 182.47584,73.3087897 182.47584,75.3336401 L182.47584,75.3704556 C182.47584,77.5793833 183.911643,78.2052462 186.157386,78.7574781 C188.034975,79.2360792 188.403129,79.5306029 188.403129,80.1564657 L188.403129,80.1932812 C188.403129,80.819144 187.814082,81.2241141 186.820064,81.2241141 C185.531523,81.2241141 184.50069,80.6718822 183.506673,79.861942 L182.07087,81.5922688 Z" id="Combined-Shape"></path>
            </g>
        </g>
    </g>
</svg>