<?xml version="1.0" encoding="UTF-8"?>
<svg width="344px" height="104px" viewBox="0 0 344 104" version="1.1" xmlns="http://www.w3.org/2000/svg" xmlns:xlink="http://www.w3.org/1999/xlink">
    <!-- Generator: Sketch 54.1 (76490) - https://sketchapp.com -->
    <title>Artboard Copy 2</title>
    <desc>Created with Sketch.</desc>
    <defs>
        <path d="M141.08,0.0957 L143.542,0.0957 C144.275,0.6382 145.179,0.9837 146.166,0.9837 C147.151,0.9837 148.057,0.643 148.79,0.0957 L151.252,0.0957 C150.133,1.7135 148.275,2.7598 146.166,2.7598 C144.056,2.7598 142.199,1.7055 141.08,0.0957 Z M21.434,0.5397 C22.222,0.5397 22.847,1.1646 22.847,1.9525 C22.847,2.7388 22.222,3.4057 21.434,3.4057 C20.647,3.4057 19.981,2.7388 19.981,1.9525 C19.981,1.1646 20.647,0.5397 21.434,0.5397 Z M25.43,0.5397 C26.216,0.5397 26.843,1.1646 26.843,1.9525 C26.843,2.7388 26.216,3.4057 25.43,3.4057 C24.642,3.4057 24.017,2.7388 24.017,1.9525 C24.017,1.1646 24.642,0.5397 25.43,0.5397 Z M123.682,4.2938 C125.274,4.2938 126.572,4.6587 127.597,5.424 C128.636,6.1781 129.256,6.987 129.454,7.846 C129.472,7.917 129.519,7.9817 129.535,8.0478 L129.495,8.0478 C129.664,8.7712 129.758,9.1958 129.777,9.3395 C129.808,9.4865 129.858,9.6657 129.858,9.8643 L129.818,10.4698 C129.808,10.6684 129.753,11.1754 129.616,12.0037 C129.48,12.832 128.849,13.7056 127.759,14.6275 C126.669,15.5382 125.316,16 123.682,16 C121.827,16 120.333,15.4639 119.201,14.3853 C118.081,13.2955 117.506,11.8487 117.506,10.0661 C117.506,9.8675 117.525,9.6899 117.546,9.501 C117.577,9.3121 117.645,9.107 117.708,8.8551 C117.771,8.5839 117.822,8.2949 117.909,8.0478 C118.287,6.9757 118.891,6.1119 119.726,5.4644 C120.764,4.6684 122.088,4.2938 123.682,4.2938 Z M7.79,4.536 L10.252,4.536 L11.342,8.0479 L12.351,11.2772 L13.401,8.0479 L14.531,4.536 L17.761,4.536 L16.953,6.958 L16.55,8.0479 L16.105,9.3396 L15.823,10.1469 L15.217,11.8423 L14.531,13.9414 L14.289,14.8294 L14.006,15.6771 L10.939,15.6771 L10.818,15.112 L10.697,14.5469 C10.603,14.19 10.488,13.8429 10.374,13.4973 L10.051,12.6093 L9.889,12.0442 C9.836,11.9182 9.771,11.7115 9.687,11.4387 L9.405,10.6313 L9.001,9.2185 L7.064,15.6771 L3.996,15.6771 L3.754,14.8294 L3.511,13.9817 C3.187,12.9855 2.904,12.2169 2.704,11.6809 L2.179,10.1469 L1.614,8.5727 L1.453,8.0479 L0.605,5.6259 L0.242,4.5764 L3.431,4.5764 L3.996,6.3121 L4.561,8.0075 L4.601,8.0478 L4.763,8.5322 L5.408,10.3487 L5.53,10.8735 L5.651,11.3982 L6.7,8.0478 L7.79,4.536 Z M18.487,4.536 L21.676,4.536 L21.676,11.0349 C21.676,12.5753 22.21,13.3358 23.331,13.3358 C23.919,13.3358 24.379,13.176 24.703,12.8514 C25.039,12.5156 25.228,12.0393 25.228,11.3579 L25.228,8.0478 L25.228,4.5763 L28.377,4.5763 L28.336,8.0478 L28.296,11.8423 L28.296,12.1248 C28.296,13.3504 27.844,14.3014 26.964,14.9505 C26.084,15.6012 24.826,15.9193 23.17,15.9193 C21.598,15.9193 20.423,15.5899 19.658,14.9505 C18.892,14.3014 18.487,13.3826 18.487,12.1248 L18.487,8.0478 L18.487,4.536 Z M29.87,4.536 L29.87,4.536 L31.646,4.5361 L33.463,4.5361 C34.196,4.5361 34.751,4.5344 35.118,4.5764 C35.484,4.6184 35.849,4.7314 36.248,4.8993 C36.657,5.0672 37.015,5.3111 37.298,5.6259 C37.582,5.9392 37.738,6.2782 37.822,6.6351 C37.918,6.9806 38.003,7.2438 38.024,7.4424 C38.045,7.6313 38.024,7.8396 38.024,8.0075 C38.024,8.0252 38.025,8.0284 38.024,8.0478 C38.021,8.2093 38.021,8.4773 37.984,8.8148 C37.952,9.1926 37.782,9.5963 37.499,10.0258 C37.227,10.4456 36.813,10.8121 36.248,11.1157 L39.235,15.7174 L35.522,15.7174 L32.898,11.8423 L32.978,15.6771 L29.951,15.6771 L29.951,8.0478 L29.951,6.9579 L29.951,6.191 L29.911,5.3433 L29.87,4.536 Z M47.712,4.536 L50.942,4.536 L50.901,5.1011 L50.901,8.6937 L54.454,8.6937 L54.494,8.0478 L54.494,7.2809 L54.494,5.868 L54.454,5.2222 L54.454,4.536 L57.683,4.536 L57.683,5.1414 L57.643,5.7873 L57.643,15.1119 L57.683,15.6771 L54.454,15.6771 L54.454,14.9908 L54.454,14.345 L54.494,12.8514 L54.454,11.3175 L50.901,11.3175 L50.901,15.1523 L50.942,15.6771 L47.672,15.6771 L47.712,14.9505 L47.753,14.2239 L47.753,13.2551 L47.753,11.2771 L47.753,9.9047 L47.753,8.4919 L47.753,8.0478 L47.753,6.7965 L47.753,5.868 L47.712,5.2222 L47.712,4.536 Z M94.699,4.536 L98.695,4.536 L95.869,8.0478 L94.336,9.9854 L98.897,15.6771 L94.78,15.6771 L91.429,11.0349 L91.389,12.7303 L91.429,14.4257 L91.469,15.0312 L91.469,15.6771 L88.2,15.6771 L88.24,14.8294 L88.24,13.9413 L88.28,12.5285 L88.28,10.4294 L88.28,8.0478 L88.28,6.7965 L88.28,5.868 L88.24,5.2625 L88.2,4.5763 L91.469,4.5763 L91.469,9.057 L92.156,8.0478 L94.699,4.536 Z M108.262,4.536 L108.262,4.536 L110.038,4.5361 L111.814,4.5361 C112.549,4.5361 113.103,4.5344 113.469,4.5764 C113.837,4.6184 114.201,4.7314 114.599,4.8993 C115.008,5.0672 115.365,5.3111 115.649,5.6259 C115.931,5.9392 116.13,6.2782 116.214,6.6351 C116.309,6.9806 116.354,7.2438 116.376,7.4424 C116.398,7.6313 116.416,7.8396 116.416,8.0075 C116.416,8.0252 116.417,8.0284 116.416,8.0478 C116.413,8.2093 116.372,8.4773 116.335,8.8148 C116.304,9.1926 116.174,9.5963 115.891,10.0258 C115.618,10.4456 115.166,10.8121 114.599,11.1157 L117.627,15.7174 L113.873,15.7174 L111.289,11.8423 L111.33,15.6771 L108.342,15.6771 L108.342,8.0478 L108.342,6.9579 L108.302,6.191 L108.302,5.3433 L108.262,4.536 Z M144.551,4.536 L147.861,4.536 L147.821,5.424 L147.781,6.3524 L147.781,11.6808 L147.74,13.4166 L147.74,14.3853 L147.781,15.0312 L147.781,15.6771 L144.511,15.6771 L144.551,13.6184 L144.592,11.6001 L144.592,10.2276 L144.592,9.2588 L144.592,8.29 L144.592,8.0478 L144.592,6.635 L144.592,5.7873 L144.551,5.1414 L144.551,4.536 Z M156.136,4.536 L160.133,4.536 L157.348,8.0478 L155.773,9.9854 L160.335,15.6771 L156.217,15.6771 L152.867,11.0349 L152.867,14.4257 L152.907,15.0312 L152.907,15.6771 L149.637,15.6771 L149.678,14.8294 L149.718,13.9413 L149.758,12.5285 L149.758,10.4294 L149.758,8.0478 L149.758,6.7965 L149.718,5.868 L149.678,5.2625 L149.678,4.5763 L152.907,4.5763 L152.907,9.057 L153.634,8.0478 L156.136,4.536 Z M39.034,4.5763 L46.824,4.5763 L46.824,7.1597 L44.483,7.1597 L44.483,15.7174 L41.294,15.7174 L41.334,14.6275 L41.375,13.5376 L41.375,10.3486 L41.375,8.0478 L41.375,7.1597 L39.034,7.1597 L39.034,4.5763 Z M63.778,4.5763 L70.358,4.5763 L70.358,7.1597 L66.806,7.1597 L66.806,8.7744 L69.914,8.7744 L69.914,11.3578 L66.806,11.3578 L66.806,13.1339 L70.479,13.1339 L70.479,15.677 L63.778,15.677 L63.778,8.0478 L63.778,4.5763 Z M72.174,4.5763 L75.363,4.5763 L75.323,5.4239 L75.323,13.1339 L78.795,13.1339 L78.795,15.677 L72.094,15.677 L72.134,14.8293 L72.174,13.9816 L72.174,12.7303 L72.174,8.0478 L72.174,4.5763 Z M80.086,4.5763 L86.625,4.5763 L86.625,7.1597 L83.114,7.1597 L83.114,8.7744 L86.181,8.7744 L86.181,11.3578 L83.114,11.3578 L83.114,13.1339 L86.787,13.1339 L86.787,15.677 L80.086,15.677 L80.086,8.0478 L80.086,4.5763 Z M99.381,4.5763 L107.172,4.5763 L107.172,7.1597 L104.831,7.1597 L104.831,15.7174 L101.642,15.7174 L101.642,14.6275 L101.722,13.5376 L101.722,10.3486 L101.722,8.0478 L101.722,7.1597 L99.381,7.1597 L99.381,4.5763 Z M139.061,4.5763 L142.291,4.5763 L142.291,15.7174 L139.021,15.7174 L138.658,15.1523 L138.294,14.6275 L137.083,12.9725 L136.599,12.367 L136.236,11.8826 L135.307,10.6313 L134.54,9.6221 L134.298,9.2184 L134.056,8.7744 L134.137,9.3395 L134.177,10.0661 L134.217,10.9541 L134.217,12.6495 L134.258,14.1834 L134.298,15.677 L131.069,15.677 L131.109,14.2642 L131.109,8.0478 L131.109,6.5138 L131.109,5.545 L131.069,4.6166 L134.258,4.6166 L134.621,5.101 C134.821,5.4046 135.196,5.9019 135.751,6.5946 L136.841,8.0478 L137.527,8.9358 L138.173,9.7431 C138.592,10.3083 138.835,10.6958 138.94,10.8734 L139.102,11.1156 L139.263,11.3982 L139.182,8.0478 L139.061,4.5763 Z M123.561,6.9175 C122.765,6.9175 122.077,7.1984 121.542,7.7652 C121.457,7.8556 121.412,7.9492 121.341,8.0478 C120.974,8.5596 120.775,9.2006 120.775,9.945 L120.775,10.5908 C120.775,11.2625 120.964,11.8357 121.3,12.2862 C121.636,12.7254 122.009,13.0064 122.471,13.1743 C122.931,13.3325 123.394,13.4165 123.803,13.4165 C124.652,13.4165 125.308,13.1065 125.821,12.4881 C126.335,11.8696 126.588,11.0139 126.588,9.945 C126.588,9.1683 126.436,8.5386 126.063,8.0478 C125.973,7.9283 125.854,7.8266 125.74,7.7248 C125.174,7.1904 124.452,6.9175 123.561,6.9175 Z M32.898,7.079 L32.898,9.501 L33.261,9.501 L33.624,9.501 C34.285,9.501 34.718,9.1716 34.916,8.5726 L34.956,8.29 C34.945,8.2092 34.931,8.1156 34.916,8.0478 C34.829,7.6231 34.724,7.4067 34.553,7.2808 C34.354,7.1339 34.023,7.079 33.584,7.079 L32.898,7.079 Z M111.249,7.079 L111.249,9.501 L111.653,9.501 L112.016,9.501 C112.676,9.501 113.109,9.1716 113.308,8.5726 L113.348,8.29 C113.335,8.2092 113.322,8.1156 113.308,8.0478 C113.22,7.6231 113.077,7.4067 112.904,7.2808 C112.705,7.1339 112.415,7.079 111.976,7.079 L111.249,7.079 Z" id="path-1"></path>
        <path d="M161.082,66.1042 C160.547,65.3421 160.182,64.4476 160.04,63.4788 L0.222,63.4788 L0.222,61.6752 L160.04,61.6752 C160.478,58.6801 163.057,56.3792 166.174,56.3792 C169.291,56.3792 171.871,58.6801 172.308,61.6752 L180.537,61.6752 L180.537,63.4788 L172.308,63.4788 C172.166,64.4476 171.801,65.3421 171.267,66.1123 L168.805,66.1042 C169.875,65.2969 170.569,64.0181 170.569,62.5762 C170.569,60.1494 168.601,58.1827 166.174,58.1827 C163.746,58.1827 161.779,60.1494 161.779,62.5762 C161.779,64.0181 162.472,65.2969 163.544,66.0994 L161.082,66.1042 Z M160.04,33.6464 C160.478,30.6513 163.057,28.3504 166.174,28.3504 C169.291,28.3504 171.871,30.6513 172.308,33.6464 L180.537,33.6464 L180.537,35.45 L172.308,35.45 C171.871,38.4452 169.291,40.7461 166.174,40.7461 C163.057,40.7461 160.478,38.4452 160.04,35.45 L109.339,35.45 L110.393,33.6464 L160.04,33.6464 Z M161.779,34.549 C161.779,36.9759 163.746,38.9441 166.174,38.9441 C168.601,38.9441 170.569,36.9759 170.569,34.549 C170.569,32.1206 168.601,30.1539 166.174,30.1539 C163.746,30.1539 161.779,32.1206 161.779,34.549 Z M0.222,33.6464 L15.537,33.6464 L15.63,35.45 L0.222,35.45 L0.222,33.6464 Z M139.337,47.6617 C139.773,44.6649 142.353,42.364 145.47,42.364 C148.588,42.364 151.166,44.6649 151.604,47.6617 L180.537,47.6617 L180.537,49.4636 L151.604,49.4636 C151.166,52.4604 148.588,54.7613 145.47,54.7613 C142.353,54.7613 139.773,52.4604 139.337,49.4636 L101.112,49.4636 L102.181,47.6568 L139.337,47.6617 Z M141.075,48.5626 C141.075,50.9895 143.043,52.9577 145.47,52.9577 C147.898,52.9577 149.865,50.9895 149.865,48.5626 C149.865,46.1358 147.898,44.1675 145.47,44.1675 C143.043,44.1675 141.075,46.1358 141.075,48.5626 Z M0.222,47.6617 L16.268,47.6617 L16.362,49.4636 L0.222,49.4636 L0.222,47.6617 Z M139.337,19.6329 C139.773,16.6361 142.353,14.3352 145.47,14.3352 C148.588,14.3352 151.166,16.6361 151.604,19.6329 L180.537,19.6329 L180.537,21.4364 L151.604,21.4364 C151.166,24.4316 148.588,26.7325 145.47,26.7325 C142.353,26.7325 139.773,24.4316 139.337,21.4364 L117.609,21.4364 L118.67,19.6329 L139.337,19.6329 Z M141.075,20.5338 C141.075,22.9623 143.043,24.9289 145.47,24.9289 C147.898,24.9289 149.865,22.9623 149.865,20.5338 C149.865,18.107 147.898,16.1387 145.47,16.1387 C143.043,16.1387 141.075,18.107 141.075,20.5338 Z M0.222,19.6329 L14.805,19.6329 L14.901,21.4364 L0.222,21.4364 L0.222,19.6329 Z M160.04,6.1618 C160.478,3.1666 163.057,0.8657 166.174,0.8657 C169.291,0.8657 171.871,3.1666 172.308,6.1618 L180.537,6.1618 L180.537,7.9654 L172.308,7.9654 C171.871,10.9622 169.291,13.2614 166.174,13.2614 C163.057,13.2614 160.478,10.9622 160.04,7.9654 L0.222,7.9654 L0.222,6.1618 L160.04,6.1618 Z M161.779,7.0644 C161.779,9.4912 163.746,11.4595 166.174,11.4595 C168.601,11.4595 170.569,9.4912 170.569,7.0644 C170.569,4.636 168.601,2.6693 166.174,2.6693 C163.746,2.6693 161.779,4.636 161.779,7.0644 Z" id="path-3"></path>
        <path d="M0.898,0.7686 L13.502,0.7686 L14.732,26.7662 L20.266,19.061 L33.332,19.061 L34.715,27.0536 L50.394,0.7686 L64.535,0.7686 L35.175,50.8794 L22.265,50.8794 L21.034,42.2701 L15.347,50.8794 L3.512,50.8794 L0.898,0.7686 Z M68.074,0.7686 L38.868,50.8794 L74.344,50.8794 L81.574,38.6565 L60.353,38.6565 L64.559,31.5116 L85.771,31.5116 L93.056,19.061 L71.936,19.061 L75.479,13.2354 L96.531,13.2354 L103.869,0.7686 L68.074,0.7686 Z" id="path-5"></path>
    </defs>
    <g id="Artboard-Copy-2" stroke="none" stroke-width="1" fill="none" fill-rule="evenodd">
        <g id="Group-10" transform="translate(163.000000, 11.000000)">
            <g id="Group-3" transform="translate(20.000000, 66.134300)">
                <mask id="mask-2" fill="white">
                    <use xlink:href="#path-1"></use>
                </mask>
                <g id="Clip-2"></g>
                <polygon id="Fill-1" fill="#231F20" mask="url(#mask-2)" points="-3.673 19.9145 164.249 19.9145 164.249 -3.8189 -3.673 -3.8189"></polygon>
            </g>
            <g id="Group-6" transform="translate(0.000000, 0.134300)">
                <mask id="mask-4" fill="white">
                    <use xlink:href="#path-3"></use>
                </mask>
                <g id="Clip-5"></g>
                <polygon id="Fill-4" fill="#231F20" mask="url(#mask-4)" points="-3.693 70.0268 184.451 70.0268 184.451 -3.0488 -3.693 -3.0488"></polygon>
            </g>
            <g id="Group-9" transform="translate(17.000000, 9.134300)">
                <mask id="mask-6" fill="white">
                    <use xlink:href="#path-5"></use>
                </mask>
                <g id="Clip-8"></g>
                <polygon id="Fill-7" fill="#ED1C24" mask="url(#mask-6)" points="-3.017 54.794 107.783 54.794 107.783 -3.1459 -3.017 -3.1459"></polygon>
            </g>
        </g>
        <path d="M7.06,52.288 L7.97,52.288 C8.97800504,52.288 9.482,51.8493377 9.482,50.972 C9.482,50.0946623 8.97800504,49.656 7.97,49.656 L7.06,49.656 L7.06,52.288 Z M7.06,58 L4.316,58 L4.316,47.444 L8.684,47.444 C9.86933926,47.444 10.7769969,47.7519969 11.407,48.368 C12.0370032,48.9840031 12.352,49.8519944 12.352,50.972 C12.352,52.0920056 12.0370032,52.9599969 11.407,53.576 C10.7769969,54.1920031 9.86933926,54.5 8.684,54.5 L7.06,54.5 L7.06,58 Z M16.552,52.162 L17.07,52.162 C17.611336,52.162 18.0266652,52.0500011 18.316,51.826 C18.6053348,51.6019989 18.75,51.2800021 18.75,50.86 C18.75,50.4399979 18.6053348,50.1180011 18.316,49.894 C18.0266652,49.6699989 17.611336,49.558 17.07,49.558 L16.552,49.558 L16.552,52.162 Z M22.586,58 L19.17,58 L16.552,53.94 L16.552,58 L13.808,58 L13.808,47.444 L18.078,47.444 C18.6660029,47.444 19.1793311,47.5303325 19.618,47.703 C20.0566689,47.8756675 20.4183319,48.1113318 20.703,48.41 C20.9876681,48.7086682 21.2023326,49.053998 21.347,49.446 C21.4916674,49.838002 21.564,50.2579978 21.564,50.706 C21.564,51.5086707 21.3703353,52.1596642 20.983,52.659 C20.5956647,53.1583358 20.0240038,53.4966658 19.268,53.674 L22.586,58 Z M29.474,54.08 L28.242,50.566 L27.01,54.08 L29.474,54.08 Z M30.202,56.166 L26.282,56.166 L25.652,58 L22.726,58 L26.744,47.444 L29.74,47.444 L33.758,58 L30.832,58 L30.202,56.166 Z M28.774,45.05 C28.774,44.8726658 28.8089997,44.7023341 28.879,44.539 C28.9490004,44.3756659 29.0469994,44.2310006 29.173,44.105 C29.2990006,43.9789994 29.4459992,43.8810004 29.614,43.811 C29.7820008,43.7409996 29.9593324,43.706 30.146,43.706 C30.3326676,43.706 30.5076659,43.7409996 30.671,43.811 C30.8343342,43.8810004 30.9789994,43.9766661 31.105,44.098 C31.2310006,44.2193339 31.331333,44.3639992 31.406,44.532 C31.480667,44.7000008 31.518,44.8773324 31.518,45.064 C31.518,45.456002 31.3850013,45.7826654 31.119,46.044 C30.8529987,46.3053346 30.5286686,46.436 30.146,46.436 C29.753998,46.436 29.4273346,46.3030013 29.166,46.037 C28.9046654,45.7709987 28.774,45.442002 28.774,45.05 Z M24.966,45.05 C24.966,44.8726658 25.0009997,44.7023341 25.071,44.539 C25.1410004,44.3756659 25.2389994,44.2310006 25.365,44.105 C25.4910006,43.9789994 25.6379992,43.8810004 25.806,43.811 C25.9740008,43.7409996 26.1513324,43.706 26.338,43.706 C26.5246676,43.706 26.6996659,43.7409996 26.863,43.811 C27.0263342,43.8810004 27.1709994,43.9766661 27.297,44.098 C27.4230006,44.2193339 27.523333,44.3639992 27.598,44.532 C27.672667,44.7000008 27.71,44.8773324 27.71,45.064 C27.71,45.260001 27.672667,45.4396658 27.598,45.603 C27.523333,45.7663341 27.4253339,45.9109994 27.304,46.037 C27.1826661,46.1630006 27.0380008,46.2609997 26.87,46.331 C26.7019992,46.4010004 26.5293342,46.436 26.352,46.436 C25.9506647,46.436 25.6193346,46.300668 25.358,46.03 C25.0966654,45.759332 24.966,45.4326686 24.966,45.05 Z M40.772,50.146 C40.4733318,49.9033321 40.1746682,49.7236672 39.876,49.607 C39.5773318,49.4903328 39.2880014,49.432 39.008,49.432 C38.6533316,49.432 38.3640011,49.5159992 38.14,49.684 C37.9159989,49.8520008 37.804,50.071332 37.804,50.342 C37.804,50.5286676 37.8599994,50.6826661 37.972,50.804 C38.0840006,50.9253339 38.2309991,51.0303329 38.413,51.119 C38.5950009,51.2076671 38.8003322,51.2846663 39.029,51.35 C39.2576678,51.4153337 39.4839989,51.485333 39.708,51.56 C40.6040045,51.8586682 41.2596646,52.2576642 41.675,52.757 C42.0903354,53.2563358 42.298,53.9073293 42.298,54.71 C42.298,55.251336 42.2070009,55.7413311 42.025,56.18 C41.8429991,56.6186689 41.5770018,56.9943318 41.227,57.307 C40.8769983,57.6196682 40.4476692,57.8623325 39.939,58.035 C39.4303308,58.2076675 38.8540032,58.294 38.21,58.294 C36.8753267,58.294 35.6386724,57.8973373 34.5,57.104 L35.676,54.892 C36.0866687,55.2560018 36.4926647,55.5266658 36.894,55.704 C37.2953353,55.8813342 37.691998,55.97 38.084,55.97 C38.5320022,55.97 38.8656656,55.8673344 39.085,55.662 C39.3043344,55.4566656 39.414,55.2233346 39.414,54.962 C39.414,54.8033325 39.3860003,54.6656672 39.33,54.549 C39.2739997,54.4323328 39.1806673,54.3250005 39.05,54.227 C38.9193327,54.1289995 38.7490011,54.0380004 38.539,53.954 C38.328999,53.8699996 38.0746682,53.7766672 37.776,53.674 C37.4213316,53.5619994 37.0736684,53.438334 36.733,53.303 C36.3923316,53.167666 36.0890013,52.9880011 35.823,52.764 C35.5569987,52.5399989 35.3423342,52.2576684 35.179,51.917 C35.0156659,51.5763316 34.934,51.1446693 34.934,50.622 C34.934,50.0993307 35.0203325,49.6256688 35.193,49.201 C35.3656675,48.7763312 35.6083318,48.4123349 35.921,48.109 C36.2336682,47.8056652 36.6163311,47.5700008 37.069,47.402 C37.5216689,47.2339992 38.0279972,47.15 38.588,47.15 C39.1106693,47.15 39.6566638,47.2223326 40.226,47.367 C40.7953362,47.5116674 41.3413307,47.7239986 41.864,48.004 L40.772,50.146 Z M50.026,49.768 L46.764,49.768 L46.764,51.532 L49.844,51.532 L49.844,53.856 L46.764,53.856 L46.764,55.676 L50.026,55.676 L50.026,58 L44.02,58 L44.02,47.444 L50.026,47.444 L50.026,49.768 Z M52,58 L52,47.444 L54.744,47.444 L59.812,53.898 L59.812,47.444 L62.542,47.444 L62.542,58 L59.812,58 L54.744,51.546 L54.744,58 L52,58 Z M68.758,49.768 L68.758,58 L66.014,58 L66.014,49.768 L63.76,49.768 L63.76,47.444 L71.012,47.444 L71.012,49.768 L68.758,49.768 Z M74.974,47.444 L74.974,58 L72.23,58 L72.23,47.444 L74.974,47.444 Z M83.192,49.768 L79.93,49.768 L79.93,51.532 L83.01,51.532 L83.01,53.856 L79.93,53.856 L79.93,55.676 L83.192,55.676 L83.192,58 L77.186,58 L77.186,47.444 L83.192,47.444 L83.192,49.768 Z M87.91,52.162 L88.428,52.162 C88.969336,52.162 89.3846652,52.0500011 89.674,51.826 C89.9633348,51.6019989 90.108,51.2800021 90.108,50.86 C90.108,50.4399979 89.9633348,50.1180011 89.674,49.894 C89.3846652,49.6699989 88.969336,49.558 88.428,49.558 L87.91,49.558 L87.91,52.162 Z M93.944,58 L90.528,58 L87.91,53.94 L87.91,58 L85.166,58 L85.166,47.444 L89.436,47.444 C90.0240029,47.444 90.5373311,47.5303325 90.976,47.703 C91.4146689,47.8756675 91.7763319,48.1113318 92.061,48.41 C92.3456681,48.7086682 92.5603326,49.053998 92.705,49.446 C92.8496674,49.838002 92.922,50.2579978 92.922,50.706 C92.922,51.5086707 92.7283353,52.1596642 92.341,52.659 C91.9536647,53.1583358 91.3820038,53.4966658 90.626,53.674 L93.944,58 Z M99.096,49.768 L99.096,58 L96.352,58 L96.352,49.768 L94.098,49.768 L94.098,47.444 L101.35,47.444 L101.35,49.768 L99.096,49.768 Z M109.204,47.444 L111.752,53.87 L114.314,47.444 L117.296,47.444 L112.844,58 L110.66,58 L106.222,47.444 L109.204,47.444 Z M120.796,52.722 C120.796,53.1420021 120.875333,53.5293316 121.034,53.884 C121.192667,54.2386684 121.407332,54.5466654 121.678,54.808 C121.948668,55.0693346 122.263665,55.2723326 122.623,55.417 C122.982335,55.5616674 123.362665,55.634 123.764,55.634 C124.165335,55.634 124.545665,55.5616674 124.905,55.417 C125.264335,55.2723326 125.581665,55.0693346 125.857,54.808 C126.132335,54.5466654 126.349333,54.2386684 126.508,53.884 C126.666667,53.5293316 126.746,53.1420021 126.746,52.722 C126.746,52.3019979 126.666667,51.9146684 126.508,51.56 C126.349333,51.2053316 126.132335,50.8973346 125.857,50.636 C125.581665,50.3746654 125.264335,50.1716674 124.905,50.027 C124.545665,49.8823326 124.165335,49.81 123.764,49.81 C123.362665,49.81 122.982335,49.8823326 122.623,50.027 C122.263665,50.1716674 121.948668,50.3746654 121.678,50.636 C121.407332,50.8973346 121.192667,51.2053316 121.034,51.56 C120.875333,51.9146684 120.796,52.3019979 120.796,52.722 Z M117.926,52.722 C117.926,51.9379961 118.070665,51.20767 118.36,50.531 C118.649335,49.85433 119.050664,49.2640025 119.564,48.76 C120.077336,48.2559975 120.690996,47.8616681 121.405,47.577 C122.119004,47.2923319 122.905329,47.15 123.764,47.15 C124.613338,47.15 125.39733,47.2923319 126.116,47.577 C126.83467,47.8616681 127.452997,48.2559975 127.971,48.76 C128.489003,49.2640025 128.892665,49.85433 129.182,50.531 C129.471335,51.20767 129.616,51.9379961 129.616,52.722 C129.616,53.5060039 129.471335,54.2363299 129.182,54.913 C128.892665,55.5896701 128.489003,56.1799975 127.971,56.684 C127.452997,57.1880025 126.83467,57.5823319 126.116,57.867 C125.39733,58.1516681 124.613338,58.294 123.764,58.294 C122.905329,58.294 122.119004,58.1516681 121.405,57.867 C120.690996,57.5823319 120.077336,57.1880025 119.564,56.684 C119.050664,56.1799975 118.649335,55.5896701 118.36,54.913 C118.070665,54.2363299 117.926,53.5060039 117.926,52.722 Z M131.352,58 L131.352,47.444 L134.096,47.444 L139.164,53.898 L139.164,47.444 L141.894,47.444 L141.894,58 L139.164,58 L134.096,51.546 L134.096,58 L131.352,58 Z" id="PRÄSENTIERTVON" fill="#231F20" fill-rule="nonzero"></path>
    </g>
</svg>