<svg width="200" height="200" viewBox="0 0 200 200" fill="none" xmlns="http://www.w3.org/2000/svg">
<rect width="200" height="200" fill="white"/>
<g clip-path="url(#clip0)">
<path d="M153.31 43.869V43.8617C135.546 41.2384 117.611 39.9473 99.6549 39.9992C81.6986 39.9473 63.7637 41.2384 46 43.8617L46 43.9498L46.0014 88.6368C46.0118 126.481 67.9554 147.765 98.7824 159.08L99.6587 159.361L99.6615 159.362L100.536 159.08C131.364 147.765 153.305 126.481 153.317 88.6368V43.869H153.31ZM99.6587 97.6085L99.6475 97.5974L99.7169 97.6667L99.6587 97.6085Z" fill="#2DAFE5"/>
<path d="M149.604 47.5749V47.568C133.067 45.126 116.371 43.9241 99.6552 43.9723C82.9391 43.9241 66.2429 45.126 49.7061 47.568V47.6502L49.7074 89.999C49.7169 125.23 70.1451 145.044 98.8427 155.577L99.6587 155.839L99.6611 155.84L100.476 155.577C129.174 145.044 149.6 125.23 149.611 89.999V47.5749H149.604Z" fill="#7C2C3B"/>
<path d="M124.311 136.402C125.102 137.194 126.367 136.355 127.665 135.058C128.962 133.761 129.8 132.495 129.009 131.703L79.4762 83.4164C78.685 82.6241 77.2704 82.7565 76.3172 83.7098C75.3639 84.663 75.2322 86.0772 76.0231 86.8685L124.311 136.402Z" fill="#D6A93A"/>
<path d="M81.0126 82.6782L85.064 77.9129C85.064 77.9129 85.4465 77.4032 84.8514 76.6792C83.3812 75.0277 81.813 73.4659 80.1555 72.0024C79.7033 71.6631 79.3953 71.7456 78.8936 72.2275C76.4132 74.6054 70.1016 80.7051 69.7219 81.1006C69.4764 81.2931 69.2937 81.5543 69.197 81.8509C69.1002 82.1474 69.0937 82.4661 69.1784 82.7663C69.3317 83.6161 69.7842 85.029 69.0028 86.4L64.7378 93.1122C64.2036 93.9313 64.0479 94.6557 64.451 95.049C64.6667 95.2602 65.2085 95.5047 66.3098 94.7403C66.837 94.3752 72.636 90.4712 74.484 88.9511C75.5665 88.0605 76.3926 87.2504 76.3926 87.2504L79.8924 83.8182C79.8924 83.8182 80.629 83.0949 81.0126 82.6782" fill="#F8D742"/>
<path d="M66.3379 94.3102C65.1268 95.1307 65.1303 95.2509 65.2993 95.2283C65.6647 95.1324 66.008 94.9666 66.3104 94.7401C66.8368 94.375 72.6362 90.4713 74.4842 88.9509C75.2476 88.3234 75.8817 87.7363 76.19 87.444C75.1388 87.6533 74.1465 88.0912 73.2832 88.7265C72.2934 89.5536 68.0709 93.1353 66.3379 94.3102" fill="#D6A93A"/>
<path d="M81.0123 82.6782L85.064 77.9129C85.1366 77.7926 85.1788 77.6564 85.1867 77.5162C85.1947 77.3759 85.1682 77.2358 85.1097 77.1081C85.1097 77.1081 84.7759 76.7311 83.608 78.0937C82.6258 79.239 82.1617 79.686 81.3343 80.6755C80.6802 81.5666 80.2352 82.5936 80.0322 83.6802C80.2643 83.4506 80.7322 82.9831 81.0123 82.6782" fill="#D6A93A"/>
<path d="M75.1141 136.402C74.3239 137.194 73.0577 136.355 71.7595 135.058C70.4627 133.761 69.6248 132.495 70.416 131.703L119.968 83.3976C120.759 82.6056 122.173 82.7377 123.127 83.6909C124.08 84.6445 124.212 86.0588 123.42 86.8497L75.1141 136.402Z" fill="#D6A93A"/>
<path d="M74.6319 135.925L120.865 88.447C121.656 87.6557 121.524 86.2415 120.571 85.2886C120.116 84.8198 119.504 84.5335 118.853 84.4834L70.4154 131.703C69.6607 132.458 70.3889 133.645 71.5836 134.879C72.7721 136.001 73.9041 136.655 74.6319 135.925" fill="#F8D742"/>
<path d="M118.431 82.6595L114.38 77.8942C114.38 77.8942 113.997 77.3845 114.592 76.6605C116.062 75.009 117.63 73.4473 119.288 71.9837C119.741 71.6443 120.049 71.7269 120.55 72.2088C123.03 74.5867 129.342 80.6864 129.722 81.0819C129.967 81.2744 130.15 81.5355 130.247 81.8321C130.343 82.1287 130.35 82.4474 130.265 82.7476C130.112 83.5974 129.659 85.0102 130.441 86.3812L134.706 93.0935C135.24 93.9126 135.396 94.6369 134.993 95.0303C134.777 95.2414 134.236 95.486 133.134 94.7216C132.607 94.3565 126.808 90.4525 124.96 88.9323C123.877 88.0418 123.051 87.2317 123.051 87.2317L119.551 83.7995C119.551 83.7995 118.815 83.0762 118.431 82.6595" fill="#F8D742"/>
<path d="M133.106 94.2914C134.317 95.112 134.314 95.2322 134.144 95.2095C133.779 95.1137 133.436 94.9479 133.134 94.7214C132.607 94.3563 126.808 90.4523 124.96 88.9321C124.196 88.3046 123.562 87.7176 123.254 87.4252C124.305 87.6346 125.297 88.0725 126.161 88.7077C127.15 89.5349 131.373 93.1166 133.106 94.2914" fill="#D6A93A"/>
<path d="M118.431 82.6595L114.38 77.8942C114.307 77.774 114.265 77.6378 114.257 77.4975C114.249 77.3572 114.276 77.2171 114.334 77.0894C114.334 77.0894 114.668 76.7124 115.836 78.075C116.818 79.2203 117.282 79.6673 118.109 80.6568C118.764 81.5479 119.209 82.5749 119.412 83.6615C119.18 83.4319 118.712 82.9643 118.431 82.6595" fill="#D6A93A"/>
<path d="M126.234 84.0406C126.051 84.2238 125.802 84.3267 125.543 84.3267C125.284 84.3267 125.035 84.2238 124.852 84.0406L122.777 81.9644C122.594 81.7811 122.491 81.5324 122.491 81.2732C122.491 81.014 122.594 80.7655 122.777 80.5822C122.96 80.399 123.209 80.2961 123.468 80.2961C123.728 80.2962 123.976 80.3992 124.159 80.5826L126.234 82.6581C126.325 82.7488 126.397 82.8566 126.447 82.9752C126.496 83.0938 126.521 83.2209 126.521 83.3493C126.521 83.4777 126.496 83.6049 126.447 83.7235C126.397 83.8421 126.325 83.9499 126.234 84.0406" fill="#D6A93A"/>
<path d="M123.055 81.9645C122.927 81.8363 122.837 81.675 122.796 81.4985C122.754 81.322 122.762 81.1375 122.819 80.9654C122.877 80.7934 122.981 80.6407 123.12 80.5245C123.259 80.4083 123.428 80.3331 123.607 80.3074C123.404 80.278 123.197 80.3133 123.015 80.4082C122.834 80.5031 122.686 80.6529 122.594 80.8363C122.502 81.0197 122.47 81.2274 122.503 81.4299C122.536 81.6324 122.632 81.8194 122.777 81.9645L124.852 84.0407C124.959 84.1481 125.09 84.2289 125.235 84.2767C125.379 84.3245 125.532 84.3379 125.683 84.3159C125.474 84.2862 125.28 84.1897 125.131 84.0407L123.055 81.9645Z" fill="#CDA938"/>
<path d="M123.969 82.7263C123.949 82.746 123.922 82.7571 123.894 82.757C123.866 82.7569 123.839 82.7457 123.819 82.7259C123.8 82.7061 123.789 82.6792 123.789 82.6512C123.789 82.6232 123.8 82.5964 123.819 82.5765L124.771 81.625C124.781 81.6152 124.792 81.6074 124.805 81.6021C124.818 81.5968 124.832 81.594 124.846 81.594C124.859 81.594 124.873 81.5967 124.886 81.602C124.899 81.6073 124.91 81.615 124.92 81.6248C124.93 81.6346 124.938 81.6462 124.943 81.659C124.948 81.6719 124.951 81.6856 124.951 81.6994C124.951 81.7133 124.949 81.727 124.943 81.7398C124.938 81.7527 124.93 81.7643 124.92 81.7741L123.969 82.7263Z" fill="#D6A93A"/>
<path d="M124.283 83.0424C124.273 83.0522 124.262 83.06 124.249 83.0653C124.237 83.0706 124.223 83.0733 124.209 83.0733C124.195 83.0733 124.182 83.0706 124.169 83.0653C124.157 83.06 124.145 83.0522 124.136 83.0424C124.121 83.0278 124.111 83.0092 124.107 82.989C124.103 82.9688 124.105 82.9479 124.113 82.9288C124.121 82.9098 124.134 82.8935 124.151 82.882C124.168 82.8706 124.189 82.8645 124.209 82.8645C124.23 82.8645 124.25 82.8706 124.267 82.882C124.284 82.8935 124.298 82.9098 124.305 82.9288C124.313 82.9479 124.315 82.9688 124.311 82.989C124.307 83.0092 124.297 83.0278 124.283 83.0424" fill="#D6A93A"/>
<path d="M123.629 82.3895C123.615 82.404 123.596 82.414 123.576 82.418C123.556 82.422 123.535 82.42 123.516 82.4121C123.497 82.4043 123.481 82.3909 123.469 82.3738C123.458 82.3567 123.452 82.3365 123.452 82.3159C123.452 82.2953 123.458 82.2752 123.469 82.2581C123.481 82.241 123.497 82.2276 123.516 82.2198C123.535 82.2119 123.556 82.2098 123.576 82.2139C123.596 82.2179 123.615 82.2278 123.629 82.2424C123.649 82.262 123.66 82.2884 123.66 82.3159C123.66 82.3435 123.649 82.3699 123.629 82.3895" fill="#D6A93A"/>
<path d="M124.397 81.101L124.071 80.7745C124.051 80.7549 124.024 80.744 123.996 80.7441C123.968 80.7443 123.941 80.7555 123.921 80.7753C123.902 80.7951 123.89 80.8219 123.89 80.8499C123.89 80.8779 123.901 80.9047 123.921 80.9247L123.973 80.9769C123.982 80.9862 123.987 80.9986 123.987 81.0116C123.988 81.0245 123.983 81.0372 123.975 81.047L123.132 81.8895C123.112 81.9094 123.101 81.9363 123.102 81.9642C123.102 81.9922 123.113 82.019 123.133 82.0388C123.152 82.0586 123.179 82.0698 123.207 82.07C123.235 82.0701 123.262 82.0592 123.282 82.0396L124.128 81.1937C124.137 81.1866 124.149 81.1832 124.162 81.1841C124.174 81.1849 124.185 81.1899 124.194 81.1982L124.247 81.2508C124.267 81.2705 124.293 81.2814 124.321 81.2813C124.349 81.2813 124.376 81.2701 124.396 81.2504C124.416 81.2306 124.427 81.2038 124.427 81.1758C124.427 81.1479 124.416 81.121 124.397 81.101" fill="#D6A93A"/>
<path d="M126.139 82.857C126.131 82.8458 126.12 82.8362 126.108 82.8289C126.096 82.8216 126.083 82.8168 126.07 82.8146C126.056 82.8124 126.042 82.813 126.028 82.8163C126.015 82.8196 126.002 82.8255 125.991 82.8337L125.439 83.2333C125.428 83.242 125.414 83.2463 125.4 83.2453C125.386 83.2444 125.373 83.2382 125.363 83.2281C125.355 83.2196 125.349 83.2085 125.347 83.1966C125.345 83.1846 125.347 83.1724 125.352 83.1616L125.465 82.9351C125.474 82.9171 125.478 82.897 125.476 82.8771C125.473 82.8572 125.466 82.8383 125.453 82.8225L125.452 82.8215L125.447 82.8159L125.445 82.8124L125.441 82.8093L125.436 82.8051L125.435 82.8041C125.419 82.7918 125.4 82.7842 125.38 82.7822C125.36 82.7802 125.34 82.7838 125.322 82.7926L125.096 82.9048C125.085 82.9105 125.073 82.9125 125.061 82.9106C125.049 82.9088 125.038 82.903 125.029 82.8943C125.019 82.8845 125.013 82.8714 125.012 82.8576C125.011 82.8437 125.015 82.8299 125.023 82.8187L125.424 82.2665C125.44 82.2437 125.447 82.2154 125.443 82.1876C125.438 82.1599 125.423 82.135 125.4 82.1184C125.389 82.1102 125.376 82.1043 125.363 82.1011C125.349 82.0978 125.335 82.0973 125.322 82.0995C125.308 82.1017 125.295 82.1066 125.283 82.1139C125.271 82.1212 125.261 82.1308 125.253 82.1421L124.463 83.2319C124.448 83.2519 124.441 83.2763 124.443 83.3008C124.445 83.3254 124.455 83.3486 124.472 83.3664L124.476 83.3717L124.478 83.3724C124.494 83.387 124.514 83.3964 124.535 83.3994C124.556 83.4024 124.578 83.3988 124.597 83.3891L124.984 83.1964C124.995 83.1914 125.007 83.19 125.019 83.1924C125.031 83.1948 125.042 83.2009 125.05 83.2098C125.058 83.2187 125.064 83.23 125.065 83.242C125.067 83.2541 125.064 83.2663 125.058 83.2769L124.868 83.6608C124.858 83.6799 124.855 83.7015 124.858 83.7226C124.861 83.7438 124.87 83.7635 124.884 83.7793L124.886 83.781L124.89 83.7852C124.908 83.8024 124.932 83.8127 124.956 83.8143C124.981 83.8159 125.006 83.8087 125.026 83.7939L126.115 83.0044C126.127 82.9963 126.136 82.986 126.143 82.9742C126.151 82.9624 126.155 82.9493 126.158 82.9356C126.16 82.9219 126.159 82.9079 126.156 82.8944C126.153 82.8809 126.147 82.8682 126.139 82.857" fill="#D6A93A"/>
<path d="M80.8712 84.7757C80.5423 84.777 80.2171 84.8442 79.9147 84.9733C79.6123 85.1025 79.3389 85.2909 79.1106 85.5276C78.2246 86.4139 78.102 87.7289 78.8375 88.4644L98.6313 108.747L101.999 105.379L80.8712 84.7757Z" fill="#F8D742"/>
<path d="M129.009 131.703L104.039 107.367C103.54 107.59 103.098 107.923 102.747 108.342C102.395 108.76 102.143 109.253 102.01 109.783C101.876 110.312 101.865 110.866 101.976 111.401C102.087 111.936 102.319 112.438 102.653 112.871L124.986 135.771C125.721 136.507 126.898 135.727 128.105 134.522C128.308 134.318 128.5 134.115 128.674 133.915C129.317 133.046 129.563 132.258 129.009 131.703" fill="#F8D742"/>
<path d="M123.923 82.6805C123.903 82.7002 123.876 82.7112 123.848 82.7112C123.82 82.7111 123.793 82.6999 123.774 82.6801C123.754 82.6603 123.743 82.6334 123.743 82.6054C123.743 82.5774 123.754 82.5505 123.773 82.5307L124.725 81.5792C124.735 81.569 124.746 81.5608 124.759 81.5551C124.772 81.5495 124.786 81.5465 124.8 81.5463C124.814 81.5461 124.828 81.5487 124.841 81.554C124.854 81.5593 124.866 81.5671 124.876 81.5771C124.886 81.587 124.894 81.5988 124.899 81.6119C124.905 81.6249 124.908 81.6389 124.907 81.653C124.907 81.6671 124.904 81.681 124.899 81.6939C124.893 81.7069 124.885 81.7185 124.875 81.7283L123.923 82.6805Z" fill="#F8D742"/>
<path d="M124.237 82.9967C124.228 83.0064 124.216 83.0141 124.204 83.0194C124.191 83.0247 124.177 83.0274 124.164 83.0274C124.15 83.0274 124.137 83.0247 124.124 83.0194C124.111 83.0141 124.1 83.0064 124.09 82.9967C124.076 82.9821 124.066 82.9636 124.062 82.9433C124.058 82.9231 124.06 82.9021 124.067 82.883C124.075 82.864 124.089 82.8477 124.106 82.8362C124.123 82.8247 124.143 82.8186 124.164 82.8186C124.184 82.8186 124.205 82.8247 124.222 82.8362C124.239 82.8477 124.252 82.864 124.26 82.883C124.268 82.9021 124.27 82.9231 124.266 82.9433C124.262 82.9636 124.252 82.9821 124.237 82.9967" fill="#F8D742"/>
<path d="M123.584 82.3436C123.569 82.3581 123.551 82.368 123.531 82.372C123.51 82.376 123.489 82.374 123.47 82.3661C123.451 82.3582 123.435 82.3448 123.424 82.3277C123.412 82.3106 123.406 82.2905 123.406 82.2699C123.406 82.2493 123.412 82.2292 123.424 82.2121C123.435 82.195 123.451 82.1817 123.47 82.1738C123.489 82.1659 123.51 82.1638 123.531 82.1678C123.551 82.1718 123.569 82.1817 123.584 82.1962C123.603 82.2158 123.614 82.2423 123.614 82.2699C123.614 82.2975 123.603 82.324 123.584 82.3436" fill="#F8D742"/>
<path d="M124.351 81.0549L124.026 80.7285C124.005 80.7089 123.978 80.698 123.95 80.6981C123.922 80.6983 123.895 80.7094 123.875 80.7292C123.865 80.739 123.858 80.7506 123.852 80.7634C123.847 80.7763 123.844 80.79 123.844 80.8039C123.844 80.8178 123.847 80.8316 123.852 80.8444C123.858 80.8572 123.865 80.8689 123.875 80.8786L123.927 80.9309C123.936 80.9402 123.942 80.9526 123.942 80.9655C123.942 80.9785 123.938 80.9911 123.929 81.001L123.087 81.8438C123.067 81.8637 123.056 81.8906 123.056 81.9186C123.056 81.9466 123.067 81.9734 123.087 81.9931C123.107 82.0129 123.134 82.024 123.162 82.0241C123.19 82.0242 123.217 82.0132 123.237 81.9936L124.082 81.1476C124.092 81.1406 124.104 81.1372 124.116 81.138C124.128 81.1389 124.14 81.1438 124.149 81.1522L124.201 81.2048C124.221 81.2246 124.248 81.2357 124.276 81.2357C124.304 81.2357 124.331 81.2245 124.351 81.2047C124.371 81.1848 124.382 81.1579 124.382 81.1298C124.382 81.1018 124.371 81.0748 124.351 81.055" fill="#F8D742"/>
<path d="M126.093 82.8112C126.085 82.7999 126.075 82.7904 126.063 82.7831C126.051 82.7759 126.038 82.771 126.024 82.7689C126.01 82.7667 125.996 82.7673 125.983 82.7705C125.969 82.7738 125.957 82.7797 125.945 82.7878L125.393 83.1875C125.383 83.1953 125.37 83.1994 125.357 83.1992C125.344 83.1989 125.332 83.1942 125.322 83.1859C125.312 83.1775 125.305 83.1661 125.302 83.1533C125.3 83.1406 125.301 83.1273 125.307 83.1157L125.42 82.8892C125.428 82.8713 125.432 82.8513 125.43 82.8315C125.428 82.8116 125.42 82.7928 125.408 82.777L125.407 82.7756L125.402 82.7701L125.399 82.7666L125.396 82.7638L125.39 82.7593L125.389 82.7582C125.373 82.7459 125.354 82.7384 125.334 82.7363C125.314 82.7343 125.294 82.7379 125.276 82.7467L125.051 82.8593C125.04 82.8649 125.027 82.8669 125.015 82.8649C125.003 82.863 124.992 82.8572 124.984 82.8484C124.974 82.8386 124.968 82.8257 124.967 82.8119C124.966 82.7981 124.97 82.7844 124.978 82.7732L125.378 82.2206C125.395 82.1979 125.401 82.1696 125.397 82.1418C125.393 82.1141 125.378 82.0892 125.355 82.0725C125.344 82.0644 125.331 82.0585 125.318 82.0553C125.304 82.0521 125.29 82.0515 125.277 82.0537C125.263 82.0559 125.25 82.0608 125.238 82.0681C125.226 82.0754 125.216 82.085 125.208 82.0962L124.417 83.1864C124.403 83.2064 124.396 83.2306 124.398 83.2551C124.399 83.2796 124.409 83.3027 124.426 83.3205L124.431 83.3258L124.433 83.3268C124.449 83.3414 124.468 83.3508 124.489 83.3537C124.511 83.3566 124.532 83.353 124.551 83.3432L124.939 83.1505C124.95 83.1456 124.962 83.1442 124.974 83.1467C124.986 83.1491 124.997 83.1553 125.005 83.1642C125.013 83.1731 125.018 83.1844 125.02 83.1965C125.021 83.2085 125.019 83.2207 125.013 83.2314L124.822 83.6153C124.813 83.6344 124.809 83.6559 124.812 83.677C124.815 83.6981 124.825 83.7177 124.839 83.7334L124.841 83.7355L124.845 83.7393C124.863 83.7565 124.886 83.7669 124.911 83.7686C124.936 83.7703 124.96 83.7633 124.98 83.7487L126.07 82.9589C126.081 82.9507 126.091 82.9404 126.098 82.9285C126.105 82.9167 126.11 82.9035 126.112 82.8898C126.114 82.8761 126.114 82.862 126.11 82.8486C126.107 82.8351 126.101 82.8223 126.093 82.8111" fill="#F8D742"/>
<path d="M76.6668 80.6015C76.85 80.7849 76.9529 81.0336 76.9529 81.2928C76.9529 81.552 76.85 81.8007 76.6668 81.984L74.5909 84.0592C74.4074 84.2418 74.159 84.3442 73.9001 84.3439C73.6412 84.3436 73.3931 84.2406 73.21 84.0576C73.027 83.8745 72.9241 83.6263 72.9238 83.3674C72.9236 83.1085 73.026 82.8601 73.2087 82.6767L75.2842 80.6015C75.375 80.5107 75.4827 80.4386 75.6013 80.3894C75.7199 80.3402 75.8471 80.3149 75.9755 80.3149C76.1039 80.3149 76.231 80.3402 76.3497 80.3894C76.4683 80.4386 76.576 80.5107 76.6667 80.6015" fill="#D6A93A"/>
<path d="M73.3826 82.8508L75.4581 80.7757C75.6264 80.6075 75.8502 80.5065 76.0876 80.4916C76.325 80.4768 76.5597 80.549 76.7476 80.6948C76.7226 80.662 76.6956 80.6307 76.6668 80.6011C76.4833 80.4179 76.2346 80.315 75.9753 80.315C75.7161 80.315 75.4674 80.4179 75.2839 80.6011L73.2084 82.6766C73.1177 82.7674 73.0457 82.8752 72.9966 82.9939C72.9475 83.1125 72.9223 83.2396 72.9224 83.368C72.9224 83.4964 72.9478 83.6235 72.997 83.7421C73.0462 83.8607 73.1183 83.9684 73.2091 84.0591C73.2383 84.0878 73.2693 84.1147 73.3018 84.1396C73.156 83.9518 73.0837 83.7172 73.0986 83.4799C73.1135 83.2426 73.2145 83.0189 73.3826 82.8508" fill="#CDA938"/>
<path d="M75.3069 83.0177C75.3171 83.0274 75.3252 83.0391 75.3308 83.0521C75.3364 83.065 75.3393 83.0789 75.3395 83.093C75.3396 83.1071 75.3369 83.1211 75.3316 83.1341C75.3262 83.1472 75.3183 83.159 75.3083 83.1689C75.2983 83.1789 75.2865 83.1867 75.2734 83.192C75.2603 83.1973 75.2463 83.1999 75.2323 83.1997C75.2182 83.1995 75.2043 83.1965 75.1914 83.1909C75.1784 83.1852 75.1668 83.177 75.1571 83.1668L74.2056 82.2153C74.1865 82.1953 74.176 82.1687 74.1763 82.1411C74.1766 82.1134 74.1877 82.087 74.2072 82.0675C74.2268 82.048 74.2532 82.0368 74.2808 82.0365C74.3084 82.0362 74.3351 82.0467 74.355 82.0658L75.3069 83.0177Z" fill="#D6A93A"/>
<path d="M75.6235 82.7034C75.6379 82.718 75.6478 82.7365 75.6518 82.7567C75.6557 82.7768 75.6537 82.7977 75.6458 82.8167C75.6379 82.8356 75.6246 82.8518 75.6075 82.8632C75.5904 82.8746 75.5703 82.8807 75.5498 82.8807C75.5292 82.8807 75.5091 82.8746 75.4921 82.8632C75.475 82.8518 75.4616 82.8356 75.4538 82.8167C75.4459 82.7977 75.4438 82.7768 75.4478 82.7567C75.4517 82.7365 75.4616 82.718 75.4761 82.7034C75.4956 82.6839 75.5221 82.673 75.5498 82.673C75.5774 82.673 75.6039 82.6839 75.6235 82.7034" fill="#D6A93A"/>
<path d="M74.9699 83.3569C74.9894 83.3764 75.0004 83.4029 75.0004 83.4305C75.0005 83.4581 74.9895 83.4846 74.97 83.5041C74.9505 83.5236 74.9241 83.5346 74.8965 83.5347C74.8689 83.5347 74.8424 83.5238 74.8228 83.5043C74.8034 83.4847 74.7925 83.4582 74.7925 83.4307C74.7924 83.4031 74.8032 83.3766 74.8225 83.3569C74.8321 83.3472 74.8436 83.3395 74.8562 83.3342C74.8689 83.3289 74.8825 83.3262 74.8962 83.3262C74.9099 83.3262 74.9234 83.3289 74.9361 83.3342C74.9487 83.3395 74.9602 83.3472 74.9699 83.3569" fill="#D6A93A"/>
<path d="M73.6814 82.5897L73.3552 82.9152C73.3356 82.9351 73.3246 82.962 73.3247 82.99C73.3248 83.0179 73.3359 83.0447 73.3557 83.0645C73.3754 83.0844 73.4022 83.0956 73.4302 83.0957C73.4582 83.0959 73.4851 83.0849 73.5051 83.0653L73.5573 83.0131C73.5668 83.0042 73.5793 82.9991 73.5924 82.9987C73.6054 82.9984 73.6181 83.0029 73.6281 83.0113L74.4702 83.8538C74.49 83.8736 74.517 83.8847 74.545 83.8847C74.5731 83.8847 74.6 83.8735 74.6199 83.8537C74.6397 83.8338 74.6509 83.8069 74.6509 83.7789C74.6509 83.7508 74.6398 83.7239 74.62 83.704L73.7744 82.8587C73.7671 82.8489 73.7636 82.8368 73.7643 82.8245C73.7651 82.8123 73.7701 82.8007 73.7786 82.7919L73.8312 82.7396C73.851 82.7197 73.8621 82.6928 73.8621 82.6647C73.8621 82.6367 73.8509 82.6097 73.8311 82.5899C73.8112 82.5701 73.7843 82.5589 73.7562 82.5589C73.7282 82.5588 73.7012 82.57 73.6814 82.5898" fill="#D6A93A"/>
<path d="M75.4378 80.8475C75.4265 80.8556 75.4169 80.8659 75.4096 80.8777C75.4023 80.8895 75.3974 80.9027 75.3952 80.9164C75.393 80.9301 75.3936 80.9442 75.3968 80.9577C75.4 80.9712 75.4059 80.984 75.4141 80.9952L75.8144 81.5467C75.8227 81.558 75.8268 81.5719 75.8258 81.5858C75.8248 81.5998 75.819 81.613 75.8092 81.623C75.8005 81.6316 75.7894 81.6371 75.7774 81.639C75.7654 81.6409 75.7532 81.639 75.7423 81.6335L75.5159 81.5213C75.498 81.5123 75.478 81.5086 75.4581 81.5106C75.4383 81.5125 75.4194 81.5201 75.4037 81.5325L75.4016 81.5342L75.3967 81.5387L75.3936 81.5415L75.3904 81.5446L75.3856 81.5502L75.3845 81.552C75.3723 81.5676 75.3647 81.5865 75.3627 81.6063C75.3608 81.6261 75.3645 81.646 75.3734 81.6638L75.4855 81.8899C75.4914 81.9016 75.4931 81.9149 75.4904 81.9276C75.4878 81.9404 75.4809 81.9519 75.471 81.9603C75.461 81.9687 75.4485 81.9735 75.4355 81.974C75.4225 81.9744 75.4097 81.9704 75.3991 81.9627L74.8469 81.5624C74.8357 81.5541 74.823 81.5482 74.8094 81.5448C74.7959 81.5415 74.7819 81.5409 74.7681 81.543C74.7544 81.5452 74.7412 81.55 74.7293 81.5572C74.7174 81.5645 74.707 81.574 74.6989 81.5853C74.6907 81.5965 74.6848 81.6093 74.6816 81.6229C74.6784 81.6364 74.6778 81.6505 74.6801 81.6642C74.6823 81.678 74.6872 81.6911 74.6946 81.703C74.7019 81.7148 74.7115 81.725 74.7229 81.7331L75.8124 82.5233C75.8324 82.5378 75.8569 82.5448 75.8816 82.5432C75.9063 82.5415 75.9296 82.5313 75.9475 82.5143L75.9514 82.5094L75.9538 82.5073C75.968 82.4916 75.9772 82.4719 75.98 82.4509C75.9829 82.4299 75.9793 82.4085 75.9698 82.3896L75.7772 82.0018C75.7723 81.9907 75.771 81.9784 75.7734 81.9666C75.7759 81.9548 75.782 81.9441 75.7909 81.9359C75.7997 81.9277 75.8109 81.9225 75.8229 81.921C75.8349 81.9195 75.847 81.9218 75.8576 81.9276L76.2416 82.1174C76.2606 82.1271 76.2821 82.1308 76.3033 82.128C76.3244 82.1252 76.3442 82.116 76.3601 82.1018L76.3614 82.1L76.366 82.0951C76.3831 82.0774 76.3934 82.0542 76.3951 82.0296C76.3969 82.005 76.3899 81.9806 76.3754 81.9607L75.5848 80.8705C75.5683 80.848 75.5436 80.8329 75.5161 80.8286C75.4885 80.8243 75.4604 80.8311 75.4378 80.8475" fill="#D6A93A"/>
<path d="M75.307 82.9132C75.3171 82.9229 75.3253 82.9346 75.3308 82.9475C75.3364 82.9605 75.3394 82.9744 75.3395 82.9885C75.3396 83.0026 75.337 83.0166 75.3316 83.0296C75.3263 83.0426 75.3184 83.0545 75.3084 83.0644C75.2984 83.0744 75.2865 83.0822 75.2735 83.0875C75.2604 83.0928 75.2464 83.0954 75.2323 83.0952C75.2182 83.095 75.2043 83.092 75.1914 83.0863C75.1785 83.0807 75.1669 83.0725 75.1571 83.0623L74.2056 82.1111C74.1859 82.0913 74.1748 82.0644 74.1748 82.0364C74.1748 82.0084 74.1859 81.9816 74.2057 81.9617C74.2255 81.9419 74.2523 81.9307 74.2803 81.9307C74.3083 81.9306 74.3352 81.9416 74.3551 81.9613L75.307 82.9132Z" fill="#F8D742"/>
<path d="M75.6231 82.5988C75.6376 82.6134 75.6474 82.632 75.6513 82.6521C75.6553 82.6723 75.6531 82.6932 75.6452 82.7121C75.6373 82.7311 75.6239 82.7472 75.6068 82.7586C75.5897 82.77 75.5696 82.776 75.549 82.776C75.5285 82.7759 75.5084 82.7698 75.4914 82.7583C75.4743 82.7469 75.461 82.7307 75.4532 82.7117C75.4453 82.6927 75.4433 82.6718 75.4473 82.6516C75.4513 82.6315 75.4612 82.613 75.4758 82.5985C75.4954 82.579 75.5219 82.5681 75.5495 82.5682C75.5771 82.5683 75.6036 82.5793 75.6231 82.5988" fill="#F8D742"/>
<path d="M74.9698 83.2521C74.9843 83.2667 74.9942 83.2852 74.9982 83.3054C75.0022 83.3256 75.0001 83.3465 74.9922 83.3655C74.9843 83.3845 74.971 83.4008 74.9539 83.4122C74.9368 83.4236 74.9167 83.4297 74.8961 83.4297C74.8755 83.4297 74.8554 83.4236 74.8383 83.4122C74.8212 83.4008 74.8078 83.3845 74.7999 83.3655C74.7921 83.3465 74.79 83.3256 74.794 83.3054C74.798 83.2852 74.8079 83.2667 74.8224 83.2521C74.842 83.2326 74.8685 83.2216 74.8961 83.2216C74.9237 83.2216 74.9502 83.2326 74.9698 83.2521" fill="#F8D742"/>
<path d="M73.6817 82.485L73.3556 82.8107C73.3358 82.8306 73.3247 82.8575 73.3247 82.8856C73.3247 82.9137 73.3359 82.9406 73.3557 82.9604C73.3756 82.9803 73.4025 82.9914 73.4306 82.9915C73.4586 82.9915 73.4856 82.9804 73.5054 82.9605L73.5577 82.9086C73.5672 82.8997 73.5796 82.8945 73.5927 82.8941C73.6057 82.8937 73.6184 82.8982 73.6284 82.9066L74.4705 83.7494C74.4904 83.7691 74.5173 83.7802 74.5453 83.7802C74.5733 83.7802 74.6001 83.7691 74.6199 83.7493C74.6398 83.7295 74.6509 83.7027 74.651 83.6747C74.6511 83.6467 74.6401 83.6198 74.6204 83.5999L73.7748 82.7539C73.7675 82.7441 73.7639 82.7321 73.7647 82.7199C73.7655 82.7077 73.7705 82.6962 73.7789 82.6874L73.8315 82.6351C73.8514 82.6152 73.8625 82.5882 73.8625 82.5601C73.8625 82.5319 73.8514 82.5049 73.8315 82.485C73.8218 82.475 73.8101 82.4671 73.7972 82.4618C73.7844 82.4564 73.7706 82.4536 73.7566 82.4536C73.7427 82.4536 73.7289 82.4564 73.716 82.4618C73.7032 82.4671 73.6915 82.475 73.6817 82.485" fill="#F8D742"/>
<path d="M75.4376 80.7428C75.4264 80.7509 75.4168 80.7612 75.4095 80.773C75.4022 80.7848 75.3973 80.798 75.3951 80.8117C75.3929 80.8254 75.3934 80.8395 75.3967 80.853C75.3999 80.8665 75.4058 80.8793 75.414 80.8905L75.8143 81.4424C75.8226 81.4537 75.8266 81.4675 75.8256 81.4815C75.8247 81.4955 75.8188 81.5086 75.8091 81.5187C75.8004 81.5272 75.7892 81.5327 75.7772 81.5345C75.7652 81.5363 75.753 81.5343 75.7422 81.5288L75.5157 81.4166C75.4979 81.4077 75.4778 81.404 75.4579 81.4061C75.4381 81.4081 75.4192 81.4157 75.4035 81.4281L75.4014 81.4295L75.3966 81.434L75.3934 81.4368L75.3903 81.4403L75.3854 81.4455L75.3844 81.4476C75.3721 81.4632 75.3646 81.482 75.3626 81.5018C75.3607 81.5215 75.3643 81.5414 75.3732 81.5591L75.4854 81.7852C75.4909 81.7962 75.4928 81.8085 75.4908 81.8206C75.4889 81.8327 75.4832 81.8438 75.4746 81.8525C75.4647 81.8622 75.4517 81.8682 75.4379 81.8693C75.4241 81.8705 75.4103 81.8667 75.399 81.8587L74.8467 81.4577C74.8355 81.4496 74.8228 81.4437 74.8093 81.4405C74.7959 81.4373 74.7819 81.4367 74.7682 81.4389C74.7545 81.441 74.7414 81.4459 74.7296 81.4531C74.7178 81.4604 74.7075 81.4699 74.6994 81.4811C74.6912 81.4923 74.6853 81.505 74.6821 81.5185C74.6789 81.5319 74.6783 81.5459 74.6805 81.5596C74.6827 81.5733 74.6875 81.5864 74.6947 81.5982C74.702 81.61 74.7115 81.6203 74.7227 81.6284L75.8122 82.4186C75.8322 82.4332 75.8567 82.4402 75.8813 82.4386C75.906 82.437 75.9294 82.4269 75.9474 82.4099L75.9512 82.4051L75.9536 82.403C75.9678 82.3872 75.977 82.3676 75.9798 82.3466C75.9827 82.3256 75.9791 82.3042 75.9697 82.2852L75.777 81.8974C75.7721 81.8864 75.7707 81.8741 75.7732 81.8622C75.7756 81.8504 75.7817 81.8396 75.7906 81.8313C75.7994 81.8231 75.8107 81.8179 75.8227 81.8164C75.8347 81.8148 75.8468 81.8171 75.8575 81.8229L76.2414 82.0131C76.2605 82.0227 76.282 82.0263 76.3031 82.0235C76.3243 82.0206 76.3441 82.0114 76.3599 81.9971L76.3613 81.9957L76.3658 81.9904C76.3829 81.9727 76.3933 81.9495 76.395 81.9249C76.3967 81.9003 76.3897 81.8759 76.3752 81.856L75.5847 80.7661C75.5765 80.7549 75.5663 80.7454 75.5545 80.7382C75.5427 80.731 75.5296 80.7261 75.516 80.724C75.5023 80.7218 75.4884 80.7223 75.4749 80.7256C75.4615 80.7288 75.4488 80.7346 75.4376 80.7428" fill="#F8D742"/>
<path d="M80.1807 68.7192C79.7341 68.7825 79.2792 68.7522 78.845 68.6303C78.4107 68.5084 78.0065 68.2975 77.6581 68.0111C77.3096 67.7247 77.0245 67.369 76.8209 66.9666C76.6172 66.5642 76.4994 66.1238 76.4749 65.6734C76.4181 63.8617 76.3612 62.0501 76.3042 60.2388C77.154 60.1723 77.5794 60.1406 78.4299 60.0803C78.4814 61.8921 78.5331 63.7038 78.5849 65.5156C78.5784 65.7081 78.6158 65.8995 78.6944 66.0753C78.773 66.2511 78.8907 66.4067 79.0385 66.5302C79.1863 66.6536 79.3603 66.7418 79.5473 66.7878C79.7343 66.8339 79.9294 66.8367 80.1176 66.796C80.243 66.7876 80.3057 66.7835 80.4312 66.7754C80.6273 66.7869 80.8236 66.7564 81.007 66.6861C81.1904 66.6158 81.3568 66.5072 81.495 66.3675C81.6331 66.2279 81.74 66.0604 81.8084 65.8763C81.8768 65.6921 81.9052 65.4955 81.8917 65.2996C81.8478 63.4875 81.8042 61.6756 81.7607 59.8639C82.6119 59.8134 83.0376 59.7897 83.8892 59.7455C83.9275 61.5572 83.966 63.3692 84.0045 65.1814C83.9961 66.1106 83.6237 66.9994 82.9673 67.657C82.3108 68.3146 81.4227 68.6886 80.4935 68.6987C80.3685 68.707 80.3058 68.7109 80.1807 68.7192" fill="white"/>
<path d="M85.5151 59.6808C86.5032 59.6337 86.9976 59.6125 87.9864 59.5738C89.0972 61.3611 90.2003 63.1533 91.2957 64.9502L91.3197 64.9495C91.302 63.1214 91.2841 61.293 91.2661 59.4644C92.1183 59.4407 92.5448 59.4303 93.3973 59.4128C93.4217 62.2799 93.446 65.1469 93.4702 68.0138C92.497 68.0336 92.0106 68.0458 91.0379 68.0741C89.9425 66.2825 88.8391 64.4956 87.7279 62.7133L87.7039 62.7144C87.7304 64.5387 87.7571 66.363 87.784 68.1873C86.9419 68.2214 86.5207 68.2399 85.6789 68.2803C85.6242 65.4139 85.5696 62.5474 85.5151 59.6807" fill="white"/>
<path d="M94.9639 59.3884C95.8165 59.3748 96.2429 59.3696 97.0958 59.3623C97.106 62.2294 97.1159 65.0965 97.1258 67.9636C96.283 67.9706 95.8614 67.9758 95.0186 67.9894C95.0005 65.1223 94.9822 62.2553 94.9639 59.3884" fill="white"/>
<path d="M101.385 61.1606C100.288 61.1546 99.7396 61.1543 98.6424 61.1585C98.6414 60.4369 98.6407 60.0759 98.6396 59.354C101.184 59.3523 103.728 59.3754 106.27 59.4234C106.264 60.1449 106.261 60.5059 106.254 61.2278C105.157 61.2034 104.609 61.194 103.512 61.1797C103.5 63.4455 103.489 65.711 103.477 67.9763C102.634 67.9654 102.213 67.9616 101.37 67.9571C101.375 65.6917 101.38 63.4262 101.385 61.1606" fill="white"/>
<path d="M107.814 59.4557C109.738 59.5135 111.662 59.5839 113.585 59.6668C113.571 60.3884 113.565 60.7493 113.551 61.4709C112.099 61.4033 111.373 61.374 109.92 61.3246C109.911 61.95 109.907 62.2628 109.898 62.8882C111.082 62.9287 111.673 62.9517 112.856 63.0043C112.843 63.7258 112.837 64.0868 112.824 64.8084C111.644 64.7561 111.054 64.7328 109.874 64.6927C109.865 65.3421 109.861 65.6669 109.851 66.3163C111.362 66.3679 112.117 66.3989 113.627 66.4703C113.614 67.1919 113.607 67.5528 113.593 68.2744C111.636 68.1883 109.678 68.1156 107.72 68.0563C107.752 65.1895 107.783 62.3227 107.814 59.4557" fill="white"/>
<path d="M115.203 59.7297C116.567 59.799 117.248 59.8377 118.609 59.9231C119.795 59.9575 120.918 60.4606 121.734 61.3221C122.549 62.1837 122.989 63.3333 122.958 64.519C122.945 65.0897 122.813 65.6513 122.571 66.1684C122.329 66.6855 121.983 67.1467 121.553 67.5229C121.124 67.8991 120.621 68.1821 120.077 68.3539C119.532 68.5258 118.958 68.5828 118.391 68.5212C117.045 68.4366 116.372 68.3979 115.024 68.3289C115.084 65.4625 115.144 62.5961 115.203 59.7297V59.7297ZM118.352 66.7123C119.81 66.8036 120.726 66.0032 120.772 64.3559C120.819 62.7205 119.91 61.8111 118.479 61.7216C118.003 61.692 117.765 61.6777 117.289 61.6498L117.171 66.6408C117.644 66.6684 117.88 66.6827 118.352 66.7123" fill="white"/>
<path d="M58.4746 49.6683C59.5826 49.5282 60.1369 49.4606 61.2459 49.3307C61.7434 51.7724 62.2409 54.2142 62.7382 56.6561L62.7681 56.6526C63.3374 54.0911 63.907 51.5295 64.4768 48.968C65.4321 48.8655 65.9102 48.8164 66.8659 48.7213C67.4212 51.1668 67.9763 53.6122 68.5309 56.0575L68.5613 56.0544C69.0992 53.5061 69.6377 50.9579 70.1769 48.4098C71.2702 48.3126 71.8172 48.2663 72.9112 48.1788C71.9987 51.8581 71.0873 55.5378 70.1769 59.218C68.894 59.3319 68.2529 59.3922 66.9711 59.519C66.5352 57.4522 66.0995 55.3853 65.6638 53.3183L65.6335 53.3214C65.1977 55.4784 64.7621 57.6354 64.327 59.7922C63.0337 59.9315 62.3873 60.0043 61.0954 60.1566C60.2223 56.6603 59.3487 53.1642 58.4746 49.6683Z" fill="white"/>
<path d="M128.089 48.3317C129.279 48.4341 129.874 48.4881 131.064 48.6017C131.85 50.9214 132.635 53.2417 133.419 55.5623L133.45 55.5651C134.234 53.4067 135.018 51.2484 135.803 49.0902C136.979 49.2201 137.567 49.2881 138.742 49.4292C139.39 53.1116 140.037 56.7941 140.684 60.4767C139.594 60.3388 139.049 60.2722 137.958 60.144C137.638 57.7392 137.319 55.3344 136.999 52.9294L136.969 52.9259C136.196 55.208 135.423 57.4903 134.651 59.7729C133.696 59.6708 133.218 59.6217 132.262 59.5266C131.474 57.0832 130.686 54.64 129.896 52.197C129.885 52.1959 129.878 52.1956 129.867 52.1942C129.586 54.5369 129.307 56.8796 129.027 59.2221C127.915 59.1231 127.36 59.0761 126.248 58.9869C126.861 55.4352 127.475 51.8834 128.089 48.3317" fill="white"/>
<path d="M73.9673 48.1168C76.3992 47.9343 78.8324 47.7735 81.2669 47.6346C81.2143 48.5443 81.1878 48.9994 81.1352 49.9091C79.6273 49.9958 78.1197 50.0894 76.6125 50.1899V52.1553C78.0883 52.0529 78.8266 52.0062 80.3032 51.9212V54.1886C78.8266 54.2737 78.0883 54.3203 76.6125 54.4228V56.4634C78.1901 56.354 79.7683 56.2566 81.3471 56.1711C81.3471 57.078 81.3471 57.5313 81.3474 58.4383C78.8855 58.5783 76.4255 58.7406 73.9673 58.925V48.1168Z" fill="white"/>
<path d="M93.7106 49.4767C92.3434 49.5001 91.6598 49.515 90.293 49.553V47.2855C93.4552 47.2054 96.6173 47.1649 99.7793 47.1639V49.4318C98.4121 49.4286 97.7282 49.4311 96.361 49.4429V57.9836C95.3007 57.9927 94.7708 57.9993 93.7106 58.0174V49.4767Z" fill="white"/>
<path d="M104.181 47.1867C105.241 47.1996 105.771 47.2083 106.832 47.2299V51.5531C108.363 51.5886 109.894 51.6311 111.425 51.6806V47.3575C112.485 47.3944 113.015 47.415 114.075 47.4609V58.2691C113.015 58.2235 112.485 58.2026 111.425 58.1657V53.9331C109.894 53.8833 108.363 53.8408 106.832 53.8056V58.0381C105.771 58.0165 105.241 58.0078 104.181 57.9949V47.1867Z" fill="white"/>
<path d="M122.004 56.4355C120.55 56.3365 119.823 56.2916 118.369 56.2093C118.108 57.1016 117.978 57.548 117.718 58.4406C116.629 58.3814 116.084 58.3542 114.994 58.3044C116.087 54.7568 117.182 51.2098 118.277 47.6634C119.706 47.7436 120.42 47.7878 121.848 47.884C123.03 51.5726 124.211 55.2618 125.39 58.9514C124.302 58.8657 123.758 58.8253 122.669 58.7489C122.403 57.8232 122.27 57.3605 122.004 56.4355V56.4355ZM120.179 50.24C119.782 51.5361 119.385 52.8323 118.989 54.1286C119.947 54.1847 120.426 54.2143 121.384 54.2777C120.992 52.9322 120.601 51.5868 120.209 50.2417L120.179 50.24" fill="white"/>
<path d="M86.2767 47.2249C84.3033 47.295 82.0665 48.5102 82.0518 50.729C82.0292 54.1159 87.1154 53.2069 87.4293 55.0577C87.5164 55.5698 86.9394 55.9998 86.2091 55.9987C84.9761 56.0216 83.7572 55.7338 82.6647 55.1619C82.6107 56.0953 82.5661 56.5862 82.5299 57.4335C83.611 58.1089 84.8693 58.4459 86.1433 58.4014C88.0456 58.4505 90.3337 57.1314 90.3528 54.9068C90.3817 51.546 85.3395 52.3066 84.974 50.5589C84.8803 50.1112 85.4269 49.6705 86.2433 49.6238C87.2133 49.5703 88.1821 49.7482 89.07 50.1426C89.1243 49.0677 89.1407 48.914 89.2013 47.8678C88.307 47.3808 87.2928 47.1579 86.2767 47.2249" fill="white"/>
<path d="M84.0107 136.518L85.2981 137.081L83.4825 141.237L85.6308 142.176L85.1486 143.279L81.7129 141.779L84.0107 136.518Z" fill="white"/>
<path d="M90.3669 138.787C90.7482 138.878 91.1072 139.045 91.4222 139.278C91.7372 139.512 92.0017 139.806 92.1997 140.145C92.3978 140.483 92.5252 140.858 92.5744 141.247C92.6236 141.636 92.5935 142.031 92.4859 142.408C92.275 143.175 91.7677 143.828 91.0756 144.222C90.3835 144.616 89.5634 144.718 88.7955 144.507C88.0277 144.297 87.3751 143.789 86.9813 143.097C86.5875 142.405 86.4847 141.585 86.6956 140.817C86.7957 140.438 86.9716 140.083 87.2125 139.774C87.4535 139.465 87.7546 139.208 88.0976 139.018C88.4407 138.828 88.8186 138.71 89.2086 138.67C89.5986 138.63 89.9926 138.67 90.3669 138.787H90.3669ZM89.1356 143.269C89.3455 143.317 89.563 143.323 89.7753 143.287C89.9877 143.25 90.1905 143.171 90.3721 143.055C90.5536 142.939 90.7101 142.788 90.8325 142.611C90.9548 142.433 91.0405 142.233 91.0846 142.023C91.1529 141.822 91.1794 141.61 91.1626 141.399C91.1458 141.188 91.086 140.982 90.9869 140.795C90.8878 140.608 90.7515 140.444 90.5863 140.311C90.4212 140.179 90.2307 140.081 90.0265 140.025C89.8224 139.969 89.6089 139.956 89.3993 139.985C89.1897 140.014 88.9882 140.086 88.8075 140.197C88.6267 140.307 88.4704 140.453 88.3481 140.626C88.2259 140.799 88.1403 140.995 88.0966 141.202C88.0268 141.406 87.9984 141.621 88.013 141.836C88.0276 142.051 88.085 142.261 88.1817 142.454C88.2785 142.646 88.4127 142.817 88.5765 142.957C88.7403 143.097 88.9303 143.203 89.1356 143.269" fill="white"/>
<path d="M93.831 139.734L95.2449 139.878L96.5549 142.707C96.6995 143.041 96.8263 143.383 96.9347 143.73L96.9507 143.732C96.9507 143.732 96.9493 143.111 96.9859 142.751L97.2576 140.083L98.6555 140.226L98.074 145.936L96.6681 145.793L95.3494 142.972C95.2047 142.638 95.0779 142.296 94.9696 141.949L94.9536 141.947C94.9536 141.947 94.9546 142.568 94.918 142.928L94.6473 145.588L93.2495 145.445L93.831 139.734Z" fill="white"/>
<path d="M99.646 140.241L101.682 140.131C103.486 140.034 104.697 141.022 104.795 142.826C104.891 144.63 103.795 145.766 101.991 145.864L99.9547 145.973L99.646 140.241ZM101.87 144.664C102.292 144.615 102.679 144.407 102.953 144.082C103.227 143.757 103.367 143.34 103.344 142.916C103.321 142.492 103.137 142.093 102.83 141.799C102.523 141.506 102.116 141.341 101.691 141.337L101.114 141.368L101.293 144.695L101.87 144.664Z" fill="white"/>
<path d="M107.794 139.228C108.173 139.131 108.569 139.111 108.956 139.171C109.344 139.231 109.715 139.369 110.048 139.576C110.381 139.783 110.668 140.055 110.893 140.377C111.118 140.698 111.275 141.061 111.356 141.445C111.527 142.223 111.382 143.037 110.953 143.708C110.524 144.378 109.846 144.852 109.068 145.023C108.291 145.194 107.477 145.049 106.806 144.62C106.135 144.191 105.662 143.513 105.491 142.735C105.403 142.353 105.393 141.957 105.462 141.571C105.531 141.185 105.678 140.817 105.893 140.49C106.108 140.162 106.388 139.881 106.714 139.664C107.041 139.447 107.408 139.299 107.794 139.228V139.228ZM108.792 143.768C109.001 143.713 109.196 143.617 109.367 143.486C109.537 143.355 109.68 143.19 109.787 143.003C109.893 142.816 109.962 142.609 109.987 142.395C110.013 142.181 109.996 141.964 109.936 141.757C109.903 141.548 109.828 141.348 109.715 141.169C109.602 140.99 109.453 140.836 109.278 140.717C109.103 140.597 108.906 140.515 108.698 140.475C108.49 140.434 108.276 140.437 108.069 140.483C107.863 140.528 107.667 140.615 107.496 140.739C107.324 140.863 107.179 141.021 107.07 141.202C106.962 141.384 106.892 141.586 106.864 141.796C106.836 142.006 106.852 142.219 106.91 142.423C106.943 142.636 107.018 142.84 107.131 143.023C107.244 143.207 107.393 143.366 107.568 143.491C107.744 143.616 107.942 143.705 108.152 143.753C108.362 143.801 108.58 143.806 108.792 143.768" fill="white"/>
<path d="M111.296 138.457L112.614 137.925L115.091 139.817C115.375 140.045 115.646 140.288 115.904 140.545L115.919 140.539C115.919 140.539 115.628 139.99 115.493 139.654L114.49 137.168L115.792 136.643L117.94 141.965L116.63 142.494L114.149 140.613C113.865 140.385 113.593 140.142 113.335 139.885L113.32 139.891C113.32 139.891 113.611 140.44 113.746 140.775L114.747 143.254L113.444 143.779L111.296 138.457Z" fill="white"/>
</g>
<defs>
<clipPath id="clip0">
<rect x="46" y="40" width="107.317" height="120" fill="white"/>
</clipPath>
</defs>
</svg>
