<svg width="200" height="200" viewBox="0 0 200 200" fill="none" xmlns="http://www.w3.org/2000/svg">
<rect width="200" height="200" fill="white"/>
<g clip-path="url(#clip0)">
<path d="M49 40V88.45V101.474C49 114.743 54.3733 127.534 64.5411 138.464C73.9061 148.54 86.6501 156.156 100.423 159.917L100.737 160L101.063 159.957C104.819 159.42 116.138 155.574 127.112 147.137C136.92 139.593 149.121 126.171 151.56 105.063L151.564 88.5719L151.57 40H49Z" fill="url(#paint0_linear)"/>
<path d="M51.291 43.1478V101.277C51.291 114.008 56.445 126.225 66.1886 136.589C75.0122 145.981 86.9257 153.077 99.7405 156.576L100.702 156.796L101.778 156.69L101.827 156.683C105.603 156.145 110.495 154.032 111.904 153.396C117.119 151.048 122.049 148.071 126.544 144.553C139.575 134.351 147.425 120.609 149.25 104.817L149.281 43.1478" fill="url(#paint1_linear)"/>
<path fill-rule="evenodd" clip-rule="evenodd" d="M55.4277 47.2287H145.139V104.354C141.083 139.466 106.611 151.808 100.78 152.641C76.6873 146.063 55.4277 125.803 55.4277 101.275" fill="#97D9F6"/>
<path fill-rule="evenodd" clip-rule="evenodd" d="M99.571 48.585C99.571 48.585 99.6694 49.244 99.571 49.7402C99.4725 50.2398 99.3741 50.4029 99.3741 50.4029C99.3741 50.4029 100.097 50.0393 100.461 49.9407C100.824 49.8423 101.385 49.7402 101.582 49.6757C101.779 49.6114 100.431 50.2398 99.9687 50.5013C99.5067 50.7665 99.0106 51.0654 98.8136 51.3608C98.6167 51.6599 97.8895 52.618 97.8895 52.9476C97.8895 53.2808 98.2872 53.6445 98.2191 54.1365C98.1547 54.6327 97.9881 54.9016 97.8895 55C97.7911 55.0986 97.757 54.9318 97.7268 54.5041C97.6927 54.0723 97.6284 53.9093 97.6284 53.9093C97.6284 53.9093 97.4277 54.0723 97.3291 54.3032C97.2307 54.5343 97.1966 54.7652 96.9012 55.1325C96.6021 55.4961 96.3408 55.6929 96.3408 55.6929C96.3408 55.6929 96.4392 54.1365 96.7687 53.743C97.0982 53.3452 97.295 53.0158 97.295 53.0158C97.295 53.0158 97.6586 52.1219 97.6284 51.626C97.5943 51.13 97.7912 50.1377 98.1547 49.6757C98.5182 49.2137 99.2755 48.7176 99.571 48.585Z" fill="#FFF30D"/>
<path d="M99.5709 48.585L99.4952 48.5959C99.4952 48.5959 99.5368 48.8837 99.5368 49.2207C99.5368 49.3874 99.53 49.5691 99.4952 49.7243C99.4459 49.9704 99.4005 50.1335 99.3627 50.2319L99.3209 50.3378L99.31 50.3644L99.1738 50.5878L99.4086 50.4705C99.4086 50.4705 100.136 50.1069 100.48 50.0121C100.84 49.9136 101.397 49.8152 101.605 49.747L101.612 49.7429L101.601 49.6936V49.7466L101.612 49.7425L101.601 49.6932V49.7462V49.6706L101.571 49.7388L101.601 49.7457V49.6701L101.571 49.7383L101.601 49.6701H101.526L101.571 49.7383L101.601 49.6701H101.526H101.597L101.544 49.6169L101.526 49.6701H101.597L101.544 49.6169L101.575 49.6434L101.552 49.6132L101.545 49.6173L101.575 49.6438L101.552 49.6136C101.465 49.6705 100.344 50.1967 99.9315 50.4353C99.4658 50.7003 98.9697 50.9957 98.75 51.3177C98.6515 51.4616 98.4205 51.7798 98.2123 52.1015C98.0078 52.4235 97.8222 52.7378 97.8146 52.9461C97.8256 53.3057 98.1593 53.624 98.1517 54.0215L98.1448 54.1276C98.0842 54.6084 97.9214 54.8622 97.838 54.9417L97.8271 54.9526L97.8423 54.9755V54.9489L97.8271 54.953L97.8423 54.9759V54.9494V54.991L97.8687 54.9569L97.8423 54.95V54.9916L97.8687 54.9576V54.9617V54.9576V54.9617V54.9576C97.8498 54.931 97.8232 54.7607 97.8043 54.4956C97.7703 54.0601 97.7021 53.8859 97.6984 53.8782L97.6605 53.7798L97.581 53.8479C97.5769 53.8521 97.3689 54.0222 97.259 54.272C97.1569 54.5183 97.1303 54.7265 96.8424 55.0824H96.8466H96.8424C96.6986 55.2604 96.5585 55.3968 96.46 55.4916C96.3579 55.5863 96.2972 55.6316 96.2972 55.6316L96.3427 55.6921L96.4184 55.6962C96.4184 55.6962 96.4449 55.3098 96.5093 54.8783C96.5699 54.4427 96.6872 53.9542 96.8311 53.7913C97.1644 53.3901 97.3612 53.053 97.3612 53.053L97.3654 53.0489L97.3695 53.0407C97.3695 53.0366 97.7065 52.2231 97.7065 51.6928V51.6206L97.7024 51.5108C97.6983 51.0072 97.8955 50.1212 98.2173 49.7198V49.7239V49.7198C98.562 49.2767 99.3231 48.7768 99.6033 48.6518L99.5731 48.5836L99.4974 48.5946L99.5731 48.5836L99.5429 48.5156C99.2324 48.6558 98.475 49.148 98.0962 49.6288V49.6247C97.7403 50.083 97.551 50.9689 97.5471 51.5104L97.5513 51.6279L97.5554 51.6924C97.5554 51.9273 97.4758 52.2566 97.3926 52.5178C97.3092 52.7828 97.2259 52.9838 97.2259 52.9838L97.2979 53.014L97.2335 52.9724C97.2335 52.9765 97.0404 53.2981 96.7147 53.6919C96.5254 53.9228 96.4268 54.4075 96.3588 54.8544C96.2905 55.2936 96.2678 55.6836 96.2678 55.6875L96.2568 55.8502L96.3895 55.7518C96.3936 55.7477 96.6622 55.5474 96.9651 55.1763C97.268 54.8051 97.3097 54.5515 97.4006 54.3317C97.446 54.2258 97.518 54.1347 97.5748 54.0668L97.6771 53.9644L97.6316 53.9075L97.5596 53.9342C97.5596 53.9342 97.5705 53.9684 97.5937 54.0592C97.6126 54.1501 97.6353 54.2941 97.6543 54.506C97.6653 54.6802 97.6808 54.8127 97.6998 54.9075L97.7376 55.0286L97.8437 55.1005L97.9459 55.0512C98.0632 54.9337 98.2298 54.6574 98.298 54.1464L98.3062 54.0212C98.3021 53.5479 97.9578 53.1996 97.9692 52.9458C97.9651 52.8247 98.1396 52.4951 98.344 52.1808C98.5485 51.8665 98.7795 51.5523 98.878 51.4006C99.0598 51.1282 99.5482 50.8289 100.01 50.5677C100.219 50.4464 100.628 50.242 100.983 50.0678C101.161 49.9806 101.324 49.9012 101.445 49.8405L101.589 49.7687L101.631 49.7458L101.646 49.7349L101.657 49.7239L101.68 49.6711L101.634 49.5989L101.604 49.5921L101.562 49.603C101.377 49.6635 100.812 49.7657 100.445 49.8642C100.066 49.9702 99.3431 50.3339 99.3431 50.3339L99.3772 50.402L99.4416 50.4435C99.4484 50.4326 99.5475 50.258 99.6498 49.7543C99.6838 49.584 99.6952 49.3947 99.6952 49.2204C99.6952 48.8722 99.6498 48.5768 99.6498 48.5728L99.6347 48.4744L99.5438 48.5161" fill="#0C2950"/>
<path fill-rule="evenodd" clip-rule="evenodd" d="M106.101 62.3157C106.298 62.2817 106.529 62.2515 106.529 62.2515L106.298 61.9181C106.298 61.9181 107.055 62.3157 107.158 62.3499C107.256 62.384 107.354 62.2515 107.354 62.2515C107.354 62.2515 107.487 62.3499 107.65 62.384C107.817 62.4142 107.983 62.1833 108.146 61.9863C108.309 61.7858 108.51 61.5888 108.18 61.5243C107.847 61.4561 107.684 61.3577 107.419 61.2591C107.158 61.1607 107.09 61.0247 107.09 61.0247L107.487 60.96C107.487 60.96 106.465 60.233 106.2 59.8051C105.938 59.3734 105.31 58.6462 104.617 58.1199C103.927 57.5897 103.234 57.0256 102.64 56.8931C102.045 56.7644 101.686 56.662 101.686 56.662C101.686 56.662 101.716 55.3746 101.848 54.8784C101.981 54.3823 102.477 53.1931 102.477 52.8601C102.477 52.5304 102.541 52.0345 102.079 51.5724C101.617 51.1104 101.22 50.9438 100.728 50.9438C100.235 50.9438 99.656 51.2846 99.2961 51.4514C98.9326 51.614 98.7167 51.8338 98.3191 52.0308C97.9253 52.2313 97.7624 52.2883 97.6601 52.3867C97.5617 52.4851 97.611 52.5228 97.611 52.5228L97.7548 52.5647C97.7548 52.5647 98.1714 52.432 98.535 52.3677C98.8986 52.2995 99.209 52.5456 99.6369 52.8108C100.065 53.0759 100.235 53.2915 100.235 53.7878C100.235 54.2838 99.7733 55.2419 99.474 55.7379C99.1788 56.2341 98.6827 56.7302 98.5842 57.2564C98.4857 57.7867 98.3191 58.3169 98.3873 58.8774C98.4516 59.4415 98.8152 60.2671 99.2431 60.7632C99.2431 60.7632 99.6937 61.5092 100.031 61.6949C100.372 61.8802 101.174 61.8197 101.39 61.8197C101.606 61.8197 101.727 62.0658 102.314 62.3726C102.992 62.8309 104.299 63.2019 104.477 62.9937C104.723 62.8991 104.844 62.7134 105.245 62.5923C105.647 62.4673 106.101 62.3157 106.101 62.3157" fill="#FFF200"/>
<path d="M106.101 62.3157L106.112 62.3915C106.309 62.3575 106.54 62.3273 106.54 62.3273L106.661 62.3083L106.362 61.8765L106.298 61.9181L106.264 61.9863C106.268 61.9904 107.013 62.3801 107.131 62.4217L107.188 62.4327C107.335 62.4217 107.407 62.3003 107.415 62.2966L107.354 62.251L107.309 62.3116C107.313 62.3157 107.449 62.4176 107.634 62.4556L107.684 62.4624C107.907 62.4473 108.047 62.2126 108.206 62.0346C108.301 61.9096 108.422 61.8037 108.433 61.656C108.433 61.5422 108.331 61.4704 108.195 61.4478C107.873 61.3833 107.718 61.2884 107.445 61.1863C107.324 61.1409 107.248 61.0879 107.206 61.05L107.165 61.0007L107.158 60.9939L107.09 61.0244L107.105 61.1L107.499 61.0356L107.681 61.0054L107.529 60.8993C107.529 60.8993 107.279 60.7173 106.991 60.4827C106.707 60.2516 106.385 59.9602 106.264 59.7632C105.995 59.3238 105.367 58.593 104.662 58.0591V58.055L104.666 58.0591C103.973 57.5289 103.28 56.961 102.659 56.8207C102.065 56.6883 101.705 56.5897 101.705 56.5897L101.686 56.6617L101.762 56.6659C101.758 56.6659 101.796 55.3746 101.925 54.8973C101.985 54.6551 102.144 54.2346 102.284 53.8331C102.425 53.4279 102.55 53.0569 102.553 52.8601C102.553 52.7919 102.553 52.7084 102.553 52.6213C102.557 52.3072 102.512 51.898 102.133 51.5195C101.667 51.0462 101.239 50.8642 100.728 50.8682C100.202 50.8682 99.6224 51.2201 99.2664 51.3832H99.2622H99.2664C98.8877 51.5535 98.6718 51.773 98.2855 51.9625C97.8955 52.1632 97.7327 52.2125 97.6077 52.3335L97.5244 52.4925L97.5661 52.5836L97.577 52.5904L97.736 52.636L97.7588 52.6442L97.7777 52.636C97.7818 52.636 98.1942 52.5036 98.5503 52.4428L98.6562 52.4319C98.9289 52.4278 99.2129 52.6364 99.5954 52.875C100.016 53.1437 100.152 53.3104 100.156 53.7876C100.16 54.2458 99.7052 55.2114 99.4098 55.7001C99.1221 56.1848 98.6184 56.6808 98.5085 57.245C98.429 57.6843 98.2965 58.1351 98.2965 58.6121C98.2965 58.7029 98.3006 58.7938 98.3117 58.8885V58.8844V58.8885C98.3798 59.4717 98.7471 60.3011 99.1864 60.8122L99.2432 60.7631L99.1789 60.801C99.1857 60.8051 99.622 61.547 99.9968 61.7591C100.228 61.8842 100.603 61.9029 100.917 61.9029C101.125 61.9029 101.307 61.8961 101.39 61.8961C101.538 61.8771 101.686 62.1233 102.28 62.4413L102.314 62.3732L102.273 62.4376C102.833 62.8163 103.78 63.1269 104.253 63.1306C104.371 63.1264 104.465 63.1155 104.534 63.0434L104.477 62.9942L104.503 63.0662C104.776 62.9563 104.886 62.7822 105.268 62.6649C105.67 62.5397 106.124 62.3883 106.124 62.3883L106.101 62.3162L106.112 62.392L106.101 62.3162L106.079 62.2443C106.075 62.2443 105.624 62.396 105.223 62.5208V62.5167C104.802 62.6491 104.67 62.8424 104.45 62.9219L104.431 62.9288L104.416 62.9438C104.416 62.9521 104.356 62.9781 104.253 62.9781C103.837 62.9781 102.882 62.6675 102.356 62.3114L102.352 62.3073L102.348 62.3032C101.772 62.0078 101.674 61.758 101.39 61.7389C101.299 61.7389 101.121 61.7499 100.917 61.7499C100.613 61.7499 100.242 61.7235 100.068 61.6251C99.9205 61.5455 99.7235 61.3183 99.5721 61.1098C99.4206 60.9056 99.3108 60.7236 99.3108 60.7199L99.3067 60.7158L99.3026 60.7117C98.8822 60.2308 98.5225 59.4054 98.4618 58.8676L98.4466 58.6101C98.4466 58.1593 98.5755 57.7202 98.6588 57.2695C98.7459 56.7771 99.2344 56.2812 99.5411 55.7736C99.8403 55.2663 100.306 54.3196 100.31 53.7856C100.314 53.2706 100.113 53.0056 99.6737 52.7441C99.2988 52.5132 99.0072 52.2821 98.655 52.2784L98.5225 52.2894C98.1514 52.3576 97.7348 52.4899 97.731 52.4899L97.7537 52.5621L97.7764 52.4899L97.6326 52.4483L97.6098 52.5202L97.659 52.4597L97.6364 52.4899H97.6742L97.659 52.4597L97.6364 52.4899H97.6742L97.6783 52.4831L97.7161 52.4375C97.7881 52.3581 97.9547 52.2975 98.3562 52.0966H98.3521C98.7611 51.896 98.977 51.6764 99.3253 51.5175C99.6926 51.3468 100.264 51.0174 100.727 51.0174C101.204 51.0215 101.571 51.1688 102.025 51.6233C102.366 51.968 102.4 52.3165 102.4 52.6193L102.396 52.858C102.4 52.9941 102.279 53.3842 102.139 53.7819C101.999 54.1797 101.843 54.5998 101.775 54.8573C101.639 55.3725 101.609 56.6563 101.605 56.66V56.7205L101.661 56.7357C101.661 56.7357 102.025 56.8342 102.623 56.9666C103.188 57.0917 103.881 57.6445 104.57 58.1785C105.255 58.6974 105.876 59.4244 106.134 59.841V59.8451V59.841C106.422 60.2992 107.437 61.0149 107.44 61.0226L107.486 60.958L107.471 60.8823L107.077 60.9505L106.975 60.9657L107.02 61.0566C107.027 61.0718 107.111 61.2231 107.391 61.3292C107.649 61.4238 107.823 61.5262 108.164 61.5944C108.285 61.6246 108.281 61.6474 108.281 61.6549C108.288 61.6851 108.19 61.8177 108.088 61.9351C107.936 62.1283 107.766 62.3213 107.683 62.3062H107.664L107.478 62.2341L107.402 62.1889L107.338 62.1433L107.293 62.2038L107.254 62.2417L107.187 62.276H107.18L107.157 62.3478L107.18 62.276C107.146 62.265 106.922 62.1547 106.725 62.0524C106.525 61.9503 106.335 61.8519 106.335 61.8479L106.237 61.9617L106.468 62.291L106.528 62.2494L106.517 62.1736C106.517 62.1736 106.286 62.2038 106.09 62.238H106.081L106.077 62.2421" fill="#0C2950"/>
<path fill-rule="evenodd" clip-rule="evenodd" d="M99.0847 51.4683C98.6834 51.6579 98.5736 51.7563 98.138 51.9836C97.7026 52.2108 97.4299 52.5062 97.3087 52.6083C97.1649 52.7295 97.1572 52.8395 97.1572 52.8395L97.2974 52.7749C97.2974 52.7749 97.9903 52.616 98.388 52.5402C98.7856 52.4643 99.1113 52.5627 99.5847 52.8621C99.5847 52.8621 99.2097 52.2108 99.1454 51.8738C99.0811 51.5329 99.0847 51.4683 99.0847 51.4683" fill="#630530"/>
<path d="M100.71 57.5453C100.71 57.5494 100.74 58.7231 101.096 59.3783C101.146 59.4693 101.206 59.5601 101.274 59.6547C101.343 59.7494 101.422 59.8403 101.502 59.931C101.922 60.4044 102.479 60.8212 102.816 60.927C102.918 60.9573 103.001 60.9838 103.073 61.0029L102.994 60.9044L103.172 60.7377C103.172 60.7377 103.482 61.0218 103.789 61.0747L103.842 61.0857L103.694 60.8623L103.69 60.8582L103.898 60.7257L103.902 60.7298L103.907 60.7407L103.933 60.7784C104.013 60.8958 104.232 61.1951 104.35 61.1231C104.569 60.9869 104.615 60.8884 104.615 60.8884L104.827 61.0133C104.827 61.0133 104.755 61.161 104.478 61.3313L104.331 61.3769L104.369 61.4337L104.085 61.3805L103.744 61.3199L103.634 61.2896L103.66 61.3199H103.395C103.395 61.3199 103.255 61.3199 102.74 61.161C102.369 61.0435 101.767 60.5967 101.32 60.0968C101.233 59.9984 101.15 59.8961 101.078 59.7977C101.002 59.6956 100.938 59.597 100.881 59.4946V59.4905C100.498 58.7861 100.464 57.5516 100.464 57.5479" fill="#0C2950"/>
<path fill-rule="evenodd" clip-rule="evenodd" d="M100.156 51.5145C100.156 51.5145 100.311 51.3897 100.497 51.3897C100.678 51.3897 100.959 51.5145 100.959 51.5145C100.959 51.5145 100.803 51.6699 100.618 51.7002C100.432 51.7304 100.156 51.5145 100.156 51.5145" fill="#0C2950"/>
<path fill-rule="evenodd" clip-rule="evenodd" d="M100.083 61.6454C100.083 61.6454 100.492 61.9976 100.643 62.278C100.791 62.5619 101.075 63.0125 101.105 63.1263C101.139 63.2437 101.154 63.2966 101.056 63.2966C100.957 63.2925 100.609 63.2623 100.143 63.1944C99.6774 63.1263 98.9995 62.6945 98.867 62.5808C98.7345 62.4633 98.2989 62.2135 97.9506 62.1795C97.6022 62.1453 97.3711 62.1453 97.3711 62.1453C97.3711 62.1453 98.2346 63.077 98.4505 63.2623C98.6664 63.4443 99.2154 63.9291 99.6963 64.1449C100.177 64.3607 100.673 64.8266 101.287 64.9099C101.904 64.9932 101.969 65.0424 102.203 64.7925C102.434 64.5422 102.665 64.1598 102.665 64.1598C102.665 64.1598 102.752 64.2434 102.733 64.66C102.719 65.0763 102.434 65.7581 102.366 65.9434C102.302 66.1255 101.87 67.0911 101.787 67.2918C101.704 67.4888 101.571 67.6251 101.571 67.6251C101.571 67.6251 101.639 67.7385 101.885 67.7385H102.483C102.851 67.7385 102.983 67.6554 102.983 67.6554C102.983 67.6554 102.915 67.3561 103.082 66.8713C103.248 66.3905 104.127 65.2772 104.312 65.1598C104.491 65.0424 104.99 64.6448 104.99 64.5766C104.99 64.5123 104.892 64.2434 104.843 63.9783C104.79 63.7094 104.657 63.0618 104.657 63.0618C104.657 63.0618 104.752 62.9823 104.203 62.952C103.654 62.9181 103.513 62.8309 102.805 62.5315C101.658 61.7438 101.442 61.7364 101.442 61.7364C101.442 61.7364 100.988 61.7627 100.806 61.7474C100.62 61.7321 100.083 61.645 100.083 61.645" fill="#630530"/>
<path fill-rule="evenodd" clip-rule="evenodd" d="M98.6549 63.0729C98.9087 63.872 98.1513 64.8301 96.9546 65.2087C95.7618 65.5912 94.5915 65.2505 94.3379 64.4476C94.0841 63.6447 94.8453 62.6906 96.0381 62.3118C97.231 61.9295 98.4012 62.2702 98.6549 63.0729Z" fill="#FFF30D"/>
<path d="M98.6549 63.0729L98.5829 63.0958C98.6133 63.1942 98.6284 63.2928 98.6284 63.3912C98.6325 64.0614 97.9505 64.815 96.9319 65.1369C96.6099 65.2392 96.2881 65.2883 95.9889 65.2883C95.2012 65.2883 94.5765 64.9588 94.4099 64.425C94.3795 64.3302 94.3645 64.2318 94.3645 64.1295C94.3603 63.4593 95.0423 62.7056 96.0609 62.3839C96.3829 62.2814 96.7047 62.2323 97.0038 62.2323C97.7916 62.2323 98.4164 62.5619 98.5829 63.0958L98.6549 63.0729L98.7269 63.0502C98.5261 62.4254 97.8257 62.0772 97.0038 62.0772C96.6895 62.0772 96.3525 62.1302 96.0118 62.2361C94.9551 62.5768 94.2167 63.3569 94.2129 64.1295C94.2129 64.247 94.2281 64.3605 94.266 64.4704C94.4667 65.0952 95.1634 65.4435 95.9889 65.4435C96.3033 65.4435 96.6403 65.3906 96.9774 65.2845C98.0377 64.9438 98.7761 64.1636 98.7799 63.3912C98.7799 63.2774 98.7647 63.16 98.7269 63.0502" fill="#0C2950"/>
<path d="M98.7248 66.3896C98.7248 66.3896 98.5508 67.8254 98.4297 67.9467C98.3124 68.0678 97.9142 68.2034 97.9142 68.2034L95.7668 67.0633L94.1733 68.5477C94.1733 68.5477 92.4429 67.5299 92.4429 67.4163C92.4429 67.3063 92.2528 68.5416 92.09 68.7081C92.0697 68.7285 92.0247 68.7425 91.9917 68.7595H88.6015C87.4996 68.7595 86.606 69.6557 86.606 70.7615C86.606 71.8634 87.4996 72.7613 88.6015 72.7613V72.7764H106.19C105.224 72.7942 104.993 71.9574 104.145 71.7155C103.902 70.8826 102.686 70.6098 102.121 69.8867C101.875 69.1672 103.012 69.3903 103.576 69.2237C103.773 69.2029 103.962 69.193 104.141 69.1916C106.822 69.1697 107.518 71.2188 109.567 72.1026V72.7122C107.787 72.3259 107.22 71.4399 105.762 70.8835C104.55 71.7695 106.652 71.936 106.652 72.7122C106.48 72.7538 106.327 72.7738 106.19 72.7764H112.876C113.978 72.7764 114.871 71.8802 114.871 70.7744C114.871 69.6724 113.978 68.7745 112.876 68.7745V68.7595H109.714C109.295 68.3792 108.769 67.5146 108.769 67.5146L108.393 67.859C108.393 67.859 107.72 68.1511 107.167 67.9468C106.618 67.7381 106.048 66.8067 106.048 66.8067L103.668 67.5682L103.152 66.6142L102.168 67.4805L101.875 67.012L101.309 67.4805L101.131 66.4687C101.131 66.4687 100.315 67.5911 100.156 67.7543C99.9891 67.9209 98.7249 66.3896 98.7249 66.3896H98.7248ZM95.585 68.9049C96.0721 68.8774 96.5859 68.9463 96.9988 69.0012C98.6344 69.7777 99.7978 70.9414 100.684 72.2138V72.71C99.6618 72.767 99.1164 71.5515 98.2265 72.2672L98.4981 72.5988C97.2029 72.8751 96.6548 71.6041 95.7646 71.108C95.5601 70.4415 94.3294 70.2217 94.3294 69.3883C94.638 69.057 95.0979 68.9324 95.585 68.9049V68.9049ZM89.8549 69.4418C91.1514 69.4949 91.2165 70.7647 92.2504 71.1058C92.417 71.6589 93.9357 72.0445 93.1744 72.6009C91.2394 72.7675 91.5763 70.6083 89.8078 71.4908C89.5542 71.9905 90.228 71.9918 90.565 72.2116V72.4875C89.5539 72.9344 89.3012 71.992 88.6272 71.7689C88.3772 70.8827 88.3767 70.219 89.2175 69.4995C89.4594 69.4512 89.6697 69.4342 89.8549 69.4418V69.4418ZM112.037 69.4995C112.075 69.4907 112.117 69.4929 112.159 69.5017C112.444 69.5633 112.808 69.979 112.912 70.2203V70.7166C112.355 70.9931 112.026 70.3296 111.806 69.8867C111.837 69.6374 111.924 69.5247 112.037 69.4995V69.4995Z" fill="#630530"/>
<path fill-rule="evenodd" clip-rule="evenodd" d="M63.1561 108.488C63.1561 108.488 62.728 105.838 63.1561 104.686C63.5877 103.543 65.0874 101.892 66.4467 101.892C67.8025 101.892 69.518 103.687 69.8057 104.758C70.0897 105.838 69.59 107.341 69.518 108.56C69.4498 109.776 69.59 111.787 69.59 111.787L63.5877 110.28" fill="#06121E"/>
<path d="M63.5026 104.817C63.124 105.831 63.4917 108.228 63.5217 108.418L63.8927 109.975L69.1907 111.304C69.1527 110.622 69.0997 109.395 69.149 108.539C69.1756 108.092 69.2551 107.626 69.3346 107.153C69.4708 106.324 69.6149 105.483 69.4481 104.862V104.854C69.2625 104.158 68.3916 103.12 67.4524 102.582C67.2706 102.48 67.0927 102.401 66.9224 102.344C66.7557 102.291 66.5967 102.264 66.449 102.264H66.4449C65.5966 102.264 64.6537 103.044 64.0402 103.874C63.919 104.036 63.8091 104.203 63.7184 104.362C63.6312 104.521 63.5555 104.673 63.5024 104.817H63.5026ZM62.7906 108.543C62.7906 108.535 62.3474 105.797 62.8096 104.559V104.555C62.8776 104.377 62.9685 104.192 63.0745 103.999C63.1805 103.813 63.3055 103.62 63.4457 103.434C64.1765 102.45 65.3391 101.522 66.4449 101.522H66.449C66.6761 101.522 66.9109 101.567 67.1458 101.639C67.369 101.711 67.5963 101.814 67.816 101.939C68.9104 102.563 69.9367 103.813 70.1639 104.665V104.673C70.3684 105.449 70.213 106.369 70.0616 107.274C69.9859 107.729 69.9102 108.179 69.8874 108.581C69.8192 109.774 69.9594 111.754 69.9594 111.762L69.9972 112.269L69.5012 112.144L63.4953 110.641L63.2794 110.584L63.2263 110.364L62.7983 108.573" fill="#FAB41D"/>
<path fill-rule="evenodd" clip-rule="evenodd" d="M69.6619 107.055C69.6619 107.055 67.2307 106.983 66.3749 107.843C65.5152 108.703 65.0153 109.206 65.1593 109.778C65.3032 110.353 66.8028 110.498 67.4466 110.637C68.0904 110.781 69.59 110.853 69.59 110.853C69.59 110.853 69.518 109.062 69.518 108.274C69.518 107.483 69.6619 107.055 69.6619 107.055" fill="#06121E"/>
<path d="M66.1139 107.58C67.0833 106.607 69.666 106.686 69.6737 106.686L70.1696 106.701L70.0144 107.171C70.0144 107.171 69.8894 107.538 69.8894 108.273C69.8894 109.083 69.9576 110.833 69.9614 110.841L69.9765 111.242L69.5751 111.223C69.571 111.223 68.0414 111.151 67.3674 111C67.2802 110.981 67.1251 110.954 66.9507 110.92C66.1328 110.776 64.9778 110.568 64.7999 109.871V109.867C64.6975 109.462 64.8108 109.098 65.0876 108.705C65.3262 108.372 65.6708 108.019 66.1139 107.58V107.58ZM69.2077 107.429C68.5072 107.448 67.1742 107.565 66.6365 108.106C66.2161 108.523 65.8868 108.856 65.6935 109.133C65.5421 109.345 65.4778 109.522 65.5156 109.689C65.5762 109.92 66.4547 110.079 67.0795 110.193C67.231 110.22 67.3712 110.242 67.5263 110.276C67.9353 110.367 68.7269 110.428 69.2077 110.462C69.185 109.879 69.1472 108.814 69.1472 108.273C69.1472 107.928 69.1774 107.644 69.2077 107.429" fill="#FAB41D"/>
<path fill-rule="evenodd" clip-rule="evenodd" d="M64.2294 116.803C64.2294 116.803 62.8018 114.008 62.6579 111.93C62.5139 109.85 63.0139 107.915 63.0139 107.915C63.0139 107.915 64.7293 109.563 65.873 110.063C67.0166 110.567 71.735 111.21 72.5227 111.498C73.3104 111.786 75.1658 112.861 75.3097 113.937C75.4538 115.012 75.0976 118.239 74.7379 118.81C74.382 119.386 73.8101 119.742 73.8101 119.742L64.3733 117.879" fill="#06121E"/>
<path d="M63.0256 111.904C63.1619 113.908 64.5517 116.626 64.5556 116.634L64.5971 116.755L64.7033 117.566L73.7273 119.349C73.8938 119.225 74.2044 118.967 74.424 118.615C74.6512 118.251 74.886 116.551 74.9541 115.225C74.9693 114.96 74.9769 114.718 74.9732 114.506C74.9732 114.302 74.9622 114.124 74.9466 113.987V113.983C74.8596 113.355 73.9583 112.669 73.1934 112.23C73.0457 112.147 72.8941 112.071 72.7503 111.999C72.6139 111.935 72.4928 111.882 72.3981 111.848C72.099 111.738 71.122 111.56 70.0048 111.359C68.3727 111.068 66.449 110.719 65.7331 110.409L65.7262 110.405C64.916 110.049 63.8518 109.163 63.2421 108.625C63.1096 109.341 62.9353 110.594 63.0262 111.904H63.0256ZM63.8744 116.915C63.6662 116.494 62.4241 113.93 62.2879 111.953C62.1402 109.814 62.6551 107.829 62.6551 107.826L62.8105 107.205L63.2724 107.648C63.2765 107.652 64.931 109.246 66.0141 109.723H66.0182L66.0223 109.727C66.6586 110.003 68.5407 110.344 70.1387 110.632C71.2899 110.84 72.2971 111.022 72.6495 111.151H72.6536C72.7785 111.2 72.9225 111.257 73.0702 111.329C73.2179 111.401 73.3806 111.488 73.5586 111.59C74.475 112.109 75.5543 112.972 75.6793 113.889V113.892C75.6983 114.055 75.7097 114.264 75.7134 114.502C75.7134 114.737 75.7092 114.995 75.6944 115.263C75.6224 116.68 75.3384 118.547 75.0545 119.008C74.6493 119.652 74.0092 120.057 74.0055 120.057L73.8806 120.133L73.7404 120.107L64.3035 118.243L64.0422 118.19L64.0082 117.925" fill="#FAB41D"/>
<path fill-rule="evenodd" clip-rule="evenodd" d="M138.035 108.676C138.035 108.676 138.467 106.021 138.035 104.874C137.608 103.726 136.108 102.079 134.749 102.079C133.393 102.079 131.673 103.874 131.389 104.946C131.102 106.021 131.602 107.528 131.673 108.748C131.745 109.963 131.602 111.97 131.602 111.97L137.608 110.467" fill="#06121E"/>
<path d="M138.382 104.745C138.844 105.984 138.401 108.725 138.401 108.733L138.397 108.76L137.973 110.524C137.95 110.664 137.848 110.789 137.697 110.827L131.69 112.331L131.577 112.342C131.372 112.327 131.217 112.149 131.232 111.948C131.232 111.94 131.376 109.96 131.304 108.767C131.281 108.366 131.206 107.915 131.13 107.461C130.979 106.559 130.827 105.643 131.028 104.867L131.032 104.851C131.259 103.999 132.282 102.75 133.38 102.125C133.596 102 133.823 101.898 134.05 101.826C134.281 101.75 134.516 101.708 134.747 101.708C135.856 101.708 137.015 102.636 137.746 103.621C137.886 103.806 138.011 103.999 138.117 104.185C138.223 104.378 138.314 104.567 138.382 104.742V104.745ZM137.674 108.604C137.708 108.392 138.068 106.014 137.693 105.003H137.689C137.636 104.863 137.564 104.708 137.473 104.552C137.382 104.389 137.276 104.223 137.151 104.06C136.538 103.231 135.599 102.451 134.747 102.451V102.447C134.595 102.447 134.436 102.481 134.269 102.53C134.099 102.587 133.921 102.667 133.743 102.769C132.8 103.307 131.929 104.348 131.743 105.041L131.739 105.056C131.58 105.677 131.72 106.518 131.86 107.34C131.936 107.813 132.016 108.279 132.042 108.725C132.092 109.581 132.038 110.808 132 111.49L137.302 110.161" fill="#FAB41D"/>
<path fill-rule="evenodd" clip-rule="evenodd" d="M131.532 107.24C131.532 107.24 133.963 107.168 134.819 108.028C135.679 108.887 136.179 109.391 136.034 109.966C135.894 110.538 134.391 110.682 133.747 110.826C133.103 110.97 131.604 111.038 131.604 111.038C131.604 111.038 131.676 109.247 131.676 108.459C131.676 107.672 131.532 107.24 131.532 107.24" fill="#06121E"/>
<path d="M134.558 108.29C134.016 107.749 132.687 107.635 131.987 107.612C132.017 107.832 132.043 108.116 132.043 108.457C132.043 108.998 132.009 110.063 131.987 110.646C132.468 110.615 133.263 110.555 133.668 110.464C133.823 110.43 133.963 110.403 134.115 110.377C134.74 110.267 135.618 110.108 135.679 109.877V109.873C135.717 109.71 135.652 109.532 135.501 109.317C135.304 109.036 134.975 108.707 134.562 108.29H134.558H134.558ZM131.521 106.87C131.528 106.87 134.107 106.794 135.081 107.764C135.524 108.211 135.872 108.563 136.107 108.892C136.383 109.286 136.497 109.65 136.395 110.055V110.059C136.217 110.755 135.062 110.964 134.244 111.108C134.069 111.138 133.914 111.168 133.827 111.187C133.149 111.335 131.627 111.411 131.619 111.411C131.418 111.418 131.244 111.263 131.233 111.059V111.013C131.241 110.869 131.305 109.233 131.305 108.457C131.305 107.726 131.184 107.359 131.18 107.355C131.116 107.162 131.221 106.954 131.415 106.889" fill="#FAB41D"/>
<path fill-rule="evenodd" clip-rule="evenodd" d="M136.963 116.99C136.963 116.99 138.395 114.195 138.539 112.116C138.679 110.037 138.179 108.102 138.179 108.102C138.179 108.102 136.464 109.749 135.32 110.253C134.177 110.753 129.458 111.396 128.67 111.685C127.886 111.972 126.027 113.048 125.883 114.123C125.743 115.199 126.099 118.425 126.455 118.997C126.815 119.572 127.387 119.928 127.387 119.928L136.82 118.065" fill="#06121E"/>
<path d="M138.907 112.14C138.77 114.117 137.528 116.684 137.324 117.101L137.191 118.085C137.183 118.252 137.062 118.396 136.892 118.43L127.455 120.293C127.368 120.308 127.273 120.293 127.19 120.244C127.186 120.24 126.542 119.839 126.141 119.195C125.853 118.733 125.577 116.866 125.501 115.45C125.49 115.181 125.482 114.924 125.482 114.689C125.486 114.454 125.497 114.242 125.516 114.079V114.075C125.641 113.159 126.72 112.295 127.633 111.773C127.811 111.671 127.977 111.587 128.125 111.515C128.273 111.443 128.417 111.383 128.542 111.337H128.546C128.898 111.208 129.902 111.027 131.057 110.818C132.64 110.534 134.51 110.197 135.158 109.921L135.177 109.909H135.181C136.207 109.455 137.756 107.997 137.911 107.846L138.089 107.739C138.286 107.69 138.49 107.812 138.54 108.012C138.544 108.016 139.051 110 138.907 112.14H138.907ZM136.643 116.806C136.752 116.593 138.036 114.015 138.169 112.091C138.26 110.781 138.085 109.527 137.953 108.811C137.343 109.349 136.279 110.235 135.469 110.591H135.465L135.46 110.595L135.45 110.599C134.722 110.909 132.81 111.254 131.185 111.549C130.072 111.75 129.095 111.924 128.796 112.034C128.701 112.068 128.58 112.121 128.444 112.185C128.3 112.254 128.148 112.333 127.997 112.42C127.232 112.856 126.334 113.537 126.251 114.17L126.247 114.174C126.231 114.31 126.22 114.488 126.22 114.692C126.216 114.905 126.224 115.147 126.239 115.412C126.307 116.737 126.542 118.437 126.769 118.801C126.989 119.153 127.3 119.414 127.466 119.536L136.49 117.752L136.6 116.942" fill="#FAB41D"/>
<path fill-rule="evenodd" clip-rule="evenodd" d="M63.9899 116.249C63.9899 116.249 74.4265 116.954 81.1106 122.483C87.7942 128.008 95.8413 133.559 101.279 133.415C105.733 133.298 113.473 128.95 117.574 125.538C121.68 122.13 126.254 118.601 129.889 117.662C133.525 116.719 136.687 117.075 136.687 117.075C136.691 117.075 137.747 118.601 137.395 120.835C137.043 123.07 136.221 125.069 135.517 125.773C134.812 126.482 131.764 126.126 129.185 127.655C126.606 129.185 121.448 132.946 118.514 135.65C115.582 138.353 110.137 141.871 100.95 141.936C90.96 142 82.1028 135.066 79.2324 132.711C75.3657 129.537 70.7912 127.069 68.5645 126.247C66.334 125.421 65.3987 125.656 64.6944 124.6C63.99 123.539 63.0509 119.305 63.5204 117.779" fill="#06121E"/>
<path d="M80.8754 122.768C74.93 117.849 65.9703 116.803 64.2548 116.644L63.8722 117.887C63.558 118.917 63.9441 121.325 64.4365 122.983C64.535 123.309 64.6335 123.601 64.7319 123.843C64.8227 124.074 64.9137 124.26 64.9969 124.385L65.0038 124.396C65.3787 124.96 65.8862 125.089 66.742 125.309C67.257 125.441 67.8894 125.6 68.6884 125.896C70.3132 126.494 73.1647 127.956 76.0881 129.925C76.66 130.308 77.2318 130.709 77.7884 131.122C78.364 131.546 78.9246 131.981 79.4661 132.42V132.424C80.8937 133.594 83.8057 135.901 87.5926 137.904C91.372 139.9 96.0224 141.596 100.945 141.562C105.486 141.532 109.095 140.649 111.935 139.442C114.764 138.237 116.824 136.707 118.263 135.378C120.387 133.42 123.667 130.913 126.306 129.088C126.817 128.736 127.309 128.403 127.76 128.111C128.222 127.808 128.639 127.55 128.999 127.335C130.555 126.415 132.244 126.153 133.539 125.952C134.368 125.828 135.02 125.725 135.243 125.525L135.255 125.513V125.51L135.259 125.513V125.51C135.721 125.048 136.251 123.93 136.645 122.537C136.721 122.268 136.793 121.98 136.857 121.681C136.925 121.37 136.982 121.071 137.028 120.784V120.78C137.297 119.079 136.702 117.834 136.475 117.425C135.763 117.368 133.048 117.224 129.98 118.019C128.212 118.477 126.197 119.575 124.114 120.98C122.017 122.401 119.858 124.127 117.813 125.824C114.837 128.297 109.963 131.262 105.786 132.776C104.964 133.076 104.173 133.318 103.423 133.489C102.669 133.663 101.957 133.769 101.302 133.788H101.287C98.4924 133.86 95.0577 132.489 91.4753 130.395C87.9307 128.323 84.2311 125.544 80.8758 122.768H80.8754ZM64.0166 115.879C64.047 115.883 74.5668 116.595 81.3454 122.196C84.6741 124.949 88.3397 127.706 91.8464 129.755C95.319 131.784 98.6287 133.117 101.268 133.049L101.283 133.045C101.881 133.03 102.548 132.932 103.26 132.769C103.98 132.602 104.745 132.368 105.536 132.08C109.633 130.595 114.416 127.683 117.344 125.252C119.4 123.54 121.581 121.802 123.702 120.367C125.845 118.92 127.932 117.784 129.799 117.303C133.498 116.345 136.721 116.705 136.729 116.705C136.842 116.716 136.94 116.78 137.001 116.872C137.073 116.981 138.122 118.594 137.758 120.893C137.706 121.23 137.645 121.544 137.58 121.84C137.516 122.139 137.441 122.438 137.357 122.737C136.929 124.245 136.327 125.487 135.782 126.036H135.778L135.751 126.059C135.365 126.422 134.612 126.54 133.65 126.687C132.419 126.877 130.805 127.126 129.374 127.975C129.01 128.19 128.602 128.444 128.166 128.732C127.719 129.02 127.235 129.346 126.727 129.698C124.114 131.504 120.865 133.988 118.767 135.924C117.275 137.298 115.147 138.881 112.223 140.123C109.307 141.365 105.604 142.27 100.95 142.304C95.883 142.338 91.1153 140.6 87.2489 138.559C83.3938 136.522 80.4439 134.181 79.0011 133L78.9969 132.996C78.4554 132.549 77.9025 132.125 77.3535 131.72C76.7931 131.304 76.2325 130.91 75.6759 130.538C72.8054 128.607 70.0183 127.176 68.4353 126.592C67.6779 126.312 67.0607 126.157 66.5609 126.028C65.527 125.763 64.9211 125.612 64.3871 124.801L64.383 124.797C64.2695 124.627 64.1559 124.396 64.0461 124.12C63.9362 123.851 63.8303 123.536 63.7279 123.196C63.2054 121.435 62.8078 118.841 63.1675 117.671L63.6371 116.141C63.6901 115.974 63.8491 115.868 64.0157 115.879" fill="#FAB41D"/>
<path d="M70.1682 121.888L70.7438 122.119C70.9749 122.21 71.1452 122.203 71.2362 121.972C71.3081 121.79 71.1831 121.669 70.9597 121.578L70.3802 121.351L70.1682 121.888ZM69.6419 123.218L70.2857 123.471C70.5129 123.562 70.7362 123.577 70.8461 123.305C70.9293 123.093 70.8502 122.93 70.5923 122.828L69.9031 122.555L69.6419 123.218ZM69.6229 120.063L71.5694 120.839C72.5048 121.21 72.4934 121.816 72.3494 122.184C72.2094 122.544 71.9556 122.668 71.6376 122.706C71.9101 122.945 72.1071 123.32 71.9026 123.842C71.6185 124.558 70.8536 124.683 70.2252 124.433L68.2104 123.63" fill="#97D9F6"/>
<path d="M75.3865 125.106C74.9359 126.072 74.2012 126.292 73.1409 125.795C72.0842 125.303 71.7738 124.595 72.2244 123.633L73.2204 121.498L74.2883 121.997L73.4059 123.891C73.2393 124.247 73.031 124.69 73.5498 124.932C74.0572 125.167 74.2655 124.724 74.4284 124.368L75.3145 122.475L76.3824 122.971" fill="#97D9F6"/>
<path d="M77.0959 125.281L77.6299 125.588C77.8193 125.698 78.0995 125.815 78.2699 125.52C78.391 125.308 78.3456 125.122 77.9556 124.895L77.4784 124.622L77.0959 125.281ZM76.9143 123.24L78.8568 124.361C79.4363 124.698 79.7506 125.308 79.3909 125.937C79.1902 126.281 78.8228 126.554 78.4137 126.482C78.6296 126.751 78.6221 127.156 78.422 127.591C78.3424 127.762 78.119 128.159 78.1227 128.367L77.1041 127.781C77.1496 127.584 77.2291 127.398 77.3162 127.22C77.4714 126.887 77.6305 126.539 77.2291 126.308L76.6876 125.993L76.0173 127.152L74.9985 126.565" fill="#97D9F6"/>
<path d="M80.6139 125.42L81.5493 126.182L81.1177 128.48L81.1287 128.488L82.4239 126.894L83.2873 127.594L80.8675 130.574L79.9776 129.851L80.3903 127.484L80.3793 127.477L79.0577 129.105L78.1943 128.401" fill="#97D9F6"/>
<path d="M83.5852 127.869L84.5169 128.589L82.771 130.85L84.1116 131.884L83.5095 132.664L81.2373 130.903" fill="#97D9F6"/>
<path d="M85.9738 129.721L88.5944 131.494L88.0453 132.308L86.398 131.195L86.1329 131.592L87.6249 132.603L87.1136 133.361L85.6179 132.35L85.3528 132.747L87.0455 133.891L86.4964 134.709L83.8267 132.899" fill="#97D9F6"/>
<path d="M88.3719 134.157V131.385L89.5083 132.018L89.383 133.563L90.6481 132.647L91.7766 133.275L89.402 134.729L88.7166 135.964L87.6865 135.392" fill="#97D9F6"/>
<path d="M92.864 133.727L95.6512 134.719L95.3177 135.647L93.6441 135.049L93.4849 135.499L94.9239 136.014L94.6134 136.874L93.1743 136.363L92.6859 137.737L91.5728 137.343" fill="#97D9F6"/>
<path d="M96.8147 138.002C97.1101 138.063 97.6023 137.957 97.7651 137.116C97.9318 136.275 97.5153 135.991 97.2236 135.934C96.9283 135.878 96.4359 135.984 96.2731 136.821C96.1065 137.661 96.5193 137.941 96.8147 138.002ZM97.4092 134.995C98.549 135.222 99.1474 136.196 98.924 137.343C98.6967 138.494 97.7728 139.165 96.6291 138.941C95.4892 138.718 94.8871 137.741 95.1144 136.593C95.3416 135.442 96.2655 134.768 97.4092 134.995" fill="#97D9F6"/>
<path d="M101.042 138.455C101.341 138.462 101.807 138.269 101.822 137.417C101.837 136.561 101.383 136.353 101.08 136.349C100.781 136.341 100.318 136.531 100.3 137.387C100.284 138.242 100.743 138.451 101.042 138.455ZM101.099 135.391C102.265 135.414 103.026 136.266 103.004 137.44C102.981 138.61 102.189 139.435 101.023 139.413C99.8603 139.39 99.0994 138.538 99.1221 137.364C99.1447 136.194 99.9363 135.368 101.099 135.391Z" fill="#97D9F6"/>
<path d="M104.061 136.309L103.005 136.483L102.842 135.514L106.121 134.972L106.284 135.941L105.224 136.116L105.697 138.929L104.531 139.122" fill="#97D9F6"/>
<path d="M108.332 137.285L108.984 137.051C109.215 136.971 109.393 136.831 109.294 136.554C109.218 136.343 109.048 136.271 108.787 136.365L108.09 136.612L108.332 137.285ZM107.852 135.941L108.435 135.733C108.67 135.646 108.791 135.528 108.707 135.297C108.639 135.115 108.465 135.104 108.242 135.184L107.655 135.396L107.852 135.941ZM106.238 134.934L108.207 134.226C109.154 133.885 109.552 134.351 109.681 134.718C109.813 135.082 109.707 135.343 109.491 135.585C109.855 135.581 110.249 135.733 110.441 136.263C110.699 136.986 110.211 137.585 109.574 137.812L107.533 138.543" fill="#97D9F6"/>
<path d="M112.263 135.057L111.407 134.171L111.401 134.175L111.624 135.394L112.264 135.057H112.263ZM110.294 133.308L111.313 132.77L114.331 135.516L113.252 136.084L112.854 135.675L111.779 136.243L111.885 136.807L110.835 137.36" fill="#97D9F6"/>
<path d="M112.396 132.161L113.381 131.509L114.956 133.891L116.368 132.952L116.91 133.774L114.517 135.36" fill="#97D9F6"/>
<path d="M114.905 130.483L115.848 129.775L117.56 132.055L118.912 131.04L119.503 131.828L117.208 133.551" fill="#97D9F6"/>
<path d="M121.296 127.331C121.19 127.236 120.845 126.971 120.462 127.274C120.031 127.618 120.224 128.149 120.546 128.55C120.867 128.955 121.341 129.266 121.773 128.921C122.083 128.675 122.03 128.361 121.86 128.035L122.768 127.312C123.25 127.917 123.268 128.951 122.394 129.648C121.424 130.421 120.33 130.171 119.622 129.285C118.872 128.338 118.967 127.24 119.891 126.505C120.716 125.854 121.515 125.929 122.193 126.615" fill="#97D9F6"/>
<path d="M121.542 125.294L122.478 124.578L124.208 126.847L125.557 125.82L126.151 126.604L123.868 128.346" fill="#97D9F6"/>
<path d="M128.462 123.429C129.007 124.342 128.776 125.077 127.773 125.675C126.769 126.273 126.012 126.129 125.466 125.217L124.262 123.195L125.273 122.592L126.345 124.387C126.545 124.725 126.796 125.145 127.288 124.849C127.765 124.565 127.515 124.145 127.314 123.808L126.243 122.013L127.258 121.407" fill="#97D9F6"/>
<path d="M130.181 123.391L130.832 123.156C131.063 123.072 131.241 122.936 131.139 122.656C131.063 122.444 130.896 122.372 130.635 122.467L129.938 122.717L130.181 123.391ZM129.696 122.046L130.283 121.834C130.514 121.751 130.639 121.633 130.556 121.403C130.487 121.217 130.313 121.209 130.086 121.289L129.503 121.501L129.696 122.046ZM128.083 121.039L130.056 120.331C131.002 119.986 131.397 120.452 131.529 120.82C131.662 121.187 131.555 121.444 131.34 121.687C131.703 121.683 132.097 121.834 132.29 122.364C132.548 123.088 132.059 123.686 131.423 123.913L129.378 124.648" fill="#97D9F6"/>
<path fill-rule="evenodd" clip-rule="evenodd" d="M77.5856 86.9496V107.217C77.5856 107.217 79.2518 114.817 80.5923 116.166C81.9404 117.514 87.5828 124.035 89.7339 125.004C91.8848 125.974 100.947 129.935 100.947 129.935L112.849 124.357L119.192 118.536L122.737 113.254L123.706 109.372L123.816 101.719L124.028 86.3022L77.5742 86.2606" fill="#FFF30D"/>
<path d="M77.7124 87.3862H123.787V73.5263H77.7124V87.3862Z" fill="#06121E"/>
<path fill-rule="evenodd" clip-rule="evenodd" d="M78.0464 109.051H80.1557V106.117H82.4391V103.356H85.6581V100.13H88.8201V97.2517H92.0389V94.26H95.7841V91.0867H99.2983L100.949 88.5306L102.9 91.0867H106.168L106.206 94.434H109.368V97.0167H112.352V100.012H115.105V103.356H118.15V106.234H121.368V109.699H123.243C123.243 109.699 123.065 111.343 122.656 112.339C122.247 113.338 121.486 113.865 121.486 113.865H118.676V110.226H114.753V106.938H111.651V103.886H108.489V100.773H105.444V97.604H102.578V94.4947H101.817H99.0067V97.4865H95.7841V100.717H92.4479V103.826H89.2859V107.056H85.8928V110.286H82.905V113.456H80.095C80.095 113.456 78.9249 111.987 78.5727 110.991C78.2206 109.991 78.0464 109.051 78.0464 109.051" fill="#630530"/>
<path fill-rule="evenodd" clip-rule="evenodd" d="M104.913 103.109C104.553 104.105 105.852 104.578 105.31 105.483C105.11 105.847 104.932 106.264 104.913 106.661C104.659 107.006 104.712 107.494 104.75 107.968L104.784 108.184C104.587 108.312 104.299 107.93 104.189 108.331C104.299 108.566 104.261 108.873 104.386 109.108L103.936 109.202C103.936 109.528 104.099 109.763 103.902 110.05C103.284 110.05 103.322 109.399 102.925 109.108C102.69 109.13 102.599 109.456 102.398 109.528C102.288 109.672 102.091 109.782 101.894 109.8C101.838 109.49 102.001 109.108 101.622 108.983C101.311 109.108 101.061 109.365 100.717 109.399C100.683 109.49 100.592 109.471 100.52 109.471C100.448 109.146 100.808 108.892 100.717 108.547C100.607 108.456 100.539 108.347 100.391 108.384C100.247 108.456 100.069 108.532 99.9404 108.513C99.8685 108.695 99.7056 108.585 99.577 108.619C99.5429 108.093 100.012 107.771 100.319 107.369C100.827 107.154 101.311 106.934 101.91 106.881C102.273 106.752 102.671 106.552 102.724 106.135C102.743 106.029 102.705 105.919 102.633 105.847C102.436 105.9 102.364 106.101 102.307 106.264C102.091 106.479 101.804 106.699 101.531 106.552C101.406 106.498 101.258 106.426 101.133 106.374V106.336C101.349 106.298 101.66 106.283 101.785 106.01C101.947 105.684 101.747 105.446 101.728 105.12C101.728 104.995 101.713 104.885 101.584 104.794C101.08 104.775 100.717 105.139 100.228 104.866C100.103 104.669 100.194 104.469 100.156 104.215C100.463 104.071 100.736 103.817 101.099 103.817C101.44 103.908 101.675 104.397 102.058 104.215C102.307 104.071 102.508 103.87 102.834 103.817C102.815 103.617 102.561 103.507 102.436 103.435C102.129 103.507 101.894 103.673 101.584 103.564C101.584 103.363 101.804 103.31 101.91 103.2C102.326 103.253 102.633 103.363 103.05 103.272C103.303 103.215 103.557 103.181 103.845 103.128C103.974 103.037 104.17 103.071 104.299 102.962C104.515 102.962 104.731 102.98 104.913 103.109Z" fill="#06121E"/>
<path fill-rule="evenodd" clip-rule="evenodd" d="M96.1299 103.446C95.9827 103.477 95.8414 103.542 95.7107 103.651C95.5289 104.068 96.1231 103.924 96.2518 104.25L96.162 104.34C95.8362 104.196 95.5637 104.321 95.238 104.378C94.7155 104.814 95.7259 104.813 95.7107 105.283C95.3662 105.264 94.9497 104.924 94.59 105.12C94.59 105.92 95.6364 106.192 96.053 106.752C96.0719 107.226 96.0899 107.715 95.7984 108.059C95.7112 108.184 95.5639 108.347 95.4391 108.419V108.513C95.5829 108.638 95.7988 108.694 95.9995 108.709C96.416 109.035 95.7977 109.327 95.7257 109.653C95.9984 109.816 96.4686 109.726 96.5406 110.128C96.4497 110.487 96.0145 110.38 95.9995 110.778C96.666 111.032 97.4072 111.376 98.1683 111.103C98.2592 111.156 98.4908 111.084 98.4036 111.285C97.8243 111.739 97.1723 112.229 96.6497 112.698C96.396 112.88 96.1627 113.223 95.8369 113.28C95.3106 113.621 94.6439 113.243 94.1365 112.989C93.9926 112.917 93.7563 113.028 93.6125 112.9C93.5216 113.028 93.3021 112.899 93.2339 113.062C92.8703 113.043 92.7261 113.426 92.4725 113.608C92.4725 113.77 92.3644 113.951 92.4553 114.061C92.8719 114.224 92.8707 113.732 93.1056 113.569C93.1963 113.535 93.3413 113.517 93.3943 113.642C93.3602 114.024 92.904 114.296 93.0328 114.656C93.2676 114.674 93.5224 114.493 93.6852 114.331C93.7913 114.259 93.9738 114.296 93.9397 114.459C93.7389 114.675 93.7376 114.875 93.6467 115.148C94.0634 115.329 94.3527 115.109 94.7503 114.947C95.0608 114.928 95.2038 115.201 95.3856 115.344C95.7985 115.564 95.6731 114.947 95.9268 114.784C96.3774 114.674 96.4147 115.401 96.8464 115.364C97.0812 115.292 96.9391 115.005 96.9769 114.822C96.9769 114.421 97.2639 114.785 97.4646 114.713C98.1121 115.255 97.9681 114.133 98.4036 114.042C98.6725 114.061 98.9648 113.823 99.2185 113.77C99.5443 113.497 99.5238 112.99 99.6676 112.664C99.7776 112.645 99.831 112.774 99.9029 112.827C99.8651 113.243 99.7404 113.642 99.5436 114.005C99.3428 114.024 99.2333 114.225 99.0175 114.206C98.9645 114.259 98.8206 114.33 98.8206 114.459C98.9834 114.921 99.2782 115.25 99.6227 115.545C99.8822 115.771 100.167 115.98 100.442 116.213C100.418 116.08 100.368 115.883 100.521 115.8C100.68 115.91 100.862 116.072 100.934 116.253C101.01 116.469 101.186 116.633 101.206 116.872C101.694 117.724 100.846 118.466 100.88 119.28C100.88 120.37 102.092 120.82 102.724 121.4C103.754 122.18 103.394 123.616 103.284 124.775L102.671 125.32C101.891 125.536 101.459 124.828 100.607 124.991C100.319 125.192 99.9383 125.243 99.8323 125.626L99.9563 125.789C100.301 125.826 100.589 125.717 100.915 125.626C101.062 125.808 101.369 125.665 101.46 125.919C101.009 125.953 100.482 125.918 100.228 126.407C100.122 126.588 100.247 126.733 100.429 126.79C100.736 126.986 100.971 126.606 101.244 126.496C101.388 126.531 101.605 126.426 101.695 126.608C101.495 126.861 101.024 126.952 101.096 127.384L101.819 127.44C101.982 127.292 102.289 127.368 102.399 127.149C102.653 127.13 102.725 126.842 102.959 126.77C103.16 126.789 103.376 126.699 103.573 126.824C103.774 126.862 104.009 126.823 103.937 126.569C103.812 126.369 103.902 126.081 103.864 125.846C104.042 125.339 104.369 125.881 104.713 125.718C104.66 125.229 104.445 124.865 104.516 124.338C104.732 124.066 104.932 124.358 105.201 124.21C105.057 123.759 104.823 123.306 104.914 122.779C105.202 122.382 105.363 122.98 105.689 122.779C105.814 122.401 105.599 122.002 105.633 121.566C105.565 121.4 105.383 121.348 105.239 121.348C105.005 121.242 104.64 121.223 104.587 120.897C104.549 120.424 104.621 119.969 104.784 119.59C104.913 118.939 105.8 119.354 106.144 118.957C106.686 118.68 106.974 118.174 107.117 117.633C107.413 116.91 107.204 116.189 106.912 115.545H104.936L105.162 115.603C105.579 115.8 106.159 115.455 106.504 115.928C106.772 116.436 106.953 117.25 106.613 117.757C106.431 118.03 106.145 118.194 105.853 118.247C105.672 118.428 105.239 118.284 105.004 118.375C104.497 118.049 104.405 117.341 104.007 116.906C103.644 116.481 103.235 116.038 102.97 115.545C102.762 115.155 102.641 114.731 102.705 114.258C102.504 113.822 102.781 113.386 102.705 112.951C102.743 112.519 103.049 112.099 102.887 111.648C102.705 111.629 102.615 111.43 102.399 111.449C102.27 111.65 102.288 111.974 102.144 112.209C101.637 112.156 101.403 111.559 101.096 111.268C100.771 111.051 100.555 111.63 100.32 111.755C100.263 111.793 100.103 111.831 100.066 111.721C99.9216 111.448 99.7939 111.158 99.7939 110.87C99.7939 110.722 99.6344 110.687 99.5436 110.635C99.3087 110.778 99.0355 110.797 98.7629 110.831C98.4373 110.778 98.6911 110.453 98.5662 110.29L98.4913 110.344C98.2034 110.306 97.9152 110.306 97.6614 110.344L97.4646 110.217C97.3358 110.051 97.5183 109.85 97.5524 109.653C97.6244 109.164 98.2229 108.767 97.9502 108.256C97.5185 107.461 97.1002 106.428 97.5887 105.523C97.5508 105.231 97.8046 104.848 97.623 104.579C97.7516 104.322 97.517 104.053 97.4262 103.852C97.0598 103.568 96.5715 103.352 96.13 103.446H96.1299ZM100.442 116.213C100.445 116.225 100.446 116.243 100.449 116.253V116.217C100.446 116.215 100.445 116.215 100.442 116.213V116.213Z" fill="#06121E"/>
<path fill-rule="evenodd" clip-rule="evenodd" d="M104.937 115.546C104.645 115.459 104.376 115.311 104.187 115.019C104.369 115.004 104.498 115.038 104.676 115.11C104.842 114.985 105.039 115.254 105.236 115.11C105.327 115.076 105.437 115.076 105.49 114.985C105.039 114.459 104.1 114.277 104.009 113.44C104.335 113.77 104.804 113.895 105.274 113.842C105.384 113.717 105.217 113.622 105.202 113.516C104.914 113.315 104.713 112.952 104.516 112.698C104.422 112.501 104.35 112.247 104.35 112.047C104.532 112.194 104.766 112.41 105.001 112.338C105.202 111.937 105.058 111.52 105.236 111.123C105.058 110.562 105.6 110.146 105.562 109.562C105.944 109.017 106.032 108.366 106.467 107.858C106.974 107.298 107.569 106.824 108.292 106.878C108.402 106.953 108.512 106.772 108.618 106.862C109.235 107.116 109.288 107.733 109.394 108.256C109.504 108.585 109.47 108.892 109.432 109.237C109.307 110.29 108.818 111.176 108.493 112.138C108.364 112.41 108.311 112.683 108.205 112.952C107.932 112.861 108.042 112.429 107.97 112.1C107.86 111.937 107.625 112.009 107.478 112.047C107.41 111.304 107.932 110.797 108.292 110.218C108.33 110.161 108.258 110.036 108.167 110.017C107.86 110.036 107.716 110.089 107.478 110.29L107.391 110.218C107.645 109.528 108.402 109.328 108.746 108.748C108.781 108.513 108.947 108.203 108.781 107.968C108.728 107.605 108.33 107.514 108.076 107.37C106.974 107.567 106.251 108.638 105.925 109.634C105.835 110.18 105.547 110.634 105.562 111.232C105.437 111.922 105.634 112.755 105.762 113.406C106.069 113.986 106.304 114.584 106.702 115.11C106.774 115.251 106.845 115.394 106.914 115.546" fill="#06121E"/>
<path fill-rule="evenodd" clip-rule="evenodd" d="M99.0906 108.348C99.0717 108.602 98.8369 108.802 98.9278 109.037C99.1626 109.435 99.4503 108.965 99.776 109.075C99.8517 108.984 100.049 108.965 100.102 109.037C99.9769 109.272 99.7949 109.507 99.7949 109.764C100.303 110.033 100.772 109.817 101.295 109.655C101.405 109.851 101.06 110.181 101.457 110.306C101.927 110.234 102.363 110.105 102.722 109.798C103.067 109.689 103.249 110.215 103.54 110.306C103.54 110.397 103.68 110.507 103.54 110.579C103.359 110.544 103.033 110.488 102.995 110.779C103.052 110.885 103.014 111.052 103.033 111.196C102.741 111.124 102.525 110.794 102.181 110.794C101.874 110.995 102.056 111.537 101.696 111.556C101.332 111.321 101.496 110.741 101.007 110.707C100.734 110.851 100.518 111.177 100.23 111.268C100.03 110.942 100.23 110.469 99.9389 110.181C99.6513 110.181 99.4503 110.469 99.1438 110.306C99.0527 110.033 99.3785 109.689 98.9809 109.564C98.6553 109.673 98.3673 109.851 98.0037 109.889L97.9507 109.726C98.1854 109.166 98.4013 108.677 98.9659 108.329" fill="#06121E"/>
<path fill-rule="evenodd" clip-rule="evenodd" d="M99.2897 116.742C99.5624 116.871 99.9221 116.833 100.263 116.833C100.589 117.178 100.104 117.958 100.88 117.886C100.626 118.427 100.52 119.064 100.392 119.605C99.744 119.696 98.9829 118.992 98.4944 119.715C98.4376 119.954 98.5664 120.06 98.6042 120.26C98.8541 120.605 98.9109 121.075 98.9829 121.51C99.0018 121.586 98.9829 121.73 98.8541 121.673C98.5853 121.567 98.3505 121.313 98.0438 121.438C97.8242 121.855 98.3316 122.29 98.1157 122.745C98.0248 122.942 97.8431 122.779 97.7522 122.706C97.6992 122.582 97.5174 122.616 97.3924 122.544C97.0479 122.706 97.2638 123.089 97.1729 123.343C96.9229 123.487 96.6843 123.108 96.4873 123.343C96.1427 123.884 95.4915 124.051 94.897 123.96C94.8059 123.688 95.0786 123.358 95.3097 123.18L95.3474 123.07C95.2944 122.998 95.2226 122.96 95.1127 122.979C94.787 123.108 94.5523 123.434 94.2077 123.343C94.1016 123.07 94.3704 122.873 94.4993 122.688C94.6052 122.597 94.8249 122.616 94.8249 122.415C94.4803 122.199 94.2077 122.544 93.9198 122.616C93.8289 122.199 94.3705 122.146 94.6242 121.965C94.8249 121.965 95.0786 121.965 95.2415 122.09C95.8549 122.256 96.4873 121.855 96.8471 121.347C97.2638 120.207 96.9948 119.226 97.0668 117.977C97.3204 117.56 97.4454 116.977 97.9491 116.742" fill="#06121E"/>
<path fill-rule="evenodd" clip-rule="evenodd" d="M84.1617 89.4459L81.8213 93.3428L84.1993 97.7545L86.4979 93.3009" fill="#06121E"/>
<path fill-rule="evenodd" clip-rule="evenodd" d="M118.193 89.2073L115.853 93.1042L118.231 97.5159L120.53 93.0623" fill="#06121E"/>
<path d="M85.032 76.2407C84.9636 76.1236 85.0053 75.9717 85.1226 75.9037C85.2441 75.8395 85.3918 75.8774 85.4599 75.9986L90.2198 84.3638C90.2883 84.4811 90.2464 84.6324 90.1254 84.697C90.0118 84.7652 89.8601 84.7236 89.7919 84.6061" fill="#FFF30D"/>
<path d="M85.1878 84.7834C85.1196 84.9009 84.9719 84.9427 84.8508 84.8746C84.7335 84.81 84.6917 84.6587 84.7599 84.5376L89.52 76.1761C89.5882 76.0547 89.7359 76.0171 89.857 76.0811C89.9744 76.1493 90.0161 76.3008 89.9479 76.4181" fill="#FFF30D"/>
<path fill-rule="evenodd" clip-rule="evenodd" d="M85.7974 80.7407C85.7974 78.1732 86.5319 76.0941 87.437 76.0941C88.3461 76.0941 89.0808 78.1732 89.0808 80.7407C89.0808 83.3084 88.3461 85.3875 87.437 85.3875C86.5319 85.3875 85.7974 83.3084 85.7974 80.7407Z" fill="#FFF200"/>
<path fill-rule="evenodd" clip-rule="evenodd" d="M85.8208 81.313C85.8208 81.313 86.9039 81.5175 87.434 81.5062C87.968 81.4912 89.0473 81.241 89.0473 81.241C89.0473 81.241 89.0852 81.4344 89.0625 81.6576C89.0359 81.8848 88.9905 82.241 88.9905 82.241C88.9905 82.241 87.6613 82.4907 87.4 82.4907C87.1387 82.4907 85.8928 82.3468 85.8928 82.3468" fill="#06121E"/>
<path fill-rule="evenodd" clip-rule="evenodd" d="M85.9761 82.9319C85.9761 82.9319 86.9265 83.1707 87.4453 83.1439C87.9679 83.1214 88.8842 82.9319 88.8842 82.9319C88.8842 82.9319 88.7404 83.7045 88.657 83.86C88.5738 84.0149 87.6611 84.0604 87.4566 84.049C87.2559 84.0381 86.2713 83.9658 86.2373 83.9051C86.1995 83.8483 85.9874 83.0379 85.9761 82.9319Z" fill="#06121E"/>
<path fill-rule="evenodd" clip-rule="evenodd" d="M86.4504 84.4192C86.4504 84.4192 87.3175 84.6426 87.5523 84.5974C87.7909 84.5518 88.4082 84.5025 88.4536 84.4192L88.0977 85.0026C88.0181 85.0857 87.4577 85.0478 87.3175 85.0478C87.1737 85.0478 86.8176 85.025 86.723 84.9305C86.6283 84.836 86.4126 84.4801 86.4126 84.4308" fill="#06121E"/>
<path fill-rule="evenodd" clip-rule="evenodd" d="M86.5131 77.7167C86.5131 77.7167 86.7289 76.9934 87.0206 76.8191C87.3122 76.6411 87.5659 76.5048 87.8574 76.8002C88.1491 77.0918 88.1869 77.2281 88.2476 77.4629C88.3044 77.6976 88.3271 77.834 88.3271 77.834H86.4941" fill="#06121E"/>
<path fill-rule="evenodd" clip-rule="evenodd" d="M93.1221 81.6845C92.9101 82.4419 90.1949 82.34 87.0518 81.4574C83.9125 80.5715 81.5419 79.2423 81.7539 78.4849C81.9621 77.7272 84.6812 77.8297 87.8206 78.7157C90.9598 79.5982 93.3343 80.9274 93.1221 81.6845" fill="#FFF30D"/>
<path fill-rule="evenodd" clip-rule="evenodd" d="M93.4233 78.483C93.3173 77.7294 90.5831 77.9038 87.3112 78.8731C84.0394 79.8388 81.4719 81.2364 81.5779 81.9861C81.6801 82.7396 84.418 82.5653 87.6899 81.5959C90.9618 80.6302 93.5294 79.2366 93.4233 78.483Z" fill="#FFF30D"/>
<path d="M85.92 80.7307V80.7348C85.92 82.4995 86.2683 84.0256 86.7796 84.7828C86.8742 84.9231 86.9728 85.0364 87.0749 85.116C87.1923 85.2068 87.3173 85.2561 87.4384 85.2561C87.8323 85.2561 88.2034 84.7679 88.4836 83.9764C88.7753 83.1509 88.957 82.0034 88.957 80.7348V80.7307C88.957 79.4625 88.7753 78.3188 88.4836 77.4895C88.2034 76.698 87.8323 76.2093 87.4384 76.2093C87.0409 76.2093 86.6735 76.698 86.3933 77.4854C86.1017 78.3187 85.92 79.4625 85.92 80.7307ZM85.6738 80.7348V80.7307C85.6738 79.4321 85.8593 78.2582 86.1622 77.406C86.4767 76.5159 86.9273 75.9632 87.4384 75.9632C87.9497 75.9632 88.4004 76.5159 88.7147 77.406C89.0176 78.2582 89.2032 79.4321 89.2032 80.7307V80.7348C89.2032 82.0297 89.0176 83.2076 88.7147 84.0595C88.4004 84.9494 87.9497 85.5023 87.4384 85.5023C87.2567 85.5023 87.0863 85.4341 86.9273 85.3129C86.8024 85.2145 86.6849 85.0857 86.5751 84.9231C86.0372 84.1276 85.6738 82.5448 85.6738 80.7348" fill="#FFF30D"/>
<path fill-rule="evenodd" clip-rule="evenodd" d="M101.299 76.8483L101.243 76.9657C101.107 77.7875 101.36 78.5713 101.163 79.2985C101.087 79.4729 100.811 79.4917 100.637 79.4348C100.383 78.984 100.717 78.5524 100.459 78.0828C100.58 77.3973 100.205 76.4961 100.773 75.8675C101.36 75.8675 101.182 76.5151 101.299 76.8483" fill="#FFF30D"/>
<path fill-rule="evenodd" clip-rule="evenodd" d="M100.109 76.3957C100.306 77.2401 100.188 78.3384 100.226 79.3154C100.226 79.4328 100.086 79.5312 100.01 79.5692L99.7187 79.6486C99.2681 78.9063 99.5596 77.9823 99.4839 77.1038C99.5444 76.7668 99.6203 76.5131 99.8739 76.2972C99.9725 76.2784 100.048 76.32 100.109 76.3957" fill="#FFF30D"/>
<path fill-rule="evenodd" clip-rule="evenodd" d="M102.122 76.4357C102.277 77.2766 102.084 78.0833 102.159 79.0792C102.023 79.2004 102.121 79.4314 101.944 79.492C101.769 79.5527 101.633 79.4314 101.595 79.295C101.553 78.4544 101.497 77.591 101.595 76.6707C101.69 76.4966 101.849 76.2201 102.122 76.4357" fill="#FFF30D"/>
<path fill-rule="evenodd" clip-rule="evenodd" d="M99.2294 77.5521C99.2294 78.2985 99.2484 78.9839 99.131 79.7072C99.0553 79.904 98.7978 79.7677 98.7031 80.0025C98.741 80.1767 98.9151 80.2751 99.0553 80.3547C99.4264 80.4153 99.68 80.2183 100.01 80.2374C100.305 80.1199 100.676 80.3168 100.93 80.101C101.358 80.1578 101.926 79.9419 102.217 80.2751C102.1 80.7255 101.479 80.5893 101.123 80.805C100.869 80.9036 100.578 80.9036 100.362 81.1196C100.343 81.7255 100.187 82.335 100.498 82.8426C100.597 82.7858 100.752 82.6267 100.597 82.4905L100.676 81.5514C100.93 81.1764 101.377 81.1575 101.767 80.9831C102.005 80.8846 102.471 80.9225 102.649 80.669C102.687 80.0215 102.376 79.3966 102.884 78.9043C103.217 78.9232 103.062 79.5897 103.565 79.4949C103.645 79.6882 103.565 79.9647 103.49 80.1767C103.49 80.8469 103.49 81.627 103.528 82.2933C103.312 82.9222 102.865 83.6871 102.081 83.7247C101.945 83.8043 101.865 83.8802 101.808 84.0201C101.865 84.2136 102.16 84.0961 102.16 84.3726C102.217 84.7058 102.217 85.0769 102.005 85.3909C101.634 85.41 101.259 85.4895 100.93 85.6068C100.634 85.4291 100.244 85.5084 99.9338 85.3909C99.7559 85.3909 99.6194 85.5275 99.4453 85.4291C99.4642 85.058 99.4264 84.5279 99.3469 84.1186C99.1537 83.9028 98.934 83.7247 98.7031 83.5887C98.2902 81.8429 98.4304 80.0404 98.6424 78.3742C98.6235 77.946 98.6803 77.435 98.9151 77.1018C99.2862 76.9843 99.0742 77.435 99.2294 77.5521" fill="#FFF30D"/>
<path d="M111.958 76.2407C111.889 76.1236 111.931 75.9717 112.048 75.9037C112.17 75.8395 112.317 75.8774 112.385 75.9986L117.146 84.3638C117.214 84.4811 117.172 84.6324 117.055 84.697C116.938 84.7652 116.786 84.7236 116.718 84.6061" fill="#FFF30D"/>
<path d="M112.113 84.7834C112.045 84.9009 111.898 84.9427 111.776 84.8746C111.659 84.81 111.621 84.6587 111.685 84.5376L116.446 76.1761C116.514 76.0547 116.665 76.0171 116.783 76.0811C116.9 76.1493 116.942 76.3008 116.873 76.4181" fill="#FFF30D"/>
<path fill-rule="evenodd" clip-rule="evenodd" d="M112.722 80.7407C112.722 78.1732 113.457 76.0941 114.362 76.0941C115.271 76.0941 116.005 78.1732 116.005 80.7407C116.005 83.3084 115.271 85.3875 114.362 85.3875C113.457 85.3875 112.722 83.3084 112.722 80.7407Z" fill="#FFF30D"/>
<path fill-rule="evenodd" clip-rule="evenodd" d="M112.748 81.313C112.748 81.313 113.826 81.5175 114.36 81.5062C114.894 81.4912 115.974 81.241 115.974 81.241C115.974 81.241 116.012 81.4344 115.985 81.6576C115.962 81.8848 115.917 82.241 115.917 82.241C115.917 82.241 114.587 82.4907 114.326 82.4907C114.065 82.4907 112.819 82.3468 112.819 82.3468" fill="#06121E"/>
<path fill-rule="evenodd" clip-rule="evenodd" d="M115.809 82.9319C115.809 82.9319 115.665 83.7045 115.586 83.86C115.502 84.0149 114.586 84.0604 114.385 84.049C114.184 84.0381 113.2 83.9658 113.165 83.9051C113.128 83.8483 112.912 83.0379 112.9 82.9319C112.9 82.9319 113.851 83.1707 114.374 83.1439" fill="#06121E"/>
<path fill-rule="evenodd" clip-rule="evenodd" d="M113.377 84.4192C113.377 84.4192 114.24 84.6426 114.479 84.5974C114.717 84.5518 115.335 84.5025 115.384 84.4192L115.027 85.0026C114.941 85.0857 114.384 85.0478 114.24 85.0478C114.1 85.0478 113.744 85.025 113.649 84.9305C113.555 84.836 113.339 84.4801 113.339 84.4308" fill="#06121E"/>
<path fill-rule="evenodd" clip-rule="evenodd" d="M113.44 77.7167C113.44 77.7167 113.652 76.9934 113.944 76.8191C114.239 76.6411 114.493 76.5048 114.784 76.8002C115.076 77.0918 115.114 77.2281 115.174 77.4629C115.231 77.6976 115.25 77.834 115.25 77.834H113.421" fill="#06121E"/>
<path fill-rule="evenodd" clip-rule="evenodd" d="M120.048 81.6845C119.836 82.4419 117.12 82.34 113.981 81.4574C110.838 80.5715 108.468 79.2423 108.676 78.4849C108.888 77.7272 111.607 77.8297 114.746 78.7157C117.886 79.5982 120.26 80.9274 120.048 81.6845" fill="#FFF30D"/>
<path fill-rule="evenodd" clip-rule="evenodd" d="M120.349 78.483C120.243 77.7294 117.509 77.9038 114.237 78.8731C110.965 79.8388 108.398 81.2364 108.5 81.9861C108.606 82.7396 111.344 82.5653 114.616 81.5959C117.888 80.6302 120.455 79.2366 120.349 78.483Z" fill="#FFF30D"/>
<path d="M112.844 80.7307V80.7348C112.844 82.4995 113.196 84.0256 113.707 84.7828C113.798 84.9231 113.9 85.0364 114.002 85.116C114.12 85.2068 114.241 85.2561 114.362 85.2561C114.76 85.2561 115.127 84.7679 115.407 83.9764C115.699 83.1509 115.881 82.0034 115.881 80.7348V80.7307C115.881 79.4625 115.699 78.3188 115.407 77.4895C115.127 76.698 114.76 76.2093 114.362 76.2093C113.968 76.2093 113.597 76.698 113.317 77.4854C113.025 78.3187 112.844 79.4625 112.844 80.7307V80.7307ZM112.598 80.7348V80.7307C112.598 79.4321 112.787 78.2582 113.086 77.406C113.4 76.5159 113.851 75.9632 114.362 75.9632C114.877 75.9632 115.324 76.5159 115.642 77.406C115.941 78.2582 116.127 79.4321 116.127 80.7307V80.7348C116.127 82.0297 115.941 83.2076 115.642 84.0595C115.324 84.9494 114.877 85.5023 114.362 85.5023C114.18 85.5023 114.01 85.4341 113.851 85.3129C113.73 85.2145 113.612 85.0857 113.503 84.9231C112.965 84.1276 112.598 82.5448 112.598 80.7348Z" fill="#FFF200"/>
<path fill-rule="evenodd" clip-rule="evenodd" d="M77.1432 73.5097C77.135 74.7331 76.9236 103.525 77.1473 107.039C77.5941 114.162 81.8014 120.388 89.3183 125.034C94.9343 128.507 100.334 129.87 100.558 129.927L100.739 129.969L100.918 129.927C101.148 129.87 106.587 128.522 112.225 125.061C119.776 120.418 123.961 114.185 124.336 107.031C124.623 101.518 124.726 73.8886 124.726 73.6081L124.73 72.851L77.151 72.7598L77.1441 73.5097H77.1432ZM90.0791 123.728C82.9144 119.29 79.0707 113.643 78.6503 106.944C78.5785 105.793 78.5519 101.722 78.5519 96.7992C78.5519 88.2823 78.5478 77.2589 78.5671 74.3127L123.018 74.3209L123.028 107.032C122.676 113.75 118.658 119.32 111.471 123.751C106.567 126.773 101.693 128.159 100.743 128.413C99.7959 128.155 94.96 126.754 90.0787 123.728" fill="#FAB217"/>
</g>
<defs>
<linearGradient id="paint0_linear" x1="133.46" y1="170.001" x2="80.6186" y2="97.0941" gradientUnits="userSpaceOnUse">
<stop stop-color="#241D10"/>
<stop offset="1" stop-color="#FFF30D"/>
</linearGradient>
<linearGradient id="paint1_linear" x1="56.5768" y1="19.8767" x2="120.454" y2="136.93" gradientUnits="userSpaceOnUse">
<stop stop-color="#241D10"/>
<stop offset="1" stop-color="#FFF30D"/>
</linearGradient>
<clipPath id="clip0">
<rect x="49" y="40" width="102.57" height="120" fill="white"/>
</clipPath>
</defs>
</svg>
