<svg width="200" height="200" viewBox="0 0 200 200" fill="none" xmlns="http://www.w3.org/2000/svg">
<rect width="200" height="200" fill="white"/>
<path d="M137.538 121.22C137.538 121.22 137.538 121.271 137.538 121.311C137.538 121.289 137.538 121.26 137.538 121.22Z" fill="white" stroke="white" stroke-width="4.59173" stroke-miterlimit="3.864"/>
<path d="M137.538 121.314C137.538 121.376 137.541 121.42 137.538 121.314V121.314Z" fill="white" stroke="white" stroke-width="4.59173" stroke-miterlimit="3.864"/>
<path d="M137.538 121.311C137.538 121.315 137.538 121.315 137.538 121.315C137.538 121.315 137.538 121.315 137.538 121.311Z" fill="white" stroke="white" stroke-width="4.59173" stroke-miterlimit="3.864"/>
<path d="M137.538 121.314C137.538 121.376 137.541 121.42 137.538 121.314Z" fill="#231F20"/>
<path fill-rule="evenodd" clip-rule="evenodd" d="M161.734 128.103C160.509 125.872 160.73 122.351 157.618 121.691C154.38 121.597 150.895 122.854 148 124.615C146.87 125.745 148.409 126.72 148.471 127.821C148.819 129.389 149.605 130.773 149.761 132.407C149.04 132.657 148.315 133.005 147.562 133.193C146.931 133.414 146.399 133.099 145.989 132.722C144.135 131.875 142.28 132.849 140.74 133.632C140.081 134.7 138.824 133.791 137.882 134.168C135.179 134.324 131.817 134.262 129.553 136.338C128.014 137.845 129.647 139.606 129.488 141.301C125.249 142.435 121.065 143.721 116.606 144.319C115.381 144.54 114.091 144.695 112.834 144.884C108.907 145.482 104.883 145.92 101.115 146.014L100.988 145.891C101.021 145.732 101.176 145.608 101.115 145.42C103.814 142.055 107.65 139.479 111.389 137.624C111.925 137.341 112.425 136.903 113.023 136.715C113.494 136.084 114.218 136.146 114.722 135.552C117.928 133.57 121.446 131.244 123.079 127.694C123.583 126.941 123.706 126.06 124.025 125.209C124.275 124.455 124.275 123.796 124.525 123.043C125.311 124.959 125.438 127.346 127.481 128.48C130.024 130.397 133.328 130.897 136.436 129.799C140.457 128.227 142.66 123.89 143.037 119.775C143.225 119.239 143.852 119.144 144.011 118.612C143.446 118.108 143.16 117.322 143.446 116.63C143.664 115.909 144.703 116.036 144.798 115.279C144.606 115.091 144.355 115.029 144.134 114.873C143.381 114.337 142.972 113.489 143.16 112.576C143.225 111.856 144.167 111.573 144.29 110.881C143.725 110.693 143.066 110.598 142.722 110.095C142.722 109.841 143.037 109.718 143.225 109.657C145.142 109.309 148.315 108.649 149.699 110.816C151.742 113.334 149.196 116.159 149.384 118.862C149.605 119.46 149.417 120.373 150.043 120.684C150.043 118.485 152.246 117.891 153.438 116.319L153.753 116.79C154.506 115.659 153.593 113.96 154.539 112.859C154.822 112.671 155.104 113.047 155.387 112.859V112.515C154.601 111.794 154.633 110.754 154.474 109.78C154.568 109.309 155.133 109.624 155.325 109.247C154.76 108.87 154.318 108.24 154.035 107.613C153.847 106.45 152.717 105.726 151.865 105.132L152.463 104.407C152.684 103.777 153.126 103.212 153.376 102.585C152.684 102.397 151.836 102.208 151.206 101.734C152.307 100.038 152.181 97.7125 152.246 95.9845L151.931 96.1728C151.771 95.01 151.742 93.7239 151.206 92.7784C150.956 92.8436 151.145 93.2493 150.829 93.1551C150.232 91.8981 149.761 90.5178 148.659 89.5107C148.127 89.3839 148.598 89.9816 148.286 90.0758C147.312 89.3839 146.837 88.3804 146.714 87.2791C146.431 87.2791 146.366 87.5617 146.304 87.75C145.866 91.0503 147.406 94.3506 146.493 97.5567C146.051 98.437 146.051 99.5057 145.33 100.292C144.605 102.302 142.754 103.621 141.026 104.751C140.9 104.722 140.74 104.784 140.678 104.69C140.458 103.748 141.309 102.991 141.276 102.114C140.584 101.987 139.958 101.422 139.577 100.89C139.421 100.038 139.704 99.2521 140.49 98.7196C140.74 98.1219 139.892 98.4044 139.642 98.1219C138.918 97.5567 138.447 96.6148 138.447 95.5751C138.385 94.8216 139.233 94.3506 139.233 93.6913C138.418 93.6913 137.788 92.9051 137.411 92.2458C137.002 91.0829 136.969 89.4781 137.599 88.3188C138.353 85.0475 142.91 85.0801 142.972 81.5298C143.16 80.8379 144.232 81.5588 144.671 80.8705C144.953 80.5553 144.45 80.6495 144.356 80.5553C143.41 80.0518 143.598 78.9215 143.508 78.1354C143.946 77.976 144.196 78.4469 144.605 78.1969C144.797 78.0412 145.236 77.976 145.08 77.6608C144.482 77.726 144.326 77.0666 143.946 76.7515C144.196 76.5631 144.45 76.8457 144.736 76.7515C144.921 76.6899 145.265 76.6283 145.142 76.2805C144.577 75.9038 144.232 75.2444 144.232 74.6467H144.671C145.518 74.3641 144.482 73.8932 144.544 73.4222C144.606 73.2954 144.736 73.2628 144.859 73.2954C144.982 73.2012 145.08 73.0455 145.015 72.9513C143.79 72.6361 144.261 71.158 143.098 70.7486C143.979 70.0567 142.595 69.8357 142.66 69.1764C142.533 68.8322 142.189 68.7996 141.936 68.7055C141.903 68.5171 141.968 68.3613 142.124 68.2345C142.501 67.6367 141.78 67.5752 141.403 67.4484C141.403 67.0716 141.497 66.1913 140.678 66.4738C141.088 65.4051 139.769 65.7855 139.298 65.6877C139.327 65.2494 139.548 64.84 139.392 64.4017C138.889 64.2749 138.606 64.6226 138.197 64.59L138.135 63.7423C137.693 63.6155 137.472 63.9597 137.096 63.9307C135.998 65.0284 136.154 62.9852 135.241 62.7678C135.024 62.641 134.647 62.42 134.393 62.7026C134.52 63.2714 135.024 63.8039 134.741 64.4632C134.553 64.7168 134.237 65.1552 133.889 64.9668C133.48 64.4306 133.042 63.8981 132.506 63.3945C132.259 63.112 132.227 62.5468 131.723 62.4852C131.408 63.2388 131.502 64.1481 131.408 64.9668C130.937 64.8726 130.466 64.3691 130.024 64.6516C129.68 65.7855 130.18 66.8506 130.999 67.6693C130.401 68.2055 129.962 68.7996 129.426 69.3648C128.64 70.9044 127.01 71.8173 125.847 73.1686C124.557 74.1757 124.463 75.8096 124.275 77.2224C124.746 78.0086 125.561 77.7586 126.285 78.1354C126.38 78.3853 126.064 78.4795 125.97 78.6389C125.626 78.7621 125.561 78.2296 125.249 78.3237C124.84 78.3853 124.778 78.8273 124.652 79.1099C124.807 79.3888 124.746 79.7692 125.123 79.9576C125.847 80.3669 126.662 79.9576 127.293 79.4214C127.825 79.5482 128.484 79.2041 129.05 79.4866V79.3598C130.18 79.0157 130.654 77.6318 131.785 77.1282C132.227 77.2876 132.632 76.8457 132.915 77.3492C132.006 78.6389 130.307 79.0157 129.176 80.0192C127.133 81.2147 125.249 83.2253 124.275 85.3301C123.898 85.8662 123.992 86.6813 123.427 87.0907C122.326 85.3301 121.916 83.2579 120.598 81.653C119.812 80.9937 118.616 80.9611 117.674 81.3415C115.787 82.6927 113.465 82.9101 111.639 84.3266L111.516 84.1998C111.483 83.6347 111.233 83.1637 110.853 82.6927C110.259 82.4102 109.661 82.2218 108.969 82.1892C107.933 82.095 106.926 82.9101 105.951 82.2508C105.734 81.8124 105.607 81.3704 105.574 80.8705C105.39 80.4285 105.701 79.3888 105.042 79.233C104.538 78.4179 104.632 77.3492 104.571 76.3421C104.506 76.1247 104.223 76.3421 104.129 76.1537C103.691 74.6141 103.941 72.7592 103.814 71.3138C104.006 70.6544 103.343 69.8357 104.129 69.43C104.256 69.2416 104.35 68.8648 104.067 68.7707C103.973 68.6765 103.973 68.4555 104.129 68.3939C105.419 68.2671 105.165 66.3507 106.549 66.5391C106.737 66.3797 106.705 66.0971 106.799 65.9087C106.737 65.1878 107.024 64.4959 106.737 63.7423L104.727 63.8039L104.571 63.6771C104.317 62.641 104.444 61.3839 105.23 60.663C105.89 60.471 106.426 60.0653 107.085 60.4094C107.556 60.692 107.806 61.1955 107.871 61.6991C107.712 62.0143 107.397 62.2027 107.085 62.1085C106.455 61.8549 106.582 60.9746 106.013 60.9746C105.857 61.9201 106.172 62.862 106.991 63.3945C107.397 63.6155 108.06 63.6155 108.436 63.3945C109.034 63.0178 109.378 62.4853 109.505 61.7607C109.034 60.5978 110.574 61.3839 110.98 60.8514C112.113 60.4094 111.766 59.3081 111.827 58.3662C111.827 57.7721 112.708 57.3627 112.708 56.8592C112.331 56.6998 111.925 56.6382 111.516 56.6708C110.574 56.6708 110.603 57.7395 110.07 58.2431L110.009 57.1417C109.788 56.7324 109.378 56.294 108.969 56.0731C108.654 56.1057 108.31 55.7905 108.06 56.0731C107.994 56.4824 108.436 56.4498 108.56 56.7324C108.436 57.8337 107.179 57.6127 106.426 57.9279C105.419 58.0836 105.324 59.3081 104.382 59.5001C102.937 60.3768 102.904 62.2317 103.093 63.7423C102.307 63.9307 102.966 64.7458 102.495 65.1878C101.897 65.0284 101.771 64.3075 101.586 63.8039C101.238 62.7968 101.394 61.5107 101.459 60.4094C101.676 58.8698 103.375 57.9605 104.256 56.7324C103.72 55.6637 105.165 55.4137 105.23 54.5008C104.948 54.2798 104.632 54.7218 104.382 54.374C104.382 54.2508 104.382 54.0914 104.444 54.0008C106.205 53.6857 104.948 52.0808 105.701 51.0447C105.64 50.5412 105.357 50.3854 105.042 50.0086C104.698 50.1318 104.383 49.8492 104.317 49.4725C103.941 48.8747 103.22 48.6574 102.557 48.7515C102.274 48.6247 101.963 48.3748 101.647 48.5632C100.988 49.3783 99.9809 49.6608 99.4157 50.668L99.1658 50.447C98.7854 50.9505 98.3181 51.5157 98.3181 52.2402C98.6297 53.0553 97.5319 53.0263 97.1842 53.5263C96.619 54.124 96.7459 55.0369 96.0866 55.5079C95.3294 54.2798 94.0723 53.6531 93.4782 52.3634C93.5072 50.7006 91.3081 49.7876 92.2211 47.9038C96.4307 45.3245 101.238 47.5561 105.828 47.777C112.458 48.7189 120.848 48.8131 125.184 42.8103C125.217 42.4046 125.72 41.9952 125.499 41.6474C123.395 42.9371 120.659 42.9371 118.178 43.1255C116.479 43.0639 114.533 43.0929 113.15 42.6219C109.693 42.1836 106.549 40.9265 103.531 39.481C100.861 38.2529 97.7819 37.782 94.7026 38.2855C94.3874 38.3181 94.0107 38.5355 93.7898 38.3471C93.9492 37.7204 93.6014 37.09 93.2572 36.5249C92.8189 36.2749 92.3768 35.7387 91.9059 35.7387C90.9603 35.583 90.0511 35.9598 89.4243 36.6517C88.8556 37.3436 88.794 38.5355 89.2033 39.289C89.5475 39.8868 90.1127 40.2961 90.5836 40.6439C90.743 44.5093 90.5836 47.8096 90.7104 51.3273C90.5836 51.8924 90.1453 52.5844 90.5836 53.1495C90.6778 55.5695 90.6778 58.6814 90.5836 61.2572L90.3952 61.5107C90.2395 61.7607 90.3663 62.0433 90.522 62.2317L90.5836 82.1892C90.1779 82.5986 89.6743 82.8159 89.4243 83.3521C89.3301 83.823 89.4243 84.3882 89.6743 84.7975C90.9314 86.4929 92.7536 85.9604 94.5758 85.772L94.7026 85.8952C94.3874 86.6197 94.4527 87.6884 94.9236 88.3188C95.1084 88.9455 94.4817 89.4165 94.0434 89.7606C91.7176 91.0213 88.9209 91.3981 86.4067 90.8004C85.0554 90.612 86.4682 89.5107 86.2147 88.7245C85.9683 87.6269 85.367 86.3988 84.1099 86.1814C83.0122 85.8952 81.7225 86.243 81.0306 87.1523C81.0016 86.243 81.1247 85.1127 82.0992 84.6707C83.0121 84.8265 83.8924 85.0801 84.646 85.7105C85.2111 86.3988 85.6205 86.9349 86.5298 86.9639C86.9718 87.75 86.8161 88.6919 86.6567 89.5723L86.8775 89.7606C87.9789 89.9816 89.2034 89.8874 90.3337 90.0758C90.993 89.0397 92.1269 90.3294 92.7536 89.1013C92.9746 88.8803 93.5398 89.1955 93.5398 88.7245C92.4711 87.0291 90.5221 86.243 89.0766 85.0475C87.4102 82.8159 84.425 82.8159 82.2876 81.2762C78.328 80.3017 78.52 85.1417 76.7884 87.1523L76.5384 86.8081C75.4371 83.0369 71.76 80.146 68.4308 78.5121C68.0214 78.2295 67.4236 77.947 67.2968 77.4108C69.09 76.5015 69.7821 79.4214 71.5717 79.4866C72.894 79.0157 73.459 80.4937 74.9009 80.146C75.1871 80.0518 75.3755 79.8634 75.4697 79.5482C75.6255 79.1715 75.5312 78.6389 75.1545 78.4469C74.7451 78.1354 74.5894 78.7947 74.18 78.6389C74.0532 78.5121 73.8359 78.3527 73.9301 78.1969C74.622 77.9144 75.6581 78.0412 76.0022 77.1282C76.1616 74.7409 74.2742 72.9802 72.5461 71.5348C70.9775 70.5929 70.6298 68.738 69.1517 67.6693C69.6553 67.1984 70.032 66.6948 70.253 66.0971C70.1588 65.503 70.4703 64.9668 69.9993 64.5248C69.561 64.6516 69.2133 64.84 68.8075 65.0284C68.554 64.6227 68.7459 63.9923 68.6807 63.4887C68.5865 63.1446 68.6481 62.3584 68.1445 62.5468C67.833 63.6771 66.7317 64.0865 66.1992 65.1226H66.0108C64.7827 64.6516 65.634 63.3656 65.663 62.641C64.6269 62.5794 64.1886 63.6481 63.7176 64.3365C63.2105 64.0249 62.6778 63.8365 62.0801 63.7423C61.6091 63.9597 62.1453 64.3364 61.8953 64.6516C61.515 64.6226 61.2035 64.4017 60.8267 64.4017C60.3195 64.7784 60.9824 65.3762 60.6962 65.9087C60.3847 65.7529 59.8811 65.7529 59.5369 65.8145C59.5369 66.3507 59.316 66.789 58.7509 66.6948C58.5299 66.9774 58.8451 67.2926 58.7509 67.5425C58.4683 67.6367 58.0879 67.5426 57.8995 67.8577C57.9321 68.2055 58.0589 68.4845 58.1531 68.7707C57.146 68.7054 57.7148 69.9625 56.7693 70.0893C56.5519 70.3719 56.896 70.5603 56.9902 70.8138C55.7983 71.2196 56.2983 72.6977 55.0738 73.0128C54.9144 73.4512 55.3854 73.357 55.5448 73.5454C55.5122 73.9548 55.0412 74.1105 55.0738 74.5199C55.1354 75.0561 55.7332 74.5815 55.9215 74.9293C55.6064 75.4002 55.5447 76.0921 54.947 76.3421C54.8818 77.2224 55.7984 76.6283 56.1425 76.8783C55.86 77.3492 55.4795 77.7586 54.947 77.8528C55.2622 78.5121 56.0483 78.2911 56.646 78.3237C56.8018 78.8563 56.3599 79.1099 56.5193 79.6424C56.2657 80.146 56.0773 80.8379 55.3564 80.8053C55.6063 81.5298 56.4867 81.2473 57.1134 81.403C57.0845 82.5985 57.5554 83.823 58.6857 84.6092C60.8557 85.6163 62.8663 87.75 63.1199 90.17C62.9315 91.3329 63.0872 92.6226 62.0185 93.4377C61.6743 93.6913 61.294 93.8471 60.8883 93.9413C61.0441 94.4774 61.5765 94.7926 61.6743 95.3251C61.8627 96.3938 61.515 97.4625 60.6962 98.2161C60.3847 98.4044 59.9427 98.3718 59.6601 98.6544C60.2253 99.2848 60.7288 100.038 60.6962 100.948C60.4463 101.357 60.1021 101.828 59.7253 101.987C57.5264 102.458 60.4462 103.871 59.4101 105.005C57.3669 104.031 55.3853 102.114 54.5086 100.038C53.1863 97.4951 53.2516 94.7926 53.5631 91.9306C54.0051 90.9272 53.8168 89.8585 53.911 88.8513C53.9725 88.3804 53.8167 87.75 53.44 87.4675C53.1864 88.5362 52.748 89.6375 51.8061 90.2968C51.6793 90.2352 51.7736 90.1084 51.741 90.0142C51.712 89.92 51.7409 89.6375 51.5526 89.6991C50.2013 90.5468 49.8861 92.1516 49.1942 93.4377C49.071 93.2819 49.0384 93.032 48.7884 92.9668C48.5674 93.5645 48.5059 94.2238 48.3501 94.8542C48.1581 95.3251 48.4406 96.046 48.0965 96.3612C48.0023 96.267 47.8755 96.2381 47.7523 96.2381V96.4264C47.8465 98.437 48.0023 100.386 48.8826 102.049C48.5385 102.331 48.0965 102.302 47.7523 102.585C47.4661 102.868 46.7162 102.552 46.7742 103.118C47.4661 103.842 47.4987 104.813 48.2849 105.538C46.1801 106.135 46.5242 108.428 44.8287 109.53C44.8577 110.001 45.4555 109.657 45.6765 110.033C45.5823 111.131 45.3939 112.138 44.7346 112.986C44.7635 113.551 45.2381 113.047 45.5207 113.174C45.8975 113.489 45.8649 113.96 46.0533 114.37C46.3358 115.279 45.7381 116.319 46.3032 117.101C46.651 117.355 46.4916 116.822 46.7162 116.696C47.6871 117.92 49.4477 118.645 50.0455 120.184C50.2012 120.434 49.9839 120.872 50.2338 121.032C50.578 120.811 50.7048 120.434 50.6432 120.119C51.6467 117.572 49.0383 115.091 49.8571 112.388C50.2628 111.131 51.4257 109.874 52.8422 109.657C54.5087 109.562 56.1099 109.468 57.4938 110.222C57.2402 110.816 56.5809 111.008 55.9831 111.069C55.7984 111.352 56.0773 111.573 56.2657 111.729C56.896 112.073 57.146 112.797 57.1134 113.489C56.9577 114.399 56.2041 115.185 55.4179 115.594C55.4506 116.159 56.0483 116.127 56.3925 116.38C56.7693 116.822 57.0228 117.261 56.9286 117.891C56.8344 118.235 56.5519 118.518 56.2657 118.8C56.2983 119.304 56.8019 119.586 57.1134 119.898C57.5264 123.075 58.5915 125.995 60.9825 128.353C63.7466 130.962 68.1446 131.183 71.5064 129.643C74.4336 128.701 75.0603 125.712 75.8791 123.263C76.0964 123.608 76.0022 124.205 76.1906 124.615C76.9767 130.585 83.2621 134.356 87.9137 137.059C92.1559 139.164 96.3365 141.71 99.5426 145.67V145.891C95.6119 146.206 91.7175 145.42 87.7869 145.011C82.9469 144.413 78.4548 143.5 73.8359 142.275C72.7056 141.805 71.4485 141.649 70.3145 141.174C70.5029 139.479 71.6984 137.218 69.9378 135.863C67.141 133.758 63.2756 134.168 59.9137 134.041C58.2147 132.849 56.0773 131.969 53.9725 132.534C53.4726 132.657 53.1863 133.349 52.527 133.132C51.6467 132.817 50.7048 132.722 49.9187 132.219C50.549 130.052 51.2083 127.85 52.1502 125.807C52.4002 125.053 51.8351 124.455 51.3642 124.017H51.0816C48.9116 122.698 46.4011 122.133 43.9485 121.47C42.503 121.22 40.7134 121.564 39.833 123.043C39.0759 124.742 38.4492 126.466 37.8804 128.227C37.1305 131.089 35.3047 133.697 35.6525 136.838C37.1305 140.703 41.2133 143.094 44.6693 144.884C45.3323 145.261 45.9916 145.543 46.7162 145.732C47.3103 146.3 48.1291 146.268 48.7269 146.739C48.1291 148.405 47.5313 150.637 49.0093 152.082C50.8605 153.557 53.0596 154.22 55.0738 155.288C60.3195 157.737 66.0724 158.929 71.6333 160.596C72.7672 160.849 74.0532 161.161 75.0929 161.32C83.8599 163.265 93.163 163.802 102.089 163.581C111.327 163.519 120.221 162.483 128.767 160.472C132.1 159.277 135.65 158.647 138.983 157.455C139.642 157.172 140.363 156.984 141.026 156.669C144.327 155.538 147.562 154.06 150.482 152.144C152.054 150.76 151.398 148.499 150.829 146.862L151.079 146.583C152.246 146.329 153.22 145.576 154.351 145.228C157.962 143.25 162.458 140.863 163.965 136.715C163.998 133.603 162.458 130.962 161.734 128.103V128.103ZM132.698 114.808C132.698 114.808 136.034 118.108 136.447 118.84C136.856 119.568 137.53 120.862 137.538 121.22C137.538 121.22 137.038 123.311 134.346 123.448C131.654 123.586 129.329 121.441 129.419 118.931C129.51 116.42 131.274 115.663 132.698 114.808V114.808ZM121.891 104.907C121.92 104.052 122.043 103.11 122.833 102.744C123.623 102.382 123.655 102.473 123.655 102.473C123.655 102.473 125.112 104.936 125.572 105.574C126.028 106.215 128.245 109.073 129.466 111.022C129.466 111.022 124.688 115.159 124.474 120.148C124.474 120.148 124.412 118.84 124.231 118.17C124.047 117.5 123.989 116.435 124.931 115.92L124.992 115.554C124.992 115.554 124.079 115.341 124.079 114.794C124.079 114.247 124.84 114.152 124.84 113.729C124.84 113.301 124.293 113.181 124.141 113.153C123.989 113.12 123.166 113.091 122.8 111.751C122.438 110.41 121.311 106.215 121.311 106.215C121.311 106.215 121.858 105.759 121.891 104.907V104.907ZM105.781 86.348C105.781 86.348 106.237 86.5763 106.922 86.4386C107.607 86.3046 108.429 85.9387 108.429 85.9387L109.067 86.3046L106.922 88.4021C106.922 88.4021 106.422 89.1303 106.969 89.1303C107.516 89.1303 107.654 89.3151 107.744 89.5433C107.835 89.7715 108.52 89.8621 108.886 89.7715C109.248 89.6809 109.98 89.9526 110.07 90.228L113.537 89.7715L113.765 89.4527C113.765 89.4527 113.403 87.8551 113.631 87.261C113.86 86.6668 114.407 87.1233 114.954 86.4386C115.501 85.7539 116.917 84.6128 117.873 84.6599C118.833 84.7033 119.105 85.6199 119.286 87.0327C119.286 87.0327 118.515 85.801 117.098 85.9822C115.682 86.1669 114.497 86.3481 114.041 88.9963C114.041 88.9963 114.088 89.9092 114.497 90.4562C114.497 90.4562 113.128 91.0032 111.487 91.0032C109.842 91.0032 107.288 90.4997 106.556 90.0432C105.828 89.5904 105.462 88.8115 105.506 88.5833C105.553 88.355 106.056 87.4892 105.781 86.348V86.348ZM70.9631 119.387C70.916 119.981 70.8725 123.129 66.1702 123.629C66.1702 123.629 63.0872 123.637 62.8047 121.535C62.6561 120.438 64.9856 117.561 65.5761 117.058C66.1702 116.558 67.7678 114.996 67.7678 114.996C67.7678 114.996 70.1552 116.522 70.7855 117.543C70.7855 117.543 71.0065 118.793 70.9631 119.387V119.387ZM77.2593 112.7C77.1469 112.863 75.7994 113.453 75.7088 113.522C75.6182 113.594 75.4334 113.729 75.7776 114.163C76.1181 114.594 76.5311 114.982 76.2775 115.188C76.0275 115.395 75.937 115.464 75.937 115.464C75.937 115.464 75.2994 115.507 75.4588 115.826C75.6182 116.148 75.9588 116.648 76.1435 116.855C76.3247 117.058 76.3463 117.38 76.2775 117.63C76.2087 117.88 76.0964 118.018 76.0746 118.337C76.0493 118.655 75.937 119.728 75.937 119.728C75.937 119.728 75.5276 116.786 73.0605 113.453C72.0208 112.048 70.8724 111.218 70.8724 111.218C70.8724 111.218 70.9413 110.83 71.4412 110.258C71.9448 109.689 75.2741 104.875 75.7088 104.168C76.1435 103.462 76.5529 102.661 76.9405 102.661C77.2158 102.661 78.1287 103.234 78.357 103.574C78.357 103.574 78.4475 105.538 79.0416 106.494C79.0416 106.494 77.3752 112.544 77.2593 112.7V112.7ZM92.3442 56.8592C92.4384 56.8592 92.471 56.9534 92.5652 57.0149C92.471 57.1417 92.3768 57.2975 92.4058 57.4569C92.692 57.7069 92.9746 57.8953 93.3514 57.9279C93.6014 58.3372 93.0362 58.9314 93.6014 59.2176C93.9491 59.1234 94.42 58.9024 94.7642 59.1524C94.7352 59.4059 94.3875 59.4675 94.1991 59.6233C93.8224 60.1921 93.2862 60.5688 92.6305 60.471C92.1885 60.3152 92.3442 60.0001 92.2211 59.6885L92.3442 56.8592V56.8592ZM95.9271 75.8675L95.3982 76.2552L94.9635 79.1026C94.9635 79.1026 94.4816 79.0519 94.4345 79.6315C94.3838 80.2112 94.1919 81.7074 93.9492 81.8016C93.7101 81.8994 93.3224 81.8994 93.0833 81.9972C92.8406 82.0914 92.5544 82.2363 92.261 82.0443C92.261 82.0443 91.877 67.7164 92.261 63.5177C92.261 63.5177 94.5288 63.5648 95.0577 63.3728V63.7097C95.0577 63.7097 94.7715 63.8546 94.3839 63.8075C93.9999 63.7604 93.2282 63.7097 92.8913 63.9524V66.7492C92.8913 66.7492 93.7607 66.7999 94.094 67.2817C94.4345 67.7635 95.0577 68.4844 95.6409 68.4374V69.017C95.6409 69.017 95.7351 69.4517 95.9271 69.4517C96.1228 69.4517 96.2677 69.5459 96.2677 69.9335C96.2677 70.3212 95.9271 75.8675 95.9271 75.8675" fill="#231F20"/>
<path d="M101.835 39.731L101.897 41.0496C100.988 40.9554 99.9191 40.8323 98.9736 40.5787C98.7852 40.0135 98.7237 39.3542 99.0388 38.8832C100.013 39.0716 101.115 39.1332 101.835 39.731V39.731Z" fill="#00B6F1" stroke="#00B6F1" stroke-width="0.140902" stroke-miterlimit="3.864"/>
<path d="M95.6117 39.1332C95.6117 39.6042 95.9921 40.5787 95.3001 40.6439C94.2604 40.6729 93.4126 41.1438 92.4055 41.238C92.094 40.8323 92.4381 40.2961 92.3439 39.8578C92.6591 39.5426 93.1627 39.6694 93.4779 39.3542C94.1373 39.2274 94.8907 38.8217 95.6117 39.1332Z" fill="#00B6F1" stroke="#00B6F1" stroke-width="0.140902" stroke-miterlimit="3.864"/>
<path d="M101.836 44.321L101.897 46.4874C100.89 46.3316 99.9521 46.2664 98.8797 46.0164C98.5682 45.3245 98.945 44.5384 98.8182 43.5965C99.2275 43.5023 99.731 43.5023 100.14 43.5965C100.767 43.6906 101.303 43.9732 101.836 44.321Z" fill="#00B6F1" stroke="#00B6F1" stroke-width="0.140902" stroke-miterlimit="3.864"/>
<path d="M95.5499 43.5964C95.8651 44.4441 95.5173 45.1071 95.6115 46.0164C94.5138 46.299 93.3799 46.4873 92.2822 46.8641V44.6325C93.2241 43.85 94.2929 43.7232 95.5499 43.5964Z" fill="#00B6F1" stroke="#00B6F1" stroke-width="0.140902" stroke-miterlimit="3.864"/>
<path d="M98.093 39.1332C98.3466 39.8868 97.7815 41.2091 98.8176 41.3648C99.8863 41.6474 101.02 41.5858 101.897 42.2777L101.835 43.2812C100.705 43.0313 99.6037 42.6545 98.3792 42.6219C97.9083 43.1871 98.1908 44.1942 98.093 44.8209L97.9699 45.9548C97.3105 45.7012 95.9593 46.5526 96.2745 45.2303C96.2093 44.4767 96.8722 43.2523 95.894 42.6871C94.7022 42.8755 93.4451 43.0313 92.3438 43.4696V42.2777C93.5392 41.7742 94.7638 41.3974 96.1477 41.3648L96.3361 41.1764V39.0101C96.7744 38.6623 97.4337 38.8833 97.9699 38.8217L98.093 39.1332" fill="#EF3E2E"/>
<path d="M122.829 43.2812L124.148 43.0639V43.187C121.761 46.2048 118.272 46.8315 114.845 47.4618C110.541 48.1538 106.676 47.0851 102.622 46.6142C102.372 46.1432 102.528 45.7338 102.495 45.1687C102.495 43.5348 102.433 42.151 102.557 40.2019L102.745 39.9194C108.846 42.7487 115.819 44.7303 122.829 43.2812" fill="#EF3E2E"/>
<path d="M70.5027 70.2777C72.2018 72.4151 75.2485 73.8606 75.3427 76.7515C74.9333 77.0341 74.4334 77.5666 73.7704 77.2877C73.1727 76.8783 72.6075 75.8096 71.6982 76.219C71.2272 76.5015 70.9447 77.0667 71.1621 77.5992C71.3505 77.7912 71.3505 78.0412 71.4157 78.2585C70.9121 78.1643 70.7237 77.6318 70.6621 77.2225C70.7853 76.8783 70.4701 76.3421 70.1259 76.0922C69.7166 76.0269 69.3109 75.9654 68.9957 75.7154C68.5864 75.2445 69.6224 74.27 68.6189 74.3967C67.9596 75.0851 67.8618 76.5957 66.5758 76.219C66.199 75.5886 65.4454 76.4689 65.1592 75.5886C64.7208 75.7154 64.25 75.6212 63.9022 75.3712C63.3044 74.7409 63.2102 73.9222 62.8045 73.2302H62.6776C62.7103 74.7083 63.3696 76.219 64.815 77.0667L64.8766 77.2877C64.594 77.6318 63.9022 77.1283 63.8406 77.5992C64.4057 77.9144 65.0651 78.1028 65.728 77.9144C65.6012 78.3528 64.5325 78.1644 65.1592 78.6389C65.728 78.7005 66.2279 78.3238 66.7966 78.4469V78.6389C66.6699 78.6389 66.6046 78.7947 66.5141 78.8563C66.5141 78.9505 66.6373 79.0157 66.7315 79.1063C67.1735 79.1715 67.5502 78.4469 67.9596 78.9831C72.075 80.7111 75.9114 84.7034 76.7265 89.1013C77.951 90.4236 78.1068 92.2458 78.3604 93.8797C78.4256 95.1042 78.2952 96.2381 77.9836 97.2742C77.8279 96.1729 78.2336 94.76 77.9836 93.6913C77.8894 93.2493 77.9184 92.6226 77.4474 92.4342C76.9475 92.8436 77.3533 93.1877 77.3243 93.6913C77.2265 94.6332 77.5742 95.8577 76.7265 96.3612C76.1903 96.3612 76.2556 95.7961 76.0672 95.4519C76.0962 94.2564 76.444 92.2458 75.2811 91.4597C75.0601 91.7749 75.4043 92.1842 75.4695 92.4958C75.4985 93.6297 75.4369 94.6984 75.2811 95.7019C75.3101 96.2381 75.6868 96.5822 76.002 96.959C77.7627 98.687 79.9943 100.665 81.3745 102.773C82.541 105.067 80.7478 107.363 81.6281 109.783C81.6607 110.819 81.3745 111.917 81.0956 112.924C81.0956 114.558 81.8491 117.355 80.0594 118.424C80.6536 117.007 81.0014 115.312 80.842 113.772C80.7188 113.739 80.621 113.522 80.5268 113.71C80.2152 114.276 80.0884 114.935 79.8674 115.533C79.8058 114.747 80.6536 114.12 80.0594 113.363C79.7732 113.363 79.5232 113.363 79.3349 113.584C79.3675 113.616 79.3023 113.301 79.1429 113.239C78.672 113.334 78.4256 113.96 77.9836 114.087C77.7011 114.087 77.5126 114.37 77.259 114.37C77.951 113.616 78.9255 113.051 79.3964 112.138C79.7116 112.171 80.121 112.109 80.0594 111.729C79.9 111.29 79.8384 110.787 79.6174 110.378C80.1826 108.649 81.0629 106.545 79.8674 104.817C80.1826 102.552 77.8279 101.766 76.3498 100.948C75.5637 100.857 74.7776 100.448 74.1146 99.9115L73.8357 100.227C73.5205 100.071 73.3321 99.5999 72.9227 99.5673C72.6075 98.687 72.1076 97.6183 71.1621 97.2742C70.0644 97.5241 69.1188 96.959 68.2385 96.488C68.0212 96.6148 68.0827 96.8938 68.1443 97.0242C68.6189 98.4045 70.3469 97.4625 70.8469 98.8464C71.604 100.132 72.546 101.107 73.9914 101.484C74.5566 101.828 75.2811 101.861 75.8789 102.176C74.6218 103.118 72.8611 103.273 71.3505 102.962C69.9376 102.962 68.4595 102.552 67.1082 102.114C66.764 101.861 66.2605 101.861 65.9454 101.545C65.1592 100.98 64.029 100.415 63.9674 99.3138C63.8116 98.5312 64.1883 97.9951 64.4383 97.2742C65.7895 98.8464 67.8328 99.4116 69.9376 99.5673C69.9702 99.5058 70.097 99.4731 70.0644 99.379C69.213 98.8138 68.0827 98.908 67.1734 98.5313C66.1663 98.1219 64.9418 97.401 64.5651 96.2381C64.5325 95.3252 64.8476 94.539 64.815 93.6297C66.4489 93.9739 68.2096 93.5029 69.0899 92.0575C69.4667 91.083 69.2783 89.6991 68.4921 88.8514C67.9596 88.5072 67.4234 88.192 66.7966 88.1268C67.3292 87.9384 67.9596 88.0652 68.4921 88.3804C69.2131 88.5072 69.2456 90.2642 69.8723 89.0397C69.9701 88.3478 69.7493 87.6559 69.3399 87.0907C70.0318 86.8697 69.3724 86.243 69.405 85.8336C68.9956 85.3301 68.2712 85.0185 68.4921 84.3266C67.927 83.2253 66.7025 82.345 65.5396 82.4392C65.7896 82.316 66.1338 82.4718 66.3221 82.1892C65.728 80.7437 63.8406 82.0624 63.1197 80.6169C60.3519 78.0412 60.4171 74.6141 61.2938 71.1906C61.7358 70.0893 62.6777 69.1148 63.7174 68.3287C64.4383 68.1113 65.507 68.3287 66.0106 67.3868C67.2967 66.8216 68.3689 68.0135 69.405 68.6439C69.684 69.209 70.4085 69.6184 70.5027 70.2777" fill="#BBBDBF"/>
<path d="M87.1274 83.9498C88.4497 84.7033 88.8881 86.0546 90.272 86.5545C91.1197 87.0581 92.0326 87.721 92.6919 88.442C92.3768 88.5361 92.221 88.8513 91.9058 88.8513C91.3406 87.9384 90.4603 87.2175 89.6126 86.6813C89.4858 87.3443 90.4278 87.6884 90.6488 88.2536L91.0581 88.9129C90.8372 88.9781 90.3046 89.4817 90.272 88.8513C89.8626 88.0036 89.4859 87.1233 88.6998 86.4313C88.544 86.4313 88.323 86.4314 88.2904 86.6197L89.0765 89.1665L88.9497 89.3223C88.4788 88.4419 88.7613 86.9675 87.7868 86.3661C87.4426 86.8407 87.8194 87.3732 87.9788 87.8152C88.0694 88.2862 88.1636 88.7897 88.2904 89.2281C88.1346 89.5106 87.8194 89.257 87.5658 89.2281C87.6636 88.0978 87.4426 86.9349 86.5949 86.1162C85.653 86.3082 85.5552 85.0475 84.7075 84.6707C83.704 84.073 82.3817 83.2868 81.2515 84.073C80.8131 84.6707 79.4908 84.4207 79.9943 85.5184L80.3095 86.3661C79.8386 88.6303 79.9618 90.8945 79.2083 93.0319C78.9873 92.2748 78.8641 91.3981 78.5489 90.612C78.4547 89.6664 77.607 88.7897 78.1069 87.8152C78.6105 86.3661 78.893 84.7975 79.335 83.2868C79.4581 82.4717 80.2769 81.8414 81.0305 81.653C83.3236 81.8124 84.99 83.4462 87.1274 83.9498Z" fill="#BBBDBF"/>
<path d="M120.192 82.1421C120.196 82.2037 120.163 82.2978 120.257 82.3268C120.29 82.2978 120.323 82.2652 120.319 82.2C121.254 83.4752 121.221 85.2649 121.971 86.6668C122.047 87.453 122.656 88.2282 122.261 88.9564C121.623 90.1917 121.489 91.6118 121.232 92.9667C120.5 90.8112 120.362 88.2971 119.949 86.0727C120.192 85.6307 120.496 85.0584 120.174 84.562C120.044 84.4063 119.855 84.3483 119.634 84.3809C118.903 83.8918 118.047 83.468 117.077 83.7687C115.83 84.2287 114.87 85.0946 114.102 86.1778C114.008 86.051 113.787 86.1198 113.66 86.1198C112.86 86.9204 112.628 88.0579 112.805 89.123C112.588 89.315 112.334 89.3802 112.085 89.3549C112.001 88.2862 112.617 87.5218 112.693 86.5147L112.472 86.3299C111.635 87.069 111.784 88.2898 111.422 89.2716C111.36 89.2716 111.327 89.3368 111.298 89.3694C111.313 88.4564 111.864 87.5689 111.972 86.5908C111.878 86.435 111.719 86.4676 111.563 86.4712C110.82 87.2392 110.306 88.221 109.911 89.1701C109.755 89.2679 109.469 89.1194 109.313 88.9926C109.494 88.6774 109.708 88.3296 109.893 88.0109C110.009 87.5979 110.947 87.2682 110.592 86.7429C109.788 87.4131 108.857 88.0906 108.339 89.0107C108.114 88.8912 107.922 88.7028 107.668 88.6448C107.944 88.0761 108.534 87.75 108.969 87.3044C109.375 87.2646 109.465 86.8842 109.806 86.6922C110.712 86.3009 111.483 85.6235 112.066 84.7649C112.44 84.5077 112.936 84.1527 113.276 83.8339C115.689 83.4752 117.616 80.5191 120.127 81.9537L120.192 82.1421" fill="#BBBDBF"/>
<path d="M99.354 86.493C99.4808 86.9966 99.7307 87.4385 99.7597 88.0037C99.8249 88.6956 99.6365 89.2571 99.4155 89.8259C98.6946 91.9923 96.3036 93.4377 94.3256 94.2239C90.8986 95.3252 86.91 95.5136 83.6713 93.8797C82.3816 92.9704 80.9072 91.8075 81.0956 90.0143C80.9072 89.2571 81.4398 88.7898 81.5666 88.1269C81.8165 87.6269 82.4142 87.1523 83.012 87.0908C83.6713 86.9024 84.1096 87.4059 84.5805 87.5943C85.0225 87.9711 85.0841 88.5072 85.2435 88.9782C85.4935 89.8259 83.6097 90.9236 85.2435 91.3982C85.5551 91.4598 85.8703 91.5213 86.2145 91.5865C87.0042 91.8981 87.9461 91.8075 88.8265 91.9307C91.4022 91.7423 94.2931 91.3329 95.8327 88.9782C96.2747 88.2536 95.2676 87.7501 95.427 87.0908C95.3292 86.5872 95.5502 86.243 95.7712 85.7721C96.2095 85.1128 96.9956 85.0475 97.7202 85.1743C98.3179 85.4895 99.0388 85.8337 99.354 86.493" fill="#F0B83D"/>
<path d="M104.854 86.243C104.854 86.9023 104.915 87.75 104.383 88.2536C104.191 89.2281 105.136 89.8258 105.763 90.4236C108.498 91.9596 112.708 92.4958 115.631 91.0213C115.787 90.391 115.414 90.17 115.189 89.699C115.16 88.8803 114.972 88.3152 115.57 87.6558C116.167 87.0907 117.048 86.8407 117.863 87.1523C119.087 88.0036 119.37 89.6048 119.087 91.0213C118.555 92.7457 116.859 93.8797 115.189 94.4158C114.91 94.4158 114.534 94.6042 114.186 94.7274C109.284 95.6077 103.879 94.568 101.05 90.4852C100.296 89.1955 100.485 87.1523 101.394 85.9604C102.024 85.3301 102.937 85.0185 103.814 85.2359C104.162 85.5184 104.665 85.772 104.854 86.243" fill="#F0B83D"/>
<path d="M100.861 84.9244V85.1743C99.2269 85.5837 97.9698 84.1998 97.1221 83.0369C97.593 82.6275 98.2234 82.9753 98.756 82.9753C99.6363 83.2869 100.451 84.073 100.861 84.9244" fill="#F0B83D"/>
<path d="M103.531 84.073C102.999 84.1382 102.433 84.4824 101.836 84.5439L100.796 83.2869C101.238 83.0369 101.93 82.7217 102.495 83.0369C102.966 83.2253 103.281 83.6673 103.531 84.073Z" fill="#F0B83D"/>
<path d="M96.6806 84.1382C96.0213 84.1382 95.7713 84.6381 95.1735 84.7323L93.6665 83.1637L93.7281 82.9753C94.9526 82.7543 96.0213 83.1926 96.6806 84.1382" fill="#F0B83D"/>
<path d="M110.479 83.7614C110.668 84.0404 110.668 84.5765 110.479 84.8591C110.131 85.1127 109.787 85.5184 109.345 85.2358C108.498 84.7975 108.248 84.0114 107.711 83.2868C108.342 82.9753 108.907 83.0368 109.566 83.0368C109.849 83.2578 110.287 83.352 110.479 83.7614Z" fill="#F0B83D"/>
<path d="M107.212 84.1998C107.212 84.544 107.773 84.6707 107.65 85.0475C107.052 85.4569 106.266 85.3953 105.64 85.1127C104.915 84.765 104.477 83.9172 104.129 83.2253C104.792 82.8159 105.136 83.1927 105.89 83.1637C106.393 83.3811 106.864 83.7289 107.212 84.1998Z" fill="#F0B83D"/>
<path d="M93.9166 84.7324V84.9244C92.7247 85.2069 91.214 85.3627 90.4604 84.265C90.3336 83.9499 90.4278 83.5731 90.5836 83.2869C91.9385 82.6276 93.0978 83.6347 93.9166 84.7324Z" fill="#F0B83D"/>
<path d="M96.2097 64.7784C96.3981 65.1226 96.0866 65.6588 96.4633 65.9087C97.2458 65.8145 98.5681 66.4449 98.8797 65.3762V64.84C99.4484 64.6516 100.14 64.7169 100.734 64.7784C100.988 65.1226 100.673 65.8797 101.238 65.9087C101.897 65.6261 103.093 66.2565 103.343 65.3762V64.7784C104.1 64.4633 104.977 64.84 105.763 64.7168C105.922 64.9668 106.045 65.282 105.89 65.5646C105.545 65.6877 105.042 65.5646 104.915 66.0355C104.915 66.5681 104.538 67.039 104.129 67.26C103.785 67.5752 102.999 67.1658 103.031 67.8578C102.966 68.1113 103.125 68.4229 102.872 68.5823C100.955 68.7996 98.818 68.6765 96.9958 68.5171C96.7458 68.2055 97.0285 67.5136 96.3981 67.3252C95.8656 67.1658 95.141 67.26 94.8294 66.6949C94.7352 66.3797 94.7968 66.0355 94.4527 65.8145C94.2606 65.6587 93.9166 65.9087 93.7898 65.6261C93.4456 64.0865 95.4562 64.7784 96.2097 64.7784" fill="#BBBDBF"/>
<path d="M102.81 69.8684C102.683 70.2778 103.187 71.2522 102.372 71.0639L97.34 71.0023C97.0284 70.6219 97.311 70.151 97.34 69.7452C98.9738 69.651 100.923 69.651 102.683 69.7452L102.81 69.8684" fill="#BBBDBF"/>
<path d="M102.872 71.9768L103.031 76.5632C101.394 76.6248 99.1656 76.5632 97.0571 76.5016C97.1223 74.9909 96.9014 73.1071 97.2455 71.7232L97.4665 71.5964L102.683 71.6616L102.872 71.9768" fill="#BBBDBF"/>
<path d="M103.47 77.2225C103.785 77.726 103.564 78.4796 103.72 79.0447L103.47 79.1715L96.3367 79.1063C96.2099 78.5122 96.3367 77.8528 96.4635 77.2877C98.9451 77.0051 101.082 77.2551 103.47 77.2225" fill="#BBBDBF"/>
<path d="M104.444 80.2075C104.632 80.5553 104.632 81.153 104.444 81.4646C101.586 81.3088 98.4087 81.5298 95.4888 81.2762C95.3294 80.961 95.4888 80.4937 95.612 80.1459C98.6297 80.0518 101.647 80.0517 104.444 80.2075" fill="#BBBDBF"/>
<path d="M95.8326 57.6453C95.329 58.2105 96.5245 58.9966 95.55 59.0256C95.3001 57.7721 93.4453 59.1524 93.9162 57.5801C93.7894 57.3301 93.2243 57.3628 93.3511 57.0802C93.6662 56.986 94.0104 56.7324 94.1988 56.4172C93.8546 55.7579 93.1916 56.6998 92.8185 56.2941C92.9127 56.2941 93.6663 56.3556 93.8546 55.9463C93.7894 55.2254 92.8474 55.7579 92.4055 55.5079L92.2823 55.6963C92.0613 54.6892 92.6591 53.9031 92.5649 53.0264C92.3113 52.7112 92.6917 52.4902 92.7533 52.2402C93.38 54.1566 96.4304 55.2869 95.8326 57.6453" fill="#F0B83D"/>
<path d="M109.567 57.3301C109.632 57.6127 109.473 57.9895 109.223 58.243C108.686 58.714 107.679 58.5872 107.524 59.3407C108.092 59.8117 108.498 59.1233 109.034 59.0907C109.473 59.1233 109.911 59.0581 110.288 58.8371C110.791 58.3988 110.951 57.8337 111.201 57.2685C111.356 57.1417 111.577 57.2033 111.766 57.2033C110.98 58.1162 112.048 59.9059 110.668 60.471C110.226 60.663 109.567 60.5688 109.157 60.221C108.875 59.9385 108.625 59.5943 108.248 59.6233C107.871 60.2862 109.063 60.6304 108.969 61.3223C109.063 61.9491 108.781 62.5178 108.248 62.8294H107.335C107.65 62.641 108.183 62.5794 108.371 62.1085C108.654 61.4781 108.154 61.0072 108.06 60.471C107.585 59.8769 106.799 59.6233 106.234 59.7501C105.357 59.9711 104.256 60.442 104.068 61.4455C103.941 62.17 103.941 63.1446 103.879 63.7423C103.343 62.7968 103.408 61.3513 104.068 60.4094C104.477 59.6559 105.513 59.8769 105.701 58.964C106.737 57.9894 108.687 58.5872 109.157 56.9207C109.407 56.9207 109.407 57.2033 109.567 57.3301" fill="#F0B83D"/>
<path d="M97.1228 59.5002C97.0286 59.9385 96.746 60.5689 97.1228 60.9746C97.5937 61.0398 97.7822 60.4421 98.1915 60.2863L99.6043 60.0001C98.974 60.4095 98.3799 61.0398 97.7206 61.384C97.4996 61.5108 97.4343 61.1956 97.246 61.1956C96.8728 61.4166 96.9671 62.0144 96.4635 62.1701C96.6193 61.8876 96.7751 61.5434 96.6809 61.2572C96.5867 61.1956 96.5251 61.0688 96.3983 61.134C96.0542 61.4456 96.0541 61.8876 95.6774 62.1701C95.5832 61.9817 95.6774 61.605 95.3622 61.4456C94.8296 61.5108 95.1086 62.8947 94.4529 62.0433C94.1051 62.0143 93.9494 62.4527 93.6668 62.5469C93.79 62.4527 93.7899 61.9201 93.4132 61.8549L92.7538 62.3585L92.6922 61.7608C92.1887 61.5434 91.8736 62.1701 91.4968 62.3585C91.3084 62.0143 92.6306 61.7934 91.9061 61.3224C91.4967 61.2572 91.3084 61.7608 90.9316 61.7608C91.12 61.163 91.8445 61.384 92.0329 60.8514C92.5944 61.1956 93.4458 61.0688 93.9784 60.7247C94.7971 59.7828 96.0215 59.5292 97.1228 59.5002" fill="#F0B83D"/>
<path d="M100.673 60.8515C100.484 61.5434 100.423 62.6411 100.734 63.333V63.804C99.8866 63.9598 98.7237 63.7424 98.0933 63.9924C97.9375 64.4343 98.1585 64.7785 97.9086 65.1879L97.1224 65.1226C96.8724 64.7169 97.4051 63.9598 96.6805 63.804C96.5247 63.8656 96.2748 63.8656 96.148 63.6772C96.0864 63.1121 96.6188 62.9853 96.9956 62.7679C97.5933 62.0144 98.5353 61.7608 99.1656 61.0688C99.6655 60.9746 100.108 60.5689 100.39 60.0653C101.02 60.0327 100.484 60.5689 100.673 60.8515Z" fill="#F0B83D"/>
<path d="M103.154 49.8202C103.375 49.6934 103.343 49.3493 103.658 49.4724C104.288 49.8818 103.94 51.2983 105.042 50.9179C105.418 51.5772 103.69 51.4541 104.382 52.2402C104.6 52.175 104.915 52.1134 104.976 52.4286C104.947 52.7438 105.042 53.1821 104.665 53.2763H104.505C104.505 53.0263 104.853 52.7112 104.444 52.5518C104.161 52.4902 104.067 52.7112 103.94 52.4286C103.973 52.2692 104.256 52.1134 104.067 51.8924C103.719 51.8308 103.408 51.2331 103.031 51.6424C102.81 51.5157 102.937 51.1389 102.622 51.1715C102.372 51.1063 102.089 51.2983 101.897 51.5157C101.803 50.7006 101.741 50.0376 101.962 49.1573C102.433 49.2551 102.683 49.7876 103.154 49.8202Z" fill="#F0B83D"/>
<path d="M92.4058 51.0447C91.6523 51.3273 92.5652 52.175 91.9059 52.5518C91.9385 53.088 92.0944 53.5263 91.7792 54.0009C91.3082 53.6857 91.0872 53.1205 90.8662 52.617C91.0582 51.9866 91.214 51.2657 91.6198 50.7948L91.7792 50.3202C92.0944 50.418 92.1885 50.8238 92.4058 51.0447Z" fill="#F0B83D"/>
<path d="M100.517 51.3272C100.517 51.4214 100.517 51.6714 100.734 51.7656H100.923C100.988 51.9576 100.734 51.925 100.734 52.0808C100.706 52.3959 100.956 52.6785 101.238 52.7437C101.459 52.7727 101.615 52.7437 101.771 52.6169C101.521 52.7111 101.176 52.9937 100.861 52.8669C100.39 52.6495 100.988 51.8308 100.329 51.7656C99.8868 52.146 100.14 52.8669 99.8252 53.2147C99.6984 53.7472 99.1948 54.2182 99.481 54.8485C99.3216 55.4752 98.7565 55.5404 98.2529 55.7578C97.6878 55.8846 97.0901 55.8846 96.6191 56.1346C96.8401 54.8159 98.7565 55.381 99.1007 54.0008C98.6623 53.653 98.3181 54.3124 97.9088 54.4391L97.2458 54.6601C97.1842 54.3449 97.4668 54.0624 97.6552 53.8088C98.0319 53.6856 98.4739 53.2437 98.8797 53.5262C99.2275 53.4972 99.0681 53.0553 99.0391 52.8669C98.695 52.5517 98.8181 52.146 98.9739 51.7656L99.1007 51.6424C99.2601 51.8924 99.51 52.146 99.8252 52.175C100.202 51.7982 99.5716 51.1388 100.075 50.7295C100.329 50.9179 100.796 50.8237 100.517 51.3272" fill="#F0B83D"/>
<path d="M100.611 55.9462C100.108 56.6092 99.6657 57.1417 99.6657 57.9279C99.7925 58.0836 99.952 58.1488 100.14 58.1162C99.6984 59.1234 98.5355 58.964 97.8435 59.6233C97.8761 58.714 99.289 58.3046 99.3542 57.2685C99.26 57.1417 99.1659 57.1091 99.0391 57.1417C98.5066 57.7721 97.8145 58.3988 97.34 59.0907C96.9668 58.272 98.7565 57.6453 98.5065 56.4172C99.2891 56.5114 99.8868 54.7544 100.611 55.9462" fill="#F0B83D"/>
<path d="M97.7821 56.544C98.0031 57.4569 96.7461 57.801 96.5541 58.5546C96.2425 58.1488 96.3041 57.801 96.4635 57.2685C96.6519 56.6997 97.246 56.5766 97.7821 56.544Z" fill="#F0B83D"/>
<path d="M101.77 54.3125C101.741 54.4719 101.586 54.5334 101.52 54.6602H101.238C101.176 54.4718 101.365 54.374 101.394 54.2508C101.52 54.2798 101.676 54.2183 101.77 54.3125Z" fill="#F0B83D"/>
<path d="M104.19 54.9718C104.288 55.1601 104.067 55.1601 104.005 55.2253C103.658 55.2253 103.629 54.8486 103.531 54.595C103.531 54.4718 103.563 54.2508 103.719 54.3124C103.719 54.595 103.94 54.8776 104.19 54.9718" fill="#F0B83D"/>
<path d="M103.219 55.4463C103.502 55.6963 103.752 55.9463 103.719 56.3556C103.69 56.323 103.658 56.2614 103.596 56.2941C103.563 56.4824 103.719 56.6708 103.469 56.8592C103.125 56.5114 103.375 55.6311 102.745 55.4463C102.339 55.7253 102.716 56.1673 102.683 56.544C102.401 56.2288 101.77 56.0731 102.024 55.5695C102.339 55.3811 102.466 54.8776 102.871 54.7834L103.219 55.4463" fill="#F0B83D"/>
<path d="M102.18 57.5801C101.869 57.2976 101.963 56.8592 101.586 56.6093C101.897 56.765 102.213 57.1744 102.18 57.5801Z" fill="#F0B83D"/>
<path d="M101.586 58.5546L101.394 58.964C101.553 58.3047 100.296 57.7721 101.303 57.2686C101.488 57.6743 101.771 58.1163 101.586 58.5546Z" fill="#F0B83D"/>
<path d="M100.763 54.0299L100.474 53.8125C100.474 53.8125 100.397 54.0661 100.542 54.2508C100.691 54.432 100.763 54.0299 100.763 54.0299" fill="#F0B83D"/>
<path fill-rule="evenodd" clip-rule="evenodd" d="M102.43 53.769C102.43 53.769 102.807 53.4864 103.104 53.4792C102.999 53.49 102.687 53.5009 102.687 53.5009C102.687 53.5009 102.539 53.2618 102.539 52.8053C102.448 53.3017 102.3 53.6096 102.3 53.6096L102.43 53.769Z" fill="#F0B83D"/>
<path d="M135.839 68.1113C137.19 68.5171 138.447 69.9336 138.918 71.2522C139.831 74.7735 139.516 78.7331 136.436 81.0553C135.527 81.2763 134.303 81.0553 133.89 82.0624C133.984 82.4718 134.426 82.0624 134.614 82.3776C133.545 82.2508 132.633 83.0043 131.912 83.823C131.847 84.1672 131.535 84.515 131.658 84.8591C131.031 85.3953 130.528 85.993 130.622 86.8081C130.687 86.9349 130.81 86.9676 130.937 86.9676C130.466 87.6269 130.151 88.5362 130.56 89.2281C130.622 89.3223 130.687 89.4165 130.81 89.3839C131.22 88.663 131.723 88.1594 132.506 87.9384H133.48C132.633 88.192 131.596 88.5362 131.281 89.5107C130.876 90.2642 130.876 91.2387 131.281 91.9922C132.035 93.0609 133.296 93.7529 134.741 93.6297L135.397 93.4377C135.462 94.6658 136.154 96.1729 135.053 97.0858C133.828 98.4986 132.067 98.687 130.405 99.0638C130.339 99.1254 130.213 99.1906 130.213 99.3138C130.687 99.6941 131.249 99.158 131.846 99.2522C133.296 98.8138 134.741 98.4045 135.839 97.1474C136.183 97.9661 136.563 99.0638 136.027 99.9115C135.397 100.636 134.52 101.357 133.607 101.672C131.408 102.712 128.738 103.244 126.159 102.835H125.97C125.847 102.679 125.532 102.679 125.311 102.585C125.09 102.27 124.431 102.491 124.463 101.987C126.568 101.516 128.706 100.415 129.713 98.4045C130.307 97.4299 132.067 98.0277 132.194 96.488C131.847 96.2381 131.535 96.709 131.187 96.8322C130.434 97.0242 129.836 97.3032 129.05 97.1474C128.108 97.5241 127.637 98.5639 127.419 99.4406C127.01 99.4732 126.818 99.9441 126.507 100.1C126.036 99.4116 125.561 100.542 125.061 100.636C124.587 100.763 124.304 100.665 123.866 100.89C122.67 101.611 120.942 102.176 120.536 103.748C120.66 105.132 119.529 106.262 119.968 107.487C120.094 108.809 121.384 110.157 120.344 111.479C120.221 111.761 120.536 111.979 120.725 112.011C121.13 111.856 121.163 112.265 121.323 112.453C121.855 113.08 122.609 113.584 123.239 114.149C122.514 114.21 121.822 113.616 121.384 113.113C121.29 113.207 121.065 113.207 121.065 113.363C121.54 114.181 121.917 115.279 122.891 115.594C123.018 115.688 122.924 115.877 123.079 115.909C123.145 115.565 123.55 115.783 123.742 115.783C123.804 115.877 123.898 115.909 123.866 116.004C122.388 116.413 121.855 114.808 121.13 113.899C121.163 113.616 121.036 113.363 120.819 113.239C120.536 113.239 120.221 113.239 120.156 113.489C120.471 115.062 120.909 116.728 122.293 117.891C120.536 117.101 120.692 114.996 119.873 113.584C119.685 113.489 119.529 113.71 119.497 113.834C119.562 115.438 119.75 117.007 120.471 118.329C119.464 118.141 119.402 116.978 119.181 116.192C119.026 114.37 119.594 112.609 118.837 111.008C118.87 109.091 119.087 106.827 118.649 104.878C118.808 104.031 118.776 103.089 119.181 102.331C119.906 101.39 120.631 100.48 121.507 99.6941L121.605 99.7557L121.855 99.2522L124.873 96.2381C125.028 94.9484 124.586 93.4087 124.934 92.0575C124.934 91.8365 125.311 91.5865 124.996 91.3981C124.463 91.6155 124.398 92.2458 124.213 92.7168C124.083 93.9413 124.463 95.1368 123.866 96.1729C123.395 96.3939 123.206 96.1403 123.079 95.7019C123.079 94.7274 122.797 93.8471 123.079 92.9704C123.112 92.7458 123.047 92.5574 122.891 92.369C122.232 92.5284 122.547 93.3145 122.388 93.7529V97.209C121.634 94.318 121.855 91.2387 123.677 88.7246C124.398 84.8917 127.481 81.1531 131.125 79.5482C131.817 79.2983 132.506 78.2586 133.295 78.9831C133.419 78.9831 133.545 78.9505 133.607 78.8563C133.669 78.5737 133.357 78.6389 133.295 78.4469C133.766 78.0086 134.393 78.7947 135.118 78.5121C135.241 78.4795 135.179 78.3527 135.179 78.2585C134.958 78.0702 134.676 78.1028 134.455 77.8528C135.147 78.0702 135.933 77.8202 136.31 77.3492C135.965 77.1283 135.621 77.505 135.339 77.2225C135.527 76.8167 136.027 76.3747 136.436 76.027C136.846 75.1177 137.755 74.2373 137.411 73.1686C136.907 73.3244 137.001 73.9548 136.813 74.3315C136.498 74.7409 136.469 75.4002 135.839 75.4944C135.306 75.4944 134.864 75.4618 134.455 75.9654C133.955 75.556 133.575 76.5015 133.042 76.1538C132.035 75.9364 132.162 74.6793 131.347 74.2699C130.905 74.7409 131.658 75.777 130.687 75.9038C130.213 75.998 129.68 76.1864 129.488 76.6899C129.521 77.2877 129.553 77.947 128.926 78.197L128.706 78.1354C128.927 77.726 129.271 77.2877 129.05 76.7515C128.988 76.4073 128.579 76.2479 128.329 76.0922C127.01 75.9364 126.224 78.3527 124.934 76.8167C124.717 73.2013 129.177 72.071 130.278 69.1148C131.281 68.1729 132.444 67.1042 133.89 67.1984C134.487 67.5752 134.991 68.2345 135.839 68.1113" fill="#BBBDBF"/>
<path d="M137.095 102.9C134.896 105.288 131.846 106.262 128.705 106.041C127.919 105.885 127.383 105.664 126.629 105.382C125.814 104.972 125.531 104.092 125.122 103.368C128.517 104.092 131.973 103.4 134.74 101.734C135.367 101.201 136.026 100.698 136.686 100.165C137.001 101.013 137.722 101.987 137.095 102.9" fill="#BBBDBF"/>
<path d="M138.32 104.031C138.573 104.469 138.541 105.099 138.447 105.603C137.411 107.519 135.208 108.302 133.168 108.649C130.937 108.617 128.013 109.153 127.071 106.451L127.01 106.385C127.608 106.324 128.423 106.795 129.238 106.7C132.476 106.954 135.621 105.603 137.661 103.183C138.164 103.244 138.037 103.781 138.32 104.031" fill="#BBBDBF"/>
<path d="M139.643 107.237C139.893 108.179 139.106 108.711 138.73 109.374C136.437 111.102 132.915 112.265 130.213 110.631C129.869 110.128 129.459 109.657 129.177 109.12C130.655 109.247 132.604 109.751 134.205 109.186C135.651 108.87 136.875 108.117 138.071 107.171C138.386 106.827 138.701 106.291 139.106 106.168L139.643 107.237" fill="#BBBDBF"/>
<path d="M140.679 109.907C140.429 111.573 138.541 112.924 137.034 113.363C135.527 113.805 133.513 114.055 132.259 112.924L131.473 112.011C132.727 111.979 134.487 112.138 135.777 111.606C136.78 111.385 137.788 110.693 138.729 110.157C139.266 109.686 139.548 108.965 140.175 108.588C140.458 108.965 140.429 109.497 140.679 109.907" fill="#BBBDBF"/>
<path d="M141.341 111.856C141.591 112.576 141.464 113.489 140.928 114.026C139.674 115.721 137.537 116.225 135.461 115.848C134.614 115.594 134.077 115.123 133.545 114.431C136.374 114.747 139.577 113.772 140.866 111.008C141.182 111.131 141.149 111.606 141.341 111.856" fill="#BBBDBF"/>
<path d="M141.715 116.254C140.523 117.793 138.32 117.953 136.625 117.637C136.154 117.449 135.838 116.978 135.588 116.569C137.911 116.917 140.49 116.098 141.812 113.899C142.156 114.587 142.218 115.594 141.715 116.254" fill="#BBBDBF"/>
<path d="M142.189 118.739C140.929 119.619 139.045 119.869 137.599 119.271C137.255 119.144 137.223 118.739 137.034 118.485C138.889 118.55 141.026 118.329 142.251 116.569C142.533 117.199 142.595 118.174 142.189 118.739" fill="#BBBDBF"/>
<path d="M141.997 121.094C141.027 121.691 139.487 121.63 138.386 121.159C138.197 120.873 137.882 120.561 138.009 120.246C139.548 120.528 141.117 120.119 142.378 119.333C142.251 119.775 142.66 120.749 141.997 121.094" fill="#BBBDBF"/>
<path d="M141.87 122.793C140.994 123.513 139.61 123.358 138.668 122.919C138.291 122.633 138.418 122.383 138.385 121.941C139.454 122.256 141.026 122.51 142.062 121.753C142.091 122.068 142.03 122.477 141.87 122.793" fill="#BBBDBF"/>
<path d="M141.526 123.702C141.371 124.332 141.027 124.865 140.679 125.401C139.958 125.528 139.106 125.557 138.606 124.959C138.418 124.488 138.164 124.144 138.447 123.64C139.422 123.955 140.556 124.173 141.526 123.702" fill="#BBBDBF"/>
<path d="M139.454 126.06C139.704 125.872 140.049 125.933 140.302 125.995C138.951 127.85 137.096 129.266 134.991 129.643C133.513 129.61 132.068 130.176 131.064 128.951C130.876 128.48 131.093 128.009 131.408 127.632C133.104 126.375 135.118 126.375 137.034 125.589L137.096 125.683C136.658 126.564 135.683 127.317 134.864 127.821V128.009C135.745 128.292 136.277 127.317 137.096 127.158C137.19 127.694 137.788 127.694 138.136 127.756C138.197 127.694 138.32 127.632 138.32 127.506C137.98 127.256 137.567 127.129 137.473 126.658C137.632 126.187 137.694 125.683 138.136 125.336C138.418 125.778 138.951 125.966 139.454 126.06" fill="#BBBDBF"/>
<path d="M132.821 65.503L132.444 65.1226L132.259 65.3762C132.35 65.4378 132.288 65.5646 132.321 65.6262C132.1 65.061 131.911 64.4017 131.973 63.8039C132.415 64.3075 132.759 64.84 132.821 65.503" fill="#BBBDBF"/>
<path d="M131.346 66.0971C131.408 66.2239 130.966 65.8472 130.875 66.2239V66.5391C130.593 66.2239 130.306 65.8146 130.498 65.3762C130.843 65.4378 131.187 65.753 131.346 66.0971Z" fill="#BBBDBF"/>
<path d="M120.283 92.9705C120.471 94.3833 121.163 95.5752 121.446 96.9591C120.819 97.4952 120 96.6439 119.562 97.4952C118.526 98.7813 120.066 100.919 118.461 101.987C117.548 103.969 118.178 106.48 118.24 108.4C118.022 109.845 118.051 111.508 118.526 113.051C117.077 107.266 114.28 101.107 116.889 95.1368C117.58 94.0065 118.682 92.7784 120.095 92.7784L120.283 92.9705" fill="#F0B83D"/>
<path d="M135.839 64.7169C136.027 65.3436 135.208 65.9087 135.777 66.2855C136.469 65.7856 136.436 64.4633 137.538 64.4017C137.538 65.1226 137.096 65.8146 136.969 66.5391L137.096 66.6949C137.882 66.2239 137.882 65.1879 138.856 65.0285C138.918 65.8472 138.32 66.5391 138.07 67.26C138.574 67.481 138.729 66.8217 139.171 66.6007C139.454 66.5065 139.675 66.2565 140.019 66.3507C139.769 67.0101 138.889 67.481 139.045 68.173C139.675 68.173 139.958 67.1369 140.679 67.1985C140.363 67.8904 139.36 68.2671 139.642 69.0207C140.331 68.8939 140.678 67.952 141.465 68.1114C141.276 68.7707 139.925 69.2091 140.363 70.0278C140.838 69.901 141.15 69.3032 141.715 69.43C141.244 69.8068 140.302 70.2162 140.49 70.9371C141.182 70.7487 141.747 69.901 142.501 70.2162C142.41 70.4335 141.997 70.5313 142.062 70.8755C142.124 71.2197 142.501 71.1255 142.722 71.3138C142.189 71.0313 141.62 71.2849 141.211 71.5964C141.341 72.1 141.936 71.6616 142.189 71.9768C142.03 72.0384 141.812 71.9768 141.715 72.1652C141.87 72.6361 142.472 72.7593 142.972 72.7593C143.508 73.0129 143.758 73.5454 144.011 74.0164C143.131 74.0164 142.754 73.2303 141.936 73.1687C141.747 73.1687 141.653 73.4513 141.812 73.5454C142.533 74.299 143.917 74.7735 143.946 75.9654C143.16 75.5886 142.472 74.9583 141.526 74.9293C141.276 75.556 142.124 75.5887 142.439 75.9038C142.878 76.3132 143.254 76.7515 143.352 77.2877C142.783 76.7225 142.03 76.027 141.211 76.0922C141.088 76.1864 141.149 76.3748 141.149 76.5016C141.244 76.7842 141.559 76.6247 141.715 76.7515C143.066 77.6318 142.848 79.2983 143.446 80.5554C142.124 80.117 142.189 78.4796 140.928 78.0086C140.49 78.447 141.403 78.8563 141.526 79.2983C142.157 80.4286 142.566 82.0008 141.936 83.2253C140.175 84.986 137.505 85.8047 136.969 88.3805C136.183 90.1701 133.451 89.8585 133.545 92.1191C133.103 91.7423 133.386 91.112 133.48 90.6736C134.172 89.3549 136.059 89.8875 136.436 88.442C136.342 88.2863 136.183 88.3152 136.027 88.3152C134.864 89.2571 132.792 89.4817 132.571 91.3329C132.506 91.8075 132.821 92.1517 132.915 92.59C132.321 92.3075 131.879 91.5865 131.785 90.9562C131.846 90.0759 132.259 89.3223 133.103 88.913C134.328 88.5978 135.777 88.3478 136.813 87.3443C136.846 87.2176 136.813 87.0908 136.686 87.0292C135.871 87.3117 134.897 87.5943 134.016 87.2791C133.074 86.9024 132.006 87.3733 131.187 87.8769C131.187 87.3733 131.658 86.9966 132.035 86.6814C133.64 86.0873 135.208 87.1849 136.969 86.9024C137.161 86.714 137.346 86.4604 137.284 86.1163C137.599 85.9931 138.008 85.8337 138.135 85.5185C137.82 85.3627 137.222 85.5185 136.813 85.3953C135.715 84.986 135.81 83.4463 134.455 83.4137H133.295C133.701 83.0369 134.328 83.0369 134.864 83.1637C136.31 83.6673 136.625 85.9605 138.509 85.1128C138.729 84.9534 139.077 85.0475 139.233 84.7324L138.983 84.4824C138.353 84.3882 137.599 84.6382 137.096 84.265C136.498 83.5079 136.436 82.4718 135.527 81.9067C135.998 81.8414 136.498 82.0335 136.969 82.2508C137.849 83.2579 138.824 84.4534 140.302 83.9499C140.49 83.8231 140.773 83.8231 140.928 83.5405L140.867 83.3521C139.958 83.2253 138.541 83.5405 138.07 82.3776C137.911 82.1566 138.07 81.9393 138.135 81.7146C138.791 82.4102 139.798 83.3195 141.026 82.9754C141.341 82.6928 142.03 82.787 142.062 82.1892C141.653 81.6531 141.309 82.345 140.867 82.316C140.331 82.345 139.798 82.316 139.454 81.9067C138.791 80.2076 140.838 79.1389 140.617 77.3493C141.276 73.8606 140.457 69.5858 137.161 67.3868C136.309 66.9159 135.397 66.5065 134.455 66.2239C134.205 65.7204 134.897 65.3762 135.118 65.0285C135.208 64.6843 135.462 64.3691 135.397 63.9308C135.621 64.0865 135.744 64.4343 135.839 64.7169Z" fill="#F0B83D"/>
<path d="M136.027 86.1162C134.708 86.493 133.607 84.3882 132.035 85.2359C132.632 84.5766 133.545 84.6381 134.328 84.7975C135.023 85.0475 135.241 86.0546 136.027 86.1162" fill="#F0B83D"/>
<path d="M138.258 94.0681C138.037 95.01 137.537 96.3939 138.197 97.3358C138.479 97.9661 139.045 98.4045 139.515 98.8464C139.016 99.6941 138.574 100.73 139.233 101.611C139.642 102.364 141.182 102.397 140.24 103.433C139.986 103.998 140.019 104.469 140.019 105.132C138.291 101.328 136.657 97.209 136.874 92.8436C137.284 93.2819 137.722 93.8797 138.258 94.0681" fill="#F0B83D"/>
<path d="M142.062 107.487C141.936 108.24 141.211 108.899 141.653 109.718C141.997 110.345 142.566 110.914 143.16 111.225C142.877 111.761 142.722 112.388 142.501 112.99C141.685 110.725 141.276 108.273 140.363 106.041C140.838 106.639 141.497 107.016 142.062 107.487Z" fill="#F0B83D"/>
<path d="M143.696 115.533L143.037 116.254C142.877 115.627 142.848 114.935 142.783 114.276C143.008 114.841 143.508 114.935 143.696 115.533" fill="#F0B83D"/>
<path fill-rule="evenodd" clip-rule="evenodd" d="M119.598 91.8727C119.395 91.9343 119.83 91.5576 119.859 91.3257C119.888 91.0902 120.004 91.8474 120.004 91.8474C120.004 91.8474 119.801 91.8184 119.598 91.8727" fill="#231F20"/>
<path d="M131.535 86.3082L131.785 86.1162H131.973L131.535 86.3082Z" fill="#BBBDBF"/>
<path d="M135.241 91.2713C135.491 91.7096 135.338 92.2748 135.396 92.7783C135.208 93.0609 134.929 92.7783 134.741 92.7783C134.36 92.5284 134.143 92.09 134.328 91.6481C134.487 91.4271 134.552 91.0829 134.802 90.9561C135.117 90.8293 135.085 91.2387 135.241 91.2713" fill="#F0B83D"/>
<path d="M133.103 69.5568C133.451 69.43 133.86 69.5241 134.143 69.7451C134.302 70.0893 133.889 70.1219 133.766 70.2777C132.444 70.5929 131.408 71.9767 129.901 71.2522C129.962 70.9044 130.245 70.6218 130.404 70.2777C130.654 69.9335 130.998 69.6183 131.408 69.4915C131.973 69.5241 132.603 70.3393 133.103 69.5568" fill="#231F20"/>
<path d="M142.377 109.059C142.123 108.207 144.42 106.983 142.377 106.827C141.997 106.574 141.526 106.324 141.341 105.853C142.565 105.57 143.819 105.382 145.141 105.255C145.329 105.382 145.612 105.32 145.768 105.538C146.145 105.726 146.05 106.291 145.989 106.639C145.645 106.983 145.264 107.425 144.92 107.613C144.92 107.74 144.67 107.929 144.92 108.023C144.159 108.486 142.627 108.997 142.377 109.059" fill="#BBBDBF"/>
<path d="M146.902 89.5759C147.5 90.17 147.906 90.9561 148.724 91.3329C148.913 91.3039 149.007 91.1119 149.069 90.9561C149.92 91.9306 150.264 93.2819 150.768 94.4774C150.894 94.4774 151.05 94.51 151.144 94.3506C151.489 95.2599 151.271 96.0786 151.329 97.1473C151.96 98.1834 151.554 99.5999 151.206 100.636C150.985 101.516 149.92 101.705 149.699 102.585C150.014 102.962 150.264 102.585 150.608 102.52C151.362 102.397 151.931 102.679 152.463 103.056C152.213 103.842 151.71 104.69 150.894 105.067C150.706 105.132 150.641 105.32 150.706 105.538C151.329 106.012 152.246 105.82 152.778 106.574C153.438 107.266 153.688 108.117 154.035 108.932C153.409 109.247 154.068 109.812 153.974 110.283C153.876 111.008 154.851 111.917 154.035 112.515C153.814 113.334 153.532 114.12 153.564 114.996C152.872 115.815 152.651 116.822 151.615 117.293C151.05 117.637 150.514 118.235 150.108 118.739C149.793 118.108 150.391 117.42 150.358 116.696C150.829 115.185 151.771 113.71 151.144 111.95C150.735 110.316 149.351 109.059 147.75 108.649C146.178 108.461 144.544 108.461 143.16 108.87C142.91 108.932 142.627 108.997 142.377 109.059C143.602 108.606 144.142 108.36 144.921 108.023C145.613 107.548 146.62 107.11 146.775 106.168C146.681 105.788 146.649 105.349 146.431 105.005C145.645 104.28 144.765 104.751 143.819 104.596L142.439 104.751C144.921 103.089 146.808 100.353 147.279 97.3357C147.591 94.7926 147.025 92.0574 146.775 89.5759H146.902" fill="#F0B83D"/>
<path d="M148.065 91.5213C149.228 94.9773 148.819 98.9406 147.406 102.114C147.279 102.364 146.997 102.679 146.714 102.458C146.493 101.955 146.964 101.422 147.214 100.948C148.16 98.4044 148.786 95.4809 147.939 92.7168C147.783 92.2748 147.656 91.8074 147.812 91.3329C147.906 91.3329 148 91.4597 148.065 91.5213" fill="#231F20"/>
<path d="M150.297 96.5496V96.7706H150.108V96.4265C150.199 96.4265 150.297 96.4554 150.297 96.5496Z" fill="#231F20"/>
<path d="M149.51 101.14C149.039 101.734 148.819 102.712 147.938 102.835C147.562 102.02 148.757 101.672 148.913 100.89C149.605 99.8173 149.76 98.5312 150.043 97.2742L150.231 97.1474C150.297 98.5312 149.92 99.8825 149.51 101.14" fill="#231F20"/>
<path d="M152.34 108.461C153.032 109.595 153.376 111.131 153.032 112.453C152.778 112.109 152.996 111.794 152.84 111.417C152.557 109.812 151.804 108.302 150.297 107.237C150.264 107.016 150.391 106.733 150.706 106.827C151.329 107.266 151.865 107.834 152.34 108.461" fill="#231F20"/>
<path d="M152.054 113.489C151.771 114.935 151.398 116.507 150.608 117.826C150.514 117.764 150.481 117.605 150.481 117.42C150.608 117.101 150.8 116.79 150.829 116.38C151.144 115.25 151.554 114.149 151.681 112.924C151.615 111.508 150.924 110.222 149.92 109.12C149.855 108.965 149.92 108.776 150.108 108.744C151.681 109.783 152.278 111.794 152.054 113.489" fill="#231F20"/>
<path d="M157.082 125.209C157.336 127.285 155.325 129.14 153.814 130.241L152.651 130.962C152.025 129.549 151.488 127.944 151.079 126.375C152.34 125.307 153.941 125.024 155.542 124.615C156.111 124.897 156.738 124.521 157.082 125.209V125.209Z" fill="#00B6F1" stroke="white" stroke-width="0.140902" stroke-miterlimit="3.864"/>
<path d="M160.886 128.103C161.578 131.056 163.527 133.697 162.991 137.059C160.919 141.489 156.046 143.533 151.992 145.42C151.522 145.543 151.08 145.732 150.547 145.732C149.352 142.496 148.442 139.164 147.562 135.802C147.971 135.584 148.66 135.646 149.134 135.331C153.438 133.885 158.405 131.654 160.227 126.908C160.538 127.129 160.669 127.694 160.886 128.103V128.103Z" fill="#00B6F1" stroke="white" stroke-width="0.140902" stroke-miterlimit="3.864"/>
<path d="M143.635 135.331C143.569 135.613 143.254 135.863 143.037 135.99C142.533 136.305 142.063 136.62 141.526 136.838C141.842 136.338 142.816 135.584 143.635 135.331V135.331Z" fill="#00B6F1" stroke="#00B6F1" stroke-width="0.140902" stroke-miterlimit="3.864"/>
<path d="M63.8404 142.341C69.1187 143.88 74.339 145.482 79.8057 146.518C84.142 147.681 88.9495 148.028 93.6662 148.499C100.546 149.38 107.523 148.311 114.058 147.648C119.152 146.927 124.082 145.764 128.926 144.384C134.646 142.779 140.457 141.428 145.453 138.098L146.714 136.649L146.963 136.903C147.905 140.642 149.134 144.257 150.42 147.84C150.735 149.126 151.05 150.825 149.92 151.767C141.309 156.669 131.911 158.962 122.17 161.099C120.188 161.32 118.051 161.729 116.102 162.012C109.034 162.892 101.209 163.077 93.9162 162.892C91.402 162.795 89.1089 162.577 86.6563 162.295C83.0444 162.139 79.6499 161.382 76.1902 160.784C67.1081 158.839 57.9643 156.484 49.9183 151.955C48.9112 151.234 48.6939 150.166 48.8823 149.064C49.8242 145.608 51.1754 142.341 52.1499 138.881C52.3708 138.066 52.5267 137.247 52.936 136.526C55.9537 139.827 59.975 140.957 63.8404 142.341V142.341Z" fill="#00B6F1" stroke="white" stroke-width="0.140902" stroke-miterlimit="3.864"/>
<path d="M136.375 136.838C135.241 137.501 134.049 137.78 132.759 137.689C132.632 137.312 133.23 137.436 133.418 137.186C134.425 136.903 135.273 136.903 136.375 136.838Z" fill="#00B6F1" stroke="#00B6F1" stroke-width="0.140902" stroke-miterlimit="3.864"/>
<path d="M132.035 140.518C131.723 140.674 131.031 140.895 130.404 140.895C130.245 140.707 130.278 140.326 130.278 140.109L132.035 140.518Z" fill="#00B6F1" stroke="#00B6F1" stroke-width="0.140902" stroke-miterlimit="3.864"/>
<path d="M159.129 123.575C160.288 126.187 158.654 128.669 156.832 130.429C154.474 132.501 151.616 133.697 148.725 134.639L147.341 134.827C147.468 134.516 147.091 134.356 147.214 134.041C151.272 132.722 155.481 130.994 157.807 126.846C158.089 126.154 158.155 125.307 157.807 124.615C157.082 123.64 156.046 123.923 155.01 123.955C153.376 124.426 151.742 124.836 150.359 125.872L150.17 126.31C150.8 127.977 151.271 129.676 151.804 131.371C151.489 131.592 151.05 131.748 150.706 131.936C150.014 130.933 149.888 129.549 149.322 128.419C149.261 127.223 147.562 125.683 149.134 124.803C151.489 123.575 154.068 122.633 156.771 122.383C157.618 122.416 158.56 122.76 159.129 123.575" fill="#F0B83D"/>
<path d="M64.815 138.287C65.9453 138.537 67.3908 138.754 68.2385 137.845C68.4921 137.186 67.706 136.87 67.3618 136.588C65.6012 135.74 63.3696 135.834 61.359 135.74C61.0439 135.487 60.7286 135.298 60.4461 134.954C62.8986 134.671 65.507 135.11 67.8328 135.613C68.5863 136.146 69.8108 136.305 70.0028 137.436C70.1586 138.16 69.7818 138.819 69.2131 139.073C67.3908 139.827 65.8222 139.385 63.9022 139.135C62.0184 138.787 60.4171 137.718 59.0006 136.211C57.8993 135.142 56.7074 133.791 55.2004 134.295C54.9178 134.577 54.8816 135.048 55.012 135.425L55.3562 135.99C57.8377 137.939 60.6671 139.008 63.529 139.982C64.5651 140.297 65.6953 140.797 66.8582 141.113C73.8645 142.967 80.4978 145.137 87.9787 145.891C91.087 146.423 94.7024 146.55 97.8433 146.862L97.9701 146.739C107.212 146.768 115.475 145.703 124.083 143.594C125.937 143.094 127.542 142.591 129.426 142.149C133.574 141.113 137.722 139.667 141.653 137.845C142.816 136.965 145.08 136.588 144.736 134.639C144.482 134.135 143.819 134.229 143.352 134.295C140.805 135.425 139.327 138.696 136.498 139.073C134.237 139.323 131.502 140.453 129.836 138.348C129.807 137.812 129.807 137.247 130.151 136.838C131.658 135.396 133.766 135.363 135.777 135.016H139.392C138.791 136.62 136.94 135.519 135.9 135.928C134.52 136.146 132.915 136.178 131.784 137.186C131.658 137.436 131.44 137.78 131.723 138.033C133.263 139.196 135.367 138.16 136.969 137.624C139.798 136.178 141.87 132.157 145.58 133.447C146.051 133.632 146.366 134.168 146.431 134.639C146.399 135.834 145.58 136.87 144.605 137.501C142.471 139.164 139.957 140.077 137.472 141.051C128.955 143.913 119.873 146.047 110.668 147.242C107.994 147.369 105.292 147.775 102.556 147.902C96.0863 147.963 89.7067 147.463 83.3887 146.329C82.8852 146.456 82.4142 146.112 81.8816 146.141C73.6472 144.286 65.4454 142.496 57.7761 139.073C55.9829 138.033 52.9688 136.776 53.3745 134.168C53.7513 133.447 54.4432 133.161 55.2004 133.005C59.0948 133.132 61.1054 137.624 64.815 138.287" fill="#F0B83D"/>
<path d="M48.7266 126.249L47.1543 130.773C45.2053 129.831 43.3831 128.169 42.597 126.06C42.5644 125.622 42.5644 125.147 42.8469 124.803C44.075 124.205 45.4263 124.803 46.5856 125.086C47.3428 125.401 48.0963 125.839 48.7266 126.249Z" fill="#00B6F1" stroke="white" stroke-width="0.140902" stroke-miterlimit="3.864"/>
<path d="M41.0862 129.643C43.9155 133.132 48.1287 134.356 52.0883 135.679C51.9941 136.838 51.458 137.972 51.2081 139.135C50.6429 140.989 50.0451 142.808 49.4474 144.634C49.0706 144.916 49.4474 146.047 48.5997 145.608C44.8575 144.384 41.3072 142.591 38.3547 139.606C37.065 138.16 35.8695 136.37 36.5615 134.418C37.2244 131.936 38.3837 129.643 39.1082 127.158L39.3907 126.658C39.7675 127.727 40.3653 128.763 41.0862 129.643Z" fill="#00B6F1" stroke="white" stroke-width="0.140902" stroke-miterlimit="3.864"/>
<path d="M58.2799 136.776C57.4938 136.465 56.4867 135.929 56.2041 135.204C57.0228 135.458 57.6822 136.178 58.2799 136.776Z" fill="#00B6F1" stroke="#00B6F1" stroke-width="0.140902" stroke-miterlimit="3.864"/>
<path d="M67.0466 137.436C67.0466 137.812 66.5757 137.53 66.3873 137.689C65.507 137.501 64.3441 137.407 63.5869 136.776C64.815 136.838 66.0431 136.838 67.0466 137.436V137.436Z" fill="#00B6F1" stroke="#00B6F1" stroke-width="0.140902" stroke-miterlimit="3.864"/>
<path d="M69.5934 140.044C69.4666 140.326 69.5934 140.768 69.2782 140.895L67.7676 140.453C68.3689 140.265 68.9957 140.203 69.5934 140.044V140.044Z" fill="#00B6F1" stroke="#00B6F1" stroke-width="0.140902" stroke-miterlimit="3.864"/>
<path d="M48.4735 123.64C49.448 124.144 50.5493 124.394 51.3644 125.274C51.1434 126.658 50.455 127.821 50.1073 129.14C49.6689 129.987 49.6364 130.994 49.1328 131.813C48.7271 131.748 48.3177 131.465 48.0351 131.277C48.1293 130.491 48.5061 129.582 48.6618 128.795C49.0096 128.009 49.3863 127.223 49.5747 126.375C49.7631 125.716 49.0096 125.462 48.6003 125.209C46.9012 124.238 44.7964 123.575 42.8474 123.767C42.3764 123.894 41.9054 124.3 41.7496 124.742C41.3729 127.633 44.1045 129.643 46.1803 131.15C48.1583 132.346 50.234 133.193 52.4004 133.918C52.5598 134.135 52.4004 134.516 52.2773 134.766C49.7305 134.262 47.3431 133.288 45.1405 131.936C42.3764 130.397 39.768 127.567 40.239 124.365C40.4274 123.325 41.4345 122.445 42.4706 122.256C44.5754 122.227 46.6186 122.981 48.4735 123.64" fill="#F0B83D"/>
<path d="M52.9908 149.543C53.5415 149.695 53.8095 149.731 54.045 149.155L55.7187 145.011C55.4723 144.21 55.3419 144.127 55.2296 144.08L55.3166 143.862L57.1605 144.609L58.6857 149.568L58.7038 149.572L59.7761 146.923C59.9862 146.398 59.9971 146.068 59.3124 145.728L59.3993 145.514L61.2796 146.271L61.1926 146.489C60.5296 146.315 60.3956 146.496 60.2253 146.916L58.1458 152.064L57.8995 151.963L55.9252 145.652L55.9071 145.645L54.4942 149.144C54.2406 149.775 54.3565 150.014 54.976 150.347L54.8891 150.564L52.9038 149.764L52.9908 149.543" fill="#231F20"/>
<path d="M61.3519 146.329L66.5252 148.01L65.9419 149.814L65.7173 149.742C65.9238 148.398 65.3623 147.97 64.1523 147.576C63.656 147.416 63.4857 147.402 63.3589 147.782L62.6814 149.865C63.54 150.151 64.0762 150.068 64.5725 148.999L64.8044 149.075L63.819 152.108L63.5835 152.031C63.8407 150.876 63.4712 150.459 62.5836 150.169L61.8808 152.339C61.7504 152.734 61.8881 152.897 62.4677 153.086C63.3481 153.372 64.337 153.437 65.3441 152.267L65.5941 152.347L64.6304 154.096L59.3848 152.394L59.4572 152.169C59.9861 152.281 60.2724 152.343 60.4535 151.785L61.8627 147.449C62.0547 146.855 61.6852 146.713 61.2795 146.554L61.3519 146.329" fill="#231F20"/>
<path d="M75.5091 150.427C75.1831 150.38 74.9296 150.553 74.7376 150.869L71.6256 155.977L71.3793 155.915L70.825 151.26L70.7634 151.249L68.0971 155.162L67.8399 155.1L67.1696 149.119C67.1153 148.641 67.0429 148.532 66.6733 148.387L66.7241 148.155L69.4266 148.778L69.3722 149.01C69.0353 148.959 68.7746 148.92 68.6949 149.26C68.6731 149.358 68.6767 149.467 68.6912 149.579L69.0172 153.147L69.0354 153.151L70.7598 150.597L70.6402 149.64C70.5678 149.412 70.4881 149.285 70.0534 149.166L70.1041 148.938L72.9733 149.597L72.9189 149.829C72.5168 149.764 72.2487 149.713 72.1763 150.025C72.1509 150.133 72.1763 150.372 72.1871 150.561L72.4661 153.843L72.4842 153.85L74.2231 150.963C74.2738 150.876 74.3354 150.785 74.3789 150.59C74.4659 150.213 74.1471 150.13 73.8355 150.039L73.8898 149.811L75.5635 150.198L75.5091 150.427" fill="#231F20"/>
<path d="M80.5156 156.223C79.7149 156.886 78.8962 157.357 77.7043 157.168C75.5343 156.824 74.6033 155.111 74.8786 153.372C75.1793 151.481 76.7479 150.242 78.7042 150.55C79.5411 150.684 80.1895 151.253 80.4286 151.292C80.6785 151.332 80.7945 151.151 80.9249 150.93L81.1785 150.97L80.8308 153.151L80.5988 153.111C80.3996 152.252 79.791 151.039 78.7295 150.869C77.371 150.655 76.7805 152.021 76.5306 153.593C76.4436 154.154 76.3603 155.056 76.6066 155.705C76.8928 156.44 77.6066 156.694 77.8964 156.741C78.6209 156.857 79.3635 156.687 80.2728 155.944L80.5156 156.223" fill="#231F20"/>
<path d="M86.4388 158.219L83.4067 157.842L83.4356 157.61C84.0225 157.636 84.1928 157.647 84.229 157.339C84.258 157.089 84.0442 156.357 83.9501 156.042L81.8453 155.785C81.5011 156.426 81.3055 156.788 81.2838 156.94C81.2403 157.295 81.6858 157.379 82.0046 157.433L81.9721 157.668L80.0737 157.437L80.1027 157.201C80.6207 157.19 80.7874 156.889 81.1533 156.223L83.863 151.347L84.124 151.379L85.6056 156.56C85.9027 157.61 86.015 157.947 86.4642 157.984L86.4388 158.219ZM83.8559 155.658L83.1893 153.27L82.03 155.437L83.8559 155.658Z" fill="#231F20"/>
<path d="M91.0723 154.006C90.9492 153.336 90.4601 152.216 89.3515 152.136C88.8588 152.104 88.3227 152.35 88.2792 152.959C88.243 153.47 88.4096 153.687 89.174 154.14L90.5072 154.922C90.8151 155.104 91.4925 155.698 91.42 156.726C91.3621 157.549 90.6811 158.647 88.9494 158.527C88.0546 158.462 87.6561 158.114 87.3626 158.092C87.167 158.078 87.1055 158.244 87.0584 158.393L86.7866 158.375L86.9497 156.053L87.2213 156.071C87.3445 157.034 87.8155 158.132 89.0074 158.219C90.1377 158.295 90.25 157.371 90.2572 157.248C90.3043 156.618 89.8768 156.361 89.2863 156.027L88.6777 155.683C87.1199 154.796 87.1779 153.988 87.2068 153.557C87.2503 152.984 87.6308 151.724 89.4168 151.85C90.1703 151.901 90.5905 152.242 90.8622 152.26C91.0795 152.278 91.1339 152.14 91.1955 151.963L91.4781 151.984L91.3368 154.024L91.0723 154.006" fill="#231F20"/>
<path d="M96.242 158.741L92.88 158.621L92.8873 158.386C93.5793 158.353 93.8038 158.342 93.8328 157.549L94.0067 152.586C93.3474 152.6 92.3729 152.615 92.1301 154.115L91.8584 154.104L91.9526 152.213L97.6077 152.412L97.5606 154.307L97.2853 154.296C97.1512 152.781 96.1803 152.698 95.5319 152.64L95.3579 157.607C95.329 158.404 95.5572 158.433 96.2528 158.502L96.242 158.741Z" fill="#231F20"/>
<path d="M103.325 158.802H97.876V158.567C98.4049 158.502 98.6875 158.473 98.6875 157.9V153.336C98.6875 152.713 98.2998 152.694 97.876 152.669V152.43H101.165V152.669C100.506 152.694 100.216 152.705 100.216 153.535V157.98C100.216 158.433 100.423 158.509 101.053 158.509C102.477 158.509 103.006 157.726 103.437 156.665H103.712L103.325 158.802" fill="#231F20"/>
<path d="M103.52 152.416L108.95 152.133L109.052 154.024L108.816 154.038C108.53 152.709 107.846 152.51 106.578 152.575C106.06 152.604 105.893 152.651 105.911 153.057L106.027 155.238C106.933 155.201 107.4 154.933 107.48 153.756L107.722 153.745L107.889 156.926L107.646 156.937C107.472 155.766 106.976 155.509 106.045 155.56L106.165 157.835C106.186 158.252 106.371 158.357 106.98 158.32C107.903 158.277 108.853 157.98 109.371 156.527L109.635 156.513L109.36 158.491L103.853 158.777L103.839 158.545C104.375 158.458 104.665 158.415 104.636 157.831L104.393 153.278C104.364 152.655 103.966 152.658 103.531 152.651L103.52 152.416" fill="#231F20"/>
<path d="M117.703 151.571C117.196 151.698 116.99 151.825 117.055 152.444L117.37 155.437C117.428 155.987 117.385 156.839 117.037 157.299C116.62 157.857 115.823 158.121 115.258 158.176C114.849 158.219 113.961 158.255 113.295 157.788C112.856 157.473 112.577 157.172 112.469 156.161L112.139 153.028C112.056 152.238 111.813 152.245 111.28 152.245L111.255 152.013L114.425 151.68L114.45 151.912C113.834 152.006 113.544 152.046 113.631 152.872L113.961 156.002C114.015 156.538 114.153 157.828 115.501 157.687C117.153 157.516 117.022 156.078 116.957 155.48L116.656 152.618C116.598 152.046 116.453 151.742 115.642 151.785L115.617 151.553L117.678 151.34L117.703 151.571" fill="#231F20"/>
<path d="M118.649 157.35C119.196 157.194 119.446 157.089 119.351 156.473L118.649 152.06C118.025 151.499 117.873 151.495 117.754 151.517L117.714 151.282L119.681 150.97L123.543 154.437L123.557 154.433L123.112 151.611C123.025 151.053 122.862 150.763 122.101 150.825L122.065 150.593L124.064 150.278L124.101 150.51C123.445 150.698 123.423 150.923 123.496 151.368L124.362 156.853L124.101 156.893L119.159 152.506L119.141 152.51L119.732 156.23C119.837 156.904 120.061 157.049 120.761 157.013L120.797 157.248L118.685 157.581L118.649 157.35" fill="#231F20"/>
<path d="M128.655 155.73L125.427 156.419L125.376 156.187C125.865 156.035 126.217 155.919 126.097 155.35L125.148 150.887C125.018 150.278 124.579 150.351 124.148 150.412L124.101 150.184L127.329 149.496L127.376 149.727C126.948 149.836 126.507 149.941 126.641 150.568L127.59 155.031C127.716 155.622 128.09 155.571 128.604 155.498L128.655 155.73" fill="#231F20"/>
<path d="M133.506 154.466L130.253 155.339L130.195 155.111C130.843 154.875 131.057 154.799 130.854 154.035L129.564 149.235C128.937 149.441 128.01 149.742 128.22 151.245L127.956 151.314L127.496 149.477L132.959 148.014L133.466 149.84L133.201 149.912C132.629 148.503 131.68 148.709 131.042 148.84L132.328 153.64C132.535 154.415 132.759 154.372 133.444 154.238L133.506 154.466" fill="#231F20"/>
<path d="M133.338 147.902L138.479 146.134L139.099 147.927L138.877 147.999C138.233 146.808 137.526 146.8 136.323 147.213C135.831 147.384 135.682 147.474 135.813 147.858L136.526 149.927C137.385 149.64 137.762 149.253 137.515 148.101L137.747 148.021L138.783 151.035L138.552 151.115C138.059 150.039 137.515 149.927 136.631 150.231L137.374 152.386C137.508 152.781 137.715 152.828 138.294 152.629C139.167 152.329 140.001 151.782 140.098 150.242L140.345 150.159L140.627 152.137L135.411 153.93L135.338 153.709C135.824 153.481 136.092 153.357 135.903 152.803L134.418 148.488C134.215 147.902 133.831 148.014 133.414 148.126L133.338 147.902" fill="#231F20"/>
<path d="M141.436 151.532C141.979 151.289 142.037 150.963 141.896 150.648L140.005 146.398C139.773 145.873 139.385 146.025 139.034 146.141L138.936 145.924L141.566 144.757C143.979 143.681 145.428 144.83 146.018 146.155C146.721 147.742 146.392 149.499 144.254 150.535L141.53 151.749L141.436 151.532ZM143.283 150.006C143.439 150.351 143.584 150.47 143.997 150.289C144.961 149.858 145.475 148.97 144.558 146.913C144.207 146.126 143.196 144.38 141.715 145.04C141.16 145.286 141.265 145.496 141.36 145.684L143.283 150.006" fill="#231F20"/>
<path d="M67.9601 69.8683C68.3042 69.5242 68.8078 69.5242 69.2135 69.7452C69.6845 70.1219 70.0322 70.7812 70.3148 71.3138C69.6229 71.2848 68.6484 71.7232 68.0216 71.1906C67.4565 70.6219 66.7646 70.4335 66.0726 70.1509C66.0437 70.0567 65.9458 69.9009 66.0726 69.8067C66.261 69.5568 66.5761 69.5568 66.9203 69.5568C67.2681 69.68 67.5507 70.1509 67.9601 69.8683" fill="#231F20"/>
<path d="M73.836 74.6467C73.8034 74.7409 73.6766 74.7735 73.7092 74.8677C73.9918 74.8351 74.3685 74.8967 74.6221 75.0561C74.9662 75.4002 74.7162 75.8096 74.7162 76.219C74.5279 76.4363 74.1802 76.3747 73.9918 76.2805C73.6766 76.1248 73.7092 75.777 73.4592 75.5886C73.3324 75.7154 73.4266 76.0922 73.144 76.0269C72.8614 75.5886 72.5788 75.1503 72.4194 74.6467C72.5788 74.6793 72.8941 74.8967 73.144 74.7083C73.2998 74.5199 73.5208 74.3641 73.7708 74.3315C73.8976 74.3967 73.836 74.5525 73.836 74.6467Z" fill="#231F20"/>
<path d="M69.4849 71.0312L68.8365 71.1109C68.659 71.1326 68.4488 71.0783 68.2713 70.8936C68.217 70.8465 68.1735 70.7632 68.1011 70.7197C68.1844 70.7088 68.2387 70.6943 68.3039 70.6182C68.3039 70.6182 68.3727 70.9769 68.764 70.9769C69.0393 70.9769 69.1697 70.6871 69.1697 70.6871L69.4849 71.0312Z" fill="white"/>
<path d="M127.608 74.5851H127.793C127.669 74.9909 127.26 75.4329 127.133 75.9038C126.818 75.998 126.818 75.6212 126.757 75.4328C126.539 75.7154 126.474 76.1248 126.097 76.2806C125.847 76.3421 125.626 76.2805 125.438 76.0922C125.561 75.6828 125.155 74.9909 125.782 74.8677C125.938 74.8351 126.097 74.7735 126.286 74.8025L126.441 74.9293C126.539 74.7735 126.318 74.5525 126.347 74.3315C126.912 74.0816 127.104 75.1177 127.608 74.5851" fill="#231F20"/>
<path d="M130.513 70.995C130.513 70.995 130.792 71.1436 131.002 71.1363C131.205 71.1291 131.545 71.0784 131.73 70.9009C131.788 70.8574 131.835 70.7777 131.907 70.7306C131.824 70.7161 131.77 70.7016 131.708 70.6255C131.708 70.6255 131.629 70.9806 131.234 70.9697C130.962 70.9588 130.839 70.6617 130.839 70.6617L130.513 70.995" fill="white"/>
<path d="M68.9955 86.6813C68.713 86.3988 68.3036 86.243 68.021 86.022C68.3978 86.1814 68.7746 86.3988 68.9955 86.6813Z" fill="#BBBDBF"/>
<path d="M65.7282 65.9088V66.2239C63.3408 66.8833 60.6962 68.7707 59.9753 71.3139C58.9066 74.3316 59.0334 78.3854 60.8883 81.0553C60.9825 81.6531 60.7941 82.0335 60.3847 82.316C59.7869 82.5334 58.9682 82.4718 58.4683 82.1277C58.3125 82.0951 58.0879 82.1277 58.0879 82.316C58.1857 83.037 59.0334 83.0044 59.5985 83.1638C60.6056 83.1638 61.5149 82.566 62.0185 81.7147C62.2395 82.0335 62.0475 82.316 62.0185 82.6276C61.4823 83.7615 60.008 83.1928 59.1892 83.6021C59.566 84.4209 60.5405 84.0405 61.1709 84.0731C62.5511 83.7289 62.993 81.6531 64.6269 82.0625C63.2756 82.6602 63.9349 84.765 62.1453 84.7324C61.7033 84.7324 61.2324 84.4208 60.8883 84.7976C61.3592 85.2685 62.1127 85.5185 62.8662 85.3301C64.2211 84.8918 64.6269 82.6276 66.4492 83.2869C66.6049 83.3521 66.7316 83.4789 66.92 83.4789C66.1991 83.4789 65.413 83.4789 64.7537 83.9499C64.1559 84.4824 64.0291 85.6779 62.993 85.5837C62.6489 85.7395 62.1127 85.236 62.0185 85.7721C62.2685 86.2431 63.2756 86.0221 62.9315 86.7466C63.685 87.3733 64.8479 86.9966 65.663 86.8082L65.7282 86.9024C66.1666 86.7756 66.5759 86.5872 67.0468 86.5546C67.7677 86.714 68.6481 86.8408 68.9959 87.6559L69.0901 88.0037C68.1156 87.3733 66.6375 86.9966 65.6014 87.5328C64.7537 87.5617 64.2212 87.3733 63.464 87.1524C63.2756 87.2176 63.2756 87.4386 63.4024 87.5328C64.8769 89.4166 68.9633 88.1269 68.3692 91.5866C68.1446 92.0249 67.833 92.5285 67.362 92.7169C67.6446 92.2133 67.7062 91.5866 67.583 91.0214C67.0143 89.384 65.2247 89.4166 64.0908 88.4421C63.9676 88.4421 63.8734 88.4747 63.7792 88.5978C63.6524 89.1014 64.2791 89.2898 64.5653 89.5107C65.3514 89.9201 66.4817 89.9201 66.8584 91.0214C66.891 91.3656 67.0469 91.8981 66.7317 92.1843C66.7028 91.3982 66.0107 90.4853 65.1594 90.0143C63.9675 89.6665 63.0546 88.663 62.8047 87.4059C61.8628 85.3012 59.3486 85.0802 58.0879 83.2253C57.3018 81.4647 58.2799 79.8309 59.3486 78.5122C59.3486 78.3528 59.316 78.1354 59.1277 78.1354C57.9322 78.639 57.9647 80.3344 56.646 80.6786C57.2727 79.3309 57.0844 77.1935 58.8741 76.7515C58.9393 76.6248 59.0335 76.5306 59.0009 76.3422C58.4683 75.9364 57.8705 76.5632 57.3669 76.8168C57.1134 77.0052 56.9286 77.3493 56.646 77.4109C56.9576 76.69 57.6206 75.8096 58.4067 75.5887C58.5625 75.4945 58.6241 75.3061 58.6857 75.1793C58.3741 74.8967 58.0263 75.1793 57.6821 75.1793L56.2041 76.0922C56.1099 74.8351 57.7148 74.4258 58.3415 73.4223C57.8379 73.2013 57.3018 73.7664 56.7693 73.9548L56.0483 74.1432C56.0773 73.828 56.4866 73.4839 56.7076 73.1687C57.2111 72.8571 57.809 72.7303 58.3415 72.5094C58.4067 72.321 58.2473 72.2268 58.1531 72.1H57.8379C58.1205 71.879 58.7183 72.0384 58.8741 71.7232C58.4683 71.4081 57.9647 71.2197 57.4322 71.3791C57.4322 71.3465 58.1531 71.2849 58.0263 70.8103C57.8705 70.6871 57.7437 70.4661 57.5553 70.4046V70.2778C58.3415 70.0894 58.9682 70.7813 59.5985 71.0639C59.6927 71.0023 59.7253 70.8755 59.7253 70.7487C59.4717 70.151 58.8451 69.901 58.3415 69.5569C58.8125 69.3649 59.2544 69.901 59.7253 70.0894C60.1347 69.2091 58.9067 69.0533 58.6241 68.3288C59.3486 67.9194 59.8195 68.9881 60.4463 69.1765C60.6962 69.0823 60.5405 68.7997 60.5115 68.6439C60.2253 68.1114 59.7253 67.8578 59.4101 67.3253C60.0695 67.1659 60.3847 68.0788 61.0441 68.3288C61.1708 68.1404 61.0441 67.7636 60.8883 67.5426C60.5115 67.26 60.3195 66.7891 60.0405 66.4123C60.8556 66.3508 61.294 67.1985 61.9569 67.4484C61.9895 66.6623 61.0767 66.0682 61.2324 65.1226C62.2396 65.1552 62.3011 66.3797 63.0546 66.7601C63.1814 65.974 62.6163 65.311 62.5221 64.5249C62.8336 64.3365 63.1815 64.7785 63.5292 64.9053C63.9024 65.3436 63.7465 66.5065 64.5653 66.1624C64.3117 65.4704 64.1559 64.5575 64.6884 63.9308C64.8478 64.6227 65.0979 65.4378 65.7282 65.9088" fill="#F0B83D"/>
<path d="M68.0832 85.3301C68.1158 85.3953 67.9274 85.3011 67.7064 85.3301C67.1087 85.1743 66.4168 85.4243 65.8227 85.7105C65.3191 85.9605 64.8482 86.3988 64.312 86.243C65.2575 85.7105 65.9458 84.265 67.518 84.9244L68.0832 85.3301" fill="#F0B83D"/>
<path d="M65.8841 91.6481C65.9783 92.0901 65.9783 92.6515 65.5399 92.8436C65.3515 92.9993 65.1595 93.0609 64.8769 93.0319C64.7537 92.34 64.8154 91.5213 65.3515 91.0829C65.6341 91.1119 65.7573 91.4271 65.8841 91.6481" fill="#F0B83D"/>
<path d="M65.4127 101.734C67.0139 102.773 68.8072 103.621 70.7852 103.621C72.2016 104.06 73.8645 103.654 75.2194 103.494C74.8064 104.784 73.676 105.726 72.419 106.041C69.749 106.451 67.0139 106.074 64.8149 104.596C63.902 103.781 62.5507 102.994 62.9927 101.545C63.2753 101.201 63.2427 100.292 63.8404 100.48C64.3114 101.013 64.8149 101.484 65.4127 101.734" fill="#BBBDBF"/>
<path d="M72.4195 106.762L73.2673 106.451C73.2673 107.016 72.5463 107.425 72.2927 107.961C70.6915 108.965 68.6193 109.12 66.6702 108.744C64.7828 108.334 62.7106 107.642 61.8303 105.788C61.5151 104.911 62.0187 104.06 62.5223 103.368C65.098 106.291 68.7751 107.298 72.4195 106.762" fill="#BBBDBF"/>
<path d="M69.5934 109.53C69.9376 109.403 70.4086 109.468 70.7238 109.436C70.8179 109.403 70.7527 109.276 70.9121 109.309H71.1005C70.5354 110.66 69.2783 111.54 67.8328 111.606C65.4454 111.7 63.2103 111.008 61.4206 109.436C61.1055 108.838 60.3519 108.302 60.6345 107.487C60.9171 107.142 60.8265 106.639 61.2323 106.324C63.3407 108.744 66.3547 110.156 69.5934 109.53" fill="#BBBDBF"/>
<path d="M60.2579 108.87C62.3337 111.573 65.5073 112.548 68.8076 112.138C68.1156 113.457 66.7969 114.055 65.3515 113.96C63.2757 113.931 60.9172 112.989 59.8485 111.008C59.2218 110.254 59.9753 109.657 60.1021 108.87H60.2579Z" fill="#BBBDBF"/>
<path d="M66.7319 114.62C66.1051 115.688 65.1306 116.065 64.0293 116.254C61.9245 116.351 59.8487 115.471 58.8742 113.584C58.6242 112.798 59.0335 111.979 59.2545 111.225C60.7289 113.993 63.7178 114.935 66.7319 114.62" fill="#BBBDBF"/>
<path d="M64.6881 116.851C64.0288 118.329 62.3335 118.014 60.888 117.953C59.6925 117.699 58.4354 116.822 58.1528 115.594C58.2796 115.156 58.1529 114.587 58.468 114.21C59.8483 116.38 62.395 117.134 64.6881 116.851Z" fill="#BBBDBF"/>
<path d="M63.2428 118.739C63.1196 119.115 62.8334 119.554 62.395 119.648C61.3263 120.057 59.9425 119.931 58.8738 119.586C58.5006 119.333 57.9934 119.05 57.8377 118.612C57.6819 118.014 57.8087 117.387 57.9645 116.851C59.1889 118.579 61.2648 118.833 63.2428 118.739" fill="#BBBDBF"/>
<path d="M62.3336 120.499C62.3336 120.905 62.1452 121.22 61.83 121.47C60.9823 121.753 59.7543 122.101 58.8124 121.691C58.374 121.597 58.153 121.22 57.8994 120.905V119.648C59.1275 120.528 60.8266 120.717 62.3336 120.499" fill="#BBBDBF"/>
<path d="M61.9566 122.195C61.9892 122.633 61.9241 123.075 61.4821 123.264C60.5112 123.702 59.3483 123.861 58.468 123.108C58.1529 122.854 58.2796 122.416 58.1528 122.068C59.2831 122.601 60.7611 122.76 61.9566 122.195" fill="#BBBDBF"/>
<path d="M62.0185 124.173C62.1743 124.615 61.7033 124.803 61.7359 125.209C61.3266 125.495 60.9173 125.872 60.3847 125.81C60.1637 125.745 59.8195 125.716 59.537 125.683C59.2834 125.118 58.9067 124.644 58.8125 124.017C59.787 124.521 60.8883 124.267 61.8954 123.955L62.0185 124.173" fill="#BBBDBF"/>
<path d="M62.866 126.781C63.0544 127.632 61.7357 127.317 62.1451 128.009C62.6487 128.169 62.9313 127.821 63.2428 127.567V127.444C64.0289 127.6 64.5941 128.448 65.4128 128.353C65.5396 128.292 65.4744 128.136 65.4744 128.009C64.8477 127.661 64.1558 127.256 63.7174 126.593C63.587 126.343 63.3044 126.154 63.3044 125.872C65.1918 126.846 67.6734 126.499 69.2131 128.169C69.3109 128.48 69.5608 128.951 69.2782 129.266C67.8327 130.552 65.9163 129.86 64.2499 129.581C62.5834 128.922 61.0112 127.756 59.9751 126.249C60.696 126.47 61.6415 126.249 62.1451 125.683C62.5834 125.839 62.6161 126.408 62.866 126.781" fill="#BBBDBF"/>
<path d="M55.3564 108.273L55.4179 108.208C55.0738 107.392 53.6899 107.077 54.226 105.98C54.8817 105.226 55.7006 105.82 56.5809 105.726C57.3018 105.947 58.1531 105.853 58.874 106.041C58.5625 106.889 57.5263 106.983 56.9902 107.548C57.0517 108.24 58.0879 108.494 57.8379 109.309C57.3706 109.106 55.8744 108.439 55.3564 108.273" fill="#BBBDBF"/>
<path d="M68.2387 63.9307C68.2097 64.5574 68.0829 65.0284 67.8945 65.503C67.833 65.6261 68.0213 65.1878 67.7677 65.2494C67.583 65.1552 67.4236 65.3762 67.362 65.503C67.2026 64.9668 67.8619 64.4632 68.0829 63.9307H68.2387" fill="#BBBDBF"/>
<path d="M69.6548 65.4378C69.8105 65.8798 69.5606 66.2855 69.278 66.6007V66.1624H68.8071C69.0245 65.9088 69.278 65.4704 69.6548 65.4378Z" fill="#BBBDBF"/>
<path d="M52.7805 94.2239C52.6211 97.3684 53.0305 100.353 55.2005 102.712C55.983 103.527 56.7691 104.28 57.6821 104.94C56.454 105.034 54.9796 104.44 53.7841 105.193C53.4073 105.603 53.4073 106.262 53.5015 106.762C53.9724 107.519 54.5991 107.961 55.3563 108.273C55.7041 108.298 57.2365 108.918 57.8378 109.309C55.733 108.711 52.8421 108.428 50.8931 109.595C49.1651 110.631 48.7884 112.609 48.9441 114.37C49.2267 116.004 50.1722 117.387 50.1722 119.116C49.1941 117.666 46.9661 117.134 46.5857 115.217C46.6183 114.149 46.3358 113.207 45.8032 112.388C45.9916 111.54 46.18 110.66 46.3684 109.783C46.401 109.562 46.3358 109.374 46.18 109.247H46.1148V109.059C46.6183 107.642 47.6255 106.074 49.3209 105.98C49.886 105.288 48.6326 105.255 48.4116 104.751C48.0348 104.346 47.9406 103.842 47.687 103.368C48.2558 102.9 49.0708 102.618 49.7918 102.9C49.9186 102.962 50.0454 103.089 50.2338 103.056C50.5489 102.9 50.3606 102.647 50.2954 102.458C48.7557 101.484 48.3174 99.5058 48.4732 97.8067C49.1325 96.9916 48.4732 95.7019 48.8826 94.6658C48.9441 94.539 49.0999 94.8542 49.3209 94.7274C49.7629 93.5319 50.2628 92.34 50.8931 91.2061L51.0815 91.1446C51.0815 91.304 51.1431 91.4271 51.3025 91.5213H51.5525L53.2515 89.7607C53.5341 91.2061 52.7479 92.6516 52.7805 94.2239" fill="#F0B83D"/>
<path d="M60.5731 104.469L60.2579 105.255C60.573 104.154 58.7182 102.773 60.5115 102.27C60.9498 101.987 61.1709 101.516 61.3592 101.074C61.765 100.038 59.8196 99.0638 61.3592 98.466C62.3011 97.5857 62.5836 96.1113 62.1453 95.01C61.9569 94.8542 62.0185 94.568 61.8301 94.4158C62.4278 94.0065 62.8989 93.4703 63.4024 92.9052C63.464 97.18 62.2069 100.919 60.5731 104.469Z" fill="#F0B83D"/>
<path d="M52.3384 91.5865C52.2442 93.6913 51.3639 95.8287 52.0884 98.0603C52.2442 99.6289 52.8746 100.98 53.5629 102.331C53.6281 102.552 53.5014 102.741 53.313 102.773C52.8094 102.835 52.7478 102.27 52.5268 101.987C51.1139 98.8138 50.9871 94.9484 52.15 91.5865H52.3384Z" fill="#231F20"/>
<path d="M50.0452 96.8322V97.0242C49.951 97.0242 49.8242 97.0858 49.7916 96.959C49.7626 96.8322 49.7916 96.709 49.9184 96.6438C49.951 96.738 50.0778 96.6764 50.0452 96.8322" fill="#231F20"/>
<path d="M50.1072 97.5567C50.455 99.4405 50.9549 101.266 52.4004 102.712C52.4656 102.9 52.2772 103.056 52.1504 103.118C51.5526 103.056 51.2701 102.397 50.9549 101.987C50.1724 100.665 49.9188 99.0963 49.792 97.4951C49.9188 97.3683 49.984 97.4951 50.1072 97.5567" fill="#231F20"/>
<path d="M49.9183 107.298C49.9183 107.802 49.4148 107.74 49.1938 108.146C47.8136 109.341 47.4041 111.069 47.1542 112.797H47.0274C46.6832 110.41 47.6577 108.334 49.5089 107.11C49.6973 107.048 49.7915 107.204 49.9183 107.298Z" fill="#231F20"/>
<path d="M49.4476 110.504C47.6254 112.924 49.1941 115.659 49.6686 118.141C49.3209 118.079 49.2593 117.637 49.1325 117.355C48.2848 115.123 47.1871 111.888 49.1325 109.783C49.4477 109.53 49.6686 109.12 50.0454 108.997C50.7047 109.624 49.5744 109.968 49.4476 110.504" fill="#231F20"/>
<path d="M89.8629 89.3839C89.7687 89.2897 89.5477 89.0723 89.6129 88.8514C89.7071 89.0071 89.8303 89.1955 89.8629 89.3839Z" fill="#BBBDBF"/>
<path d="M110.541 89.3839C110.385 89.2897 110.508 89.0397 110.668 88.9129C110.635 89.0723 110.603 89.2571 110.541 89.3839Z" fill="#BBBDBF"/>
<path d="M70.847 112.797C71.068 113.805 71.4774 114.935 71.2275 116.004C71.3217 116.065 71.3832 116.159 71.5064 116.13C72.1694 115.279 71.8542 114.026 71.76 113.113C72.9229 114.526 73.0497 116.507 73.1439 118.329C73.2054 118.485 73.3323 118.485 73.4591 118.424C74.1148 117.666 73.5206 116.601 73.709 115.659C74.6509 117.04 74.6219 119.05 74.4951 120.623C74.5893 120.688 74.6509 120.811 74.7777 120.749C74.9986 120.528 75.1255 120.246 75.1544 119.902C75.4696 121.503 75.2196 123.325 74.6219 124.897C74.9008 120.499 71.9194 116.757 68.3691 114.37C68.4307 113.931 68.8691 113.395 69.34 113.174C69.4342 113.678 69.09 114.37 69.5283 114.685C70.2855 113.96 69.311 112.327 70.3761 111.856L70.847 112.797" fill="#BBBDBF"/>
<path d="M130.937 114.497C131.281 114.026 130.811 113.489 131.064 112.989C131.474 113.268 131.879 113.616 132.035 114.087C128.485 116.601 125.5 120.246 125.782 124.742C125.185 123.387 124.935 121.441 125.25 119.586C125.311 119.963 125.373 120.373 125.721 120.561C126.253 120.246 125.5 119.46 125.848 118.862C125.848 117.666 125.938 116.351 126.757 115.406C126.757 116.413 126.413 117.543 127.01 118.268C127.166 118.329 127.293 118.203 127.355 118.079C127.134 116.319 127.543 114.464 128.579 113.051C128.641 114.055 128.108 115.25 129.05 115.909L129.177 115.783C129.083 114.337 129.177 112.765 130.09 111.667C131.064 112.356 130.057 113.834 130.937 114.497Z" fill="#BBBDBF"/>
<path d="M76.9148 116.192L76.5381 116.13C76.9148 115.815 77.5415 115.942 77.9835 115.594C78.5197 115.123 78.7045 114.497 79.208 113.96C78.6719 114.873 78.1066 116.098 76.9148 116.192" fill="white"/>
<path d="M78.2952 116.851C77.9184 116.446 78.672 116.254 78.8314 115.848C78.864 116.286 78.393 116.475 78.2952 116.851Z" fill="white"/>
<path d="M78.2339 117.953C78.8642 117.355 79.3967 116.507 79.7445 115.659C79.7735 116.569 78.9258 117.387 78.2339 117.953Z" fill="white"/>
<path d="M122.17 116.851C121.916 116.446 121.605 116.065 121.445 115.594C121.605 116.098 122.576 116.192 122.17 116.851Z" fill="white"/>
<path d="M123.079 116.978V117.228C122.985 117.261 122.956 117.166 122.891 117.101V116.851C122.985 116.822 123.017 116.917 123.079 116.978Z" fill="white"/>
<path d="M77.3861 117.42C77.2267 117.355 77.3861 117.166 77.4477 117.04H77.5745L77.3861 117.42Z" fill="white"/>
<path fill-rule="evenodd" clip-rule="evenodd" d="M80.8675 91.9777C81.0595 92.0683 80.6972 91.6227 80.708 91.3872C80.7189 91.1554 80.4727 91.8763 80.4727 91.8763C80.4727 91.8763 80.6791 91.8835 80.8675 91.9777" fill="#231F20"/>
<path fill-rule="evenodd" clip-rule="evenodd" d="M91.62 54.6601C91.6526 56.3882 91.5911 58.3662 91.5585 60C91.4969 60.1268 91.3701 60.0652 91.2469 60.0652C91.1527 58.0836 91.1527 56.294 91.2469 54.4392C91.4027 54.4392 91.62 54.4718 91.62 54.6601" fill="white"/>
<path fill-rule="evenodd" clip-rule="evenodd" d="M71.9482 77.6608C71.9482 77.6608 72.7272 77.7405 72.9989 78.1028C73.2742 78.4687 74.0096 79.5953 74.966 79.1063C74.966 79.1063 75.2522 79.5953 74.3682 79.5953C73.5169 79.5953 73.0315 78.9541 72.7888 78.5303C72.5461 78.1028 72.2417 77.9687 72.0135 77.9144L71.9482 77.6608" fill="white"/>
<path fill-rule="evenodd" clip-rule="evenodd" d="M128.263 77.5992C128.263 77.5992 127.991 78.139 127.557 78.3202C127.122 78.5013 127.176 78.7875 127.133 78.8563C127.133 78.8563 126.423 79.5627 125.814 79.5627C125.202 79.5627 125.285 79.4758 125.234 79.2621C125.184 79.0447 125.448 78.9868 125.6 79.0773C125.752 79.1679 126.118 79.3816 126.636 78.6824C127.151 77.9833 127.977 77.5232 128.263 77.5992" fill="white"/>
<path d="M83.9861 96.5496C85.5258 102.303 83.2941 107.708 81.9428 112.99C82.1602 111.823 82.3522 110.443 82.287 109.186C81.5951 107.171 83.0441 105.288 82.1602 103.433C82.2254 102.618 81.7871 101.828 81.1894 101.201C81.1242 99.7883 81.3741 98.2161 80.4648 97.1474C79.9612 97.209 79.3019 97.3684 78.8926 97.0242C79.2404 95.5751 79.7439 94.2238 80.1822 92.8436C82.0986 93.061 83.4826 94.8542 83.9861 96.5496" fill="#F0B83D"/>
<path fill-rule="evenodd" clip-rule="evenodd" d="M92.9421 37.4379C93.1631 37.7204 93.0979 38.1914 93.0073 38.5066C92.8479 38.6949 92.6921 38.7891 92.5001 38.8218C92.5943 38.4124 92.8805 38.0356 92.6921 37.5936C92.3444 37.1879 91.9386 36.6518 91.3699 36.6518C90.8373 36.7133 90.3664 37.0611 90.0838 37.4994C89.5802 38.2856 90.3953 38.9159 90.4606 39.5427C90.0838 39.3543 89.8012 39.0717 89.6128 38.6949C89.4534 38.1298 89.5476 37.5321 89.8628 37.0611C90.5547 36.6844 91.4024 36.0866 92.2212 36.5901C92.5327 36.8727 92.7537 37.1227 92.9421 37.4379Z" fill="white"/>
<path fill-rule="evenodd" clip-rule="evenodd" d="M91.7172 38.1588L91.5579 39.0101C91.6195 42.5277 91.7462 45.9222 91.7172 49.5341C91.5578 49.6935 91.5289 50.0376 91.2464 50.0087C91.2138 45.6397 90.9928 41.8684 91.1811 37.9088C91.4021 37.9088 91.7172 37.8762 91.7172 38.1588" fill="white"/>
<path d="M57.7763 113.174C57.5264 112.609 57.4611 112.011 57.0518 111.54C57.8379 111.164 58.6857 110.345 58.6857 109.374C58.7509 108.776 58.3415 108.334 58.1531 107.802C58.6567 107.266 59.4102 106.921 59.8485 106.23C58.9392 108.461 58.4683 110.943 57.7763 113.174" fill="#F0B83D"/>
<path d="M57.2399 116.446C57.0515 116.446 56.769 115.909 56.519 115.721C56.8342 115.438 57.2399 114.967 57.4935 114.558C57.4319 115.185 57.4319 115.877 57.2399 116.446Z" fill="#F0B83D"/>
<path d="M123.145 118.485C123.427 118.895 123.427 119.648 123.427 120.184C123.837 125.462 121.605 130.114 117.142 132.722C111.545 136.809 105.009 139.29 100.329 144.884L100.14 144.945C97.4995 141.555 93.6341 139.385 90.2106 137.124C88.9499 136.588 87.8813 135.74 86.6568 135.142C85.9033 134.577 85.0229 134.229 84.302 133.57C79.8062 131.027 76.8826 127.002 76.9768 121.818C77.2268 120.905 76.7595 119.619 77.1362 118.8C77.513 118.579 78.0782 118.96 78.5492 118.739L78.8317 118.612C78.8933 118.833 78.6108 119.239 79.0201 119.46C79.5237 119.492 79.933 119.333 80.404 119.177C79.8388 124.521 82.4761 129.111 87.0661 131.56C91.5909 134.074 96.3692 136.273 100.202 140.265C100.796 140.298 100.796 139.606 101.177 139.323C105.546 135.081 111.201 133.32 115.885 129.737C119.026 127.002 120.471 123.169 119.968 119.05C120.536 119.05 121.225 119.648 121.667 119.05L121.446 118.329C121.917 118.739 122.641 118.768 123.145 118.485" fill="#F0B83D"/>
<path d="M90.2102 96.1729C90.2102 96.1729 94.5829 95.4375 96.0211 94.6658V135.269C96.0211 135.269 95.9377 135.512 95.3291 135.026C94.7241 134.537 90.145 132.063 90.145 132.063L90.2102 96.1729Z" fill="white"/>
<path d="M104.273 94.6658C104.273 94.6658 106.523 95.5353 107.744 95.72C108.958 95.9012 109.961 96.0316 110.07 96.3613V132.157C110.07 132.157 104.907 135.037 104.317 135.487L104.273 94.6658" fill="white"/>
<path d="M91.4929 63.275L91.5399 80.5951L91.3443 82.1384C91.3443 82.1384 91.1523 79.5373 91.1523 78.1353C91.1523 76.737 91.1523 63.7097 91.1523 63.7097C91.1523 63.7097 91.1523 63.275 91.4929 63.275Z" fill="white"/>
</svg>
