<svg width="200" height="200" viewBox="0 0 200 200" fill="none" xmlns="http://www.w3.org/2000/svg">
<rect width="200" height="200" fill="white"/>
<g clip-path="url(#clip0)">
<path d="M108.353 96.5979C108.938 96.6511 109.53 96.683 110.127 96.6903C109.529 96.683 108.938 96.6511 108.353 96.5979Z" fill="white"/>
<path d="M107.035 96.4497V96.4551L107.038 96.4497H107.035Z" fill="white"/>
<path d="M90.3794 93.0583L81.0345 92.8106L80.8665 96.52C80.8665 96.52 79.4938 96.4406 78.0462 96.52C76.5967 96.6074 76.515 98.6181 76.515 98.6181C76.515 98.6181 75.385 98.538 74.1786 98.8586C72.9712 99.1824 73.1323 101.038 73.1323 101.038C73.1323 101.038 69.9866 101.12 68.9395 102.327C67.8912 103.541 67.7328 106.033 68.7826 107.485C69.8271 108.938 75.7896 117.477 77.3212 120.863C78.8528 124.252 79.0971 135.699 79.0971 135.699L79.1875 135.972L79.1917 135.975C84.5365 142.572 91.2696 148.924 99.7722 154.626C102.652 152.697 105.329 150.684 107.815 148.616L92.3145 130.724L93.264 129.901L93.5649 129.884C93.6656 129.878 93.764 129.873 93.8677 129.873C94.4262 129.879 94.9719 129.943 95.5969 129.941C96.592 129.941 97.7641 129.8 99.2797 129.001C99.9021 128.666 100.31 128.2 100.583 127.632C100.858 127.061 100.984 126.398 100.976 125.759C100.984 125.073 100.821 124.414 100.638 124.057C100.346 123.459 99.6836 122.992 98.9537 122.7C98.2288 122.402 97.4921 122.283 97.2276 122.254C97.1505 122.24 97.1247 122.24 97.1247 122.24H97.0783L96.1968 122.084L93.286 118.84L94.6656 117.649L97.1349 120.395L97.326 120.428C97.5145 120.449 98.2106 120.531 99.0449 120.802L95.6098 116.832L96.9886 115.634L117.501 139.317C117.745 139.044 117.981 138.774 118.217 138.502L97.801 114.936L99.1787 113.742L119.42 137.101C119.652 136.824 119.884 136.54 120.111 136.265L99.9891 113.041L100.467 112.627C100.467 112.627 101.163 112.825 102.257 112.866L121.271 134.816C121.495 134.527 121.722 134.241 121.944 133.95L103.654 112.839C104.292 112.791 104.996 112.673 105.738 112.458L123.063 132.454C123.277 132.156 123.489 131.862 123.704 131.56L106.817 112.071C107.429 111.761 107.866 111.334 108.171 110.849L124.78 130.017C124.986 129.713 125.199 129.398 125.398 129.091L108.649 109.759C108.957 108.677 108.866 107.589 108.809 107.156L126.427 127.492C126.627 127.175 126.826 126.857 127.021 126.538L107.913 104.483V101.698L128.007 124.892C128.224 124.516 128.442 124.141 128.653 123.762L104.672 95.976C104.429 95.9136 104.193 95.8403 103.954 95.7731C102.979 95.4866 102.032 95.137 101.112 94.7316C100.938 94.6533 100.766 94.5652 100.594 94.4797C100.011 94.2023 99.4401 93.9045 98.8827 93.5796C98.6889 93.466 98.497 93.3478 98.3059 93.2281C97.7668 92.8907 97.2459 92.5351 96.7379 92.154C96.5791 92.037 96.4187 91.9215 96.2618 91.7961C95.6603 91.3227 95.0851 90.8219 94.5349 90.293C94.5034 90.2638 94.4673 90.2379 94.4361 90.2072C92.2168 90.5704 90.3794 93.0583 90.3794 93.0583Z" fill="white"/>
<path d="M60.5698 95.2563C61.5524 100.44 63.0672 106.201 65.4074 112.204C65.5867 112.658 65.785 113.117 65.9708 113.575C65.785 113.117 65.5863 112.658 65.4074 112.201C63.0672 106.201 61.5524 100.44 60.5698 95.2563Z" fill="white"/>
<path d="M54.0152 46.5115V59.1495H54L54.0258 76.6185C54.0182 77.0136 54.0152 77.4316 54.0152 77.8746C54.0152 78.3043 54.0213 78.7686 54.0289 79.2417V79.3154H54.0304C54.0604 81.0822 54.1493 83.1286 54.3336 85.4208C54.9457 92.9465 56.6289 103.065 60.8794 113.971C66.7842 129.137 77.7124 145.846 97.5151 158.971L99.745 160.394L102.015 158.976C103.873 157.743 105.653 156.481 107.356 155.198C122.673 143.602 131.942 129.818 137.471 116.887L137.494 116.831L137.538 116.719C137.932 115.8 138.305 114.882 138.664 113.968C139.037 113.001 139.394 112.044 139.729 111.091C144.688 97.0861 145.522 84.6928 145.525 77.8735C145.525 77.6174 145.521 77.3864 145.519 77.1466L145.525 77.1436V61.9649V59.1498V46.5119C115.639 37.8293 83.8991 37.8293 54.0152 46.5115ZM128.649 121.199L122.012 113.775V91.8283C125.384 88.2009 127.012 83.2688 126.932 77.8518C126.859 72.7909 125.364 68.0156 122.012 64.2712V56.9974C123.929 57.2607 126.747 57.7604 128.655 58.0905L128.65 121.199H128.649ZM115.061 105.691L114.453 105.052L108.316 97.9391C108.575 97.9353 108.834 97.9353 109.091 97.9231C110.969 97.8175 113.373 97.0602 115.061 96.4546V105.691ZM109.213 147.44L95.6301 131.766C96.0374 131.766 96.4915 131.738 96.9793 131.664L110.017 146.731C109.75 146.96 109.48 147.203 109.213 147.44ZM111.374 145.508L98.9448 131.157C99.2792 131.028 99.6185 130.875 99.9711 130.698L112.159 144.783C111.903 145.026 111.639 145.266 111.374 145.508ZM113.477 143.515L101.436 129.603C101.685 129.323 101.893 129.027 102.074 128.714L114.239 142.758C113.984 143.01 113.736 143.259 113.477 143.515ZM115.519 141.448L102.735 126.696C102.779 126.379 102.801 126.07 102.801 125.758C102.801 125.536 102.79 125.312 102.768 125.093L116.262 140.665C116.019 140.929 115.766 141.193 115.519 141.448ZM128.007 124.892L107.912 101.698V104.483L127.021 126.538C126.824 126.857 126.627 127.176 126.427 127.492L108.807 107.156C108.866 107.589 108.957 108.677 108.648 109.759L125.397 129.091C125.198 129.399 124.986 129.713 124.779 130.018L108.17 110.849C107.865 111.334 107.429 111.761 106.817 112.071L123.704 131.56C123.49 131.862 123.278 132.156 123.062 132.454L105.737 112.458C104.995 112.674 104.291 112.791 103.653 112.84L121.943 133.95C121.723 134.242 121.495 134.528 121.27 134.816L102.256 112.867C101.163 112.826 100.466 112.628 100.466 112.628L99.9885 113.041L120.112 136.264C119.883 136.54 119.651 136.824 119.42 137.101L99.1789 113.741L97.8012 114.935L118.217 138.501C117.981 138.773 117.745 139.043 117.501 139.316L96.9888 115.633L95.61 116.831L99.0451 120.801C98.2107 120.531 97.5147 120.447 97.3262 120.427L97.1351 120.394L94.6658 117.648L93.2862 118.839L96.197 122.083L97.0785 122.239H97.1245C97.1245 122.239 97.1503 122.239 97.2274 122.253C97.4919 122.283 98.2286 122.401 98.9536 122.699C99.6834 122.992 100.346 123.458 100.638 124.056C100.82 124.413 100.983 125.072 100.976 125.758C100.984 126.397 100.857 127.06 100.583 127.631C100.309 128.198 99.9019 128.665 99.2792 129C97.7639 129.799 96.5922 129.94 95.5967 129.94C94.9717 129.942 94.4261 129.878 93.8675 129.872C93.7646 129.872 93.6654 129.878 93.5643 129.883L93.2634 129.9L92.3139 130.723L107.815 148.615C105.329 150.683 102.651 152.696 99.7716 154.625C91.2679 148.924 84.5359 142.572 79.1908 135.976L79.187 135.972C73.2024 128.598 68.9803 120.932 65.97 113.575C65.7849 113.118 65.5859 112.658 65.4073 112.204C63.0668 106.201 61.5519 100.441 60.5694 95.257C59.4724 89.4563 59.0537 84.4037 58.9291 80.5567V60.6324C77.1079 55.9575 96.493 54.5536 115.06 56.2219V59.2042C112.788 58.2912 109.754 57.4127 107.257 57.3956C96.3228 57.3006 87.8267 66.5049 87.9916 77.5934C88.1527 88.1994 96.1142 96.9683 106.293 97.8574L128.652 123.763C128.44 124.142 128.224 124.516 128.007 124.892ZM135.306 109.009C135.306 109.012 135.405 109.013 135.404 109.015V59.3645C137.173 59.7566 138.836 60.1761 140.594 60.6275V80.5574L140.613 80.5441C140.399 87.2104 139.297 97.5534 135.306 109.009Z" fill="black"/>
<mask id="mask0" mask-type="alpha" maskUnits="userSpaceOnUse" x="58" y="55" width="83" height="100">
<path d="M128.65 121.199L122.013 113.775V91.8283C125.384 88.2009 127.012 83.2688 126.932 77.8518C126.86 72.7909 125.364 68.0156 122.013 64.2712V56.9974C123.929 57.2607 126.747 57.7604 128.656 58.0905L128.65 121.199ZM115.061 105.691L114.453 105.052L108.316 97.9391C108.575 97.9353 108.834 97.9353 109.092 97.9231C110.969 97.8175 113.373 97.0602 115.061 96.4546V105.691ZM109.213 147.44L95.6302 131.766C96.0375 131.766 96.4916 131.738 96.9794 131.664L110.017 146.731C109.75 146.96 109.48 147.203 109.213 147.44ZM111.374 145.508L98.9449 131.157C99.2793 131.028 99.6186 130.875 99.9711 130.698L112.159 144.783C111.903 145.026 111.639 145.266 111.374 145.508ZM113.477 143.515L101.436 129.603C101.685 129.323 101.893 129.027 102.074 128.714L114.239 142.758C113.984 143.01 113.736 143.259 113.477 143.515ZM115.519 141.448L102.735 126.696C102.779 126.379 102.801 126.07 102.801 125.758C102.801 125.536 102.79 125.312 102.768 125.093L116.262 140.665C116.019 140.929 115.766 141.193 115.519 141.448ZM128.007 124.892L107.912 101.698V104.483L127.021 126.538C126.824 126.857 126.627 127.176 126.427 127.492L108.807 107.156C108.866 107.589 108.957 108.677 108.648 109.759L125.398 129.091C125.198 129.399 124.986 129.713 124.779 130.018L108.171 110.849C107.865 111.334 107.429 111.761 106.817 112.071L123.704 131.56C123.49 131.862 123.278 132.156 123.062 132.454L105.737 112.458C104.995 112.674 104.291 112.791 103.653 112.84L121.943 133.95C121.723 134.242 121.495 134.528 121.27 134.816L102.257 112.867C101.163 112.826 100.466 112.628 100.466 112.628L99.9886 113.041L120.112 136.264C119.883 136.54 119.652 136.824 119.42 137.101L99.179 113.741L97.8013 114.935L118.218 138.501C117.981 138.773 117.745 139.043 117.501 139.316L96.9889 115.633L95.6101 116.831L99.0452 120.801C98.2108 120.531 97.5148 120.447 97.3263 120.427L97.1352 120.394L94.6659 117.648L93.2863 118.839L96.1971 122.083L97.0786 122.239H97.1246C97.1246 122.239 97.1504 122.239 97.2275 122.253C97.492 122.283 98.2287 122.401 98.9536 122.699C99.6835 122.992 100.346 123.458 100.638 124.056C100.82 124.413 100.983 125.072 100.976 125.758C100.984 126.397 100.857 127.06 100.583 127.631C100.309 128.198 99.902 128.665 99.2793 129C97.764 129.799 96.5922 129.94 95.5968 129.94C94.9718 129.942 94.4261 129.878 93.8676 129.872C93.7646 129.872 93.6655 129.878 93.5644 129.883L93.2635 129.9L92.314 130.723L107.815 148.615C105.329 150.683 102.651 152.696 99.7717 154.625C91.268 148.924 84.536 142.572 79.1909 135.976L79.1871 135.972C73.2025 128.598 68.9804 120.932 65.9701 113.575C65.785 113.118 65.5859 112.658 65.4074 112.204C63.0669 106.201 61.552 100.441 60.5694 95.257C59.4725 89.4563 59.0538 84.4037 58.9292 80.5567V60.6324C77.108 55.9575 96.4931 54.5536 115.06 56.2219V59.2042C112.788 58.2912 109.754 57.4127 107.257 57.3956C96.3229 57.3006 87.8268 66.5049 87.9917 77.5934C88.1528 88.1994 96.1143 96.9683 106.294 97.8574L128.653 123.763C128.441 124.142 128.224 124.516 128.007 124.892ZM135.306 109.009C135.306 109.012 135.405 109.013 135.404 109.015V59.3645C137.173 59.7566 138.836 60.1761 140.594 60.6275V80.5574L140.613 80.5441C140.399 87.2104 139.297 97.5534 135.306 109.009Z" fill="black"/>
</mask>
<g mask="url(#mask0)">
<path d="M130.594 184.745L23.5698 143.527L68.8934 25.8426L175.919 67.0609L130.594 184.745Z" fill="url(#paint0_linear)"/>
</g>
<path d="M92.5903 86.745L99.6015 88.7618L103.804 95.091C105.067 95.3935 106.377 95.566 107.718 95.5777C109.041 95.5846 110.324 95.4345 111.556 95.1602L115.461 89.0038L122.559 87.0019C123.844 84.7753 124.653 82.224 124.855 79.483L120.272 73.6546L120.462 66.092C120.188 65.7709 119.904 65.4548 119.61 65.1569C118.039 63.5661 116.191 62.2697 114.144 61.3605L107.392 63.9027L100.404 61.2085C98.3306 62.0972 96.4757 63.3928 94.9183 64.9974C94.6527 65.2744 94.3996 65.5612 94.1454 65.8564L94.5854 73.2598L90.0933 79.1874C90.3718 81.9219 91.2441 84.4915 92.5903 86.745ZM107.488 70.1769L115.034 75.7811L112.318 84.732L103.087 84.6716L100.115 75.6801L107.488 70.1769Z" fill="white"/>
<path d="M115.034 75.6805L107.488 70.0762L100.116 75.579L103.087 84.5706L112.318 84.631L115.034 75.6805Z" fill="black"/>
<path d="M95.6304 131.766L109.214 147.441C109.48 147.203 109.75 146.96 110.016 146.732L96.9796 131.665C96.4917 131.738 96.0377 131.766 95.6304 131.766Z" fill="white"/>
<path d="M98.9448 131.157L111.374 145.508C111.639 145.266 111.903 145.025 112.159 144.783L99.9707 130.698C99.6185 130.874 99.2792 131.028 98.9448 131.157Z" fill="white"/>
<path d="M101.436 129.603L113.477 143.515C113.736 143.259 113.983 143.01 114.238 142.758L102.072 128.714C101.892 129.028 101.684 129.323 101.436 129.603Z" fill="white"/>
<path d="M102.767 125.094C102.79 125.312 102.801 125.537 102.801 125.758C102.801 126.07 102.779 126.379 102.735 126.696L115.519 141.449C115.766 141.193 116.019 140.929 116.263 140.666L102.767 125.094Z" fill="white"/>
<path d="M55.5659 53.2474L60.8662 46.1586L67.6704 51.2458L62.3705 58.3349L55.5659 53.2474Z" fill="url(#paint1_linear)"/>
<path d="M61.6499 51.9419L66.386 45.6077L72.216 49.9669L67.4803 56.301L61.6499 51.9419Z" fill="url(#paint2_linear)"/>
<path d="M66.5513 50.9939L71.2178 44.752L77.0079 49.0808L72.341 55.3227L66.5513 50.9939Z" fill="url(#paint3_linear)"/>
<path d="M73.731 50.0178L78.6069 43.4963L84.8179 48.1405L79.942 54.6619L73.731 50.0178Z" fill="url(#paint4_linear)"/>
<path d="M79.3008 49.4156L84.2907 42.7417L90.7134 47.5439L85.7235 54.2174L79.3008 49.4156Z" fill="url(#paint5_linear)"/>
<path d="M85.4072 48.9725L90.3348 42.3823L96.6621 47.1131L91.7346 53.7033L85.4072 48.9725Z" fill="url(#paint6_linear)"/>
<path d="M91.5791 48.7237L96.4413 42.2204L102.697 46.8976L97.835 53.4005L91.5791 48.7237Z" fill="url(#paint7_linear)"/>
<path d="M97.4268 48.7567L102.317 42.2159L108.637 46.941L103.746 53.4818L97.4268 48.7567Z" fill="url(#paint8_linear)"/>
<path d="M103.591 48.9794L108.131 42.9077L113.779 47.1305L109.239 53.2021L103.591 48.9794Z" fill="url(#paint9_linear)"/>
<path d="M108.458 49.4236L113.792 42.2892L120.763 47.5014L115.428 54.6357L108.458 49.4236Z" fill="url(#paint10_linear)"/>
<path d="M115.339 50.1227L120.357 43.4112L126.804 48.2316L121.786 54.9427L115.339 50.1227Z" fill="url(#paint11_linear)"/>
<path d="M121.271 50.9012L126.372 44.0784L132.861 48.93L127.759 55.7528L121.271 50.9012Z" fill="url(#paint12_linear)"/>
<path d="M127.007 51.7382L131.922 45.1654L138.122 49.8016L133.209 56.3744L127.007 51.7382Z" fill="url(#paint13_linear)"/>
<path d="M132.088 53.1277L137.413 46.0051L144.142 51.0353L138.816 58.1579L132.088 53.1277Z" fill="url(#paint14_linear)"/>
</g>
<defs>
<linearGradient id="paint0_linear" x1="82.5903" y1="150.133" x2="122.493" y2="46.5246" gradientUnits="userSpaceOnUse">
<stop stop-color="#8B0304"/>
<stop offset="1" stop-color="#ED1C24"/>
</linearGradient>
<linearGradient id="paint1_linear" x1="63.6993" y1="53.8214" x2="109.253" y2="87.8805" gradientUnits="userSpaceOnUse">
<stop stop-color="#A8996E"/>
<stop offset="0.4417" stop-color="#FFE5C7"/>
<stop offset="1" stop-color="#A8996E"/>
</linearGradient>
<linearGradient id="paint2_linear" x1="66.2672" y1="50.4138" x2="111.815" y2="84.4682" gradientUnits="userSpaceOnUse">
<stop stop-color="#A8996E"/>
<stop offset="0.4417" stop-color="#FFE5C7"/>
<stop offset="1" stop-color="#A8996E"/>
</linearGradient>
<linearGradient id="paint3_linear" x1="68.4342" y1="47.4934" x2="114.143" y2="81.668" gradientUnits="userSpaceOnUse">
<stop stop-color="#A8996E"/>
<stop offset="0.4417" stop-color="#FFE5C7"/>
<stop offset="1" stop-color="#A8996E"/>
</linearGradient>
<linearGradient id="paint4_linear" x1="71.5933" y1="43.3125" x2="116.982" y2="77.2479" gradientUnits="userSpaceOnUse">
<stop stop-color="#A8996E"/>
<stop offset="0.4417" stop-color="#FFE5C7"/>
<stop offset="1" stop-color="#A8996E"/>
</linearGradient>
<linearGradient id="paint5_linear" x1="73.892" y1="40.1748" x2="119.432" y2="74.2234" gradientUnits="userSpaceOnUse">
<stop stop-color="#A8996E"/>
<stop offset="0.4417" stop-color="#FFE5C7"/>
<stop offset="1" stop-color="#A8996E"/>
</linearGradient>
<linearGradient id="paint6_linear" x1="76.3485" y1="37.0262" x2="121.713" y2="70.9435" gradientUnits="userSpaceOnUse">
<stop stop-color="#A8996E"/>
<stop offset="0.4417" stop-color="#FFE5C7"/>
<stop offset="1" stop-color="#A8996E"/>
</linearGradient>
<linearGradient id="paint7_linear" x1="78.5731" y1="33.9081" x2="124.101" y2="67.9477" gradientUnits="userSpaceOnUse">
<stop stop-color="#A8996E"/>
<stop offset="0.4417" stop-color="#FFE5C7"/>
<stop offset="1" stop-color="#A8996E"/>
</linearGradient>
<linearGradient id="paint8_linear" x1="80.5923" y1="31.0611" x2="126.306" y2="65.2393" gradientUnits="userSpaceOnUse">
<stop stop-color="#A8996E"/>
<stop offset="0.4417" stop-color="#FFE5C7"/>
<stop offset="1" stop-color="#A8996E"/>
</linearGradient>
<linearGradient id="paint9_linear" x1="82.6045" y1="28.5654" x2="128.141" y2="62.6112" gradientUnits="userSpaceOnUse">
<stop stop-color="#A8996E"/>
<stop offset="0.4417" stop-color="#FFE5C7"/>
<stop offset="1" stop-color="#A8996E"/>
</linearGradient>
<linearGradient id="paint10_linear" x1="84.4177" y1="25.8707" x2="130.119" y2="60.0395" gradientUnits="userSpaceOnUse">
<stop stop-color="#A8996E"/>
<stop offset="0.4417" stop-color="#FFE5C7"/>
<stop offset="1" stop-color="#A8996E"/>
</linearGradient>
<linearGradient id="paint11_linear" x1="86.493" y1="23.3293" x2="132.037" y2="57.3812" gradientUnits="userSpaceOnUse">
<stop stop-color="#A8996E"/>
<stop offset="0.4417" stop-color="#FFE5C7"/>
<stop offset="1" stop-color="#A8996E"/>
</linearGradient>
<linearGradient id="paint12_linear" x1="88.1838" y1="20.8174" x2="133.878" y2="54.9813" gradientUnits="userSpaceOnUse">
<stop stop-color="#A8996E"/>
<stop offset="0.4417" stop-color="#FFE5C7"/>
<stop offset="1" stop-color="#A8996E"/>
</linearGradient>
<linearGradient id="paint13_linear" x1="89.9658" y1="18.9319" x2="135.351" y2="52.865" gradientUnits="userSpaceOnUse">
<stop stop-color="#A8996E"/>
<stop offset="0.4417" stop-color="#FFE5C7"/>
<stop offset="1" stop-color="#A8996E"/>
</linearGradient>
<linearGradient id="paint14_linear" x1="91.3875" y1="17.1166" x2="136.774" y2="51.05" gradientUnits="userSpaceOnUse">
<stop stop-color="#A8996E"/>
<stop offset="0.4417" stop-color="#FFE5C7"/>
<stop offset="1" stop-color="#A8996E"/>
</linearGradient>
<clipPath id="clip0">
<rect x="54" y="40" width="91.5234" height="120" fill="white"/>
</clipPath>
</defs>
</svg>
