<svg width="200" height="200" viewBox="0 0 200 200" fill="none" xmlns="http://www.w3.org/2000/svg">
<rect width="200" height="200" fill="white"/>
<path d="M157.936 115.517C157.913 115.45 157.868 115.404 157.801 115.404L150.536 112.607C150.672 112.088 150.942 111.389 151.439 110.667L155.184 112.314C155.319 112.381 155.432 112.404 155.567 112.404C155.906 112.404 156.221 112.223 156.402 111.93C156.492 111.772 156.785 111.298 157.034 110.689C157.395 109.719 157.485 108.839 157.259 108.117C157.034 107.35 156.492 106.764 155.68 106.403L145.686 101.823C145.686 101.823 145.64 101.8 145.618 101.778C145.234 101.62 144.512 101.417 143.633 101.71C143.633 101.394 143.633 101.078 143.633 100.763C143.633 99.9955 143.61 99.1833 143.565 98.3711C143.52 97.5364 143.452 96.6791 143.362 95.7992C142.775 90.7456 141.602 87.0231 141.128 85.6695L140.948 85.2183C138.985 79.7586 137.451 75.427 137.496 70.2606C137.519 66.3576 142.392 60.8979 144.264 59.1156L146.024 57.4462L127.547 40.5934L126.08 41.5635C122.696 43.797 118.32 45.0152 113.74 45.0152C108.957 45.0152 104.4 43.6842 100.97 41.2702L99.6845 40.3678L98.3985 41.2702C94.9468 43.6842 90.4121 45.0152 85.6292 45.0152C81.0494 45.0152 76.6726 43.797 73.2885 41.5635L71.8221 40.5934L55.1272 55.8218L53.3449 57.4462L55.0821 59.1156C56.9547 60.8979 61.8277 66.3576 61.8729 70.2606C61.8954 75.427 60.3613 79.7586 58.3985 85.2183L58.2406 85.6695C57.7668 87.0231 56.5711 90.7456 56.0071 95.7992C55.9169 96.6791 55.8492 97.5364 55.8041 98.3711C55.7589 99.1833 55.7138 99.9955 55.7138 100.763C55.7138 101.078 55.7138 101.394 55.7364 101.71C54.8565 101.417 54.1346 101.62 53.7736 101.778H53.751C53.7285 101.8 53.7059 101.823 53.6834 101.823L43.689 106.403C42.8768 106.764 42.3354 107.35 42.1098 108.117C41.8842 108.839 41.9744 109.719 42.3354 110.689C42.5835 111.298 42.8768 111.772 42.9896 111.93C43.1475 112.223 43.4634 112.404 43.8018 112.404C43.9372 112.404 44.05 112.381 44.1853 112.314L47.9304 110.667C48.4267 111.389 48.6749 112.088 48.8328 112.607L41.5683 115.404C41.5006 115.404 41.4555 115.45 41.4329 115.517C41.4104 115.585 41.4104 115.63 41.4329 115.698L41.8616 116.803C46.3963 128.129 54.112 137.852 64.1515 144.846C73.4916 151.344 84.4335 155.156 95.7815 155.856L99.5266 159.556C99.5717 159.601 99.6168 159.623 99.6845 159.623C99.7296 159.623 99.7973 159.601 99.8424 159.556L103.587 155.856C114.935 155.156 125.877 151.344 135.195 144.846C145.257 137.852 152.973 128.129 157.507 116.803L157.936 115.698C157.959 115.63 157.959 115.585 157.936 115.517Z" fill="white"/>
<path d="M52.9208 106.951C52.5598 106.003 52.447 105.033 52.5823 104.176C52.6049 104.131 52.6049 104.063 52.6275 103.995L52.7177 103.544L44.1672 107.47C43.6709 107.695 43.355 108.011 43.2422 108.44C42.9715 109.342 43.5355 110.515 43.7837 110.989L43.8965 111.17L53.011 107.154L52.9208 106.951Z" fill="#274488"/>
<path d="M146.45 106.951C146.811 106.003 146.924 105.033 146.789 104.176C146.766 104.131 146.766 104.063 146.743 103.995L146.631 103.544L155.204 107.47C155.7 107.695 156.016 108.011 156.129 108.44C156.399 109.342 155.835 110.515 155.587 110.989L155.474 111.17L146.36 107.154L146.45 106.951Z" fill="#274488"/>
<path d="M70.1592 139.307L68.8281 140.368L69.9787 141.112L70.4299 139.488C70.4751 139.285 70.5202 139.127 70.5653 138.992C70.4299 139.082 70.2946 139.195 70.1592 139.307Z" fill="#274488"/>
<path d="M116.577 144.368C115.901 144.593 115.63 145.36 116.036 146.511C116.442 147.752 117.051 148.135 117.796 147.887C118.495 147.662 118.766 146.962 118.337 145.744C117.931 144.481 117.322 144.12 116.577 144.368Z" fill="#274488"/>
<path d="M121.839 142.324L121.478 142.504L122.223 144.106C122.335 144.083 122.583 143.971 122.651 143.926C123.193 143.677 123.373 143.271 123.125 142.73C122.854 142.143 122.403 142.053 121.839 142.324Z" fill="#274488"/>
<path d="M109.5 95.3999C109.5 95.3773 108.44 95.084 107.673 94.9487C106.725 94.7907 106.161 94.7682 105.981 94.7456C105.778 94.7005 105.259 94.7005 105.282 94.4072C105.282 94.2042 105.507 94.159 105.733 94.1365C106.071 94.1139 106.951 94.2042 107.47 94.2718C108.711 94.4523 109.5 94.7005 109.5 94.6554V93.0987C109.5 93.0536 107.763 92.467 105.891 92.2639C104.627 92.1511 104.041 92.1737 103.296 92.1511C103.161 92.1511 102.868 92.1963 102.868 91.9481C102.868 91.6999 103.138 91.6774 103.229 91.6548C104.176 91.5646 105.394 91.542 106.658 91.6322C108.056 91.7225 109.478 92.2188 109.478 92.1737V90.5042C108.936 90.256 108.147 90.0079 107.492 89.8951C106.658 89.7597 105.552 89.692 105.394 89.692C105.236 89.692 105.169 89.6018 105.146 89.5341C105.124 89.4213 105.191 89.3311 105.349 89.2859C105.597 89.2408 106.207 89.2183 106.951 89.2408C107.492 89.2634 108.801 89.3987 109.455 89.489L109.433 88.203C108.192 87.5488 106.274 87.2329 105.033 87.0524C103.161 86.7592 101.446 86.714 101.153 86.714C100.995 86.6915 100.837 86.6915 100.815 86.5335C100.815 86.3982 100.905 86.2854 101.153 86.2854C101.379 86.2854 102.845 86.2403 105.146 86.4433C106.252 86.5335 108.44 86.9622 109.433 87.1652L109.41 85.9018C108.305 85.3604 106.567 84.9543 104.063 84.5933C100.995 84.1421 95.1292 84.3452 94.8134 84.3903C94.3847 84.4128 94.3171 84.3226 94.2945 84.1647C94.2719 84.0068 94.4299 83.9165 94.7457 83.8488C95.0616 83.8037 99.0773 83.4202 102.326 83.5781C104.785 83.6909 108.327 84.3903 109.41 84.5933L109.388 83.6007C107.538 82.3373 104.492 82.2019 104.289 82.2019C104.086 82.1793 103.95 82.0891 103.928 81.9763C103.905 81.8635 104.041 81.7732 104.199 81.7507C104.357 81.7281 104.808 81.683 105.755 81.7507C106.522 81.7958 108.575 82.2245 109.388 82.4049L109.365 81.4123C107.989 80.6001 104.808 80.1263 102.349 79.9007C102.349 79.9007 102.055 79.8782 101.514 79.8556L101.469 80.5099C101.469 80.7129 101.311 80.8483 101.108 80.8483C99.6639 80.7806 99.145 80.7806 97.7011 80.8483H97.6786C97.4981 80.8483 97.3402 80.7129 97.3402 80.5099L97.2951 79.8556C95.9865 79.9007 94.4524 80.0135 92.7378 80.194C92.4896 80.2166 92.2415 80.2842 92.2189 80.1038C92.1738 79.991 92.2415 79.9007 92.5573 79.8105C92.8055 79.7654 96.2121 79.2916 97.0695 79.2013C97.1146 79.2013 97.1823 79.2013 97.2499 79.2013L97.0243 75.0051C97.0243 74.9148 97.0695 74.8246 97.1146 74.7343C97.1823 74.6667 97.2725 74.6215 97.3627 74.6215C99.1225 74.5538 99.7316 74.5538 101.446 74.6215C101.536 74.6215 101.627 74.6667 101.694 74.7343C101.74 74.802 101.785 74.8923 101.785 74.9599C102.574 74.9825 103.364 75.0276 103.996 75.0727C105.327 75.1404 108.463 75.5916 109.297 75.7044V74.7343C109.139 74.6215 108.914 74.5538 108.733 74.4636C107.853 74.1252 104.447 73.5386 99.5962 73.5386C94.7231 73.5386 91.8128 74.1703 91.3616 74.2831C90.8653 74.4185 90.3238 74.599 90.3464 74.9148L90.4141 85.9018C90.3464 86.6463 90.4366 89.6018 90.4592 90.3012C90.4817 91.4518 92.2866 92.1737 96.2347 93.5499C100.363 95.0615 105.575 96.6858 109.5 97.7687V95.3999Z" fill="#274488"/>
<path d="M106.037 97.6785C105.248 97.4529 104.842 97.3175 104.052 97.0694C103.962 97.0468 103.894 97.0919 103.894 97.1822C103.894 98.5809 103.894 99.2803 103.894 100.611C103.894 100.702 103.962 100.769 104.029 100.814C104.819 101.085 105.225 101.221 106.037 101.491C106.105 101.536 106.173 101.469 106.173 101.401C106.173 100.07 106.173 99.3254 106.173 97.8815C106.173 97.7913 106.105 97.7011 106.037 97.6785Z" fill="#274488"/>
<path d="M102.705 96.661C101.893 96.4129 101.51 96.3001 100.697 96.0293C100.63 96.0068 100.562 96.0519 100.562 96.1196C100.562 97.4507 100.562 98.1275 100.562 99.4586C100.562 99.5262 100.63 99.6165 100.697 99.639C101.487 99.9098 101.893 100.068 102.705 100.338C102.773 100.361 102.841 100.338 102.841 100.248C102.841 98.9171 102.841 98.2177 102.841 96.8415C102.841 96.7738 102.773 96.6836 102.705 96.661Z" fill="#274488"/>
<path d="M96.0158 94.4546C95.2036 94.1839 94.8201 94.0485 94.0079 93.7327C93.9402 93.7101 93.8726 93.7552 93.8726 93.8229V97.0942C93.8726 97.1619 93.9402 97.2521 94.0079 97.2747C94.7975 97.5454 95.2036 97.7033 96.0158 97.9966C96.0835 98.0192 96.1512 97.9741 96.1512 97.9064C96.1512 96.5753 96.1512 95.9211 96.1512 94.6351C96.1512 94.5674 96.0835 94.4997 96.0158 94.4546Z" fill="#274488"/>
<path d="M107.472 70.2809C107.404 70.1681 107.359 70.0328 107.269 69.8523C106.479 69.559 104.494 69.0627 103.073 68.9273C102.802 68.9047 102.396 68.8822 102.396 68.6791C102.396 68.4986 102.554 68.431 103.005 68.431C104.156 68.4535 106.006 68.7468 106.818 68.9047C106.592 68.4084 106.321 67.8218 106.028 67.1901C104.494 66.6035 101.584 66.4231 101.065 66.3779C100.501 66.3103 100.32 66.2426 100.365 66.0621C100.388 65.8816 100.749 65.9042 101.629 65.8816C102.644 65.859 104.878 66.0395 105.509 66.1072C105.306 65.656 105.081 65.1822 104.855 64.6633C103.998 64.0768 102.373 63.964 101.922 63.9414C101.493 63.9188 101.336 63.7609 101.358 63.6255C101.381 63.4676 101.606 63.4225 101.787 63.3999C101.945 63.3999 103.817 63.3774 103.975 63.3548C104.088 63.3548 104.201 63.2871 104.11 63.1292C103.93 62.7231 103.817 62.4749 103.614 62.0689C103.321 61.9335 102.937 61.8207 102.621 61.7756C102.351 61.7304 101.471 61.6853 101.02 61.6402C100.771 61.5725 100.726 61.5274 100.726 61.4372C100.726 61.3244 100.794 61.2567 101.02 61.2341C101.584 61.189 102.621 61.2341 102.847 61.2116C103.005 61.2116 103.185 61.1439 103.118 61.0085C103.005 60.7378 102.892 60.5122 102.779 60.264C102.531 60.1512 102.148 60.0835 101.832 60.0158C101.426 59.9256 100.659 59.8579 100.027 59.8354C99.8691 59.8354 99.7337 59.7451 99.7337 59.6549C99.7337 59.5646 99.8014 59.4744 99.9819 59.4518C100.411 59.3841 101.313 59.3841 101.674 59.3616C101.967 59.339 102.328 59.2939 102.215 59.0457C102.012 58.6396 101.9 58.3464 101.696 57.9628C101.426 57.9628 100.952 57.9403 100.614 57.8951C100.478 57.8726 100.298 57.85 100.298 57.7372C100.275 57.6244 100.456 57.5567 100.614 57.4891C100.726 57.4439 101.11 57.3311 101.381 57.2634C101.245 57.0153 101.155 56.7897 101.042 56.5415C100.659 56.5189 99.9593 56.4738 99.4179 56.4738C99.1923 56.4738 99.0795 56.361 99.0795 56.2708C99.0795 56.1805 99.1246 56.1129 99.3727 56.0677C99.7788 55.9549 100.411 55.9098 100.726 55.8872C100.365 55.1202 100.027 54.3757 99.7111 53.6989C97.2295 59.0006 92.6722 68.7694 91.9277 70.326C94.4996 69.7169 97.974 69.4913 99.5983 69.4913C101.223 69.4913 104.878 69.7395 107.472 70.2809Z" fill="#274488"/>
<path d="M92.6657 93.2544C91.8761 92.9611 91.47 92.8257 90.6578 92.5099C90.5901 92.4873 90.5225 92.5099 90.5225 92.6001V95.9165C90.5225 96.0068 90.5901 96.097 90.6578 96.097C91.47 96.3903 91.8761 96.5257 92.6657 96.819C92.756 96.819 92.8011 96.7964 92.8011 96.7062V93.4349C92.8011 93.3672 92.756 93.2995 92.6657 93.2544Z" fill="#274488"/>
<path d="M99.364 95.5939C98.5518 95.3457 98.1682 95.1878 97.3561 94.9171C97.2884 94.8945 97.2207 94.9396 97.2207 95.0073V98.2786C97.2207 98.3463 97.2884 98.4365 97.3561 98.4591C98.1457 98.7524 98.5518 98.8877 99.364 99.1585C99.4316 99.2036 99.4993 99.1585 99.4993 99.0908C99.4993 97.7597 99.4993 97.0829 99.4993 95.7744C99.4993 95.7067 99.4316 95.6164 99.364 95.5939Z" fill="#274488"/>
<path d="M92.8849 112.239C92.8849 111.382 92.2532 110.75 91.4184 110.75C90.2453 110.75 89.7489 111.63 89.6587 113.142L91.7794 113.074C92.569 113.074 92.8849 112.826 92.8849 112.239Z" fill="#274488"/>
<path d="M114.506 110.707C112.972 110.707 112.386 112.106 112.386 114.294C112.386 116.889 113.153 118.265 114.574 118.265C115.995 118.265 116.762 117.047 116.762 114.678C116.762 112.106 115.95 110.707 114.506 110.707Z" fill="#274488"/>
<path d="M104.808 77.1619C104.988 77.1393 105.8 77.1393 106.861 77.2747C107.65 77.3875 108.801 77.6357 109.32 77.7485V76.846C108.237 76.3948 105.755 75.9436 104.424 75.7857C103.612 75.6729 102.665 75.5826 101.74 75.515L101.559 79.057C102.033 79.0795 102.349 79.0795 102.349 79.0795C102.958 79.1247 103.567 79.1472 104.176 79.2149C106.522 79.4405 108.485 79.8917 109.343 80.0722V78.8088C108.011 77.7033 104.943 77.6131 104.763 77.6131C104.582 77.6131 104.402 77.568 104.402 77.3875C104.402 77.207 104.627 77.1844 104.808 77.1619" fill="#274488"/>
<path d="M90.3937 73.4868C90.7998 73.3965 93.9132 72.2685 99.5985 72.2685C105.261 72.2685 108.645 73.5093 109.051 73.6898C109.503 73.8929 109.909 74.0282 110.112 73.6898C110.292 73.3514 110.067 72.9227 109.751 72.7197C108.51 71.9301 104.156 70.9374 99.5985 71.0051C95.0187 71.0276 90.4389 72.0429 89.8072 72.3136C89.1529 72.5618 88.8822 72.9453 89.0852 73.3063C89.4236 73.9154 89.9876 73.5996 90.3937 73.4868Z" fill="#274488"/>
<path d="M109.365 98.6667C108.575 98.4185 108.169 98.3057 107.38 98.0801C107.289 98.0575 107.244 98.1027 107.244 98.1929C107.222 99.6819 107.222 100.426 107.222 101.757C107.222 101.848 107.289 101.915 107.357 101.961C108.169 102.231 108.575 102.367 109.365 102.66C109.433 102.682 109.5 102.637 109.5 102.57V98.8697C109.5 98.7795 109.433 98.6892 109.365 98.6667Z" fill="#274488"/>
<path d="M98.4319 80.1218C99.4696 80.0993 100.778 80.1218 100.778 80.1218L101.026 75.542C99.9434 75.4743 98.1611 75.5646 98.1611 75.5646L98.4319 80.1218Z" fill="#274488"/>
<path d="M124.296 142.109C124.86 143.305 124.228 144.32 123.077 144.839C122.987 144.884 122.739 144.997 122.649 145.02L123.371 146.554C123.438 146.689 123.416 146.779 123.235 146.87L122.491 147.208C122.355 147.276 122.243 147.253 122.175 147.095L119.941 142.358C119.851 142.177 119.896 142.109 120.054 142.019L121.25 141.478C122.107 141.072 122.784 140.959 123.371 141.184C123.777 141.365 124.115 141.703 124.296 142.109ZM144.984 120.384C144.916 120.248 144.894 120.135 144.984 119.977L145.3 119.481C145.367 119.346 145.458 119.323 145.593 119.413L150.24 121.963C150.398 122.053 150.421 122.166 150.331 122.279L149.879 122.978C149.789 123.159 149.654 123.159 149.473 123.046L146.992 121.624H146.969L148.864 124.264C148.977 124.399 148.932 124.512 148.864 124.602L148.706 124.851C148.639 124.986 148.548 125.054 148.368 125.031L145.074 124.67L145.051 124.693L147.511 126.272C147.714 126.385 147.691 126.497 147.578 126.633L147.217 127.219C147.127 127.377 147.014 127.422 146.856 127.31L142.525 124.377C142.367 124.241 142.367 124.151 142.434 124.016L142.75 123.519C142.863 123.339 142.953 123.316 143.134 123.339L147.285 123.768L147.308 123.745L144.984 120.384ZM142.886 128.46L140.652 126.655C140.539 126.543 140.562 126.43 140.652 126.317L141.171 125.685C141.284 125.572 141.374 125.527 141.509 125.64L143.788 127.513C145.209 128.708 145.255 129.972 144.217 131.168C143.134 132.476 141.916 132.476 140.562 131.371L138.283 129.498C138.148 129.385 138.193 129.25 138.283 129.137L138.802 128.528C138.915 128.393 138.983 128.37 139.118 128.483L141.329 130.288C142.344 131.122 142.908 131.01 143.405 130.423C143.878 129.859 143.878 129.272 142.886 128.46ZM136.388 131.393C136.343 131.258 136.366 131.122 136.501 130.987L136.907 130.604C137.042 130.491 137.133 130.513 137.223 130.604L141.036 134.281C141.036 134.303 141.058 134.303 141.058 134.303C141.148 134.416 141.148 134.529 141.036 134.619L140.427 135.183C140.269 135.341 140.156 135.296 139.998 135.116L137.99 133.108L139.095 136.153C139.163 136.311 139.095 136.402 139.028 136.469L138.802 136.672C138.667 136.785 138.599 136.83 138.419 136.763L135.328 135.544L135.305 135.567L137.268 137.733C137.426 137.913 137.358 137.981 137.223 138.116L136.727 138.567C136.591 138.703 136.478 138.725 136.366 138.59L136.343 138.567L132.959 134.597C132.824 134.439 132.846 134.349 132.959 134.236L133.41 133.83C133.546 133.694 133.658 133.694 133.816 133.762L137.697 135.274L137.719 135.251L136.388 131.393ZM133.929 139.605L134.267 139.38C134.38 139.289 134.493 139.334 134.561 139.425L134.809 139.786C134.877 139.853 134.877 139.966 134.786 140.034L133.072 141.297C132.959 141.365 132.846 141.342 132.778 141.275L132.53 140.914C132.44 140.801 132.463 140.688 132.553 140.62L132.869 140.395L130.455 137.146L130.094 137.417C129.981 137.485 129.868 137.439 129.8 137.349L129.552 137.011C129.485 136.92 129.485 136.808 129.575 136.74L131.38 135.431C131.47 135.364 131.583 135.364 131.65 135.454L131.921 135.815C131.989 135.928 131.989 136.018 131.876 136.108L131.515 136.356L133.929 139.605ZM129.688 143.237C129.8 143.418 129.778 143.441 129.643 143.531L128.83 144.005C128.695 144.095 128.672 144.072 128.56 143.937L126.258 140.102L124.95 140.869C124.815 140.959 124.702 140.936 124.634 140.778L124.318 140.259C124.228 140.124 124.273 140.034 124.408 139.966L127.883 137.913L128.244 137.688C128.379 137.62 128.447 137.642 128.515 137.733V137.755L128.808 138.364C128.875 138.5 128.808 138.59 128.65 138.68L127.386 139.425L129.688 143.237ZM116.242 143.305C117.911 142.764 119.152 143.689 119.671 145.268C120.28 147.028 119.603 148.472 118.114 148.968C116.535 149.487 115.271 148.675 114.707 146.983C114.121 145.313 114.685 143.824 116.242 143.305V143.305ZM110.06 150.051L110.466 149.983C110.601 149.983 110.692 150.051 110.714 150.164L110.782 150.592C110.804 150.705 110.737 150.795 110.624 150.818L108.526 151.179C108.413 151.201 108.3 151.134 108.3 151.043L108.21 150.592C108.187 150.457 108.255 150.367 108.368 150.344L108.751 150.276L108.075 146.306L107.623 146.373C107.488 146.396 107.42 146.306 107.398 146.193L107.308 145.764C107.308 145.674 107.353 145.584 107.465 145.561L109.676 145.178C109.789 145.155 109.879 145.245 109.902 145.313L109.97 145.764C109.992 145.9 109.925 145.99 109.812 146.012L109.361 146.08L110.06 150.051V150.051ZM103.337 147.524C103.382 147.795 103.72 147.908 103.923 147.998L104.916 148.359C105.593 148.584 106.044 148.99 106.112 149.757C106.202 150.931 105.3 151.698 104.172 151.788C103.63 151.833 102.976 151.765 102.412 151.63C102.277 151.607 102.231 151.54 102.231 151.472C102.231 151.427 102.231 151.382 102.254 151.337L102.434 150.637C102.434 150.57 102.48 150.479 102.592 150.479C102.615 150.479 102.683 150.479 102.728 150.502C103.156 150.637 103.63 150.682 104.036 150.66C104.397 150.637 104.803 150.412 104.781 150.006C104.758 149.69 104.487 149.577 104.217 149.464L103.089 149.036C102.434 148.81 102.006 148.336 101.938 147.637C101.848 146.599 102.863 145.9 103.833 145.832C104.442 145.787 104.961 145.854 105.503 146.035C105.638 146.08 105.683 146.125 105.706 146.215C105.706 146.238 105.683 146.283 105.683 146.351L105.458 147.005C105.435 147.118 105.39 147.14 105.322 147.163C105.277 147.163 105.232 147.14 105.164 147.14C104.803 147.028 104.352 146.915 104.014 146.96C103.675 146.983 103.314 147.14 103.337 147.524V147.524ZM52.6883 121.534L49.9359 123.226C49.7779 123.316 49.6877 123.271 49.5974 123.136L49.1914 122.482C49.0786 122.324 49.0786 122.234 49.2365 122.121L53.726 119.391C53.9291 119.278 53.9968 119.346 54.1096 119.481L54.4705 120.068C54.5382 120.226 54.5608 120.316 54.4931 120.451L52.959 124.287L55.7339 122.594C55.8919 122.504 56.0047 122.549 56.0723 122.685L56.501 123.384C56.6138 123.565 56.5236 123.632 56.4108 123.7L51.9212 126.43C51.7407 126.543 51.673 126.497 51.5828 126.362L51.2218 125.753C51.1316 125.64 51.1316 125.505 51.1767 125.369L52.6883 121.557V121.534ZM55.1248 129.656C55.1925 129.769 55.1474 129.882 55.0571 129.949L54.7187 130.22C54.651 130.265 54.5157 130.265 54.448 130.197L53.162 128.505C53.0718 128.393 53.1169 128.28 53.162 128.235L53.523 127.964C53.6358 127.874 53.7486 127.896 53.8163 127.986L54.0645 128.302L57.2906 125.821L57.0199 125.482C56.9296 125.369 56.9748 125.257 57.065 125.189L57.426 124.941C57.4937 124.873 57.6065 124.873 57.6741 124.963L59.0278 126.723C59.118 126.813 59.0955 126.926 59.0278 126.994L58.6668 127.242C58.554 127.355 58.4412 127.31 58.3735 127.219L58.0802 126.881L54.8541 129.318L55.1248 129.656ZM59.2308 133.897C59.3436 134.01 59.3211 134.123 59.2083 134.236L58.7571 134.664C58.6217 134.777 58.5089 134.755 58.3961 134.642L56.2528 132.341C56.14 132.205 56.1175 132.115 56.2754 131.98L60.1558 128.415C60.2686 128.325 60.3814 128.325 60.4942 128.438L61.0582 129.047C61.171 129.182 61.1936 129.272 61.0582 129.385L57.8095 132.363L59.2308 133.897ZM64.9387 137.507L64.3972 136.402C64.0814 135.792 64.1039 135.161 64.5326 134.619C65.2094 133.785 66.4051 133.988 67.1722 134.597C67.6234 134.98 67.9618 135.386 68.2325 135.883C68.3002 136.018 68.3002 136.086 68.2551 136.131C68.2325 136.176 68.1874 136.199 68.1423 136.221L67.5331 136.56C67.4429 136.605 67.3752 136.605 67.3075 136.56C67.285 136.537 67.2624 136.492 67.2173 136.447C67.0594 136.108 66.7886 135.747 66.5179 135.544C66.2697 135.319 65.8862 135.183 65.6381 135.477C65.4801 135.702 65.6381 136.018 65.7283 136.244L66.2021 137.169C66.5179 137.8 66.563 138.409 66.0893 138.996C65.3448 139.921 64.1716 139.853 63.2692 139.154C62.8631 138.816 62.4119 138.319 62.1186 137.845C62.0284 137.71 62.0284 137.642 62.096 137.597C62.1186 137.552 62.1637 137.53 62.2088 137.507L62.7954 137.124C62.8857 137.078 62.9533 137.033 63.0436 137.101C63.0661 137.146 63.0887 137.169 63.1113 137.214C63.3369 137.597 63.6527 137.958 63.9686 138.229C64.2393 138.455 64.6905 138.59 64.9612 138.274C65.1417 138.026 65.0515 137.755 64.9387 137.507V137.507ZM69.4734 141.974L68.2551 141.184L68.0069 141.027L67.1947 141.681C67.1045 141.748 66.9917 141.794 66.8563 141.703L66.0667 141.184C65.999 141.139 65.999 141.072 66.0216 141.004C66.0441 140.981 66.0667 140.959 66.0893 140.936L70.6691 137.575C70.7819 137.507 70.8947 137.484 71.0075 137.552L71.7294 138.026C71.8873 138.116 71.9099 138.229 71.8873 138.342L70.6916 143.824C70.6691 143.892 70.6691 143.914 70.6465 143.937C70.5788 144.027 70.5111 144.072 70.3983 144.005L69.6313 143.486C69.4508 143.373 69.4508 143.26 69.4734 143.125L69.7215 142.155L69.4734 141.974V141.974ZM73.241 140.237C73.1056 140.147 73.0831 140.056 73.1507 139.921L73.444 139.357C73.5117 139.244 73.602 139.199 73.7373 139.289L77.3245 141.139L77.708 141.342C77.8433 141.41 77.8659 141.5 77.7982 141.591V141.613L77.4373 142.177C77.3245 142.312 77.2117 142.29 77.0763 142.2L75.7678 141.545L73.6922 145.471C73.602 145.629 73.5794 145.651 73.4215 145.584L72.5867 145.133C72.4288 145.065 72.4288 145.042 72.519 144.884L74.5946 140.936L73.241 140.237V140.237ZM79.4226 147.321C79.5354 147.366 79.558 147.479 79.5354 147.592L79.3549 147.998C79.3324 148.088 79.2195 148.156 79.1067 148.088L77.144 147.321C77.0312 147.253 76.986 147.14 77.0086 147.073L77.1891 146.644C77.2342 146.509 77.3245 146.486 77.4598 146.531L77.7982 146.667L79.3324 142.922L78.9263 142.764C78.7909 142.696 78.7683 142.583 78.8135 142.493L78.9939 142.087C79.0165 141.997 79.1067 141.929 79.2195 141.974L81.2951 142.809C81.4079 142.854 81.4531 142.944 81.4305 143.057L81.25 143.463C81.1823 143.598 81.0921 143.621 80.9793 143.576L80.5506 143.418L79.0391 147.163L79.4226 147.321V147.321ZM84.0926 145.877L84.9048 146.554C85.4463 147.028 85.717 147.592 85.4914 148.314C85.153 149.442 84.025 149.825 82.9421 149.509C82.4232 149.351 81.8366 149.058 81.3628 148.72C81.25 148.652 81.2274 148.584 81.25 148.517C81.25 148.472 81.2951 148.426 81.3177 148.381L81.7238 147.817C81.7689 147.727 81.8366 147.682 81.9494 147.704C81.9719 147.727 82.0171 147.727 82.0622 147.795C82.4232 148.043 82.8292 148.268 83.2353 148.404C83.5737 148.494 84.0475 148.449 84.1603 148.065C84.2506 147.75 84.0701 147.547 83.8445 147.366L82.9195 146.554C82.4232 146.103 82.175 145.494 82.378 144.839C82.6939 143.824 83.8896 143.553 84.8146 143.847C85.3786 144.005 85.8524 144.253 86.281 144.614C86.3938 144.726 86.4164 144.794 86.3938 144.862C86.3938 144.884 86.3713 144.93 86.3261 144.952L85.8975 145.494C85.8298 145.606 85.7847 145.629 85.6945 145.606C85.6719 145.584 85.6268 145.561 85.5591 145.516C85.2884 145.29 84.8823 145.042 84.5664 144.952C84.2506 144.839 83.8445 144.862 83.7317 145.245C83.664 145.494 83.9347 145.742 84.0926 145.877V145.877ZM95.8242 146.306L95.1699 151.472C95.1474 151.675 95.0346 151.72 94.8992 151.698L94.1998 151.607C94.0419 151.585 93.9291 151.517 93.8614 151.382L91.8084 147.84H91.7858L91.3797 151.021C91.3572 151.201 91.2669 151.246 91.109 151.224L90.3419 151.134C90.1615 151.111 90.0712 151.066 90.1163 150.863L90.748 145.674C90.7706 145.471 90.8834 145.426 91.0639 145.471L91.7407 145.539C91.9212 145.561 91.9889 145.629 92.0565 145.764L94.1096 149.329H94.1321L94.5382 146.125C94.5608 145.945 94.651 145.9 94.8089 145.922L95.6211 146.012C95.8242 146.035 95.8242 146.17 95.8242 146.306V146.306ZM157.054 116.616C152.564 127.874 144.916 137.507 134.944 144.456C125.649 150.931 114.775 154.721 103.472 155.398C103.405 155.398 103.359 155.42 103.314 155.465L99.682 159.075L96.0498 155.465C96.0047 155.42 95.9595 155.398 95.8919 155.398C84.6115 154.721 73.7148 150.931 64.4198 144.456C54.4705 137.507 46.7999 127.874 42.3104 116.616L41.9494 115.736L55.7114 110.457C56.0723 110.299 56.4559 110.434 56.6589 110.75L56.6815 110.773C56.7717 110.908 56.9522 111.179 57.2229 111.427C57.3357 111.788 57.4485 112.149 57.5839 112.487C56.862 112.217 56.3431 111.54 56.14 111.246L56.0949 111.156C56.0723 111.134 56.0272 111.111 55.9821 111.111C55.9821 111.111 55.9595 111.111 55.937 111.111L54.9669 111.495L54.5382 111.675L54.6059 111.856C54.651 111.946 54.6736 112.036 54.6961 112.081C55.1022 113.096 55.5535 114.067 56.0047 115.037C56.0949 115.172 56.1626 115.33 56.2303 115.465L56.6589 115.307L58.4638 114.653C58.5766 114.879 58.6894 115.082 58.7796 115.285L56.9973 115.939L56.5461 116.097C56.6138 116.232 56.6815 116.368 56.7717 116.503C60.404 123.362 65.5929 129.25 72.0227 133.762C79.3324 138.838 87.7926 141.748 96.6815 142.312L97.4485 143.057C88.131 142.651 79.2195 139.65 71.6166 134.326C63.6527 128.776 57.5388 121.105 53.9516 112.126L53.8614 111.923L42.8969 116.142L42.9872 116.345C47.4316 127.49 54.9894 137.011 64.8484 143.892C74.1208 150.344 84.9951 154.089 96.2979 154.698L99.5241 157.902L99.682 158.06L103.066 154.698C114.369 154.089 125.243 150.344 134.516 143.892C144.375 137.011 151.955 127.49 156.399 116.345L156.467 116.142L145.503 111.923L145.435 112.126C141.825 121.105 135.711 128.776 127.747 134.326C120.122 139.65 111.233 142.651 101.916 143.057L102.683 142.312C111.571 141.748 120.032 138.838 127.341 133.762C133.771 129.25 138.983 123.362 142.592 116.503C142.683 116.368 142.75 116.232 142.818 116.097L142.367 115.939L140.584 115.285C140.675 115.082 140.788 114.879 140.878 114.653L142.705 115.307L143.134 115.465C143.201 115.33 143.292 115.172 143.359 115.037C143.811 114.067 144.262 113.096 144.668 112.081C144.69 112.036 144.736 111.946 144.758 111.856L144.848 111.675L144.397 111.495L143.427 111.111C143.405 111.111 143.405 111.111 143.359 111.111C143.337 111.111 143.292 111.134 143.269 111.156L143.224 111.246C143.021 111.54 142.502 112.217 141.78 112.51C141.893 112.149 142.028 111.788 142.141 111.427C142.389 111.201 142.592 110.908 142.683 110.773L142.705 110.75C142.908 110.434 143.292 110.299 143.653 110.457L157.415 115.736L157.054 116.616ZM48.1987 110.254L48.0859 110.073L44.0024 111.901C43.7542 111.991 43.5061 111.901 43.3933 111.675C43.303 111.562 43.0097 111.111 42.7841 110.525C42.5585 109.915 42.3329 109.036 42.5585 108.246C42.739 107.614 43.1902 107.118 43.867 106.825L53.884 102.245C53.9065 102.245 53.9291 102.222 53.9516 102.222C54.1321 102.132 54.4705 102.019 54.8541 102.019C55.1248 102.019 55.4181 102.087 55.7339 102.2C55.7565 102.493 55.7565 102.741 55.7791 103.012C55.4632 102.831 55.1474 102.719 54.8315 102.719C54.6285 102.719 54.4254 102.764 54.2449 102.854L54.1773 102.876C53.726 103.102 53.4102 103.621 53.2748 104.32C53.1395 105.11 53.2748 106.035 53.6809 106.937L53.7486 107.118C53.8388 107.343 53.726 107.592 53.5004 107.704L48.7401 109.803L48.8981 110.028C49.4621 110.818 49.7554 111.585 49.9359 112.171L49.259 112.442C49.1011 111.856 48.7853 111.043 48.1987 110.254V110.254ZM96.1851 141.816C87.567 141.184 79.3775 138.297 72.2934 133.356C65.9539 128.934 60.8101 123.113 57.2004 116.345L59.0052 115.713C59.0503 115.826 59.118 115.917 59.1631 116.029C59.5692 116.751 59.9979 117.473 60.4717 118.15C60.5168 118.218 60.5845 118.308 60.6747 118.421L60.6973 118.488C68.7514 130.536 80.5732 138.049 94.0419 139.65L96.1851 141.816V141.816ZM99.9528 151.021C100.088 151.021 100.156 151.111 100.156 151.224V151.675C100.156 151.765 100.088 151.856 99.9753 151.856L97.8321 151.833C97.6967 151.833 97.629 151.743 97.629 151.653V151.201C97.629 151.043 97.7193 150.998 97.8321 150.998H98.2382L98.2833 146.96L97.8546 146.937C97.7193 146.937 97.6516 146.847 97.6516 146.734V146.306C97.6516 146.193 97.7193 146.103 97.8321 146.103L100.066 146.148C100.201 146.148 100.269 146.238 100.269 146.328V146.779C100.269 146.915 100.178 146.983 100.066 146.983H99.6144L99.5467 151.021H99.9528V151.021ZM140.359 115.713L142.164 116.345C138.577 123.113 133.433 128.934 127.071 133.356C119.987 138.297 111.797 141.184 103.179 141.816L105.322 139.65C118.791 138.049 130.613 130.536 138.644 118.488L138.689 118.421C138.757 118.308 138.825 118.218 138.892 118.127C139.344 117.473 139.795 116.751 140.178 116.029C140.246 115.917 140.314 115.826 140.359 115.713V115.713ZM56.501 98.4095C56.5461 97.5747 56.6138 96.74 56.7266 95.8827C57.2681 90.8742 58.4412 87.242 58.915 85.9109L59.0729 85.4597C61.0582 79.9323 62.6149 75.5556 62.5698 70.2538C62.5472 66.1252 57.5162 60.44 55.576 58.59L54.3803 57.4619L55.5986 56.3565L71.8873 41.489L72.88 42.1433C76.3995 44.4445 80.9116 45.7304 85.6268 45.7304C90.545 45.7304 95.2376 44.3317 98.8022 41.85L99.682 41.2409L100.562 41.85C104.126 44.3317 108.797 45.7304 113.737 45.7304C118.43 45.7304 122.965 44.4445 126.462 42.1433L127.454 41.489L144.984 57.4619L143.788 58.6125C141.848 60.4399 136.817 66.1252 136.794 70.2538C136.749 75.5556 138.306 79.9323 140.291 85.4597L140.449 85.9109C140.923 87.242 142.096 90.8742 142.637 95.8827C142.728 96.74 142.818 97.5747 142.863 98.4095C142.886 99.1991 142.931 100.011 142.931 100.778C142.953 106.554 141.825 111.585 139.569 115.691C139.186 116.39 138.757 117.09 138.306 117.721C138.261 117.812 138.193 117.902 138.103 118.037L138.058 118.082C130.116 129.994 118.43 137.417 105.119 138.974H105.006L99.682 144.298L94.3577 138.974H94.2449C80.9342 137.417 69.2252 129.994 61.2839 118.082L61.2613 118.037C61.171 117.902 61.1034 117.812 61.0582 117.744C60.607 117.09 60.1784 116.39 59.7948 115.691C57.5388 111.585 56.4108 106.554 56.4333 100.778C56.4333 100.011 56.4559 99.1991 56.501 98.4095ZM143.608 102.222C143.946 102.087 144.262 102.019 144.51 102.019C144.894 102.019 145.209 102.132 145.412 102.222C145.435 102.222 145.458 102.245 145.48 102.245L155.497 106.825C156.174 107.118 156.625 107.614 156.806 108.246C157.054 109.036 156.806 109.915 156.58 110.525C156.354 111.111 156.061 111.562 155.971 111.675C155.858 111.901 155.587 111.991 155.384 111.901L151.278 110.073L151.165 110.254C150.579 111.043 150.263 111.856 150.105 112.442L149.451 112.171C149.609 111.585 149.902 110.818 150.466 110.028L150.624 109.803L145.864 107.704C145.638 107.592 145.525 107.343 145.615 107.118L145.683 106.937C146.089 106.035 146.225 105.11 146.089 104.32C145.976 103.621 145.638 103.102 145.187 102.876L145.142 102.854C144.939 102.764 144.736 102.719 144.533 102.719C144.217 102.719 143.901 102.831 143.585 103.034C143.608 102.741 143.608 102.493 143.608 102.222ZM157.934 115.51C157.911 115.465 157.866 115.42 157.821 115.398L150.556 112.6C150.692 112.104 150.94 111.382 151.436 110.66L155.181 112.329C155.317 112.375 155.429 112.397 155.565 112.397C155.903 112.397 156.219 112.217 156.399 111.923C156.49 111.765 156.783 111.314 157.031 110.682C157.392 109.712 157.482 108.855 157.257 108.111C157.031 107.344 156.49 106.757 155.678 106.396L145.683 101.839C145.683 101.816 145.661 101.794 145.615 101.794C145.232 101.613 144.51 101.41 143.63 101.703V100.778C143.63 99.9887 143.608 99.1766 143.562 98.3644C143.517 97.5296 143.45 96.6723 143.359 95.815C142.773 90.7389 141.6 87.0389 141.103 85.6853L140.945 85.2341C139.005 79.7519 137.449 75.4202 137.494 70.2764C137.516 66.3734 142.389 60.8912 144.262 59.1089L146.022 57.4394L127.544 40.6092L126.078 41.5567C122.694 43.7902 118.317 45.0085 113.737 45.0085C108.954 45.0085 104.397 43.6774 100.968 41.2634L99.682 40.361L98.3961 41.2634C94.9443 43.6774 90.4096 45.0085 85.6268 45.0085C81.047 45.0085 76.6702 43.7902 73.2861 41.5567L71.8197 40.6092L55.1248 55.815L53.3425 57.4394L55.0797 59.1089C56.9522 60.8912 61.8253 66.3734 61.8704 70.2764C61.893 75.4202 60.3589 79.7519 58.3961 85.2341L58.2382 85.6853C57.7644 87.0389 56.5687 90.7389 56.0047 95.815C55.9144 96.6723 55.8467 97.5296 55.8016 98.3644C55.7565 99.1766 55.7114 99.9887 55.7114 100.778C55.7114 101.094 55.7114 101.387 55.7339 101.703C54.8541 101.41 54.1321 101.613 53.7712 101.794H53.7486C53.726 101.794 53.7035 101.816 53.6809 101.839L43.6866 106.396C42.8744 106.757 42.3329 107.344 42.1073 108.111C41.8817 108.855 41.972 109.712 42.3329 110.682C42.5811 111.314 42.8744 111.765 42.9872 111.923C43.1451 112.217 43.461 112.397 43.7994 112.397C43.9347 112.397 44.0475 112.375 44.1829 112.329L47.928 110.66C48.4243 111.382 48.6725 112.104 48.8304 112.6L41.5659 115.398C41.4982 115.42 41.4531 115.465 41.4305 115.51C41.4079 115.578 41.4079 115.646 41.4305 115.691L41.8591 116.796C46.3938 128.144 54.1096 137.845 64.1491 144.839C73.4892 151.359 84.4311 155.172 95.779 155.849L99.5241 159.571C99.5692 159.594 99.6144 159.639 99.682 159.639C99.7497 159.639 99.8174 159.594 99.84 159.571L103.585 155.849C114.933 155.172 125.875 151.359 135.215 144.839C145.255 137.845 152.97 128.144 157.505 116.796L157.934 115.691C157.956 115.646 157.956 115.578 157.934 115.51" fill="#274488"/>
<path d="M96.5754 127.26C97.0717 126.967 97.5906 126.606 97.5906 125.906C97.5906 125.297 97.1394 124.823 96.5077 124.823C95.8986 124.823 95.4248 125.275 95.4248 125.884C95.4248 126.538 95.9437 126.899 96.5754 127.26Z" fill="#274488"/>
<path d="M130.588 63.8579C130.001 64.2188 129.392 64.3542 128.963 64.2639C129.099 63.7902 129.505 63.2713 130.091 62.8878C130.655 62.5268 131.287 62.3914 131.716 62.4817C131.58 62.978 131.174 63.4969 130.588 63.8579ZM129.437 65.9786C128.873 66.3621 128.264 66.4975 127.813 66.3847C127.948 65.9109 128.354 65.392 128.941 65.031C129.527 64.6475 130.136 64.5121 130.588 64.6249C130.43 65.0987 130.024 65.6176 129.437 65.9786ZM128.331 67.8511C127.677 67.9865 127.046 67.8737 126.662 67.6029C126.933 67.2194 127.497 66.881 128.151 66.7456C128.805 66.6103 129.414 66.7231 129.798 66.9938C129.527 67.3773 128.986 67.7157 128.331 67.8511V67.8511ZM127.813 118.973C127.203 118.973 126.594 118.996 126.256 118.996C126.436 117.981 126.504 116.808 126.504 115.431V113.785C126.504 112.702 126.414 111.416 124.857 111.416C124.316 111.416 123.774 111.641 123.346 112.047C122.872 112.521 122.736 112.927 122.736 114.1V115.431C122.736 117.169 122.849 118.206 123.12 118.996C122.827 118.996 122.218 118.973 121.631 118.973C120.999 118.973 120.413 118.996 120.097 118.996C120.255 117.981 120.322 116.808 120.322 115.431V113.13C120.322 112.205 120.232 110.829 119.916 109.836C120.751 109.836 121.902 109.836 122.714 109.769L122.646 111.393L123.413 110.739C124.338 109.972 125.083 109.633 126.03 109.633C128.196 109.633 128.941 110.874 128.941 112.995V115.431C128.941 117.169 129.053 118.206 129.324 118.996C129.008 118.996 128.399 118.973 127.813 118.973V118.973ZM114.366 119.289C111.456 119.289 109.742 117.597 109.742 114.664C109.742 111.777 111.501 109.656 114.795 109.656C117.728 109.656 119.397 111.325 119.397 114.191C119.397 117.327 117.435 119.289 114.366 119.289ZM109.538 109.994C109.471 110.265 109.268 111.032 109.155 111.348C108.433 111.28 108.004 111.258 107.508 111.258H106.673C106.651 111.889 106.628 112.634 106.628 113.175V115.296C106.628 116.717 106.786 117.778 108.027 117.778C108.41 117.778 108.726 117.688 109.223 117.439C109.313 117.394 109.493 117.394 109.426 117.665C109.313 118.071 109.2 118.455 109.087 118.928C107.959 119.222 107.485 119.289 106.899 119.289C105.275 119.289 104.237 118.613 104.237 116.311V113.446C104.237 112.544 104.237 111.867 104.214 111.235C103.718 111.235 103.176 111.303 102.928 111.348C102.883 111.348 102.748 111.348 102.815 111.145C102.815 111.077 103.064 110.22 103.154 109.927C103.379 109.949 103.831 109.972 104.282 109.972C104.282 109.227 104.237 108.844 104.214 108.28C104.868 108.077 106.064 107.535 106.583 107.219C106.786 107.084 106.876 107.265 106.854 107.468C106.831 107.693 106.696 108.302 106.673 109.972H107.982C108.433 109.972 108.929 109.949 109.403 109.836C109.493 109.814 109.584 109.859 109.538 109.994V109.994ZM105.861 131.743C104.62 131.743 103.763 130.998 103.763 129.915C103.763 128.99 104.327 128.472 105.275 127.93C104.688 127.569 104.101 127.095 104.101 126.215C104.101 125.2 104.981 124.388 106.109 124.388C107.192 124.388 108.004 125.087 108.004 126.035C108.004 126.915 107.395 127.366 106.741 127.727C107.531 128.178 108.23 128.72 108.23 129.69C108.23 130.885 107.237 131.743 105.861 131.743V131.743ZM100.74 131.495L100.717 131.54H100.672C100.672 131.54 99.86 131.54 99.3862 131.585H99.3636L99.2734 131.404L102.748 125.471H100.559C100.221 125.471 99.7923 125.516 99.4313 125.787L99.3862 125.809L99.2283 125.719L99.2508 125.674C99.3636 125.358 99.4539 124.817 99.499 124.614V124.569H99.5441C99.7923 124.569 100.063 124.569 100.356 124.569H102.861C103.176 124.569 103.334 124.569 103.628 124.569L103.695 124.546V124.614C103.695 124.704 103.763 125.155 103.786 125.245L103.808 125.268L103.786 125.29C103.244 125.9 102.612 127.028 102.048 128.02C101.146 129.667 100.808 130.57 100.74 131.495ZM99.1831 118.996C98.8899 118.996 98.2807 118.973 97.7167 118.973C97.1301 118.973 96.5435 118.996 96.1826 118.996C96.3631 117.936 96.4082 117.011 96.4082 115.68V113.424C96.4082 112.544 96.3405 110.919 96.0247 109.927C96.724 109.927 97.8295 109.904 98.574 109.859L98.5514 112.002L99.2283 111.122C100.063 109.994 100.65 109.656 101.529 109.656C101.845 109.656 102.003 109.679 102.342 109.836C102.071 110.784 101.8 111.777 101.642 112.363C101.597 112.476 101.484 112.657 101.326 112.453C100.965 112.07 100.898 111.912 100.469 111.912C99.9276 111.912 99.499 112.205 99.1831 112.724C98.9124 113.153 98.8222 113.514 98.8222 114.394V115.905C98.8222 117.53 98.9124 118.206 99.1831 118.996V118.996ZM96.2728 131.607C95.032 131.607 94.1747 130.84 94.1747 129.78C94.1747 128.855 94.7613 128.336 95.6862 127.772C95.0997 127.434 94.5131 126.937 94.5131 126.08C94.5131 125.042 95.393 124.253 96.5435 124.253C97.6265 124.253 98.4161 124.952 98.4161 125.9C98.4161 126.779 97.8069 127.231 97.1527 127.592C97.9423 128.02 98.6417 128.562 98.6417 129.532C98.6417 130.728 97.649 131.607 96.2728 131.607ZM93.2046 131.427C93.0918 131.404 92.8662 131.382 92.6406 131.382C92.4601 131.382 92.2796 131.404 92.054 131.427H91.9637L91.9863 131.359C92.0765 130.795 92.0991 130.231 92.0991 129.6V126.396C92.0991 125.494 92.0314 125.403 91.7381 125.403C91.6704 125.403 91.5351 125.426 91.3772 125.448L90.8808 125.561C90.7229 125.606 90.6327 125.629 90.5199 125.697H90.4973L90.3619 125.584L90.3845 125.539C90.4522 125.403 90.5424 125.178 90.5875 124.975L90.6101 124.929H90.6327C90.9034 124.907 91.0839 124.884 91.3772 124.817L92.4375 124.591C92.6406 124.546 92.8662 124.501 93.0466 124.433H93.0692L93.2046 124.546L93.182 124.569C93.0918 125.178 93.0692 125.854 93.0692 126.238V129.712C93.0692 130.412 93.1369 130.976 93.2497 131.337L93.2723 131.427H93.2046V131.427ZM87.0906 114.552C87.0906 111.664 88.9181 109.679 91.5576 109.679C93.8588 109.679 95.2801 111.032 95.2801 113.243C95.2801 113.424 95.2801 114.236 94.9417 114.236H92.5954C91.6253 114.236 90.2717 114.258 89.6626 114.281C89.7077 116.492 90.8808 117.755 92.8662 117.755C93.6558 117.755 94.1296 117.575 94.7838 117.146C94.9417 117.033 95.1222 117.124 95.032 117.417C94.8515 118.071 94.8064 118.229 94.6485 118.77C93.8137 119.064 92.7308 119.334 91.7607 119.334C88.8955 119.334 87.0906 117.394 87.0906 114.552V114.552ZM84.3157 117.101C84.045 117.755 83.9096 118.252 83.7517 118.996C83.5486 118.973 83.12 118.973 82.6913 118.973C82.3304 118.973 81.8566 118.996 81.5182 118.996C81.3828 118.184 81.2249 117.688 80.9541 116.853L79.7359 113.13C79.3523 112.002 78.9237 110.784 78.1115 109.836C79.3298 109.882 80.2773 109.836 81.4505 109.746C81.5407 110.649 81.7212 111.528 81.9919 112.386L82.6688 114.732C82.8492 115.296 83.2102 116.537 83.2102 116.537C83.323 116.131 83.4809 115.725 83.6163 115.386L84.6767 112.611C84.8571 112.115 85.1053 111.371 85.173 110.626C85.173 110.378 85.1955 110.13 85.173 109.814C85.4437 109.836 85.9175 109.836 86.3236 109.836C86.6845 109.836 87.2937 109.791 87.5644 109.746C87.8351 109.724 87.79 109.882 87.6998 109.972C87.0681 110.784 86.5492 111.889 86.0754 113.017L84.3157 117.101ZM78.7658 117.078C78.6304 117.53 78.2469 118.951 78.2018 119.086C76.1262 118.996 74.75 118.996 73.5317 118.996C71.9976 118.996 71.0049 118.996 70.1702 118.996C70.3055 118.026 70.4183 116.898 70.4183 115.499V109.701C70.4183 108.754 70.3732 106.971 70.0574 106.136C70.6665 106.182 71.1177 106.182 71.5689 106.182H75.0433C76.2841 106.182 76.7804 106.136 78.1341 106.136C77.8859 107.016 77.6377 107.941 77.5249 108.302C77.4347 108.663 77.2316 108.393 77.2091 108.347C76.6451 107.513 75.517 107.422 74.4792 107.422C74.1408 107.422 73.7573 107.445 73.2835 107.445C73.261 107.761 73.2159 108.641 73.2159 109.453V111.325H74.75C75.878 111.325 77.006 111.235 77.4573 111.168C77.6377 111.168 77.5926 111.303 77.5926 111.303C77.4573 111.822 77.2768 112.476 77.164 112.905C75.9682 112.792 75.3366 112.769 74.5018 112.769H73.1933V115.386C73.1933 117.078 73.3738 117.642 75.4042 117.642C76.5323 117.642 77.164 117.642 78.4048 116.717C78.6078 116.537 78.8786 116.627 78.7658 117.078V117.078ZM69.561 66.9938C69.9446 66.7231 70.5763 66.6103 71.2305 66.7456C71.8848 66.881 72.4262 67.2194 72.7195 67.6029C72.3134 67.8737 71.7043 67.9865 71.05 67.8511C70.3958 67.7157 69.8543 67.3773 69.561 66.9938ZM68.794 64.6249C69.2452 64.5121 69.8543 64.6475 70.4183 65.031C71.0049 65.392 71.411 65.9109 71.5464 66.3847C71.1177 66.4975 70.5086 66.3621 69.922 65.9786C69.358 65.6176 68.9293 65.0987 68.794 64.6249ZM67.6434 62.4817C68.0946 62.3914 68.7037 62.5268 69.2903 62.8878C69.8769 63.2713 70.283 63.7902 70.4183 64.2639C69.9671 64.3542 69.358 64.2188 68.7714 63.8579C68.2074 63.4969 67.8013 62.978 67.6434 62.4817ZM67.9141 57.4055C68.3428 57.586 68.794 58.0598 69.1098 58.714C69.4257 59.3683 69.5385 60.0451 69.4257 60.5414C68.997 60.361 68.5458 59.8872 68.23 59.2329C67.9141 58.5787 67.8013 57.9019 67.9141 57.4055V57.4055ZM69.2001 55.6684C69.5385 55.9842 69.8543 56.5933 69.9671 57.3153C70.0799 58.0598 69.9671 58.7366 69.7415 59.1652C69.3805 58.8494 69.0873 58.2403 68.9745 57.5183C68.8617 56.7738 68.9519 56.097 69.2001 55.6684ZM69.8769 55.2623C69.8994 54.4952 70.1476 53.8635 70.4635 53.5025C70.7342 53.9086 70.9147 54.5629 70.8695 55.3299C70.8244 56.0519 70.5988 56.6836 70.283 57.0445C70.0122 56.661 69.8318 55.9842 69.8769 55.2623ZM70.6214 61.1506C70.9598 61.4664 71.2531 62.0756 71.3659 62.7975C71.4787 63.542 71.3884 64.2188 71.1403 64.6475C70.7793 64.3316 70.486 63.7225 70.3732 62.978C70.283 62.2561 70.3732 61.5792 70.6214 61.1506V61.1506ZM69.9446 62.9103C69.4934 62.8201 68.9519 62.4591 68.5232 61.8951C68.0946 61.3085 67.869 60.6768 67.8915 60.1805C68.3428 60.2482 68.8842 60.6091 69.2903 61.1731C69.719 61.7597 69.9446 62.3914 69.9446 62.9103V62.9103ZM69.6513 61.1731C69.5836 60.7219 69.6964 60.1354 70.0122 59.5713C70.3281 59.0073 70.7567 58.6012 71.1403 58.4659C71.2305 58.9171 71.0952 59.5262 70.7793 60.0902C70.486 60.6542 70.0348 61.0603 69.6513 61.1731V61.1731ZM71.0726 56.9092C71.5238 56.5031 72.0427 56.2775 72.4488 56.3C72.3811 56.7513 72.0878 57.2702 71.614 57.6988C71.1628 58.1049 70.6439 58.3305 70.2379 58.3079C70.3055 57.8567 70.5988 57.3378 71.0726 56.9092ZM71.6817 54.5178C72.0653 53.9086 72.5616 53.5025 72.9902 53.3672C73.0579 53.8861 72.8774 54.5629 72.4939 55.1495C72.1329 55.7812 71.6141 56.1872 71.1854 56.3C71.1403 55.8037 71.2982 55.1269 71.6817 54.5178V54.5178ZM72.9902 67.2871C72.5616 67.1066 72.1329 66.6328 71.8171 65.9786C71.5012 65.3243 71.4336 64.6249 71.5464 64.1511C71.9525 64.3316 72.4037 64.8054 72.7195 65.4597C73.0128 66.1365 73.1031 66.8133 72.9902 67.2871ZM74.4341 68.4377C74.1183 68.8212 73.5543 69.1145 72.9 69.2047C72.2232 69.295 71.614 69.137 71.2531 68.8438C71.5464 68.4828 72.1329 68.1895 72.7872 68.0993C73.4415 68.009 74.0506 68.1444 74.4341 68.4377ZM75.0207 67.2194C75.5622 67.648 75.9457 68.1895 76.0585 68.6633C75.6073 68.7535 75.0207 68.573 74.4567 68.1444C73.8927 67.7609 73.5091 67.1968 73.3963 66.7005C73.8475 66.6328 74.4341 66.8133 75.0207 67.2194V67.2194ZM76.3067 69.0017C76.3292 69.0017 76.3292 69.0242 76.3292 69.0242C76.5097 69.1145 76.6902 69.1822 76.8707 69.2724C76.8707 69.2724 77.0737 69.137 77.4573 69.0017C77.8408 68.8438 78.3597 68.7986 78.9011 68.9566C79.5554 69.1145 80.0743 69.4755 80.345 69.8815C79.9615 70.1297 79.3523 70.1974 78.6755 70.0395C78.0664 69.8815 77.5475 69.5431 77.2768 69.1596C77.1865 69.2273 77.1188 69.295 77.0286 69.3627C77.728 69.7913 78.292 70.3328 78.856 71.0547C78.6304 71.3931 78.5402 71.5736 78.3146 71.912C77.8859 70.9645 77.4573 70.1974 76.8707 69.5431C76.2615 70.1974 75.7426 70.987 75.3366 71.912C75.1109 71.5736 74.9981 71.4157 74.7951 71.0773C75.3366 70.3553 75.9683 69.7913 76.6902 69.3627C76.6225 69.295 76.5323 69.2273 76.4646 69.137C76.1713 69.5431 75.675 69.8815 75.0433 70.0395C74.389 70.1974 73.7573 70.1297 73.3738 69.8815C73.6219 69.4755 74.1634 69.1145 74.8177 68.9566C75.3817 68.7986 75.9006 68.8438 76.2841 69.0017H76.3067V69.0017ZM78.6755 67.2194C79.2395 66.8133 79.8261 66.6328 80.2773 66.7005C80.1645 67.1968 79.781 67.7609 79.2395 68.1444C78.6755 68.573 78.0664 68.7535 77.6377 68.6633C77.728 68.1895 78.1115 67.648 78.6755 67.2194ZM80.909 68.0993C81.5633 68.1895 82.1273 68.4828 82.4431 68.8438C82.0596 69.137 81.4505 69.295 80.7737 69.2047C80.1194 69.1145 79.5554 68.8212 79.2621 68.4377C79.6231 68.1444 80.2322 68.009 80.909 68.0993V68.0993ZM80.9767 65.4597C81.2926 64.8054 81.7212 64.3316 82.1499 64.1511C82.2627 64.6249 82.1724 65.3243 81.8566 65.9786C81.5633 66.6328 81.1121 67.1066 80.6834 67.2871C80.5932 66.8133 80.6609 66.1365 80.9767 65.4597ZM80.6834 53.3672C81.1346 53.5025 81.631 53.9086 82.0145 54.5178C82.3755 55.1269 82.556 55.8037 82.4883 56.3C82.0596 56.1872 81.5633 55.7812 81.1798 55.1495C80.7962 54.5629 80.6383 53.8861 80.6834 53.3672ZM83.4584 58.3079C83.0523 58.3305 82.5334 58.1049 82.0596 57.6988C81.5858 57.2702 81.2926 56.7513 81.2249 56.3C81.631 56.2775 82.1499 56.5031 82.6236 56.9092C83.0974 57.3378 83.3907 57.8567 83.4584 58.3079ZM83.2102 53.5025C83.5486 53.8635 83.7742 54.4952 83.7968 55.2623C83.8645 55.9842 83.684 56.661 83.4133 57.0445C83.0974 56.6836 82.8492 56.0519 82.8041 55.3299C82.7816 54.5629 82.9395 53.9086 83.2102 53.5025ZM84.4962 55.6684C84.7443 56.097 84.8346 56.7738 84.7218 57.5183C84.609 58.2403 84.2931 58.8494 83.9547 59.1652C83.7065 58.7366 83.6163 58.0598 83.7291 57.3153C83.8419 56.5933 84.1352 55.9842 84.4962 55.6684ZM85.7596 57.4055C85.8724 57.9019 85.7821 58.5787 85.4663 59.2329C85.1504 59.8872 84.6767 60.361 84.2706 60.5414C84.1578 60.0451 84.248 59.3683 84.5639 58.714C84.8797 58.0598 85.3309 57.586 85.7596 57.4055ZM83.2779 64.2639C83.4133 63.7902 83.8194 63.2713 84.4059 62.8878C84.9925 62.5268 85.5791 62.3914 86.0303 62.4817C85.8949 62.978 85.4888 63.4969 84.9023 63.8579C84.3157 64.2188 83.7065 64.3542 83.2779 64.2639V64.2639ZM83.0748 61.1506C83.3005 61.5792 83.4133 62.2561 83.3005 62.978C83.1877 63.7225 82.8944 64.3316 82.5334 64.6475C82.3078 64.2188 82.195 63.542 82.3078 62.7975C82.4206 62.0756 82.7139 61.4664 83.0748 61.1506ZM84.3834 61.1731C84.812 60.6091 85.3309 60.2482 85.7821 60.1805C85.8047 60.6768 85.5791 61.3085 85.1504 61.8951C84.7218 62.4591 84.2029 62.8201 83.7517 62.9103C83.7517 62.3914 83.9547 61.7597 84.3834 61.1731V61.1731ZM84.045 61.1731C83.6389 61.0603 83.2102 60.6542 82.8944 60.0902C82.5785 59.5262 82.4657 58.9171 82.5334 58.4659C82.9169 58.6012 83.3456 59.0073 83.6614 59.5713C83.9773 60.1354 84.1126 60.7219 84.045 61.1731V61.1731ZM84.1126 66.9938C83.8419 67.3773 83.3005 67.7157 82.6236 67.8511C81.9694 67.9865 81.3602 67.8737 80.9767 67.6029C81.2474 67.2194 81.7889 66.881 82.4657 66.7456C83.12 66.6103 83.7291 66.7231 84.1126 66.9938ZM83.7517 65.9786C83.1877 66.3621 82.556 66.4975 82.1273 66.3847C82.2627 65.9109 82.6688 65.392 83.2553 65.031C83.8419 64.6475 84.451 64.5121 84.8797 64.6249C84.7443 65.0987 84.3382 65.6176 83.7517 65.9786ZM89.3693 71.2126L98.6191 51.5623C98.2807 50.8178 98.8447 49.8928 99.5667 49.8928C100.289 49.8928 100.965 50.8178 100.627 51.5397L109.945 71.0773C111.524 71.8443 112.223 72.8144 112.133 73.4687C112.065 74.1681 111.569 74.5967 110.982 74.8223C111.027 78.3643 110.87 90.9306 110.915 98.1049C111.704 98.2854 111.704 99.1201 111.637 101.827C111.591 104.422 111.817 105.302 110.102 105.302C109.877 105.302 109.426 105.279 109.426 105.279V104.399C109.403 103.948 109.403 103.813 109.155 103.722C108.433 103.429 107.666 103.181 106.831 102.843C106.245 102.64 88.6022 96.3226 88.6022 96.3226C88.6022 96.3226 87.79 96.097 87.79 95.3074C87.79 95.2397 87.7675 94.5629 87.7675 94.3373V91.8105C87.7675 91.1562 88.1961 90.9306 88.5796 90.9757C88.6022 90.9757 88.6022 90.9081 88.6022 90.8629C88.5796 88.5392 88.5571 76.379 88.5571 75.0931C87.7449 74.8449 87.5193 74.2809 87.5193 74.2809C87.1358 73.4461 87.5419 72.1827 89.3693 71.2126V71.2126ZM114.976 62.8878C115.54 63.2713 115.968 63.7902 116.104 64.2639C115.652 64.3542 115.043 64.2188 114.479 63.8579C113.893 63.4969 113.464 62.978 113.329 62.4817C113.78 62.3914 114.389 62.5268 114.976 62.8878ZM113.599 57.4055C114.028 57.586 114.479 58.0598 114.795 58.714C115.111 59.3683 115.224 60.0451 115.111 60.5414C114.682 60.361 114.231 59.8872 113.915 59.2329C113.599 58.5787 113.487 57.9019 113.599 57.4055ZM114.885 55.6684C115.246 55.9842 115.54 56.5933 115.652 57.3153C115.765 58.0598 115.675 58.7366 115.427 59.1652C115.066 58.8494 114.773 58.2403 114.66 57.5183C114.547 56.7738 114.637 56.097 114.885 55.6684ZM115.562 55.2623C115.607 54.4952 115.833 53.8635 116.149 53.5025C116.442 53.9086 116.6 54.5629 116.555 55.3299C116.51 56.0519 116.284 56.6836 115.968 57.0445C115.675 56.661 115.517 55.9842 115.562 55.2623ZM116.735 56.9092C117.209 56.5031 117.728 56.2775 118.157 56.3C118.066 56.7513 117.773 57.2702 117.322 57.6988C116.848 58.1049 116.307 58.3305 115.901 58.3079C115.968 57.8567 116.284 57.3378 116.735 56.9092ZM117.367 54.5178C117.751 53.9086 118.247 53.5025 118.676 53.3672C118.743 53.8861 118.563 54.5629 118.202 55.1495C117.796 55.7812 117.322 56.1872 116.871 56.3C116.826 55.8037 116.983 55.1269 117.367 54.5178ZM118.676 67.2871C118.247 67.1066 117.796 66.6328 117.502 65.9786C117.187 65.3243 117.096 64.6249 117.209 64.1511C117.638 64.3316 118.089 64.8054 118.382 65.4597C118.698 66.1365 118.788 66.8133 118.676 67.2871ZM116.916 66.7456C117.57 66.881 118.112 67.2194 118.382 67.6029C117.999 67.8737 117.39 67.9865 116.735 67.8511C116.081 67.7157 115.54 67.3773 115.246 66.9938C115.652 66.7231 116.262 66.6103 116.916 66.7456V66.7456ZM117.254 66.3847C116.803 66.4975 116.194 66.3621 115.607 65.9786C115.021 65.6176 114.615 65.0987 114.479 64.6249C114.93 64.5121 115.54 64.6475 116.104 65.031C116.69 65.392 117.096 65.9109 117.254 66.3847ZM116.307 61.1506C116.668 61.4664 116.961 62.0756 117.051 62.7975C117.164 63.542 117.074 64.2188 116.826 64.6475C116.465 64.3316 116.171 63.7225 116.081 62.978C115.968 62.2561 116.058 61.5792 116.307 61.1506ZM115.607 62.9103C115.179 62.8201 114.637 62.4591 114.209 61.8951C113.78 61.3085 113.554 60.6768 113.577 60.1805C114.028 60.2482 114.547 60.6091 114.976 61.1731C115.404 61.7597 115.63 62.3914 115.607 62.9103V62.9103ZM115.337 61.1731C115.269 60.7219 115.382 60.1354 115.698 59.5713C116.013 59.0073 116.442 58.6012 116.848 58.4659C116.916 58.9171 116.78 59.5262 116.465 60.0902C116.149 60.6542 115.72 61.0603 115.337 61.1731V61.1731ZM120.097 68.4377C119.804 68.8212 119.24 69.1145 118.585 69.2047C117.908 69.295 117.322 69.137 116.938 68.8438C117.254 68.4828 117.796 68.1895 118.472 68.0993C119.127 68.009 119.736 68.1444 120.097 68.4377V68.4377ZM120.706 67.2194C121.247 67.648 121.631 68.1895 121.744 68.6633C121.293 68.7535 120.706 68.573 120.142 68.1444C119.578 67.7609 119.194 67.1968 119.082 66.7005C119.533 66.6328 120.142 66.8133 120.706 67.2194ZM122.511 69.2724C122.669 69.1822 122.849 69.1145 123.03 69.0242C123.052 69.0242 123.052 69.0017 123.075 69.0017C123.481 68.8438 124 68.7986 124.541 68.9566C125.196 69.1145 125.737 69.4755 126.008 69.8815C125.602 70.1297 124.97 70.1974 124.338 70.0395C123.707 69.8815 123.188 69.5431 122.917 69.137C122.827 69.2273 122.759 69.295 122.669 69.3627C123.413 69.7913 124.045 70.3553 124.586 71.0773C124.361 71.4157 124.271 71.5736 124.045 71.912C123.639 70.987 123.12 70.1974 122.511 69.5431C121.924 70.1974 121.473 70.9645 121.044 71.912C120.841 71.5736 120.729 71.3931 120.525 71.0547C121.067 70.3328 121.631 69.7913 122.33 69.3627C122.263 69.295 122.172 69.2273 122.105 69.1596C121.811 69.5431 121.315 69.8815 120.683 70.0395C120.029 70.1974 119.42 70.1297 119.014 69.8815C119.285 69.4755 119.804 69.1145 120.458 68.9566C120.999 68.7986 121.518 68.8438 121.924 69.0017C122.285 69.137 122.511 69.2724 122.511 69.2724V69.2724ZM124.361 67.2194C124.925 66.8133 125.511 66.6328 125.963 66.7005C125.85 67.1968 125.466 67.7609 124.925 68.1444C124.361 68.573 123.752 68.7535 123.3 68.6633C123.413 68.1895 123.797 67.648 124.361 67.2194ZM126.594 68.0993C127.249 68.1895 127.813 68.4828 128.106 68.8438C127.745 69.137 127.136 69.295 126.482 69.2047C125.805 69.1145 125.241 68.8212 124.947 68.4377C125.308 68.1444 125.917 68.009 126.594 68.0993V68.0993ZM126.662 65.4597C126.978 64.8054 127.406 64.3316 127.835 64.1511C127.948 64.6249 127.858 65.3243 127.564 65.9786C127.249 66.6328 126.797 67.1066 126.391 67.2871C126.256 66.8133 126.346 66.1365 126.662 65.4597ZM126.369 53.3672C126.82 53.5025 127.316 53.9086 127.7 54.5178C128.083 55.1269 128.241 55.8037 128.196 56.3C127.745 56.1872 127.249 55.7812 126.865 55.1495C126.481 54.5629 126.324 53.8861 126.369 53.3672ZM129.144 58.3079C128.738 58.3305 128.219 58.1049 127.745 57.6988C127.271 57.2702 126.978 56.7513 126.91 56.3C127.316 56.2775 127.835 56.5031 128.309 56.9092C128.783 57.3378 129.076 57.8567 129.144 58.3079ZM128.918 53.5025C129.234 53.8635 129.459 54.4952 129.505 55.2623C129.527 55.9842 129.369 56.661 129.099 57.0445C128.76 56.6836 128.535 56.0519 128.512 55.3299C128.467 54.5629 128.625 53.9086 128.918 53.5025V53.5025ZM130.181 55.6684C130.407 56.097 130.52 56.7738 130.407 57.5183C130.294 58.2403 129.978 58.8494 129.64 59.1652C129.392 58.7366 129.302 58.0598 129.414 57.3153C129.527 56.5933 129.82 55.9842 130.181 55.6684ZM130.069 61.1731C130.497 60.6091 131.016 60.2482 131.467 60.1805C131.49 60.6768 131.264 61.3085 130.836 61.8951C130.407 62.4591 129.888 62.8201 129.437 62.9103C129.414 62.3914 129.64 61.7597 130.069 61.1731V61.1731ZM128.986 62.978C128.873 63.7225 128.58 64.3316 128.219 64.6475C127.993 64.2188 127.88 63.542 127.993 62.7975C128.106 62.0756 128.399 61.4664 128.76 61.1506C128.986 61.5792 129.099 62.2561 128.986 62.978ZM128.58 60.0902C128.264 59.5262 128.151 58.9171 128.219 58.4659C128.602 58.6012 129.031 59.0073 129.347 59.5713C129.663 60.1354 129.798 60.7219 129.708 61.1731C129.324 61.0603 128.895 60.6542 128.58 60.0902V60.0902ZM131.445 57.4055C131.558 57.9019 131.467 58.5787 131.129 59.2329C130.813 59.8872 130.362 60.361 129.956 60.5414C129.843 60.0451 129.933 59.3683 130.249 58.714C130.565 58.0598 131.016 57.586 131.445 57.4055ZM142.725 57.4732L127.316 43.4405C123.684 45.8094 118.946 47.2532 113.735 47.2532C108.298 47.2532 103.357 45.674 99.6795 43.1021C96.0021 45.674 91.0613 47.2532 85.6242 47.2532C80.4127 47.2532 75.675 45.8094 72.0653 43.4405L56.6338 57.4732C56.6338 57.4732 64.0788 64.5347 64.1239 70.2425C64.1465 75.9729 62.4544 80.5979 60.3563 86.4411C59.5892 88.6294 58.6868 92.0812 58.2582 96.0744C58.1679 96.8415 58.0777 97.6762 58.0325 98.511C57.9874 99.2555 57.9874 100.023 57.9649 100.79C57.9423 105.527 58.7545 110.581 61.1459 114.958C61.5069 115.612 61.8904 116.244 62.3191 116.853C63.5599 118.635 73.6445 135.33 95.0545 137.518L95.1448 137.586L99.6795 142.121L104.237 137.586L104.304 137.518C125.714 135.33 135.799 118.635 137.04 116.853C137.469 116.244 137.875 115.612 138.213 114.958C140.604 110.581 141.417 105.527 141.394 100.79C141.394 100.023 141.372 99.2555 141.326 98.511C141.281 97.6762 141.191 96.8415 141.123 96.0744C140.672 92.0812 139.792 88.6294 139.003 86.4411C136.927 80.5979 135.212 75.9729 135.258 70.2425C135.28 64.5347 142.725 57.4732 142.725 57.4732" fill="#274488"/>
<path d="M106.157 127.402C106.653 127.109 107.172 126.748 107.172 126.049C107.172 125.439 106.721 124.966 106.089 124.966C105.48 124.966 105.029 125.417 105.029 126.026C105.029 126.68 105.525 127.041 106.157 127.402Z" fill="#274488"/>
<path d="M105.861 128.266C105.027 128.672 104.621 129.214 104.621 129.868C104.621 130.59 105.162 131.131 105.929 131.131C106.696 131.131 107.283 130.59 107.283 129.868C107.283 129.169 106.809 128.785 105.861 128.266Z" fill="#274488"/>
<path d="M96.2779 128.126C95.4432 128.532 95.0371 129.074 95.0371 129.728C95.0371 130.45 95.5786 130.992 96.3456 130.992C97.1127 130.992 97.6993 130.428 97.6993 129.728C97.6993 129.029 97.2255 128.645 96.2779 128.126Z" fill="#274488"/>
</svg>
