<svg width="200" height="200" viewBox="0 0 200 200" fill="none" xmlns="http://www.w3.org/2000/svg">
<rect width="200" height="200" fill="white"/>
<g clip-path="url(#clip0)">
<path d="M79.7545 140.86C79.7545 140.86 64.0873 133.002 56.4546 120.948C56.4952 131.306 55.9839 144.226 55.9839 144.226L79.9635 148.937L79.7545 140.86Z" fill="white"/>
<path d="M121.157 141.073C121.157 141.073 136.824 133.834 144.457 121.782C144.416 132.138 144.929 144.224 144.929 144.224L120.948 148.937L121.157 141.073Z" fill="white"/>
<path d="M121.325 156.189H79.6475V137.168H121.325V156.189Z" fill="white"/>
<path d="M112.887 138.576C112.887 145.316 107.35 150.786 100.521 150.786C93.6936 150.786 88.1567 145.316 88.1567 138.576C88.1567 131.832 93.6936 126.364 100.521 126.364C107.35 126.364 112.887 131.832 112.887 138.576Z" fill="white"/>
<path d="M50.6941 144.95V127.108L49.6289 126.708V124.295L50.6941 123.823V122.141L49.6289 121.743V118.866L53.1288 115.547V114.762C53.1288 114.762 53.2464 114.072 54.1432 114.072H55.1759C55.1759 114.072 55.9834 114.189 55.9834 114.762V115.494L59.5726 118.876L59.5381 121.753L58.4709 122.131V123.809L59.5604 124.275V126.931V143.233L50.6941 144.95Z" fill="white"/>
<path d="M150.635 144.95V127.108L151.7 126.708V124.295L150.635 123.823V122.141L151.7 121.743V118.866L148.2 115.547V114.762C148.2 114.762 148.082 114.072 147.186 114.072H146.151C146.151 114.072 145.345 114.189 145.345 114.762V115.494L141.756 118.876L141.789 121.753L142.856 122.131V123.809L141.769 124.275V126.931V143.233L150.635 144.95Z" fill="white"/>
<path d="M99.4363 170C90.7709 170 85.232 167.03 79.3968 163.899C76.3048 162.244 73.1092 160.529 69.3537 159.269C58.7304 155.702 51.7347 160.073 51.4425 160.261L50.0264 158.078C50.3591 157.861 58.3104 152.817 70.1815 156.802C74.144 158.133 77.4369 159.9 80.6243 161.609C86.6502 164.839 92.3331 167.892 101.69 167.33C110.443 166.805 116.459 163.83 122.276 160.953C124.755 159.726 127.098 158.567 129.582 157.634C129.742 157.573 129.933 157.498 130.152 157.413C133.264 156.181 142.741 152.444 150.924 158.675L149.347 160.744C142.331 155.4 134.177 158.62 131.106 159.831C130.874 159.922 130.671 160.004 130.497 160.069C128.137 160.957 125.849 162.087 123.428 163.284C117.66 166.135 111.123 169.369 101.849 169.927C101.019 169.976 100.215 170 99.4363 170Z" fill="white"/>
<path d="M145.849 165.299L144.009 164.114C143.597 163.849 142.512 163.68 141.41 163.857C141.215 163.887 141.01 163.934 140.807 163.978C139.884 164.183 138.734 164.433 137.841 163.717C137.476 163.423 137.035 162.854 137.035 161.812C137.033 161.018 137.376 160.312 137.999 159.827C140.032 158.247 145.021 159.351 146.502 159.726C147.486 159.996 148.574 159.986 148.787 159.791C149.292 154.175 151.575 150.113 152.859 148.226C143.636 142.651 129.52 145.68 124.229 149.058C116.343 154.096 109.767 157.22 101.369 157.257C94.2134 157.263 88.1409 154.315 81.7316 151.178C78.1424 149.421 74.4336 147.605 70.3555 146.236C61.7813 143.357 52.0284 146.597 48.3236 148.076C49.7012 149.971 51.8011 153.69 52.0284 159.014C52.2292 159.261 53.3107 159.324 54.2825 159.109C55.8062 158.799 60.8419 157.936 62.7958 159.612C63.3943 160.128 63.7047 160.846 63.6662 161.637C63.6155 162.678 63.1508 163.228 62.7694 163.504C61.8442 164.177 60.708 163.871 59.793 163.621C59.5901 163.569 59.3913 163.514 59.2006 163.475C58.107 163.244 57.0154 163.36 56.5894 163.607L54.6984 164.699L54.6254 161.688C53.8787 161.832 51.7626 162.124 50.456 161.126C49.825 160.643 49.472 159.951 49.4375 159.123C49.1453 152.316 45.3553 148.536 45.3168 148.5L44 147.214L45.6556 146.406C46.2095 146.136 59.3974 139.822 71.1792 143.777C75.4196 145.201 79.2096 147.057 82.8698 148.851C88.9748 151.84 94.7409 154.662 101.272 154.662H101.359C109.13 154.629 115.338 151.659 122.833 146.871C129.029 142.918 145.236 139.526 155.472 146.842L156.631 147.672L155.699 148.747C155.663 148.788 151.987 153.14 151.366 159.977C151.293 160.803 150.907 161.479 150.254 161.929C148.915 162.854 146.839 162.477 146.062 162.29L145.849 165.299Z" fill="white"/>
<path d="M62.6485 159.617C62.6485 159.617 61.3541 158.318 60.8144 157.365C59.7492 155.476 51.4165 159.203 51.4165 159.203L53.6889 159.692" fill="white"/>
<path d="M137.694 160.113C137.694 160.113 139.019 158.845 139.579 157.906C140.695 156.043 148.932 159.965 148.932 159.965L146.649 160.401" fill="white"/>
<path d="M50.4477 159.691C50.4477 159.691 50.2671 154.566 49.1188 152.294C47.9684 150.019 47.5078 147.731 47.5078 147.731C47.5078 147.731 54.4933 144.214 59.0462 144.129C63.597 144.044 74.9265 146.012 78.4547 147.958C81.985 149.906 91.4986 155.124 96.4329 156.189C101.369 157.254 109.521 155.986 114.62 153.888C119.719 151.79 123.129 148.177 125.195 147.26C127.26 146.343 133.925 143.932 138.407 143.531C142.889 143.125 148.286 144.961 151.327 145.535C154.368 146.109 153.92 147.26 153.92 147.26L150.262 158.902C150.262 158.902 144.412 156.913 140.491 156.8C136.569 156.684 129.898 159.634 127.83 160.399C125.767 161.166 116.679 164.958 113.754 166.108C110.828 167.257 100.945 169.898 95.3129 168.636C89.6827 167.372 78.7428 161.819 75.8821 160.399C73.0193 158.981 62.6698 155.57 61.2983 156.222C59.9267 156.871 50.4477 159.691 50.4477 159.691Z" fill="white"/>
<path d="M107.55 116.535C107.572 116.549 107.596 116.557 107.617 116.567L107.272 116.624L107.55 116.535ZM148.006 48.6071C147.799 47.9741 146.722 47.4851 142.358 47.4851C140.658 47.4851 139.073 47.5541 139.057 47.5541C138.988 47.5561 138.923 47.5703 138.858 47.5886C136.157 47.7854 133.579 48.4082 131.249 49.4207C134.34 45.6936 139.152 43.3644 142.062 42.216C142.212 42.1551 142.642 41.9583 142.733 41.8183C142.873 41.5952 143.112 41.3923 142.916 41.0291C142.577 40.4103 141.254 40.25 140.369 40.25C139.42 40.25 138.071 40.3799 136.383 40.6335C135.579 40.7248 134.786 40.8546 134.027 41.021C133.993 41.0271 133.958 41.0352 133.926 41.0474C130.574 41.8001 127.403 43.3015 124.755 45.3892C124.384 45.6834 124.027 45.9878 123.676 46.2982L125.808 42.6685C126.962 40.7836 128.21 39.0408 129.529 37.4907C129.618 37.3872 129.677 37.2614 129.703 37.1295C129.756 36.8658 130.056 36.4519 129.886 36.2429C129.776 36.1131 129.533 35.8939 129.099 35.8939C128.713 35.8939 127.439 36.0238 122.552 39.7367C117.952 42.9505 114.01 47.1138 111.133 51.7985C109.978 53.868 107.96 57.7087 107.288 60.4133C107.25 60.1394 107.211 59.8675 107.183 59.6037C107.061 58.5183 106.996 57.3922 106.978 56.0572C106.955 54.4605 107.026 53.0301 107.091 52.113C107.12 51.7275 107.047 50.8186 106.673 50.7293C106.298 50.636 105.728 51.3846 105.576 51.7397C103.186 57.2117 102.557 61.7625 102.427 64.4772L101.552 72.4609C101.453 73.0128 101.037 75.6788 101.037 75.6788C100.374 74.5243 99.9069 73.6681 99.3997 72.4163C99.3815 72.3737 99.3612 72.3351 99.3368 72.2945L98.5841 71.0914C98.5658 71.0589 98.5435 71.0265 98.5192 71.0001C97.3789 69.6448 96.2265 68.9448 94.8935 68.1393C93.0208 67.0032 90.6916 65.5931 87.2303 61.588C85.3211 59.3765 83.1076 54.9109 82.3934 51.8371C80.9772 45.7483 81.1091 38.4686 82.7363 31.9295C82.8844 31.4932 82.9879 30.6959 82.7931 30.424C82.645 30.2171 82.367 30.075 82.1094 30.075C81.6001 30.075 81.1396 30.5234 77.9461 35.5977C77.9379 35.6119 77.9298 35.6241 77.9217 35.6383C75.8259 38.9779 74.3447 42.7963 73.6448 46.6918C73.4885 47.5399 73.3729 48.3859 73.2917 49.2259C72.5512 47.3836 71.9385 45.4765 71.4596 43.5308C70.4371 39.3613 70.0983 35.129 70.4837 31.2964C70.5081 31.057 70.5608 30.4179 70.3904 30.2475C70.2261 30.0913 69.9988 30 69.7614 30C69.0574 30 67.976 30.9069 65.726 36.9185C63.5855 42.6401 62.8956 47.8848 63.5652 53.6205C61.1345 50.4574 60.0389 46.006 59.0529 41.9989C58.8074 41.0048 58.568 40.0289 58.3144 39.0956C58.1886 38.6269 57.8497 37.4927 57.4237 37.7078C57.3932 37.72 57.3648 37.7382 57.3364 37.7585C57.3344 37.7605 57.3303 37.7626 57.3263 37.7646C57.3101 37.7747 57.2959 37.7869 57.2817 37.8011C57.2614 37.8173 57.2411 37.8315 57.2248 37.8478C57.1376 37.931 56.8292 38.9211 56.7765 39.0286C56.6405 39.2842 56.5512 39.6576 56.4985 40.2013C56.4965 40.2277 56.4944 40.252 56.4944 40.2784C56.4944 40.4651 56.4823 40.6517 56.4721 40.8384C56.4599 41.0453 56.4457 41.2503 56.4457 41.4572C56.1556 44.464 55.9263 52.2429 59.9192 60.3727L60.0105 60.5837C60.0633 60.7054 60.1181 60.8292 60.1728 60.953C60.607 61.868 61.098 62.71 61.5687 63.5195C61.725 63.7873 61.8771 64.0511 62.0273 64.3149C62.5791 65.2826 63.062 65.8731 63.5591 66.4351C61.305 65.9745 57.9735 65.3111 56.3666 65.0696C55.9953 65.0209 55.6423 65.2238 55.5084 65.5708C55.3765 65.9197 55.5023 66.3133 55.8168 66.5162C57.1579 67.3968 59.6047 69.6022 62.1733 71.9922L62.1368 72.0024L66.6937 76.2408L67.1097 76.6303C68.5969 78.0303 70.1409 79.4769 71.6159 80.818L68.4914 80.5076C68.1464 80.467 67.8117 80.6699 67.6798 80.9945C67.5459 81.3191 67.6412 81.6924 67.9151 81.9136L75.1867 87.7994L75.1807 87.8015L78.362 90.3336C78.3843 90.3559 78.4026 90.3843 78.4289 90.4046L83.8887 94.7971C84.0226 94.9047 84.191 94.9655 84.3635 94.9716L85.7634 95.0082C82.7992 96.2397 80.0886 96.2803 76.9154 95.2171C74.4705 94.3974 72.1292 93.1213 70.1469 91.5245C69.8649 91.2973 69.1447 90.8753 68.8545 91.0903C68.5644 91.3074 68.7795 92.1068 68.9154 92.4436C69.5342 93.9592 70.6745 95.2942 71.8269 96.4953C68.0653 95.9983 64.6324 94.9615 60.7227 93.172C60.4001 93.0239 59.8117 92.6424 59.5804 92.9082C59.3511 93.176 59.5358 94.0241 59.7265 94.3224C61.4957 97.0675 62.9139 98.9503 64.322 100.417C65.8031 101.957 67.7569 103.534 68.7186 104.11C68.9012 104.223 69.3942 104.516 71.7356 104.516C72.6202 104.516 73.6042 104.471 74.43 104.392C74.5334 104.382 74.6349 104.372 74.7323 104.363C72.397 105.189 70.2423 105.496 68.3859 105.262C67.9841 105.203 67.0691 105.244 66.9737 105.636C66.8804 106.031 67.6372 106.66 68.0186 106.796C70.8043 107.79 73.5291 108.47 76.1383 108.813C76.9965 109.054 79.4414 109.693 82.0749 109.925C82.2534 109.941 82.4198 109.941 82.5801 109.937C82.7972 109.959 83.0143 109.975 83.2232 109.998C84.2336 110.089 85.1893 110.18 86.2078 110.18C87.0457 110.18 87.8735 110.117 88.7338 109.984C88.7419 110.087 88.7682 110.188 88.8169 110.284L89.2755 111.185C89.1091 111.213 88.9468 111.294 88.8271 111.426C88.5958 111.674 88.5471 112.043 88.7074 112.341L89.6955 114.187C89.7178 114.23 89.7441 114.273 89.7746 114.309C89.7827 114.315 89.805 114.346 89.8476 114.396C89.805 114.415 89.7644 114.441 89.7239 114.467C89.456 114.654 89.3323 114.991 89.4114 115.307C89.9227 117.365 90.9169 118.087 91.6452 118.617C92.1423 118.976 92.4426 119.193 92.5988 119.757C92.7043 120.13 92.8747 120.548 93.0533 120.996C93.4307 121.938 93.9988 123.36 93.6437 123.924C93.1669 124.685 92.8403 124.904 92.2945 125.265C91.9557 125.492 91.5336 125.777 91.0183 126.237C89.7827 127.349 89.6955 128.824 90.7627 130.626L90.8276 130.731C90.9899 131.017 91.3165 131.169 91.6432 131.119C91.9699 131.064 92.2275 130.814 92.2925 130.488C92.54 129.218 94.6277 128.211 95.0355 128.185C95.7538 128.136 96.4335 128.089 96.9001 127.623C97.6609 126.864 101.786 126.817 101.786 126.817C101.786 126.817 102.269 126.834 103.029 126.99C103.176 127.063 103.326 127.128 103.46 127.213C103.591 127.298 103.731 127.343 103.888 127.333C103.977 127.333 105.361 127.891 105.474 128.023C105.679 128.264 108.019 129.558 108.29 129.704C108.449 129.788 109.81 131.604 110.007 131.604C110.323 132.07 110.443 131.94 110.451 131.464C111.338 130.94 112.135 129.773 112.442 128.53C112.748 127.29 112.563 126.111 111.914 125.119C111.877 125.062 111.835 125.012 111.784 124.967C111.646 124.841 111.287 124.555 110.865 124.222C110.289 123.77 109.327 123.013 109.132 122.79C108.548 122.122 108.264 121.396 107.982 120.57C108.205 120.556 108.414 120.449 108.556 120.27C108.704 120.083 108.759 119.834 108.706 119.601L108.601 119.144C108.438 118.446 108.254 117.657 108.106 116.79L108.096 116.746C108.13 116.75 108.163 116.752 108.195 116.752C108.197 116.752 108.201 116.75 108.207 116.752C108.645 116.752 109 116.397 109 115.959C109 115.811 108.96 115.673 108.891 115.555L108.014 113.183C108.096 113.274 108.154 113.341 108.181 113.37C108.398 113.597 108.921 113.985 109.22 113.877C109.514 113.776 109.524 113.199 109.548 112.887C109.672 111.304 110.881 109.701 112.186 108.762C112.259 108.977 112.33 109.121 112.348 109.156C112.484 109.421 112.496 110 112.795 110C112.799 110 112.805 110 112.811 109.998C113.111 109.994 113.338 109.576 113.77 109.129C114.316 108.561 114.775 108.07 115.349 107.902L118.086 109.004C118.248 109.493 118.587 110.288 119.184 110.771C119.697 111.185 120.196 111.499 121.101 112.073C121.196 112.134 121.298 112.197 121.405 112.266C121.322 112.307 121.233 112.347 121.129 112.384C120.817 112.495 119.918 112.792 119.916 113.124C119.916 113.455 120.809 113.755 121.121 113.871C121.728 114.098 122.397 114.22 123.053 114.22C124.4 114.22 125.579 113.737 126.291 112.899C126.877 112.207 127.102 111.331 126.942 110.369C126.822 109.649 126.538 107.871 126.447 107.299L127.188 104.875C127.21 104.8 127.222 104.718 127.222 104.639C127.216 103.491 126.887 102.209 126.248 100.827L126.218 100.736C126.189 100.64 126.141 100.555 126.082 100.482C126.047 100.409 126.013 100.346 125.982 100.287C125.81 99.91 125.599 99.5326 125.329 99.1187C123.367 95.8846 120.575 93.2491 120.458 93.1375C120.22 92.9163 119.754 92.5288 119.46 92.6648C119.165 92.8027 119.104 93.4378 119.123 93.7624L119.133 93.9349C118.942 93.4804 118.212 92.7195 118.049 92.4761C117.696 91.9486 117.435 91.4089 117.339 91.0214C119.695 80.1241 126.904 72.8687 126.975 72.7957C127.104 72.6658 127.188 72.4954 127.204 72.3108C128.766 56.7186 146.574 49.8548 146.754 49.7879C146.821 49.7635 147.282 49.6195 147.339 49.5789C147.958 49.1224 148.057 48.7633 148.006 48.6071" fill="white"/>
<path d="M99.4486 169.154C90.9535 169.154 85.4958 166.226 79.7438 163.142C76.6234 161.47 73.4015 159.744 69.5851 158.462C58.5559 154.757 51.1119 159.486 51.0368 159.533L50.4302 158.602C50.7507 158.395 58.4017 153.535 69.9401 157.409C73.8438 158.719 77.1083 160.47 80.2693 162.162C86.3905 165.445 92.1709 168.547 101.733 167.973C110.634 167.437 116.717 164.431 122.6 161.519C125.063 160.3 127.391 159.149 129.842 158.228C130.006 158.165 130.201 158.09 130.422 158.003C133.759 156.686 142.622 153.192 150.467 159.166L149.794 160.05C142.447 154.454 134.007 157.782 130.83 159.038C130.602 159.125 130.402 159.206 130.231 159.269C127.835 160.17 125.53 161.308 123.093 162.517C117.39 165.337 110.926 168.533 101.8 169.081C100.991 169.129 100.207 169.154 99.4486 169.154Z" fill="#292D6B"/>
<path d="M98.2939 160.389L98.0423 160.38L97.9814 162.231L98.2107 162.239C98.8904 162.259 99.2698 161.973 99.2921 161.324C99.3144 160.723 98.9715 160.411 98.2939 160.389Z" fill="#1B458F"/>
<path d="M103.894 162.841L105.153 162.668L104.243 160.593L103.894 162.841Z" fill="#1B458F"/>
<path d="M85.3231 159.554L85.7492 157.328L84.189 158.984L85.3231 159.554Z" fill="#1B458F"/>
<path d="M62.7187 148.326L62.3089 148.302L62.1973 150.148L62.6172 150.175C63.2766 150.213 63.656 149.895 63.6926 149.286C63.7271 148.708 63.3781 148.365 62.7187 148.326Z" fill="#1B458F"/>
<path d="M116.119 159.369L117.277 158.846L115.814 157.113L116.119 159.369Z" fill="#1B458F"/>
<path d="M146.574 154.606C146.039 154.649 145.572 154.251 145.525 153.717C145.483 153.182 145.88 152.713 146.418 152.668C146.952 152.624 147.42 153.023 147.463 153.557C147.51 154.093 147.108 154.561 146.574 154.606ZM145.053 149.112C144.716 148.783 144.312 148.519 143.774 148.46C142.831 148.359 142.139 148.998 142.013 150.171C141.883 151.366 142.476 152.123 143.43 152.226C143.908 152.277 144.353 152.155 144.87 151.93L144.951 153.608C144.365 153.825 143.758 153.94 142.953 153.853C140.855 153.626 139.747 152.149 139.982 149.962C140.212 147.835 141.689 146.555 143.817 146.787C144.513 146.862 145.065 147.062 145.523 147.363L145.053 149.112ZM138.619 153.634C138.085 153.677 137.617 153.279 137.572 152.745C137.529 152.21 137.925 151.741 138.463 151.696C138.996 151.654 139.465 152.052 139.51 152.587C139.552 153.121 139.157 153.591 138.619 153.634ZM135.756 154.072L133.77 154.488L132.352 147.738L136.618 146.843L136.965 148.487L134.685 148.964L134.912 150.051L136.556 149.708L137.172 151.283L135.255 151.684L135.756 154.072ZM126.89 157.179L124.283 150.792L128.495 149.073L129.103 150.562L126.742 151.524L127.115 152.441L128.903 151.715L129.734 153.09L127.716 153.914L128.134 154.933L130.576 153.936L131.185 155.426L126.89 157.179V157.179ZM124.433 158.499C122.536 159.425 120.811 158.761 119.85 156.783C118.912 154.857 119.482 152.987 121.408 152.054C122.037 151.747 122.611 151.623 123.161 151.634L123.69 153.364C123.232 153.267 122.749 153.257 122.266 153.494C121.41 153.91 121.164 154.821 121.68 155.882C122.203 156.961 123.11 157.286 123.972 156.866C124.404 156.657 124.717 156.316 125.035 155.85L125.995 157.229C125.614 157.726 125.163 158.146 124.433 158.499V158.499ZM119.204 161.025L118.334 160.068L116.356 160.962L116.522 162.157L114.718 162.973L114.037 155.679L116.122 154.736L120.957 159.881L119.204 161.025V161.025ZM109.815 164.513L107.778 157.923L109.735 157.317L111.261 162.245L113.124 161.669L113.905 163.249L109.815 164.513V164.513ZM106.382 165.306L105.82 164.142L103.669 164.438L103.49 165.633L101.527 165.903L102.947 158.71L105.215 158.4L108.39 164.71L106.382 165.306ZM98.2701 163.73L97.9495 163.72L97.8806 165.789L95.8435 165.72L96.0748 158.822L98.4629 158.901C100.242 158.962 101.307 159.769 101.253 161.36C101.198 162.987 100.009 163.789 98.2701 163.73V163.73ZM91.9846 165.043L87.9166 163.726L90.0348 157.166L91.9846 157.795L90.398 162.703L92.2544 163.302L91.9846 165.043ZM86.8352 163.068L84.8428 162.423L85.0376 161.145L83.1 160.169L82.2742 161.054L80.505 160.163L85.7436 155.044L87.7908 156.073L86.8352 163.068ZM77.4961 158.497L79.9085 153.892L78.2692 153.031L79.0604 151.528L83.9765 154.103L83.4347 155.738L81.7244 154.843L79.312 159.449L77.4961 158.497ZM75.382 152.638C76.6197 153.731 77.0011 154.494 76.5568 155.531C75.9156 157.028 74.5786 157.13 73.2922 156.578C72.363 156.18 71.6914 155.665 71.101 155.044L72.0343 153.626C72.6207 154.312 73.3004 154.886 73.9334 155.158C74.3006 155.316 74.5928 155.288 74.7125 155.014C74.8261 154.748 74.7267 154.553 73.9922 153.878C72.8926 152.865 72.4868 152.189 72.9636 151.078C73.5215 149.775 74.82 149.56 76.0698 150.096C76.9889 150.487 77.4799 150.885 77.9811 151.447L77.0518 152.851C76.5446 152.212 75.9704 151.747 75.4916 151.542C75.1162 151.382 74.8768 151.431 74.7835 151.652C74.676 151.899 74.7673 152.09 75.382 152.638V152.638ZM69.1512 154.933L67.1751 154.395L67.8081 152.062L66.6537 147.314L68.8266 147.622L69.3866 150.52L71.2877 148.363L73.343 148.923L69.7964 152.559L69.1512 154.933V154.933ZM63.5778 153.869L62.4437 151.587L62.1333 151.569L62.0054 153.703L59.9786 153.581L60.3925 146.693L63.028 146.851C64.8053 146.959 65.7751 147.809 65.6879 149.286C65.6311 150.215 65.1726 150.848 64.3691 151.201L65.7549 153.669L63.5778 153.869ZM57.2071 154.078C55.1335 154.474 53.6443 153.385 53.2324 151.222C52.8307 149.12 53.8695 147.464 55.9735 147.062C56.6613 146.933 57.2456 146.963 57.7752 147.117L57.836 148.929C57.4181 148.714 56.9535 148.578 56.4219 148.677C55.4886 148.858 55.0118 149.672 55.233 150.83C55.4582 152.009 56.2474 152.563 57.1908 152.382C57.6616 152.293 58.0531 152.045 58.4812 151.678L59.0493 153.261C58.5502 153.642 58.0024 153.928 57.2071 154.078V154.078ZM123.532 147.965C115.719 152.952 109.36 155.927 101.364 155.959C90.5542 156 82.1768 148.838 70.7683 145.005C59.3557 141.175 46.2246 147.572 46.2246 147.572C46.2246 147.572 50.4163 151.666 50.7328 159.07C50.7328 159.07 58.3493 154.103 69.7619 157.933C81.1725 161.766 87.0848 169.411 101.766 168.526C114.552 167.759 121.824 161.839 130.037 158.749C132.585 157.791 141.979 153.423 150.105 159.589C150.845 152.374 154.72 147.898 154.72 147.898C144.996 140.949 129.272 144.301 123.532 147.965" fill="#1B458F"/>
<path d="M57.9774 161.514C58.5536 161.514 59.1136 161.581 59.5762 161.677C59.7993 161.725 60.0367 161.788 60.2721 161.851C60.7813 161.987 61.4752 162.18 61.6903 162.022C61.7694 161.963 61.8222 161.79 61.8343 161.551C61.8445 161.32 61.7735 161.151 61.601 161.005C60.8158 160.329 58.4562 160.372 56.4354 160.618L56.4618 161.697C56.9386 161.565 57.4641 161.514 57.9774 161.514ZM141.246 160.839C140.316 160.839 139.531 160.958 139.128 161.275C138.949 161.413 138.868 161.579 138.868 161.811C138.87 162.052 138.915 162.226 138.992 162.287C139.197 162.454 139.901 162.302 140.412 162.186C140.651 162.135 140.891 162.082 141.12 162.046C141.998 161.904 143.23 161.89 144.228 162.214L144.303 161.137C143.293 160.962 142.193 160.839 141.246 160.839V160.839ZM145.184 163.969L144.419 163.476C143.792 163.073 142.475 162.918 141.288 163.109C141.081 163.142 140.864 163.192 140.645 163.239C139.797 163.424 138.925 163.616 138.316 163.129C137.969 162.849 137.795 162.407 137.795 161.811C137.793 161.249 138.024 160.77 138.466 160.427C140.306 158.99 145.705 160.307 146.316 160.461C146.85 160.609 148.503 160.912 149.211 160.419C149.41 160.283 149.514 160.09 149.54 159.812C150.104 153.61 152.912 149.375 153.939 148.014C144.575 141.769 129.665 144.859 123.809 148.426C117.142 152.492 109.913 156.46 101.366 156.497H101.268C94.3151 156.497 88.3643 153.581 82.0646 150.497C78.4551 148.728 74.722 146.902 70.5972 145.516C60.9518 142.28 49.8983 146.557 47.1187 147.758C48.2833 149.148 51.0122 153.017 51.2719 159.045C51.282 159.323 51.3794 159.52 51.5701 159.666C52.2599 160.192 53.9196 159.968 54.4491 159.849C55.074 159.721 60.5277 158.664 62.301 160.187C62.7271 160.551 62.936 161.04 62.9097 161.602C62.8792 162.196 62.6824 162.63 62.3253 162.89C61.6923 163.353 60.828 163.117 59.9901 162.89C59.775 162.833 59.5599 162.774 59.357 162.732C58.1782 162.484 56.8574 162.575 56.2102 162.947L55.425 163.403L55.3642 160.774C55.1207 160.814 54.8894 160.857 54.6743 160.902C54.4288 160.956 52.1281 161.447 50.9188 160.524C50.4704 160.181 50.2209 159.688 50.1965 159.092C49.8902 151.987 45.8871 147.998 45.8466 147.957L45.3008 147.422L45.9866 147.089C46.5303 146.821 59.4483 140.639 70.9401 144.494C75.1318 145.904 78.8954 147.748 82.5373 149.53C88.7214 152.559 94.5647 155.42 101.27 155.42H101.361C108.824 155.389 115.272 152.368 123.251 147.507C129.419 143.745 145.318 140.515 155.032 147.46L155.511 147.805L155.123 148.249C155.089 148.296 151.256 152.806 150.613 159.912C150.556 160.504 150.287 160.985 149.822 161.303C148.57 162.17 146.294 161.571 146.038 161.5C145.831 161.449 145.606 161.395 145.368 161.344L145.184 163.969Z" fill="#C4122E"/>
<path d="M99.4541 169.237C90.9611 169.237 85.5054 166.311 79.7555 163.227C76.637 161.556 73.409 159.827 69.5947 158.545C58.5899 154.85 51.1032 159.571 51.0302 159.62L50.4438 158.719C50.7624 158.508 58.4154 153.655 69.9376 157.526C73.8412 158.837 77.1057 160.588 80.2647 162.28C86.3879 165.563 92.1703 168.663 101.739 168.091C110.641 167.557 116.728 164.546 122.614 161.637C125.075 160.417 127.402 159.267 129.851 158.348C130.016 158.285 130.21 158.208 130.431 158.121C133.767 156.806 142.623 153.31 150.461 159.283L149.81 160.137C142.451 154.536 134.004 157.869 130.827 159.123C130.598 159.21 130.399 159.291 130.231 159.356C127.832 160.255 125.528 161.395 123.091 162.601C117.388 165.423 110.924 168.618 101.802 169.166C100.994 169.215 100.211 169.237 99.4541 169.237Z" fill="#C4122E"/>
<path d="M61.796 161.172C59.2152 159.062 58.215 157.015 58.1724 156.926L59.1402 156.459C59.1523 156.482 60.0937 158.391 62.4777 160.341L61.796 161.172Z" fill="#C4122E"/>
<path d="M138.995 161.396L138.362 160.526C141.14 158.507 141.471 156.356 141.473 156.334L142.54 156.484C142.524 156.59 142.138 159.112 138.995 161.396Z" fill="#C4122E"/>
<path d="M112.617 104.442C112.7 104.523 112.775 104.598 112.844 104.661C112.844 104.661 112.809 104.567 112.617 104.442Z" fill="#27409B"/>
<path d="M106.865 62.587C106.698 61.7897 106.524 60.7975 106.392 59.6918C106.496 60.6068 106.646 61.5624 106.865 62.587Z" fill="#27409B"/>
<path d="M106.865 62.587C106.698 61.7897 106.524 60.7975 106.392 59.6918C106.496 60.6068 106.646 61.5624 106.865 62.587Z" fill="white"/>
<path d="M114.641 91.7958C114.643 91.6213 114.641 91.7958 114.641 91.7958Z" fill="#F4F4F4"/>
<path d="M125.277 111.794C124.987 112.162 124.524 112.484 124.031 112.699C123.487 112.939 122.905 113.048 122.467 112.939C122.477 112.935 122.487 112.929 122.499 112.922C122.546 112.9 122.587 112.878 122.629 112.853C122.66 112.835 122.696 112.819 122.727 112.801C123.83 112.117 123.234 110.829 122.088 109.514L122.067 109.51L119.442 107.227L119.302 107.104L119.261 107.069L119.288 107.061L119.369 107.035L119.389 107.031L119.486 106.998L119.882 107.219L121.219 107.974L121.319 108.027L121.911 108.361L122.554 108.725C122.556 108.725 122.558 108.723 122.56 108.723C122.564 108.721 122.568 108.721 122.574 108.719C123.177 108.579 123.855 108.41 123.956 108.382C124.407 108.264 124.66 108.136 124.798 108.031C124.808 108.124 125.942 110.948 125.277 111.794ZM122.329 111.234L121.379 110.461L120.698 109.908L120.527 109.382L120.485 109.244L120.247 108.526L120.243 108.504C121.008 108.956 121.613 109.772 122.008 110.423C122.092 110.563 122.516 111.387 122.516 111.387L122.329 111.234V111.234ZM117.382 104.744L116.167 102.557L113.063 100.992L115.599 103.934C114.264 103.172 111.988 101.96 109.52 101.502C109.52 101.502 111.618 103.462 112.619 104.442C112.809 104.565 112.844 104.663 112.844 104.663C112.777 104.598 112.7 104.523 112.619 104.442C112.322 104.251 111.653 103.995 110.119 103.908C108.697 103.764 107.011 103.391 105.479 102.528C105.479 102.528 105.783 102.977 106.41 103.516C106.418 103.525 106.428 103.531 106.437 103.537C106.439 103.539 106.441 103.543 106.445 103.545C107.031 104.044 107.893 104.612 109.056 104.989C109.145 105.02 110.31 105.501 110.403 105.527C109.565 105.862 108.863 106.262 108.277 106.716C107.143 107.59 106.441 108.643 106.021 109.715C105.296 111.567 104.633 114.913 105.144 116.82C103.537 114.661 102.119 111.88 102.908 108.731C100.461 110.108 98.8849 109.658 97.1888 109.408C96.4056 110.463 95.3709 112.998 95.239 115.17C95.0949 114.941 94.961 114.692 94.8373 114.432C94.2043 113.083 93.8817 111.541 93.8025 110.06C93.764 109.469 93.768 108.899 93.8147 108.378V108.374L99.4064 104.407L91.2725 103.725C91.2745 103.721 91.2765 103.721 91.2765 103.721C91.4105 103.622 91.5504 103.525 91.6864 103.425C94.817 101.222 98.68 99.7021 102.557 99.8746C102.858 99.8847 103.158 99.9091 103.458 99.9435C100.961 98.5456 96.576 98.6126 93.977 99.4262C90.4488 100.528 89.0488 100.595 85.273 99.9253C89.2375 99.1239 89.0934 99.0163 91.4449 97.9045C93.3765 96.8231 97.0447 94.8266 101.671 95.6788C100.536 95.1817 99.5687 94.7151 98.1911 94.3864C96.8459 94.078 94.6526 93.7777 92.3052 94.2809C92.3052 94.2809 93.9019 92.5725 96.8865 92.1525C92.8145 88.4802 80.783 82.7181 80.783 82.7181C97.8664 86.7516 105.128 94.7698 106.211 96.0663C106.284 96.1231 106.353 96.1799 106.422 96.2347C105.779 94.7698 101.991 85.936 91.6073 79.4678C90.1688 78.571 88.5801 77.938 87.1132 77.0879C84.7698 75.7245 82.603 74.215 80.6329 72.5614L80.643 72.5939C61.3238 57.2513 68.5142 36.1385 68.5142 36.1385C67.8893 41.0363 68.7192 45.8326 70.1374 50.1035C71.0382 52.8141 72.1764 55.3076 73.3329 57.4785C74.6334 59.9173 75.9542 61.9462 76.989 63.407C79.3932 66.3449 82.2479 68.8567 85.555 70.6705C85.555 70.6705 70.9753 60.741 79.2573 39.5734C78.9347 40.4783 73.201 57.442 94.7439 72.2165C95.1599 72.4965 95.4622 72.4864 95.5859 72.7887C98.4508 79.689 109.49 90.6755 111.547 95.9608C111.454 94.8794 111.363 93.798 111.269 92.7186C112.505 94.0475 113.473 95.693 113.98 97.4358C114.073 96.3686 114.169 94.7475 114.26 93.6803C116.043 94.6603 118.689 96.7074 120.872 99.063C120.872 99.063 120.848 99.0387 120.813 99.0001C120.734 98.9149 120.663 98.8378 120.596 98.7668C120.629 98.8013 120.661 98.8358 120.69 98.8662C120.71 98.8885 120.724 98.9047 120.74 98.923C120.771 98.9534 120.793 98.9778 120.813 99.0001C120.834 99.0245 120.85 99.0387 120.872 99.063L120.777 97.4947L120.73 96.7643C120.73 96.7643 124.029 100.82 125.151 103.957C125.214 104.135 125.273 104.312 125.32 104.482C125.299 105.365 125.173 105.957 125.027 106.349C124.902 106.682 124.4 107.229 124.291 107.311C124.212 107.371 124.161 107.39 124.161 107.39C124.315 107.272 124.348 106.988 124.35 106.724C124.352 106.391 124.281 106.044 124.157 105.649C124.041 105.278 123.901 104.922 123.786 104.651C123.66 104.352 123.563 104.156 123.563 104.156C123.632 104.884 123.595 105.418 123.51 105.803C123.51 105.813 123.508 105.825 123.504 105.838C123.337 106.564 123.003 106.755 122.913 106.793C122.901 106.799 122.891 106.803 122.891 106.803C122.867 106.686 122.84 106.574 122.812 106.473C122.721 106.207 122.617 105.947 122.516 105.691C122.142 104.758 120.779 102.179 120.333 101.281C119.947 101.83 120.462 103.111 120.462 103.111C120.637 103.449 121.043 104.312 121.043 104.312C120.665 105.172 121.223 106.124 121.98 106.487C121.767 106.582 121.059 106.481 120.562 106.193C120.746 106.568 121.412 107.463 121.745 107.718C120.787 107.481 118.588 105.742 117.382 104.744V104.744ZM125.508 101.118C125.48 101.029 125.464 100.978 125.464 100.978C125.464 100.978 125.472 101.015 125.486 101.07C125.413 100.919 125.34 100.769 125.263 100.615C125.088 100.232 124.877 99.8766 124.652 99.5317C122.723 96.3524 119.915 93.7189 119.915 93.7189L119.959 94.4919C119.961 94.4919 119.969 94.4959 119.969 94.4959L120.057 95.7031C120.057 95.7031 111.006 90.4462 107.145 85.6012C104.152 81.8437 100.707 77.7473 98.6658 72.7156L97.9111 71.5105C95.3039 68.4123 92.5852 68.9966 86.6303 62.1065C84.5893 59.7428 82.3352 55.0926 81.621 52.0167C80.1094 45.5202 80.3793 38.1248 81.9862 31.6729C81.9862 31.6729 82.7409 29.4695 78.6182 36.0208L78.6202 36.0168C76.5568 39.2935 75.1122 43.0246 74.4224 46.8308C74.0714 48.7766 73.9132 50.7365 73.9761 52.666C72.5781 49.8803 71.4582 46.8491 70.6913 43.7205C69.6788 39.5998 69.2832 35.3168 69.6951 31.2184C69.6951 31.2184 68.9708 30.5124 66.4691 37.1976C63.9654 43.8869 63.5698 49.5942 64.7202 55.9873C60.1207 52.0898 59.0798 44.9501 57.55 39.2995C57.55 39.2995 57.548 39.2995 57.548 39.3036H57.546C57.544 39.3036 57.5419 39.3077 57.5379 39.3097H57.5358C57.5237 39.3219 57.5034 39.3482 57.479 39.3969C57.4202 39.5065 57.3411 39.754 57.2903 40.2775C57.2903 40.6853 57.2376 41.0911 57.2376 41.4969C56.9596 44.3272 56.6979 52.0147 60.6421 60.0492C60.7273 60.2358 60.8044 60.4306 60.8916 60.6132C61.4516 61.7961 62.1151 62.8633 62.7177 63.9203C63.7159 65.6814 64.493 66.1115 65.6129 67.6637C65.4952 67.6454 58.7268 66.2252 56.2495 65.8539C57.7489 66.8359 60.492 69.3274 63.6104 72.249C63.6104 72.249 72.9494 72.9997 80.2799 78.4229C80.2799 78.4229 73.9335 75.3167 66.3068 74.7871C66.7552 75.2092 67.2036 75.6312 67.654 76.0552C69.827 78.0983 72.008 80.1333 73.9497 81.8457L73.9213 81.8437L68.4128 81.2979L76.3316 87.7032L77.7539 87.7519C77.7539 87.7519 80.4138 87.6585 83.0473 88.253C85.8553 88.8901 87.3466 89.801 87.3466 89.801C85.7782 89.2695 83.169 89.1883 81.5946 89.2898C80.4726 89.3608 79.7402 89.6753 78.9246 89.7889L79.3892 90.1602L84.3844 94.1774L88.8337 94.2951C85.0782 96.6324 81.3917 97.5535 76.6644 95.9689C74.1526 95.1269 71.7179 93.8081 69.6504 92.1444C70.4863 94.1957 72.428 95.9588 73.9375 97.5129C68.9565 97.1295 64.9434 95.977 60.3925 93.8933C62.1333 96.5938 63.5171 98.43 64.8967 99.8685C66.2743 101.305 68.1754 102.861 69.127 103.431C69.7316 103.794 72.5153 103.78 74.3555 103.602C74.7004 103.569 75.0169 103.533 75.2746 103.488C75.6966 103.419 76.2241 103.305 76.7861 103.176C78.6791 102.739 80.9575 102.102 80.8317 102.185C80.01 102.719 79.1133 103.243 78.1678 103.727C77.6098 104.014 77.0357 104.287 76.4493 104.539C73.8016 105.675 70.9165 106.381 68.287 106.049C71.2269 107.099 74.3047 107.868 77.4211 108.163C78.4924 108.266 78.882 108.25 79.8153 107.816C81.2071 107.173 82.3554 106.643 83.4612 106.115C84.0212 105.846 84.5771 105.574 85.1391 105.286C85.9162 104.892 86.7156 104.474 87.6103 103.975C87.095 104.46 86.5756 104.912 86.044 105.363C85.7457 105.61 85.4414 105.862 85.133 106.118C84.0577 106.998 82.9073 107.911 81.5946 109.063C85.1127 109.309 87.1497 109.891 91.8223 108.43C91.8223 108.43 90.8606 109.149 89.5236 109.924L90.9093 112.642L89.4059 111.967L90.394 113.813C90.394 113.813 91.096 114.684 92.0962 115.41L92.4351 116.499C91.662 116.27 90.6719 115.444 90.1809 115.118C90.9621 118.254 92.8266 117.64 93.3643 119.541C93.7254 120.825 95.0848 123.126 94.3158 124.347C93.413 125.786 92.8205 125.684 91.5484 126.831C90.0734 128.153 91.2096 129.809 91.5139 130.337C91.8183 128.789 92.9727 127.78 93.628 127.583C94.6567 127.281 95.8903 127.512 96.3407 127.062C97.9658 125.441 101.462 125.029 103.88 126.543C102.76 124.733 102.184 124.788 99.9562 124.144C103.892 124.404 104.152 125.266 106.077 127.506C106.236 126.23 105.177 124.607 104.272 123.83C103.99 123.59 100.861 123.15 97.8218 122.886C96.7546 122.793 96.3224 121.422 96.1682 120.683C96.3549 120.791 97.2152 121.243 98.0531 121.233C97.8401 120.162 97.5459 118.946 97.3693 118.216C97.6696 118.352 97.976 118.543 98.6496 118.565L98.2093 116.767C98.0024 115.331 97.5357 114.292 98.9154 112.097C99.6762 112.63 100.013 112.862 100.358 113.249C100.358 113.249 100.644 114.621 100.958 115.353C101.019 115.491 102.375 116.65 102.423 116.79L100.09 116.114C100.09 116.114 100.869 117.885 102.409 118.906C103.322 119.228 104.134 119.596 104.4 119.951C104.673 120.32 105.134 121.314 104.917 121.848C104.742 122.278 103.503 120.44 100.894 122.631C102.675 122.659 104.811 123.146 105.272 123.69C105.868 124.396 106.297 125.037 106.727 125.295C108.622 126.431 108.754 127.027 108.601 129.257C109.774 128.352 109.445 125.993 109.269 125.423C110.823 127.287 110.482 129.819 110.007 130.809C111.172 130.162 112.584 127.587 111.251 125.552C110.89 125.226 108.92 123.751 108.536 123.312C107.548 122.182 107.301 120.912 106.816 119.624C107.159 119.644 107.589 119.782 107.934 119.778C107.759 119.015 107.514 118.021 107.323 116.923C107.307 116.824 107.289 116.723 107.272 116.623C107.266 116.583 107.26 116.54 107.254 116.499C107.23 116.337 107.205 116.173 107.183 116.004C107.179 115.966 107.175 115.923 107.171 115.885C107.149 115.716 107.13 115.546 107.114 115.373C107.753 115.783 108.194 115.958 108.194 115.958L107.098 112.987V112.979C107.118 112.756 107.147 112.531 107.183 112.306C107.183 112.293 107.187 112.275 107.189 112.263C107.222 112.06 107.264 111.855 107.311 111.654C107.319 111.622 107.327 111.587 107.335 111.555C107.378 111.37 107.435 111.188 107.496 111.005C107.51 110.961 107.52 110.918 107.536 110.873C107.613 110.656 107.701 110.437 107.798 110.226C107.303 111.289 108.76 112.825 108.76 112.825C108.942 110.472 111.046 108.274 112.811 107.481C112.714 108.134 113.053 108.792 113.053 108.792C113.574 107.68 114.639 107.244 115.402 107.069L116.831 107.643L118.344 108.252L118.742 108.412C118.742 108.412 119.014 109.615 119.683 110.153C120.328 110.674 120.998 111.058 122.607 112.093C122.487 112.492 122.124 112.868 121.4 113.129C123.686 113.986 126.569 112.957 126.162 110.5C126.018 109.634 125.636 107.242 125.636 107.242V107.233L126.178 105.468L126.338 104.941L126.354 104.886L126.429 104.642C126.423 103.504 126.06 102.299 125.508 101.118Z" fill="#1B458F"/>
<path d="M139.092 48.3455L139.224 48.3577C135.546 48.5808 131.902 49.646 128.866 51.5735C131.366 46.7061 136.887 43.4092 141.768 41.4776C141.768 41.4776 142.371 40.5403 136.473 41.4229C135.706 41.5101 134.945 41.6318 134.192 41.7982C134.18 41.8002 134.17 41.8023 134.158 41.8043H134.168C130.926 42.5225 127.846 43.961 125.245 46.0123C123.778 47.1728 122.457 48.522 121.351 50.0457C116.379 56.6579 114.699 62.4423 114.699 62.4423C114.699 62.4423 113.98 53.9067 124.886 42.6443C126.087 40.6377 127.436 38.7244 128.925 36.9775C128.925 36.9775 129.177 35.7014 123.003 40.3861C118.537 43.5066 114.638 47.607 111.826 52.1862C110.815 53.996 108.652 58.0558 108.026 60.7421C108.032 60.8212 108.036 60.9044 108.042 60.9836C108.042 60.9836 108.109 62.5925 108.405 64.733C108.764 67.3219 109.825 70.8968 109.825 70.8968C109.103 69.4218 107.813 66.1694 107.384 64.6721C107.175 63.9397 107.009 63.2498 106.865 62.5864C106.776 62.1725 106.707 61.7769 106.64 61.3853C106.603 61.1763 106.569 60.9592 106.534 60.736C106.484 60.383 106.431 60.032 106.392 59.6891C106.254 58.4393 106.202 57.2564 106.183 56.0675C106.161 54.4992 106.23 53.081 106.301 52.0564C103.467 58.555 103.199 63.5603 103.193 65.5648C103.053 66.843 102.976 67.7966 102.923 68.596C103.657 70.6837 104.962 73.4694 107.299 77.0018C107.299 77.0018 105.197 75.8311 102.724 71.5034C102.625 72.457 102.45 73.5425 102.073 75.2326C104.877 79.9964 107.689 83.6627 110.231 86.4605V80.7918C111.14 81.7027 111.767 82.4108 112.197 82.9586C112.603 81.1123 113.173 78.8968 113.966 76.5392C118.909 61.8296 124.768 57.3478 124.768 57.3478C119.375 65.7738 114.427 82.8126 114.634 90.7679C115.679 91.6586 116.612 92.3728 117.387 92.9165C116.971 92.2875 116.618 91.5734 116.529 91.0154C118.929 79.6495 126.416 72.2318 126.416 72.2318C128.047 55.9478 146.475 49.0475 146.475 49.0475C147.975 47.9499 139.092 48.3455 139.092 48.3455Z" fill="#1B458F"/>
<path d="M141.856 142.148V133.745V132.939C140.89 133.68 139.984 134.341 139.127 134.942V135.857V137.062V137.656H137.731V135.891C131.744 139.85 128.782 140.264 128.782 140.264C132.817 138.2 135.703 136.177 137.731 134.461V132.195V130.947C130.375 137.267 123.768 140.521 121.326 141.611C121.326 141.785 121.326 142.323 121.328 143.074H132.174H133.941C136.459 142.656 139.152 142.455 141.854 142.57" fill="#D3D2D2"/>
<path d="M130.468 143.809C128.494 144.32 126.702 144.951 125.197 145.641V143.809H130.468Z" fill="#A7A5A6"/>
<path d="M114.62 151.532C114.129 151.751 113.25 152.137 112.881 152.293L112.887 150.422V146.584H114.62V150.422V151.532Z" fill="#A7A5A6"/>
<path d="M114.618 145.895H112.888V141.547H114.618V145.895Z" fill="#A7A5A6"/>
<path d="M120.628 147.944V146.584H119.082V147.944V149.2C119.595 148.904 120.113 148.595 120.634 148.277L120.628 147.944Z" fill="#A7A5A6"/>
<path d="M120.628 145.895H119.082V141.547H120.628V145.895Z" fill="#A7A5A6"/>
<path d="M116.5 149.477V146.584H115.309V149.477L115.307 151.216C115.702 151.025 116.1 150.822 116.5 150.619V149.477Z" fill="#A7A5A6"/>
<path d="M116.499 145.895H115.308V141.547H116.499V145.895Z" fill="#A7A5A6"/>
<path d="M118.376 145.895H117.185V141.547H118.376V145.895Z" fill="#A7A5A6"/>
<path d="M118.375 149.173V146.584H117.182V149.173V150.256C117.579 150.045 117.977 149.828 118.375 149.603V149.173Z" fill="#A7A5A6"/>
<path d="M120.634 137.858H112.888V140.859H120.634V137.858Z" fill="#A7A5A6"/>
<path d="M82.0413 148.417C81.4772 148.141 80.9091 147.863 80.337 147.589L80.335 147.254V146.583H82.0413V147.254V148.417Z" fill="#A7A5A6"/>
<path d="M82.0685 145.895H80.3379V141.547H82.0685V145.895Z" fill="#A7A5A6"/>
<path d="M86.4888 150.57C87.0122 150.816 87.5377 151.057 88.0591 151.29L88.0754 147.92V146.583H86.4888V147.92V150.57Z" fill="#A7A5A6"/>
<path d="M88.0759 145.895H86.5259V141.547H88.0759V145.895Z" fill="#A7A5A6"/>
<path d="M83.9189 145.895H82.73V141.547H83.9189V145.895Z" fill="#A7A5A6"/>
<path d="M85.8016 145.895H84.6309V141.547H85.8016V145.895Z" fill="#A7A5A6"/>
<path d="M88.0818 137.858H80.3354V140.859H88.0818V137.858Z" fill="#A7A5A6"/>
<path d="M84.6149 149.673C84.976 149.849 85.4265 150.087 85.8038 150.271V149.399V146.585H84.6108V149.399L84.6149 149.673Z" fill="#A7A5A6"/>
<path d="M78.4571 146.703C78.8568 146.888 79.2524 147.072 79.6481 147.261V146.113V143.81H78.4551V146.113L78.4571 146.703Z" fill="#A7A5A6"/>
<path d="M82.729 148.753L82.9278 148.849C83.2585 149.011 83.5872 149.173 83.9179 149.333V148.427V146.584H82.729V148.427V148.753Z" fill="#A7A5A6"/>
<path d="M59.4468 138.897V132.938C60.4105 133.68 61.3174 134.342 62.1736 134.942V137.657H63.5695V135.894C69.5568 139.85 72.519 140.262 72.519 140.262C68.4835 138.199 65.6004 136.178 63.5695 134.459V131.978V130.947C70.6179 137.002 76.9765 140.244 79.6466 141.461V143.076C79.6466 143.076 68.9218 143.129 68.654 143.072C65.5294 142.402 62.3745 142.358 59.4468 142.646" fill="#D3D2D2"/>
<path d="M75.8815 145.59C74.3801 144.969 72.3613 144.153 71.2373 143.778H75.8815V145.59Z" fill="#A7A5A6"/>
<path d="M76.5744 145.488V143.808H77.7674V145.488L77.7633 146.384C77.6456 146.33 77.1952 146.139 76.5703 145.877L76.5744 145.488Z" fill="#A7A5A6"/>
<path d="M122.631 146.584V143.808H121.324V146.584V147.858C121.754 147.59 122.191 147.316 122.629 147.038L122.631 146.584Z" fill="#A7A5A6"/>
<path d="M124.512 145.638V143.81H123.319V145.638L123.332 146.601C123.697 146.386 124.092 146.173 124.512 145.966V145.638Z" fill="#A7A5A6"/>
<path d="M112.21 140.86V138.735C112.21 132.259 106.963 127.01 100.487 127.01C94.0109 127.01 88.7642 132.259 88.7642 138.735V140.86L90.7606 140.858C90.6328 140.229 90.5658 139.575 90.5658 138.906C90.5658 133.464 94.9767 129.055 100.416 129.055C105.858 129.055 110.267 133.464 110.267 138.906C110.267 139.575 110.2 140.233 110.074 140.866L112.21 140.86Z" fill="#A7A5A6"/>
<path d="M62.1741 132.323V129.689L59.4473 126.93V129.365V130.024C59.8206 130.604 60.6443 131.734 62.1741 133.205V132.323Z" fill="#D3D2D2"/>
<path d="M141.856 130.024C141.481 130.604 140.657 131.734 139.127 133.205V131.848V129.689L141.856 126.932V129.048V130.024Z" fill="#D3D2D2"/>
<path d="M98.5173 150.172C98.2029 150.172 97.9878 150.379 97.9878 150.738C97.9878 151.081 98.1582 151.272 98.5173 151.272C98.7365 151.272 98.9333 151.201 99.122 151.057V151.038C99.122 150.479 98.8765 150.172 98.5173 150.172Z" fill="#A7A5A6"/>
<path d="M101.482 150.187C101.072 150.187 100.847 150.58 100.847 151.296C100.847 152.015 101.072 152.41 101.482 152.41C101.89 152.41 102.109 152.015 102.109 151.296C102.109 150.58 101.89 150.187 101.482 150.187Z" fill="#A7A5A6"/>
<path d="M104.2 152.87C103.822 152.87 103.526 152.781 103.285 152.651L103.37 152.15C103.599 152.286 103.881 152.388 104.204 152.388C104.555 152.388 104.817 152.211 104.817 151.858C104.817 151.558 104.62 151.373 104.263 151.373C104.06 151.373 103.916 151.412 103.79 151.462L103.406 151.377L103.514 149.782H105.204L105.281 150.267H103.966L103.912 150.975C104.025 150.943 104.167 150.913 104.368 150.913C104.971 150.913 105.364 151.258 105.364 151.83C105.364 152.503 104.871 152.87 104.2 152.87ZM101.483 152.87C100.757 152.87 100.274 152.308 100.274 151.298C100.274 150.292 100.757 149.724 101.483 149.724C102.203 149.724 102.688 150.292 102.688 151.298C102.688 152.308 102.203 152.87 101.483 152.87ZM97.9182 152.875L97.8452 152.396C98.4498 152.274 98.9205 152.006 99.0788 151.487C98.8637 151.625 98.6263 151.71 98.3524 151.71C97.8067 151.71 97.4415 151.383 97.4415 150.771C97.4415 150.142 97.904 149.724 98.5229 149.724C99.1863 149.724 99.653 150.168 99.653 151.008C99.653 152.071 98.9286 152.676 97.9182 152.875V152.875ZM96.7131 152.812H96.1409V150.338L95.5221 150.576L95.4592 150.123L96.2059 149.778H96.7131V152.812V152.812ZM109.905 141.565C108.742 145.715 104.936 148.756 100.418 148.756C95.8975 148.756 92.0872 145.71 90.9287 141.559L88.7638 141.547V149.647L88.7598 151.596C92.8277 153.366 96.9018 154.662 101.329 154.662H101.416C105.279 154.648 108.755 153.905 112.194 152.576L112.21 141.543L109.905 141.565Z" fill="#A7A5A6"/>
<path d="M56.7773 125.651C57.1872 125.728 57.5808 125.827 57.9521 125.941V131.204C57.5788 131.088 57.1872 130.991 56.7773 130.914V125.651Z" fill="#A7A5A6"/>
<path d="M56.0966 130.809C55.7152 130.762 55.3216 130.73 54.9219 130.719L54.9239 125.456C55.1146 125.463 55.3053 125.471 55.4961 125.485C55.6989 125.501 55.8998 125.521 56.0966 125.546V130.809Z" fill="#A7A5A6"/>
<path d="M53.0635 130.809C53.4449 130.762 53.8385 130.73 54.2402 130.719V125.456C53.8385 125.467 53.4449 125.497 53.0635 125.546V130.809Z" fill="#A7A5A6"/>
<path d="M51.2104 131.207C51.5838 131.087 51.9733 130.992 52.3832 130.915V125.652C51.9733 125.729 51.5838 125.828 51.2104 125.942V131.207Z" fill="#A7A5A6"/>
<path d="M50.1479 121.375C50.4016 121.26 50.6673 121.152 50.9473 121.057V121.69L50.1479 121.375Z" fill="#A7A5A6"/>
<path d="M54.2393 123.222C53.8375 123.232 53.4439 123.263 53.0625 123.311V120.572C53.4439 120.526 53.8375 120.495 54.2393 120.481V123.222Z" fill="#A7A5A6"/>
<path d="M56.0966 120.572C55.7152 120.526 55.3216 120.493 54.9219 120.483V123.222C55.3216 123.232 55.7152 123.261 56.0966 123.311V120.572Z" fill="#A7A5A6"/>
<path d="M56.7773 120.678C57.1872 120.755 57.5788 120.854 57.9521 120.968V123.705C57.5808 123.591 57.1872 123.492 56.7773 123.419V120.678Z" fill="#A7A5A6"/>
<path d="M52.3817 123.418C51.9739 123.493 51.5803 123.592 51.209 123.706V120.969C51.5823 120.855 51.9739 120.756 52.3817 120.677V123.418Z" fill="#A7A5A6"/>
<path d="M58.2158 121.057C58.4999 121.154 58.7697 121.261 59.0254 121.381L58.2158 121.692V121.057Z" fill="#A7A5A6"/>
<path d="M50.1479 126.349C50.4016 126.231 50.6673 126.125 50.9473 126.03V126.663L50.1479 126.349Z" fill="#A7A5A6"/>
<path d="M58.2158 126.03C58.4999 126.127 58.7697 126.235 59.0254 126.354L58.2158 126.665V126.03Z" fill="#A7A5A6"/>
<path d="M59.0255 119.6C57.8061 119.036 56.2601 118.699 54.5822 118.699C52.9063 118.699 51.3663 119.036 50.147 119.596V120.738C51.3663 120.176 52.9063 119.843 54.5822 119.843C56.2601 119.843 57.8061 120.18 59.0255 120.742V119.6Z" fill="#A7A5A6"/>
<path d="M59.0255 124.615C57.8061 124.053 56.2601 123.715 54.5822 123.715C52.9063 123.715 51.3663 124.049 50.147 124.611V125.754C51.3663 125.194 52.9063 124.857 54.5822 124.857C56.2601 124.857 57.8061 125.196 59.0255 125.758V124.615Z" fill="#A7A5A6"/>
<path d="M59.0255 119.097C57.8061 118.533 56.2601 118.195 54.5822 118.195C52.9063 118.195 51.3663 118.531 50.147 119.091L53.6692 115.738C53.9674 115.713 54.2717 115.703 54.5822 115.703C54.8926 115.703 55.1949 115.713 55.4952 115.736L59.0255 119.097Z" fill="#A7A5A6"/>
<path d="M53.6685 114.799V115.353C53.9667 115.331 54.2731 115.321 54.5815 115.321C54.8919 115.321 55.1962 115.331 55.4945 115.353V114.799C55.4945 114.59 55.04 114.582 54.9223 114.578C54.8107 114.578 54.6951 114.576 54.5815 114.576C54.4658 114.576 54.3522 114.578 54.2386 114.578C54.1168 114.582 53.6685 114.578 53.6685 114.799Z" fill="#A7A5A6"/>
<path d="M57.9521 136.913C57.5788 136.794 57.1872 136.698 56.7773 136.621V131.502C57.1872 131.577 57.5788 131.675 57.9521 131.79V136.913Z" fill="#A7A5A6"/>
<path d="M56.0966 136.515C55.7172 136.467 55.3216 136.438 54.9219 136.426V131.305C55.3216 131.315 55.7172 131.348 56.0966 131.394V136.515Z" fill="#A7A5A6"/>
<path d="M54.2393 136.427C53.8375 136.438 53.4439 136.466 53.0625 136.515V131.394C53.4439 131.343 53.8375 131.317 54.2393 131.302V136.427Z" fill="#A7A5A6"/>
<path d="M52.3817 136.622C51.9739 136.697 51.5823 136.797 51.209 136.912V131.789C51.5823 131.674 51.9739 131.578 52.3817 131.501V136.622Z" fill="#A7A5A6"/>
<path d="M148.926 125.651C149.336 125.728 149.727 125.827 150.098 125.941V131.204C149.727 131.088 149.336 130.991 148.926 130.914V125.651Z" fill="#A7A5A6"/>
<path d="M148.245 130.809C147.863 130.762 147.472 130.73 147.07 130.719V125.456C147.265 125.463 147.453 125.471 147.644 125.485C147.847 125.501 148.048 125.521 148.245 125.546V130.809Z" fill="#A7A5A6"/>
<path d="M145.211 130.809C145.593 130.762 145.984 130.73 146.388 130.719V125.456C145.984 125.467 145.593 125.497 145.211 125.546V130.809Z" fill="#A7A5A6"/>
<path d="M143.358 131.207C143.731 131.087 144.123 130.992 144.531 130.915V125.652C144.123 125.729 143.731 125.828 143.358 125.942V131.207Z" fill="#A7A5A6"/>
<path d="M142.296 121.375C142.55 121.26 142.815 121.152 143.095 121.057V121.69L142.296 121.375Z" fill="#A7A5A6"/>
<path d="M146.388 123.222C145.986 123.232 145.592 123.263 145.211 123.311V120.572C145.592 120.526 145.986 120.495 146.388 120.481V123.222Z" fill="#A7A5A6"/>
<path d="M148.245 120.572C147.863 120.526 147.472 120.493 147.07 120.483V123.222C147.472 123.232 147.863 123.261 148.245 123.311V120.572Z" fill="#A7A5A6"/>
<path d="M148.926 120.678C149.336 120.755 149.727 120.854 150.098 120.968V123.705C149.727 123.591 149.336 123.492 148.926 123.419V120.678Z" fill="#A7A5A6"/>
<path d="M144.53 123.418C144.122 123.493 143.728 123.592 143.357 123.706V120.969C143.73 120.855 144.122 120.756 144.532 120.677L144.53 123.418Z" fill="#A7A5A6"/>
<path d="M150.364 121.057C150.646 121.154 150.918 121.261 151.174 121.381L150.364 121.692V121.057Z" fill="#A7A5A6"/>
<path d="M142.296 126.349C142.55 126.231 142.815 126.125 143.095 126.03V126.663L142.296 126.349Z" fill="#A7A5A6"/>
<path d="M150.364 126.03C150.646 126.127 150.918 126.235 151.174 126.354L150.364 126.665V126.03Z" fill="#A7A5A6"/>
<path d="M151.173 119.6C149.952 119.036 148.408 118.699 146.73 118.699C145.054 118.699 143.514 119.036 142.295 119.596V120.738C143.514 120.176 145.054 119.843 146.73 119.843C148.408 119.843 149.954 120.18 151.173 120.742V119.6Z" fill="#A7A5A6"/>
<path d="M151.173 124.615C149.952 124.053 148.408 123.715 146.73 123.715C145.054 123.715 143.514 124.049 142.295 124.611V125.754C143.514 125.194 145.054 124.857 146.73 124.857C148.408 124.857 149.954 125.196 151.173 125.758V124.615Z" fill="#A7A5A6"/>
<path d="M151.173 119.097C149.952 118.533 148.408 118.195 146.73 118.195C145.054 118.195 143.514 118.531 142.295 119.091L145.815 115.738C146.115 115.713 146.42 115.703 146.73 115.703C147.041 115.703 147.343 115.713 147.643 115.736L151.173 119.097Z" fill="#A7A5A6"/>
<path d="M145.816 114.799V115.353C146.117 115.331 146.419 115.321 146.729 115.321C147.038 115.321 147.344 115.331 147.642 115.353V114.799C147.642 114.59 147.188 114.582 147.07 114.578C146.957 114.578 146.843 114.576 146.729 114.576C146.616 114.576 146.5 114.578 146.387 114.578C146.265 114.582 145.816 114.578 145.816 114.799Z" fill="#A7A5A6"/>
<path d="M150.1 136.913C149.727 136.794 149.335 136.698 148.927 136.621V131.502C149.335 131.577 149.727 131.675 150.1 131.79V136.913Z" fill="#A7A5A6"/>
<path d="M148.245 136.515C147.863 136.467 147.472 136.438 147.07 136.426V131.305C147.472 131.315 147.863 131.348 148.245 131.394V136.515Z" fill="#A7A5A6"/>
<path d="M146.388 136.427C145.986 136.438 145.592 136.466 145.211 136.515V131.394C145.592 131.343 145.986 131.317 146.388 131.302V136.427Z" fill="#A7A5A6"/>
<path d="M144.53 136.622C144.122 136.697 143.73 136.797 143.357 136.912V131.789C143.73 131.674 144.122 131.578 144.53 131.501V136.622Z" fill="#A7A5A6"/>
<path d="M52.3736 143.942C51.9719 144.056 51.5823 144.169 51.211 144.285C51.211 143.601 51.209 141.708 51.209 141.708V137.539C51.209 137.539 51.9739 137.324 52.3817 137.247V141.248L52.3736 143.942ZM54.2503 143.459C53.8405 143.555 53.4408 143.654 53.0533 143.756C53.0533 143.474 53.0634 141.092 53.0634 141.092V137.141C53.0634 137.141 53.8364 137.062 54.2381 137.052L54.2523 141.092L54.2503 143.459ZM56.0966 137.141C55.7152 137.091 54.9219 137.052 54.9219 137.052V141.092C54.9219 141.092 54.9158 142.978 54.9158 143.307C55.3013 143.224 55.6929 143.145 56.0905 143.07L56.0966 137.141ZM57.9531 140.921V137.539C57.5797 137.421 56.7783 137.247 56.7783 137.247V140.921L56.7682 142.948C56.7682 142.948 57.5473 142.82 57.945 142.765L57.9531 140.921V140.921ZM144.529 141.619V137.247C144.123 137.324 143.358 137.539 143.358 137.539V142.082C143.358 142.082 143.368 142.169 143.368 142.692C143.756 142.725 144.143 142.767 144.531 142.816L144.529 141.619ZM146.399 141.394L146.387 137.052C145.985 137.062 145.212 137.141 145.212 137.141V141.394C145.212 141.394 145.196 142.514 145.196 142.907C145.602 142.968 146.004 143.035 146.403 143.11L146.399 141.394ZM148.248 143.532C147.856 143.427 147.462 143.331 147.065 143.244C147.065 142.946 147.069 141.394 147.069 141.394V137.052C147.069 137.052 147.864 137.091 148.245 137.141V141.394L148.248 143.532V143.532ZM150.1 144.107C149.708 143.964 149.315 143.839 148.915 143.719C148.915 143.409 148.925 141.189 148.925 141.189V137.247C148.925 137.247 149.727 137.421 150.1 137.539V141.189V144.107V144.107Z" fill="#A7A5A6"/>
<path d="M96.6326 142.268C98.2171 143.135 99.7368 143.54 100.731 143.723C100.753 143.727 100.772 143.731 100.79 143.731C100.861 143.731 100.93 143.709 100.985 143.662C101.058 143.605 101.1 143.522 101.104 143.431C101.171 141.743 100.796 140.244 100.632 139.677C100.607 139.592 100.548 139.521 100.469 139.483C98.4505 138.505 96.8152 137.433 95.61 136.293C94.7315 135.461 94.0924 134.611 93.717 133.765C93.6704 133.662 93.573 133.593 93.4614 133.581C93.3478 133.568 93.2382 133.621 93.1733 133.712C92.5078 134.668 92.0188 135.78 91.7632 136.924C91.749 136.989 91.7571 137.058 91.7855 137.121C92.7837 139.322 94.415 141.055 96.6326 142.268Z" fill="#C4122E"/>
<path d="M96.0272 135.803C96.086 135.857 96.1631 135.888 96.2443 135.888H96.2706C96.3599 135.882 96.4431 135.835 96.4958 135.762C98.8514 132.583 101.432 131.402 103.183 130.97C103.319 130.939 103.416 130.818 103.423 130.678C103.427 130.538 103.339 130.412 103.205 130.369C102.317 130.079 101.39 129.933 100.446 129.933C99.2491 129.933 98.0784 130.17 96.9665 130.643C95.9075 131.096 94.962 131.735 94.1504 132.546C94.0754 132.621 94.0449 132.735 94.0693 132.838C94.1991 133.368 94.6211 134.458 96.0272 135.803Z" fill="#C4122E"/>
<path d="M96.9478 136.214C96.8484 136.35 96.8748 136.543 97.0087 136.644C97.9785 137.401 99.1634 138.129 100.537 138.811C100.582 138.831 100.628 138.841 100.675 138.841C100.764 138.841 100.851 138.805 100.912 138.732C101.734 137.78 104.065 135.508 107.965 134.905C108.066 134.891 108.155 134.826 108.202 134.735C108.247 134.644 108.245 134.534 108.192 134.445C107.504 133.231 106.528 132.183 105.37 131.416C105.321 131.383 105.262 131.365 105.203 131.363C104.852 131.353 103.53 131.375 101.846 132.114C99.9972 132.923 98.3457 134.303 96.9478 136.214Z" fill="#C4122E"/>
<path d="M108.77 135.68C108.719 135.544 108.583 135.461 108.439 135.479C107.747 135.565 107.068 135.709 106.418 135.914C106.339 135.938 106.27 135.995 106.234 136.068C106.197 136.143 106.189 136.228 106.215 136.309C106.445 137.017 106.842 138.46 106.913 140.156C106.958 141.229 106.865 142.258 106.637 143.204C106.485 143.832 106.272 144.439 106.004 145.001C105.939 145.137 105.98 145.301 106.1 145.389C106.157 145.431 106.219 145.45 106.286 145.45C106.364 145.45 106.439 145.423 106.499 145.368C107.467 144.478 108.21 143.4 108.707 142.171C109.547 140.087 109.569 137.778 108.77 135.68Z" fill="#C4122E"/>
<path d="M100.906 144.493C100.859 144.425 100.786 144.376 100.703 144.362C99.7292 144.183 98.2339 143.8 96.6453 142.984C94.7523 142.012 93.2347 140.685 92.135 139.042C92.0559 138.924 91.9078 138.873 91.7739 138.916C91.642 138.961 91.5548 139.088 91.5608 139.228C91.6014 140.294 91.8368 141.334 92.2547 142.321C92.8796 143.787 93.8839 145.06 95.1622 146.003C96.3896 146.904 97.8383 147.48 99.3539 147.669C99.3681 147.673 99.3782 147.673 99.3924 147.673C99.4817 147.673 99.5669 147.632 99.6278 147.563C100.289 146.8 100.738 145.845 100.955 144.731C100.971 144.648 100.953 144.562 100.906 144.493Z" fill="#C4122E"/>
<path d="M105.632 136.561C105.603 136.476 105.542 136.407 105.461 136.37C105.38 136.334 105.285 136.334 105.206 136.372C103.081 137.322 101.777 138.697 101.314 139.243C101.245 139.326 101.221 139.434 101.251 139.535C101.428 140.124 101.724 141.323 101.759 142.753C101.779 143.65 101.692 144.492 101.499 145.259C101.314 145.987 101.028 146.661 100.651 147.249C100.588 147.351 100.586 147.472 100.645 147.578C100.704 147.671 100.803 147.73 100.915 147.73H100.933C101.826 147.681 102.718 147.486 103.587 147.16C103.625 147.148 103.662 147.125 103.692 147.095C104.611 146.231 105.299 145.194 105.733 144.017C106.096 143.031 106.285 141.933 106.295 140.759C106.307 138.931 105.885 137.344 105.632 136.561Z" fill="#C4122E"/>
</g>
<defs>
<clipPath id="clip0">
<rect x="44" y="30" width="112.631" height="140" fill="white"/>
</clipPath>
</defs>
</svg>
