<svg width="200" height="200" viewBox="0 0 200 200" fill="none" xmlns="http://www.w3.org/2000/svg">
<rect width="200" height="200" fill="white"/>
<g clip-path="url(#clip0)">
<path d="M70 151.984L40 100L70 48.0156H130L160 100L130 151.984H70Z" fill="#231F20"/>
<path d="M75.7656 141.977L51.5312 100L75.7656 58.0234H124.234L148.469 100L124.234 141.977H75.7656Z" fill="#FDB913"/>
<path d="M76.2813 141.109H123.742L147.461 100L123.719 58.8906H76.2813L52.5391 100L76.2813 141.109ZM124.727 142.867H75.2734L50.5234 100L50.7812 99.5547L75.2734 57.1328H124.75L125.008 57.5781L149.5 100L124.727 142.867Z" fill="white"/>
<path d="M93.0391 80.4063H106.914L114.32 61.8203L134.359 102.555L112.68 115.375L105.719 138.18H94.2813L87.3438 115.328L65.6406 102.555L85.6563 61.8203L93.0391 80.4063Z" fill="#231F20"/>
<path d="M95.8984 105.484L85.6797 94.5156V105.484H95.8984ZM114.32 94.5156V105.484H104.078L114.32 94.5156Z" fill="white"/>
</g>
<defs>
<clipPath id="clip0">
<rect x="40" y="40" width="120" height="120" fill="white"/>
</clipPath>
</defs>
</svg>
