<svg width="200" height="200" viewBox="0 0 200 200" fill="none" xmlns="http://www.w3.org/2000/svg">
<rect width="200" height="200" fill="white"/>
<path d="M151.18 74.7971V74.7896V74.7858L151.334 42.2021H47.9458L48.0996 74.7858V74.7896V74.7971C48.0996 116.149 73.5094 157.839 99.6398 157.839C125.77 157.839 151.18 116.149 151.18 74.7971V74.7971Z" fill="#00A650"/>
<path fill-rule="evenodd" clip-rule="evenodd" d="M46.439 40.7021H152.841L152.68 74.7858V74.7971C152.68 95.7576 146.247 116.79 136.486 132.613C126.776 148.351 113.498 159.339 99.64 159.339C85.7823 159.339 72.5038 148.351 62.7944 132.613C53.033 116.79 46.5998 95.7576 46.5998 74.7971V74.7858L46.439 40.7021ZM49.4532 43.7021L49.5998 74.7858L49.5998 74.7896V74.7971C49.5998 95.1886 55.8716 115.677 65.3477 131.038C74.8758 146.482 87.3674 156.339 99.64 156.339C111.913 156.339 124.404 146.482 133.932 131.038C143.409 115.677 149.68 95.1886 149.68 74.7971V74.7858L149.68 74.7788L149.827 43.7021H49.4532Z" fill="black"/>
<path d="M53.776 46.708C55.708 46.66 57.64 46.66 59.56 46.696C59.584 47.464 59.572 48.22 59.584 48.976C60.796 49 62.02 49 63.244 48.976C63.232 48.22 63.22 47.464 63.268 46.708C65.308 46.66 67.36 46.66 69.412 46.708C69.448 47.464 69.436 48.22 69.436 48.976C70.612 49 71.788 49 72.964 48.976C72.952 48.22 72.94 47.464 72.976 46.696C75.112 46.66 77.248 46.66 79.384 46.696C79.42 47.464 79.408 48.22 79.396 48.976C80.488 49 81.592 49 82.684 48.976C82.684 48.22 82.672 47.464 82.708 46.696C84.628 46.66 86.56 46.66 88.492 46.708C88.516 47.464 88.504 48.22 88.504 48.976C89.884 49 91.264 49 92.644 48.976C92.632 48.22 92.62 47.464 92.656 46.708C94.948 46.66 97.252 46.66 99.544 46.696C99.58 50.908 99.58 55.108 99.544 59.308C92.584 59.32 85.624 59.332 78.664 59.308C78.628 57.916 78.7 56.536 78.628 55.156C76.996 55.168 75.376 55.168 73.756 55.156C73.744 56.536 73.792 57.928 73.732 59.308C67.084 59.32 60.436 59.32 53.776 59.308C53.74 55.108 53.74 50.908 53.776 46.708V46.708ZM54.544 47.296C54.532 51.076 54.532 54.844 54.532 58.624C60.676 58.648 66.82 58.672 72.964 58.612C72.976 57.184 72.916 55.744 72.988 54.316C75.136 54.34 77.284 54.328 79.432 54.328C79.444 55.756 79.408 57.196 79.456 58.624C85.9 58.648 92.344 58.66 98.788 58.624C98.788 54.844 98.788 51.076 98.776 47.296C97 47.272 95.212 47.26 93.436 47.308C93.436 48.1 93.448 48.904 93.412 49.696C91.528 49.708 89.632 49.708 87.748 49.696C87.7 48.904 87.724 48.1 87.724 47.308C86.308 47.26 84.88 47.26 83.464 47.308C83.464 48.1 83.476 48.904 83.428 49.696C81.844 49.708 80.248 49.708 78.664 49.696C78.652 48.892 78.676 48.1 78.64 47.296C77.008 47.26 75.376 47.26 73.744 47.308C73.756 48.1 73.768 48.904 73.732 49.696C72.04 49.708 70.348 49.708 68.656 49.696C68.62 48.904 68.632 48.112 68.644 47.308C67.108 47.248 65.56 47.26 64.024 47.308C64.024 48.1 64.036 48.904 64 49.696C62.272 49.708 60.544 49.708 58.816 49.696C58.78 48.904 58.804 48.112 58.804 47.308C57.388 47.248 55.96 47.272 54.544 47.296V47.296Z" fill="#241F20" stroke="#241F20" stroke-width="0.0313547"/>
<path d="M54.5442 47.296C55.9602 47.272 57.3882 47.248 58.8042 47.308C58.8042 48.112 58.7802 48.904 58.8162 49.696C60.5442 49.708 62.2722 49.708 64.0002 49.696C64.0362 48.904 64.0242 48.1 64.0242 47.308C65.5602 47.26 67.1082 47.248 68.6442 47.308C68.6322 48.112 68.6202 48.904 68.6562 49.696C70.3482 49.708 72.0402 49.708 73.7322 49.696C73.7682 48.904 73.7562 48.1 73.7442 47.308C75.3762 47.26 77.0082 47.26 78.6402 47.296C78.6762 48.1 78.6522 48.892 78.6642 49.696C80.2482 49.708 81.8442 49.708 83.4282 49.696C83.4762 48.904 83.4642 48.1 83.4642 47.308C84.8802 47.26 86.3082 47.26 87.7242 47.308C87.7242 48.1 87.7002 48.904 87.7482 49.696C89.6322 49.708 91.5282 49.708 93.4122 49.696C93.4482 48.904 93.4362 48.1 93.4362 47.308C95.2122 47.26 97.0002 47.272 98.7762 47.296C98.7882 51.076 98.7882 54.844 98.7882 58.624C92.3442 58.66 85.9002 58.648 79.4562 58.624C79.4082 57.196 79.4442 55.756 79.4322 54.328C77.2842 54.328 75.1362 54.34 72.9882 54.316C72.9162 55.744 72.9762 57.184 72.9642 58.612C66.8202 58.672 60.6762 58.648 54.5322 58.624C54.5322 54.844 54.5322 51.076 54.5442 47.296V47.296ZM61.1202 51.964C61.1082 53.044 61.0842 54.124 61.1322 55.216C61.4082 55.204 61.6722 55.204 61.9482 55.216C61.9842 54.124 61.9722 53.044 61.9602 51.964C61.6722 51.964 61.3962 51.964 61.1202 51.964V51.964ZM90.1842 51.976C90.1842 53.056 90.1722 54.136 90.1842 55.204C90.4602 55.204 90.7362 55.204 91.0122 55.204C91.0602 54.124 91.0482 53.044 91.0242 51.964C90.7482 51.964 90.4602 51.964 90.1842 51.976Z" fill="#FFF200" stroke="#FFF200" stroke-width="0.0313547"/>
<path d="M125.788 51.628C127.684 49.492 130.228 47.764 133.132 47.464C134.224 47.38 135.388 47.26 136.408 47.752C138.724 48.94 141.472 48.424 143.836 49.444C144.544 49.756 145.192 50.212 145.696 50.8C144.544 52.816 141.772 52.924 140.464 54.796C139.972 55.48 139.996 56.356 140.044 57.16C140.5 66.208 139.204 75.388 135.928 83.848C134.176 88.648 130.804 92.74 126.724 95.764C122.008 99.268 116.38 101.512 110.56 102.292C110.008 102.34 109.684 102.844 109.372 103.252C107.812 105.376 107.812 108.34 108.88 110.668C115.48 110.992 121.696 114.904 125.008 120.592C125.92 122.116 126.604 123.784 126.916 125.524C127.876 130.396 126.952 135.652 124.252 139.84C120.88 145 114.748 148.06 108.64 148.084C107.104 148.108 105.544 148.108 104.068 147.652C98.1043 145.996 92.8483 141.532 90.7723 135.628C88.8523 129.988 89.8843 123.472 93.2683 118.576C95.2363 115.72 98.1163 113.536 101.32 112.216C101.764 109.552 99.9283 107.116 100.372 104.452C100.492 103.6 101.08 102.94 101.584 102.28C99.8923 101.428 97.9483 102.004 96.1723 101.548C88.4083 109.144 81.5203 117.568 74.4283 125.788C72.9043 128.032 71.4403 130.36 70.5763 132.952C69.2563 130.12 70.2283 126.964 70.4563 124.012C68.1403 123.712 65.8843 124.504 63.5923 124.612C64.3483 123.904 65.2243 123.328 66.0163 122.656C73.4563 116.524 79.2643 108.76 85.6243 101.584C86.3563 100.792 87.0523 99.976 87.7363 99.136C97.1923 87.76 106.66 76.384 116.116 64.996C117.04 63.88 118 62.788 118.876 61.648C121.168 58.3 123.04 54.64 125.788 51.628ZM127.612 51.052C121.276 57.412 117.7 65.98 111.22 72.208C110.788 72.592 110.32 72.988 110.164 73.576C109.348 76.072 108.916 78.724 107.548 81.016C109.588 81.856 111.844 81.448 113.896 80.884C116.32 80.2 118.684 78.832 119.944 76.576C121.12 76.816 122.32 77.02 123.52 76.984C127.108 76.912 130.552 75.28 133.096 72.784C133.192 72.904 133.288 73.012 133.396 73.132C132.628 74.2 131.704 75.208 130.48 75.76C130.168 75.904 129.76 76.024 129.7 76.42C128.8 79.852 127.048 83.044 124.72 85.72C119.932 91.18 113.032 94.324 106.036 95.86C105.484 96.016 104.86 96.004 104.38 96.34C102.292 98.284 99.9883 100.228 97.1083 100.792C101.248 101.632 105.508 101.872 109.708 101.44C114.616 100.972 119.476 99.532 123.676 96.916C127.192 94.888 130.228 92.044 132.46 88.66C134.608 85.468 136.072 81.856 137.08 78.16C138.976 71.164 139.348 63.88 139.42 56.668C138.604 59.308 136.888 61.672 134.524 63.112C133.24 63.748 131.704 63.832 130.336 63.424C128.776 62.992 127.564 61.48 127.564 59.848C127.468 58.18 127.06 56.2 128.272 54.82C128.8 54.112 129.748 54.064 130.48 53.68C130.996 53.344 130.768 52.6 131.092 52.132C131.62 51.376 132.544 51.064 133.408 50.836C134.644 50.416 136 50.884 137.08 51.52C138.28 52.288 138.328 54.172 137.308 55.108C136.408 55.984 135.064 56.152 133.864 56.056C133.024 56.02 132.16 55.732 131.596 55.096C131.32 54.808 131.068 54.352 130.6 54.484C129.484 54.676 128.416 55.636 128.368 56.812C128.176 58.48 128.236 60.292 129.1 61.78C129.964 62.728 131.368 63.076 132.604 62.896C134.38 62.476 135.928 61.276 136.912 59.752C137.692 58.516 138.484 57.232 138.796 55.792C139.324 53.596 138.916 51.208 137.74 49.288C137.32 48.604 136.468 48.388 135.748 48.184C132.784 47.608 129.64 48.868 127.612 51.052V51.052ZM138.892 49.264C139.036 49.936 139.216 50.596 139.396 51.256C140.716 50.944 142.048 50.668 143.344 50.272C141.952 49.636 140.416 49.336 138.892 49.264V49.264ZM139.744 52.276C139.864 52.828 140.032 53.38 140.224 53.92C141.256 52.588 142.972 52.228 144.208 51.184C142.672 51.22 141.064 51.436 139.744 52.276ZM134.008 51.544C133.096 51.736 132.124 52.096 131.548 52.864C131.476 53.68 131.884 54.64 132.712 54.94C133.588 55.288 134.596 55.3 135.52 55.108C136.108 54.808 136.696 54.46 137.152 53.98C137.524 53.248 136.96 52.264 136.204 52.036C135.484 51.832 134.764 51.472 134.008 51.544V51.544ZM107.428 76.588C99.2083 86.44 91.0363 96.34 82.7443 106.144C82.2763 106.684 81.7723 107.212 81.3763 107.812C82.4323 107.38 83.4043 106.792 84.4003 106.24C86.5723 104.956 88.7083 103.324 89.8363 101.008C89.6923 100.864 89.5603 100.72 89.4163 100.588C91.3123 98.44 93.3043 96.376 95.1763 94.216C98.9323 89.92 103.216 86.032 106.216 81.136C107.428 79.168 108.388 77.032 108.976 74.8C108.424 75.352 107.944 75.988 107.428 76.588V76.588ZM126.676 77.224C126.22 77.464 126.136 78.016 125.956 78.448C124.564 82.264 121.684 85.396 118.288 87.568C114.628 89.92 110.452 91.348 106.204 92.2C103.612 92.92 100.936 91.42 98.3443 92.224C97.2043 92.56 96.4123 93.556 96.0523 94.648C98.7283 94.876 101.38 95.656 104.08 95.296C109.984 94.444 115.768 92.272 120.472 88.552C124.252 85.576 127.276 81.496 128.572 76.816C127.936 76.9 127.252 76.924 126.676 77.224V77.224ZM117.976 79.816C114.94 82.288 110.704 82.96 106.972 81.892C105.964 83.032 104.968 84.184 104.02 85.384C104.476 86.008 105.292 85.984 105.976 86.104C106.564 86.176 107.116 86.416 107.704 86.392C113.428 85.9 119.092 82.816 121.96 77.74C121.408 77.608 120.856 77.5 120.292 77.428C119.596 78.292 118.864 79.132 117.976 79.816V79.816ZM123.04 78.028C122.092 78.748 121.864 80.02 120.964 80.764C119.26 82.288 117.484 83.74 115.516 84.928C113.116 86.356 110.404 87.46 107.56 87.364C106.072 87.412 104.608 87.028 103.24 86.476C101.908 87.964 100.612 89.476 99.3403 91.024C102.52 91.564 105.856 91.708 108.988 90.844C112.636 89.464 116.308 87.964 119.452 85.612C122.14 83.62 124.36 80.836 125.2 77.56C124.444 77.44 123.628 77.512 123.04 78.028V78.028ZM95.3563 95.332C93.8923 96.916 92.4043 98.464 91.0003 100.108C95.3323 100.768 100.108 99.484 103.144 96.208C100.516 96.364 97.9123 95.932 95.3563 95.332V95.332ZM90.4843 101.404C89.6443 102.304 89.2963 103.6 88.3123 104.392C88.0723 104.608 87.7723 104.8 87.7483 105.16C87.5923 106.324 87.7003 107.572 88.3603 108.58C90.5683 106.048 92.8603 103.576 95.2363 101.188C94.5523 101.188 93.8803 101.248 93.2083 101.272C92.5963 101.32 92.1043 100.828 91.4923 100.864C91.0963 100.888 90.7483 101.116 90.4843 101.404V101.404ZM102.376 102.628C101.56 103.396 101.14 104.524 101.2 105.64C101.272 107.692 102.196 109.612 102.196 111.676C102.64 111.604 103.072 111.508 103.504 111.388C103.18 109.936 102.352 108.592 102.316 107.08C102.316 105.352 103.468 103.948 104.02 102.376C103.48 102.388 102.808 102.184 102.376 102.628ZM106.936 102.484C106.456 103.36 106.696 104.5 105.988 105.268C105.736 105.532 105.652 105.88 105.664 106.228C105.52 109.624 108.04 112.456 108.004 115.84C108.016 116.284 107.812 116.692 107.536 117.004C106.252 118.516 103.816 118.408 102.748 120.148C104.296 119.344 105.808 118.36 107.572 118.084C108.244 118 108.796 118.516 109.216 118.984C110.32 120.304 110.452 122.104 111.268 123.568C111.556 122.332 110.812 121.144 110.992 119.896C112.192 119.476 113.008 120.568 114.04 120.904C112.972 119.56 111.244 119.032 110.032 117.844C110.86 116.584 112.528 116.908 113.812 116.848C112.336 116.548 110.812 116.572 109.312 116.308C109 112.9 106.936 109.828 107.14 106.348C107.188 104.872 107.956 103.588 108.892 102.496C108.244 102.46 107.584 102.472 106.936 102.484V102.484ZM105.076 102.688C104.536 103.672 103.924 104.608 103.504 105.652C102.976 107.512 103.828 109.384 104.608 111.052C105.004 111.004 105.388 110.884 105.736 110.692C105.256 109.972 104.848 109.192 104.764 108.316C104.488 106.384 105.196 104.536 105.52 102.664C105.376 102.676 105.22 102.676 105.076 102.688V102.688ZM86.1643 106.576C82.2763 112.864 77.3683 118.552 71.6203 123.22C71.2003 123.544 71.2603 124.132 71.1643 124.588C70.8883 126.508 70.2643 128.476 70.7923 130.396C71.3683 129.496 71.8483 128.536 72.4483 127.648C76.7323 120.892 82.5643 115.348 87.6283 109.216C87.0643 108.172 86.7523 107.032 86.6443 105.868C86.4883 106.096 86.3203 106.324 86.1643 106.576V106.576ZM80.7283 109.036C80.1403 109.12 79.7563 109.576 79.3963 109.996C75.1003 114.676 71.1163 119.74 66.0043 123.568C67.3483 123.124 68.7883 123.496 70.1563 123.184C70.7923 123.052 71.2603 122.548 71.7403 122.14C76.8643 117.76 81.4243 112.66 84.8683 106.84C83.5723 107.716 82.2883 108.7 80.7283 109.036V109.036ZM109.24 111.544C109.372 112.864 109.648 114.16 109.864 115.468C111.604 115.684 113.368 115.708 115.108 116.008C115.696 116.128 116.236 116.428 116.74 116.752C117.004 116.872 116.98 117.184 117.016 117.424C115.252 117.94 113.404 117.472 111.616 117.82C112.564 118.672 113.68 119.308 114.58 120.22C115.456 121.06 116.212 122.188 116.14 123.46C114.568 122.884 113.716 121.12 112 120.808C112.54 122.536 112.204 124.552 110.908 125.872C110.416 124.576 110.092 123.232 109.648 121.912C109.324 120.928 109.156 119.752 108.244 119.128C107.584 118.648 106.792 119.08 106.132 119.332C104.464 120.004 103.072 121.252 101.32 121.756C101.296 120.904 101.512 120.028 102.124 119.404C103.396 118.108 105.34 117.856 106.672 116.632C107.14 116.188 107.08 115.468 107.104 114.88C107.056 113.776 106.816 112.552 105.952 111.796C105.412 111.748 104.896 111.94 104.38 112.06C101.776 112.708 99.2923 113.872 97.1923 115.552C92.7403 119.128 90.2563 124.924 90.5683 130.612C90.9163 138.256 96.9523 145.252 104.452 146.776C110.116 148.024 116.608 146.848 120.796 142.636C125.464 138.124 127.648 131.08 125.836 124.78C124.372 119.968 121.036 115.66 116.512 113.368C114.268 112.228 111.748 111.628 109.24 111.544V111.544Z" fill="#241F20" stroke="#241F20" stroke-width="0.0313547"/>
<path d="M127.612 51.052C129.64 48.868 132.784 47.608 135.748 48.184C136.468 48.388 137.32 48.604 137.74 49.288C138.916 51.208 139.324 53.596 138.796 55.792C138.484 57.232 137.692 58.516 136.912 59.752C135.928 61.276 134.38 62.476 132.604 62.896C131.368 63.076 129.964 62.728 129.1 61.78C128.236 60.292 128.176 58.48 128.368 56.812C128.416 55.636 129.484 54.676 130.6 54.484C131.068 54.352 131.32 54.808 131.596 55.096C132.16 55.732 133.024 56.02 133.864 56.056C135.064 56.152 136.408 55.984 137.308 55.108C138.328 54.172 138.28 52.288 137.08 51.52C136 50.884 134.644 50.416 133.408 50.836C132.544 51.064 131.62 51.376 131.092 52.132C130.768 52.6 130.996 53.344 130.48 53.68C129.748 54.064 128.8 54.112 128.272 54.82C127.06 56.2 127.468 58.18 127.564 59.848C127.564 61.48 128.776 62.992 130.336 63.424C131.704 63.832 133.24 63.748 134.524 63.112C136.888 61.672 138.604 59.308 139.42 56.668C139.348 63.88 138.976 71.164 137.08 78.16C136.072 81.856 134.608 85.468 132.46 88.66C130.228 92.044 127.192 94.888 123.676 96.916C119.476 99.532 114.616 100.972 109.708 101.44C105.508 101.872 101.248 101.632 97.1079 100.792C99.9879 100.228 102.292 98.284 104.38 96.34C104.86 96.004 105.484 96.016 106.036 95.86C113.032 94.324 119.932 91.18 124.72 85.72C127.048 83.044 128.8 79.852 129.7 76.42C129.76 76.024 130.168 75.904 130.48 75.76C131.704 75.208 132.628 74.2 133.396 73.132C133.288 73.012 133.192 72.904 133.096 72.784C130.552 75.28 127.108 76.912 123.52 76.984C122.32 77.02 121.12 76.816 119.944 76.576C118.684 78.832 116.32 80.2 113.896 80.884C111.844 81.448 109.588 81.856 107.548 81.016C108.916 78.724 109.348 76.072 110.164 73.576C110.32 72.988 110.788 72.592 111.22 72.208C117.7 65.98 121.276 57.412 127.612 51.052V51.052Z" fill="#FFF200" stroke="#FFF200" stroke-width="0.0313547"/>
<path d="M138.892 49.264C140.416 49.336 141.952 49.636 143.344 50.272C142.048 50.668 140.716 50.944 139.396 51.256C139.216 50.596 139.036 49.936 138.892 49.264V49.264Z" fill="#FFF200" stroke="#FFF200" stroke-width="0.0313547"/>
<path d="M139.744 52.276C141.064 51.436 142.672 51.22 144.208 51.184C142.972 52.228 141.256 52.588 140.224 53.92C140.032 53.38 139.864 52.828 139.744 52.276Z" fill="#FFF200" stroke="#FFF200" stroke-width="0.0313547"/>
<path d="M134.008 51.544C134.764 51.472 135.484 51.832 136.204 52.036C136.96 52.264 137.524 53.248 137.152 53.98C136.696 54.46 136.108 54.808 135.52 55.108C134.596 55.3 133.588 55.288 132.712 54.94C131.884 54.64 131.476 53.68 131.548 52.864C132.124 52.096 133.096 51.736 134.008 51.544V51.544ZM133.636 52.036C132.94 52.216 132.316 52.912 132.508 53.668C132.712 54.436 133.6 54.652 134.284 54.796C134.956 54.988 135.58 54.532 136.012 54.064C136.468 53.524 136.276 52.66 135.712 52.3C135.1 51.904 134.32 51.88 133.636 52.036Z" fill="#FFF200" stroke="#FFF200" stroke-width="0.0313547"/>
<path d="M61.1197 51.964C61.3957 51.964 61.6717 51.964 61.9597 51.964C61.9717 53.044 61.9837 54.124 61.9477 55.216C61.6717 55.204 61.4077 55.204 61.1317 55.216C61.0837 54.124 61.1077 53.044 61.1197 51.964V51.964Z" fill="#241F20" stroke="#241F20" stroke-width="0.0313547"/>
<path d="M90.184 51.976C90.46 51.964 90.748 51.964 91.0241 51.964C91.0481 53.044 91.0601 54.124 91.0121 55.204C90.736 55.204 90.46 55.204 90.184 55.204C90.172 54.136 90.184 53.056 90.184 51.976V51.976Z" fill="#241F20" stroke="#241F20" stroke-width="0.0313547"/>
<path d="M133.636 52.036C134.32 51.88 135.1 51.904 135.712 52.3C136.276 52.66 136.468 53.524 136.012 54.064C135.58 54.532 134.956 54.988 134.284 54.796C133.6 54.652 132.712 54.436 132.508 53.668C132.316 52.912 132.94 52.216 133.636 52.036Z" fill="#241F20" stroke="#241F20" stroke-width="0.0313547"/>
<path d="M62.0802 64.36C62.7882 62.992 63.8082 61.78 65.0682 60.88C65.3322 61.312 65.5362 61.912 66.0882 62.02C66.9282 62.116 67.6962 61.528 68.5362 61.624C69.1482 61.684 69.0402 62.644 69.6522 62.716C70.2162 62.704 70.7562 62.488 71.3082 62.404C70.8402 64.984 68.9802 66.976 67.9602 69.316C70.7082 68.992 73.4682 68.68 76.2402 68.716C78.7242 68.716 81.2202 68.704 83.7042 68.86C87.1602 68.86 90.6402 69.016 94.0962 68.752C94.9602 68.788 95.3562 67.276 94.4802 67C92.2362 66.016 89.7522 66.748 87.4122 66.832C85.8402 66.796 84.3042 67.096 82.7562 67.288C80.0322 67.672 77.2362 67.924 74.5122 67.42C73.6362 67.3 73.1682 66.448 72.8682 65.716C72.2682 64.036 73.5762 62.152 75.2562 61.804C80.6442 60.328 86.2722 62.152 91.7082 60.988C93.3522 60.604 95.1402 60.868 96.5802 61.78C97.7082 62.404 98.5242 63.664 98.4882 64.972C97.8402 65.164 97.1682 65.176 96.5082 65.212C97.6002 65.824 98.5362 66.832 98.7882 68.092C98.9322 69.4 97.7922 70.444 96.6642 70.864C94.8282 71.488 92.6922 71.188 91.0962 72.436C91.2882 72.964 91.6602 73.456 92.2242 73.576C93.5322 73.852 94.8282 73.084 96.1362 73.384C96.6762 73.504 97.0242 73.972 97.3722 74.368C98.0562 73.936 98.8602 73.96 99.6402 73.996C100.024 75.868 98.6562 77.356 98.0802 79.012C97.7322 79.9 98.0442 80.824 98.3322 81.688C96.9042 81.712 96.2202 80.332 95.3082 79.492C94.7922 78.94 93.9162 79.132 93.3762 78.664C93.1002 77.872 94.0842 76.996 93.4962 76.24C92.2122 75.868 91.0962 76.864 90.0282 77.428C89.2722 77.896 88.3602 77.944 87.5082 77.8C87.3282 78.328 87.2682 78.88 87.2202 79.432C87.1482 80.44 86.4042 81.244 85.6002 81.76C84.9522 82.228 84.3402 81.436 83.6922 81.376C81.4122 80.908 79.5882 83.044 77.3322 82.828C76.3962 82.696 75.2442 82.18 75.2922 81.064C74.7162 81.148 74.1522 81.268 73.5762 81.34C73.4322 80.8 73.4682 80.176 73.8642 79.744C74.2722 79.132 74.9802 78.904 75.6042 78.58C75.5802 78.22 75.2562 77.968 75.0522 77.692C75.7002 77.14 76.5522 76.852 77.3922 77.02C79.2162 77.392 80.8842 78.952 82.8522 78.28C82.2042 77.368 81.1842 76.804 80.5722 75.868C80.0562 75.1 80.3202 73.9 81.1962 73.516C82.2522 73.096 83.4282 73.516 84.4842 73.12C84.4122 72.82 84.3162 72.376 83.9082 72.46C82.9482 72.52 81.9642 72.148 81.0402 72.508C78.3402 73.36 76.7322 76 74.0922 76.972C73.1322 77.356 72.0762 77.212 71.0922 77.44C69.7242 77.74 68.3202 77.74 66.9282 77.92C67.0242 78.652 67.1202 79.432 66.7842 80.116C66.4602 80.836 65.8482 81.592 64.9842 81.628C64.5282 81.34 64.1922 80.908 63.7842 80.56C62.9442 81.436 61.7322 81.892 60.5322 81.844C60.0882 81.76 59.8002 81.28 59.3202 81.316C58.4322 81.256 57.2802 81.604 56.6682 80.728C56.8602 80.488 57.1122 80.272 57.1962 79.96C57.1002 79.552 56.6322 79.372 56.2602 79.312C55.3602 79.18 54.4482 79.372 53.5482 79.336C52.7322 79.336 52.0962 78.724 51.5322 78.196C52.2762 77.392 51.4002 76.456 51.6282 75.544C54.4362 75.556 56.8842 77.38 59.7042 77.248C59.8722 76.696 59.8842 76.108 59.7882 75.544C58.2882 75.304 56.7402 75.28 55.2642 74.896C54.3522 74.668 53.4282 74.248 52.8402 73.492C52.3602 72.856 52.1082 72.088 51.8562 71.344C52.0722 71.164 52.2882 70.996 52.5042 70.828C52.4442 69.904 52.1322 68.98 52.3482 68.056C52.4442 67.612 52.9362 67.468 53.2842 67.276C52.8162 66.34 52.1202 65.368 52.3722 64.264C52.4322 63.676 53.1282 63.448 53.2722 62.92C53.1762 62.368 52.7802 61.912 52.6362 61.36C53.3442 61.132 54.1242 61.216 54.7482 61.6C55.6722 62.068 56.5602 63.088 57.6882 62.728C58.3242 62.344 58.9122 61.828 59.7042 61.876C59.1282 64.168 57.0162 65.692 56.4522 67.984C56.1282 69.268 57.0042 70.516 58.0842 71.116C58.6842 71.392 59.3682 71.272 60.0042 71.272C60.4602 68.908 60.9282 66.496 62.0802 64.36V64.36ZM91.1322 61.84C90.6162 62.032 90.1362 62.428 89.5602 62.332C86.3322 62.008 83.0922 61.804 79.8402 61.888C78.0042 61.864 76.0962 62.08 74.4402 62.932C73.2282 63.592 73.3002 65.32 74.0682 66.28C74.4402 66.532 74.8842 66.616 75.3042 66.724C79.0602 67.636 82.8042 66.064 86.5602 66.184C89.0442 66.076 91.5522 65.2 94.0002 65.908C94.9362 66.112 95.6922 66.904 95.8482 67.852C95.8842 68.608 95.2002 69.208 94.5042 69.412C93.4482 69.7 92.3322 69.736 91.2402 69.664C82.9602 69.196 74.6322 69.256 66.4002 70.396C66.5202 70.144 66.6282 69.88 66.7482 69.616C65.6682 69.544 64.7562 68.596 64.7922 67.492C65.9202 67.408 67.0602 67.432 68.1882 67.336C68.8362 66.052 69.5442 64.768 70.0242 63.4C69.6642 63.556 69.3402 63.82 68.9322 63.808C68.5362 63.448 68.5122 62.86 68.3322 62.392C67.6242 62.548 66.9522 62.788 66.2922 63.052C65.8842 62.728 65.5722 62.176 65.0922 62.008C63.9762 62.788 63.1242 63.94 62.5722 65.188C63.1482 65.992 64.4442 66.688 63.8682 67.84C63.0882 67.888 62.2962 67.864 61.5162 67.876C61.1802 68.788 60.9762 69.76 61.0482 70.744C61.4202 70.408 61.7202 69.988 62.1402 69.724C63.0162 69.508 63.9282 69.916 64.5282 70.552C65.1762 71.248 65.7522 72.028 66.5082 72.628C64.5762 72.748 62.8002 71.656 60.8682 71.752C59.5842 73.564 61.2522 75.664 60.7002 77.62C58.0122 78.4 55.4202 77.032 52.8522 76.48C53.0562 76.564 53.2722 76.66 53.4882 76.744C53.2362 77.26 52.9602 77.764 52.7082 78.268C54.3882 78.94 56.2362 78.352 57.9642 78.76C57.9762 79.42 57.9762 80.068 58.0002 80.716C59.0922 80.92 59.8722 80.056 60.5322 79.336C61.0722 79.696 61.4202 80.224 61.6602 80.812C62.7522 80.884 63.1122 79.516 64.1082 79.264C64.4202 79.732 64.6122 80.26 64.9242 80.728C65.3082 81.016 65.7162 80.584 65.8602 80.248C66.4242 79.3 66.0522 78.184 65.7042 77.224C67.4922 76.78 69.3642 76.912 71.1882 76.684C72.7842 76.468 74.3802 76.024 75.7362 75.136C77.5242 74.032 79.0242 72.436 81.0042 71.656C82.3122 71.104 83.8002 71.212 85.0962 71.728C85.4562 72.904 85.1562 74.128 85.3482 75.328C85.5042 76.06 86.0682 76.912 86.9082 76.888C88.1442 76.9 89.4882 76.984 90.5562 76.276C91.2522 75.772 92.0802 75.508 92.9202 75.364C93.6282 75.244 94.4082 75.76 94.4922 76.48C94.5642 77.044 94.3722 77.584 94.2282 78.124C94.6962 78.1 95.2602 77.956 95.6202 78.34C96.2322 79.024 96.3282 80.152 97.3002 80.488C97.2042 80.08 97.0722 79.66 97.0722 79.24C97.1442 77.488 99.1962 76.456 98.9442 74.632C98.2602 74.692 97.8762 75.376 97.2402 75.52C96.7242 75.328 96.5562 74.668 96.0642 74.416C95.1402 73.9 94.0002 74.116 93.0282 74.332C91.7322 74.836 90.2802 73.588 90.2442 72.292C90.4722 71.74 91.0242 71.392 91.5402 71.14C93.0762 70.468 94.8522 70.744 96.4002 70.12C97.3482 69.748 97.9602 68.728 97.8642 67.732C97.5642 67.132 96.9762 66.736 96.4482 66.352C93.5322 64.444 89.7402 64.432 86.4882 65.416C85.6842 64.168 84.0762 63.976 82.7202 64.084C81.7842 64.336 81.7362 65.776 80.7042 65.848C79.1922 66.076 77.6562 66.424 76.1322 66.136C75.4602 65.956 74.7042 65.62 74.4162 64.948C74.4882 64.144 74.6202 62.956 75.5922 62.776C77.7282 62.296 79.9482 62.188 82.1322 62.356C87.3162 62.644 92.3922 64.168 97.6122 64.072C97.1202 63.004 96.0882 62.284 94.9842 61.96C93.7482 61.564 92.3682 61.348 91.1322 61.84V61.84ZM54.0762 62.044C54.1242 62.332 54.2082 62.62 54.1842 62.908C53.9922 63.556 53.1162 63.844 53.1762 64.588C52.9722 66.064 54.5802 66.94 54.5922 68.356C54.1962 68.356 53.8122 68.332 53.4162 68.272C53.0922 69.028 53.0802 69.904 53.3682 70.66C53.6082 71.104 54.1362 71.272 54.4962 71.596C54.5682 71.776 54.4002 71.872 54.2682 71.932C53.7762 71.908 53.2962 71.752 52.8162 71.884C53.1882 72.736 53.7402 73.588 54.6042 73.996C56.1402 74.56 57.8082 74.536 59.4402 74.512C59.4882 73.744 59.5602 72.964 59.6682 72.184C58.3722 72.196 57.1242 71.62 56.2842 70.624C55.4082 69.784 55.4202 68.44 55.6962 67.336C56.1882 65.584 57.6282 64.384 58.5882 62.896C57.9522 62.908 57.5802 63.484 57.0282 63.664C55.8642 63.556 55.1562 62.428 54.0762 62.044V62.044ZM76.1802 63.46C75.6042 63.664 75.1962 64.324 75.4122 64.924C76.7562 65.848 78.4722 65.344 79.9482 65.08C81.0282 64.996 81.3762 63.796 82.2282 63.304C80.2242 63.208 78.1362 62.788 76.1802 63.46V63.46ZM85.2282 63.544C86.1882 64.552 87.7362 64.36 88.9722 64.06C87.7242 63.856 86.4762 63.628 85.2282 63.544ZM81.5922 74.26C81.2682 74.428 80.8842 74.884 81.2202 75.22C82.1562 76.312 83.1522 77.344 84.1002 78.436C83.5602 78.916 82.8522 79.192 82.1202 79.168C80.2962 79.144 78.7362 77.956 76.9362 77.776C77.1522 78.016 77.3682 78.256 77.5842 78.496C76.5762 79.228 75.0882 79.276 74.3922 80.416C74.9442 80.296 75.4842 80.128 76.0242 79.96C76.2042 80.524 76.2522 81.112 76.4802 81.652C76.8522 82.012 77.4282 82.084 77.9202 82.048C79.2162 81.916 80.2362 80.932 81.5202 80.788C82.6602 80.692 83.7402 81.304 84.8802 81.184C85.4082 81.136 85.8642 80.8 86.1042 80.344C86.4642 79.696 86.8482 78.904 86.5362 78.16C86.0442 77.08 84.8202 76.552 84.3162 75.472C84.0882 75.016 84.1602 74.488 84.2082 73.996C83.3442 74.044 82.3962 73.84 81.5922 74.26V74.26Z" fill="#241F20" stroke="#241F20" stroke-width="0.0313547"/>
<path d="M91.132 61.84C92.368 61.348 93.748 61.564 94.984 61.96C96.088 62.284 97.12 63.004 97.612 64.072C92.392 64.168 87.316 62.644 82.132 62.356C79.948 62.188 77.728 62.296 75.592 62.776C74.62 62.956 74.488 64.144 74.416 64.948C74.704 65.62 75.46 65.956 76.132 66.136C77.656 66.424 79.192 66.076 80.704 65.848C81.736 65.776 81.784 64.336 82.72 64.084C84.076 63.976 85.684 64.168 86.488 65.416C89.74 64.432 93.532 64.444 96.448 66.352C96.976 66.736 97.564 67.132 97.864 67.732C97.96 68.728 97.348 69.748 96.4 70.12C94.852 70.744 93.076 70.468 91.54 71.14C91.024 71.392 90.472 71.74 90.244 72.292C90.28 73.588 91.732 74.836 93.028 74.332C94 74.116 95.14 73.9 96.064 74.416C96.556 74.668 96.724 75.328 97.24 75.52C97.876 75.376 98.26 74.692 98.944 74.632C99.196 76.456 97.144 77.488 97.072 79.24C97.072 79.66 97.204 80.08 97.3 80.488C96.328 80.152 96.232 79.024 95.62 78.34C95.26 77.956 94.696 78.1 94.228 78.124C94.372 77.584 94.564 77.044 94.492 76.48C94.408 75.76 93.628 75.244 92.92 75.364C92.08 75.508 91.252 75.772 90.556 76.276C89.488 76.984 88.144 76.9 86.908 76.888C86.068 76.912 85.504 76.06 85.348 75.328C85.156 74.128 85.456 72.904 85.096 71.728C83.8 71.212 82.312 71.104 81.004 71.656C79.024 72.436 77.524 74.032 75.736 75.136C74.38 76.024 72.784 76.468 71.188 76.684C69.364 76.912 67.492 76.78 65.704 77.224C66.052 78.184 66.424 79.3 65.86 80.248C65.716 80.584 65.308 81.016 64.924 80.728C64.612 80.26 64.42 79.732 64.108 79.264C63.112 79.516 62.752 80.884 61.66 80.812C61.42 80.224 61.072 79.696 60.532 79.336C59.872 80.056 59.092 80.92 58 80.716C57.976 80.068 57.976 79.42 57.964 78.76C56.236 78.352 54.388 78.94 52.708 78.268C52.96 77.764 53.236 77.26 53.488 76.744C53.272 76.66 53.056 76.564 52.852 76.48C55.42 77.032 58.012 78.4 60.7 77.62C61.252 75.664 59.584 73.564 60.868 71.752C62.8 71.656 64.576 72.748 66.508 72.628C65.752 72.028 65.176 71.248 64.528 70.552C63.928 69.916 63.016 69.508 62.14 69.724C61.72 69.988 61.42 70.408 61.048 70.744C60.976 69.76 61.18 68.788 61.516 67.876C62.296 67.864 63.088 67.888 63.868 67.84C64.444 66.688 63.148 65.992 62.572 65.188C63.124 63.94 63.976 62.788 65.092 62.008C65.572 62.176 65.884 62.728 66.292 63.052C66.952 62.788 67.624 62.548 68.332 62.392C68.512 62.86 68.536 63.448 68.932 63.808C69.34 63.82 69.664 63.556 70.024 63.4C69.544 64.768 68.836 66.052 68.188 67.336C67.06 67.432 65.92 67.408 64.792 67.492C64.756 68.596 65.668 69.544 66.748 69.616C66.628 69.88 66.52 70.144 66.4 70.396C74.632 69.256 82.96 69.196 91.24 69.664C92.332 69.736 93.448 69.7 94.504 69.412C95.2 69.208 95.884 68.608 95.848 67.852C95.692 66.904 94.936 66.112 94 65.908C91.552 65.2 89.044 66.076 86.56 66.184C82.804 66.064 79.06 67.636 75.304 66.724C74.884 66.616 74.44 66.532 74.068 66.28C73.3 65.32 73.228 63.592 74.44 62.932C76.096 62.08 78.004 61.864 79.84 61.888C83.092 61.804 86.332 62.008 89.56 62.332C90.136 62.428 90.616 62.032 91.132 61.84V61.84Z" fill="#FFF200" stroke="#FFF200" stroke-width="0.0313547"/>
<path d="M54.0759 62.044C55.1559 62.428 55.8639 63.556 57.0279 63.664C57.5799 63.484 57.9519 62.908 58.5879 62.896C57.6279 64.384 56.1879 65.584 55.6959 67.336C55.4199 68.44 55.4079 69.784 56.2839 70.624C57.1239 71.62 58.3719 72.196 59.6679 72.184C59.5599 72.964 59.4879 73.744 59.4399 74.512C57.8079 74.536 56.1399 74.56 54.6039 73.996C53.7399 73.588 53.1879 72.736 52.8159 71.884C53.2959 71.752 53.7759 71.908 54.2679 71.932C54.3999 71.872 54.5679 71.776 54.4959 71.596C54.1359 71.272 53.6079 71.104 53.3679 70.66C53.0799 69.904 53.0919 69.028 53.4159 68.272C53.8119 68.332 54.1959 68.356 54.5919 68.356C54.5799 66.94 52.9719 66.064 53.1759 64.588C53.1159 63.844 53.9919 63.556 54.1839 62.908C54.2079 62.62 54.1239 62.332 54.0759 62.044V62.044Z" fill="#FFF200" stroke="#FFF200" stroke-width="0.0313547"/>
<path d="M81.5921 74.26C82.3961 73.84 83.3441 74.044 84.2081 73.996C84.1601 74.488 84.0881 75.016 84.3161 75.472C84.8201 76.552 86.0441 77.08 86.5361 78.16C86.8481 78.904 86.4641 79.696 86.1041 80.344C85.8641 80.8 85.4081 81.136 84.8801 81.184C83.7401 81.304 82.6601 80.692 81.5201 80.788C80.2361 80.932 79.2161 81.916 77.9201 82.048C77.4281 82.084 76.8521 82.012 76.4801 81.652C76.2521 81.112 76.2041 80.524 76.0241 79.96C75.4841 80.128 74.9441 80.296 74.3921 80.416C75.0881 79.276 76.5761 79.228 77.5841 78.496C77.3681 78.256 77.1521 78.016 76.9361 77.776C78.7361 77.956 80.2961 79.144 82.1201 79.168C82.8521 79.192 83.5601 78.916 84.1001 78.436C83.1521 77.344 82.1561 76.312 81.2201 75.22C80.8841 74.884 81.2681 74.428 81.5921 74.26V74.26Z" fill="#FFF200" stroke="#FFF200" stroke-width="0.0313547"/>
<path d="M107.428 76.588C107.944 75.988 108.424 75.352 108.976 74.8C108.388 77.032 107.428 79.168 106.216 81.136C103.216 86.032 98.932 89.92 95.176 94.216C93.304 96.376 91.312 98.44 89.416 100.588C89.56 100.72 89.692 100.864 89.836 101.008C88.708 103.324 86.572 104.956 84.4 106.24C83.404 106.792 82.432 107.38 81.376 107.812C81.772 107.212 82.276 106.684 82.744 106.144C91.036 96.34 99.208 86.44 107.428 76.588Z" fill="#FFF200" stroke="#FFF200" stroke-width="0.0313547"/>
<path d="M126.676 77.224C127.252 76.924 127.936 76.9 128.572 76.816C127.276 81.496 124.252 85.576 120.472 88.552C115.768 92.272 109.984 94.444 104.08 95.296C101.38 95.656 98.7282 94.876 96.0522 94.648C96.4122 93.556 97.2042 92.56 98.3442 92.224C100.936 91.42 103.612 92.92 106.204 92.2C110.452 91.348 114.628 89.92 118.288 87.568C121.684 85.396 124.564 82.264 125.956 78.448C126.136 78.016 126.22 77.464 126.676 77.224V77.224Z" fill="#FFF200" stroke="#FFF200" stroke-width="0.0313547"/>
<path d="M117.976 79.816C118.864 79.132 119.596 78.292 120.292 77.428C120.856 77.5 121.408 77.608 121.96 77.74C119.092 82.816 113.428 85.9 107.704 86.392C107.116 86.416 106.564 86.176 105.976 86.104C105.292 85.984 104.476 86.008 104.02 85.384C104.968 84.184 105.964 83.032 106.972 81.892C110.704 82.96 114.94 82.288 117.976 79.816Z" fill="#FFF200" stroke="#FFF200" stroke-width="0.0313547"/>
<path d="M123.04 78.028C123.628 77.512 124.444 77.44 125.2 77.56C124.36 80.836 122.14 83.62 119.452 85.612C116.308 87.964 112.636 89.464 108.988 90.844C105.856 91.708 102.52 91.564 99.3398 91.024C100.612 89.476 101.908 87.964 103.24 86.476C104.608 87.028 106.072 87.412 107.56 87.364C110.404 87.46 113.116 86.356 115.516 84.928C117.484 83.74 119.26 82.288 120.964 80.764C121.864 80.02 122.092 78.748 123.04 78.028V78.028Z" fill="#FFF200" stroke="#FFF200" stroke-width="0.0313547"/>
<path d="M95.356 95.332C97.912 95.932 100.516 96.364 103.144 96.208C100.108 99.484 95.332 100.768 91 100.108C92.404 98.464 93.892 96.916 95.356 95.332V95.332Z" fill="#FFF200" stroke="#FFF200" stroke-width="0.0313547"/>
<path d="M90.4841 101.404C90.7481 101.116 91.0961 100.888 91.4921 100.864C92.1041 100.828 92.5961 101.32 93.2081 101.272C93.8801 101.248 94.5521 101.188 95.2361 101.188C92.8601 103.576 90.5681 106.048 88.3601 108.58C87.7001 107.572 87.5921 106.324 87.7481 105.16C87.7721 104.8 88.0721 104.608 88.3121 104.392C89.2961 103.6 89.6441 102.304 90.4841 101.404V101.404Z" fill="#FFF200" stroke="#FFF200" stroke-width="0.0313547"/>
<path d="M102.376 102.628C102.808 102.184 103.48 102.388 104.02 102.376C103.468 103.948 102.316 105.352 102.316 107.08C102.352 108.592 103.18 109.936 103.504 111.388C103.072 111.508 102.64 111.604 102.196 111.676C102.196 109.612 101.272 107.692 101.2 105.64C101.14 104.524 101.56 103.396 102.376 102.628Z" fill="#FFF200" stroke="#FFF200" stroke-width="0.0313547"/>
<path d="M106.936 102.484C107.584 102.472 108.244 102.46 108.892 102.496C107.956 103.588 107.188 104.872 107.14 106.348C106.936 109.828 109 112.9 109.312 116.308C110.812 116.572 112.336 116.548 113.812 116.848C112.528 116.908 110.86 116.584 110.032 117.844C111.244 119.032 112.972 119.56 114.04 120.904C113.008 120.568 112.192 119.476 110.992 119.896C110.812 121.144 111.556 122.332 111.268 123.568C110.452 122.104 110.32 120.304 109.216 118.984C108.796 118.516 108.244 118 107.572 118.084C105.808 118.36 104.296 119.344 102.748 120.148C103.816 118.408 106.252 118.516 107.536 117.004C107.812 116.692 108.016 116.284 108.004 115.84C108.04 112.456 105.52 109.624 105.664 106.228C105.652 105.88 105.736 105.532 105.988 105.268C106.696 104.5 106.456 103.36 106.936 102.484V102.484Z" fill="#FFF200" stroke="#FFF200" stroke-width="0.0313547"/>
<path d="M86.1639 106.576C86.3199 106.324 86.4879 106.096 86.6439 105.868C86.7519 107.032 87.0639 108.172 87.6279 109.216C82.5639 115.348 76.7319 120.892 72.4479 127.648C71.8479 128.536 71.3679 129.496 70.7919 130.396C70.2639 128.476 70.8879 126.508 71.1639 124.588C71.2599 124.132 71.1999 123.544 71.6199 123.22C77.3679 118.552 82.2759 112.864 86.1639 106.576Z" fill="#FFF200" stroke="#FFF200" stroke-width="0.0313547"/>
<path d="M80.7279 109.036C82.2879 108.7 83.5719 107.716 84.8679 106.84C81.4239 112.66 76.8639 117.76 71.7399 122.14C71.2599 122.548 70.7919 123.052 70.1559 123.184C68.7879 123.496 67.3479 123.124 66.0039 123.568C71.1159 119.74 75.0999 114.676 79.3959 109.996C79.7559 109.576 80.1399 109.12 80.7279 109.036V109.036Z" fill="#FFF200" stroke="#FFF200" stroke-width="0.0313547"/>
<path d="M109.24 111.544C111.748 111.628 114.268 112.228 116.512 113.368C121.036 115.66 124.372 119.968 125.836 124.78C127.648 131.08 125.464 138.124 120.796 142.636C116.608 146.848 110.116 148.024 104.452 146.776C96.9518 145.252 90.9158 138.256 90.5678 130.612C90.2558 124.924 92.7398 119.128 97.1918 115.552C99.2918 113.872 101.776 112.708 104.38 112.06C104.896 111.94 105.412 111.748 105.952 111.796C106.816 112.552 107.056 113.776 107.104 114.88C107.08 115.468 107.14 116.188 106.672 116.632C105.34 117.856 103.396 118.108 102.124 119.404C101.512 120.028 101.296 120.904 101.32 121.756C103.072 121.252 104.464 120.004 106.132 119.332C106.792 119.08 107.584 118.648 108.244 119.128C109.156 119.752 109.324 120.928 109.648 121.912C110.092 123.232 110.416 124.576 110.908 125.872C112.204 124.552 112.54 122.536 112 120.808C113.716 121.12 114.568 122.884 116.14 123.46C116.212 122.188 115.456 121.06 114.58 120.22C113.68 119.308 112.564 118.672 111.616 117.82C113.404 117.472 115.252 117.94 117.016 117.424C116.98 117.184 117.004 116.872 116.74 116.752C116.236 116.428 115.696 116.128 115.108 116.008C113.368 115.708 111.604 115.684 109.864 115.468C109.648 114.16 109.372 112.864 109.24 111.544V111.544ZM99.3758 126.496C98.7038 127.936 98.6798 129.58 98.8838 131.128C99.0758 131.14 99.2678 131.152 99.4598 131.176C99.4358 129.472 99.6158 127.756 100.108 126.124C99.8318 126.16 99.4838 126.184 99.3758 126.496V126.496ZM97.1558 126.916C96.5798 128.116 96.4358 129.592 97.0118 130.816C97.1918 130.828 97.3718 130.84 97.5518 130.852C97.1438 129.448 97.4078 127.984 97.8638 126.628C97.6238 126.688 97.2758 126.628 97.1558 126.916V126.916ZM95.4638 127.024C95.0798 128.152 95.2238 129.388 95.5478 130.516C95.7158 130.516 95.8838 130.516 96.0518 130.516C95.8838 129.328 95.9198 128.14 96.0398 126.952C95.8478 126.976 95.6558 127 95.4638 127.024V127.024ZM94.2758 127.3C94.0238 128.176 94.0358 129.1 94.2638 129.976C94.2878 130.228 94.5758 130.228 94.7558 130.324C94.6838 129.292 94.6478 128.248 94.7558 127.204C94.5998 127.24 94.4318 127.276 94.2758 127.3V127.3ZM93.2558 127.456C92.9078 128.272 93.0758 129.148 93.2198 129.988C93.3518 130 93.4838 130.012 93.6158 130.024C93.5438 129.172 93.5318 128.32 93.6278 127.468C93.5318 127.468 93.3518 127.456 93.2558 127.456ZM91.6598 129.676C91.7318 129.7 91.8638 129.736 91.9358 129.76C91.9118 129.064 91.9358 128.356 91.8998 127.66C91.2638 128.128 91.5638 129.028 91.6598 129.676ZM92.4758 129.808C92.5478 129.82 92.6918 129.844 92.7638 129.868C92.6918 129.1 92.7638 128.344 92.7038 127.576C91.9718 128.08 92.3318 129.1 92.4758 129.808ZM90.9398 127.924C90.8678 128.512 90.7238 129.232 91.1918 129.712C91.2518 129.088 91.2278 128.464 91.2278 127.84C91.1558 127.864 91.0118 127.9 90.9398 127.924V127.924Z" fill="#FFF200" stroke="#FFF200" stroke-width="0.0313547"/>
<path d="M99.376 126.496C99.484 126.184 99.832 126.16 100.108 126.124C99.616 127.756 99.436 129.472 99.46 131.176C99.268 131.152 99.076 131.14 98.884 131.128C98.68 129.58 98.704 127.936 99.376 126.496V126.496Z" fill="#241F20" stroke="#241F20" stroke-width="0.0313547"/>
<path d="M97.1557 126.916C97.2757 126.628 97.6237 126.688 97.8637 126.628C97.4077 127.984 97.1437 129.448 97.5517 130.852C97.3717 130.84 97.1917 130.828 97.0117 130.816C96.4357 129.592 96.5797 128.116 97.1557 126.916V126.916Z" fill="#241F20" stroke="#241F20" stroke-width="0.0313547"/>
<path d="M95.4641 127.024C95.6561 127 95.8481 126.976 96.0401 126.952C95.9201 128.14 95.8841 129.328 96.0521 130.516C95.8841 130.516 95.7161 130.516 95.5481 130.516C95.2241 129.388 95.0801 128.152 95.4641 127.024V127.024Z" fill="#241F20" stroke="#241F20" stroke-width="0.0313547"/>
<path d="M94.2758 127.3C94.4318 127.276 94.5998 127.24 94.7558 127.204C94.6478 128.248 94.6838 129.292 94.7558 130.324C94.5758 130.228 94.2878 130.228 94.2638 129.976C94.0358 129.1 94.0238 128.176 94.2758 127.3V127.3Z" fill="#241F20" stroke="#241F20" stroke-width="0.0313547"/>
<path d="M93.256 127.456C93.352 127.456 93.532 127.468 93.628 127.468C93.532 128.32 93.544 129.172 93.616 130.024C93.484 130.012 93.352 130 93.22 129.988C93.076 129.148 92.908 128.272 93.256 127.456Z" fill="#241F20" stroke="#241F20" stroke-width="0.0313547"/>
<path d="M91.6603 129.676C91.5643 129.028 91.2643 128.128 91.9003 127.66C91.9363 128.356 91.9123 129.064 91.9363 129.76C91.8643 129.736 91.7323 129.7 91.6603 129.676Z" fill="#241F20" stroke="#241F20" stroke-width="0.0313547"/>
<path d="M92.4761 129.808C92.3321 129.1 91.9721 128.08 92.7041 127.576C92.7641 128.344 92.6921 129.1 92.7641 129.868C92.6921 129.844 92.5481 129.82 92.4761 129.808Z" fill="#241F20" stroke="#241F20" stroke-width="0.0313547"/>
<path d="M90.9399 127.924C91.0119 127.9 91.1559 127.864 91.2279 127.84C91.2279 128.464 91.2519 129.088 91.1919 129.712C90.7239 129.232 90.8679 128.512 90.9399 127.924V127.924Z" fill="#241F20" stroke="#241F20" stroke-width="0.0313547"/>
</svg>
