<svg width="200" height="200" viewBox="0 0 200 200" fill="none" xmlns="http://www.w3.org/2000/svg">
<path d="M98.6814 158.882C78.6119 146.335 66.7852 131.468 60.0509 117.114C49.165 93.9095 51.6622 71.997 54.1483 63.2892L54.7706 62.1108C58.4349 57.5273 67.1731 51.6491 76.4599 47.1581C84.9499 43.0521 94.0755 40 100.469 40C106.863 40 115.989 43.0519 124.479 47.1579C133.766 51.6491 142.505 57.5273 146.169 62.111L146.791 63.2894C149.278 71.9974 151.775 93.9093 140.889 117.113C134.153 131.468 122.327 146.334 102.256 158.882L100.498 160L98.6814 158.882Z" fill="#0560A7"/>
<path fill-rule="evenodd" clip-rule="evenodd" d="M100.469 156.009C49.7302 124.288 53.5637 77.6725 57.4057 64.2167C63.8097 56.2055 88.1459 43.3896 100.469 43.3896C112.794 43.3896 137.13 56.2055 143.534 64.2167C147.377 77.6725 151.208 124.288 100.469 156.009Z" fill="#FFDF1A"/>
<path fill-rule="evenodd" clip-rule="evenodd" d="M100.479 55.0853C110.242 55.0853 128.808 63.5752 133.45 69.8234C135.051 72.2252 134.41 81.8874 134.41 81.8874H100.479V55.0853Z" fill="#0560A7"/>
<path fill-rule="evenodd" clip-rule="evenodd" d="M100.479 55.0853C90.7149 55.0853 72.1483 63.5752 67.5071 69.8234C65.9053 72.2252 66.5468 81.8874 66.5468 81.8874H100.479V55.0853" fill="#0560A7"/>
<path fill-rule="evenodd" clip-rule="evenodd" d="M93.2734 137.622L95.7568 139.944C97.2586 141.011 98.8227 142.063 100.469 143.092C102.142 142.048 103.731 140.979 105.253 139.893L107.685 137.622V86.7015H93.2734V137.622" fill="white"/>
<path fill-rule="evenodd" clip-rule="evenodd" d="M114.058 86.693L131.429 105.886C132.323 103.316 133.009 100.797 133.528 98.3566L122.971 86.693H114.058" fill="#0560A7"/>
<path fill-rule="evenodd" clip-rule="evenodd" d="M129.727 86.693L134.538 92.0085C134.735 90.1577 134.841 88.3813 134.876 86.693H129.727Z" fill="#0560A7"/>
<path fill-rule="evenodd" clip-rule="evenodd" d="M112.45 127.005V133.732C113.599 132.708 114.697 131.675 115.733 130.632L112.45 127.005Z" fill="#0560A7"/>
<path fill-rule="evenodd" clip-rule="evenodd" d="M112.45 109.694V119.541L119.155 126.945C120.664 125.2 122.04 123.437 123.29 121.67L112.45 109.694Z" fill="#0560A7"/>
<path fill-rule="evenodd" clip-rule="evenodd" d="M112.45 92.3835V102.229L126.109 117.317C127.348 115.227 128.428 113.14 129.364 111.067L112.45 92.3835Z" fill="#0560A7"/>
<path fill-rule="evenodd" clip-rule="evenodd" d="M86.8986 86.693L69.5273 105.886C68.6345 103.316 67.946 100.797 67.4286 98.3566L77.9857 86.693H86.8986" fill="#0560A7"/>
<path fill-rule="evenodd" clip-rule="evenodd" d="M71.2305 86.693L66.4187 92.0085C66.2203 90.1577 66.116 88.3813 66.0818 86.693H71.2305Z" fill="#0560A7"/>
<path fill-rule="evenodd" clip-rule="evenodd" d="M88.5064 127.005V133.732C87.3584 132.708 86.2612 131.675 85.2233 130.632L88.5064 127.005Z" fill="#0560A7"/>
<path fill-rule="evenodd" clip-rule="evenodd" d="M88.5064 109.694V119.541L81.8033 126.945C80.2928 125.2 78.917 123.437 77.667 121.67L88.5064 109.694Z" fill="#0560A7"/>
<path fill-rule="evenodd" clip-rule="evenodd" d="M88.5064 92.3835V102.229L74.8498 117.317C73.609 115.227 72.5289 113.14 71.5939 111.067L88.5064 92.3835Z" fill="#0560A7"/>
<path fill-rule="evenodd" clip-rule="evenodd" d="M100.474 56.4071C93.5485 56.4071 87.912 62.0423 87.912 68.9683C87.912 75.8948 93.5485 81.5307 100.474 81.5307C107.401 81.5304 113.035 75.8948 113.035 68.9683C113.036 62.0423 107.401 56.4071 100.474 56.4071Z" fill="#0560A7"/>
<path fill-rule="evenodd" clip-rule="evenodd" d="M100.479 68.8995L100.477 68.902H100.475V68.8987L100.479 68.8995ZM109.532 65.9416C109.326 63.7132 108.338 61.7308 106.597 60.4656C104.851 59.1953 102.652 58.8745 100.461 59.3733C98.277 58.8814 96.089 59.2059 94.3467 60.4709C92.5988 61.7406 91.6135 63.7329 91.4109 65.971C90.2683 67.8954 89.9004 70.0775 90.5649 72.1248C91.2335 74.1798 92.8239 75.733 94.8887 76.6156C96.3675 78.2969 98.3279 79.3221 100.482 79.3221C102.642 79.3221 104.609 78.2898 106.088 76.5972C108.144 75.7129 109.724 74.1641 110.39 72.1164C111.056 70.0618 110.684 67.8718 109.532 65.9416Z" fill="white"/>
<path fill-rule="evenodd" clip-rule="evenodd" d="M100.474 61.3157L101.396 59.353L100.474 56.6349L99.5527 59.353L100.474 61.3157Z" fill="white"/>
<path fill-rule="evenodd" clip-rule="evenodd" d="M93.2621 66.5592L91.6799 65.0768L88.7342 65.0822L91.1119 66.828L93.2621 66.5592Z" fill="white"/>
<path fill-rule="evenodd" clip-rule="evenodd" d="M96.0192 75.0372L94.1219 76.0846L93.1751 78.9436L95.6109 77.1669L96.0192 75.0372Z" fill="white"/>
<path fill-rule="evenodd" clip-rule="evenodd" d="M104.938 75.0352L105.346 77.1638L107.756 78.9154L106.836 76.0817L104.938 75.0352Z" fill="white"/>
<path fill-rule="evenodd" clip-rule="evenodd" d="M107.689 66.5542L109.84 66.8232L112.192 65.0849L109.27 65.0712L107.689 66.5542Z" fill="white"/>
<path fill-rule="evenodd" clip-rule="evenodd" d="M100.474 60.9662C100.474 60.9662 100.903 60.8304 100.903 60.0428C100.903 59.2555 100.474 57.2887 100.474 57.2887C100.474 57.2887 100.044 59.2555 100.044 60.0428C100.044 60.8302 100.474 60.9664 100.474 60.9662Z" fill="#0560A7"/>
<path fill-rule="evenodd" clip-rule="evenodd" d="M105.147 75.317C105.147 75.317 104.88 75.6798 105.342 76.3168C105.805 76.954 107.31 78.293 107.31 78.293C107.31 78.293 106.499 76.4482 106.039 75.8114C105.575 75.1742 105.147 75.317 105.147 75.317Z" fill="#0560A7"/>
<path fill-rule="evenodd" clip-rule="evenodd" d="M108.024 66.4439C108.024 66.4439 108.286 66.8116 109.034 66.5683C109.785 66.3243 111.522 65.3075 111.522 65.3075C111.522 65.3075 109.518 65.5077 108.769 65.7498C108.021 65.9936 108.024 66.4439 108.024 66.4439Z" fill="#0560A7"/>
<path fill-rule="evenodd" clip-rule="evenodd" d="M104.643 67.542C104.643 67.542 104.807 67.9732 105.263 67.8818C105.977 67.7383 105.298 67.3346 107.622 66.5788C108.368 66.3369 109.238 66.4114 109.598 67.1951C110.003 68.0821 109.615 68.8296 109.201 69.1907C108.624 69.6957 108.133 71.3833 108.133 71.3833V71.3854C108.133 71.3854 107.54 73.0352 107.709 73.7827C107.83 74.3172 107.707 75.1508 106.855 75.6308C106.106 76.0521 105.357 75.6022 104.896 74.9671C103.459 72.9905 104.245 73.0621 103.754 72.5265C103.438 72.184 103.057 72.4437 103.057 72.4437C103.057 72.4437 102.697 72.7314 102.925 73.1364C103.281 73.7715 103.456 73.0015 104.892 74.978C105.354 75.6132 105.55 76.4654 104.918 77.0473C104.199 77.7087 103.367 77.569 102.897 77.2884C102.236 76.895 100.482 76.9507 100.482 76.9507H100.479C100.479 76.9507 98.7267 76.8952 98.0668 77.2884C97.5968 77.5682 96.7665 77.7091 96.0463 77.0473C95.4122 76.4652 95.6109 75.6132 96.073 74.978C97.5082 73.0015 97.6829 73.7715 98.0394 73.1364C98.2679 72.7314 97.9027 72.4485 97.9027 72.4485C97.9027 72.4485 97.5179 72.195 97.2036 72.5373C96.7092 73.0727 97.4956 73.0015 96.0602 74.9776C95.5977 75.613 94.85 76.0639 94.0989 75.6415C93.2486 75.1616 93.125 74.3276 93.2455 73.7935C93.4156 73.046 92.8216 71.392 92.8216 71.392L92.8202 71.3895C92.8202 71.3895 92.3306 69.7068 91.7536 69.2011C91.3397 68.8406 90.9515 68.0924 91.3591 67.2046C91.7178 66.4226 92.587 66.347 93.3336 66.5896C95.6575 67.3439 94.9805 67.7489 95.6935 67.8919C96.1496 67.9838 96.3056 67.5509 96.3056 67.5509C96.3056 67.5509 96.4286 67.1059 96.0045 66.9116C95.3427 66.6072 95.6544 67.3334 93.3305 66.5778C92.5837 66.3357 91.9237 65.7628 92.0938 64.9193C92.2869 63.9613 93.0412 63.5868 93.5869 63.5363C94.3512 63.4669 95.7405 62.3904 95.7405 62.3904L95.7423 62.3885C95.7423 62.3885 97.1922 61.4032 97.4943 60.6984C97.7098 60.1942 98.3006 59.5931 99.2706 59.705C100.126 59.8035 100.466 60.6088 100.466 61.3939C100.466 63.8367 99.8732 63.3171 99.9568 64.041C100.01 64.5027 100.472 64.517 100.472 64.517C100.472 64.517 100.933 64.4955 100.986 64.0331C101.072 63.3101 100.475 63.8305 100.477 61.3879C100.477 60.6015 100.818 59.7973 101.673 59.6982C102.644 59.5858 103.233 60.1872 103.448 60.6907C103.75 61.3956 105.205 62.3844 105.205 62.3844L105.206 62.3858C105.206 62.3858 106.593 63.4607 107.356 63.5298C107.901 63.5783 108.655 63.9545 108.848 64.9118C109.018 65.7564 108.358 66.3284 107.611 66.5714C105.289 67.3267 105.599 66.6012 104.938 66.9039C104.516 67.0981 104.643 67.542 104.643 67.542Z" fill="white"/>
<path fill-rule="evenodd" clip-rule="evenodd" d="M93.8514 68.9683C93.8514 65.3104 96.817 62.3459 100.474 62.3459C104.132 62.3459 107.096 65.3111 107.096 68.9683C107.096 72.6261 104.132 75.5908 100.474 75.5908C96.817 75.5908 93.8514 72.6263 93.8514 68.9683Z" fill="#0560A7"/>
<path fill-rule="evenodd" clip-rule="evenodd" d="M104.643 67.542C104.643 67.542 104.807 67.9732 105.263 67.8818C105.977 67.7383 105.298 67.3346 107.622 66.5788C108.368 66.3369 109.238 66.4114 109.598 67.1951C110.003 68.0821 109.615 68.8296 109.201 69.1907C108.624 69.6957 108.133 71.3833 108.133 71.3833V71.3854C108.133 71.3854 107.54 73.0352 107.709 73.7827C107.83 74.3172 107.707 75.1508 106.855 75.6308C106.106 76.0521 105.357 75.6022 104.896 74.9671C103.459 72.9905 104.245 73.0621 103.754 72.5265C103.438 72.184 103.057 72.4437 103.057 72.4437C103.057 72.4437 102.697 72.7314 102.925 73.1364C103.281 73.7715 103.456 73.0015 104.892 74.978C105.354 75.6132 105.55 76.4654 104.918 77.0473C104.199 77.7087 103.367 77.569 102.897 77.2884C102.236 76.895 100.482 76.9507 100.482 76.9507H100.479C100.479 76.9507 98.7267 76.8952 98.0668 77.2884C97.5968 77.5682 96.7665 77.7091 96.0463 77.0473C95.4122 76.4652 95.6109 75.6132 96.073 74.978C97.5082 73.0015 97.6829 73.7715 98.0394 73.1364C98.2679 72.7314 97.9027 72.4485 97.9027 72.4485C97.9027 72.4485 97.5179 72.195 97.2036 72.5373C96.7092 73.0727 97.4956 73.0015 96.0602 74.9776C95.5977 75.613 94.85 76.0639 94.0989 75.6415C93.2486 75.1616 93.125 74.3276 93.2455 73.7935C93.4156 73.046 92.8216 71.392 92.8216 71.392L92.8202 71.3895C92.8202 71.3895 92.3306 69.7068 91.7536 69.2011C91.3397 68.8406 90.9515 68.0924 91.3591 67.2046C91.7178 66.4226 92.587 66.347 93.3336 66.5896C95.6575 67.3439 94.9805 67.7489 95.6935 67.8919C96.1496 67.9838 96.3056 67.5509 96.3056 67.5509C96.3056 67.5509 96.4286 67.1059 96.0045 66.9116C95.3427 66.6072 95.6544 67.3334 93.3305 66.5778C92.5837 66.3357 91.9237 65.7628 92.0938 64.9193C92.2869 63.9613 93.0412 63.5868 93.5869 63.5363C94.3512 63.4669 95.7405 62.3904 95.7405 62.3904L95.7423 62.3885C95.7423 62.3885 97.1922 61.4032 97.4943 60.6984C97.7098 60.1942 98.3006 59.5931 99.2706 59.705C100.126 59.8035 100.466 60.6088 100.466 61.3939C100.466 63.8367 99.8732 63.3171 99.9568 64.041C100.01 64.5027 100.472 64.517 100.472 64.517C100.472 64.517 100.933 64.4955 100.986 64.0331C101.072 63.3101 100.475 63.8305 100.477 61.3879C100.477 60.6015 100.818 59.7973 101.673 59.6982C102.644 59.5858 103.233 60.1872 103.448 60.6907C103.75 61.3956 105.205 62.3844 105.205 62.3844L105.206 62.3858C105.206 62.3858 106.593 63.4607 107.356 63.5298C107.901 63.5783 108.655 63.9545 108.848 64.9118C109.018 65.7564 108.358 66.3284 107.611 66.5714C105.289 67.3267 105.599 66.6012 104.938 66.9039C104.516 67.0981 104.643 67.542 104.643 67.542Z" fill="white"/>
<path d="M104.643 67.542C104.643 67.542 104.807 67.9732 105.263 67.8818C105.977 67.7383 105.298 67.3346 107.622 66.5788C108.368 66.3369 109.238 66.4114 109.598 67.1951C110.003 68.0821 109.615 68.8296 109.201 69.1907C108.624 69.6957 108.133 71.3833 108.133 71.3833V71.3854C108.133 71.3854 107.54 73.0352 107.709 73.7827C107.83 74.3172 107.707 75.1508 106.855 75.6308C106.106 76.0521 105.357 75.6022 104.896 74.9671C103.459 72.9905 104.245 73.0621 103.754 72.5265C103.438 72.184 103.057 72.4437 103.057 72.4437C103.057 72.4437 102.697 72.7314 102.925 73.1364C103.281 73.7715 103.456 73.0015 104.892 74.978C105.354 75.6132 105.55 76.4654 104.918 77.0473C104.199 77.7087 103.367 77.569 102.897 77.2884C102.236 76.895 100.482 76.9507 100.482 76.9507H100.479C100.479 76.9507 98.7267 76.8952 98.0668 77.2884C97.5968 77.5682 96.7665 77.7091 96.0463 77.0473C95.4122 76.4652 95.6109 75.6132 96.073 74.978C97.5082 73.0015 97.6829 73.7715 98.0394 73.1364C98.2679 72.7314 97.9027 72.4485 97.9027 72.4485C97.9027 72.4485 97.5179 72.195 97.2036 72.5373C96.7092 73.0727 97.4956 73.0015 96.0602 74.9776C95.5977 75.613 94.85 76.0639 94.0989 75.6415C93.2486 75.1616 93.125 74.3276 93.2455 73.7935C93.4156 73.046 92.8216 71.392 92.8216 71.392L92.8202 71.3895C92.8202 71.3895 92.3306 69.7068 91.7536 69.2011C91.3397 68.8406 90.9515 68.0924 91.3591 67.2046C91.7178 66.4226 92.587 66.347 93.3336 66.5896C95.6575 67.3439 94.9805 67.7489 95.6935 67.8919C96.1496 67.9838 96.3056 67.5509 96.3056 67.5509C96.3056 67.5509 96.4286 67.1059 96.0045 66.9116C95.3427 66.6072 95.6544 67.3334 93.3305 66.5778C92.5837 66.3357 91.9237 65.7628 92.0938 64.9193C92.2869 63.9613 93.0412 63.5868 93.5869 63.5363C94.3512 63.4669 95.7405 62.3904 95.7405 62.3904L95.7423 62.3885C95.7423 62.3885 97.1922 61.4032 97.4943 60.6984C97.7098 60.1942 98.3006 59.5931 99.2706 59.705C100.126 59.8035 100.466 60.6088 100.466 61.3939C100.466 63.8367 99.8732 63.3171 99.9568 64.041C100.01 64.5027 100.472 64.517 100.472 64.517C100.472 64.517 100.933 64.4955 100.986 64.0331C101.072 63.3101 100.477 63.8305 100.477 61.3879C100.477 60.6015 100.818 59.7973 101.673 59.6982C102.644 59.5858 103.233 60.1872 103.448 60.6907C103.75 61.3956 105.205 62.3844 105.205 62.3844L105.206 62.3858C105.206 62.3858 106.593 63.4607 107.356 63.5298C107.901 63.5783 108.655 63.9545 108.848 64.9118C109.018 65.7564 108.358 66.3284 107.611 66.5714C105.289 67.3267 105.599 66.6012 104.938 66.9039C104.516 67.0981 104.643 67.542 104.643 67.542Z" stroke="#0560A7" stroke-width="1.166"/>
<path fill-rule="evenodd" clip-rule="evenodd" d="M100.479 67.4768L101.829 68.4033L101.311 70.1638H99.5028L99.0725 68.4033L100.479 67.4768Z" fill="#FFDF1A"/>
<path d="M100.479 67.4768L101.829 68.4033L101.311 70.1638H99.5028L99.0725 68.4033L100.479 67.4768Z" stroke="#0560A7" stroke-width="0.491"/>
<path d="M97.7325 67.806L99.0725 68.4033" stroke="#0560A7" stroke-width="0.491"/>
<path d="M100.479 65.9098V67.4768" stroke="#0560A7" stroke-width="0.491"/>
<path d="M103.222 68.1121L101.802 68.5159" stroke="#0560A7" stroke-width="0.491"/>
<path d="M99.4804 70.1468L98.6733 71.2782" stroke="#0560A7" stroke-width="0.491"/>
<path d="M101.199 70.1638L102.157 71.2782" stroke="#0560A7" stroke-width="0.491"/>
<path fill-rule="evenodd" clip-rule="evenodd" d="M99.3258 65.6089L100.479 65.9259L101.673 65.5931L101.705 65.1563C101.705 65.1563 100.878 64.8812 100.441 64.8941C100.149 64.9017 99.3029 65.0884 99.3029 65.0884L99.3258 65.6089Z" fill="#FFDF1A"/>
<path d="M99.3258 65.6089L100.479 65.9259L101.673 65.5931L101.705 65.1563C101.705 65.1563 100.878 64.8812 100.441 64.8941C100.149 64.9017 99.3029 65.0884 99.3029 65.0884L99.3258 65.6089Z" stroke="#0560A7" stroke-width="0.491"/>
<path fill-rule="evenodd" clip-rule="evenodd" d="M103.281 66.9122L103.248 68.1355L103.907 69.1872L104.427 69.0618C104.427 69.0618 104.457 68.1078 104.344 67.8379C104.229 67.568 103.809 66.7233 103.809 66.7233L103.281 66.9122Z" fill="#FFDF1A"/>
<path d="M103.281 66.9122L103.248 68.1355L103.907 69.1872L104.427 69.0618C104.427 69.0618 104.457 68.1078 104.344 67.8379C104.229 67.568 103.809 66.7233 103.809 66.7233L103.281 66.9122Z" stroke="#0560A7" stroke-width="0.491"/>
<path fill-rule="evenodd" clip-rule="evenodd" d="M103.333 70.8567L102.202 71.3211L101.495 72.2714L101.767 72.7039C101.767 72.7039 102.713 72.3274 102.914 72.1143C103.128 71.8848 103.736 71.2658 103.736 71.2658L103.333 70.8567Z" fill="#FFDF1A"/>
<path d="M103.333 70.8567L102.202 71.3211L101.495 72.2714L101.767 72.7039C101.767 72.7039 102.713 72.3274 102.914 72.1143C103.128 71.8848 103.736 71.2658 103.736 71.2658L103.333 70.8567Z" stroke="#0560A7" stroke-width="0.491"/>
<path fill-rule="evenodd" clip-rule="evenodd" d="M99.4111 72.2459L98.6226 71.3252L97.5697 70.8055L97.1833 71.2296C97.1833 71.2296 97.8348 72.0356 98.0964 72.1708C98.3544 72.3057 99.145 72.671 99.145 72.671L99.4111 72.2459Z" fill="#FFDF1A"/>
<path d="M99.4111 72.2459L98.6226 71.3252L97.5697 70.8055L97.1833 71.2296C97.1833 71.2296 97.8348 72.0356 98.0964 72.1708C98.3544 72.3057 99.145 72.671 99.145 72.671L99.4111 72.2459Z" stroke="#0560A7" stroke-width="0.491"/>
<path fill-rule="evenodd" clip-rule="evenodd" d="M96.9584 68.7545L97.7325 67.806L97.8499 66.5708L97.4534 66.3843C97.4534 66.3843 96.8733 67.1473 96.782 67.4259C96.6738 67.7651 96.4855 68.5906 96.4855 68.5906L96.9584 68.7545Z" fill="#FFDF1A"/>
<path d="M96.9584 68.7545L97.7325 67.806L97.8499 66.5708L97.4534 66.3843C97.4534 66.3843 96.8733 67.1473 96.782 67.4259C96.6738 67.7651 96.4855 68.5906 96.4855 68.5906L96.9584 68.7545Z" stroke="#0560A7" stroke-width="0.491"/>
<path d="M96.5022 68.9037C96.5022 66.7086 98.282 64.929 100.479 64.929C102.673 64.929 104.451 66.7086 104.451 68.9037C104.451 71.099 102.673 72.8785 100.479 72.8785C98.2818 72.8785 96.5022 71.099 96.5022 68.9037Z" stroke="#0560A7" stroke-width="0.935"/>
<path fill-rule="evenodd" clip-rule="evenodd" d="M94.9133 61.1986L96.9799 60.1713L95.3922 61.8571L93.3012 62.8496L94.9133 61.1986Z" fill="#0560A7"/>
<path fill-rule="evenodd" clip-rule="evenodd" d="M100.427 78.3565L98.1514 77.973L100.427 77.5419L102.701 77.9687L100.427 78.3565Z" fill="#0560A7"/>
<path fill-rule="evenodd" clip-rule="evenodd" d="M109.46 71.8384L108.391 73.8843L108.684 71.5872L109.793 69.5552L109.46 71.8384Z" fill="#0560A7"/>
<path fill-rule="evenodd" clip-rule="evenodd" d="M106.051 61.2344L107.666 62.8825L105.575 61.8937L103.983 60.2106L106.051 61.2344Z" fill="#0560A7"/>
<path fill-rule="evenodd" clip-rule="evenodd" d="M91.4365 71.7805L91.0988 69.4976L92.212 71.5278L92.5087 73.8241L91.4365 71.7805Z" fill="#0560A7"/>
<path fill-rule="evenodd" clip-rule="evenodd" d="M92.9305 66.4549C92.9305 66.4549 92.9349 66.0031 92.1849 65.7601C91.4363 65.5168 89.4316 65.3185 89.4316 65.3185C89.4316 65.3185 91.1708 66.335 91.9191 66.5778C92.6698 66.8216 92.9305 66.4549 92.9305 66.4549Z" fill="#0560A7"/>
<path fill-rule="evenodd" clip-rule="evenodd" d="M95.8203 75.3234C95.8203 75.3234 95.3924 75.18 94.9288 75.8185C94.4669 76.4555 93.6569 78.3 93.6569 78.3C93.6569 78.3 95.1616 76.9604 95.6252 76.3232C96.0869 75.686 95.8203 75.3237 95.8203 75.3234Z" fill="#0560A7"/>
<path fill-rule="evenodd" clip-rule="evenodd" d="M106.33 97.2136C106.33 97.0791 106.145 97.1464 106.079 97.2136C106.009 97.2803 104.683 98.5408 103.774 98.5745C102.868 98.6085 101.505 98.5745 99.8089 97.7008C100.362 96.7759 101.505 94.7425 102.026 92.7922C103.657 92.5066 104.951 91.6478 105.455 90.9944C106.026 90.2544 106.246 89.2459 105.808 88.8092C104.952 87.9519 102.733 88.0526 101.472 90.4729C101.208 90.9803 100.963 91.5217 100.733 92.0726C100.201 92.008 99.6421 91.738 99.5378 91.65C99.4219 91.5484 99.337 91.4979 99.3542 91.6329C99.3718 91.7678 99.337 91.9186 99.337 91.9186C99.337 91.9186 99.2534 92.1039 99.3871 92.1535C99.765 92.3681 100.163 92.4857 100.548 92.5337C99.7743 94.472 99.1816 96.4512 98.6148 97.4489C98.0268 97.196 97.1185 97.1294 96.447 97.331C95.7744 97.5325 94.5472 98.1203 94.666 99.1796C94.7827 100.239 96.7315 100.171 96.8996 100.155C97.068 100.139 98.2785 99.9698 99.1528 98.6751C100.464 99.549 101.557 100.037 102.532 100.019C103.507 100.004 105.27 99.7339 106.313 97.7507C106.364 97.6505 106.33 97.3479 106.33 97.2136Z" fill="#0560A7"/>
<path fill-rule="evenodd" clip-rule="evenodd" d="M98.2443 98.0365C97.5403 97.533 96.4979 97.4653 95.9607 98.2217C95.422 98.9783 96.2614 99.1966 96.4474 99.1966C96.6316 99.1966 97.4726 99.3649 98.2443 98.0365Z" fill="white"/>
<path fill-rule="evenodd" clip-rule="evenodd" d="M104.044 111.067C104.178 111.025 104.296 111.059 104.328 111.142C104.364 111.226 104.712 111.988 104.325 112.738C104.002 113.367 103.267 113.729 102.315 113.602C101.61 113.508 100.607 112.697 100.59 111.756C100.271 112.227 99.1938 113.704 97.0633 113.413C94.6941 113.084 95.9114 110.265 96.2336 109.774C97.1862 108.318 98.98 105.137 99.1694 104.744C99.3587 104.352 99.7281 103.399 99.1466 103.153C98.5636 102.907 97.7174 103.356 97.2632 104.105C97.1249 104.335 97.0962 104.207 97.0182 104.151C96.9391 104.095 96.8952 104.004 96.8491 103.926C96.8054 103.847 96.9782 103.68 97.0347 103.601C97.0906 103.524 98.0883 102.269 99.6226 102.644C100.827 102.937 100.975 103.612 100.917 104.206C100.86 104.799 97.8577 109.675 97.4548 110.738C97.0525 111.804 97.2973 112.432 97.8687 112.476C98.4401 112.52 99.8401 112.351 100.759 110.346C101.679 108.34 103.135 105.26 103.45 104.621C103.763 103.982 104.233 103.097 104.322 102.963C104.414 102.828 104.402 102.772 104.672 102.806C104.939 102.84 105.6 102.93 105.734 102.93C105.869 102.93 105.785 103.203 105.684 103.337C105.584 103.473 102.507 109.573 102.105 110.829C101.701 112.085 102.455 112.388 102.608 112.432C102.868 112.504 103.683 112.556 103.809 111.927C103.874 111.601 103.763 111.338 103.739 111.271C103.715 111.203 103.783 111.175 103.783 111.175C103.783 111.175 103.909 111.109 104.044 111.067Z" fill="#0560A7"/>
<path fill-rule="evenodd" clip-rule="evenodd" d="M106.444 115.676C106.394 115.573 106.261 115.564 106.178 115.71C106.097 115.857 105.87 116.215 105.422 116.303C104.055 116.576 102.985 116.442 101.462 116.351C99.9363 116.262 97.943 116.385 97.3714 117.108C96.7994 117.83 97.0368 118.347 97.1535 118.553C97.3203 118.855 97.674 119.126 98.1609 119.259C98.6487 119.394 99.0173 119.276 99.1861 119.159C99.3544 119.042 99.0682 118.906 98.9676 118.839C98.8668 118.773 98.2143 118.621 98.1992 118.318C98.1916 118.184 98.2652 117.797 98.6688 117.613C99.0713 117.428 100.028 117.328 100.834 117.428C100.799 118.218 100.329 120.302 99.9771 121.059C99.455 121.059 97.795 121.15 97.4223 122.134C97.2363 122.621 97.3892 123.041 97.5554 123.175C97.7238 123.309 97.8418 123.294 97.8418 123.125C97.8418 122.958 97.858 122.623 98.0268 122.437C98.1942 122.254 98.8501 121.966 99.741 122.134C99.4548 123.142 98.5976 125.68 97.6905 126.15C96.7835 126.621 96.2048 126.268 96.1293 126.165C95.9617 125.938 95.9095 125.729 95.9095 125.611C95.9095 125.492 95.5904 125.124 95.4878 125.646C95.3876 126.167 95.8733 126.953 96.6432 127.145C98.0132 127.488 98.8006 126.689 99.0539 126.486C99.306 126.285 100.646 124.937 101.352 122.295C101.925 122.363 102.748 122.345 103.067 122.212C103.815 121.892 104.087 121.407 104.138 121.104C104.187 120.802 104.164 120.553 104.096 120.403C104.029 120.251 103.794 120.033 103.76 120.217C103.725 120.403 103.76 120.722 103.44 120.957C103.345 121.027 102.852 121.412 101.641 121.209C101.876 120.469 102.449 117.512 102.449 117.512C103.087 117.562 104.497 117.461 104.918 117.343C105.339 117.226 106.097 116.882 106.345 116.385C106.531 116.017 106.496 115.779 106.444 115.676Z" fill="#0560A7"/>
<path fill-rule="evenodd" clip-rule="evenodd" d="M102.314 92.0198C102.498 91.4481 102.902 90.0365 103.152 89.7335C103.406 89.4315 104.11 88.8931 104.683 89.4315C105.253 89.9688 104.554 90.9301 104.396 91.0613C103.507 91.8183 102.314 92.0198 102.314 92.0198Z" fill="white"/>
<path fill-rule="evenodd" clip-rule="evenodd" d="M104.681 129.933C105.289 128.968 104.654 127.75 104.06 127.538C103.83 127.454 102.434 127.002 100.54 128.208C98.6905 129.385 96.6421 131.351 96.1957 134.441C95.7496 137.532 97.8952 138.631 98.1365 138.698C98.3764 138.767 100.448 139.566 101.88 137.754C102.721 136.69 102.721 136.398 102.79 136.226C102.859 136.055 102.549 135.849 102.412 136.055C102.274 136.26 101.485 137.429 100.901 137.739C100.317 138.046 99.098 138.201 98.5829 137.463C98.0301 136.669 97.9302 135.524 98.2048 134.389C98.48 133.255 99.3558 130.611 101.004 129.202C102.653 127.796 103.683 127.881 104.026 128.121C104.37 128.363 104.568 129.214 104.296 129.729C104.193 129.923 104.531 130.173 104.681 129.933Z" fill="#0560A7"/>
</svg>
