<svg width="200" height="200" viewBox="0 0 200 200" fill="none" xmlns="http://www.w3.org/2000/svg">
<rect width="200" height="200" fill="white"/>
<path d="M159.265 100.266C159.265 133.031 132.697 159.596 99.9343 159.596C67.1669 159.596 40.604 133.031 40.604 100.266C40.604 67.4983 67.1669 40.9332 99.9343 40.9332C132.697 40.9332 159.265 67.4983 159.265 100.266Z" fill="white"/>
<path d="M88.7022 144.456L87.2312 144.099L85.5046 151.324L85.5449 151.335L90.2202 152.452L90.5364 151.127L87.2962 150.355L88.7022 144.456ZM116.543 142.756L118.03 146.898L113.864 143.711L112.601 144.166L115.095 151.156L116.525 150.645L115.041 146.489L119.203 149.689L119.227 149.678L120.472 149.232L117.974 142.245L116.543 142.756ZM76.8222 148.091L78.2842 148.689L79.1879 147.651L81.5468 148.62L81.4571 149.985L81.4863 149.999L82.9259 150.588L83.2264 142.684L82.1411 142.242L76.8222 148.091ZM81.6612 147.277L80.0736 146.626L81.8294 144.64L81.6612 147.277ZM110.875 146.534C110.718 146.137 110.451 145.803 110.061 145.543C109.749 145.319 109.415 145.173 109.069 145.095C108.888 145.052 108.706 145.034 108.509 145.034C108.325 145.034 108.137 145.052 107.939 145.088C107.533 145.158 107.184 145.29 106.879 145.483C106.578 145.676 106.311 145.927 106.096 146.241C105.834 146.615 105.699 147.019 105.69 147.451V147.53C105.69 147.949 105.753 148.537 105.89 149.283C106.027 150.079 106.175 150.671 106.329 151.068C106.482 151.465 106.751 151.802 107.123 152.068C107.435 152.288 107.773 152.436 108.123 152.517C108.303 152.553 108.489 152.573 108.681 152.573C108.865 152.573 109.058 152.555 109.251 152.521C109.659 152.447 110.009 152.317 110.312 152.127C110.608 151.936 110.872 151.678 111.088 151.369C111.359 150.981 111.505 150.568 111.511 150.145C111.509 150.124 111.511 150.109 111.511 150.084C111.511 149.671 111.437 149.082 111.307 148.324C111.166 147.523 111.023 146.929 110.875 146.534ZM109.996 150.01C109.996 150.151 109.982 150.268 109.951 150.369C109.926 150.467 109.888 150.564 109.827 150.651C109.655 150.941 109.386 151.113 109.018 151.183C108.93 151.194 108.85 151.203 108.769 151.203C108.675 151.203 108.585 151.194 108.495 151.174C108.329 151.136 108.186 151.068 108.072 150.967C107.982 150.902 107.915 150.828 107.861 150.748C107.802 150.669 107.749 150.555 107.697 150.418C107.648 150.277 107.594 150.102 107.547 149.889C107.5 149.676 107.441 149.387 107.381 149.021C107.318 148.653 107.267 148.362 107.237 148.14C107.211 147.929 107.199 147.761 107.199 147.622V147.593C107.204 147.449 107.217 147.324 107.242 147.225C107.269 147.131 107.307 147.037 107.361 146.96C107.439 146.819 107.549 146.707 107.69 146.613C107.832 146.519 107.991 146.46 108.177 146.422C108.267 146.411 108.35 146.4 108.433 146.4C108.69 146.404 108.919 146.483 109.117 146.642C109.204 146.707 109.278 146.785 109.341 146.871C109.397 146.954 109.451 147.059 109.498 147.189C109.554 147.321 109.605 147.496 109.655 147.718C109.702 147.938 109.758 148.23 109.821 148.586C109.883 148.94 109.93 149.23 109.96 149.461C109.989 149.667 110 149.84 110 149.976V150.01H109.996ZM101.416 145.83L101.771 153.246L101.813 153.243L103.284 153.169L102.928 145.758L101.416 145.83ZM96.6961 145.738L93.7205 145.496L93.1286 152.9L96.2365 153.145C96.3306 153.154 96.4203 153.156 96.5078 153.156H96.5123C97.0684 153.156 97.5482 153.008 97.9339 152.71C98.3846 152.367 98.6358 151.851 98.6873 151.18C98.6941 151.102 98.6963 151.037 98.6963 150.967C98.6963 150.618 98.6223 150.322 98.4654 150.073C98.3039 149.815 98.0976 149.609 97.8577 149.456C98.0752 149.357 98.2748 149.194 98.4654 148.965C98.6851 148.707 98.8062 148.391 98.8331 148.014C98.8376 147.936 98.8398 147.862 98.8398 147.786C98.8398 147.252 98.6806 146.797 98.3488 146.433C97.972 146.025 97.4204 145.792 96.6961 145.738ZM97.185 150.99C97.1626 151.243 97.0684 151.438 96.9002 151.591C96.7544 151.716 96.5638 151.784 96.3127 151.784C96.2768 151.784 96.2409 151.784 96.1983 151.781L94.7453 151.663L94.8843 149.947L96.3374 150.062C96.6401 150.084 96.8553 150.183 96.9989 150.353C97.1267 150.506 97.1895 150.685 97.1895 150.902C97.1895 150.927 97.1872 150.961 97.185 150.99ZM97.3218 147.956C97.3038 148.198 97.2119 148.384 97.0437 148.521C96.898 148.633 96.7141 148.694 96.4742 148.694C96.4338 148.694 96.3957 148.691 96.3553 148.689L94.9964 148.579L95.122 146.974L96.4831 147.079C96.7746 147.106 96.9899 147.196 97.1356 147.353C97.2635 147.494 97.3262 147.66 97.3262 147.871C97.3262 147.898 97.3262 147.927 97.3218 147.956ZM99.9341 41.6866C67.5815 41.6866 41.355 67.9131 41.355 100.263C41.355 132.614 67.5815 158.845 99.9341 158.845C132.284 158.845 158.511 132.614 158.511 100.263C158.511 67.9109 132.282 41.6866 99.9341 41.6866ZM99.9341 156.589C68.8237 156.589 43.6085 131.372 43.6085 100.261C43.6085 69.1554 68.8237 43.9357 99.9341 43.9357C131.044 43.9357 156.26 69.1554 156.26 100.261C156.26 131.372 131.044 156.589 99.9341 156.589ZM112.525 56.5825C112.846 56.6924 113.133 56.7484 113.384 56.7552C113.462 56.7574 113.532 56.7552 113.606 56.7484C113.899 56.717 114.198 56.6431 114.5 56.5377L114.512 56.5309L114.808 57.2619L116.521 57.8337L115.729 55.9345C116.039 55.7484 116.303 55.5039 116.534 55.2057C116.765 54.894 116.965 54.5128 117.142 54.0576L117.158 54.0195L115.893 53.6024L115.877 53.6383C115.7 54.1204 115.465 54.4635 115.187 54.6698L114.505 53.0172C114.588 52.9947 114.687 52.9656 114.792 52.9297C114.913 52.8916 115.007 52.8602 115.077 52.8378C115.361 52.7458 115.597 52.6225 115.785 52.47C115.978 52.3198 116.113 52.1135 116.2 51.8579C116.258 51.6762 116.292 51.4924 116.294 51.3197C116.299 51.0394 116.238 50.7703 116.092 50.5125C115.866 50.0931 115.474 49.7972 114.931 49.6178C114.66 49.5303 114.406 49.481 114.162 49.4787C113.895 49.4698 113.639 49.5146 113.404 49.6178C112.973 49.8061 112.668 50.1447 112.514 50.6268C112.458 50.795 112.431 50.9632 112.424 51.1269C112.422 51.2457 112.431 51.3623 112.458 51.4789C112.509 51.7323 112.599 52.0014 112.715 52.2817C112.283 52.3983 111.906 52.5665 111.585 52.7772C111.253 52.9992 111.023 53.3154 110.883 53.7168C110.796 53.9926 110.747 54.2505 110.742 54.4949C110.735 54.8469 110.809 55.1676 110.971 55.4658C111.244 55.9636 111.765 56.3381 112.525 56.5825ZM113.857 51.1C113.906 50.943 113.994 50.8331 114.121 50.7703C114.186 50.7322 114.263 50.7165 114.35 50.7188C114.415 50.7188 114.487 50.7322 114.561 50.7569C114.727 50.8129 114.839 50.9004 114.902 51.0327C114.942 51.1112 114.96 51.1919 114.958 51.2749C114.958 51.3309 114.947 51.3915 114.926 51.4498C114.891 51.5529 114.83 51.6314 114.731 51.7009C114.635 51.7704 114.512 51.8265 114.368 51.8646C114.323 51.8848 114.272 51.9005 114.198 51.9184C114.144 51.9364 114.097 51.9453 114.052 51.9543C113.955 51.7323 113.893 51.5619 113.857 51.4386C113.837 51.3668 113.83 51.3018 113.83 51.2435C113.832 51.1919 113.841 51.1426 113.857 51.1ZM112.193 54.1249C112.265 53.9096 112.379 53.7437 112.536 53.6338C112.689 53.5239 112.904 53.4275 113.177 53.3468L114.003 55.329C113.81 55.4098 113.633 55.4479 113.464 55.4591H113.361C113.218 55.4546 113.065 55.4277 112.906 55.3761C112.617 55.2819 112.404 55.1183 112.269 54.8828C112.182 54.7326 112.139 54.5778 112.146 54.4119C112.148 54.32 112.164 54.2236 112.193 54.1249ZM99.9565 50.443L102.78 54.7527H104.109V47.501H102.609V51.7973L99.7861 47.501H98.4564V54.7527H99.9565V50.443ZM136.709 73.3037L139.368 77.3467L140.48 76.6179L138.624 73.7948L140.012 72.8821L141.59 75.2859L142.7 74.5572L141.122 72.1534L142.46 71.2744L144.315 74.0952L145.425 73.3642L142.747 69.2877L136.688 73.2678L136.709 73.3037ZM128.757 62.5808C128.582 62.8925 128.495 63.2423 128.495 63.619C128.495 63.6773 128.497 63.7423 128.506 63.8096C128.535 64.1841 128.632 64.5316 128.798 64.8456C128.959 65.1595 129.199 65.451 129.508 65.7111C129.82 65.9802 130.134 66.1663 130.475 66.2784C130.739 66.3636 131.022 66.4107 131.318 66.4107C131.394 66.4107 131.464 66.4085 131.54 66.4018C132.004 66.3704 132.403 66.2246 132.726 65.969C133.049 65.7089 133.464 65.2851 133.975 64.6864C134.493 64.0832 134.852 63.5988 135.054 63.2445C135.217 62.944 135.305 62.6122 135.305 62.2489C135.305 62.1727 135.298 62.092 135.289 62.0112C135.258 61.6368 135.159 61.2892 134.998 60.9775C134.841 60.6613 134.601 60.3721 134.296 60.1097C133.982 59.8451 133.664 59.6568 133.327 59.5446C133.054 59.4505 132.769 59.4079 132.466 59.4079C132.394 59.4079 132.327 59.4101 132.253 59.4191C131.807 59.446 131.417 59.5962 131.085 59.8541C130.757 60.112 130.338 60.5425 129.825 61.1412C129.316 61.7399 128.959 62.2198 128.757 62.5808ZM129.934 63.7984C129.934 63.7109 129.943 63.6257 129.968 63.5495C129.995 63.4575 130.04 63.3499 130.114 63.2199C130.183 63.0988 130.287 62.9508 130.417 62.7826C130.553 62.6099 130.735 62.3902 130.968 62.1144C131.204 61.8408 131.396 61.6188 131.542 61.4641C131.692 61.3049 131.82 61.1838 131.937 61.0964C132.045 61.0067 132.143 60.9416 132.237 60.9013C132.332 60.8609 132.421 60.834 132.518 60.8228C132.563 60.8138 132.614 60.8093 132.661 60.8093C132.764 60.8093 132.872 60.8273 132.984 60.8609C133.141 60.9147 133.291 60.9999 133.433 61.1188C133.715 61.3632 133.859 61.6457 133.863 61.9709V62.0202C133.863 62.1099 133.852 62.1951 133.829 62.2781C133.803 62.3723 133.758 62.4821 133.688 62.6032C133.623 62.7243 133.52 62.8701 133.385 63.0427C133.249 63.2176 133.067 63.4419 132.836 63.7132C132.61 63.9733 132.419 64.193 132.267 64.3522C132.112 64.5182 131.984 64.6415 131.876 64.7267C131.766 64.8119 131.663 64.8725 131.574 64.9173C131.484 64.9577 131.388 64.9823 131.28 64.998C131.228 65.0048 131.17 65.007 131.121 65.007C130.858 65.007 130.607 64.9106 130.369 64.7065C130.226 64.5832 130.121 64.4487 130.042 64.3007C129.973 64.1482 129.934 64.0002 129.934 63.85V63.7984V63.7984ZM124.409 58.336L126.439 59.5895L124.869 62.1435L124.9 62.166L126.143 62.9306L129.941 56.7574L128.668 55.9726L127.129 58.4661L125.095 57.2148L126.638 54.7191L125.36 53.9321L121.559 60.103L122.837 60.8945L124.409 58.336ZM134.473 70.5748L134.502 70.5613L141.525 67.6104L140.494 66.4354L136.108 68.3907L138.594 64.285L137.565 63.1167L133.735 69.7316L134.473 70.5748ZM91.171 53.5912C91.3055 53.9881 91.55 54.3245 91.9065 54.607C92.2025 54.838 92.5254 54.9949 92.8707 55.0891C93.0927 55.1496 93.3237 55.1788 93.5748 55.1788C93.7071 55.1788 93.8461 55.1676 93.9874 55.1541C94.3977 55.1026 94.7475 54.9927 95.0592 54.82C95.3664 54.6474 95.6355 54.4119 95.8687 54.1159C96.1535 53.7527 96.3149 53.3603 96.3463 52.9454C96.3508 52.8512 96.3575 52.7526 96.3575 52.6405C96.3575 52.2593 96.3149 51.7659 96.2454 51.1583C96.1445 50.3712 96.0302 49.7859 95.9068 49.3913C95.7745 48.9944 95.5256 48.6603 95.1557 48.38C94.8574 48.149 94.5345 47.9898 94.1982 47.8956C93.9739 47.8373 93.7407 47.806 93.4963 47.806C93.3595 47.806 93.2205 47.8172 93.0792 47.8351C92.6689 47.8844 92.3168 47.9943 92.0052 48.1692C91.6979 48.3419 91.4244 48.5751 91.1912 48.8733C90.9131 49.2209 90.7606 49.611 90.727 50.0304C90.7158 50.1335 90.7136 50.2456 90.7136 50.369C90.7136 50.7502 90.7517 51.2345 90.8279 51.831C90.9221 52.6113 91.0387 53.1943 91.171 53.5912ZM92.2114 50.2456C92.2227 50.1021 92.2406 49.9855 92.272 49.8913C92.3034 49.7972 92.3482 49.7097 92.4043 49.6312C92.485 49.5057 92.6039 49.398 92.7474 49.3173C92.8909 49.2321 93.0591 49.1783 93.2452 49.1558C93.3035 49.1514 93.3663 49.1446 93.429 49.1446C93.7161 49.1446 93.956 49.2321 94.16 49.4115C94.243 49.4832 94.3103 49.5595 94.3619 49.6447C94.4179 49.7299 94.4673 49.8353 94.5099 49.9676C94.5502 50.0976 94.5928 50.2703 94.6265 50.4878C94.6668 50.7076 94.7094 50.9923 94.7543 51.3444C94.7969 51.6919 94.8238 51.9767 94.8417 52.201C94.8552 52.34 94.8597 52.4678 94.8597 52.5754C94.8597 52.636 94.8597 52.692 94.8552 52.7414C94.844 52.8804 94.8238 52.9925 94.7946 53.0912C94.7632 53.1853 94.7161 53.275 94.6534 53.3603C94.4672 53.6316 94.1959 53.7908 93.8259 53.8356C93.7654 53.8424 93.7004 53.8468 93.6466 53.8468C93.5255 53.8468 93.4133 53.8311 93.3057 53.802C93.1443 53.7549 93.0097 53.6809 92.8954 53.5778C92.8124 53.5105 92.7496 53.4365 92.7003 53.3558C92.6532 53.275 92.6039 53.1652 92.559 53.0261C92.5119 52.8894 92.4716 52.7145 92.4357 52.5014C92.3976 52.2929 92.3594 52.0059 92.3124 51.6493C92.2653 51.2861 92.2384 50.9991 92.2204 50.7816C92.2092 50.6448 92.2025 50.5237 92.2025 50.4138C92.2047 50.3533 92.207 50.295 92.2114 50.2456ZM65.7876 70.2945L63.6798 68.3616L64.3234 67.6552L67.3909 68.5387L67.4088 68.5185L68.5636 67.2606L65.1665 66.3614C65.2651 66.1125 65.3145 65.8546 65.3145 65.5855C65.3145 65.4644 65.3033 65.3434 65.2831 65.22C65.2158 64.8074 64.9983 64.433 64.6395 64.1078C64.4153 63.9015 64.1619 63.7423 63.8928 63.6414C63.6596 63.5495 63.4107 63.5069 63.1573 63.5069C63.1192 63.5069 63.0856 63.5069 63.0452 63.5091C62.756 63.5248 62.4622 63.6055 62.1707 63.7468C61.8859 63.8903 61.6213 64.1011 61.3702 64.3702L59.4216 66.5027L64.7763 71.3999L65.7876 70.2945ZM62.7582 67.5162L61.415 66.2896L62.294 65.3322C62.4936 65.1146 62.7156 64.998 62.9623 64.9711C62.9892 64.9711 63.0183 64.9689 63.043 64.9689C63.2582 64.9689 63.4488 65.0474 63.6327 65.2178C63.8345 65.4017 63.9332 65.6102 63.9332 65.8591C63.9332 66.108 63.8345 66.3412 63.6327 66.561L62.7582 67.5162ZM62.1371 74.898C62.4398 74.4338 62.5923 73.9786 62.5923 73.5212C62.5923 73.4181 62.5855 73.3194 62.5698 73.2162C62.4846 72.6646 62.164 72.2094 61.6124 71.8462C61.2782 71.6309 60.9621 71.521 60.6526 71.521C60.6168 71.521 60.5898 71.521 60.5585 71.5255C60.2557 71.5479 59.9822 71.6287 59.74 71.7654C59.7422 71.7341 59.7422 71.7027 59.7422 71.669C59.7422 71.465 59.6929 71.2385 59.6032 71.0075C59.4889 70.7026 59.2758 70.4469 58.9597 70.2429C58.5874 69.994 58.2062 69.8729 57.8228 69.8729C57.6793 69.8729 57.5246 69.8931 57.3743 69.9312C56.8406 70.068 56.3832 70.4425 55.9908 71.0389L54.3741 73.519L60.4531 77.4857L62.1371 74.898ZM58.3654 72.7184L57.6277 73.8486L56.3114 72.992L57.0469 71.8574C57.2061 71.613 57.39 71.4695 57.5941 71.4201C57.6524 71.4022 57.7084 71.3955 57.7667 71.3955C57.908 71.3955 58.0538 71.4403 58.1928 71.5345C58.3968 71.6668 58.5134 71.835 58.5448 72.0413C58.5538 72.0771 58.5583 72.1175 58.5583 72.1579C58.5605 72.3305 58.4955 72.5166 58.3654 72.7184ZM58.7466 74.5841L59.5404 73.3732C59.6996 73.1221 59.888 72.9786 60.1033 72.9337H60.1055C60.1571 72.9247 60.2131 72.9158 60.2692 72.9158C60.4262 72.9158 60.5854 72.9673 60.7378 73.0683C60.9464 73.2006 61.0675 73.3755 61.119 73.5952C61.1325 73.6445 61.137 73.7006 61.137 73.7499C61.137 73.9203 61.0787 74.102 60.9509 74.2903L60.1616 75.5034L58.7466 74.5841ZM69.8597 66.1304L70.9674 65.1819L66.2518 59.6702L65.1104 60.6434L69.8283 66.1596L69.8597 66.1304ZM85.6346 50.8219L87.211 56.5309L88.6551 56.1385L87.081 50.4273L88.9152 49.9205L88.5564 48.6424L83.4506 50.0483L83.8004 51.3287L85.6346 50.8219ZM70.6042 60.834C71.0347 61.4888 71.4025 61.9641 71.6962 62.2579C71.9967 62.5516 72.3644 62.7467 72.8062 62.8387C72.99 62.8745 73.1739 62.8925 73.3511 62.8925C73.8937 62.8925 74.4162 62.7265 74.905 62.4014C75.5956 61.944 76.0127 61.3273 76.1562 60.5627C76.1876 60.4214 76.2011 60.2801 76.2011 60.1411C76.2011 59.9281 76.1674 59.7151 76.1024 59.5088C75.997 59.1634 75.793 58.7733 75.4992 58.3248L74.905 57.4413L72.5842 58.9841L73.2793 60.0245L74.3511 59.3114L74.4722 59.4886C74.5754 59.6411 74.6471 59.8025 74.7032 59.9707C74.7346 60.0828 74.7525 60.1949 74.7525 60.3026C74.7525 60.3519 74.7458 60.4035 74.7391 60.4506C74.683 60.8026 74.4969 61.0807 74.1718 61.2959C73.9475 61.4439 73.7255 61.5157 73.508 61.5157C73.4183 61.5157 73.3286 61.5067 73.2389 61.4843C73.1358 61.4574 73.0461 61.4193 72.9631 61.3699C72.8869 61.3228 72.7927 61.2421 72.6918 61.1345C72.5864 61.0268 72.472 60.8901 72.3487 60.7196C72.2164 60.5447 72.055 60.307 71.8554 60.0043C71.6514 59.7061 71.4966 59.455 71.3823 59.2711C71.2679 59.0872 71.1894 58.928 71.1356 58.7957C71.0818 58.6679 71.0459 58.5535 71.0325 58.4526C71.0235 58.4078 71.0213 58.3562 71.0213 58.3114C71.0213 58.262 71.0257 58.2127 71.0325 58.1634C71.0796 57.836 71.2522 57.5736 71.5594 57.3673C71.7792 57.2238 71.981 57.1453 72.1738 57.1252C72.2164 57.1162 72.2702 57.1162 72.3263 57.1162C72.4922 57.1162 72.694 57.1386 72.9272 57.1879L72.9631 57.1924L73.2569 55.791L73.2188 55.7842C72.9452 55.7304 72.6918 55.7013 72.4541 55.7013C72.2882 55.7013 72.1245 55.7147 71.9765 55.7439C71.62 55.8134 71.232 55.986 70.8194 56.2596C70.1624 56.6946 69.7588 57.2866 69.6063 58.0288C69.5705 58.1835 69.557 58.3427 69.557 58.4952C69.557 58.7643 69.6063 59.0222 69.7095 59.2711C69.8687 59.6568 70.1602 60.1792 70.6042 60.834ZM80.2395 59.2688L79.0063 56.5309L81.1791 55.5533L82.4191 58.2912L82.4572 58.2755L83.7847 57.6745L80.8001 51.0618L79.4301 51.6785L80.6409 54.3491L78.4658 55.3313L77.2572 52.6584L75.8916 53.275L78.8784 59.89L80.2395 59.2688ZM124.102 103.932C124.703 103.932 125.185 103.237 125.185 103.237C125.185 103.237 124.701 102.546 124.102 102.546C123.503 102.546 123.021 103.237 123.021 103.237C123.021 103.237 123.503 103.932 124.102 103.932ZM152.405 93.4108C151.685 93.0252 150.58 92.5139 148.994 91.8479C147.362 91.1663 143.99 90.0899 140.494 89.1571C135.619 71.317 119.312 58.206 99.9341 58.206C78.2259 58.206 60.3656 74.6558 58.1233 95.7653C55.9841 96.0837 53.9413 96.3326 52.1676 96.5187C48.6561 96.8842 46.2186 97.0143 46.2141 97.0165C46.0819 97.0233 45.9809 97.1242 45.963 97.252C45.9608 97.2632 45.9608 97.2767 45.9608 97.2968C45.9518 97.4897 46.0886 98.2947 47.4183 98.9719C48.7458 99.6625 51.2594 100.288 56.1298 100.293C56.6792 100.293 57.2644 100.277 57.8766 100.263C57.8766 123.49 76.7034 142.319 99.9341 142.319C123.158 142.319 141.989 123.49 141.989 100.263C141.989 97.6242 141.731 95.041 141.27 92.5363C145.593 93.4916 151.033 94.7271 152.786 94.7316C152.972 94.7271 153.12 94.7204 153.248 94.6778C153.363 94.6531 153.531 94.5567 153.537 94.3594C153.468 93.9782 153.116 93.8279 152.405 93.4108ZM152.784 94.3302C150.037 94.3347 137.41 91.0586 135.617 91.0519C132.814 91.0698 126.506 94.532 123.23 96.66C122.277 97.2834 121.306 97.8462 120.357 98.3418C120.597 98.3552 120.844 98.3754 121.077 98.4068C123.071 98.6445 124.838 99.4159 126.266 100.463C128.107 101.835 130.011 103.517 131.154 103.741C131.208 103.746 131.271 103.75 131.336 103.759H131.34C132.968 103.912 137.626 105.064 137.48 107.82C137.48 107.82 134.238 106.84 130.349 107.506C128.818 107.834 126.584 108.04 123.203 109.116C120.001 110.125 111.648 113.292 105.118 113.294C100.149 113.289 90.1104 110.43 84.3161 109.939C83.9708 109.91 83.6277 109.892 83.2847 109.892C78.874 109.888 75.0866 112.206 73.1918 112.231C71.4832 112.231 68.4874 111.939 65.5544 109.764C63.3233 108.096 61.6751 105.659 61.6527 103.853C61.6482 103.25 61.8635 102.69 62.3344 102.32C62.6663 102.066 63.1327 102.015 63.7471 102.008C66.0208 102.01 70.5212 102.997 75.8602 102.995C79.0354 102.995 82.4909 102.649 85.9194 101.544C86.7154 101.288 89.1103 100.73 90.653 100.342C91.0611 100.62 91.4917 100.92 91.9715 101.252C92.0186 101.286 92.0679 101.302 92.1173 101.302C92.2047 101.302 92.2854 101.259 92.3393 101.19C92.4245 101.066 92.3908 100.903 92.2765 100.817C89.3076 98.7499 87.8972 97.6018 82.9304 97.6152C79.7664 97.6152 75.1382 98.0547 67.6443 98.9539C62.7806 99.5347 59.0247 99.7612 56.1298 99.7612C51.3043 99.7634 48.8601 99.1311 47.6649 98.5032C46.9272 98.1153 46.6559 97.7498 46.5595 97.53C48.295 97.4224 56.9662 96.8147 64.6261 95.1195C73.3197 93.1866 86.933 87.7467 93.2743 87.7579C95.6378 87.7422 99.7345 90.1796 103.793 92.913C107.879 95.6375 111.955 98.64 114.556 99.7298C114.691 99.7836 114.846 99.7231 114.9 99.5885C114.958 99.454 114.893 99.2992 114.758 99.2409C113.269 98.6176 111.2 97.2901 108.903 95.7406C112.054 94.2495 122.983 87.6884 130.807 87.6929C134.527 87.6861 145.532 90.8187 148.842 92.2134C150.418 92.8772 151.522 93.3817 152.221 93.7607C152.569 93.9468 152.822 94.0992 152.97 94.2158C153.017 94.2495 153.055 94.2854 153.08 94.3123C153.01 94.3235 152.912 94.3302 152.784 94.3302Z" fill="#005DAA"/>
<path d="M130.35 107.506C134.236 106.84 137.48 107.82 137.48 107.82C137.633 104.948 132.574 103.818 131.155 103.741C131.155 103.741 131.888 105.266 127.935 105.567C127.935 105.567 126.089 105.524 125.333 106.201C125.333 106.201 128.971 105.923 130.249 107.345L130.35 107.506Z" fill="#FDB913"/>
</svg>
