<svg width="200" height="200" viewBox="0 0 200 200" fill="none" xmlns="http://www.w3.org/2000/svg">
<rect width="200" height="200" fill="white"/>
<g clip-path="url(#clip0)">
<path d="M100.079 40.1251C87.9359 40.1251 65.5456 43.2667 54.143 49.8972C39.1304 103.122 59.5475 139.317 100.079 159.86C140.61 139.317 161.027 102.943 146.015 49.8976C134.601 43.2667 112.221 40.1251 100.079 40.1251Z" fill="#9C824A" stroke="#9C824A" stroke-width="0.716088" stroke-miterlimit="282"/>
<path d="M100.079 43.5472C88.1492 43.5472 74.7172 45.0731 57.1253 52.2534C44.0297 98.7133 59.2221 135.951 100.079 156.247C140.935 135.951 156.116 98.7129 143.021 52.2534C125.429 45.0731 112.008 43.5472 100.079 43.5472Z" fill="#023474" stroke="#023474" stroke-width="0.716088" stroke-miterlimit="282"/>
<path d="M100.023 43.5023C88.1491 43.5023 75.401 45.2636 63.8973 49.617C51.9678 97.1877 60.7694 131.923 100.09 156.213L100.023 43.5023ZM100.09 156.213C139.41 131.923 148.201 97.1877 136.271 49.617C124.768 45.2636 112.031 43.5023 100.157 43.5023L100.09 156.213Z" fill="white" stroke="white" stroke-width="0.716088" stroke-miterlimit="282"/>
<path d="M100.09 43.4913C88.1492 43.4913 76.0626 45.2974 66.2409 48.7192C53.8852 98.5787 63.8077 132.248 100.101 155.259L100.09 43.4913Z" fill="#EF0107" stroke="#EF0107" stroke-width="0.716088" stroke-miterlimit="282"/>
<path d="M100.113 43.4913C112.053 43.4913 124.14 45.2974 133.973 48.7192C146.329 98.5787 136.406 132.248 100.102 155.259L100.113 43.4913Z" fill="#DB0007" stroke="#DB0007" stroke-width="0.716088" stroke-miterlimit="282"/>
<path d="M84.6624 118.729C79.3928 122.342 75.1996 123.643 70.3334 124.934L67.396 120.367C71.8698 118.101 76.5002 114.948 81.1645 110.382C81.5569 114.813 83.6196 117.955 84.6624 118.729Z" fill="white"/>
<path d="M83.9445 118.538C78.9441 121.971 71.9812 124.361 64.0095 125.528L62.3838 123.06C69.2118 120.501 75.8045 116.687 80.9174 111.324C81.6911 114.757 82.8682 117.035 83.9445 118.538Z" fill="#9C824A"/>
<path d="M70.6252 97.569C70.6252 99.4876 69.0782 101.036 67.1608 101.036C65.2435 101.036 63.6851 99.4876 63.6851 97.569C63.6851 95.6504 65.2435 94.1024 67.1608 94.1024C69.0782 94.1024 70.6252 95.6504 70.6252 97.569Z" fill="white"/>
<path d="M70.2549 90.7362V103.818H80.5587C81.2313 99.4313 83.7204 94.7753 89.36 90.7362H70.2549Z" fill="white"/>
<path d="M70.6696 103.818C68.371 103.852 66.4764 100.968 66.4426 97.3557C66.4202 93.7428 68.2591 90.7811 70.5689 90.7362C70.5913 90.7362 70.6137 90.7362 70.6475 90.7362" fill="white"/>
<path d="M69.1675 97.569C69.1675 99.05 68.0912 100.239 66.7681 100.239C65.445 100.239 64.3687 99.0504 64.3687 97.569C64.3687 96.0879 65.445 94.8988 66.7681 94.8988C68.0912 94.8985 69.1675 96.0879 69.1675 97.569Z" fill="#9C824A"/>
<path d="M70.5352 91.4208V103.179H80.7606C81.5678 99.2744 83.5524 95.1231 88.508 91.4208H70.5352Z" fill="#9C824A"/>
<path d="M70.9164 103.179C68.7523 103.224 66.981 100.621 66.9475 97.3782C66.925 94.1359 68.6629 91.4654 70.8267 91.4208C70.8491 91.4208 70.8716 91.4208 70.894 91.4208" fill="#9C824A"/>
<path d="M119.644 106.881C119.644 117.798 110.809 126.639 99.8995 126.639C89.0014 126.639 80.1553 117.798 80.1553 106.881C80.1553 95.9647 89.0014 87.1237 99.8995 87.1237C110.809 87.1237 119.644 95.9647 119.644 106.881Z" fill="white"/>
<path d="M118.612 106.881C118.612 117.226 110.237 125.606 99.8994 125.606C89.5732 125.606 81.1978 117.226 81.1978 106.881C81.1978 96.5482 89.5732 88.1561 99.8994 88.1561C110.237 88.1558 118.612 96.5369 118.612 106.881Z" fill="#9C824A"/>
<path d="M115.507 106.881C115.507 115.509 108.521 122.499 99.8995 122.499C91.2888 122.499 84.3037 115.509 84.3037 106.881C84.3037 98.2533 91.2888 91.2635 99.8995 91.2635C108.521 91.2635 115.507 98.2533 115.507 106.881Z" fill="white"/>
<path d="M114.475 106.881C114.475 114.937 107.95 121.455 99.8993 121.455C91.8603 121.455 85.335 114.937 85.335 106.881C85.335 98.8257 91.8603 92.3073 99.8993 92.3073C107.95 92.307 114.475 98.8257 114.475 106.881Z" fill="#9C824A"/>
<path d="M105.976 106.881C105.988 110.236 103.263 112.962 99.9104 112.973C96.5471 112.973 93.8223 110.247 93.8223 106.893V106.881C93.8223 103.526 96.5357 100.8 99.899 100.8C103.251 100.789 105.976 103.516 105.976 106.87C105.976 106.881 105.976 106.881 105.976 106.881Z" fill="white"/>
<path d="M105.259 106.881C105.259 109.843 102.87 112.244 99.9107 112.244C96.9508 112.244 94.5514 109.855 94.54 106.893V106.881C94.54 103.92 96.9395 101.518 99.8993 101.518C102.859 101.518 105.259 103.908 105.259 106.87V106.881Z" fill="#9C824A"/>
<path d="M102.658 106.881C102.658 108.396 101.424 109.63 99.8998 109.641C98.3862 109.641 97.1528 108.407 97.1528 106.881C97.1528 105.356 98.3862 104.133 99.8998 104.122C101.424 104.121 102.658 105.356 102.658 106.881Z" fill="white"/>
<path d="M101.895 106.881C101.895 107.981 101.009 108.878 99.8995 108.878C98.8007 108.878 97.9038 107.992 97.9038 106.881C97.9038 105.782 98.8007 104.884 99.8995 104.884C100.998 104.884 101.895 105.77 101.895 106.881Z" fill="#9C824A"/>
<path d="M101.951 91.9705H97.8027V101.653H101.951V91.9705Z" fill="white"/>
<path d="M101.312 90.5792H98.4531V102.887H101.312V90.5792Z" fill="#9C824A"/>
<path d="M111.459 97.4341L113.724 100.912L105.607 106.186L103.353 102.707L111.459 97.4341Z" fill="white"/>
<path d="M112.973 97.2211L114.531 99.6221L104.216 106.331L102.658 103.919L112.973 97.2211Z" fill="#9C824A"/>
<path d="M94.0803 107.667L96.3003 111.167L88.1267 116.351L85.9067 112.839L94.0803 107.667Z" fill="white"/>
<path d="M95.4708 107.465L97.0069 109.888L86.6247 116.474L85.0884 114.05L95.4708 107.465Z" fill="#9C824A"/>
<path d="M101.951 112.435H97.8027V122.117H101.951V112.435Z" fill="white"/>
<path d="M101.312 111.055H98.4531V123.351H101.312V111.055Z" fill="#9C824A"/>
<path d="M95.852 111.403C96.4127 111.874 97.0291 112.3 97.8028 112.626L97.7804 121.264C93.8673 120.76 90.9075 118.83 88.665 116.081L95.8633 111.403" fill="#EF0107"/>
<path d="M95.852 111.403C96.4127 111.874 97.0291 112.3 97.8028 112.626L97.7804 121.264C93.8673 120.76 90.9075 118.83 88.665 116.081L95.8633 111.403" stroke="#EF0107" stroke-width="0.281288" stroke-miterlimit="282"/>
<path d="M103.936 111.436C103.364 111.896 102.758 112.334 101.985 112.648L101.996 121.287C105.909 120.782 108.869 118.853 111.112 116.104L103.925 111.437" fill="#DB0007"/>
<path d="M103.936 111.436C103.364 111.896 102.758 112.334 101.985 112.648L101.996 121.287C105.909 120.782 108.869 118.853 111.112 116.104L103.925 111.437" stroke="#DB0007" stroke-width="0.281288" stroke-miterlimit="282"/>
<path d="M105.898 107.812L114.464 106.78C114.531 108.923 114.015 110.808 113.286 112.614L105.875 107.812" fill="#DB0007"/>
<path d="M105.909 107.779C105.943 107.644 105.932 107.521 105.988 107.128L114.442 106.029C114.475 106.421 114.453 106.567 114.442 106.747L105.909 107.779Z" fill="white" stroke="white" stroke-width="0.281288" stroke-miterlimit="282"/>
<path d="M118.422 100.655H129.511C129.163 101.967 128.826 103.302 127.234 103.897C124.689 104.851 119.409 105.771 119.409 105.771C119.307 104.323 118.982 102.359 118.422 100.655Z" fill="white"/>
<path d="M110.697 90.5457L139.668 90.5792L138.648 101.17L118.859 102.203C117.794 97.4679 114.194 92.9467 110.697 90.5457Z" fill="white"/>
<path d="M111.728 91.2973L148.717 91.3308L147.304 99.9589L118.601 101.373C117.468 97.0866 114.879 93.9564 111.728 91.2973Z" fill="#9C824A"/>
<path d="M118.422 100.655H128.636C128.3 101.821 128.064 102.887 126.562 103.414C124.174 104.267 119.364 104.94 119.364 104.94C119.162 103.538 118.87 102.113 118.422 100.655Z" fill="#9C824A"/>
<path d="M107.21 75.1638C107.21 75.6351 107.109 76.9253 107.053 77.2842H112.794C112.445 75.758 112.288 73.6379 112.244 71.9998C112.244 72.112 112.143 68.7123 112.143 68.7123C112.143 68.4766 112.244 68.1178 112.39 68.0056C112.592 67.7699 112.794 67.7699 113.04 67.7699C113.287 67.6578 113.735 67.6578 113.791 68.5891L113.937 72.112C113.993 73.7611 113.993 75.994 113.791 77.2842H119.319C119.274 76.8129 119.117 75.6348 119.072 75.287C119.767 76.8129 121.27 77.6318 123.265 77.6318C124.454 77.6318 125.362 77.1715 126.057 76.7004C126.057 76.8126 126.349 77.2842 126.349 77.2842H136.619C136.171 75.758 135.879 73.6379 135.722 71.9998L134.276 60.4885L128.995 59.5461C129.444 61.072 129.746 63.3047 129.937 64.8306L130.744 72.2355C130.89 73.5257 130.991 74.9395 130.991 76.4651V76.5772L130.789 76.1058C130.385 75.1635 130.194 73.9968 130.037 72.2352L129.847 69.879C129.544 66.1205 127.504 64.4821 123.007 64.4821C122.267 64.4821 120.373 64.5943 119.218 64.9535L119.521 69.172L120.72 68.4763C121.718 67.8818 122.458 67.6461 123.355 67.6461C124.062 67.6461 124.51 67.8821 124.712 68.3531C123.86 68.4763 122.918 68.712 121.864 69.172C120.272 69.8787 119.274 70.9443 118.826 72.1113V71.9992L118.668 68.1171C118.579 65.6488 116.976 64.0108 114.531 64.0108C113.444 64.0108 112.445 64.3586 111.549 64.9532C111.493 64.8296 111.448 64.7172 111.392 64.594L111.19 64.1226L106.604 63.8869C106.806 64.7172 107.109 67.0623 107.154 67.8814C106.907 66.7144 106.257 65.4242 105.057 64.4818C104.115 63.8872 102.915 63.5394 101.671 63.5394C99.9776 63.5394 98.2286 64.2461 97.085 65.4242C95.8854 66.5909 95.2909 68.2403 95.2349 70.1141C94.7867 69.6427 94.1924 69.1827 93.4971 68.9474L91.4003 67.8814H91.2995C90.8063 67.6454 90.7501 67.5333 90.7501 67.4211C90.8063 67.1855 91.2995 66.9498 91.95 66.9498C92.8469 66.9498 94.0916 67.4211 95.0893 68.0046L95.1901 64.2461C94.4388 63.8869 93.3963 63.6626 91.8938 63.6626C91.0976 63.6626 89.6065 63.7748 88.3058 64.4815C87.958 64.7172 87.6553 64.9528 87.3641 65.1885L87.4089 64.1223C86.2094 63.898 84.9198 63.898 83.3275 65.4239C83.2716 65.3004 83.1705 64.7168 83.0697 64.4815L78.1366 64.7172C78.4841 66.1199 78.54 68.1168 78.4392 69.8784L78.3385 71.7632V71.9989C78.2822 72.9413 78.2377 73.9958 78.1366 74.9382C77.7328 73.6366 77.2956 71.8753 76.9367 70.473L74.4927 59.433L67.5188 60.4876C67.5636 60.5997 67.6644 60.9589 67.7206 61.3065C67.7658 61.7778 67.7658 62.7202 67.1153 64.7172C65.9717 67.8814 64.3794 72.7056 62.8324 76.1049C62.6305 76.5763 62.2271 77.283 62.2271 77.283H67.6647C67.7658 76.4638 68.1133 75.0504 68.4608 73.9955C69.2121 73.9955 71.1519 73.9955 72.0484 73.872C72.2503 74.7022 72.4522 75.7568 72.5084 76.4635L72.5982 77.2827H83.4738C83.227 75.5211 83.3278 73.176 83.4179 71.8747C83.5186 70.3488 83.8213 69.2942 84.4718 68.7107C84.9649 68.1162 85.5143 68.004 85.9181 68.004C85.8622 70.1131 87.2077 71.0558 88.4072 71.639L90.5486 72.7046C91.2998 73.176 91.2998 73.2881 91.2998 73.5238C91.255 73.8716 90.6493 73.9952 90.1003 73.9952C88.9566 73.9952 87.4092 73.2881 85.7162 71.4147L85.6154 76.3399C86.9609 77.0467 88.654 77.3945 90.1565 77.3945C92.6456 77.3945 95.2915 76.2275 95.9868 73.9949C97.2313 76.3396 99.6756 77.3945 102.075 77.3945C104.216 77.3964 105.808 76.7004 107.21 75.1638ZM69.7615 70.3504C70.0641 69.5315 70.3106 68.8245 70.7592 67.5342C71.0618 68.8245 71.2075 69.6437 71.3534 70.2382C70.7592 70.3504 70.4565 70.3504 69.7615 70.3504ZM100.281 69.0601C100.281 67.4221 100.875 66.7154 101.469 66.7154C101.671 66.7154 102.12 66.5918 102.321 67.4221C102.422 67.7699 102.467 68.0056 102.467 68.1177C102.467 68.5891 102.22 68.7123 101.918 68.7123V68.8245C101.918 68.8245 101.077 69.0601 100.281 69.419C100.281 69.2958 100.281 69.1837 100.281 69.0601ZM105.965 72.4708C104.911 73.4022 104.16 73.9967 102.915 73.9967C101.918 73.8732 101.323 73.2897 100.976 72.4708C102.018 72.112 106.055 70.5861 107.209 70.1147C107.209 71.0571 107.255 72.1116 107.255 72.1116V74.1089L105.965 72.4708ZM124.554 74.1092C123.613 74.1092 123.411 73.4022 123.366 72.9422C123.411 72.4708 123.556 71.7641 125.059 71.2931C125.104 71.8766 125.159 72.3476 125.159 72.3476V72.8187C125.205 73.1776 125.205 73.5254 125.249 73.8732C125.059 73.9968 124.813 73.9968 124.554 74.1092Z" fill="#9C824A"/>
<path d="M94.3382 64.8306C93.845 64.7185 93.0938 64.4828 91.8942 64.4828C90.9524 64.4828 89.7077 64.7185 88.7546 65.1898C87.6558 65.8965 86.8597 66.8279 86.8148 67.8938C86.714 69.5319 87.5661 70.2386 88.8105 70.8221C89.6515 71.2934 90.4586 71.7645 90.9521 72.0002C91.6023 72.348 92.1965 72.7069 92.1517 73.5261C92.0958 74.3453 91.3445 74.9398 90.1001 74.9398C89.0572 74.9398 87.5661 74.2331 86.5121 73.2904L86.4673 75.7587C87.3642 76.2301 88.8105 76.4654 90.156 76.4654C92.4433 76.4654 95.291 75.4109 95.3359 72.819C95.3918 70.8221 93.9907 70.1151 93.1497 69.6551C92.2976 69.2962 91.4453 68.8251 91.0532 68.7127C90.6495 68.477 89.8533 68.2416 89.9096 67.2989C89.9993 66.4801 90.9524 66.1208 91.9501 66.1208C92.7911 66.1208 93.6431 66.3565 94.2933 66.7154" fill="white"/>
<path d="M73.8539 60.4885L68.5619 61.1952C68.663 61.9023 68.4611 63.3047 67.9117 64.9538C66.8243 68.1177 65.0302 73.4019 63.6284 76.4647H66.9251C67.1156 75.3991 67.3623 74.4678 67.8668 73.1776L72.7554 73.054C72.9459 73.9964 73.3048 75.5223 73.3497 76.4647H77.7896C77.2402 75.1634 76.5452 72.4705 76.0969 70.5857L73.8539 60.4885ZM68.5619 71.1696L70.9613 64.2471L72.4079 71.0574" fill="white"/>
<path d="M86.5124 64.8306L86.4116 67.1867C85.6155 67.0635 84.6178 67.2989 83.8216 68.1181C83.1263 68.8248 82.678 69.8796 82.5772 71.7644C82.4761 73.2903 82.4313 75.0519 82.521 76.4654H78.7871C79.0338 75.0519 79.1349 73.4136 79.1795 71.8769L79.2803 70.0032C79.381 68.4773 79.381 66.9514 79.1346 65.5379L82.431 65.4258C82.5769 65.8971 82.6777 66.716 82.6218 67.5349C84.0681 65.3016 85.4695 64.8306 86.5124 64.8306Z" fill="white"/>
<path d="M133.536 61.1953L130.138 60.6007C130.486 62.138 130.587 63.1925 130.789 64.7181L131.585 72.112C131.742 73.6379 131.888 75.0516 131.843 76.4651H135.532C135.173 75.0516 135.027 73.6379 134.881 72.112" fill="white"/>
<path d="M118.321 76.465C118.13 75.0516 118.029 73.6379 117.973 72.1119L117.827 68.2413C117.726 66.1208 116.527 64.9541 114.531 64.9541C113.443 64.9541 112.142 65.3019 111.044 66.7154C110.999 66.3565 110.842 65.4251 110.641 64.9541L107.658 64.8306C107.905 66.2443 108.006 67.6467 108.05 69.1726L108.106 72.1119C108.151 73.6379 108.106 75.0516 108.006 76.465H111.739C111.548 75.0516 111.448 73.6379 111.391 72.1119L111.291 68.8248C111.246 67.6467 112.143 66.8275 113.04 66.8275C114.082 66.8275 114.587 67.5342 114.632 68.5891L114.789 72.1119C114.834 73.6379 114.834 75.0516 114.733 76.465" fill="white"/>
<path d="M129.993 76.4651C129.544 75.287 129.298 73.8736 129.196 72.3477L128.994 70.0026C128.792 67.1864 127.605 65.3016 123.007 65.3016C122.211 65.3016 121.067 65.4252 120.126 65.6495L120.272 67.7699C121.213 67.1864 122.167 66.7154 123.366 66.7154C124.611 66.7154 125.653 67.2989 125.755 69.0602C124.555 69.1837 123.456 69.408 122.211 70.0026C120.821 70.5861 119.375 71.7641 119.52 73.6376C119.666 75.758 121.269 76.7004 123.265 76.7004C124.812 76.7004 125.855 75.9937 126.45 75.287C126.55 75.758 126.707 76.1059 126.853 76.4651H129.993ZM124.555 74.9392C123.456 74.9392 122.559 74.3446 122.514 73.0544C122.514 71.7641 123.31 70.7096 125.855 70.3504L126.001 72.3477C126.057 73.0544 126.057 73.5257 126.158 74.1092C125.8 74.5803 125.205 74.816 124.555 74.9392Z" fill="white"/>
<path d="M104.563 65.1895C103.712 64.5949 102.714 64.3593 101.671 64.3593C99.2269 64.3593 95.9865 66.1208 96.0873 70.5861C96.1321 75.1638 99.6303 76.5772 102.075 76.5772C104.216 76.5772 105.517 75.7581 106.559 74.7035L105.808 73.6376C105.259 74.1089 104.362 74.8157 102.915 74.8157C101.368 74.7035 100.381 73.6376 99.8319 71.9995L106.604 69.5312C106.402 67.2989 105.606 66.0087 104.563 65.1895ZM102.22 69.5315L99.5292 70.5861C99.4733 70.115 99.4285 69.6437 99.4285 69.0602C99.4285 66.3562 100.92 65.8852 101.424 65.8852C102.22 65.773 102.915 66.244 103.173 67.1864C103.465 68.2413 103.364 69.1837 102.22 69.5315Z" fill="white"/>
<path d="M86.2656 100.116L88.5415 96.649L96.6367 101.945L94.3605 105.423L86.2656 100.116Z" fill="white"/>
<path d="M85.5142 98.9265L87.084 96.5255L97.3654 103.268L95.7955 105.67L85.5142 98.9265Z" fill="#9C824A"/>
<path d="M103.543 111.156L105.819 107.678L113.914 112.984L111.638 116.463L103.543 111.156Z" fill="white"/>
<path d="M102.792 109.966L104.362 107.566L114.644 114.308L113.074 116.698L102.792 109.966Z" fill="#9C824A"/>
</g>
<defs>
<clipPath id="clip0">
<rect x="49" y="40" width="102.157" height="120" fill="white"/>
</clipPath>
</defs>
</svg>
