<svg width="200" height="200" viewBox="0 0 200 200" fill="none" xmlns="http://www.w3.org/2000/svg">
<g clip-path="url(#clip0)">
<path d="M143.183 45.6499C143.042 45.616 123.334 40.0087 100.285 40C100.218 40 100.151 40.0029 100.083 40.0029C100.015 40.0029 99.949 40 99.8814 40C76.8334 40.0087 57.1249 45.616 56.9844 45.6499C55.811 45.9822 55 47.055 55 48.2773V111.208L55.0498 111.716C55.1039 112.129 61.1773 143.179 98.9817 159.772C99.3299 159.923 99.7049 160 100.08 160C100.081 160 100.082 159.999 100.084 159.999C100.085 159.999 100.086 160 100.088 160C100.463 160 100.837 159.923 101.186 159.772C138.99 143.179 145.063 112.129 145.118 111.716L145.168 111.208V48.2773C145.167 47.055 144.356 45.9822 143.183 45.6499Z" fill="white"/>
<path d="M142.745 47.1716C142.686 47.1563 122.8 41.6222 100.084 41.5845C77.3674 41.6222 57.4808 47.1568 57.422 47.1716C56.9243 47.3084 56.5832 47.7584 56.5832 48.2749V111.208L56.602 111.422C56.6246 111.593 62.4775 142.026 99.6222 158.323C99.7688 158.387 99.9265 158.419 100.084 158.419C100.241 158.419 100.398 158.387 100.545 158.323C137.69 142.026 143.542 111.593 143.565 111.422L143.584 111.208V48.2749C143.584 47.7584 143.243 47.3084 142.745 47.1716Z" fill="black"/>
<path d="M100.084 43.8812C90.7293 43.8923 81.8666 44.8578 74.6961 45.9735V138.515C80.7085 144.779 88.9132 151.043 100.084 156.016C111.254 151.043 119.459 144.779 125.471 138.515V45.9732C118.3 44.8575 109.438 43.8923 100.084 43.8812Z" fill="white"/>
<path d="M87.6634 129.547C84.1633 126.049 82.5552 121.889 82.5573 117.722C82.5573 112.753 84.8274 107.786 88.7812 103.835C91.8814 100.736 95.5969 98.6748 99.4553 97.924L94.0611 92.5322C92.6171 93.9747 87.0475 99.5321 84.9713 101.608H84.9965L84.1495 102.445L83.8511 102.735C83.6529 102.903 83.3494 103.059 83.0038 103.053C82.6124 103.079 82.2003 102.867 81.9358 102.564L78.9798 99.5764C78.6867 99.3191 78.4609 98.9181 78.4861 98.5158C78.4797 98.1673 78.6387 97.8636 78.8396 97.6293L99.3177 77.1599L94.8074 72.6559C93.366 74.0963 87.7937 79.6558 85.7163 81.7344H85.7364L84.8939 82.5681L84.5931 82.8604C84.3999 83.0218 84.0991 83.1875 83.7443 83.1814C83.3521 83.2065 82.9471 82.9921 82.6797 82.6908L79.72 79.7014C79.433 79.4441 79.2051 79.0484 79.2276 78.6422C79.2212 78.2923 79.3805 77.9892 79.5835 77.7543L102.465 54.8842C102.934 54.3989 103.595 54.0981 104.32 54.0981C105.04 54.0944 105.683 54.3902 106.138 54.864L121.364 70.0914C121.532 70.292 121.689 70.5952 121.683 70.9413C121.707 71.3301 121.498 71.7422 121.2 72.0069L121.056 72.1498H121.05C120.963 72.2301 120.845 72.348 120.704 72.4866C120.414 72.7736 120.029 73.156 119.644 73.5411C118.875 74.307 118.11 75.0713 118.107 75.0713L117.759 75.415L104.904 62.5556L99.0607 68.4032L120.617 89.9624C120.788 90.1643 120.944 90.4701 120.938 90.8133C120.963 91.2032 120.754 91.6132 120.453 91.8814L117.021 95.2924L104.162 82.4332L98.316 88.2761L108.93 98.89C110.893 99.7298 112.775 100.994 114.493 102.716C117.807 106.068 119.686 110.104 119.689 114.124C119.689 117.036 118.696 119.926 116.591 122.485L116.248 122.904L111.231 117.883L111.424 117.558C112.361 115.971 112.907 114.342 112.905 112.732C112.902 110.808 112.146 108.879 110.24 106.969C108.191 104.924 105.961 104.102 103.688 104.097C100.243 104.09 96.6628 106.062 93.8412 108.89C91.0132 111.71 89.0436 115.293 89.0499 118.74C89.0528 121.013 89.8776 123.244 91.9195 125.288C93.6506 127.017 95.5749 127.753 97.5448 127.756C99.786 127.756 102.104 126.778 104.16 125.082L104.502 124.803L109.444 129.745L109.056 130.09C105.9 132.89 102.227 134.327 98.5601 134.327C94.6908 134.327 90.8446 132.728 87.6634 129.547Z" fill="black"/>
<path d="M101.518 98.5995L100.539 98.7312C96.5852 99.274 92.6936 101.302 89.4737 104.525C85.6725 108.321 83.5331 113.053 83.5331 117.722C83.5368 121.638 85.0259 125.521 88.3519 128.855C91.3778 131.875 94.9595 133.347 98.5601 133.35C101.822 133.35 105.111 132.133 108.017 129.697L104.434 126.112C102.328 127.751 99.9416 128.729 97.5448 128.732C95.3247 128.735 93.1155 127.873 91.2305 125.979C89.0218 123.779 88.0686 121.256 88.0739 118.74C88.0789 114.917 90.2051 111.147 93.1521 108.201C96.0994 105.254 99.8674 103.127 103.688 103.12C106.203 103.118 108.728 104.069 110.93 106.277C112.983 108.324 113.886 110.539 113.881 112.733C113.881 114.446 113.34 116.126 112.455 117.723L116.173 121.442C117.91 119.155 118.711 116.655 118.711 114.124C118.714 110.413 116.97 106.611 113.803 103.405C112.144 101.743 110.336 100.54 108.462 99.7492L108.369 99.7094L96.9344 88.2766L104.163 81.0535L117.021 93.9114L119.765 91.1899C119.999 90.9193 119.937 91.0282 119.962 90.8138C119.957 90.716 119.952 90.7023 119.896 90.6206L97.6786 68.404L104.904 61.1759L117.765 74.0388C118.509 73.2951 120.221 71.5839 120.512 71.3136C120.743 71.0491 120.683 71.1557 120.706 70.9413C120.701 70.8435 120.699 70.8297 120.64 70.743L105.442 55.5472C105.146 55.2464 104.777 55.0773 104.321 55.0734C103.866 55.0734 103.459 55.2602 103.163 55.5671L80.3062 78.4097C80.2148 78.53 80.21 78.5486 80.2034 78.6416C80.2259 78.8382 80.1695 78.7354 80.4127 79.0116L83.3748 82.0039C83.642 82.2411 83.5392 82.1806 83.7448 82.2056C83.8352 82.1997 83.8604 82.1944 83.9468 82.1332L84.1699 81.9124L84.1866 81.8923L84.2004 81.8756L84.2279 81.848C84.2505 81.8255 84.2778 81.7953 84.317 81.7553C84.3936 81.68 84.5049 81.5685 84.644 81.4293C84.9249 81.1476 85.3246 80.7437 85.8064 80.264C86.7692 79.3023 88.0513 78.0185 89.3348 76.7388C91.8973 74.179 94.4637 71.6216 94.4637 71.6216L94.8058 71.2792L100.698 77.1594L79.5634 98.281C79.4767 98.3989 79.4685 98.4214 79.4619 98.5155C79.4868 98.7164 79.4256 98.6106 79.6712 98.8892L82.6309 101.879C82.8954 102.111 82.7926 102.055 83.0046 102.077C83.0984 102.072 83.1186 102.066 83.2026 102.008L83.4432 101.769L83.4557 101.754L83.4832 101.724C83.5058 101.704 83.5333 101.674 83.5723 101.633C83.6489 101.558 83.7602 101.447 83.8993 101.305C84.1802 101.023 84.5796 100.622 85.0614 100.139C86.0242 99.1778 87.3066 97.8967 88.5901 96.6143C91.1526 94.0545 93.7185 91.4949 93.7185 91.4949L94.0609 91.1515L100.819 97.9033L100.473 98.2492L100.819 97.9033L101.518 98.5995Z" fill="#CC0000"/>
</g>
<defs>
<clipPath id="clip0">
<rect width="90.167" height="120" fill="white" transform="translate(55 40)"/>
</clipPath>
</defs>
</svg>
