<svg width="200" height="200" viewBox="0 0 200 200" fill="none" xmlns="http://www.w3.org/2000/svg">
<rect width="200" height="200" fill="white"/>
<path d="M160 99.9999C160 133.139 133.136 160 99.9999 160C66.8622 160 40 133.139 40 99.9999C40 66.8637 66.8622 40 99.9999 40C133.136 40 160 66.8637 160 99.9999Z" fill="#DBA111"/>
<path d="M157.998 99.9998C157.998 132.032 132.032 157.998 99.9997 157.998C67.9667 157.998 42.0005 132.033 42.0005 99.9998C42.0005 67.9668 67.9667 42.0006 99.9997 42.0006C132.032 42.0006 157.998 67.9668 157.998 99.9998" fill="#034694"/>
<path d="M141.331 99.9998C141.331 122.827 122.826 141.329 99.9996 141.329C77.1715 141.329 58.666 122.827 58.666 99.9998C58.666 77.1707 77.1715 58.6663 99.9996 58.6663C122.827 58.666 141.331 77.1707 141.331 99.9998" fill="#DBA111"/>
<path d="M140.081 99.9999C140.081 122.136 122.133 140.081 99.9997 140.081C77.8633 140.081 59.9185 122.136 59.9185 99.9999C59.9185 77.8638 77.8633 59.9185 99.9997 59.9185C122.134 59.9185 140.081 77.8635 140.081 99.9999" fill="white"/>
<path d="M65.6563 134.579C66.0998 135.002 67.1909 136.041 67.1909 136.041L68.2368 134.94L65.1171 131.966L64.7157 132.387L60.5269 136.778L62.1173 138.292C62.1173 138.292 63.4605 136.883 63.952 136.37C64.3628 136.76 65.3483 137.699 65.3483 137.699L66.3949 136.601C66.3949 136.601 65.4109 135.662 65.0007 135.269C65.261 134.995 65.3932 134.856 65.6563 134.579" fill="#DBA111"/>
<path d="M73.1797 139.594C73.0386 138.752 72.5658 138.008 71.8504 137.499C71.1382 136.993 70.2834 136.794 69.4413 136.932C68.5343 137.086 67.7194 137.615 67.1453 138.418C66.5733 139.227 66.3423 140.169 66.4963 141.08C66.6379 141.919 67.1074 142.658 67.8206 143.167C68.5343 143.674 69.3953 143.877 70.2362 143.736C71.1428 143.583 71.9582 143.053 72.5302 142.248C72.9881 141.609 73.227 140.877 73.227 140.145C73.2272 139.963 73.2118 139.776 73.1797 139.594H73.1797ZM68.6999 141.926C67.9708 141.411 68.5726 140.333 68.9972 139.74C69.4208 139.142 70.242 138.218 70.9711 138.734C71.732 139.278 71.0211 140.454 70.6798 140.931C70.3375 141.414 69.4622 142.47 68.6999 141.926V141.926Z" fill="#DBA111"/>
<path d="M78.0835 141.259C76.4048 140.409 74.463 141.106 73.5711 142.873C73.1242 143.757 73.0369 144.727 73.3247 145.6C73.5905 146.411 74.1668 147.072 74.9482 147.465C75.7295 147.863 76.6087 147.932 77.4214 147.666C78.2936 147.381 79.0211 146.737 79.4652 145.853C80.3608 144.083 79.7656 142.108 78.0835 141.259V141.259ZM76.2268 146.171C76.0299 146.236 75.8431 146.216 75.631 146.11C75.298 145.941 75.1809 145.637 75.1809 145.299C75.1809 144.83 75.4063 144.277 75.5974 143.901C75.9286 143.246 76.6012 142.212 77.3991 142.614C77.6097 142.722 77.7357 142.861 77.7995 143.056C77.9331 143.459 77.7989 144.121 77.439 144.829C77.0811 145.538 76.6282 146.039 76.2268 146.171V146.171Z" fill="#DBA111"/>
<path d="M81.5506 143.69L81.2417 144.575C81.2417 144.575 82.0318 144.853 82.2716 144.932C81.9692 145.797 80.5752 149.776 80.5752 149.776L82.645 150.501C82.645 150.501 84.0413 146.526 84.3429 145.661C84.5843 145.745 85.3747 146.02 85.3747 146.02L85.8763 144.591L81.743 143.141L81.5506 143.69" fill="#DBA111"/>
<path d="M90.1444 145.61L87.3473 145.019L87.2276 145.588L85.9775 151.525L88.8241 152.129C89.7339 152.316 90.333 152.093 90.6745 151.872C91.1082 151.589 91.4122 151.125 91.5291 150.57C91.5611 150.419 91.5765 150.273 91.5765 150.13C91.5765 149.729 91.4496 149.367 91.2198 149.057C91.5404 148.802 91.7692 148.443 91.8643 147.994C91.8886 147.878 91.9029 147.748 91.9029 147.611C91.9029 146.851 91.469 145.886 90.1444 145.61H90.1444ZM89.3745 150.142C89.3447 150.278 89.2901 150.457 89.1874 150.524C89.0925 150.586 88.91 150.594 88.6737 150.543C88.6737 150.543 88.5661 150.519 88.4389 150.494C88.5298 150.065 88.5906 149.78 88.6792 149.352C88.8009 149.38 88.9564 149.411 88.9564 149.411C89.3235 149.488 89.3939 149.76 89.3939 149.957C89.3941 150.036 89.384 150.103 89.3745 150.142L89.3745 150.142ZM89.1834 146.965C89.429 147.021 89.6095 147.111 89.6789 147.216C89.7107 147.264 89.7263 147.332 89.7263 147.412C89.7263 147.46 89.7197 147.516 89.7071 147.583C89.6695 147.757 89.6185 147.998 89.1346 147.899C89.1346 147.899 89.0743 147.883 88.9912 147.865C89.0685 147.506 89.1051 147.327 89.1833 146.965L89.1834 146.965Z" fill="#DBA111"/>
<path d="M95.3077 146.577L92.2695 152.799L94.0046 152.932C94.0046 152.932 94.4741 151.94 94.6617 151.546C95.0288 151.576 95.3966 151.602 95.7563 151.631C95.8909 152.046 96.2299 153.101 96.2299 153.101L98.5382 153.281L95.959 145.286L95.3077 146.577" fill="#DBA111"/>
<path d="M102.159 151.543C102.12 150.634 101.946 146.495 101.946 146.495L99.7534 146.587L100.031 153.23L104.424 153.047L104.358 151.453C104.358 151.453 102.789 151.52 102.159 151.543" fill="#DBA111"/>
<path d="M108.172 150.907C108.03 150.008 107.389 145.916 107.389 145.916L106.814 146.008L105.219 146.256L106.249 152.827L110.595 152.144L110.346 150.568C110.346 150.568 108.795 150.813 108.172 150.907Z" fill="#DBA111"/>
<path d="M120.753 146.487C120.735 147.057 120.399 147.547 119.876 147.755C119.585 147.87 119.308 147.87 119.03 147.752C118.604 147.57 118.209 147.108 117.972 146.515C117.693 145.816 117.637 145.222 117.82 144.804C117.945 144.512 118.192 144.293 118.569 144.142C118.977 143.98 119.364 144.13 119.895 144.442L120.383 144.73L121.192 143.454L120.712 143.138C119.829 142.558 118.736 142.44 117.791 142.818C116.914 143.167 116.234 143.822 115.875 144.658C115.51 145.507 115.51 146.478 115.88 147.398C116.578 149.144 118.551 150.004 120.276 149.313C121.523 148.815 122.229 147.868 122.319 146.574L122.359 145.997L120.771 145.879L120.753 146.488" fill="#DBA111"/>
<path d="M125.87 144.673C125.421 143.875 123.403 140.255 123.403 140.255L122.898 140.541L121.486 141.329L124.731 147.134L128.567 144.991L127.79 143.597C127.79 143.597 126.417 144.363 125.87 144.673" fill="#DBA111"/>
<path d="M130.137 135.72L129.666 136.064L128.842 136.67L131.535 140.34C131.658 140.506 131.658 140.617 131.647 140.682C131.622 140.871 131.424 141.076 131.25 141.202C131.168 141.261 130.977 141.341 130.783 141.31C130.643 141.29 130.534 141.215 130.436 141.083L127.775 137.454L126.001 138.752L128.65 142.363C129.043 142.897 129.531 143.213 130.1 143.3C130.739 143.4 131.465 143.182 132.14 142.683C133.529 141.668 133.506 140.32 132.9 139.494L130.137 135.72" fill="#DBA111"/>
<path d="M138.216 134.386C137.808 133.963 137.304 133.772 136.776 133.801C136.745 133.39 136.585 132.998 136.268 132.669C135.713 132.096 134.473 131.65 133.331 132.762L131.278 134.748L135.905 139.525L137.994 137.5C138.662 136.853 138.809 136.227 138.815 135.822C138.826 135.302 138.613 134.794 138.216 134.386ZM134.72 134.225C134.789 134.299 134.873 134.384 134.873 134.504C134.873 134.602 134.82 134.723 134.66 134.876C134.66 134.876 134.616 134.92 134.558 134.979C134.298 134.71 134.175 134.584 133.913 134.313C134.376 133.889 134.568 134.07 134.72 134.225V134.225ZM135.816 135.87C136.191 135.508 136.552 135.826 136.655 135.934C136.754 136.034 136.868 136.175 136.868 136.297C136.868 136.297 136.868 136.297 136.868 136.301C136.865 136.414 136.77 136.57 136.598 136.737C136.598 136.737 136.518 136.815 136.424 136.904C136.121 136.591 135.916 136.381 135.613 136.069C135.703 135.98 135.816 135.87 135.816 135.87V135.87Z" fill="#DBA111"/>
<path d="M65.6421 133.963C65.8231 134.137 67.1742 135.425 67.1742 135.425L67.6197 134.956L65.1304 132.582L65.0302 132.687L61.1445 136.763L62.1018 137.676C62.1018 137.676 63.7573 135.941 63.9356 135.751C64.1166 135.924 65.3346 137.084 65.3346 137.084L65.7809 136.615C65.7809 136.615 64.5629 135.456 64.3819 135.284C64.5435 135.115 65.482 134.13 65.6421 133.963" fill="white"/>
<path d="M71.5964 137.854C70.9795 137.415 70.2411 137.239 69.5163 137.36C68.7206 137.497 68.0069 137.962 67.5018 138.672C66.9951 139.386 66.7919 140.212 66.927 141.005C67.0484 141.732 67.4568 142.373 68.0743 142.811C68.6951 143.253 69.4365 143.425 70.1646 143.304C70.956 143.17 71.6706 142.704 72.175 141.998C72.5782 141.428 72.7913 140.783 72.7913 140.144C72.7913 139.985 72.7774 139.824 72.7514 139.665C72.6279 138.939 72.2187 138.296 71.5964 137.854H71.5964ZM71.0348 141.186C70.6172 141.769 69.5304 143.053 68.4487 142.283C67.3708 141.518 68.2266 140.071 68.6423 139.484C69.0594 138.896 70.1467 137.615 71.2231 138.38C72.3051 139.152 71.4518 140.6 71.0348 141.186V141.186Z" fill="white"/>
<path d="M77.8865 141.65C76.4299 140.913 74.7423 141.526 73.9597 143.074C73.5656 143.852 73.4879 144.699 73.738 145.467C73.9678 146.164 74.4671 146.734 75.1444 147.075C75.8232 147.422 76.5843 147.484 77.2854 147.253C78.048 147.001 78.6847 146.436 79.0788 145.658C79.8591 144.111 79.3471 142.386 77.8865 141.65V141.65ZM75.4342 146.497C74.2548 145.904 74.8824 144.344 75.2083 143.703C75.5332 143.059 76.416 141.628 77.5936 142.227C77.9072 142.384 78.1164 142.617 78.2162 142.922C78.4474 143.629 78.0723 144.542 77.8274 145.027C77.5838 145.509 77.0693 146.353 76.3619 146.585C76.0593 146.688 75.7462 146.657 75.4342 146.497Z" fill="white"/>
<path d="M81.9637 143.833L81.7966 144.305C81.7966 144.305 82.6208 144.595 82.8273 144.668C82.736 144.927 81.1294 149.508 81.1294 149.508L82.378 149.947C82.378 149.947 83.9858 145.366 84.0757 145.106C84.2822 145.178 85.1064 145.466 85.1064 145.466L85.3217 144.858L82.0097 143.695L81.9637 143.833" fill="white"/>
<path d="M90.0563 146.035L87.6856 145.535L87.6538 145.679L86.4951 151.192L88.914 151.7C89.529 151.828 90.0407 151.764 90.4365 151.505C90.7789 151.282 91.0086 150.925 91.1025 150.481C91.1265 150.36 91.1409 150.245 91.1409 150.132C91.1409 149.65 90.9018 149.241 90.4749 148.949C90.9692 148.807 91.3231 148.443 91.437 147.903C91.4564 147.819 91.468 147.719 91.468 147.606C91.4678 147.054 91.1777 146.272 90.0564 146.035H90.0563ZM89.2276 146.523C89.6262 146.608 89.9021 146.76 90.0425 146.977C90.1233 147.1 90.1631 147.244 90.1631 147.412C90.1631 147.494 90.1525 147.578 90.1334 147.671C89.9794 148.405 89.3864 148.397 89.0453 148.322C89.0453 148.322 88.6843 148.248 88.475 148.204C88.5237 147.978 88.7989 146.669 88.8464 146.444C88.9979 146.475 89.2276 146.523 89.2276 146.523V146.523ZM89.0453 148.984C89.7188 149.126 89.8251 149.657 89.8251 149.98C89.8251 150.119 89.8034 150.218 89.8007 150.234C89.7328 150.553 89.6113 150.768 89.4248 150.888C89.2276 151.02 88.9436 151.045 88.5844 150.971C88.5844 150.971 88.1532 150.878 87.9222 150.832C87.9719 150.595 88.2943 149.068 88.343 148.836C88.5404 148.877 89.0453 148.984 89.0453 148.984H89.0453Z" fill="white"/>
<path d="M95.7008 146.768L92.9434 152.413L93.7375 152.472C93.7375 152.472 94.3212 151.245 94.3985 151.088C94.5663 151.101 95.9161 151.206 96.0818 151.22C96.1345 151.382 96.5556 152.69 96.5556 152.69L97.9233 152.795L95.8752 146.446L95.7008 146.768V146.768ZM95.3981 149.038C95.5314 149.464 95.7879 150.286 95.8727 150.555C95.6003 150.534 94.973 150.486 94.7034 150.465C94.8271 150.211 95.203 149.439 95.3981 149.038Z" fill="white"/>
<path d="M101.739 151.998C101.729 151.723 101.526 146.949 101.526 146.949L101.385 146.954L100.205 147.003L100.447 152.777L103.97 152.628L103.939 151.907C103.94 151.907 101.994 151.99 101.739 151.998" fill="white"/>
<path d="M107.81 151.41C107.766 151.138 107.025 146.413 107.025 146.413L106.884 146.436L105.719 146.62L106.614 152.328L110.097 151.779L109.985 151.065C109.985 151.066 108.059 151.368 107.81 151.41" fill="white"/>
<path d="M121.187 146.497C121.166 147.249 120.725 147.886 120.037 148.163C119.636 148.323 119.241 148.317 118.859 148.153C118.32 147.925 117.85 147.386 117.565 146.678C117.244 145.869 117.193 145.161 117.417 144.632C117.591 144.231 117.923 143.932 118.407 143.739C119.041 143.485 119.624 143.775 120.116 144.067L120.24 144.139L120.594 143.582L120.475 143.502C119.711 143.002 118.766 142.897 117.953 143.222C117.183 143.531 116.585 144.101 116.275 144.83C115.956 145.568 115.959 146.426 116.285 147.234C116.893 148.759 118.609 149.508 120.117 148.907C121.21 148.469 121.803 147.676 121.882 146.544L121.893 146.398L121.195 146.349L121.187 146.497" fill="white"/>
<path d="M125.701 145.266C125.565 145.027 123.234 140.851 123.234 140.851L123.106 140.923L122.08 141.498L124.895 146.539L127.972 144.821L127.622 144.19C127.623 144.19 125.919 145.139 125.701 145.266" fill="white"/>
<path d="M130.042 136.329L129.923 136.416L129.451 136.763L131.886 140.081C132.049 140.304 132.114 140.527 132.079 140.746C132.021 141.141 131.661 141.445 131.51 141.552C131.337 141.683 131.021 141.79 130.718 141.741C130.461 141.703 130.251 141.567 130.082 141.341L127.677 138.062L126.612 138.847L129.001 142.103C129.323 142.543 129.715 142.802 130.166 142.869C130.878 142.976 131.545 142.58 131.881 142.335C133.034 141.488 133.049 140.427 132.551 139.753L130.042 136.329" fill="white"/>
<path d="M137.902 134.689C137.455 134.227 136.883 134.121 136.29 134.35C136.337 134.211 136.365 134.07 136.365 133.929C136.365 133.586 136.228 133.251 135.954 132.969C135.582 132.586 134.619 132.114 133.634 133.071L131.894 134.758L135.912 138.906L137.691 137.181C138.14 136.75 138.374 136.285 138.38 135.816C138.387 135.405 138.22 135.017 137.902 134.689V134.689ZM135.307 134.509C135.307 134.8 135.118 135.038 134.966 135.187C134.966 135.187 134.699 135.446 134.548 135.595C134.386 135.428 133.454 134.469 133.295 134.299C133.403 134.194 133.573 134.032 133.573 134.032C134.117 133.502 134.594 133.467 135.033 133.921C135.233 134.13 135.307 134.327 135.307 134.509V134.509ZM136.414 137.52C136.249 137.35 135.164 136.226 134.997 136.057C135.14 135.919 135.512 135.557 135.512 135.557C136.221 134.873 136.94 135.598 136.971 135.631C137.194 135.862 137.304 136.08 137.304 136.297C137.304 136.301 137.304 136.304 137.304 136.306C137.301 136.544 137.163 136.794 136.901 137.053C136.901 137.053 136.555 137.386 136.414 137.519V137.52Z" fill="white"/>
<path d="M73.3427 60.4735L70.9175 61.1276L71.1959 61.9963C71.5309 63.0495 71.2277 64.1522 70.4068 64.8721C69.9501 65.2725 69.4228 65.4563 68.8411 65.4164C67.9573 65.3571 66.9597 64.785 66.1735 63.8853C65.2471 62.824 64.7848 61.8024 64.8437 60.9365C64.8846 60.3052 65.1915 59.7505 65.7805 59.2345C66.431 58.6648 67.256 58.687 68.3751 58.9089L69.2052 59.073L69.7419 56.7502L68.9063 56.5465C67.1096 56.1019 65.236 56.5387 63.8993 57.7088C61.2814 59.9994 61.0678 63.7404 63.4027 66.4105C65.5725 68.8911 69.3372 69.1614 71.791 67.0151C73.5583 65.4714 74.174 63.4963 73.5737 61.3094L73.3427 60.4735" fill="#DBA111"/>
<path d="M79.9288 48.3092L77.4516 49.4758C77.4516 49.4758 78.8345 52.4064 79.3098 53.4164C78.6032 53.7487 77.9188 54.072 77.2115 54.406C76.7344 53.3967 75.3507 50.4649 75.3507 50.4649L72.0889 52.0048L77.0565 62.5418L80.3211 61.0027C80.3211 61.0027 78.7819 57.7436 78.2869 56.6869C78.994 56.3559 79.6779 56.0328 80.3865 55.699C80.883 56.7528 82.4202 60.0123 82.4202 60.0123L85.684 58.4722L80.7179 47.9376L79.9288 48.3092" fill="#DBA111"/>
<path d="M90.9731 54.8372C90.814 54.0526 90.6525 53.2543 90.4955 52.4708C91.5032 52.268 94.1812 51.7273 94.1812 51.7273L93.7101 49.3869C93.7101 49.3869 91.0309 49.9284 90.0224 50.1321C89.8772 49.4147 89.7571 48.8121 89.6109 48.0956C90.6575 47.8846 93.5233 47.3055 93.5233 47.3055L93.051 44.9661L92.1937 45.1382L85.6016 46.4714L87.9061 57.8912L95.4159 56.373L94.944 54.0349C94.944 54.0349 92.0268 54.6228 90.9731 54.8372" fill="#DBA111"/>
<path d="M101.625 44.6952L98.0131 44.6202L97.9952 45.4912L97.7695 56.267L105.35 56.4261L105.405 53.9029C105.405 53.9029 102.494 53.8403 101.431 53.8186C101.461 52.3923 101.625 44.6952 101.625 44.6952" fill="#DBA111"/>
<path d="M113.328 50.5704C112.391 49.8822 112.117 49.6063 112.211 49.2304C112.258 49.0355 112.47 48.4133 113.143 48.5799C113.548 48.6839 113.951 48.8972 114.13 49.7686L114.327 50.736L116.712 49.9302L116.564 49.1794C116.27 47.7049 115.023 46.4497 113.458 46.0587C112.337 45.7803 111.213 45.9292 110.29 46.4833C109.444 46.9905 108.848 47.791 108.613 48.7384C108.014 51.1265 109.624 52.2764 110.688 53.0383C111.78 53.8186 112.057 54.1241 111.89 54.7759C111.838 54.9796 111.718 55.1404 111.53 55.2543C111.312 55.3828 111.038 55.4292 110.815 55.3712C110.242 55.23 109.994 54.9592 109.752 54.2177L109.459 53.3289L107.066 54.3074L107.298 55.067C107.747 56.543 108.818 57.4733 110.57 57.9123C112.54 58.405 114.929 57.4993 115.524 55.1344C116.145 52.6425 114.449 51.3939 113.328 50.5704" fill="#DBA111"/>
<path d="M121.943 56.7835C122.862 57.248 125.299 58.48 125.299 58.48L126.376 56.3498C126.376 56.3498 123.938 55.1179 123.022 54.6549C123.35 54.0016 123.628 53.4523 123.955 52.8002C124.906 53.2803 127.519 54.6009 127.519 54.6009L128.593 52.4708L121.812 49.0441L121.42 49.8203L116.556 59.4408L123.394 62.8942L124.472 60.7653C124.472 60.7653 121.815 59.4231 120.855 58.9397C121.215 58.2247 121.584 57.4987 121.943 56.7835" fill="#DBA111"/>
<path d="M135.448 57.8716L124.583 63.4938L126.661 65.3015C126.661 65.3015 128.455 64.3481 129.106 64.0057C129.591 64.4278 130.305 65.0494 130.782 65.4636C130.549 66.1568 129.884 68.106 129.884 68.106L132.748 70.5976L137.394 56.8992L135.448 57.8716" fill="#DBA111"/>
<path d="M72.9358 61.1824L71.6552 61.5306L71.7491 61.8204C72.156 63.0988 71.789 64.436 70.788 65.3112C70.2132 65.8156 69.543 66.0466 68.8026 65.9988C67.7529 65.9284 66.6366 65.2983 65.7356 64.2678C64.7054 63.0884 64.1947 61.9224 64.2623 60.8954C64.3154 60.1156 64.6976 59.4093 65.3983 58.7963C66.3185 57.9918 67.477 58.139 68.4885 58.3392L68.7665 58.393L69.0467 57.1789L68.7682 57.1095C67.1536 56.7132 65.4781 57.1007 64.282 58.1478C61.9156 60.2204 61.7255 63.6054 63.8415 66.0269C65.8 68.2661 69.1944 68.5115 71.4103 66.5762C73.0171 65.1671 73.5571 63.4489 73.0128 61.4639L72.9358 61.1825" fill="white"/>
<path d="M80.1764 48.8325L78.2275 49.7539C78.2275 49.7539 79.8682 53.2354 80.084 53.6931C79.667 53.8907 77.3521 54.9831 76.932 55.1792C76.7167 54.7208 75.077 51.2396 75.077 51.2396L72.8618 52.2832L77.3339 61.7663L79.5476 60.7242C79.5476 60.7242 77.732 56.8757 77.5134 56.4099C77.9332 56.2122 80.2453 55.1227 80.6651 54.9243C80.8833 55.3888 82.6993 59.2396 82.6993 59.2396L84.9103 58.1949L80.4384 48.7103L80.1764 48.8325" fill="white"/>
<path d="M90.5168 55.522C90.4259 55.0664 89.9019 52.4718 89.811 52.0161C90.2959 51.9186 93.4962 51.2719 93.4962 51.2719L93.2541 50.0738C93.2541 50.0738 90.0549 50.7178 89.5671 50.8165C89.4785 50.3696 89.0168 48.0868 88.9282 47.6405C89.4169 47.5402 92.8383 46.8513 92.8383 46.8513L92.5957 45.6527L86.2871 46.9258L88.3622 57.2043L94.7311 55.9186L94.4891 54.72C94.4885 54.7203 91.0096 55.4223 90.5168 55.522" fill="white"/>
<path d="M101.03 45.2655L98.5845 45.2125L98.5794 45.5013L98.3628 55.6968L104.783 55.8329L104.812 54.472C104.812 54.472 101.336 54.3985 100.838 54.3879C100.851 53.8439 101.03 45.2655 101.03 45.2655" fill="white"/>
<path d="M113.284 48.0174C114.062 48.212 114.511 48.7316 114.701 49.6517L114.767 49.9734L116.043 49.5422L115.995 49.2905C115.743 48.0341 114.668 46.9607 113.318 46.6211C112.347 46.379 111.38 46.506 110.592 46.9794C109.879 47.408 109.376 48.0833 109.178 48.8798C108.675 50.8829 109.981 51.8159 111.028 52.5644C112.088 53.3225 112.727 53.84 112.455 54.9152C112.347 55.3628 112.054 55.6185 111.829 55.7531C111.48 55.9624 111.051 56.0277 110.674 55.9353C109.901 55.7415 109.503 55.3257 109.201 54.3982L109.103 54.1018L107.779 54.6418L107.856 54.896C108.241 56.161 109.176 56.963 110.715 57.3483C112.406 57.7706 114.455 57.0055 114.96 54.9912C115.486 52.88 114.1 51.8584 112.978 51.0384C112.026 50.3356 111.451 49.8658 111.647 49.0893C111.818 48.3951 112.393 47.7942 113.284 48.0174" fill="white"/>
<path d="M123.699 52.0205C124.146 52.2449 127.259 53.8184 127.259 53.8184L127.813 52.7261L122.07 49.8247L121.939 50.0837L117.34 59.1846L123.137 62.1142L123.689 61.0224C123.689 61.0224 120.524 59.4222 120.076 59.1947C120.285 58.7792 121.479 56.4196 121.687 56.0038C122.128 56.227 125.041 57.6987 125.041 57.6987L125.596 56.6064C125.596 56.6064 122.681 55.1359 122.239 54.9115C122.444 54.506 123.494 52.4259 123.699 52.0205" fill="white"/>
<path d="M135.715 58.3892L125.611 63.6183L126.741 64.6001C126.741 64.6001 128.883 63.4641 129.186 63.3035C129.438 63.5231 131.214 65.0681 131.46 65.2824C131.353 65.6018 130.559 67.9223 130.559 67.9223L132.477 69.5894L136.381 58.0771L135.715 58.3892ZM130.356 62.7019C130.834 62.4548 132.055 61.8204 132.8 61.4329C132.523 62.2246 132.066 63.5282 131.891 64.0356C131.503 63.6963 130.744 63.0369 130.356 62.7019Z" fill="white"/>
<path d="M128.665 98.4256C127.836 96.2309 124.983 95.2774 122.285 96.2955C121.161 96.7186 120.239 97.4259 119.611 98.261C121.392 93.1778 128.647 92.0991 128.647 87.37C128.647 79.4435 117.39 81.6638 119.028 87.3712C119.028 84.7816 123.15 84.307 123.15 87.3712C123.15 90.4359 115.963 92.4456 115.963 97.623C115.963 103.331 121.672 103.859 121.094 109.079C120.996 109.979 120.028 111.161 118.627 111.161C109.884 111.161 113.005 100.398 109.95 97.1229L110.109 94.9115C111.876 95.9945 116.561 93.4574 113.477 89.5899C113.477 91.4919 109.516 91.3866 109.516 87.7933C109.516 82.9312 114.062 85.4683 114.283 86.5419C114.065 84.7713 113.982 83.6476 114.275 82.6272C111.824 83.4174 111.595 82.0009 111.905 81.4529C112.26 80.819 112.735 80.0786 113.69 80.0786C114.206 80.0786 114.515 80.1505 114.698 80.2762C115.003 80.485 115.226 80.0081 115.183 80.4517C115.445 80.0526 115.34 80.5509 115.593 80.1505C115.851 79.7529 116.198 79.3033 116.808 78.7043L116.781 77.8073L117.495 78.0691L118.181 76.9606C117.441 75.427 116.437 76.1657 115.698 74.2642C115.08 74.1037 105.451 75.1508 105.731 71.3099C104.945 71.3099 103.086 71.7401 104.237 73.304C103.342 73.4117 102.697 72.3954 101.348 75.1443C103.037 74.8275 102.163 76.7165 102.163 77.254C102.163 80.7367 97.5264 80.6779 97.5264 79.0466C96.409 80.1323 97.0429 82.5066 98.7328 83.0915C98.7328 83.0915 98.0901 85.6311 96.5037 87.2412C94.1489 87.1473 90.371 86.7381 88.1977 84.6837C87.2604 83.7983 86.5162 83.3159 85.8823 83.068V81.9169C86.8103 81.4627 87.8279 80.6589 88.8854 79.3157C89.7104 78.3082 90.157 77.0162 90.0368 75.6441C90.0212 75.4803 89.9969 75.3185 89.9681 75.1607C89.9593 75.1104 89.947 75.0617 89.9353 75.0117C89.9121 74.9012 89.8853 74.7951 89.8533 74.6858C89.8379 74.6331 89.8235 74.5791 89.8068 74.5268C89.771 74.4172 89.7316 74.3125 89.6889 74.2085C89.671 74.1648 89.6584 74.1183 89.6374 74.0774C89.5786 73.9373 89.513 73.8056 89.442 73.6728C89.4117 73.619 89.3797 73.5688 89.3501 73.5193C89.3014 73.4395 89.2552 73.3587 89.204 73.2817C89.1626 73.2206 89.1192 73.1588 89.0755 73.0972C89.0306 73.0384 88.9831 72.978 88.9369 72.919C88.8856 72.8559 88.8352 72.789 88.7804 72.7264C88.744 72.6849 88.7046 72.6451 88.6663 72.607C88.5289 72.4552 88.38 72.3141 88.2245 72.1793C88.2116 72.1682 88.1962 72.1538 88.1811 72.1422C88.0942 72.068 88.0016 71.997 87.9104 71.9294C87.8872 71.9117 87.863 71.8945 87.837 71.8764C87.7395 71.8077 87.6398 71.7406 87.5358 71.6764C87.5295 71.6724 87.5237 71.6699 87.5192 71.6653C86.5296 71.0595 85.3337 70.7424 84.0708 70.8426C81.0298 71.0847 78.7694 73.6256 79.0234 76.5181C79.221 78.7717 80.8831 80.5716 83.0441 81.1457C82.286 81.5688 81.6455 81.8129 81.5009 81.8129C81.5249 81.8283 81.5561 81.8462 81.5902 81.8682C81.5991 81.8722 81.6094 81.8785 81.62 81.8838C81.6493 81.9027 81.6841 81.9222 81.7197 81.9413C81.7286 81.9465 81.7394 81.9514 81.748 81.9568C81.7968 81.9813 81.847 82.0068 81.9035 82.0338C81.9124 82.0378 81.923 82.0411 81.9318 82.0454C81.9819 82.0686 82.0328 82.0929 82.0868 82.1135C82.1023 82.1206 82.1189 82.1269 82.1355 82.1325C82.2678 82.1878 82.4168 82.2375 82.5796 82.284C82.6028 82.2903 82.6273 82.2956 82.6472 82.3019C82.7131 82.3186 82.78 82.334 82.8492 82.3506C82.8719 82.3546 82.8951 82.3594 82.9196 82.3645C83.007 82.3801 83.0984 82.3955 83.19 82.4066C83.1979 82.4066 83.2056 82.4106 83.2132 82.4106V83.0652C83.1789 83.0728 83.1478 83.0763 83.1158 83.0814C82.1267 83.2442 81.4839 83.5486 81.1934 84.4292C80.9046 85.313 81.2012 85.6323 81.6645 86.2523C81.2732 86.9519 80.2477 87.2134 81.5859 88.7589C81.4885 89.3425 81.6119 90.272 82.4614 90.554C82.7386 90.6479 82.9696 90.6979 83.2132 90.74L83.2121 102.326C82.3649 102.775 81.9468 103.335 81.7156 103.857C81.7156 103.857 81.0355 102.347 81.0804 105.338C81.8532 104.738 81.549 106.032 81.549 106.032C80.4968 107.395 81.8332 107.321 81.8332 107.321C82.7395 106.416 82.5547 107.732 82.5547 107.732C82.5547 109.336 83.2063 109.964 83.2118 109.966V118.793L82.4421 118.795L82.4494 121.231L83.7955 121.229C83.0402 121.542 82.5418 122.288 82.6145 123.113C82.7059 124.152 83.666 124.924 84.7593 124.84C85.8516 124.752 86.6635 123.841 86.5703 122.799C86.5085 122.08 86.0321 121.493 85.3844 121.224L86.6264 121.22L86.6212 118.785L85.8806 118.788L85.8817 110.957C86.0344 111.041 86.1995 111.099 86.3788 111.138C86.4502 111.151 86.5211 111.161 86.5941 111.166C86.6262 111.171 86.6595 111.171 86.6915 111.172C86.4924 110.142 87.1073 109.46 87.1073 109.46C87.4231 108.985 87.8798 108.614 88.3996 108.353C89.9539 107.573 92.0749 107.77 92.7088 109.04C96.7255 107.981 100.177 103.943 100.177 103.943L102.154 107.309C97.9625 108.71 88.832 116.647 95.1699 119.397C95.1676 120.197 95.0604 126.136 91.252 125.664C85.7673 124.989 84.3996 127.258 85.4528 129.809C84.9577 131.96 86.6143 132.707 86.6143 132.707C86.3656 131.464 86.9632 130.435 89.2299 130.448C89.2183 132.714 90.6822 133.123 90.6822 133.123C90.6926 131.182 92.0414 130.463 93.2397 130.468C93.2309 132.068 95.0891 132.676 95.0891 132.676C95.0891 132.676 94.6181 130.832 96.7187 130.468C102.036 129.542 97.042 124.073 105.129 122.566C105.129 122.566 101.102 121.959 101.102 119.757C101.102 117.754 104.747 116.384 106.002 116.384C108.575 121.301 111.372 121.34 112.104 121.375C113.244 122.648 112.862 126.939 111.217 126.855C105.193 126.531 105.414 130.195 106.089 130.945C106.012 132.367 107.118 133.189 107.118 133.189C107.118 131.664 108.569 131.236 110.429 131.336C110.331 133.199 111.518 133.477 111.518 133.477C111.55 131.603 112.937 131.285 113.922 131.336C113.85 132.65 115.153 133.036 115.153 133.036C115.153 133.036 115.025 131.369 116.78 131.369C120.109 131.367 115.274 124.232 121.772 117.176C116.064 119.818 113.028 113.213 113.028 111.946C115.961 115.379 125.473 116.064 125.473 110.2C125.473 104.598 119.316 102.51 122.196 100.368C123.872 99.1217 127.167 101.639 125.282 104.239C127.985 103.237 129.491 100.619 128.664 98.4255L128.665 98.4256ZM92.1807 98.6022C90.0289 99.8675 88.5861 101.468 86.6244 102.168C86.3265 102.273 86.089 102.303 85.8825 102.289V91.3545C86.4022 91.4032 87.7511 91.5878 89.3281 92.2398C90.89 93.0921 90.89 94.8536 88.9189 95.2712C90.1647 97.6565 94.4802 96.4887 95.4208 94.5459C95.8816 94.505 96.2887 95.3275 96.6717 96.105C96.0661 96.4196 94.8268 97.0446 92.1807 98.6022V98.6022ZM116.266 80.4749C116.029 80.796 115.796 81.1153 115.592 81.389C116.137 82.296 117.164 82.863 118.289 82.759C119.844 82.6118 120.988 81.232 120.845 79.6759C120.837 79.6194 120.829 79.5684 120.821 79.5131C120.655 80.3189 119.705 81.0012 118.497 81.1128C117.582 81.1986 116.754 80.9361 116.266 80.4749H116.266Z" fill="#D1D3D4"/>
<path d="M81.4987 73.8946C81.4987 73.8963 81.4947 73.9003 81.4947 73.9039H81.4935C81.5178 73.8461 81.5433 73.7883 81.5728 73.7317C81.5448 73.7855 81.5193 73.8383 81.4983 73.8946L81.4987 73.8946ZM81.5975 119.759C81.5998 119.757 81.6041 119.757 81.6049 119.754H81.6043C81.6026 119.757 81.6003 119.757 81.5977 119.759H81.5975ZM81.5294 69.2261H81.5323H81.5294ZM80.7067 119.489L82.0527 119.488C81.8884 119.556 81.7399 119.646 81.6049 119.754C81.7387 119.703 81.8805 119.672 82.031 119.672C82.706 119.672 83.2526 120.219 83.2526 120.894C83.2526 121.569 82.706 122.115 82.031 122.115C81.4845 122.115 81.0273 121.757 80.8725 121.261V121.371C80.9649 122.413 81.9224 123.186 83.017 123.096C84.1084 123.011 84.92 122.097 84.8299 121.058C84.766 120.342 84.2906 119.755 83.6429 119.485L84.8841 119.48L84.8784 117.044L84.1377 117.048V109.216C83.414 108.841 82.9959 108.022 83.1575 107.182C83.621 107.182 84.0355 107.302 84.3129 107.492C83.885 108.434 84.9493 109.431 84.9493 109.431C84.7502 108.402 85.3639 107.721 85.3639 107.721C85.6822 107.244 86.1386 106.873 86.6561 106.611C88.2124 105.831 90.3322 106.028 90.9661 107.297C94.983 106.24 98.435 102.201 98.435 102.201L100.413 105.564C105.05 105.564 103.436 102.092 103.133 101.789C104.2 101.789 105.702 102.574 105.702 104.313C105.702 108.584 93.2873 109.192 93.2873 114.376C93.2873 116.552 95.4445 117.38 95.4445 117.38C95.4445 122.106 92.1993 124.913 89.9796 124.913C86.4299 124.913 83.7119 124.194 83.7119 128.065H84.9493C83.7737 129.24 84.8708 130.964 84.8708 130.964C84.6232 129.723 85.2225 128.696 87.4887 128.707H88.9026C88.0042 129.605 88.529 130.968 88.9425 131.384C88.9503 129.44 90.2979 128.722 91.4977 128.729C91.933 128.729 92.5239 128.729 92.5239 128.729C92.2447 129.004 92.6933 130.282 93.3482 130.934C93.3482 130.934 92.8748 129.093 94.9777 128.729C100.293 127.802 95.2983 122.333 103.385 120.824C103.385 120.824 99.3612 120.219 99.3612 118.015C99.3612 116.015 103.004 114.642 104.257 114.642C105.245 114.501 106.186 114.536 106.991 114.709C107.318 117.884 110.963 117.729 111.757 117.729C114.849 120.822 110.971 125.786 110.971 125.786C106.226 125.786 104.347 126.441 104.347 129.204H105.246C104.742 129.71 105.028 131.101 105.374 131.448C105.374 129.923 106.827 129.497 108.688 129.595H109.666C109.189 130.072 109.273 131.232 109.778 131.735C109.806 129.861 111.195 129.543 112.181 129.595H112.996C112.691 129.903 112.996 130.88 113.415 131.299C113.415 131.299 113.286 129.63 115.04 129.628C118.371 129.628 113.533 122.491 120.034 115.435C114.327 118.078 111.287 111.472 111.287 110.204C114.222 113.638 123.735 114.324 123.735 108.461C123.735 103.73 119.347 101.507 119.71 99.6396C119.837 98.21 121.036 97.0894 122.5 97.0894C124.046 97.0894 125.299 98.345 125.299 99.891C125.299 101.07 124.575 102.076 123.544 102.49C123.546 102.49 123.546 102.487 123.546 102.487C123.544 102.49 123.541 102.493 123.541 102.498C126.242 101.496 127.75 98.8771 126.926 96.6841C126.095 94.4893 123.241 93.5336 120.546 94.5512C119.417 94.9773 118.499 95.6819 117.871 96.5185C119.649 91.4355 126.906 90.3586 126.906 85.6275C126.906 77.701 115.649 79.9223 117.287 85.6298C117.287 85.544 117.292 85.4594 117.302 85.3769C117.589 82.1506 123.356 81.4912 123.356 85.6967C123.356 89.2898 115.97 91.2813 115.97 96.1154C115.97 101.08 121.426 102.322 121.426 107.547C121.426 108.169 121.097 110.848 117.473 110.848C113.976 110.848 112.294 108.893 111.339 106.342C109.558 102.9 110.212 97.5278 108.206 95.3797L108.366 93.1703C110.133 94.2546 114.82 91.7152 111.741 87.8478C111.741 89.7517 107.777 89.6439 107.777 86.0521C107.777 81.19 112.32 83.7271 112.541 84.7998C112.323 83.0301 112.238 81.9035 112.536 80.8869C110.083 81.6747 109.857 80.2595 110.163 79.71C110.522 79.0748 110.996 78.3357 111.949 78.3357C113.327 78.3357 113.239 78.8413 113.167 79.5537C113.693 78.758 113.842 78.16 115.067 76.9626L115.041 76.0634L115.751 76.3275L116.442 75.2177C115.703 73.6841 114.699 74.4258 113.957 72.5229C113.341 72.3613 105.246 71.6143 105.526 67.7721C104.81 67.7721 102.859 70.2425 104.179 71.5643C104.179 71.5643 103.135 71.5643 102.498 71.5643C101.599 71.6706 99.5014 71.0433 98.1551 73.7906C101.47 70.4763 103.622 78.3834 97.5162 78.3834V78.3822C96.6152 78.3845 95.8425 78.0089 95.7902 77.3735C95.1818 80.0423 99.0281 80.8728 99.0281 80.8728C99.0281 81.6658 97.1014 85.9583 96.1651 86.8937C96.7962 87.525 96.9924 91.3364 94.0744 91.3364C95.1266 88.4911 92.0318 86.0803 89.026 84.4856C89.0288 84.4856 89.0288 84.4856 89.03 84.4856C88.4857 84.2786 87.9674 84.0271 87.4873 83.7242C85.6419 82.881 84.1419 82.4065 84.1419 82.4065V80.1761C85.0699 79.7209 86.0875 78.9172 87.145 77.5739C87.9712 76.5674 88.4155 75.2754 88.2949 73.9023C88.282 73.7382 88.2577 73.579 88.2252 73.4184C88.2179 73.3684 88.2062 73.321 88.1956 73.271C88.1714 73.1604 88.1444 73.0516 88.1126 72.9453C88.0982 72.8911 88.0828 72.84 88.0639 72.7863C88.0291 72.6767 87.9892 72.5697 87.9483 72.4657C87.9301 72.4215 87.9149 72.3793 87.8968 72.3357C87.8364 72.1983 87.7703 72.0633 87.7006 71.9338C87.6728 71.8785 87.6388 71.8288 87.6097 71.776C87.561 71.6967 87.5138 71.6182 87.4631 71.5412C87.4209 71.4796 87.3787 71.4165 87.3336 71.3552C87.2889 71.2963 87.2439 71.2358 87.1962 71.1792C87.1452 71.1123 87.0937 71.0469 87.0384 70.9843C87.0026 70.9429 86.9642 70.903 86.9256 70.8637C86.7868 70.7135 86.6393 70.5723 86.4843 70.4401C86.4687 70.4274 86.4556 70.4103 86.4402 70.3991C86.3531 70.3259 86.2619 70.2553 86.1683 70.1886C86.1435 70.1725 86.1206 70.1515 86.0963 70.1348C85.9974 70.0644 85.8992 69.9998 85.7947 69.9349C85.7886 69.932 85.7823 69.927 85.7765 69.9248C84.7874 69.3159 83.5911 69.0019 82.3286 69.1006C82.0567 69.1223 81.7922 69.171 81.5334 69.2263C79.7827 69.8973 78.5086 71.9466 78.5086 74.3721C78.5086 76.6578 79.6418 78.6069 81.2355 79.3847C81.2572 79.3908 81.2804 79.3996 81.3032 79.4051C80.5436 79.8282 79.9034 80.0726 79.758 80.0726C79.7827 80.0882 79.8148 80.1059 79.8493 80.1291C79.8582 80.1331 79.8675 80.138 79.8776 80.1435C79.9082 80.1612 79.9402 80.1791 79.9786 80.1995C79.988 80.2047 79.9968 80.2099 80.0074 80.2134C80.0528 80.2376 80.1058 80.2662 80.1609 80.2932C80.1709 80.296 80.1813 80.3007 80.1892 80.3063C80.2374 80.329 80.2894 80.3495 80.3457 80.3727C80.3611 80.3793 80.3755 80.3858 80.3921 80.3921C80.5272 80.4454 80.6744 80.4974 80.839 80.5433C80.8617 80.5485 80.8836 80.555 80.9069 80.5615C80.9707 80.5782 81.0376 80.5936 81.1068 80.6079C81.13 80.6142 81.1543 80.618 81.1787 80.6234C81.2658 80.64 81.3555 80.6552 81.4496 80.6666C81.4562 80.6666 81.4635 80.6677 81.4701 80.6723C82.0499 80.7198 82.7353 80.5758 82.7353 80.5758V81.8696C82.6313 81.8696 81.72 81.5758 81.4701 81.3259C81.4393 81.3304 81.4059 81.3362 81.3726 81.3425C80.3858 81.5041 79.7426 81.8078 79.4528 82.6898C79.164 83.5736 79.4606 83.893 79.9236 84.513C79.5295 85.21 78.5071 85.473 79.8428 87.0195C79.7479 87.6019 79.8698 88.5337 80.7183 88.8162C80.9962 88.9101 81.2275 88.9573 81.4701 89.0007C81.9729 89.0007 82.7353 89.4208 82.7353 90.4646V100.422C83.1933 100.448 83.6901 100.51 84.1417 100.549V89.6126C84.6615 89.6626 86.0116 89.8474 87.5861 90.4969C87.6042 90.5058 87.6181 90.5159 87.6338 90.5262C87.6326 90.5251 87.6309 90.5251 87.6309 90.5239C87.7748 90.5416 87.921 90.5726 88.0656 90.6158C89.1143 90.9382 89.7671 91.8483 89.5222 92.6541C89.2774 93.4583 88.2249 93.8501 87.178 93.5288C88.4216 95.9162 92.7396 94.7481 93.68 92.8053C94.1384 92.7644 94.5464 93.5871 94.9301 94.3634C94.9301 94.3634 96.0116 94.7776 98.69 94.7776C98.69 94.7776 87.8468 101.7 84.7106 101.7C83.3707 101.7 80.3986 101.7 80.3986 102.714C79.582 102.714 78.4043 104.102 78.4043 104.895C79.1765 104.293 79.8056 104.293 79.8056 104.293C80.464 104.293 80.8348 104.489 80.8348 104.489C80.5935 104.727 79.5115 105.949 79.5115 106.897C80.4175 105.989 80.8129 105.993 80.8129 105.993C80.8129 105.993 81.7598 105.871 82.0973 106.21C81.8691 106.437 81.47 107.257 81.47 108.229C81.47 108.229 82.0319 107.144 82.7352 107.144V117.552C82.7352 117.87 81.2991 118.175 80.7076 118.175L80.7067 119.489ZM81.1486 88C80.8813 88.0101 80.7543 87.6627 80.752 87.537C80.7455 87.4098 80.8457 87.0558 81.1125 87.0452C81.7477 87.0235 83.0182 87.3282 83.0233 87.4534C83.0284 87.5776 81.7835 87.977 81.1486 88V88ZM80.7389 86.2821C80.3706 86.2561 80.2489 85.7583 80.2613 85.5833C80.2729 85.4117 80.4668 84.9356 80.8348 84.9626C81.7141 85.0285 83.4184 85.6414 83.404 85.8146C83.3931 85.9903 81.6169 86.347 80.7389 86.2821ZM80.5877 84.081C80.1977 83.9785 80.1656 83.4201 80.2128 83.2356C80.2615 83.0518 80.5632 82.581 80.9547 82.6825C81.8843 82.9261 83.5931 83.9255 83.5443 84.1088C83.4968 84.2926 81.518 84.3246 80.5877 84.081V84.081ZM83.4673 77.8792C83.6289 77.494 83.5946 76.9679 83.4944 76.4728C83.4777 76.4728 83.461 76.474 83.4441 76.474C82.3256 76.474 81.4193 75.567 81.4193 74.4504C81.4026 74.2593 81.4296 74.074 81.494 73.9038H81.4951C81.4951 73.8998 81.4974 73.896 81.4992 73.8945C81.741 73.0478 82.518 72.4243 83.4447 72.4243C84.56 72.4243 85.4689 73.3313 85.4689 74.4504C85.4683 75.7411 84.5598 76.9294 83.4677 77.8794L83.4673 77.8792Z" fill="#034694"/>
<path d="M113.852 79.6475C114.393 80.5545 115.423 81.1215 116.547 81.0167C118.104 80.8713 119.246 79.4907 119.103 77.9329C119.097 77.8778 119.087 77.8248 119.08 77.7698C118.915 78.5746 117.961 79.2587 116.755 79.3705C115.838 79.4564 115.011 79.1933 114.523 78.7326C114.288 79.0547 114.052 79.3738 113.852 79.6475" fill="#ED1C24"/>
<path d="M110.071 74.3975L111.049 74.449L110.559 75.12C110.559 75.12 109.906 75.3265 110.071 74.3975ZM107.739 74.3975H109.147C109.147 74.3975 109.096 75.5342 110.125 75.636L109.907 75.998C109.906 75.998 107.142 75.2755 107.739 74.3975Z" fill="white"/>
<path d="M83.5449 84.1089C83.5936 83.9257 81.8849 82.926 80.9553 82.6826C80.5638 82.5811 80.2621 83.0519 80.2134 83.2357C80.1659 83.4203 80.198 83.9787 80.5883 84.0812C81.5186 84.3248 83.4975 84.2927 83.5449 84.1089V84.1089ZM83.4048 85.8145C83.4192 85.6413 81.715 85.0284 80.8357 84.9625C80.4676 84.9354 80.2737 85.4116 80.2621 85.5832C80.2498 85.7582 80.3712 86.256 80.7398 86.282C81.6175 86.3471 83.3937 85.9904 83.4048 85.8145ZM81.4698 80.6717V81.325C81.7198 81.5752 82.6311 81.8688 82.7351 81.8688V80.575C82.7353 80.5752 82.0499 80.7189 81.4698 80.6717V80.6717ZM81.1131 87.0451C80.8463 87.0557 80.7461 87.4097 80.7526 87.5369C80.7549 87.6626 80.8821 88.0102 81.1492 87.9999C81.7841 87.9771 83.0289 87.5775 83.0239 87.4531C83.0187 87.3281 81.7483 87.0232 81.1131 87.0451V87.0451ZM79.8055 104.292C78.7545 105.654 79.5114 106.896 79.5114 106.896C79.5114 105.948 80.5933 104.727 80.8347 104.489C80.8347 104.489 80.4641 104.292 79.8055 104.292V104.292ZM83.1584 107.181C82.9969 108.022 83.4149 108.84 84.1387 109.216C84.2927 109.296 84.4598 109.359 84.6352 109.393C84.7105 109.411 84.7809 109.42 84.8539 109.428C84.8859 109.428 84.9182 109.429 84.9503 109.43C84.9503 109.43 83.886 108.434 84.3139 107.492C84.0362 107.301 83.6219 107.181 83.1584 107.181V107.181ZM81.2351 79.3844C79.6414 78.6067 78.5081 76.6575 78.5081 74.3721C78.5081 71.9469 79.7822 69.8973 81.5329 69.2263C78.9045 69.8087 77.0503 72.1446 77.2823 74.7776C77.4789 77.0079 79.1085 78.7914 81.2351 79.3844ZM98.1549 73.7905C99.8463 73.4722 100.42 74.976 100.42 75.5142C100.42 77.553 98.8322 78.3744 97.516 78.3822V78.3834C103.622 78.3834 101.47 70.4763 98.1549 73.7906V73.7905ZM94.0739 91.3364C96.9919 91.3364 96.7958 87.5253 96.1647 86.8937C97.101 85.9581 99.0276 81.6658 99.0276 80.8729C99.0276 80.8729 95.1763 80.0423 95.7913 77.3697C95.7901 77.368 95.7901 77.3668 95.7901 77.3645L95.7386 77.3552C94.689 78.4627 95.3272 80.7725 96.9923 81.3489C96.9923 81.3489 96.3496 83.8885 94.7632 85.4988C93.1839 85.4375 90.9702 85.2297 89.0259 84.4855C92.0315 86.0807 95.1265 88.4915 94.074 91.3366L94.0739 91.3364ZM82.6747 73.0375C83.4293 72.9771 84.0937 73.5121 84.1581 74.233C84.2207 74.9505 83.6588 75.5846 82.903 75.6445C82.1456 75.7053 81.4799 75.1704 81.4196 74.4501C81.4196 75.5665 82.3259 76.4738 83.4445 76.4738C83.4611 76.4738 83.4778 76.4726 83.4947 76.4726C83.5949 76.9676 83.6292 77.4937 83.4677 77.879C84.56 76.929 85.4686 75.7408 85.4686 74.45C85.4686 73.3309 84.56 72.4239 83.4445 72.4239C82.513 72.4239 81.7329 73.0512 81.4944 73.9035C81.6713 73.4349 82.1192 73.0823 82.6748 73.0373L82.6747 73.0375ZM104.179 71.5642C102.859 70.2424 104.809 67.772 105.526 67.772C104.742 67.772 101.345 69.9965 102.498 71.5642C103.134 71.5642 104.179 71.5642 104.179 71.5642ZM87.1779 93.5282C88.2245 93.8495 89.2769 93.4577 89.5221 92.6535C89.7672 91.8477 89.1141 90.9376 88.0655 90.6152C87.9208 90.572 87.7746 90.541 87.6307 90.5233C89.1449 91.3867 89.1272 93.1187 87.1779 93.5282ZM84.1415 82.4065C84.1415 82.4065 85.6415 82.8811 87.4869 83.7242C87.1163 83.4945 86.7687 83.2355 86.4564 82.9414C85.5196 82.0561 84.7743 81.5736 84.1415 81.3285V82.4065V82.4065ZM84.7105 101.7C87.8466 101.7 98.6899 94.777 98.6899 94.777C96.0117 94.777 94.9299 94.3628 94.9299 94.3628C94.3253 94.6778 93.0846 95.3003 90.4397 96.8582C88.2876 98.1249 86.8451 99.7267 84.8829 100.426C84.584 100.534 84.3464 100.559 84.1415 100.548C83.6898 100.509 83.193 100.448 82.7351 100.42V90.4637C82.7351 89.4196 81.9727 88.9998 81.4698 88.9998V100.587C80.6216 101.036 80.2043 101.595 79.9749 102.117C79.9749 102.117 78.3579 101.902 78.4041 104.894C78.4041 104.101 79.5818 102.713 80.3985 102.713C80.3985 101.7 83.3705 101.7 84.7105 101.7V101.7ZM111.758 117.729C110.964 117.729 107.319 117.883 106.992 114.709C106.186 114.536 105.246 114.501 104.258 114.641C106.835 119.559 109.632 119.598 110.364 119.636C111.503 120.906 111.121 125.197 109.476 125.111C103.452 124.79 103.673 128.454 104.348 129.204C104.348 126.441 106.226 125.786 110.971 125.786C110.972 125.786 114.85 120.822 111.758 117.729V117.729ZM112.997 129.595H112.181C112.112 130.911 113.415 131.299 113.415 131.299C112.997 130.88 112.691 129.903 112.997 129.595V129.595ZM105.374 131.448C105.028 131.101 104.742 129.71 105.246 129.204H104.347C104.272 130.629 105.374 131.448 105.374 131.448V131.448ZM123.355 85.6968C123.355 81.4901 117.586 82.151 117.301 85.3813C117.556 83.0136 121.41 82.6642 121.41 85.6299C121.41 88.6946 114.221 90.7023 114.221 95.882C114.221 101.59 119.928 102.118 119.351 107.336C119.253 108.239 118.285 109.419 116.884 109.419C113.88 109.419 112.272 108.144 111.338 106.342C112.293 108.893 113.974 110.849 117.472 110.849C121.096 110.849 121.425 108.17 121.425 107.547C121.425 102.323 115.969 101.081 115.969 96.116C115.969 91.2814 123.355 89.2899 123.355 85.6968V85.6968ZM80.8127 105.993C80.8127 107.603 81.4698 108.228 81.4698 108.228C81.4698 107.257 81.8689 106.436 82.0972 106.21C81.7599 105.87 80.8127 105.993 80.8127 105.993V105.993ZM122.5 97.0892C121.036 97.0892 119.837 98.2098 119.71 99.6394C119.777 99.2963 120.006 98.9628 120.452 98.6291C122.13 97.382 125.418 99.8938 123.543 102.49C124.574 102.076 125.298 101.07 125.298 99.8908C125.299 98.3448 124.046 97.0892 122.5 97.0892V97.0892ZM109.666 129.595H108.688C108.588 131.455 109.778 131.735 109.778 131.735C109.273 131.232 109.189 130.071 109.666 129.595ZM82.0318 119.672C81.8806 119.672 81.7394 119.703 81.6049 119.754C81.1399 120.108 80.8564 120.658 80.8733 121.261C81.0283 121.757 81.4852 122.116 82.0318 122.116C82.7068 122.116 83.2534 121.569 83.2534 120.894C83.2534 120.219 82.7068 119.672 82.0318 119.672V119.672ZM88.9036 128.707H87.4896C87.4775 130.973 88.9432 131.384 88.9432 131.384C88.53 130.968 88.0054 129.604 88.9036 128.707H88.9036ZM93.2883 114.376C93.2883 109.192 105.703 108.584 105.703 104.313C105.703 102.574 104.201 101.789 103.134 101.789C103.436 102.092 105.051 105.564 100.414 105.564C96.2212 106.967 87.0908 114.904 93.4284 117.655C93.4255 118.453 93.3181 124.392 89.5117 123.926C84.0284 123.247 82.6604 125.514 83.7128 128.065C83.7128 124.194 86.4309 124.913 89.9805 124.913C92.2003 124.913 95.4454 122.106 95.4454 117.38C95.4454 117.38 93.2883 116.552 93.2883 114.376V114.376ZM82.7353 117.552V107.144C82.0318 107.144 81.4701 108.229 81.4701 108.229V117.109V117.052L80.7011 117.054L80.7077 118.175C81.2992 118.175 82.7354 117.87 82.7354 117.552L82.7353 117.552ZM84.872 130.964C84.872 130.964 83.7746 129.24 84.9505 128.065H83.7131C83.2162 130.218 84.872 130.964 84.872 130.964ZM92.5249 128.729C92.5249 128.729 91.9339 128.729 91.4987 128.729C91.4909 130.329 93.3491 130.934 93.3491 130.934C92.6943 130.282 92.2457 129.004 92.5249 128.729Z" fill="#6A7AB5"/>
<path d="M58.0057 111.449L57.9372 111.239L57.908 111.02C57.8077 110.272 57.6267 108.878 56.5503 108.628C56.2625 108.561 55.9651 108.596 55.6478 108.726C55.7342 108.395 55.7241 108.095 55.62 107.82C55.2232 106.788 53.8183 106.801 53.0635 106.811H52.8416L52.623 106.771C51.8816 106.634 50.4984 106.376 49.9309 107.323C49.7785 107.576 49.7179 107.869 49.7439 108.21C49.4566 108.025 49.167 107.942 48.875 107.956C47.7703 108.014 47.3479 109.355 47.122 110.076L47.0531 110.286L46.9506 110.481C46.5886 111.145 45.9173 112.377 46.6423 113.212C46.836 113.435 47.0965 113.584 47.4292 113.663C47.1662 113.881 46.9963 114.13 46.922 114.415C46.6335 115.481 47.7791 116.296 48.3925 116.733L48.5725 116.866L48.7275 117.022C49.2473 117.573 50.2132 118.59 51.2303 118.159C51.4994 118.044 51.7225 117.843 51.9013 117.551C52.0285 117.869 52.2115 118.105 52.4582 118.268C53.3846 118.868 54.5128 118.032 55.1197 117.585L55.2992 117.454L55.4984 117.356C56.18 117.03 57.4498 116.427 57.3538 115.326C57.3283 115.031 57.2049 114.76 56.984 114.5C57.324 114.48 57.6053 114.377 57.8335 114.192C58.6938 113.497 58.246 112.165 58.0057 111.449" fill="white"/>
<path d="M53.166 112.342C59.3464 115.995 57.4429 111.978 57.3071 111.384C57.1703 110.792 57.1183 106.349 53.166 112.342Z" fill="#ED1C24"/>
<path d="M52.7777 113.256C51.2135 120.26 54.4456 117.211 54.9669 116.901C55.4879 116.587 59.6977 115.163 52.7777 113.256" fill="#ED1C24"/>
<path d="M51.7851 113.171C44.6378 113.846 48.5389 115.979 48.9971 116.377C49.4565 116.774 52.109 120.34 51.7851 113.171Z" fill="#ED1C24"/>
<path d="M51.5613 112.199C48.7086 105.611 47.8859 109.98 47.6484 110.541C47.4108 111.097 44.8392 114.724 51.5613 112.199Z" fill="#ED1C24"/>
<path d="M153.647 110.481L153.545 110.286L153.475 110.077C153.25 109.355 152.827 108.015 151.726 107.956C151.43 107.942 151.142 108.024 150.855 108.208C150.881 107.869 150.817 107.576 150.669 107.323C150.099 106.376 148.717 106.634 147.976 106.771L147.755 106.811H147.534C146.782 106.801 145.376 106.788 144.981 107.82C144.873 108.095 144.865 108.395 144.95 108.726C144.637 108.596 144.339 108.562 144.049 108.628C142.974 108.877 142.789 110.272 142.694 111.02L142.661 111.239L142.594 111.449C142.353 112.165 141.906 113.497 142.767 114.193C142.995 114.377 143.274 114.481 143.616 114.501C143.395 114.761 143.272 115.032 143.246 115.327C143.151 116.428 144.419 117.031 145.102 117.357L145.299 117.455L145.478 117.586C146.087 118.033 147.216 118.869 148.14 118.269C148.39 118.106 148.571 117.87 148.697 117.552C148.877 117.844 149.098 118.044 149.369 118.161C150.386 118.591 151.353 117.573 151.872 117.023L152.028 116.867L152.206 116.734C152.821 116.297 153.966 115.482 153.679 114.416C153.602 114.13 153.435 113.882 153.17 113.664C153.502 113.585 153.763 113.436 153.956 113.213C154.682 112.378 154.012 111.146 153.647 110.481" fill="white"/>
<path d="M148.184 111.688C142.802 106.94 147.208 107.506 147.814 107.453C148.417 107.402 152.662 106.077 148.184 111.688Z" fill="#ED1C24"/>
<path d="M147.434 112.342C141.254 115.995 143.154 111.978 143.292 111.384C143.428 110.792 143.479 106.349 147.434 112.342Z" fill="#ED1C24"/>
<path d="M147.822 113.256C149.387 120.26 146.154 117.211 145.632 116.901C145.111 116.587 140.903 115.163 147.822 113.256" fill="#ED1C24"/>
<path d="M148.813 113.171C155.96 113.846 152.062 115.979 151.602 116.377C151.145 116.774 148.489 120.34 148.813 113.171Z" fill="#ED1C24"/>
<path d="M149.035 112.199C151.89 105.611 152.711 109.98 152.949 110.541C153.185 111.097 155.757 114.724 149.035 112.199Z" fill="#ED1C24"/>
<path d="M150.424 112.404C150.417 112.347 150.398 112.296 150.391 112.24C150.964 111.819 151.584 111.367 151.584 111.367L151.525 111.233C151.525 111.233 150.802 111.36 150.108 111.481C149.76 110.91 149.166 110.523 148.487 110.457C148.271 109.808 148.055 109.147 148.055 109.147L147.91 109.16C147.91 109.16 147.812 109.848 147.714 110.523C147.296 110.636 146.921 110.872 146.636 111.21C146.484 111.392 146.374 111.599 146.287 111.814C145.588 111.814 144.85 111.816 144.85 111.816L144.819 111.96C144.819 111.96 145.507 112.296 146.143 112.607C146.145 112.665 146.138 112.722 146.143 112.781C146.192 113.341 146.454 113.844 146.877 114.211C146.654 114.909 146.402 115.689 146.402 115.689L146.526 115.764C146.526 115.764 147.105 115.163 147.622 114.633C147.891 114.722 148.178 114.757 148.468 114.731C148.761 114.709 149.038 114.621 149.289 114.491C149.888 114.921 150.563 115.41 150.563 115.41L150.674 115.314C150.674 115.314 150.291 114.591 149.95 113.944C150.303 113.507 150.47 112.963 150.424 112.404" fill="white"/>
<path d="M148.173 111.329C147.834 111.355 147.529 111.515 147.311 111.777C147.093 112.036 146.988 112.364 147.019 112.701C147.078 113.399 147.696 113.918 148.392 113.856C148.733 113.825 149.036 113.666 149.257 113.407C149.472 113.146 149.578 112.82 149.549 112.48C149.488 111.782 148.869 111.266 148.173 111.329Z" fill="#ED1C24"/>
<path d="M52.415 111.688C57.7989 106.94 53.3894 107.506 52.7853 107.453C52.1792 107.402 47.9356 106.077 52.415 111.688Z" fill="#ED1C24"/>
<path d="M54.4536 112.607C55.094 112.296 55.7791 111.96 55.7791 111.96L55.7471 111.816C55.7471 111.816 55.0102 111.814 54.3096 111.814C54.2248 111.599 54.1145 111.392 53.9618 111.21C53.677 110.872 53.3024 110.636 52.8838 110.523C52.7879 109.848 52.6902 109.16 52.6902 109.16L52.5423 109.147C52.5423 109.147 52.328 109.808 52.1154 110.457C51.4315 110.523 50.8373 110.91 50.4896 111.481C49.7987 111.36 49.0712 111.233 49.0712 111.233L49.0151 111.367C49.0151 111.367 49.6336 111.819 50.2072 112.24C50.1978 112.296 50.1812 112.347 50.1751 112.404C50.1277 112.966 50.298 113.507 50.6512 113.944C50.3074 114.591 49.9247 115.314 49.9247 115.314L50.038 115.41C50.038 115.41 50.7118 114.921 51.3098 114.49C51.5613 114.622 51.8382 114.706 52.1298 114.731C52.4221 114.757 52.7084 114.722 52.978 114.633C53.4927 115.163 54.0719 115.764 54.0719 115.764L54.1988 115.689C54.1988 115.689 53.9469 114.909 53.7222 114.213C54.1446 113.843 54.4066 113.341 54.4563 112.78C54.4624 112.722 54.4535 112.665 54.4535 112.607" fill="white"/>
<path d="M53.2885 111.777C53.0699 111.515 52.7662 111.355 52.4259 111.329C51.7304 111.266 51.1117 111.783 51.0511 112.481C51.0223 112.82 51.1271 113.146 51.3429 113.408C51.561 113.666 51.8677 113.826 52.2063 113.857C52.9017 113.918 53.5202 113.399 53.5806 112.702C53.6091 112.365 53.5051 112.037 53.2885 111.777" fill="#ED1C24"/>
<path d="M53.2023 81.82C50.1934 81.2886 47.3122 83.3084 46.7806 86.3173C46.2497 89.3282 48.2672 92.2091 51.2764 92.7405C54.2881 93.2716 57.1705 91.2528 57.7004 88.2424C58.233 85.233 56.2142 82.3521 53.2023 81.82" fill="white"/>
<path d="M54.4573 86.0137C54.4086 85.9839 54.3237 85.9289 54.221 85.861C53.7663 85.5595 52.8749 84.9701 52.8505 84.9524C52.727 84.8676 52.6068 84.7868 52.4884 84.707C52.0921 84.4415 51.7377 84.2105 51.4044 84.0181C51.276 83.9451 51.1517 83.877 51.0268 83.8159C50.4969 83.5486 49.989 83.387 49.3894 83.3342C48.9272 83.668 48.5261 84.0812 48.2012 84.5588C49.5798 85.0567 50.9258 85.8539 53.7285 87.5947C53.8888 87.2242 54.4252 86.0831 54.4573 86.0137" fill="#ED1C24"/>
<path d="M53.1648 88.9855C53.2209 88.8459 53.4673 88.2223 53.568 87.9823C50.6959 86.1982 49.3623 85.4088 47.9806 84.9203C47.7663 85.3051 47.6057 85.7249 47.501 86.1717C48.2896 87.2545 50.4031 88.3183 53.1648 88.9855Z" fill="#ED1C24"/>
<path d="M52.8539 84.4518C53.9293 83.8157 55.1512 83.9888 56.0943 84.3107C55.7427 83.8566 55.3168 83.4597 54.8215 83.1507C53.9306 82.9735 52.7002 82.9457 51.7207 83.7243C52.0769 83.9336 52.4447 84.1777 52.8539 84.4518Z" fill="#ED1C24"/>
<path d="M48.5632 89.5901C48.7071 89.6888 48.8546 89.7827 49.0113 89.8708C49.3279 90.0457 49.6707 90.1969 50.0249 90.3264C50.1751 90.3833 50.3278 90.436 50.4818 90.4857C51.0205 90.6629 52.2568 90.9841 52.3489 91.0055C52.3679 90.9581 52.8311 89.8125 53.0068 89.3772C50.8655 88.8461 48.5208 87.9166 47.4068 86.7079C47.3399 87.266 47.3659 87.8181 47.4838 88.3417C47.7188 88.8537 48.0962 89.2616 48.5632 89.5901" fill="#ED1C24"/>
<path d="M52.4207 91.4531L51.9738 91.338C51.5596 91.2327 51.1105 91.1148 50.6538 90.9747C50.8765 91.4493 51.2269 91.8192 51.6005 92.1054C52.1011 92.1718 52.5951 92.1592 53.07 92.0771C52.7269 91.8103 52.4207 91.4531 52.4207 91.4531" fill="#ED1C24"/>
<path d="M56.8991 85.8664C56.7973 85.534 56.6638 85.2119 56.4959 84.9117C55.6517 84.5353 54.366 84.1675 53.2432 84.7168L54.7919 85.7395C55.1148 85.7107 55.4119 85.7018 55.6838 85.7084C55.8322 85.7107 55.9701 85.7188 56.1019 85.7316C56.405 85.7584 56.6638 85.8071 56.8991 85.8664" fill="#ED1C24"/>
<path d="M56.1062 86.1497C56.061 88.6949 54.8612 90.6579 53.8271 91.886C55.4456 91.3236 56.7219 89.9288 57.0403 88.1271C57.1493 87.5114 57.1301 86.9058 57.016 86.3295C56.7646 86.2512 56.4639 86.1858 56.1062 86.1497" fill="#ED1C24"/>
<path d="M51.3342 83.5087C52.059 82.8698 52.915 82.6539 53.7044 82.6362C53.504 82.5721 53.2997 82.5168 53.0869 82.4807C51.9613 82.2821 50.8601 82.4913 49.9248 82.998C50.4229 83.0954 50.873 83.2701 51.3342 83.5087Z" fill="#ED1C24"/>
<path d="M54.851 86.1523C54.4827 86.9195 54.2661 87.3893 54.0863 87.8167C54.0311 87.9462 53.9773 88.0719 53.923 88.2026C53.8372 88.417 53.5726 89.0832 53.5726 89.0832L53.4148 89.4742L52.731 91.1684C52.9195 91.4185 53.148 91.6225 53.3727 91.7818C54.3888 90.6228 55.6533 88.675 55.6919 86.1253C55.4362 86.1162 55.1549 86.1255 54.851 86.1523" fill="#ED1C24"/>
<path d="M50.1414 90.8063C49.8003 90.6889 49.4598 90.5551 49.1382 90.3984C49.2583 90.7695 49.4315 91.0989 49.606 91.3817C49.9707 91.6157 50.3711 91.8002 50.7985 91.932C50.5216 91.62 50.2825 91.2509 50.1414 90.8063Z" fill="#ED1C24"/>
<path d="M48.6362 90.1242C48.405 89.9856 48.1899 89.8314 47.9907 89.662C48.2162 90.0651 48.5002 90.4347 48.8296 90.7589C48.7513 90.5567 48.6827 90.3474 48.6362 90.1242" fill="#ED1C24"/>
<path d="M142.298 88.2428C142.83 91.2532 145.71 93.272 148.72 92.7409C151.73 92.2097 153.747 89.3286 153.219 86.3176C152.687 83.3088 149.806 81.2889 146.795 81.8203C143.784 82.3522 141.767 85.2331 142.298 88.2428" fill="white"/>
<path d="M145.54 86.0137C145.588 85.9839 145.673 85.9289 145.778 85.861C146.233 85.5595 147.123 84.9701 147.146 84.9524C147.272 84.8676 147.392 84.7868 147.511 84.707C147.903 84.4415 148.26 84.2105 148.594 84.0181C148.722 83.9451 148.848 83.877 148.971 83.8159C149.499 83.5486 150.01 83.387 150.608 83.3342C151.07 83.668 151.473 84.0812 151.794 84.5588C150.416 85.0567 149.074 85.8539 146.268 87.5947C146.107 87.2242 145.573 86.0831 145.54 86.0137" fill="#ED1C24"/>
<path d="M146.833 88.9855C146.777 88.8459 146.528 88.2223 146.433 87.9823C149.3 86.1982 150.637 85.4088 152.018 84.9203C152.231 85.3051 152.393 85.7249 152.498 86.1717C151.708 87.2545 149.594 88.3183 146.833 88.9855" fill="#ED1C24"/>
<path d="M147.144 84.4518C146.068 83.8157 144.847 83.9888 143.902 84.3107C144.255 83.8566 144.683 83.4597 145.178 83.1507C146.068 82.9735 147.297 82.9457 148.276 83.7243C147.922 83.9336 147.552 84.1777 147.144 84.4518Z" fill="#ED1C24"/>
<path d="M151.433 89.5901C151.292 89.6888 151.145 89.7827 150.986 89.8708C150.671 90.0457 150.328 90.1969 149.975 90.3264C149.823 90.3833 149.67 90.436 149.516 90.4857C148.98 90.6629 147.742 90.9841 147.65 91.0055C147.629 90.9581 147.164 89.8125 146.992 89.3772C149.133 88.8461 151.476 87.9166 152.593 86.7079C152.66 87.266 152.631 87.8181 152.515 88.3417C152.279 88.8537 151.902 89.2616 151.433 89.5901" fill="#ED1C24"/>
<path d="M147.578 91.4531L148.022 91.338C148.438 91.2327 148.89 91.1148 149.347 90.9747C149.121 91.4493 148.772 91.8192 148.399 92.1054C147.899 92.1718 147.403 92.1592 146.931 92.0771C147.27 91.8103 147.578 91.4531 147.578 91.4531" fill="#ED1C24"/>
<path d="M143.099 85.8664C143.202 85.534 143.333 85.2119 143.505 84.9117C144.346 84.5353 145.629 84.1675 146.753 84.7168L145.206 85.7395C144.882 85.7107 144.586 85.7018 144.313 85.7084C144.166 85.7107 144.028 85.7188 143.894 85.7316C143.592 85.7584 143.336 85.8071 143.099 85.8664" fill="#ED1C24"/>
<path d="M143.892 86.1497C143.936 88.6949 145.139 90.6579 146.174 91.886C144.551 91.3236 143.274 89.9288 142.959 88.1271C142.85 87.5114 142.866 86.9058 142.984 86.3295C143.233 86.2512 143.536 86.1858 143.892 86.1497" fill="#ED1C24"/>
<path d="M148.666 83.5087C147.94 82.8698 147.083 82.6539 146.294 82.6362C146.494 82.5721 146.697 82.5168 146.912 82.4807C148.037 82.2821 149.138 82.4913 150.073 82.998C149.577 83.0954 149.126 83.2701 148.666 83.5087Z" fill="#ED1C24"/>
<path d="M145.148 86.1523C145.517 86.9195 145.73 87.3893 145.915 87.8167C145.969 87.9462 146.02 88.0719 146.074 88.2026C146.162 88.417 146.426 89.0832 146.426 89.0832L146.583 89.4742L147.268 91.1684C147.078 91.4185 146.851 91.6225 146.626 91.7818C145.61 90.6228 144.344 88.675 144.308 86.1253C144.563 86.1162 144.845 86.1255 145.148 86.1523" fill="#ED1C24"/>
<path d="M149.857 90.8063C150.199 90.6889 150.537 90.5551 150.861 90.3984C150.738 90.7695 150.568 91.0989 150.391 91.3817C150.027 91.6157 149.626 91.8002 149.201 91.932C149.477 91.62 149.716 91.2509 149.857 90.8063Z" fill="#ED1C24"/>
<path d="M151.364 90.1242C151.592 89.9856 151.807 89.8314 152.008 89.662C151.782 90.0651 151.5 90.4347 151.169 90.7589C151.246 90.5567 151.315 90.3474 151.364 90.1242" fill="#ED1C24"/>
</svg>
