<svg width="200" height="200" viewBox="0 0 200 200" fill="none" xmlns="http://www.w3.org/2000/svg">
<rect width="200" height="200" fill="white"/>
<g clip-path="url(#clip0)">
<path d="M100.015 40C66.9304 40 40 66.9304 40 100.015C40 133.099 66.9304 160.029 100.015 160.029C133.099 160.029 160.029 133.099 160.029 100.015C160 66.9304 133.099 40 100.015 40Z" fill="#00285E"/>
<path d="M153.758 100.015C153.758 70.3297 129.7 46.2711 99.9853 46.2711C70.3003 46.2711 46.2124 70.3297 46.2124 100.015C46.2124 129.7 70.3003 153.788 99.9853 153.788C129.7 153.758 153.758 129.7 153.758 100.015Z" fill="white"/>
<path d="M134.242 100.015C134.242 81.1135 118.916 65.7875 100.015 65.7875C81.1136 65.7875 65.7876 81.1135 65.7876 100.015C65.7876 118.916 81.1136 134.242 100.015 134.242C118.916 134.242 134.242 118.916 134.242 100.015Z" fill="#6CADDF"/>
<path d="M100.015 136.938C79.6486 136.938 63.0918 120.352 63.0918 99.9853C63.0918 79.619 79.6486 63.0623 100.015 63.0623C120.381 63.0623 136.967 79.619 136.967 99.9853C136.938 120.381 120.381 136.938 100.015 136.938ZM100.015 65.1428C80.7914 65.1428 65.1431 80.7912 65.1431 100.015C65.1431 119.238 80.7914 134.886 100.015 134.886C119.238 134.886 134.887 119.238 134.887 100.015C134.887 80.7912 119.238 65.1428 100.015 65.1428Z" fill="#00285E"/>
<path d="M100.015 157.568C68.2783 157.568 42.4614 131.751 42.4614 100.015C42.4614 68.2784 68.2783 42.4615 100.015 42.4615C131.751 42.4615 157.568 68.2784 157.568 100.015C157.538 131.751 131.751 157.568 100.015 157.568ZM100.015 43.6923C68.9523 43.6923 43.7215 68.9524 43.7215 100.015C43.7215 131.048 68.9816 156.308 100.015 156.308C131.048 156.308 156.308 131.048 156.308 100.015C156.308 68.9524 131.048 43.6923 100.015 43.6923Z" fill="#6CADDF"/>
<path d="M51.9852 98.696L51.0181 98.9304L50.7544 97.9341L52.3661 97.4652H53.1866V103.092H51.9852V98.696Z" fill="#6CADDF"/>
<path d="M54.5933 101.538C54.5933 100.835 54.9156 100.454 55.5017 100.19C55.0621 99.9268 54.7984 99.5751 54.7984 98.9597V98.9304C54.7984 98.0806 55.5896 97.4066 56.7618 97.4066C57.9339 97.4066 58.7251 98.0806 58.7251 98.9304V98.9597C58.7251 99.5458 58.4614 99.9268 58.0218 100.19C58.5786 100.484 58.9303 100.835 58.9303 101.509V101.538C58.9303 102.564 58.0218 103.18 56.7911 103.18C55.5603 103.18 54.5933 102.506 54.5933 101.538ZM57.6995 101.451C57.6995 101.011 57.2892 100.747 56.7325 100.747C56.1757 100.747 55.7654 101.011 55.7654 101.421C55.7654 101.802 56.1171 102.125 56.7325 102.125C57.3478 102.125 57.6995 101.832 57.6995 101.451ZM57.553 99.1063C57.553 98.7546 57.2599 98.4323 56.7618 98.4323C56.2636 98.4323 55.9706 98.7253 55.9706 99.0769V99.1063C55.9706 99.4872 56.2929 99.7802 56.7618 99.7802C57.2306 99.7802 57.553 99.4872 57.553 99.1063Z" fill="#6CADDF"/>
<path d="M143.062 100.777C142.769 101.011 142.418 101.158 141.919 101.158C140.718 101.158 139.927 100.484 139.927 99.37V99.3407C139.927 98.2271 140.806 97.3773 142.066 97.3773C142.828 97.3773 143.238 97.5531 143.678 97.9927C144.088 98.403 144.322 98.989 144.322 100.103V100.132C144.322 101.949 143.473 103.18 141.89 103.18C141.07 103.18 140.542 102.916 140.044 102.506L140.689 101.568C141.099 101.89 141.451 102.037 141.919 102.037C142.769 102.037 143.004 101.245 143.062 100.777ZM143.092 99.3114C143.092 98.8132 142.74 98.4323 142.125 98.4323C141.509 98.4323 141.187 98.7839 141.187 99.2821V99.3114C141.187 99.8096 141.568 100.161 142.154 100.161C142.74 100.132 143.092 99.7803 143.092 99.3114Z" fill="#6CADDF"/>
<path d="M148.249 101.861H145.524L145.319 100.982L148.366 97.4359H149.392V100.864H150.154V101.861H149.392V103.062H148.22V101.861H148.249ZM148.249 100.864V99.1355L146.755 100.864H148.249Z" fill="#6CADDF"/>
<path d="M100.015 134.887C80.7914 134.887 65.1431 119.238 65.1431 100.015C65.1431 80.7913 80.7914 65.1429 100.015 65.1429C119.238 65.1429 134.887 80.7913 134.887 100.015C134.887 119.238 119.238 134.887 100.015 134.887ZM100.015 66.4323C81.4947 66.4323 66.4324 81.4946 66.4324 100.015C66.4324 118.535 81.4947 133.597 100.015 133.597C118.535 133.597 133.597 118.535 133.597 100.015C133.597 81.4946 118.535 66.4323 100.015 66.4323Z" fill="white"/>
<path fill-rule="evenodd" clip-rule="evenodd" d="M99.37 69.978C82.1686 69.978 72.2345 72.2344 72.2345 72.2344C72.2345 72.2344 68.2784 87.326 70.5349 106.637C71.4726 114.755 78.066 132.19 99.9268 138.169C121.788 132.22 128.381 114.755 129.319 106.637C131.575 87.2967 127.619 72.2344 127.619 72.2344C127.619 72.2344 117.685 69.978 100.484 69.978H99.37Z" fill="#00285E"/>
<path fill-rule="evenodd" clip-rule="evenodd" d="M126.3 102.154C126.095 108.015 125.187 125.538 99.8976 135.179C74.8133 125.802 73.4946 107.663 73.4946 102.154H126.3V102.154Z" fill="#97C1E7"/>
<path fill-rule="evenodd" clip-rule="evenodd" d="M125.538 101.187C126.212 86.652 123.751 74.8718 123.751 74.8718C123.751 74.8718 114.315 73.0549 99.9265 73.0549C85.5089 73.0549 75.9265 75.0476 75.9265 75.0476C75.9265 75.0476 73.3184 86.8864 74.0217 101.158H125.538V101.187Z" fill="white"/>
<path d="M100.689 134.652L73.9928 102.388C73.0257 109.04 78.4177 128.645 100.689 134.652Z" fill="#6CADDF"/>
<path d="M81.9634 102.183L106.667 131.985C109.158 130.784 111.004 129.612 112.762 128.205L91.1941 102.183H81.9634Z" fill="#6CADDF"/>
<path d="M99.1064 102.212L117.363 124.22C119.15 122.198 120.674 120.352 121.758 118.418L108.337 102.212H99.1064V102.212Z" fill="#6CADDF"/>
<path d="M125.861 102.212L116.748 102.183L124.396 111.414C125.715 108.571 125.861 103.795 125.861 102.212Z" fill="#6CADDF"/>
<path d="M110.681 114.286C110.622 114.081 110.447 113.905 110.242 113.817L108.718 113.289C108.571 113.231 108.454 113.26 108.307 113.289C108.19 112.762 107.897 112.293 107.458 111.971C107.399 111.941 107.34 111.883 107.282 111.853C107.194 111.795 107.077 111.736 106.959 111.678C106.754 111.59 106.549 111.531 106.373 111.472C105.934 111.326 105.494 111.179 104.937 110.798C104.41 110.418 104.176 110.066 103.941 109.744C103.883 109.656 103.824 109.597 103.765 109.509C103.619 109.275 103.414 109.07 103.209 108.894C102.828 108.63 102.359 108.483 101.89 108.483C101.773 108.483 101.685 108.513 101.568 108.513C101.568 108.513 101.568 108.513 101.568 108.483C101.597 108.308 101.538 108.103 101.45 107.956L100.513 106.696C100.366 106.52 100.161 106.403 99.9265 106.403C99.6921 106.403 99.4869 106.491 99.3697 106.667L98.3734 107.927C98.2562 108.073 98.1975 108.278 98.2268 108.483C98.1389 108.483 98.0803 108.454 97.9924 108.454C97.5236 108.454 97.0547 108.601 96.6737 108.864C96.6151 108.894 96.5565 108.952 96.5272 108.982C96.4393 109.07 96.3514 109.128 96.2635 109.245C96.117 109.421 95.9997 109.568 95.8825 109.744C95.5895 110.125 95.3551 110.476 94.769 110.886C94.2415 111.267 93.8312 111.385 93.4503 111.502C93.3624 111.531 93.2745 111.56 93.1866 111.59C92.9228 111.648 92.6591 111.766 92.4246 111.941C91.9558 112.264 91.6627 112.762 91.5455 113.319C91.399 113.26 91.2232 113.26 91.0474 113.289L89.5529 113.788C89.3477 113.846 89.1719 114.022 89.084 114.227C89.0254 114.432 89.0547 114.667 89.1719 114.842L90.0803 116.161C90.1975 116.308 90.3441 116.396 90.5199 116.454C90.2855 116.952 90.2268 117.568 90.4027 118.095C90.432 118.154 90.4613 118.212 90.4613 118.271C90.4906 118.388 90.5492 118.505 90.6371 118.623C90.7543 118.798 90.8715 118.974 90.9888 119.121C91.2818 119.502 91.5455 119.853 91.7507 120.527C91.9558 121.143 91.9265 121.553 91.9265 121.963C91.9265 122.051 91.9265 122.168 91.9265 122.256C91.8972 122.549 91.9265 122.813 92.0437 123.077C92.2195 123.604 92.6005 124.044 93.04 124.308C92.9814 124.425 92.9228 124.542 92.9521 124.659V126.242C92.9521 126.476 93.0693 126.681 93.2452 126.798C93.421 126.916 93.6554 126.974 93.8605 126.916L95.4137 126.476C95.5602 126.447 95.6481 126.33 95.736 126.242C96.2049 126.681 96.8496 126.886 97.4649 126.857C97.5822 126.857 97.6994 126.828 97.8459 126.798C98.051 126.74 98.2562 126.681 98.432 126.623C98.8715 126.476 99.3111 126.33 100.014 126.33C100.659 126.33 101.04 126.476 101.45 126.593C101.538 126.623 101.626 126.652 101.714 126.681C101.978 126.798 102.271 126.828 102.535 126.828C103.091 126.828 103.648 126.593 104.058 126.212C104.146 126.33 104.234 126.388 104.381 126.447L105.905 126.916C106.11 126.974 106.344 126.945 106.549 126.828C106.725 126.711 106.842 126.505 106.842 126.271L106.872 124.689C106.872 124.571 106.842 124.454 106.784 124.337C107.252 124.073 107.633 123.634 107.78 123.106C107.809 123.048 107.809 122.989 107.839 122.901C107.868 122.784 107.897 122.667 107.897 122.52C107.926 122.315 107.926 122.11 107.926 121.905C107.926 121.436 107.926 120.996 108.132 120.322C108.337 119.707 108.571 119.385 108.835 119.062C108.894 118.974 108.952 118.916 109.011 118.828C109.187 118.623 109.333 118.359 109.421 118.095C109.597 117.538 109.538 116.923 109.274 116.396C109.421 116.337 109.538 116.278 109.626 116.161L110.564 114.872C110.71 114.725 110.769 114.52 110.681 114.286Z" fill="#00285E"/>
<path d="M99.0767 117.714C99.0767 117.216 99.4869 116.835 99.9851 116.835C100.483 116.835 100.894 117.245 100.894 117.714C100.894 118.212 100.483 118.593 99.9851 118.593C99.4869 118.593 99.0767 118.183 99.0767 117.714Z" fill="#FFC758"/>
<path d="M99.9559 110.154C99.8094 109.597 99.4578 109.128 99.0182 108.864L99.9559 107.663L100.835 108.864C100.396 109.158 100.102 109.597 99.9559 110.154ZM92.7765 115.37C92.3076 115.048 91.9853 114.637 91.8094 114.139L90.4028 114.608L91.2526 115.839C91.6629 115.546 92.2197 115.37 92.7765 115.37ZM95.5603 123.663C95.1208 124.015 94.6226 124.19 94.0658 124.19V125.685L95.531 125.245C95.3552 124.777 95.3552 124.22 95.5603 123.663ZM104.352 123.692C104.557 124.22 104.557 124.747 104.381 125.245L105.817 125.685L105.846 124.19C105.348 124.22 104.82 124.044 104.352 123.692ZM107.077 115.399C107.663 115.37 108.161 115.516 108.571 115.839L109.45 114.637L108.015 114.139C107.897 114.608 107.546 115.077 107.077 115.399ZM98.1391 123.722C97.4651 123.722 96.9376 123.194 96.9376 122.52C96.9376 122.432 96.8497 122.403 96.7911 122.462C96.3516 122.989 96.0292 123.458 95.9999 124.015C95.9706 124.835 96.6739 125.509 97.5237 125.509C97.5823 125.509 97.6409 125.509 97.6702 125.509C97.7581 125.509 97.8168 125.509 97.934 125.48C98.52 125.333 99.0475 125.04 100.044 125.04C100.894 125.04 101.333 125.275 101.773 125.392C101.949 125.451 102.154 125.509 102.359 125.509C103.209 125.509 103.883 124.835 103.883 124.015C103.883 123.429 103.531 122.989 103.091 122.462C103.062 122.403 102.974 122.462 102.974 122.52C102.974 123.165 102.417 123.722 101.773 123.722C101.275 123.722 100.63 123.282 99.9853 123.282C99.4285 123.282 98.6373 123.722 98.1391 123.722ZM97.3479 122.081C97.3479 122.637 97.7875 123.077 98.3442 123.077C98.4028 123.077 98.4614 123.077 98.5494 123.048C98.5787 123.048 98.608 123.048 98.6373 123.018H98.6666C99.0182 122.901 99.3406 122.755 99.9559 122.755C100.571 122.755 100.864 122.93 101.216 123.018C101.333 123.048 101.45 123.077 101.568 123.077C102.124 123.077 102.564 122.637 102.564 122.081C102.564 121.934 102.535 121.788 102.476 121.67C102.447 121.612 102.417 121.553 102.388 121.524C102.388 121.524 100.689 119.209 100.63 119.15C100.542 119.033 100.425 119.092 100.366 119.121C100.278 119.15 100.073 119.209 99.9266 119.209C99.7801 119.209 99.6043 119.179 99.5164 119.121C99.3992 119.062 99.3113 119.033 99.2526 119.15C99.194 119.238 97.9633 120.908 97.5823 121.436C97.4358 121.612 97.3479 121.817 97.3479 122.081ZM105.172 121.319C104.967 121.963 104.293 122.286 103.648 122.081C103.56 122.051 103.502 122.11 103.56 122.198C103.941 122.755 104.264 123.223 104.82 123.429C105.612 123.692 106.491 123.253 106.725 122.462C106.754 122.403 106.754 122.374 106.754 122.315C106.784 122.256 106.784 122.169 106.813 122.081C106.872 121.465 106.725 120.908 107.048 119.941C107.311 119.15 107.663 118.799 107.927 118.418C108.044 118.271 108.161 118.095 108.22 117.919C108.483 117.128 108.044 116.249 107.253 116.015C106.696 115.839 106.139 116.044 105.494 116.278C105.436 116.308 105.436 116.366 105.524 116.396C106.168 116.601 106.52 117.275 106.315 117.919C106.168 118.388 105.553 118.857 105.348 119.473C105.172 119.971 105.348 120.821 105.172 121.319ZM103.355 121.553C103.883 121.729 104.469 121.436 104.645 120.908C104.674 120.85 104.674 120.791 104.674 120.703C104.674 120.674 104.674 120.645 104.674 120.615V120.586C104.674 120.234 104.615 119.853 104.791 119.297C104.996 118.711 105.231 118.476 105.436 118.183C105.494 118.095 105.553 117.978 105.612 117.861C105.787 117.333 105.494 116.777 104.967 116.601C104.82 116.571 104.674 116.542 104.557 116.571C104.498 116.571 104.439 116.571 104.381 116.601C104.381 116.601 101.626 117.48 101.538 117.509C101.421 117.568 101.421 117.685 101.421 117.744C101.421 117.832 101.392 118.037 101.363 118.183C101.333 118.3 101.245 118.476 101.157 118.564C101.069 118.652 101.011 118.74 101.099 118.828C101.187 118.916 102.359 120.586 102.769 121.114C102.916 121.319 103.121 121.465 103.355 121.553ZM104.996 113.875C105.553 114.256 105.67 115.018 105.26 115.546C105.201 115.604 105.26 115.692 105.348 115.663C106.022 115.487 106.549 115.311 106.901 114.843C107.399 114.169 107.253 113.231 106.579 112.733C106.549 112.703 106.491 112.674 106.432 112.645C106.374 112.586 106.315 112.557 106.198 112.527C105.641 112.293 105.055 112.234 104.234 111.648C103.56 111.15 103.326 110.711 103.033 110.33C102.945 110.183 102.798 110.037 102.623 109.89C101.949 109.392 100.982 109.538 100.513 110.212C100.19 110.681 100.19 111.267 100.22 111.941C100.22 112 100.308 112.029 100.337 111.941C100.718 111.414 101.48 111.297 102.037 111.678C102.447 111.971 102.711 112.703 103.238 113.055C103.707 113.495 104.586 113.582 104.996 113.875ZM104.674 115.692C104.996 115.253 104.908 114.608 104.439 114.286C104.41 114.256 104.352 114.198 104.264 114.169C104.234 114.169 104.205 114.139 104.176 114.139H104.146C103.795 114.022 103.443 113.963 102.945 113.612C102.447 113.26 102.3 112.938 102.095 112.674C102.037 112.586 101.949 112.498 101.861 112.41C101.421 112.088 100.776 112.176 100.454 112.645C100.366 112.762 100.308 112.879 100.278 113.026C100.278 113.084 100.249 113.143 100.249 113.201C100.249 113.201 100.249 116.073 100.249 116.161C100.249 116.308 100.366 116.308 100.454 116.337C100.542 116.366 100.747 116.454 100.835 116.513C100.952 116.601 101.07 116.718 101.128 116.806C101.187 116.894 101.245 116.982 101.363 116.923C101.48 116.864 103.443 116.249 104.059 116.044C104.322 116.015 104.527 115.868 104.674 115.692ZM97.8461 111.766C98.3735 111.385 99.1354 111.502 99.5457 112.029C99.6043 112.088 99.6922 112.088 99.6922 112C99.7215 111.326 99.7215 110.74 99.3992 110.271C98.9303 109.597 97.9633 109.451 97.2893 109.949C97.2307 109.978 97.2014 110.007 97.1721 110.037C97.1135 110.066 97.0548 110.125 96.9962 110.212C96.586 110.681 96.3516 111.209 95.531 111.795C94.857 112.293 94.3589 112.381 93.9193 112.498C93.7435 112.557 93.5384 112.615 93.3918 112.733C92.7178 113.231 92.542 114.169 93.0695 114.843C93.4211 115.311 93.9779 115.487 94.6226 115.663C94.6812 115.692 94.7105 115.604 94.6812 115.546C94.3003 115.018 94.4175 114.256 94.945 113.875C95.3552 113.582 96.1171 113.553 96.6446 113.172C97.0548 112.879 97.4358 112.059 97.8461 111.766ZM99.4871 112.645C99.1647 112.205 98.52 112.088 98.0805 112.41C98.0219 112.44 97.9926 112.469 97.934 112.527C97.9047 112.557 97.9047 112.557 97.8754 112.586L97.8461 112.615C97.6409 112.908 97.4651 113.231 96.9669 113.582C96.4688 113.934 96.1171 113.963 95.7948 114.11C95.6776 114.139 95.5603 114.198 95.4724 114.256C95.0329 114.579 94.9157 115.194 95.238 115.663C95.3259 115.78 95.4431 115.868 95.5603 115.927C95.619 115.956 95.6483 115.985 95.7069 115.985C95.7069 115.985 98.4614 116.864 98.5494 116.894C98.6959 116.923 98.7545 116.835 98.7838 116.777C98.8424 116.718 98.9596 116.542 99.0768 116.454C99.194 116.366 99.3406 116.308 99.4578 116.278C99.575 116.249 99.6629 116.22 99.6629 116.103C99.6629 115.985 99.6629 113.934 99.6629 113.289C99.6922 113.084 99.6336 112.85 99.4871 112.645ZM93.6263 117.89C93.4211 117.245 93.7728 116.571 94.3882 116.366C94.4761 116.337 94.4761 116.249 94.4175 116.22C93.7728 115.985 93.216 115.78 92.6885 115.956C91.8973 116.19 91.4578 117.07 91.7215 117.861C91.7215 117.919 91.7508 117.949 91.7801 118.007C91.8094 118.066 91.8387 118.154 91.8973 118.242C92.2197 118.769 92.6592 119.15 92.9816 120.117C93.2453 120.908 93.1574 121.407 93.1574 121.875C93.1281 122.051 93.1574 122.256 93.216 122.462C93.4798 123.253 94.3296 123.692 95.1208 123.429C95.6776 123.253 95.9999 122.784 96.3809 122.198C96.4102 122.139 96.3516 122.081 96.2929 122.11C95.6483 122.315 94.9743 121.963 94.7691 121.348C94.6226 120.879 94.8277 120.147 94.6226 119.531C94.4468 118.974 93.7728 118.359 93.6263 117.89ZM94.945 116.63C94.4175 116.806 94.1244 117.363 94.3003 117.89C94.3003 117.949 94.3296 118.007 94.3882 118.066C94.4175 118.095 94.4175 118.125 94.4468 118.125C94.4468 118.125 94.4468 118.154 94.4761 118.154C94.6812 118.447 94.945 118.711 95.1501 119.267C95.3552 119.853 95.2673 120.176 95.2966 120.527C95.2966 120.645 95.2966 120.762 95.3552 120.879C95.531 121.407 96.0878 121.7 96.6153 121.524C96.7618 121.495 96.879 121.407 96.9669 121.319C96.9962 121.289 97.0548 121.231 97.0842 121.201C97.0842 121.201 98.7838 118.886 98.8131 118.799C98.901 118.681 98.8131 118.593 98.7545 118.535C98.6959 118.476 98.5787 118.3 98.5494 118.154C98.5201 118.037 98.4907 117.861 98.4907 117.744C98.4907 117.626 98.4907 117.538 98.3735 117.509C98.2563 117.48 96.2929 116.835 95.6776 116.63C95.4431 116.571 95.2087 116.542 94.945 116.63Z" fill="#EE3124"/>
<path d="M108.396 86.7106L114.579 84.5714C114.579 84.5714 114.051 87.1502 114.198 89.1428C114.374 91.7216 115.868 93.685 115.868 93.685L108.249 96.3223L108.396 86.7106Z" fill="#FFC758"/>
<path d="M115.868 93.685C115.868 93.685 114.52 91.7509 114.286 89.4945C114.11 87.7948 114.286 86.3296 114.579 84.5714C114.315 85.7436 113.319 89.0549 110.535 92.1318C109.421 93.3626 108.923 94.4469 108.718 95.2088L108.601 80.6447C108.601 80.6447 107.136 81.1721 106.989 81.2014C106.813 81.26 106.725 81.3773 106.725 81.4066C106.725 81.4945 106.667 81.5531 106.55 81.5824C106.432 81.6117 105.582 81.934 104.996 82.1099C104.879 82.1392 104.938 82.2564 104.996 82.2564C105.7 82.2271 106.696 82.1392 106.784 82.1392C106.93 82.1099 106.989 82.0512 106.989 81.9633C106.989 81.9633 106.989 81.9633 106.989 81.934C107.018 81.8168 107.106 81.7289 107.223 81.7289C107.311 81.7289 107.839 81.6703 108.161 81.6117L108.015 97.2893H108.718V96.1758L115.868 93.685Z" fill="#D4A11E"/>
<path d="M88.469 96.7326C88.469 96.7326 87.3261 95.8828 87.0037 94.271C86.6814 92.63 87.5019 91.6923 87.5019 91.6923L95.0037 89.1135C95.0037 89.1135 94.5349 90.608 94.9744 92.3077C95.5312 94.4469 96.6741 95.8828 96.6741 95.8828C96.6741 95.8828 93.9195 95.3553 91.2528 95.7069C88.7327 96.0293 88.469 96.7326 88.469 96.7326Z" fill="#FFC758"/>
<path d="M79.8535 94.8572C79.8535 94.8572 80.7912 92.3077 83.5165 89.5239C85.5971 87.414 86.9451 86.7986 86.9451 86.7986C86.9451 86.7986 85.7436 88.5275 85.2455 91.37C84.9231 93.1282 85.2748 95.3553 85.2748 95.3553C85.2748 95.3553 83.8682 95.0623 82.2564 94.8865C80.9085 94.74 79.8535 94.8572 79.8535 94.8572Z" fill="#FFC758"/>
<path d="M86.945 86.7986C86.945 86.7986 85.7728 88.5275 85.2747 91.37C84.9523 93.1282 85.304 95.3553 85.304 95.3553C85.304 95.3553 84.9523 95.2674 84.1318 95.0916C80.7912 94.3297 86.945 86.7986 86.945 86.7986Z" fill="#D4A11E"/>
<path d="M91.3405 88.8498L91.2819 82.1099C91.1354 82.1685 89.8167 82.608 89.6702 82.6666C89.4944 82.7253 89.4065 82.8425 89.4065 82.9011C89.4065 82.989 89.3479 83.0476 89.2307 83.0769C89.1134 83.1062 88.2636 83.3992 87.6775 83.6044C87.5603 83.6337 87.6189 83.7509 87.6775 83.7509C88.3515 83.7216 89.3772 83.6337 89.4651 83.6337C89.6116 83.6044 89.6702 83.5458 89.6995 83.4579C89.6995 83.4579 89.6995 83.4579 89.6995 83.4285C89.7288 83.3113 89.8167 83.2234 89.9339 83.2234C90.0219 83.2234 90.52 83.1648 90.8717 83.1355L90.8131 88.8791H91.3405V88.8498Z" fill="#D4A11E"/>
<path d="M100.073 82.7546H100.601V76.2784C100.601 76.2784 99.1356 76.8059 98.9891 76.8352C98.8132 76.8938 98.7253 77.011 98.7253 77.0403C98.7253 77.1283 98.6667 77.1869 98.5495 77.2162C98.4323 77.2455 97.5825 77.5385 96.9964 77.7436C96.8792 77.7729 96.9378 77.8902 96.9964 77.8902C97.6997 77.8609 98.696 77.7729 98.7839 77.7729C98.9305 77.7436 98.9891 77.685 99.0184 77.5971C99.0477 77.4799 99.1356 77.392 99.2528 77.392C99.3407 77.392 99.8096 77.3334 100.161 77.3041L100.073 82.7546Z" fill="#D4A11E"/>
<path d="M98.7544 77.8022H98.7837C98.9303 77.7729 98.9889 77.7143 98.9889 77.6264C98.9889 77.5385 99.0475 77.4799 99.1354 77.4506L98.9596 76.8938C98.7837 76.9524 98.7251 77.0696 98.7251 77.0989C98.7251 77.1868 98.6665 77.2161 98.5786 77.2454L98.7544 77.8022Z" fill="#FFC758"/>
<path d="M89.4361 83.6043H89.4654C89.6119 83.575 89.6705 83.5164 89.6705 83.4285C89.6998 83.3406 89.7291 83.282 89.817 83.2527L89.6412 82.6959C89.4654 82.7545 89.4068 82.8717 89.4068 82.901C89.4068 82.989 89.3482 83.0183 89.2603 83.0476L89.4361 83.6043Z" fill="#FFC758"/>
<path d="M106.725 82.1393H106.754C106.901 82.11 106.96 82.0513 106.96 81.9634C106.989 81.8755 107.018 81.8169 107.106 81.7876L106.93 81.2308C106.754 81.2894 106.696 81.4067 106.696 81.436C106.696 81.5239 106.637 81.5532 106.549 81.5825L106.725 82.1393Z" fill="#FFC758"/>
<path d="M96.6743 95.8828C96.6743 95.8828 95.4728 94.1245 95.0039 92.2491C94.5937 90.6373 95.0039 89.1135 95.0039 89.1135C95.0039 89.1135 94.2127 91.8681 92.308 93.3626C90.9893 94.4176 87.7365 95.3846 88.4984 96.7326C88.6156 96.5567 88.938 96.2051 90.2567 95.8828C90.4032 95.8535 90.579 95.8241 90.7548 95.7948V98.0219H91.4581V95.7069C93.8904 95.4432 96.6743 95.8828 96.6743 95.8828Z" fill="#D4A11E"/>
<path d="M87.6774 91.2235C87.6774 91.2235 86.7983 90.696 86.9155 88.9964C87.0328 87.2381 87.9119 86.4762 87.9119 86.4176L93.7434 84.4249C93.7434 84.4249 93.3038 85.304 93.6262 86.6227C93.9778 88.2051 95.0035 89.1136 95.0035 89.1136C95.0035 89.1136 92.0731 89.1429 89.4357 90.0513C88.1463 90.4909 87.6774 91.2235 87.6774 91.2235Z" fill="#FFC758"/>
<path d="M91.1356 87.5605C92.8059 86.1832 93.7143 84.4249 93.7143 84.4249C93.7143 84.4249 93.4799 85.5385 93.6557 86.5348C93.9781 88.2345 94.9744 89.1136 94.9744 89.1136C94.9744 89.1136 92.6008 89.1429 90.0513 89.8755C88.3517 90.3443 87.8242 91.0183 87.6777 91.2528C87.1209 89.9634 89.436 88.9671 91.1356 87.5605Z" fill="#D4A11E"/>
<path d="M97.7878 97.1722C97.7878 97.1722 96.1761 95.9707 95.7952 93.7143C95.4728 91.9267 96.6743 90.6374 96.6743 90.6374L105.788 87.5018C105.788 87.5018 105.29 89.5238 105.759 91.4579C106.286 93.6264 108.279 96.3223 108.279 96.3223C108.279 96.3223 104.498 95.2381 101.216 95.6483C98.0809 96.0586 97.7878 97.1722 97.7878 97.1722Z" fill="#FFC758"/>
<path d="M95.9415 82.7253C95.8829 81.348 96.85 80.2345 96.8793 80.1759L103.414 77.8901C103.414 77.8901 102.974 78.9158 103.092 79.7949C103.297 81.4652 104.235 82.3443 104.235 82.3443C104.235 82.3443 101.656 82.1978 98.6375 83.2528C96.9672 83.8389 96.7913 84.6301 96.7913 84.6301C96.7913 84.6301 96.0001 84.4249 95.9415 82.7253Z" fill="#FFC758"/>
<path d="M101.099 80.9671C102.271 79.9414 103.414 77.9194 103.414 77.9194C103.414 77.9194 102.974 78.9451 103.091 79.8242C103.296 81.4945 104.234 82.3736 104.234 82.3736C104.234 82.3736 101.45 82.3443 98.7836 83.2821C97.6407 83.6923 96.9081 84.3077 96.8202 84.6594C96.4393 83.37 99.4869 82.3736 101.099 80.9671Z" fill="#D4A11E"/>
<path d="M96.8794 90.2564C96.8794 90.2564 95.9417 89.1722 95.7658 87.4726C95.59 85.7143 96.6157 85.011 96.7036 84.9524L104.264 82.3444C104.264 82.3444 104.059 82.9011 104.235 84.4249C104.411 85.7143 105.671 87.4726 105.671 87.4726C105.671 87.4726 101.627 87.5898 99.1358 88.5568C97.5534 89.1722 96.8794 90.2564 96.8794 90.2564Z" fill="#FFC758"/>
<path d="M101.89 85.8901C103.531 84.4835 104.264 82.3737 104.264 82.3737C104.264 82.3737 104.059 83.5751 104.264 84.5128C104.645 86.1539 105.817 87.5312 105.817 87.5312C105.817 87.5312 102.3 87.5898 99.751 88.4396C98.0807 88.9964 97.0551 89.9927 96.9085 90.2857C96.5276 88.8498 100.249 87.2967 101.89 85.8901Z" fill="#D4A11E"/>
<path d="M108.425 96.4689C108.425 96.4689 106.373 93.8022 105.758 91.4579C105.377 89.9048 105.67 88.1465 105.787 87.5311C105.553 88.3516 104.732 91.0183 102.71 92.8938C100.776 94.6813 96.9669 95.5311 97.7874 97.2015C97.9339 96.9377 98.3735 96.293 99.9266 95.9121L99.8973 98.0513H100.63V95.7656C104 95.2381 108.425 96.4689 108.425 96.4689Z" fill="#D4A11E"/>
<path fill-rule="evenodd" clip-rule="evenodd" d="M111.941 101.48C112.41 101.392 112.879 101.275 113.582 101.099C113.553 101.07 113.495 101.04 113.465 101.011C112.703 100.161 112.821 99.2527 113.289 98.8132C114.989 97.2308 114.96 96.0586 114.96 96.0586C114.96 96.0586 110.828 96.9084 105.377 97.2014C105.026 97.2308 103.766 97.7875 103.385 97.7875C102.623 97.8168 101.861 97.8461 101.07 97.8461C90.7839 97.934 87.9121 97.2014 84.5422 96.5861C81.1136 95.9414 79.6191 95.2674 79.6191 95.2674L79.5019 95.619C79.5019 95.619 82.1979 96.674 84.1319 97.6117C84.5422 97.8168 86.1539 100.22 86.6814 101.04H74.4616C73.7876 87.0329 76.4836 75.5751 76.4836 75.5751C76.4836 75.5751 85.8316 73.5824 99.8975 73.5824V72.0879C84.9817 72.0879 75.0477 74.1978 75.0477 74.1978C75.0477 74.1978 70.7107 89.4945 72.9964 107.722C73.9634 115.311 80.2345 129.524 99.8389 136.117L100.689 134.916L99.8389 133.714C81.3773 127.531 75.9854 115.018 75.0477 107.897C74.8425 106.315 74.696 104.733 74.5788 103.209H99.9268V101.07H86.9158C87.2088 100.132 88.1173 99.8974 89.2601 100.161C90.4323 100.454 91.6044 100.747 92.718 100.689C95.5019 100.542 95.0916 99.8095 95.3554 99.8095C98.2272 99.9853 99.3114 100.689 101.802 100.63C104.088 100.601 104.879 99.9853 105.084 99.9853C107.868 99.956 108.923 101.245 111.707 101.48C111.795 101.48 111.883 101.48 111.941 101.48Z" fill="#FFC758"/>
<path fill-rule="evenodd" clip-rule="evenodd" d="M124.718 74.1978C124.718 74.1978 114.813 72.0879 99.8974 72.0879V73.5824C113.963 73.5824 123.282 75.5751 123.282 75.5751C123.282 75.5751 126.007 87.0329 125.304 101.04H113.055C112.088 100.103 112.645 98.8718 112.967 98.5787C114.403 97.2894 114.403 96.4102 114.403 96.4102C114.403 96.4102 111.092 97.2308 105.641 97.4652C105.289 97.4652 103.766 98.1685 103.385 98.1685C102.623 98.1978 101.568 98.2271 100.777 98.2271C93.685 98.2271 90.1978 98.0806 84.0439 96.7619C84.1612 96.9084 84.2198 96.967 84.337 97.1428C84.3663 97.2014 87.033 97.8754 87.0623 97.934C87.4725 98.4908 88 98.8718 88.6447 99.2234C89.641 99.7509 91.1062 100.19 92.3077 100.278C95.0916 100.454 94.5641 99.3992 94.8278 99.3992C97.6703 99.3406 99.5165 100.366 102.007 100.337C104.293 100.308 104.352 99.5751 104.586 99.5751C106.842 99.4579 109.128 100.425 111.092 101.07H99.8974V103.209H125.158C125.04 104.762 124.894 106.315 124.689 107.897C123.751 115.048 118.359 127.531 99.8974 133.714V136.117C119.502 129.524 125.802 115.341 126.74 107.722C129.055 89.4945 124.718 74.1978 124.718 74.1978Z" fill="#D4A11E"/>
<path d="M54.1245 80.7912L55.1502 78.8278L59.7802 78.5055L57.4359 74.4908L58.4615 72.5568L66.6959 76.8938L65.7582 78.6813L60.3663 75.8681L62.6813 80.0293L62.652 80.0586L57.9633 80.5275L63.2967 83.3406L62.3589 85.1282L54.1245 80.7912Z" fill="#00285E"/>
<path d="M63.5312 66.1393L64.8206 64.762L74.3737 68.2784L72.9085 69.8316L70.7986 69.011L68.1027 71.8828L69.0404 73.9341L67.6045 75.4579L63.5312 66.1393ZM69.0111 68.3371L65.9635 67.1649L67.3115 70.1246L69.0111 68.3371Z" fill="#00285E"/>
<path d="M70.9155 59.3699L72.5272 58.4029L79.2379 61.0403L76.2782 56.1465L78.0071 55.0916L82.813 63.0329L81.3185 63.9414L74.4027 61.2161L77.4796 66.2857L75.7507 67.3406L70.9155 59.3699Z" fill="#00285E"/>
<path d="M83.4286 57.7582C82.696 55.1794 83.9854 52.5421 86.7399 51.7509C88.4103 51.2527 89.6117 51.5457 90.6667 52.1025L89.8169 53.9194C88.9377 53.4798 88.1465 53.304 87.2381 53.5677C85.7436 54.0073 85.011 55.5604 85.4506 57.1135V57.1428C85.8901 58.6666 87.326 59.6337 88.8498 59.1941C89.8755 58.9011 90.3736 58.315 90.9011 57.4652L92.5128 58.3736C91.8681 59.6337 91.0183 60.5421 89.3187 61.0403C86.7106 61.8022 84.1612 60.337 83.4286 57.7582Z" fill="#00285E"/>
<path d="M94.5933 50.2857L96.6152 50.2271L96.7325 53.9194L100.483 53.8315L100.395 50.1392L102.447 50.0806L102.681 59.3992L100.63 59.4579L100.542 55.7069L96.7618 55.8242L96.879 59.5458L94.8277 59.6044L94.5933 50.2857Z" fill="#00285E"/>
<path d="M114.491 60.6593L116.19 59.8388C116.659 60.8058 117.275 61.597 118.242 62.0366C119.004 62.3882 119.59 62.3003 119.824 61.8021V61.7728C120.058 61.304 119.853 60.923 118.623 59.9267C117.128 58.6959 116.249 57.7289 117.011 56.0585V56.0292C117.714 54.5054 119.414 54.0659 121.143 54.8571C122.374 55.4138 123.253 56.293 123.78 57.3772L122.168 58.3442C121.67 57.4651 121.055 56.8204 120.352 56.4981C119.648 56.1757 119.121 56.3223 118.916 56.7325V56.7618C118.652 57.3186 118.945 57.6703 120.234 58.7252C121.729 59.956 122.432 61.0402 121.729 62.5054V62.5347C120.967 64.2051 119.238 64.5567 117.421 63.7362C116.19 63.0915 115.106 62.0366 114.491 60.6593Z" fill="#00285E"/>
<path d="M128.088 61.2161L125.832 59.4872L126.974 57.9927L133.099 62.652L131.956 64.1758L129.7 62.4469L125.216 68.337L123.575 67.1062L128.088 61.2161Z" fill="#00285E"/>
<path d="M142.798 74.4323L144.703 78.2418C145.231 79.2967 145.348 80.2638 145.084 81.0843C144.85 81.7876 144.322 82.3443 143.531 82.7546H143.502C142.154 83.4286 140.952 83.1355 140.015 82.2564L138.051 85.7729L136.967 83.6337L138.725 80.4982L137.993 79.0623L135.326 80.4103L134.417 78.5934L142.798 74.4323ZM140.601 80.1465C141.04 81.0257 141.773 81.3187 142.476 80.9671H142.505C143.297 80.5861 143.414 79.8242 142.974 78.9451L142.066 77.1282L139.692 78.3297L140.601 80.1465Z" fill="#00285E"/>
<path d="M108.278 56.5274L111.707 57.26L112.674 55.619L108.688 54.7399L109.069 52.8937L113.934 53.9487L114.344 52.1904L107.458 50.6959L105.494 59.7802L112.439 61.304L112.82 59.5164L107.868 58.4322L108.278 56.5274Z" fill="#00285E"/>
<path d="M135.912 65.4359L128.762 71.4139L133.333 76.8352L134.71 75.663L131.487 71.7949L132.982 70.5348L135.267 73.2601L137.113 72.6447L134.388 69.3627L135.824 68.1612L139.018 71.9707L140.425 70.7985L135.912 65.4359Z" fill="#00285E"/>
<path d="M84.2197 144.791C84.2197 142.066 86.2417 139.868 89.1721 139.868C90.9597 139.868 92.0146 140.454 92.923 141.333L91.6043 142.857C90.8717 142.183 90.1391 141.802 89.1721 141.802C87.5604 141.802 86.4175 143.121 86.4175 144.762V144.791C86.4175 146.403 87.5311 147.78 89.1721 147.78C90.2564 147.78 90.9303 147.341 91.6629 146.667L92.9816 148.015C92.0146 149.07 90.9303 149.714 89.0842 149.714C86.3003 149.656 84.2197 147.487 84.2197 144.791Z" fill="#00285E"/>
<path d="M95.0039 140.015H97.0845V149.48H95.0039V140.015Z" fill="#00285E"/>
<path d="M101.919 141.949H99.0474V140.015H106.901V141.949H104.029V149.509H101.948V141.949H101.919Z" fill="#00285E"/>
<path d="M111.414 145.758L107.78 140.015H110.213L112.469 143.824L114.755 140.015H117.128L113.495 145.7V149.48H111.414V145.758Z" fill="#00285E"/>
</g>
<defs>
<clipPath id="clip0">
<rect x="40" y="40" width="120" height="120" fill="white"/>
</clipPath>
</defs>
</svg>
