<svg width="200" height="200" viewBox="0 0 200 200" fill="none" xmlns="http://www.w3.org/2000/svg">
<path d="M96.8023 198.137C63.3532 177.224 43.6421 152.447 32.4182 128.523C14.275 89.8492 18.4371 53.3283 22.5805 38.8153L23.6177 36.8513C29.7248 29.2122 44.2884 19.4152 59.7665 11.9302C73.9166 5.0868 89.1259 0 99.781 0C110.438 0 125.649 5.08645 139.798 11.9299C155.277 19.4152 169.841 29.2122 175.948 36.8517L176.985 38.8156C181.13 53.3289 185.291 89.8488 167.148 128.522C155.922 152.446 136.211 177.224 102.76 198.137L99.8307 200L96.8023 198.137Z" fill="#0560A7"/>
<path fill-rule="evenodd" clip-rule="evenodd" d="M99.7814 193.348C15.217 140.48 21.6062 62.7875 28.0095 40.3612C38.6829 27.0092 79.2431 5.64935 99.7814 5.64935C120.324 5.64935 160.884 27.0092 171.557 40.3612C177.962 62.7875 184.347 140.48 99.7814 193.348Z" fill="#FFDF1A"/>
<path fill-rule="evenodd" clip-rule="evenodd" d="M99.7983 25.1422C116.071 25.1422 147.014 39.292 154.75 49.7056C157.419 53.7087 156.349 69.8124 156.349 69.8124H99.7983V25.1422Z" fill="#0560A7"/>
<path fill-rule="evenodd" clip-rule="evenodd" d="M99.7983 25.1422C83.5249 25.1422 52.5805 39.292 44.8451 49.7056C42.1755 53.7087 43.2447 69.8124 43.2447 69.8124H99.7983V25.1422" fill="#0560A7"/>
<path fill-rule="evenodd" clip-rule="evenodd" d="M87.789 162.704L91.928 166.573C94.431 168.351 97.0379 170.105 99.7814 171.819C102.57 170.079 105.219 168.298 107.754 166.488L111.808 162.704V77.8358H87.789V162.704" fill="white"/>
<path fill-rule="evenodd" clip-rule="evenodd" d="M122.429 77.8217L151.382 109.81C152.871 105.527 154.015 101.328 154.88 97.261L137.285 77.8217H122.429" fill="#0560A7"/>
<path fill-rule="evenodd" clip-rule="evenodd" d="M148.545 77.8217L156.564 86.6808C156.891 83.5962 157.068 80.6355 157.127 77.8217H148.545Z" fill="#0560A7"/>
<path fill-rule="evenodd" clip-rule="evenodd" d="M119.751 145.009V156.219C121.665 154.513 123.494 152.791 125.222 151.053L119.751 145.009Z" fill="#0560A7"/>
<path fill-rule="evenodd" clip-rule="evenodd" d="M119.751 116.157V132.569L130.926 144.909C133.441 141.999 135.734 139.062 137.816 136.116L119.751 116.157Z" fill="#0560A7"/>
<path fill-rule="evenodd" clip-rule="evenodd" d="M119.751 87.3058V103.716L142.515 128.862C144.581 125.379 146.379 121.899 147.94 118.445L119.751 87.3058Z" fill="#0560A7"/>
<path fill-rule="evenodd" clip-rule="evenodd" d="M77.1643 77.8217L48.2122 109.81C46.7242 105.527 45.5767 101.328 44.7144 97.261L62.3095 77.8217H77.1643" fill="#0560A7"/>
<path fill-rule="evenodd" clip-rule="evenodd" d="M51.0508 77.8217L43.0312 86.6808C42.7004 83.5962 42.5266 80.6355 42.4697 77.8217H51.0508Z" fill="#0560A7"/>
<path fill-rule="evenodd" clip-rule="evenodd" d="M79.8439 145.009V156.219C77.9307 154.513 76.102 152.791 74.3722 151.053L79.8439 145.009Z" fill="#0560A7"/>
<path fill-rule="evenodd" clip-rule="evenodd" d="M79.8439 116.157V132.569L68.6722 144.909C66.1546 141.999 63.8616 139.062 61.7784 136.116L79.8439 116.157Z" fill="#0560A7"/>
<path fill-rule="evenodd" clip-rule="evenodd" d="M79.8439 87.3058V103.716L57.083 128.862C55.0149 125.379 53.2148 121.899 51.6565 118.445L79.8439 87.3058Z" fill="#0560A7"/>
<path fill-rule="evenodd" clip-rule="evenodd" d="M99.7893 27.3452C88.2474 27.3452 78.8533 36.7372 78.8533 48.2804C78.8533 59.8247 88.2474 69.2178 99.7893 69.2178C111.334 69.2174 120.726 59.8247 120.726 48.2804C120.726 36.7372 111.334 27.3452 99.7893 27.3452Z" fill="#0560A7"/>
<path fill-rule="evenodd" clip-rule="evenodd" d="M99.7983 48.1659L99.7948 48.17H99.7917V48.1645L99.7983 48.1659ZM114.886 43.236C114.544 39.522 112.897 36.2181 109.995 34.1093C107.084 31.9922 103.42 31.4576 99.769 32.2888C96.1284 31.4689 92.4816 32.0098 89.5778 34.1182C86.6646 36.2343 85.0225 39.5548 84.6848 43.285C82.7805 46.4924 82.1673 50.1292 83.2748 53.5414C84.3892 56.9664 87.0399 59.555 90.4811 61.026C92.9459 63.8281 96.2132 65.5368 99.8034 65.5368C103.404 65.5368 106.682 63.8164 109.146 60.9953C112.573 59.5215 115.206 56.9402 116.317 53.5273C117.427 50.1029 116.807 46.4531 114.886 43.236Z" fill="white"/>
<path fill-rule="evenodd" clip-rule="evenodd" d="M99.7893 35.5262L101.326 32.255L99.7893 27.7249L98.2544 32.255L99.7893 35.5262Z" fill="white"/>
<path fill-rule="evenodd" clip-rule="evenodd" d="M87.7701 44.2653L85.1332 41.7947L80.2237 41.8036L84.1864 44.7133L87.7701 44.2653Z" fill="white"/>
<path fill-rule="evenodd" clip-rule="evenodd" d="M92.3654 58.3954L89.2032 60.141L87.6252 64.906L91.6849 61.9449L92.3654 58.3954Z" fill="white"/>
<path fill-rule="evenodd" clip-rule="evenodd" d="M107.23 58.3919L107.911 61.9397L111.927 64.8591L110.393 60.1362L107.23 58.3919Z" fill="white"/>
<path fill-rule="evenodd" clip-rule="evenodd" d="M111.815 44.257L115.4 44.7054L119.32 41.8081L114.451 41.7853L111.815 44.257Z" fill="white"/>
<path fill-rule="evenodd" clip-rule="evenodd" d="M99.7893 34.9436C99.7893 34.9436 100.504 34.7173 100.504 33.4046C100.504 32.0925 99.7893 28.8145 99.7893 28.8145C99.7893 28.8145 99.0739 32.0925 99.0739 33.4046C99.0739 34.717 99.7893 34.944 99.7893 34.9436Z" fill="#0560A7"/>
<path fill-rule="evenodd" clip-rule="evenodd" d="M107.578 58.8617C107.578 58.8617 107.133 59.4664 107.903 60.528C108.675 61.59 111.184 63.8216 111.184 63.8216C111.184 63.8216 109.832 60.747 109.065 59.6857C108.291 58.6237 107.578 58.8617 107.578 58.8617Z" fill="#0560A7"/>
<path fill-rule="evenodd" clip-rule="evenodd" d="M112.373 44.0732C112.373 44.0732 112.811 44.6861 114.057 44.2804C115.308 43.8738 118.203 42.1792 118.203 42.1792C118.203 42.1792 114.863 42.5128 113.615 42.9163C112.368 43.3226 112.373 44.0732 112.373 44.0732Z" fill="#0560A7"/>
<path fill-rule="evenodd" clip-rule="evenodd" d="M106.739 45.9033C106.739 45.9033 107.012 46.6221 107.772 46.4696C108.962 46.2306 107.831 45.5577 111.703 44.298C112.946 43.8948 114.397 44.019 114.996 45.3252C115.672 46.8035 115.025 48.0493 114.335 48.6512C113.374 49.4928 112.555 52.3056 112.555 52.3056V52.309C112.555 52.309 111.567 55.0587 111.849 56.3045C112.051 57.1954 111.845 58.5847 110.425 59.3846C109.176 60.0868 107.928 59.337 107.16 58.2784C104.765 54.9842 106.075 55.1035 105.257 54.2109C104.73 53.64 104.095 54.0729 104.095 54.0729C104.095 54.0729 103.496 54.5523 103.874 55.2273C104.468 56.2859 104.76 55.0025 107.153 58.2967C107.923 59.3553 108.25 60.7756 107.197 61.7455C105.998 62.8479 104.612 62.6151 103.828 62.1474C102.727 61.4917 99.8031 61.5845 99.8031 61.5845H99.7979C99.7979 61.5845 96.8779 61.492 95.7779 62.1474C94.9946 62.6137 93.6108 62.8486 92.4105 61.7455C91.3537 60.7753 91.6848 59.3553 92.455 58.2967C94.847 55.0025 95.1381 56.2859 95.7324 55.2273C96.1132 54.5523 95.5044 54.0808 95.5044 54.0808C95.5044 54.0808 94.8632 53.6583 94.3393 54.2288C93.5153 55.1211 94.826 55.0025 92.4337 58.296C91.6628 59.3549 90.4166 60.1065 89.1649 59.4025C87.7476 58.6027 87.5417 57.2127 87.7425 56.3224C88.026 55.0766 87.0361 52.3201 87.0361 52.3201L87.0337 52.3159C87.0337 52.3159 86.2176 49.5114 85.256 48.6684C84.5662 48.0676 83.9191 46.8207 84.5986 45.3411C85.1963 44.0376 86.645 43.9117 87.8894 44.316C91.7624 45.5732 90.6342 46.2482 91.8225 46.4865C92.5827 46.6397 92.8427 45.9181 92.8427 45.9181C92.8427 45.9181 93.0476 45.1765 92.3409 44.8527C91.2378 44.3453 91.7573 45.5556 87.8842 44.2963C86.6394 43.8928 85.5395 42.938 85.823 41.5322C86.1448 39.9356 87.402 39.3113 88.3116 39.2271C89.5853 39.1116 91.9008 37.3173 91.9008 37.3173L91.9039 37.3142C91.9039 37.3142 94.3203 35.6721 94.8239 34.4973C95.183 33.6571 96.1677 32.6551 97.7843 32.8417C99.2095 33.0059 99.7758 34.3479 99.7758 35.6565C99.7758 39.7279 98.7887 38.8618 98.928 40.0683C99.016 40.8379 99.7862 40.8617 99.7862 40.8617C99.7862 40.8617 100.555 40.8258 100.644 40.0552C100.786 38.8501 99.7914 39.7176 99.7945 35.6465C99.7945 34.3359 100.364 32.9955 101.789 32.8303C103.406 32.643 104.388 33.6454 104.747 34.4845C105.251 35.6593 107.675 37.3073 107.675 37.3073L107.676 37.3097C107.676 37.3097 109.988 39.1012 111.26 39.2164C112.168 39.2971 113.424 39.9242 113.747 41.5197C114.031 42.9273 112.931 43.8807 111.685 44.2856C107.815 45.5446 108.332 44.3353 107.229 44.8399C106.527 45.1634 106.739 45.9033 106.739 45.9033Z" fill="white"/>
<path fill-rule="evenodd" clip-rule="evenodd" d="M88.7524 48.2804C88.7524 42.1841 93.695 37.2432 99.7896 37.2432C105.887 37.2432 110.827 42.1851 110.827 48.2804C110.827 54.3768 105.887 59.318 99.7896 59.318C93.695 59.318 88.7524 54.3771 88.7524 48.2804Z" fill="#0560A7"/>
<path fill-rule="evenodd" clip-rule="evenodd" d="M106.739 45.9033C106.739 45.9033 107.012 46.6221 107.772 46.4696C108.962 46.2306 107.831 45.5577 111.703 44.298C112.946 43.8948 114.397 44.019 114.996 45.3252C115.672 46.8035 115.025 48.0493 114.335 48.6512C113.374 49.4928 112.555 52.3056 112.555 52.3056V52.309C112.555 52.309 111.567 55.0587 111.849 56.3045C112.051 57.1954 111.845 58.5847 110.425 59.3846C109.176 60.0868 107.928 59.337 107.16 58.2784C104.765 54.9842 106.075 55.1035 105.257 54.2109C104.73 53.64 104.095 54.0729 104.095 54.0729C104.095 54.0729 103.496 54.5523 103.874 55.2273C104.468 56.2859 104.76 55.0025 107.153 58.2967C107.923 59.3553 108.25 60.7756 107.197 61.7455C105.998 62.8479 104.612 62.6151 103.828 62.1474C102.727 61.4917 99.8031 61.5845 99.8031 61.5845H99.7979C99.7979 61.5845 96.8779 61.492 95.7779 62.1474C94.9946 62.6137 93.6108 62.8486 92.4105 61.7455C91.3537 60.7753 91.6848 59.3553 92.455 58.2967C94.847 55.0025 95.1381 56.2859 95.7324 55.2273C96.1132 54.5523 95.5044 54.0808 95.5044 54.0808C95.5044 54.0808 94.8632 53.6583 94.3393 54.2288C93.5153 55.1211 94.826 55.0025 92.4337 58.296C91.6628 59.3549 90.4166 60.1065 89.1649 59.4025C87.7476 58.6027 87.5417 57.2127 87.7425 56.3224C88.026 55.0766 87.0361 52.3201 87.0361 52.3201L87.0337 52.3159C87.0337 52.3159 86.2176 49.5114 85.256 48.6684C84.5662 48.0676 83.9191 46.8207 84.5986 45.3411C85.1963 44.0376 86.645 43.9117 87.8894 44.316C91.7624 45.5732 90.6342 46.2482 91.8225 46.4865C92.5827 46.6397 92.8427 45.9181 92.8427 45.9181C92.8427 45.9181 93.0476 45.1765 92.3409 44.8527C91.2378 44.3453 91.7573 45.5556 87.8842 44.2963C86.6394 43.8928 85.5395 42.938 85.823 41.5322C86.1448 39.9356 87.402 39.3113 88.3116 39.2271C89.5853 39.1116 91.9008 37.3173 91.9008 37.3173L91.9039 37.3142C91.9039 37.3142 94.3203 35.6721 94.8239 34.4973C95.183 33.6571 96.1677 32.6551 97.7843 32.8417C99.2095 33.0059 99.7758 34.3479 99.7758 35.6565C99.7758 39.7279 98.7887 38.8618 98.928 40.0683C99.016 40.8379 99.7862 40.8617 99.7862 40.8617C99.7862 40.8617 100.555 40.8258 100.644 40.0552C100.786 38.8501 99.7914 39.7176 99.7945 35.6465C99.7945 34.3359 100.364 32.9955 101.789 32.8303C103.406 32.643 104.388 33.6454 104.747 34.4845C105.251 35.6593 107.675 37.3073 107.675 37.3073L107.676 37.3097C107.676 37.3097 109.988 39.1012 111.26 39.2164C112.168 39.2971 113.424 39.9242 113.747 41.5197C114.031 42.9273 112.931 43.8807 111.685 44.2856C107.815 45.5446 108.332 44.3353 107.229 44.8399C106.527 45.1634 106.739 45.9033 106.739 45.9033Z" fill="white"/>
<path d="M106.739 45.9033C106.739 45.9033 107.012 46.6221 107.772 46.4696C108.962 46.2306 107.831 45.5577 111.703 44.298C112.946 43.8948 114.397 44.019 114.996 45.3252C115.672 46.8035 115.025 48.0493 114.335 48.6512C113.374 49.4928 112.555 52.3056 112.555 52.3056V52.309C112.555 52.309 111.567 55.0587 111.849 56.3045C112.051 57.1954 111.845 58.5847 110.425 59.3846C109.176 60.0868 107.928 59.337 107.16 58.2784C104.765 54.9842 106.075 55.1035 105.257 54.2109C104.73 53.64 104.095 54.0729 104.095 54.0729C104.095 54.0729 103.496 54.5523 103.874 55.2273C104.468 56.2859 104.76 55.0025 107.153 58.2967C107.923 59.3553 108.25 60.7756 107.197 61.7455C105.998 62.8479 104.612 62.6151 103.828 62.1474C102.727 61.4917 99.8031 61.5845 99.8031 61.5845H99.7979C99.7979 61.5845 96.8779 61.492 95.7779 62.1474C94.9946 62.6137 93.6108 62.8486 92.4105 61.7455C91.3537 60.7753 91.6848 59.3553 92.455 58.2967C94.847 55.0025 95.1381 56.2859 95.7324 55.2273C96.1132 54.5523 95.5044 54.0808 95.5044 54.0808C95.5044 54.0808 94.8632 53.6583 94.3393 54.2288C93.5153 55.1211 94.826 55.0025 92.4337 58.296C91.6628 59.3549 90.4166 60.1065 89.1649 59.4025C87.7476 58.6027 87.5417 57.2127 87.7425 56.3224C88.026 55.0766 87.0361 52.3201 87.0361 52.3201L87.0337 52.3159C87.0337 52.3159 86.2176 49.5114 85.256 48.6684C84.5662 48.0676 83.9191 46.8207 84.5986 45.3411C85.1963 44.0376 86.645 43.9117 87.8894 44.316C91.7624 45.5732 90.6342 46.2482 91.8225 46.4865C92.5827 46.6397 92.8427 45.9181 92.8427 45.9181C92.8427 45.9181 93.0476 45.1765 92.3409 44.8527C91.2378 44.3453 91.7573 45.5556 87.8842 44.2963C86.6394 43.8928 85.5395 42.938 85.823 41.5322C86.1448 39.9356 87.402 39.3113 88.3116 39.2271C89.5853 39.1116 91.9008 37.3173 91.9008 37.3173L91.9039 37.3142C91.9039 37.3142 94.3203 35.6721 94.8239 34.4973C95.183 33.6571 96.1677 32.6551 97.7843 32.8417C99.2095 33.0059 99.7758 34.3479 99.7758 35.6565C99.7758 39.7279 98.7887 38.8618 98.928 40.0683C99.016 40.8379 99.7862 40.8617 99.7862 40.8617C99.7862 40.8617 100.555 40.8258 100.644 40.0552C100.786 38.8501 99.7945 39.7176 99.7945 35.6465C99.7945 34.3359 100.364 32.9955 101.789 32.8303C103.406 32.643 104.388 33.6454 104.747 34.4845C105.251 35.6593 107.675 37.3073 107.675 37.3073L107.676 37.3097C107.676 37.3097 109.988 39.1012 111.26 39.2164C112.168 39.2971 113.424 39.9242 113.747 41.5197C114.031 42.9273 112.931 43.8807 111.685 44.2856C107.815 45.5446 108.332 44.3353 107.229 44.8399C106.527 45.1634 106.739 45.9033 106.739 45.9033Z" stroke="#0560A7" stroke-width="1.166"/>
<path fill-rule="evenodd" clip-rule="evenodd" d="M99.7983 45.7946L102.048 47.3388L101.186 50.273H98.1713L97.4542 47.3388L99.7983 45.7946Z" fill="#FFDF1A"/>
<path d="M99.7983 45.7946L102.048 47.3388L101.186 50.273H98.1713L97.4542 47.3388L99.7983 45.7946Z" stroke="#0560A7" stroke-width="0.491"/>
<path d="M95.2209 46.3434L97.4542 47.3388" stroke="#0560A7" stroke-width="0.491"/>
<path d="M99.7983 43.1829V45.7946" stroke="#0560A7" stroke-width="0.491"/>
<path d="M104.371 46.8535L102.004 47.5264" stroke="#0560A7" stroke-width="0.491"/>
<path d="M98.1341 50.2447L96.7889 52.1304" stroke="#0560A7" stroke-width="0.491"/>
<path d="M100.998 50.273L102.595 52.1304" stroke="#0560A7" stroke-width="0.491"/>
<path fill-rule="evenodd" clip-rule="evenodd" d="M97.8764 42.6814L99.7983 43.2098L101.789 42.6552L101.842 41.9271C101.842 41.9271 100.463 41.4687 99.7345 41.4901C99.2492 41.5029 97.8381 41.814 97.8381 41.814L97.8764 42.6814Z" fill="#FFDF1A"/>
<path d="M97.8764 42.6814L99.7983 43.2098L101.789 42.6552L101.842 41.9271C101.842 41.9271 100.463 41.4687 99.7345 41.4901C99.2492 41.5029 97.8381 41.814 97.8381 41.814L97.8764 42.6814Z" stroke="#0560A7" stroke-width="0.491"/>
<path fill-rule="evenodd" clip-rule="evenodd" d="M104.468 44.8537L104.413 46.8925L105.512 48.6454L106.378 48.4363C106.378 48.4363 106.428 46.8463 106.24 46.3965C106.048 45.9467 105.349 44.5388 105.349 44.5388L104.468 44.8537Z" fill="#FFDF1A"/>
<path d="M104.468 44.8537L104.413 46.8925L105.512 48.6454L106.378 48.4363C106.378 48.4363 106.428 46.8463 106.24 46.3965C106.048 45.9467 105.349 44.5388 105.349 44.5388L104.468 44.8537Z" stroke="#0560A7" stroke-width="0.491"/>
<path fill-rule="evenodd" clip-rule="evenodd" d="M104.555 51.4278L102.669 52.2018L101.492 53.7856L101.945 54.5065C101.945 54.5065 103.521 53.8791 103.857 53.5238C104.213 53.1413 105.226 52.1097 105.226 52.1097L104.555 51.4278Z" fill="#FFDF1A"/>
<path d="M104.555 51.4278L102.669 52.2018L101.492 53.7856L101.945 54.5065C101.945 54.5065 103.521 53.8791 103.857 53.5238C104.213 53.1413 105.226 52.1097 105.226 52.1097L104.555 51.4278Z" stroke="#0560A7" stroke-width="0.491"/>
<path fill-rule="evenodd" clip-rule="evenodd" d="M98.0185 53.7432L96.7044 52.2087L94.9495 51.3426L94.3055 52.0493C94.3055 52.0493 95.3913 53.3927 95.8273 53.618C96.2574 53.8429 97.575 54.4516 97.575 54.4516L98.0185 53.7432Z" fill="#FFDF1A"/>
<path d="M98.0185 53.7432L96.7044 52.2087L94.9495 51.3426L94.3055 52.0493C94.3055 52.0493 95.3913 53.3927 95.8273 53.618C96.2574 53.8429 97.575 54.4516 97.575 54.4516L98.0185 53.7432Z" stroke="#0560A7" stroke-width="0.491"/>
<path fill-rule="evenodd" clip-rule="evenodd" d="M93.9306 47.9241L95.2209 46.3434L95.4165 44.2846L94.7556 43.9738C94.7556 43.9738 93.7888 45.2455 93.6367 45.7098C93.4563 46.2751 93.1425 47.651 93.1425 47.651L93.9306 47.9241Z" fill="#FFDF1A"/>
<path d="M93.9306 47.9241L95.2209 46.3434L95.4165 44.2846L94.7556 43.9738C94.7556 43.9738 93.7888 45.2455 93.6367 45.7098C93.4563 46.2751 93.1425 47.651 93.1425 47.651L93.9306 47.9241Z" stroke="#0560A7" stroke-width="0.491"/>
<path d="M93.1704 48.1728C93.1704 44.5143 96.1367 41.5484 99.7986 41.5484C103.455 41.5484 106.418 44.5143 106.418 48.1728C106.418 51.8317 103.455 54.7976 99.7986 54.7976C96.1363 54.7976 93.1704 51.8317 93.1704 48.1728Z" stroke="#0560A7" stroke-width="0.935"/>
<path fill-rule="evenodd" clip-rule="evenodd" d="M90.5221 35.331L93.9665 33.6188L91.3203 36.4285L87.8353 38.0827L90.5221 35.331Z" fill="#0560A7"/>
<path fill-rule="evenodd" clip-rule="evenodd" d="M99.7114 63.9275L95.919 63.2883L99.7114 62.5699L103.501 63.2811L99.7114 63.9275Z" fill="#0560A7"/>
<path fill-rule="evenodd" clip-rule="evenodd" d="M114.766 53.064L112.985 56.4739L113.474 52.6453L115.321 49.2586L114.766 53.064Z" fill="#0560A7"/>
<path fill-rule="evenodd" clip-rule="evenodd" d="M109.085 35.3906L111.777 38.1375L108.291 36.4895L105.638 33.6843L109.085 35.3906Z" fill="#0560A7"/>
<path fill-rule="evenodd" clip-rule="evenodd" d="M84.7276 52.9675L84.1647 49.1627L86.02 52.5463L86.5146 56.3735L84.7276 52.9675Z" fill="#0560A7"/>
<path fill-rule="evenodd" clip-rule="evenodd" d="M87.2175 44.0914C87.2175 44.0914 87.2248 43.3385 85.9748 42.9336C84.7272 42.528 81.386 42.1975 81.386 42.1975C81.386 42.1975 84.2847 43.8917 85.5319 44.2963C86.7829 44.7026 87.2175 44.0914 87.2175 44.0914Z" fill="#0560A7"/>
<path fill-rule="evenodd" clip-rule="evenodd" d="M92.0339 58.8724C92.0339 58.8724 91.3206 58.6334 90.548 59.6974C89.7782 60.7591 88.4282 63.8333 88.4282 63.8333C88.4282 63.8333 90.936 61.6007 91.7086 60.5387C92.4781 59.4767 92.0339 58.8728 92.0339 58.8724Z" fill="#0560A7"/>
<path fill-rule="evenodd" clip-rule="evenodd" d="M109.551 95.3561C109.551 95.1319 109.241 95.244 109.131 95.3561C109.015 95.4671 106.805 97.568 105.29 97.6242C103.78 97.6808 101.508 97.6242 98.6814 96.168C99.6037 94.6266 101.508 91.2374 102.377 87.987C105.095 87.511 107.252 86.0796 108.091 84.9907C109.044 83.7573 109.41 82.0765 108.681 81.3488C107.253 79.9198 103.555 80.0877 101.454 84.1215C101.014 84.9672 100.604 85.8695 100.221 86.7877C99.3344 86.6801 98.4034 86.23 98.2296 86.0834C98.0365 85.914 97.895 85.8299 97.9237 86.0548C97.953 86.2796 97.895 86.5311 97.895 86.5311C97.895 86.5311 97.7557 86.8398 97.9785 86.9226C98.6083 87.2802 99.2709 87.4762 99.9135 87.5562C98.6238 90.7866 97.636 94.0854 96.6913 95.7482C95.7114 95.3268 94.1976 95.2157 93.0783 95.5516C91.9573 95.8876 89.912 96.8671 90.11 98.6328C90.3045 100.399 93.5526 100.285 93.8326 100.258C94.1134 100.231 96.1308 99.9496 97.5881 97.7919C99.7734 99.2484 101.594 100.062 103.219 100.032C104.844 100.007 107.784 99.5564 109.521 96.2511C109.607 96.0842 109.551 95.5799 109.551 95.3561Z" fill="#0560A7"/>
<path fill-rule="evenodd" clip-rule="evenodd" d="M96.0739 96.7275C94.9005 95.8883 93.1632 95.7755 92.2678 97.0362C91.37 98.2972 92.7689 98.6611 93.079 98.6611C93.386 98.6611 94.7877 98.9415 96.0739 96.7275Z" fill="white"/>
<path fill-rule="evenodd" clip-rule="evenodd" d="M105.74 118.445C105.963 118.376 106.159 118.431 106.214 118.57C106.273 118.71 106.853 119.98 106.209 121.23C105.671 122.278 104.445 122.882 102.858 122.67C101.684 122.513 100.012 121.162 99.9828 119.593C99.4513 120.379 97.6564 122.841 94.1055 122.355C90.1569 121.807 92.1857 117.108 92.7227 116.29C94.3103 113.864 97.3001 108.561 97.6156 107.906C97.9312 107.254 98.5469 105.665 97.5777 105.255C96.6061 104.845 95.1957 105.593 94.4386 106.842C94.2082 107.225 94.1603 107.012 94.0303 106.919C93.8985 106.824 93.8254 106.673 93.7485 106.543C93.6757 106.412 93.9637 106.133 94.0579 106.002C94.151 105.873 95.8138 103.782 98.371 104.406C100.379 104.894 100.625 106.02 100.528 107.011C100.434 107.999 95.4296 116.125 94.758 117.897C94.0875 119.673 94.4956 120.72 95.4479 120.794C96.4002 120.867 98.7335 120.586 100.266 117.244C101.799 113.899 104.225 108.767 104.75 107.702C105.272 106.637 106.055 105.161 106.203 104.938C106.357 104.713 106.336 104.621 106.787 104.677C107.232 104.734 108.334 104.883 108.557 104.883C108.782 104.883 108.642 105.338 108.473 105.562C108.307 105.788 103.178 115.955 102.508 118.048C101.835 120.142 103.092 120.647 103.347 120.72C103.78 120.839 105.138 120.927 105.349 119.879C105.456 119.334 105.272 118.897 105.231 118.785C105.192 118.672 105.305 118.626 105.305 118.626C105.305 118.626 105.515 118.516 105.74 118.445Z" fill="#0560A7"/>
<path fill-rule="evenodd" clip-rule="evenodd" d="M109.74 126.126C109.656 125.955 109.435 125.939 109.297 126.183C109.162 126.428 108.783 127.024 108.036 127.171C105.758 127.626 103.975 127.403 101.436 127.252C98.8939 127.104 95.5717 127.308 94.619 128.513C93.6657 129.716 94.0613 130.579 94.2558 130.922C94.5338 131.426 95.1233 131.876 95.9349 132.098C96.7478 132.324 97.3621 132.127 97.6436 131.932C97.924 131.736 97.447 131.51 97.2794 131.398C97.1114 131.288 96.0239 131.035 95.9987 130.53C95.9859 130.307 96.1087 129.662 96.7813 129.355C97.4522 129.046 99.0463 128.879 100.389 129.046C100.332 130.364 99.5489 133.837 98.9618 135.098C98.0916 135.098 95.3251 135.249 94.7039 136.889C94.3938 137.702 94.6487 138.402 94.9257 138.624C95.2064 138.849 95.403 138.823 95.403 138.541C95.403 138.263 95.4299 137.705 95.7114 137.396C95.9904 137.089 97.0834 136.61 98.5683 136.889C98.0913 138.57 96.6626 142.801 95.1509 143.583C93.6391 144.369 92.6747 143.78 92.5489 143.609C92.2695 143.23 92.1825 142.882 92.1825 142.685C92.1825 142.487 91.6507 141.874 91.4796 142.743C91.3127 143.611 92.1222 144.921 93.4053 145.241C95.6886 145.814 97.001 144.481 97.4232 144.143C97.8433 143.808 100.077 141.562 101.254 137.158C102.209 137.272 103.58 137.242 104.112 137.019C105.358 136.487 105.811 135.678 105.896 135.174C105.978 134.67 105.94 134.256 105.827 134.005C105.714 133.751 105.323 133.388 105.267 133.695C105.208 134.005 105.267 134.537 104.734 134.929C104.575 135.046 103.754 135.686 101.735 135.348C102.127 134.115 103.081 129.186 103.081 129.186C104.146 129.271 106.495 129.102 107.197 128.905C107.898 128.71 109.161 128.137 109.576 127.308C109.886 126.695 109.827 126.298 109.74 126.126Z" fill="#0560A7"/>
<path fill-rule="evenodd" clip-rule="evenodd" d="M102.857 86.6998C103.164 85.7468 103.837 83.3941 104.254 82.8891C104.676 82.3859 105.85 81.4884 106.805 82.3859C107.754 83.2813 106.59 84.8834 106.326 85.1021C104.845 86.3638 102.857 86.6998 102.857 86.6998Z" fill="white"/>
<path fill-rule="evenodd" clip-rule="evenodd" d="M106.802 149.888C107.816 148.28 106.756 146.25 105.767 145.897C105.383 145.756 103.056 145.004 99.8997 147.013C96.8175 148.975 93.4036 152.251 92.6596 157.402C91.9159 162.553 95.492 164.385 95.8942 164.497C96.2939 164.612 99.7472 165.943 102.133 162.923C103.535 161.15 103.535 160.664 103.65 160.377C103.765 160.091 103.248 159.748 103.02 160.091C102.79 160.434 101.475 162.381 100.502 162.898C99.5275 163.41 97.4967 163.669 96.6382 162.438C95.7169 161.115 95.5503 159.206 96.008 157.314C96.4667 155.425 97.9264 151.019 100.673 148.67C103.422 146.326 105.138 146.468 105.71 146.869C106.283 147.271 106.613 148.691 106.159 149.549C105.988 149.872 106.552 150.288 106.802 149.888Z" fill="#0560A7"/>
</svg>
