<svg width="200" height="200" viewBox="0 0 200 200" fill="none" xmlns="http://www.w3.org/2000/svg">
<rect width="200" height="200" fill="white"/>
<path d="M158.345 99.9992C158.345 132.224 132.224 158.345 100.001 158.345C67.7775 158.345 41.6548 132.224 41.6548 99.9992C41.6548 67.776 67.7775 41.6548 100.001 41.6548C132.224 41.6544 158.345 67.776 158.345 99.9992Z" fill="white"/>
<path fill-rule="evenodd" clip-rule="evenodd" d="M100.001 43.1548C68.6058 43.1548 43.1548 68.6045 43.1548 99.9992C43.1548 131.395 68.6059 156.845 100.001 156.845C131.395 156.845 156.845 131.395 156.845 99.9992C156.845 68.6044 131.395 43.1544 100.001 43.1548ZM40.1548 99.9992C40.1548 66.9475 66.9491 40.1548 100.001 40.1548C133.052 40.1543 159.845 66.9476 159.845 99.9992C159.845 133.052 133.052 159.845 100.001 159.845C66.949 159.845 40.1548 133.052 40.1548 99.9992Z" fill="#0053A0"/>
<path fill-rule="evenodd" clip-rule="evenodd" d="M46.0474 100.689C45.6704 70.8991 69.5231 46.4341 99.3147 46.0564C129.105 45.6792 153.57 69.5336 153.947 99.3237C154.324 129.114 130.47 153.579 100.68 153.955C70.89 154.333 46.4251 130.479 46.0474 100.689H46.0472H46.0474ZM99.3061 45.3836C69.144 45.7655 44.9926 70.5356 45.3746 100.698C45.7567 130.86 70.5266 155.01 100.689 154.629C130.851 154.247 155.001 129.477 154.62 99.3151C154.238 69.153 129.468 45.0016 99.3061 45.3836V45.3836Z" fill="#0053A0"/>
<path fill-rule="evenodd" clip-rule="evenodd" d="M98.0189 64.1457C91.3952 64.13 83.6996 66.7555 78.527 71.0373C78.5099 71.0487 78.5099 71.0944 78.5455 71.1129C81.5032 72.286 83.5315 73.8425 86.6929 75.6128C86.8069 75.6755 86.8469 75.6484 86.8711 75.5458C88.4005 67.7775 97.8834 69.9327 98.7686 64.2683C98.7301 64.2298 98.7358 64.16 98.6546 64.1557C98.445 64.15 98.2312 64.1471 98.0189 64.1457ZM101.963 64.1557C101.897 64.1557 101.876 64.1828 101.879 64.2868C101.481 65.2846 102.65 66.3237 103.331 66.9964C103.397 67.0577 103.505 67.129 103.586 67.1646C107.82 68.8879 112.505 70.1607 113.531 75.0298C113.552 75.1053 113.567 75.1538 113.645 75.0868C115.901 73.5902 118.139 72.0722 120.423 70.6325C120.54 70.5841 120.497 70.5299 120.423 70.4829C115.263 66.814 108.816 64.4265 101.963 64.1557V64.1557ZM75.5637 73.5032C71.4357 77.1636 67.8936 81.9514 66.0489 87.3307C66.0283 87.3834 66.0598 87.4076 66.1333 87.4148C70.1728 87.7797 71.4927 82.5115 74.5887 80.5531C74.6301 80.5288 74.6671 80.5075 74.6643 80.4576C74.4448 78.0573 74.3393 76.0347 75.5637 73.5032V73.5032ZM125.393 74.6549C125.621 76.5179 125.447 78.2853 124.953 80.0072C124.931 80.0884 124.934 80.1511 125.027 80.2138C128.011 81.8102 129.629 86.4726 133.079 86.6551C133.121 86.6736 133.187 86.6764 133.163 86.6194C131.965 82.4588 128.522 77.5356 125.393 74.6549V74.6549ZM134.27 89.3461C130.037 93.5909 136.907 100.703 127.587 104.673C126.764 104.915 125.975 105.203 125.23 105.206C123.158 105.216 120.209 103.635 120.227 106.781C120.227 106.838 120.279 106.878 120.347 106.905C123.226 108.138 127.118 110.811 127.18 114.93C127.322 119.84 122.153 123.147 122.973 127.811C134.018 118.26 138.561 104.157 134.27 89.3461ZM65.2226 90.0474C65.187 90.0574 65.1609 90.0959 65.1287 90.1714C60.946 101.601 65.0559 119.37 77.8869 128.756C77.8897 128.514 78.0308 128.009 78.1776 127.67C78.2318 127.539 78.2233 127.371 78.1776 127.211C77.7073 125.144 76.4743 123.06 75.3013 121.032C71.2544 114.314 73.501 109.707 80.0349 106.718C80.119 106.691 80.1375 106.644 80.0919 106.557C79.9907 106.335 79.8909 106.116 79.7926 105.89C79.7627 105.83 79.7926 105.711 79.6429 105.732C78.1776 105.915 76.5285 106.044 75.0376 105.977C72.794 105.477 70.6514 104.583 69.0381 102.207C66.1497 98.1749 70.1054 92.7513 65.3351 90.0774C65.2956 90.0546 65.2584 90.0389 65.2226 90.0474V90.0474ZM125.711 106.569C125.819 106.569 125.93 106.585 126.039 106.614C127.487 106.878 129.678 107.731 130.979 109.341C131.063 109.445 131.025 109.532 130.895 109.521C128.804 109.458 126.455 109.227 124.829 107.946C124.598 107.763 124.385 107.582 124.548 107.148C124.667 106.872 125.051 106.661 125.372 106.604C125.488 106.585 125.6 106.566 125.711 106.569V106.569ZM73.9886 107.421C74.1055 107.418 74.2195 107.421 74.3364 107.43C74.4334 107.441 74.5317 107.441 74.5973 107.505C74.9992 107.984 74.9194 108.654 74.1682 109.173C72.5818 110.189 70.7428 110.246 69.0489 110.319C68.9826 110.322 68.8666 110.249 68.9833 110.139C70.5267 108.725 72.234 107.438 73.9886 107.421ZM102.668 126.686C102.647 126.684 102.623 126.689 102.603 126.705C101.303 127.322 99.2604 127.623 98.1115 126.977C97.9732 126.909 97.892 126.96 97.8378 127.04C95.7739 130.535 90.8692 130.452 87.3871 129.564C84.8 128.981 82.2686 128.243 80.1776 130.314C91.0645 138.165 107.847 138.41 120.443 129.771C118.067 128.649 115.91 129.456 113.297 130.062C110.34 130.749 106.188 131.37 102.837 126.762C102.78 126.746 102.728 126.689 102.668 126.686V126.686ZM100.493 127.473C100.523 127.476 100.556 127.479 100.596 127.482C100.974 127.526 101.189 127.718 101.42 127.979C101.531 128.126 101.571 128.297 101.552 128.478C101.49 130.092 101.213 131.724 100.67 133.136C100.659 133.203 100.61 133.217 100.586 133.136C99.9559 131.148 98.8798 129.135 100.238 127.569C100.325 127.493 100.398 127.469 100.493 127.473V127.473Z" fill="#0053A0"/>
<path fill-rule="evenodd" clip-rule="evenodd" d="M103.98 49.1086C104.304 49.5358 104.627 50.0113 104.513 50.524C104.097 52.8695 103.649 55.2101 103.173 57.5462C103.089 58.0679 102.71 58.2917 102.329 58.6423C104.895 59.1084 109.694 60.015 112.268 60.4996C112.2 59.4833 112.977 58.8889 113.289 57.9681C112.434 58.5668 111.342 58.7863 110.327 58.5682C109.271 58.3687 106.655 57.8484 105.602 57.6303C105.773 56.8136 105.881 55.9812 106.071 55.1644C107.097 55.3455 108.749 55.7346 109.773 55.8586C110.645 56.0653 111.305 54.8537 111.78 54.2836C111.446 54.3591 110.819 54.3976 110.478 54.3206C109.403 54.1121 107.472 53.7053 106.397 53.4868C106.493 52.7081 106.658 51.9401 106.821 51.1804C108.662 51.6646 112.512 51.8452 113.879 53.393C113.925 52.5385 113.442 51.4769 113.928 50.9087C111.383 50.4148 106.524 49.5833 103.98 49.1086ZM102.753 49.1461C100.301 49.1575 95.6031 49.4155 93.1529 49.4462C93.6775 50.3089 92.8978 51.0665 92.8792 51.9304C93.7102 51.1766 95.7841 50.9509 96.8631 50.9837C96.8603 53.3485 97.104 55.7232 97.1368 58.0807C97.1511 58.5269 96.8033 58.8105 96.5182 58.9901C97.5844 58.9787 99.2692 58.8476 100.268 58.8305C99.7766 58.3786 99.5271 58.3416 99.5186 57.7059C99.3447 55.5293 99.2578 52.9919 99.1979 50.8241C100.301 50.7437 102.329 50.9417 103.23 51.4897C103.226 50.5376 102.305 49.5906 102.753 49.1461V49.1461ZM92.0283 49.7837C90.4618 50.1254 86.9725 50.3708 85.6227 51.3962C84.0092 52.5164 83.6372 55.002 85.7282 56.0924C87.0452 56.6311 89.5439 56.0453 90.8453 56.1494C91.7404 56.1864 92.1181 57.4265 91.5294 58.0337C90.258 59.164 86.8043 59.164 85.2963 58.7079C85.6655 59.5731 86.0788 60.32 86.4694 61.1738C86.9825 60.8517 87.8933 60.7718 88.4734 60.6678C89.7092 60.4882 92.6369 59.6957 93.4622 58.6994C94.4486 57.5405 94.497 55.8615 93.5363 54.7996C92.6726 53.8531 89.9972 54.0203 88.8597 54.0961C88.2112 54.0961 87.6752 54.3249 87.0595 54.0212C86.5349 53.6603 86.5649 52.7593 87.1521 52.4554C88.281 51.8573 90.8395 51.7648 92.0183 52.249C91.9499 51.4231 92.0554 50.6096 92.0283 49.7837V49.7837ZM117.263 51.893C117.474 52.4152 117.596 52.9084 117.347 53.4023C116.418 55.4053 115.362 57.3937 114.378 59.412C114.102 60.0007 113.748 60.3742 113.094 60.6207C113.966 61.0669 115.464 61.8152 116.345 62.2613C115.976 60.9129 116.891 59.7028 117.414 58.6153C117.917 58.8904 119.267 59.5204 119.598 60.0677C120.041 60.8174 120.149 61.5871 120.245 62.364C120.288 63.0667 120.345 63.5969 119.619 63.8463C120.638 64.2611 122.24 65.1149 123.188 65.571C122.436 64.0202 122.9 61.9107 121.895 60.387C122.55 60.4155 123.647 60.5252 124.343 60.0962C125.6 59.3593 125.906 58.1933 125.477 56.6554C125.241 55.8458 124.445 55.384 123.77 55.0618C122.156 54.2636 118.878 52.681 117.263 51.893V51.893ZM80.5042 52.9241C78.255 54.1871 73.9319 56.3475 71.712 57.6489C72.2913 57.8014 72.6932 58.018 72.9683 58.5212C74.0787 60.5153 75.1862 62.5079 76.2866 64.502C76.5716 64.9966 76.4847 65.5924 76.2595 66.1426C78.5672 64.8612 82.8874 62.6148 85.2022 61.3434C84.4796 60.9329 84.9385 59.5631 84.6478 58.6623C84.4197 59.4491 83.6072 60.1646 82.9445 60.6493C81.8697 61.3705 79.3468 62.6562 78.2279 63.2933C77.8203 62.5706 77.4055 61.8309 77.0192 61.0897C77.8915 60.5481 79.9141 59.6529 80.7693 59.0842C81.2696 58.457 80.976 57.5519 81.0872 56.815C80.8677 57.0801 80.5826 57.3196 80.2705 57.4807C79.3326 58.0023 77.2744 59.1426 76.3236 59.6558C75.963 58.9716 75.5311 58.3231 75.219 57.6118C76.9565 56.8236 80.0723 54.714 82.0522 54.8266C81.5576 54.1057 80.7622 53.7787 80.5042 52.9241V52.9241ZM119.297 54.7425C120.155 55.1716 121.415 55.7317 122.195 56.1579C124.263 57.2327 122.792 59.4805 121.295 58.6338C120.44 58.3487 118.943 57.5035 118.11 57.1614C118.469 56.3261 118.928 55.5778 119.297 54.7425V54.7425ZM69.6786 59.1583C69.441 59.5004 69.1298 59.8126 68.7596 60.0121C67.5229 60.588 65.307 62.5863 64.7755 63.8463C64.0347 65.2888 64.0425 66.6158 64.9159 68.2992C65.9112 70.2847 67.3225 71.2055 69.4815 71.2055C71.6262 71.0729 73.5576 69.1943 74.4399 68.0369C74.9259 67.4767 75.3977 66.8596 76.1104 66.546C75.5117 65.8818 74.8817 65.2518 74.2717 64.5961C74.0536 65.3929 73.6687 66.0785 73.1471 66.7427C72.3759 67.6179 71.1792 68.9933 69.819 68.9278C68.4585 68.8608 68.0256 68.2122 67.419 67.5494C66.8125 66.8866 66.3951 66.1127 66.5004 64.9239C66.6056 63.7352 68.9622 61.5401 70.6632 61.4745C70.2731 60.7333 70.0691 59.9081 69.6786 59.1583V59.1583ZM61.4005 67.1546C60.7797 67.9557 59.6767 69.3483 59.0191 70.1194C59.6296 70.0296 60.1855 70.0809 60.6505 70.4458C62.4357 71.8355 64.2186 73.2395 65.994 74.6378C66.45 74.9827 66.6561 75.4987 66.7158 76.0888C67.3728 75.3063 68.4305 73.9351 69.069 73.1725C68.5161 73.2452 67.9776 73.2751 67.5504 72.9302C65.7369 71.5319 63.954 70.1108 62.1505 68.7026C61.6572 68.3277 61.3821 67.8203 61.4005 67.1546ZM57.163 72.5368C56.0317 74.8616 53.6908 79.1818 52.5788 81.5066C53.1958 81.2615 53.6593 81.3056 54.2192 81.5907C56.2315 82.5984 58.2539 83.5777 60.2659 84.5726C60.7596 84.822 61.192 85.3166 61.3908 85.8297C62.5126 83.4665 64.5822 79.2845 65.8723 76.9412C65.6065 76.9412 65.3401 76.7188 65.1505 76.5307C64.6188 76.0261 64.3506 75.4502 63.8098 74.9556C63.9603 75.8935 63.8248 77.0167 63.4158 77.9275C62.9406 78.9424 61.6789 81.4026 61.2036 82.4188C60.4156 82.1523 59.8066 81.699 59.0474 81.357C59.4276 80.4476 60.5511 78.3865 60.9408 77.4871C60.9451 76.9597 60.3181 76.0688 59.8724 75.4317C59.8531 75.7738 59.7057 76.1216 59.5441 76.4366C59.0593 77.4244 57.9666 79.6109 57.4723 80.5887C56.7793 80.238 55.8778 79.8988 55.1849 79.5567C55.6697 78.5704 56.8936 76.1016 57.3974 75.1238C57.787 74.3556 58.4185 73.7127 59.1973 73.3236C58.3903 72.9986 57.8557 73.0984 57.163 72.5368V72.5368ZM58.6159 85.4634C58.939 85.9865 59.0094 86.8717 59.0287 87.4974C59.1139 88.6776 58.4215 90.9154 58.2409 92.0643C56.0668 91.6381 53.8811 91.1136 51.716 90.6389C51.1181 90.5249 50.8769 90.0445 50.5255 89.5314C50.2976 90.5106 49.9094 92.3608 49.7007 93.3485C50.1374 93.0264 50.463 92.7755 50.9757 92.8896C53.2922 93.3756 55.5964 93.8845 57.9038 94.4076C58.4353 94.5216 58.9687 94.9264 59.2441 95.4296C59.738 93.1889 60.663 89.0938 61.1472 86.8418C60.91 86.8617 60.6625 86.9016 60.4536 86.7691C59.7793 86.397 59.2997 85.8155 58.6159 85.4634H58.6159Z" fill="#0053A0"/>
<path fill-rule="evenodd" clip-rule="evenodd" d="M58.643 104.665C58.3172 105.132 57.8501 105.515 57.293 105.621C55.1738 106.221 52.9137 106.68 50.4963 107.262C50.0111 107.435 49.7175 107.232 49.2588 106.878C49.4732 107.859 49.8036 109.458 50.0369 110.439C50.8977 109.233 52.5002 109.278 53.7679 108.855C54.0691 109.871 54.4235 112.002 54.7618 112.997C55.2938 113.55 56.1769 113.627 56.8711 113.871C56.6908 113.6 56.3518 113.024 56.2993 112.698C56.0531 111.623 55.5887 109.572 55.343 108.507C56.1538 108.326 56.9485 108.087 57.7711 107.973C58.2064 109.673 59.2261 112.839 58.4368 114.461C59.2646 114.197 59.9473 113.285 60.6868 113.478C60.1993 111.194 59.0929 106.968 58.6429 104.665H58.6429H58.643ZM58.7555 115.061C58.4849 115.053 58.2122 115.077 57.9398 115.107C56.1045 115.5 54.3993 116.405 53.6181 118.322C52.5885 120.996 54.6221 125.109 57.3494 126.113C59.1032 126.741 60.8378 126.27 62.1398 125.298C63.349 124.47 64.1692 123.086 64.1368 121.23C64.061 119.136 62.8904 117.06 61.1836 115.878C60.3719 115.308 59.5678 115.083 58.7555 115.061H58.7555H58.7555ZM58.6805 117.396C59.6927 117.39 60.7207 117.648 61.4179 118.689C62.2847 119.766 62.5476 121.28 61.9336 122.187C61.0613 123.333 59.6551 124.017 58.1743 123.957C56.5642 123.9 54.9329 121.839 55.4087 119.862C55.8611 118.251 57.6884 117.477 58.6805 117.396V117.396ZM65.0275 125.187C64.6318 125.198 64.2465 125.277 63.8647 125.421C62.0332 126.096 60.6892 127.278 60.1526 129.302C59.4001 132.071 62.4289 135.708 65.2896 136.221C67.1262 136.53 68.7522 135.867 69.864 134.681C70.911 133.655 71.5619 132.12 71.205 130.295C70.764 128.247 69.1083 126.491 67.221 125.627C66.3886 125.318 65.6866 125.163 65.0275 125.187ZM65.9367 127.428C66.7375 127.43 67.4656 127.751 68.0085 128.318C69.0114 129.245 69.4842 130.382 69.0211 131.588C68.3835 133.005 67.1989 133.92 65.7303 134.121C64.1349 134.342 62.0728 132.231 62.2896 130.491C62.5495 128.894 63.5907 128.243 64.4461 127.791C64.9528 127.544 65.4561 127.425 65.9367 127.428ZM73.0624 131.561C73.0467 132.473 72.1117 132.204 71.3729 133.353C72.4823 133.242 74.3424 134.231 75.2104 134.879C73.9205 136.838 72.5792 138.752 71.271 140.691C71.028 141.098 70.6019 141.144 70.155 141.18C70.971 141.744 72.4524 142.733 73.2691 143.298C73.1066 142.646 73.1665 142.106 73.5214 141.573C74.6759 139.865 75.8461 138.162 76.9978 136.446C77.0634 136.376 77.1176 136.215 77.2444 136.256C78.1894 136.769 79.6647 138.054 79.9982 139.089C80.3945 138.326 80.3189 137.109 81.0473 136.811C79.0404 135.428 75.0779 132.914 73.0624 131.561V131.561ZM81.5462 137.231C81.8398 137.766 81.7643 138.377 81.5932 138.939C80.9375 141.134 80.1023 143.108 79.4452 145.296C79.2984 145.826 78.9663 146.141 78.2935 146.298C80.376 146.958 82.7934 147.839 84.9956 148.512C87.2761 149.25 89.3244 148.7 89.571 146.307C89.7149 144.933 88.2511 144.297 87.6781 143.99C89.1861 144.177 90.201 143.372 90.2822 141.956C90.4105 140.949 89.4926 139.847 87.4144 139.173C85.9235 138.687 83.0485 137.652 81.5462 137.231V137.231ZM113.102 138.956C112.136 139.205 110.52 139.881 109.569 140.205C110.099 140.433 110.465 140.588 110.645 141.123C111.323 143.184 112.143 145.106 112.847 147.162C113.04 147.809 113.276 148.542 112.923 149.177C115.112 148.503 118.911 147.132 121.08 146.412C120.956 146.231 120.768 146.084 120.779 145.856C120.725 145.082 120.92 144.455 120.855 143.672C120.353 144.716 119.25 145.25 118.127 145.688C117.494 145.892 115.715 146.684 115.088 146.747C114.395 144.662 113.57 142.467 112.869 140.381C112.676 139.841 112.817 139.463 113.102 138.956V138.956ZM83.6101 139.64C84.4112 139.922 86.6932 140.444 87.4714 140.769C88.5561 141.218 87.852 143.162 86.7203 142.913C85.9263 142.784 83.6971 142.16 82.953 141.881C83.1625 141.134 83.3792 140.381 83.6101 139.64V139.64ZM94.2291 140.769C94.2989 140.913 94.2562 141.264 94.1364 141.422L90.0599 148.322C89.6964 148.914 89.3543 149.183 88.8483 149.571C89.7777 149.715 91.3855 150.176 92.3191 150.356C92.0183 149.702 92.0454 148.892 92.5315 148.268C93.9711 148.395 96.6622 148.59 98.0932 148.764C98.384 149.444 98.756 150.261 98.0932 150.882C99.0411 150.875 100.695 150.839 101.618 150.902C101.202 150.407 100.797 149.91 100.623 149.27C100.19 147.993 98.5793 143.249 98.0733 141.78C97.9863 141.513 98.1032 141.182 98.1118 141.152L94.2291 140.769ZM105.002 140.822C103.961 140.993 102.191 141.198 101.196 141.321C101.669 141.653 102.02 141.858 102.087 142.418C102.332 144.572 102.767 146.636 103.044 148.791C103.101 149.465 103.112 150.332 102.639 150.882C104.919 150.665 109.116 149.984 111.386 149.72C111.299 149.519 111.152 149.33 111.209 149.112C111.312 148.341 111.6 147.678 111.695 146.898C110.943 147.759 109.854 148.221 108.668 148.428C107.988 148.542 106.004 148.862 105.387 148.848C105.129 146.663 104.751 144.357 104.486 142.173C104.412 141.603 104.621 141.261 105.002 140.822V140.822ZM95.8982 142.427L97.5602 146.954C96.5211 146.894 94.5355 146.771 93.4979 146.654L95.8982 142.427ZM82.5867 143.319C83.5403 143.691 85.1224 144.227 85.9705 144.555C87.8278 145.202 87.3389 147.692 85.0882 146.918C84.0776 146.597 82.7307 146.177 81.7714 145.812C82.0023 144.995 82.3558 144.143 82.5867 143.319Z" fill="#0053A0"/>
<path fill-rule="evenodd" clip-rule="evenodd" d="M132.413 62.2984C130.944 62.2357 129.972 62.6405 128.945 63.5086C127.797 64.5534 127.014 65.7663 127.023 67.5865C127.061 69.0204 128.627 71.2739 130.512 72.4627C131.042 72.8547 131.883 73.3436 131.963 73.9978C132.587 73.3593 133.239 72.7292 133.877 72.132C132.348 71.673 129.758 70.1878 129.386 68.4774C129.149 67.1162 129.483 66.6714 130.061 65.9274C131.142 64.6232 132.237 64.1514 133.877 64.6047C135.344 65.1891 136.658 67.0264 136.772 68.3648C137.535 67.9657 138.257 67.6478 139.031 67.2587C138.417 66.8781 138.146 66.422 137.73 65.8704C136.829 64.5576 135.134 62.6833 133.079 62.3554C132.848 62.3284 132.623 62.3084 132.413 62.2984V62.2984ZM140.504 69.3027C140.474 70.2634 139.968 70.5598 139.278 71.073C137.603 72.219 136.017 73.3863 134.346 74.4967C133.871 74.7989 133.257 75.1866 132.581 74.8616C133.125 75.7054 134.198 77.1308 134.748 77.9646C134.805 77.1037 135.267 76.7131 135.789 76.371C137.594 75.1652 139.292 73.8638 141.104 72.6694C141.627 72.3159 141.926 72.1619 142.622 72.3957C142.083 71.5718 141.047 70.128 140.504 69.3027V69.3027ZM143.711 73.8211C143.21 74.5765 142.1 74.1175 141.312 74.4212C142.271 74.9614 143.33 76.6946 143.729 77.7123C141.584 78.7172 139.811 79.6195 137.663 80.6372C137.255 80.8438 136.611 80.7127 136.193 80.5531C136.637 81.4525 137.378 83.0346 137.823 83.9283C138.059 83.2356 138.752 82.6469 139.398 82.3619C141.317 81.4895 142.898 80.6457 144.837 79.8219C145.328 80.7897 146.154 82.6113 145.877 83.7031C146.618 83.2556 146.982 82.2806 147.827 82.3718C146.801 80.1483 144.747 76.0418 143.711 73.8211V73.8211ZM148.37 83.4394C148.166 84.3716 147.32 84.909 146.795 85.6046C145.745 86.8318 144.482 88.2144 143.252 89.4573C142.958 89.7324 142.23 89.8194 141.788 89.9191C140.873 90.0517 140.447 90.1586 139.745 89.5713C139.965 90.5577 140.324 92.3166 140.522 93.303C140.913 92.7114 141.329 92.3636 142.097 92.1684C142.781 92.0458 143.387 91.7821 143.879 91.9973C146.124 93.2189 150.336 94.9592 150.863 95.5051L150.095 91.8206C149.845 92.1812 149.552 92.3551 149.252 92.2411C147.906 91.7194 146.306 90.9753 145.163 90.5377C146 89.5656 146.978 88.6263 147.863 87.7055C148.248 87.2366 148.775 87.0513 149.243 87.5074L148.37 83.4394V83.4394Z" fill="#0053A0"/>
<path fill-rule="evenodd" clip-rule="evenodd" d="M143.045 105.181C142.619 105.192 142.136 105.344 141.62 105.687C140.885 106.332 140.615 107.343 140.372 108.246C140.042 109.773 139.221 112.91 138.92 114.441C139.427 114.033 139.865 113.988 140.438 114.113C142.679 114.596 144.911 115.104 147.143 115.587C147.683 115.691 148.082 116.114 148.389 116.589C148.718 114.465 150.038 110.148 150.002 107.981C149.959 106.205 148.313 105.072 146.738 105.441C145.844 105.692 145.343 106.724 145.144 107.448C145.142 106.371 144.323 105.146 143.045 105.181ZM143.053 107.756C143.711 107.76 144.318 108.366 144.142 109.127C143.969 109.92 143.654 111.588 143.46 112.371C142.697 112.218 141.905 112.046 141.152 111.873C141.369 111.054 141.572 109.893 141.788 109.062C142.004 108.12 142.545 107.756 143.053 107.756V107.756ZM147.161 107.897C147.846 107.921 148.473 108.609 148.322 109.445C148.109 110.452 147.722 112.307 147.536 113.298C146.705 113.13 145.844 112.929 145.005 112.763C145.217 111.756 145.544 110.303 145.812 109.296C146.06 108.264 146.627 107.88 147.161 107.897ZM138.762 114.882C138.132 116.013 137.556 117.092 136.896 118.238C137.396 117.999 137.891 117.972 138.303 118.191C139.767 118.965 141.014 119.691 142.463 120.497C143.024 120.821 143.631 121.424 143.693 122.222C143.669 123.291 142.931 124.584 141.947 125.019C141.236 125.352 140.426 125.01 139.886 124.698C138.558 123.9 137.51 123.333 136.182 122.523C135.723 122.259 135.314 122.064 135.272 121.212C134.637 122.289 134.064 123.468 133.397 124.578C134.282 124.182 134.892 124.446 135.528 124.839C136.709 125.519 137.693 126.089 138.863 126.771C139.757 127.278 140.652 127.613 141.872 127.341C142.925 127.097 143.819 126.078 144.462 125.027C145.142 123.927 145.739 122.646 145.67 121.428C145.611 120.171 144.845 119.313 143.993 118.746C142.602 117.903 141.497 117.323 140.093 116.505C139.553 116.18 138.779 115.691 138.762 114.882V114.882ZM139.529 127.838C139.499 128.897 138.906 130.143 138.152 131.007C137.771 131.517 136.547 132.905 136.052 133.437C134.376 132.014 132.851 130.724 131.169 129.312C130.724 128.946 130.373 128.435 130.352 127.857C129.656 128.574 128.717 129.638 128.073 130.407C128.649 130.325 129.189 130.605 129.621 130.971C131.27 132.378 132.869 133.82 134.543 135.206C135.044 135.662 135.302 136.104 135.329 136.829C136.847 135.116 139.664 131.879 141.143 130.137C140.942 130.05 140.675 130.019 140.56 129.779C140.123 128.981 139.992 128.471 139.529 127.838V127.838ZM127.913 130.605C127.443 131.222 126.501 131.58 125.822 131.879C124.356 132.579 122.297 134.252 121.868 136.212C121.526 137.901 121.898 139.265 122.832 140.495C123.755 141.744 124.92 142.469 126.528 142.511C128.327 142.494 130.244 141.338 131.663 139.895C132.131 139.428 132.704 138.785 133.388 138.732C132.818 138.054 132.342 137.288 131.72 136.641C131.318 137.88 129.383 139.914 128.073 140.27C126.917 140.531 126.143 140.219 125.298 139.49C124.358 138.518 123.774 137.321 124.163 135.92C124.742 134.114 127.139 132.791 128.646 133.052C128.372 132.245 128.166 131.382 127.913 130.605V130.605Z" fill="#0053A0"/>
<path fill-rule="evenodd" clip-rule="evenodd" d="M100.268 64.465C100.077 65.0152 99.9473 65.7407 99.8191 66.3778C99.792 66.5175 99.7221 66.613 99.638 66.7142C95.3719 71.0074 90.1009 69.7573 88.1368 76.0532C87.9144 76.5848 88.1966 77.1479 89.1474 77.6738C89.2428 77.7308 89.3269 77.7066 89.3269 77.6068C89.0875 70.7708 98.3238 71.2326 100.344 66.489C100.365 66.4405 100.433 66.4533 100.455 66.489C102.152 69.6561 104.958 70.0709 107.522 71.5533C109.442 72.6608 110.826 73.6657 111.218 76.8115C111.231 76.9597 111.272 76.9326 111.347 76.8571C111.638 76.5364 112.344 76.371 112.322 75.8907C111.701 71.2497 106.59 70.2477 102.489 68.3363C102.318 68.2051 102.144 68.074 101.973 67.9429C101.115 66.928 100.46 65.7834 100.268 64.465ZM100.194 70.2691C100.148 70.2719 100.11 70.2819 100.07 70.3047C100.026 70.3261 99.983 70.3717 99.9587 70.4187C99.9359 70.4615 99.9445 70.5969 99.9587 70.6895C99.9744 70.7494 100.029 70.7822 100.061 70.8207C100.13 70.9048 100.19 70.9532 100.278 71.0188C100.388 71.0915 100.523 71.0017 100.547 70.9147C100.58 70.7637 100.58 70.5969 100.547 70.4643C100.539 70.4159 100.502 70.3859 100.472 70.3417C100.431 70.2961 100.385 70.2719 100.314 70.2691C100.284 70.2662 100.235 70.2633 100.194 70.2691V70.2691ZM101.588 71.5619C101.574 71.5647 101.568 71.5676 101.552 71.5804C101.525 71.6018 101.504 71.6374 101.504 71.673C101.501 71.8598 101.417 72.132 101.588 72.2289C101.672 72.2674 101.778 72.2817 101.843 72.2075C101.876 72.1534 101.94 72.1349 101.936 72.0394C101.936 71.9937 101.873 71.9795 101.853 71.9282C101.826 71.8526 101.84 71.7186 101.813 71.6645C101.789 71.6246 101.765 71.5861 101.72 71.5804C101.675 71.5718 101.634 71.5505 101.588 71.5619V71.5619ZM99.0209 71.5889C98.8968 71.6317 98.7657 71.7215 98.7201 71.8797C98.6659 71.9738 98.6688 72.0479 98.7201 72.1049C98.7857 72.2018 98.8669 72.3159 98.9809 72.3686C99.0779 72.4142 99.2033 72.4142 99.2461 72.2075C99.2931 72.0365 99.296 71.7956 99.219 71.73C99.1192 71.6588 99.1434 71.559 99.0209 71.5889ZM100.379 73.8481C99.8333 75.4916 99.6922 76.3197 99.3031 77.6282C100.016 77.6339 100.409 77.6368 100.922 77.6467C100.505 76.1558 100.485 75.5643 100.379 73.8481V73.8481Z" fill="#0053A0"/>
<path fill-rule="evenodd" clip-rule="evenodd" d="M75.1802 81.9685C75.156 81.9685 75.1261 81.9813 75.0961 82.0055C71.2947 84.6866 70.2627 89.4388 65.374 88.6534C68.8441 90.2755 68.7604 94.2637 69.1143 97.9625C69.4132 101.078 71.7957 105.276 78.2191 104.402C78.2904 104.397 78.3389 104.34 78.2932 104.271C77.8827 103.685 76.5058 103.878 76.1637 103.821C71.0788 102.867 70.2177 98.1905 69.1615 92.8982C68.9158 91.3688 67.9234 90.4024 67.3144 89.2535C67.2703 89.1366 67.2307 89.0996 67.3801 89.0725C70.6198 88.4525 73.0622 85.6416 75.6592 82.6526C75.7133 82.6199 75.7233 82.5457 75.6592 82.4916C75.5124 82.3448 75.3784 82.1823 75.2458 82.0055C75.2216 81.9813 75.2073 81.9656 75.1802 81.9685V81.9685ZM74.6942 88.1189C74.6486 88.1218 74.6001 88.1317 74.5616 88.1546C74.516 88.1759 74.4747 88.2216 74.4476 88.2686C74.4262 88.3113 74.4362 88.4468 74.4476 88.5394C74.4661 88.5993 74.5289 88.6321 74.5616 88.6705C74.6301 88.7546 74.6913 88.8031 74.7783 88.8687C74.888 88.9414 75.0149 88.8516 75.0391 88.7646C75.0719 88.6135 75.0719 88.4468 75.0391 88.3142C75.0292 88.2657 74.9935 88.2358 74.9636 88.1916C74.9223 88.146 74.8766 88.1218 74.8054 88.1189C74.774 88.1161 74.7355 88.1132 74.6942 88.1189V88.1189ZM76.1552 89.4474C76.1395 89.4516 76.1253 89.4573 76.1096 89.4687C76.0825 89.4873 76.0611 89.5229 76.0611 89.5614C76.0526 89.7453 75.9571 90.0147 76.1281 90.1144C76.2094 90.1586 76.3134 90.1686 76.379 90.0959C76.416 90.0417 76.4816 90.0303 76.4816 89.9377C76.4845 89.8892 76.4274 89.8764 76.4103 89.8237C76.3861 89.7481 76.3975 89.6127 76.3704 89.5614C76.349 89.5201 76.3234 89.4744 76.2778 89.4687C76.2322 89.4573 76.1994 89.4388 76.1552 89.4474V89.4474ZM73.5682 89.6455C73.4456 89.6882 73.313 89.7866 73.2688 89.9462C73.2147 90.0389 73.2175 90.1045 73.2688 90.1615C73.3315 90.2584 73.4242 90.3724 73.5382 90.4237C73.6351 90.4708 73.7606 90.4808 73.8033 90.2726C73.8504 90.1016 73.8447 89.8536 73.7634 89.7866C73.6651 89.7153 73.6922 89.6156 73.5682 89.6455V89.6455ZM75.0691 91.8776C74.8681 93.5367 74.2623 95.4325 73.6708 96.6782C74.3607 96.5856 74.9123 97.0046 74.955 97.5392C75.1289 96.9334 75.5936 96.4673 76.1452 96.6298C75.7832 95.1246 75.3356 93.5068 75.0691 91.8776V91.8776Z" fill="#0053A0"/>
<path fill-rule="evenodd" clip-rule="evenodd" d="M80.4955 108.038C80.4684 108.045 80.4384 108.054 80.4028 108.068C74.5161 110.343 73.3401 115.628 76.6313 120.282C79.1043 124.437 80.199 126.149 79.0231 129.489C83.6241 124.011 91.7758 132.872 96.4524 126.039C96.5151 125.955 96.4168 125.898 96.3199 125.804C96.0918 125.646 95.8523 125.54 95.6186 125.448C95.4447 125.382 95.3492 125.421 95.2437 125.57C93.3294 127.587 87.122 127.14 82.4283 127.154C82.2843 127.154 81.8553 127.229 81.7141 127.305C81.2637 127.536 80.8076 127.74 80.3273 127.697C80.199 127.697 80.0037 127.629 80.0365 127.362C80.2703 123.948 78.2391 121.779 76.952 118.962C76.5501 118.002 73.5682 112.614 80.7392 109.341C80.772 109.278 80.8404 109.241 80.8318 109.146C80.8105 108.812 80.742 108.483 80.6451 108.141C80.628 108.057 80.5796 108.027 80.4955 108.038V108.038ZM85.8206 114.545C85.775 114.552 85.728 114.561 85.6881 114.582C85.6439 114.606 85.6011 114.651 85.5783 114.696C85.5569 114.74 85.5626 114.876 85.5783 114.968C85.5926 115.028 85.6553 115.058 85.6881 115.098C85.7608 115.182 85.8178 115.229 85.9047 115.296C86.0159 115.368 86.1542 115.278 86.177 115.191C86.2069 115.041 86.2112 114.873 86.177 114.74C86.1656 114.693 86.1199 114.666 86.0943 114.621C86.0487 114.572 86.013 114.552 85.9432 114.545C85.9104 114.542 85.8662 114.539 85.8206 114.545V114.545ZM87.303 115.802C87.2873 115.805 87.2702 115.808 87.2545 115.821C87.2303 115.842 87.2061 115.878 87.2089 115.913C87.2004 116.1 87.1049 116.367 87.2731 116.469C87.3572 116.511 87.4498 116.519 87.5182 116.448C87.551 116.394 87.6294 116.385 87.6294 116.288C87.6323 116.244 87.5667 116.231 87.5453 116.177C87.5211 116.103 87.5425 115.968 87.5182 115.913C87.494 115.872 87.4712 115.827 87.4227 115.821C87.38 115.808 87.3472 115.794 87.303 115.802ZM84.6589 115.962C84.5364 116.003 84.4052 116.103 84.3596 116.261C84.3026 116.351 84.3083 116.421 84.3596 116.478C84.4223 116.573 84.5064 116.685 84.6205 116.739C84.716 116.787 84.8428 116.796 84.8813 116.589C84.9298 116.418 84.9355 116.169 84.8542 116.103C84.7559 116.03 84.783 115.932 84.6589 115.962V115.962ZM86.0102 118.097C85.8092 119.756 85.202 121.652 84.6119 122.898C85.3018 122.805 85.8534 123.216 85.8962 123.753C86.0701 123.147 86.5347 122.688 87.0863 122.852C86.7229 121.347 86.2739 119.729 86.0102 118.097V118.097Z" fill="#0053A0"/>
<path fill-rule="evenodd" clip-rule="evenodd" d="M119.448 108.03C119.418 108.033 119.384 108.063 119.372 108.095C119.243 108.372 119.112 108.636 118.979 108.912C118.862 109.224 118.856 109.491 119.327 109.641C127.761 113.088 123.609 119.612 121.409 123.441C121.181 123.834 120.635 124.995 120.594 125.505C120.51 126.048 120.594 126.521 120.581 127.088C120.581 127.221 120.396 127.257 120.293 127.238C114.894 126.2 110.223 130.971 105.797 125.823C105.39 125.382 104.901 125.34 104.721 125.478C104.526 125.625 104.382 125.787 104.244 126.002C104.151 126.132 104.154 126.206 104.262 126.339C108.863 132.791 115.665 125.171 121.502 128.381C120.135 125.1 122.829 121.917 124.353 119.055C127.739 113.301 123.777 109.765 119.478 108.03C119.465 108.024 119.459 108.03 119.448 108.03V108.03ZM114.978 114.423C114.932 114.428 114.894 114.438 114.854 114.461C114.81 114.483 114.767 114.528 114.743 114.572C114.723 114.618 114.729 114.762 114.743 114.855C114.758 114.914 114.813 114.939 114.845 114.977C114.914 115.058 114.974 115.11 115.061 115.172C115.172 115.248 115.307 115.158 115.331 115.071C115.364 114.922 115.364 114.75 115.331 114.621C115.323 114.569 115.286 114.542 115.259 114.498C115.215 114.453 115.169 114.428 115.098 114.423C115.068 114.42 115.019 114.417 114.978 114.423V114.423ZM116.393 115.718C116.378 115.718 116.361 115.725 116.345 115.737C116.318 115.755 116.298 115.794 116.298 115.829C116.291 116.013 116.195 116.283 116.363 116.381C116.448 116.427 116.549 116.435 116.619 116.364C116.651 116.31 116.72 116.301 116.72 116.204C116.72 116.16 116.667 116.144 116.646 116.09C116.621 116.016 116.633 115.884 116.61 115.829C116.586 115.788 116.57 115.743 116.522 115.737C116.48 115.725 116.435 115.71 116.393 115.718V115.718ZM113.778 115.914C113.654 115.956 113.531 116.058 113.487 116.214C113.433 116.307 113.436 116.373 113.487 116.43C113.553 116.526 113.634 116.639 113.748 116.69C113.843 116.739 113.969 116.747 114.012 116.541C114.06 116.37 114.053 116.12 113.972 116.055C113.876 115.983 113.9 115.884 113.778 115.914V115.914ZM115.212 118.053C115.014 119.712 114.405 121.608 113.813 122.852C114.506 122.76 115.058 123.18 115.098 123.713C115.272 123.107 115.736 122.643 116.288 122.805C115.926 121.299 115.478 119.682 115.212 118.053V118.053Z" fill="#0053A0"/>
<path fill-rule="evenodd" clip-rule="evenodd" d="M124.568 81.8815C124.551 81.8887 124.535 81.9029 124.521 81.9215C124.457 81.9956 124.404 82.4075 124.388 82.6797C124.385 82.7368 124.385 82.7824 124.445 82.8209C125.654 83.5563 129.276 87.6628 132.432 88.3798C132.57 88.4097 132.587 88.5266 132.519 88.5964C128.766 93.0065 133.241 99.8939 125.844 102.519C124.47 102.897 123.087 102.718 122.832 103.633C122.825 103.665 122.87 103.707 122.897 103.707C127.346 103.989 130.121 102.489 130.952 99.3123C132.023 95.7717 130.007 90.7416 133.803 87.9964C133.898 87.9237 133.847 87.7982 133.763 87.8068C129.926 88.1973 127.473 84.1265 124.622 81.8915C124.608 81.8815 124.584 81.8787 124.568 81.8815ZM125.787 87.8068C125.741 87.8168 125.694 87.831 125.654 87.8552C125.61 87.8766 125.567 87.9208 125.543 87.9693C125.523 88.0106 125.529 88.146 125.543 88.2387C125.559 88.2985 125.613 88.3327 125.645 88.3712C125.714 88.4553 125.774 88.4938 125.861 88.5565C125.972 88.6321 126.107 88.5508 126.132 88.4639C126.164 88.3142 126.164 88.146 126.132 88.0135C126.123 87.9664 126.086 87.9265 126.059 87.8823C126.015 87.8367 125.969 87.8125 125.898 87.8068C125.868 87.8068 125.828 87.8011 125.787 87.8068V87.8068ZM127.088 89.2535C127.074 89.2564 127.058 89.2592 127.044 89.2706C127.017 89.292 127.004 89.3276 127.004 89.3647C126.995 89.55 126.903 89.8165 127.071 89.9192C127.151 89.9605 127.248 89.9705 127.313 89.8978C127.349 89.8436 127.419 89.8351 127.419 89.7396C127.419 89.694 127.362 89.6826 127.343 89.6284C127.319 89.5529 127.332 89.4174 127.305 89.3647C127.283 89.3219 127.265 89.2778 127.22 89.2706C127.175 89.2592 127.134 89.2435 127.088 89.2535V89.2535ZM124.41 89.2706C124.286 89.3134 124.163 89.4117 124.119 89.5714C124.065 89.664 124.068 89.7296 124.119 89.7866C124.182 89.8835 124.266 89.9976 124.38 90.0475C124.475 90.0959 124.601 90.1045 124.643 89.8978C124.688 89.7268 124.685 89.4873 124.605 89.4217C124.505 89.349 124.532 89.2407 124.41 89.2706ZM125.852 91.3887C125.654 93.0478 125.045 94.9436 124.454 96.1894C125.144 96.0967 125.7 96.5158 125.738 97.0531C125.912 96.4473 126.377 95.9784 126.93 96.1409C126.566 94.6386 126.119 93.0179 125.852 91.3887Z" fill="#0053A0"/>
<path fill-rule="evenodd" clip-rule="evenodd" d="M122.018 71.6075C122.004 71.6103 121.988 71.6103 121.971 71.6189C118.563 72.5824 113.96 76.515 110.169 79.9615C110.058 80.0884 109.905 80.1155 109.781 80.0727C107.261 79.2446 104.331 79.1377 101.889 79.0707C98.4053 78.75 94.2176 79.1762 90.4703 80.3906C90.3093 80.4476 90.1881 80.3008 90.0684 80.1568C87.1022 76.8571 82.923 74.1546 78.4132 72.2731C78.2877 72.2132 78.1823 72.1591 78.0383 72.2916C75.7235 74.4268 76.2324 80.7512 78.2193 84.1806C78.4531 84.6781 78.5044 85.5504 78.5101 85.8483C78.6512 87.6927 79.0104 89.2863 79.4936 91.0053C79.6133 92.0729 80.0224 93.159 80.6367 94.0798C80.7565 94.2266 80.7052 94.3591 80.6182 94.4546C79.8328 95.2415 79.1159 95.9855 78.3305 96.7709C78.2735 96.825 78.1652 96.8635 78.0597 96.882C77.4083 96.9576 77.2045 97.17 76.8966 97.9226C76.851 98.0309 76.8567 98.1064 76.9137 98.1962C77.0249 98.4029 77.7803 99.7114 78.4046 100.407C79.0076 101.004 78.7823 101.571 78.2735 102.115C79.2356 102.834 80.9575 104.211 81.0601 104.421C81.1684 104.975 82.1462 105.162 81.5632 105.957C81.7172 105.993 81.8098 106.05 81.9296 106.145C82.0165 106.24 82.035 106.329 82.0436 106.428C82.122 107.291 82.2845 108.075 82.7634 108.902C84.7133 112.209 86.8984 111.699 89.4954 114.518C91.049 116.207 92.5827 116.274 93.6389 119.253C93.542 120.383 93.4821 121.076 93.9482 122.054C94.4998 123.248 95.8582 123.294 97.6043 124.088C97.838 124.179 97.9678 124.25 98.1388 124.427C98.5949 124.872 99.1195 125.157 99.7138 125.439C100.194 125.643 100.763 125.643 101.205 125.421C102.044 124.94 102.221 125.288 103.773 124.172C105.237 123.74 107.627 121.937 107.372 118.868C107.381 118.779 107.402 118.719 107.429 118.64C107.475 118.499 107.606 118.358 107.73 118.221C108.32 117.516 108.996 116.891 109.409 116.036C109.493 115.829 109.566 115.628 109.754 115.473C115.598 110.702 113.531 112.799 115.644 111.18C119.975 107.886 117.132 104.04 122.205 101.889C121.518 100.434 121.751 100.301 123.986 97.2028C122.805 96.5784 121.982 95.8615 121.163 95.2885C118.593 93.273 120.926 91.5626 121.137 90.5734C121.284 90.0118 121.505 89.3034 121.559 88.5864C121.833 86.9344 121.679 84.9874 122.523 84.1236C123.144 83.5235 123.324 80.2381 123.422 79.9715C124.103 77.8263 123.854 77.5384 123.978 76.1914C123.998 76.0118 124.062 75.8679 123.978 75.6698C123.503 74.3613 122.922 73.0955 122.252 71.8412C122.192 71.7329 122.148 71.6288 122.064 71.6075C122.051 71.6046 122.034 71.6075 122.018 71.6075V71.6075ZM119.994 76.6533C119.72 79.3443 118.74 81.1261 119.046 83.3824C117.903 84.7864 118.286 87.4048 117.236 88.9713C117.167 89.0611 117.075 89.1124 116.964 89.1024C115.568 88.8715 114.59 87.114 113.403 86.1205C113.282 86.025 113.222 85.9352 113.262 85.8397C113.745 84.765 114.854 83.6874 113.993 82.5956C114.036 79.4669 117.773 78.9638 119.994 76.6533V76.6533ZM79.8029 77.1692C81.9951 78.3965 83.3934 80.4576 84.471 80.4875C84.6392 80.7483 84.8786 81.0177 85.0796 81.2287C86.6931 83.0646 85.4131 83.7487 86.8314 86.1034C86.9853 86.4327 87.0537 86.7534 86.8314 86.9544C85.8835 87.7797 85.0411 88.6164 84.2543 89.5229C83.2138 90.7858 82.7064 90.3211 82.3985 89.5229C82.2061 88.9314 82.0022 88.2629 82.2688 87.5815C82.4341 87.2067 82.3344 86.8988 82.0521 86.541C81.6744 86.0108 81.3665 85.4492 81.0686 84.8904C80.9632 84.6809 80.8947 84.5013 80.8534 84.2376C80.4785 81.9157 80.5469 78.4435 79.8029 77.1692ZM107.036 100.155C107.196 100.138 107.337 100.247 107.355 100.407C107.372 100.569 107.253 100.719 107.093 100.736C106.932 100.752 106.791 100.635 106.772 100.473C106.758 100.314 106.878 100.173 107.036 100.155V100.155ZM92.0639 100.182C92.2264 100.168 92.3661 100.274 92.3818 100.437C92.4003 100.597 92.2791 100.736 92.1209 100.755C91.9613 100.773 91.8173 100.662 91.8031 100.502C91.7845 100.341 91.9043 100.2 92.0639 100.182V100.182ZM116.187 106.699C116.423 106.701 116.496 106.922 116.469 107.148C116.217 110.328 114.734 109.452 111.348 112.464C110.463 113.171 110.753 113.858 109.559 114.864C108.558 115.799 107.625 116.777 106.772 117.987C106.634 118.194 106.533 117.975 106.52 117.882C106.479 117.63 106.329 117.345 106.118 117.114C105.558 116.484 106.452 116.562 105.444 115.053C105.026 114.441 104.543 115.229 104.252 114.237C104.073 113.597 104.244 113.912 104.018 112.427L104.61 111.938C104.888 112.731 105.278 113.393 105.705 113.945C105.767 114.021 105.65 114.689 105.911 115.278C105.965 114.348 106.796 113.814 105.612 112.146C105.458 111.93 105.378 111.717 105.321 111.462C105.314 111.435 105.308 111.414 105.303 111.387C107.546 109.928 110.058 108.738 112.428 107.756C112.307 107.892 112.19 108.027 112.07 108.171C112.016 108.237 112.122 108.261 112.154 108.246C112.298 108.207 112.367 108.225 112.481 108.246C112.556 108.291 112.548 108.369 112.548 108.44C112.565 108.717 112.344 108.733 112.41 109.04C112.8 108.54 113.172 108.054 113.57 107.598C113.664 107.481 113.786 107.343 113.972 107.364L114.405 107.421C114.552 107.427 114.693 107.4 114.854 107.354C115.236 107.205 115.521 107.019 115.886 106.773C116.006 106.716 116.106 106.699 116.187 106.699V106.699ZM84.3299 107.205C84.3441 107.205 84.3684 107.215 84.3869 107.223C85.5115 107.788 87.0452 108.141 87.8277 108.47C88.2382 108.663 88.6801 108.948 88.9979 108.996C89.1291 109.005 89.1291 108.934 89.0635 108.855C88.9794 108.723 88.8953 108.597 88.8112 108.48C90.744 109.377 92.5343 110.417 94.4272 111.669C94.4214 111.684 94.4129 111.699 94.41 111.714C94.3559 111.875 94.3017 112.022 94.2476 112.155C94.2176 112.23 94.1848 112.314 94.1549 112.38C94.1307 112.437 94.1036 112.497 94.0794 112.548C94.0352 112.644 93.9896 112.749 93.9482 112.83C93.8941 112.935 93.8342 113.057 93.7886 113.148C93.7743 113.184 93.7587 113.217 93.743 113.252C93.713 113.319 93.6803 113.385 93.6603 113.448C93.6446 113.493 93.6332 113.535 93.6204 113.58C93.6147 113.6 93.6061 113.622 93.6033 113.646C93.5905 113.706 93.5876 113.765 93.5819 113.831C93.5791 113.892 93.5791 113.955 93.5819 114.021C93.5876 114.09 93.5905 114.159 93.6033 114.237C93.6261 114.425 93.6803 114.498 93.743 114.528C93.7615 114.537 93.7886 114.539 93.81 114.545C93.8542 114.555 93.9411 114.569 93.9682 114.498C93.9896 114.431 94.0223 114.366 94.0523 114.303C94.0822 114.237 94.1093 114.177 94.1464 114.113C94.2148 113.988 94.296 113.862 94.3801 113.738C94.3972 113.711 94.4157 113.681 94.4371 113.654C94.5896 113.439 94.7578 113.232 94.9132 113.019C94.9289 112.997 94.9374 112.98 94.9531 112.962C95.0158 112.869 95.0728 112.773 95.1299 112.679C95.1512 112.647 95.174 112.611 95.1954 112.578C95.2496 112.484 95.3038 112.391 95.3451 112.296L96.5552 113.195C96.3542 113.687 96.0963 114.354 96.0207 114.827C95.8796 115.892 95.2254 115.653 94.7365 115.248C94.7664 116.345 94.8505 116.817 94.239 117.779C94.1578 117.918 94.0822 117.869 94.0323 117.779C92.5528 114.927 91.1246 115.607 89.2531 112.568C89.0849 112.128 88.767 111.707 88.1541 111.479C85.8479 110.571 84.2002 109.947 84.2543 107.297C84.2572 107.25 84.2814 107.205 84.3299 107.205V107.205ZM104.673 116.73C104.768 116.736 104.852 116.817 104.888 116.918C105.354 117.969 105.933 119.816 105.743 120.413C105.059 123.036 103.212 123.471 101.496 123.246C100.208 123.077 100.203 122.775 100.181 121.914C100.184 121.82 100.314 121.785 100.418 121.755C101.973 121.266 102.908 120.419 102.948 118.803C102.957 118.583 102.984 118.352 102.872 118.154C103.307 117.876 103.709 117.588 104.103 117.228C104.114 117.216 104.13 117.203 104.138 117.189C104.258 117 104.393 116.847 104.58 116.747C104.613 116.736 104.643 116.727 104.673 116.73ZM96.0293 116.928C96.0806 116.913 96.1262 116.94 96.1803 117.002C96.2188 117.045 96.273 117.179 96.3956 117.179C96.6051 117.444 96.8973 117.672 97.1724 117.873C97.0883 117.956 97.037 118.053 97.0042 118.154C96.9173 118.404 96.9329 118.827 97.0042 119.213C97.0341 119.441 97.1125 119.642 97.2294 119.84C97.791 120.714 98.1901 121.106 98.823 121.538C99.0867 121.698 99.3774 121.836 99.7138 121.803C99.8065 121.79 99.8606 121.853 99.845 121.931C99.7438 123.219 99.1579 123.305 97.6798 123.123C94.4043 122.469 94.115 120.335 95.8882 117.114C95.9281 117 95.9822 116.943 96.0293 116.928ZM100.278 123.891C100.73 123.881 101.21 123.897 101.682 123.957C101.754 123.971 101.759 124.031 101.739 124.079C101.672 124.256 101.474 124.481 101.373 124.568C101.31 124.617 101.213 124.635 101.129 124.661C100.776 124.755 100.224 124.796 100.127 124.782C100.04 124.764 99.9533 124.731 99.872 124.68C99.5642 124.506 99.2762 124.305 98.9726 124.119C98.9071 124.068 98.9042 123.99 98.9812 123.978C99.3903 123.938 99.8222 123.903 100.278 123.891V123.891Z" fill="#0053A0"/>
<path fill-rule="evenodd" clip-rule="evenodd" d="M121.653 73.9893C121.634 73.9893 121.616 73.9921 121.596 73.9978C117.873 75.3519 113.255 78.0458 110.853 81.6207C109.884 82.4018 108.89 83.1629 107.861 83.8314C110.001 80.9878 105.732 80.7997 100.586 80.2409C97.0498 79.9387 92.8293 81.0448 91.4553 81.7988C91.3312 81.8701 91.2543 82.0112 91.3526 82.1366C91.736 82.6826 91.8544 83.3254 92.081 83.9283C92.1123 83.9939 92.0482 83.9996 91.9983 83.9554C87.5212 79.9473 80.832 74.5409 78.6027 74.0078C78.4973 73.9893 78.4018 74.0249 78.3476 74.1218C78.1894 74.4539 78.1523 74.5509 78.0297 74.8801C77.9428 75.1709 77.7832 75.3519 77.7033 75.4317C76.4276 76.6832 78.6626 79.0293 78.9961 83.3197C79.2185 85.1313 79.6561 85.9438 80.0723 87.1896C80.1364 87.3578 80.1778 87.5017 80.2048 87.6685C80.7835 89.6668 81.1613 91.7037 81.9295 93.5552C82.8446 96.5285 79.257 96.0396 79.1102 98.5055C79.0261 100.179 80.9902 101.097 80.6553 102.321C80.6339 102.398 80.4899 102.482 80.5712 102.582C82.0835 104.151 82.6679 103.785 83.2794 105.086C84.699 107.574 86.2413 104.853 88.8112 108.48C90.744 109.377 92.5343 110.417 94.4271 111.669C94.5625 111.245 94.688 110.721 94.802 110.037C95.0272 108.684 94.983 107.319 94.1278 105.431C93.971 105.156 94.0651 104.69 94.343 104.469C94.4842 104.364 94.544 104.322 94.5597 104.541C94.7992 107.049 96.8545 108.741 95.5888 111.114C95.5432 111.201 95.489 111.273 95.5047 111.414C95.5318 111.734 95.4662 112.022 95.3451 112.296L96.5552 113.195C96.635 113 96.7077 112.836 96.7533 112.719C97.2921 109.931 97.7155 105.431 98.1203 104.871C98.1573 104.817 98.2015 104.733 98.1203 104.673C97.6499 104.187 97.1211 103.38 97.362 103.137C97.62 102.941 99.1223 103.548 99.1137 104.637C99.051 105.612 98.1003 114.639 96.9115 115.914C96.8545 115.979 96.8759 116.025 96.9115 116.073C97.4304 116.804 97.3192 116.985 97.1367 117.078C96.9714 117.141 96.6265 117.114 96.4711 117.171C96.444 117.179 96.4169 117.179 96.3956 117.179C96.6051 117.444 96.8973 117.672 97.1724 117.873C97.3377 117.711 97.6171 117.591 98.0461 117.527C99.7224 117.236 101.322 117.285 102.546 117.863C102.71 117.948 102.813 118.047 102.872 118.154C103.307 117.876 103.709 117.588 104.103 117.228C103.988 117.312 103.746 117.231 103.709 117.038C103.038 113.379 102.321 112.815 101.897 110.055C101.726 109.119 101.645 108.138 101.822 107.24C101.879 106.949 101.897 106.686 101.822 106.371C101.58 105.468 101.594 104.526 101.796 103.633C101.933 103.332 102.285 102.93 102.536 102.591C102.744 102.318 102.891 102.001 103.005 101.656C103.122 101.298 104.282 99.5646 105.273 99.2909C105.357 99.2695 105.368 99.2196 105.378 99.1412C105.387 99.0543 105.224 99.0514 105.237 98.9189C105.273 98.229 109.61 98.601 111.894 98.8134C112.763 98.7364 113.631 98.601 114.452 98.4485C114.596 98.4214 114.606 98.4713 114.519 98.5625C113.838 99.3123 112.857 99.7228 111.969 99.8368C111.801 99.861 111.755 99.9537 111.723 100.081C111.215 102.626 107.532 103.856 105.93 103.557C105.827 103.538 105.824 103.611 105.827 103.662C105.944 104.967 105.384 105.099 104.898 108.912C104.868 109.124 104.876 109.314 104.909 109.529C104.985 110.148 105.164 110.735 105.303 111.387C107.546 109.928 110.058 108.738 112.428 107.756C112.907 107.215 113.382 106.724 113.879 106.173C114.017 105.99 114.284 105.879 114.536 105.789C116.423 104.997 118.335 103.764 119.769 102.207C119.81 102.156 119.897 102.072 119.87 101.973C119.432 99.9266 120.782 99.3208 121.632 97.8028C121.76 97.6047 121.622 97.5534 121.482 97.4821C120.548 96.8934 119.699 96.081 119.046 95.3184C118.892 95.0904 118.827 94.8024 118.772 94.5473C118.097 91.3687 119.495 91.1364 119.747 89.2977C119.729 88.3826 119.975 87.3064 120.263 86.3557C120.603 85.2482 120.755 84.3488 121.146 83.7302C121.338 78.1927 123.057 79.4427 122.588 76.4908C122.465 75.9007 122.153 74.8288 121.781 74.0919C121.751 74.022 121.706 73.9921 121.653 73.9893V73.9893ZM120.594 75.0697C120.624 75.0626 120.657 75.0668 120.687 75.0697C120.885 75.0839 121.04 75.2308 121.061 75.4146C121.097 75.7738 121.176 76.1045 121.247 76.4366C119.967 79.4969 120.711 83.6974 119.036 86.2716C118.952 88.5266 118.67 89.9647 117.33 90.8641C117.276 90.9055 117.216 90.8998 117.152 90.8641C115.014 89.8194 113.102 87.6414 111.236 85.9324C114.14 84.0424 111.51 82.0568 113.58 79.8874C115.989 77.3431 118.11 77.0909 120.312 75.198C120.404 75.1196 120.5 75.0782 120.594 75.0697ZM78.9691 75.2279C79.2327 75.2307 79.5364 75.3719 79.7544 75.5828C81.8996 76.5207 81.7072 77.3788 83.382 78.2197C83.7383 78.405 84.3484 78.7386 84.8188 78.8455C85.0354 79.5966 85.3889 79.5753 86.1771 80.9194C86.3667 81.2486 87.0594 81.7889 87.1221 82.2393C87.1706 82.5215 87.1649 82.7667 87.1435 83.0375C87.1221 83.8015 86.8071 84.5313 87.2276 84.8733C87.5726 85.0501 87.3445 85.224 87.9688 85.539C88.2838 85.6915 88.4463 85.8483 88.2781 86.1775C87.7792 87.0513 87.1678 87.7711 86.6104 88.5693C86.465 88.7546 86.2527 88.9014 86.0374 89.0283C84.8273 89.7538 83.8224 90.7744 82.7363 91.7365C82.6679 91.7878 82.6351 91.7365 82.5866 91.7194C81.5461 91.1278 81.2696 90.0959 81.1313 88.689C80.7721 84.9332 80.0181 88.1816 78.7524 76.9982C78.5814 76.4936 78.3961 75.5942 78.5543 75.3875C78.6626 75.2764 78.8066 75.225 78.9691 75.2279V75.2279ZM103.464 82.5115C102.5 84.2975 102.011 84.1293 101.43 84.8277C101.387 84.8762 101.343 84.9361 101.297 84.9959C101.256 85.0558 101.21 85.1185 101.169 85.1912C101.123 85.2625 101.091 85.3266 101.072 85.3893C101.072 85.3922 101.075 85.395 101.072 85.3979C101.058 85.4577 101.048 85.5247 101.045 85.5775C101.072 86.1604 100.977 86.3971 101.129 86.5895C101.139 86.6037 101.145 86.6194 101.148 86.6365C101.156 86.655 101.156 86.6736 101.159 86.6907C101.162 86.7306 101.153 86.7691 101.139 86.7962C101.031 86.7277 100.863 86.598 100.719 86.4697C100.608 86.37 100.515 86.2773 100.472 86.1961C100.472 86.1932 100.475 86.1904 100.472 86.1875C100.461 86.1604 100.455 86.1334 100.455 86.112C100.455 86.0521 100.449 86.0136 100.445 85.9794C100.431 85.8454 100.392 85.8654 100.361 85.7186C100.347 85.6445 100.328 85.5276 100.322 85.3238C100.32 85.224 100.322 85.0985 100.322 84.9475C100.311 84.852 100.32 84.8035 100.344 84.7622C100.352 84.7436 100.365 84.7237 100.379 84.7052C100.395 84.6866 100.409 84.6695 100.428 84.6481C101.297 83.7544 102.452 83.1629 103.464 82.5115V82.5115ZM96.5281 82.7282C97.4389 83.3468 98.4623 84.1735 99.4615 85.0045C99.4829 85.0287 99.4972 85.0529 99.5185 85.08C99.5756 85.167 99.6183 85.2696 99.5941 85.3979C99.5342 85.7756 99.3532 86.1391 99.2092 86.5225C99.2035 86.541 99.1921 86.5496 99.1793 86.5624C99.1679 86.571 99.1579 86.5838 99.1437 86.5895C99.1137 86.6009 99.0781 86.598 99.0596 86.5795C98.88 86.3514 98.6847 86.1205 98.5222 85.8868C98.468 85.8155 98.411 85.7371 98.411 85.6416C98.4182 85.5661 98.421 85.4905 98.421 85.4278C98.421 85.3622 98.4182 85.3052 98.411 85.2482C98.3968 85.1427 98.364 85.0501 98.3184 84.9774C98.3155 84.9745 98.3184 84.9688 98.3184 84.9688C98.2229 84.8163 98.0575 84.7265 97.7938 84.6567C97.5772 84.594 97.389 84.4985 97.2294 84.3873C97.2266 84.3844 97.2237 84.3873 97.2209 84.3873C96.9871 84.2191 96.8189 83.9939 96.7049 83.7216C96.7049 83.7188 96.6963 83.7145 96.6963 83.7117C96.5823 83.4337 96.531 83.1087 96.5281 82.7282V82.7282ZM108.594 91.5027C108.839 91.4913 109.097 91.5212 109.352 91.5783C109.604 91.6353 109.857 91.7222 110.072 91.8391C110.139 91.8804 110.156 91.9617 110.082 91.9888C109.721 92.0857 109.355 92.2083 108.986 92.3551C108.801 92.4263 108.621 92.5076 108.431 92.5888C107.502 92.9993 106.554 93.5125 105.612 93.9871C105.512 94.0285 105.447 94.0142 105.404 93.9572C105.39 93.9358 105.378 93.9144 105.368 93.8816C105.347 93.7804 105.351 93.6807 105.36 93.5823C105.365 93.4854 105.384 93.387 105.387 93.2816C105.395 93.1376 105.485 93.1291 105.536 93.0564C105.713 92.9879 105.863 92.9281 105.987 92.8711C106.356 92.7 106.506 92.5803 106.631 92.4691C106.718 92.3936 106.796 92.3251 106.905 92.2411C107.016 92.1598 107.163 92.0672 107.402 91.9531C107.546 91.8876 107.69 91.8277 107.831 91.7636C107.975 91.7037 108.116 91.6438 108.255 91.5954C108.363 91.5383 108.488 91.5056 108.594 91.5027V91.5027ZM90.3021 91.698C90.3207 91.698 90.3449 91.7037 90.3591 91.698C90.419 91.7194 90.4675 91.7436 90.5102 91.7636C90.5516 91.7878 90.5815 91.812 90.6114 91.8391C90.7226 91.9346 90.7682 92.0429 91.0533 92.1783C91.1217 92.2111 91.2115 92.2525 91.3141 92.2895C91.4182 92.3251 91.5422 92.3608 91.689 92.4035C92.0425 92.5176 92.2948 92.5831 92.5314 92.6729C92.5371 92.6758 92.5371 92.6815 92.5442 92.6815C92.778 92.7756 93.0032 92.8896 93.2811 93.0863C93.3781 93.1533 93.4793 93.2317 93.5933 93.3215C93.7045 93.4113 93.8313 93.5125 93.9682 93.6294C94.0252 93.675 94.0765 93.7049 94.0893 93.789C94.0922 93.8161 94.0893 93.8432 94.0793 93.8731V93.8816C94.0708 93.9116 94.058 93.9387 94.0437 93.9686C94.0081 94.0313 93.9596 94.0855 93.9112 94.1282C93.894 94.1396 93.8784 94.1496 93.8641 94.1553C93.8513 94.1582 93.8271 94.1582 93.7971 94.1553C93.7073 94.1368 93.6361 94.1254 93.5634 94.0983C93.4978 94.0741 93.4408 94.0441 93.3866 94.0142C93.3296 93.9843 93.2811 93.9572 93.237 93.9216C93.1913 93.8845 93.1557 93.846 93.1144 93.8075C93.0303 93.7291 92.9433 93.6479 92.8322 93.5638C92.7808 93.5225 92.7238 93.4825 92.654 93.4412C92.5856 93.4013 92.5072 93.36 92.4202 93.3215C92.3304 93.2816 92.2592 93.273 92.1865 93.2915C92.1622 93.3001 92.1351 93.3058 92.1123 93.3215C92.0154 93.36 91.9256 93.3144 91.8301 93.2915C91.7574 93.2759 91.6762 93.2488 91.5964 93.2189C91.5921 93.216 91.5892 93.2189 91.5864 93.2189C91.002 92.9879 90.275 92.4178 90.2722 91.7365C90.2722 91.7251 90.2793 91.7137 90.2822 91.7065C90.2879 91.7037 90.2936 91.698 90.3021 91.698V91.698ZM91.5479 98.2233C91.7033 98.2233 91.8658 98.2319 92.0282 98.2404C92.1922 98.2561 92.3604 98.2703 92.5314 98.2974C92.6611 98.3188 92.7865 98.3459 92.9191 98.373C92.9604 98.3844 93.0032 98.3915 93.0474 98.4029C93.1258 98.4214 93.2042 98.4442 93.2811 98.4685C93.3838 98.4956 93.4821 98.5255 93.5819 98.5625C93.7287 98.6124 93.8698 98.6666 94.0138 98.7293C94.1392 98.7835 94.2661 98.8433 94.3886 98.9075C94.5112 98.973 94.6352 99.0486 94.755 99.1227C94.8562 99.1854 94.9559 99.2524 95.0543 99.3208C95.0999 99.3508 95.1441 99.3721 95.1869 99.4049C95.2581 99.4591 95.3308 99.5161 95.4021 99.5731C95.4178 99.5845 95.432 99.5974 95.4477 99.6116C95.4591 99.6216 95.4748 99.6301 95.4862 99.6387C95.5076 99.6572 95.5318 99.6786 95.5532 99.6957C95.6458 99.777 95.7385 99.8696 95.8311 99.9566C95.9523 100.071 96.0663 100.187 96.1803 100.314C96.1889 100.323 96.1974 100.331 96.2103 100.341C96.3115 100.458 96.407 100.581 96.5096 100.706C96.5666 100.785 96.6265 100.863 96.6863 100.941C96.7348 101.01 96.779 101.07 96.8274 101.14C96.9329 101.295 97.0284 101.457 97.1282 101.629C97.1667 101.694 97.1966 101.781 97.1938 101.852C97.1909 101.877 97.1852 101.895 97.1724 101.919C97.0797 102.117 97.0227 102.318 96.9771 102.546C96.9714 102.579 96.9415 102.606 96.9115 102.612C96.9001 102.612 96.8816 102.609 96.8731 102.603C96.7106 102.504 96.5609 102.408 96.4141 102.303C96.273 102.201 96.1404 102.09 96.0121 101.982C96.0093 101.982 96.0022 101.985 96.0022 101.982C95.871 101.874 95.7513 101.76 95.6273 101.646C94.5269 100.629 93.7529 99.5247 92.2706 99.2282C92.2677 99.2253 92.2649 99.2282 92.262 99.2282C91.5992 99.0956 90.8039 99.1284 89.769 99.3964C89.4241 99.432 89.0421 99.432 88.653 99.4049C88.2624 99.3778 87.8662 99.3237 87.4885 99.2553C87.306 99.2225 87.1164 99.1826 86.9454 99.1412C86.9425 99.1412 86.9397 99.1441 86.9368 99.1412C86.7658 99.1013 86.6062 99.0543 86.4593 99.0115C86.4536 99.0087 86.4508 99.0115 86.4479 99.0115C86.1443 98.9217 85.8992 98.8262 85.7281 98.7393C86.5021 98.7535 87.3531 98.745 88.0885 98.7122C88.824 98.6794 89.4355 98.631 89.7291 98.5711C89.8289 98.5226 89.9486 98.4813 90.0783 98.4385C90.1981 98.4 90.3363 98.3573 90.4803 98.3274C90.4917 98.3245 90.5074 98.3274 90.5188 98.3274C90.6471 98.3003 90.7825 98.2775 90.9293 98.2618C90.9535 98.2589 90.9721 98.2532 90.9963 98.2532C91.173 98.2347 91.3555 98.2262 91.5479 98.2233V98.2233ZM107.888 99.4805C107.234 99.519 106.517 99.7684 105.705 100.473C104.475 101.681 103.44 103.185 102.647 104.608C102.555 104.781 102.525 104.94 102.563 105.123C103.464 109.268 103.85 111.332 104.018 112.427L104.61 111.938C104.255 110.94 104.073 109.733 104.195 108.282C104.621 107.172 104.844 105.86 105.039 104.608C105.686 103.233 105.753 102.65 106.379 102.688C106.94 102.717 107.522 102.745 108.048 102.631C108.252 102.591 108.42 102.509 108.602 102.395C109.488 101.862 110.243 101.14 110.889 100.323C110.967 100.239 111.014 100.059 110.973 99.9779C110.949 99.9152 110.91 99.8824 110.832 99.8824C109.901 99.9394 108.983 99.4163 107.888 99.4805V99.4805ZM107.589 99.5817C107.763 99.5788 107.942 99.6173 108.113 99.6872C108.458 99.8226 108.711 100.086 108.846 100.398C108.915 100.557 108.953 100.722 108.96 100.896C108.963 101.07 108.933 101.249 108.863 101.42C108.795 101.591 108.695 101.738 108.572 101.862C108.206 102.231 107.633 102.365 107.12 102.162C107.033 102.126 106.952 102.09 106.878 102.039C106.802 101.991 106.742 101.931 106.68 101.871C106.31 101.504 106.175 100.941 106.379 100.428C106.406 100.359 106.436 100.299 106.473 100.239C106.479 100.233 106.487 100.227 106.493 100.22C106.509 100.195 106.52 100.17 106.538 100.146C106.574 100.098 106.614 100.056 106.652 100.014L106.688 99.9779C106.745 99.9209 106.802 99.8639 106.869 99.8183C106.919 99.7798 106.979 99.7527 107.036 99.7228C107.046 99.7199 107.054 99.7199 107.063 99.7142C107.082 99.7085 107.093 99.6929 107.111 99.6872C107.184 99.6572 107.258 99.6358 107.337 99.6216C107.418 99.6031 107.505 99.5845 107.589 99.5817V99.5817ZM92.6283 99.6031C92.8022 99.5974 92.969 99.6273 93.1443 99.6957C93.227 99.7285 93.3111 99.7684 93.3866 99.8183C93.4622 99.8668 93.522 99.9238 93.5819 99.9865C93.6475 100.051 93.7016 100.11 93.7529 100.182C93.8484 100.326 93.9211 100.485 93.9596 100.654C94.0138 100.902 93.9952 101.172 93.894 101.43C93.857 101.517 93.8185 101.589 93.77 101.664C93.77 101.667 93.7743 101.67 93.77 101.673C93.5762 101.966 93.2697 102.164 92.9362 102.237C92.768 102.273 92.5941 102.276 92.4202 102.246C92.3333 102.231 92.2435 102.204 92.1594 102.172C92.0724 102.135 91.9883 102.096 91.9142 102.048C91.7674 101.952 91.6462 101.825 91.5479 101.681C91.307 101.328 91.2386 100.866 91.4096 100.437C91.4424 100.353 91.4909 100.274 91.5393 100.203C91.5835 100.133 91.6263 100.071 91.679 100.014C91.6919 100.002 91.7061 99.9965 91.7189 99.9865C91.776 99.9295 91.8301 99.8696 91.8957 99.8283C91.9499 99.7884 92.0069 99.7613 92.0639 99.7313C92.0667 99.7313 92.0696 99.7256 92.0724 99.7228C92.1266 99.6986 92.1865 99.6872 92.2435 99.6686C92.2976 99.6515 92.3547 99.6301 92.4117 99.6216H92.4302C92.4929 99.6088 92.5613 99.6031 92.6283 99.6031V99.6031ZM88.3708 100.257C88.4035 100.257 88.4392 100.263 88.4734 100.269C88.4791 100.269 88.4876 100.266 88.4933 100.269C88.5532 100.274 88.6131 100.296 88.6801 100.323C88.7513 100.353 88.8269 100.388 88.9053 100.437C88.9851 100.485 89.0692 100.54 89.1604 100.605L89.1861 100.624C89.2645 100.683 89.3429 100.743 89.4298 100.812C89.5225 100.884 89.6094 100.947 89.712 101.028C89.9002 101.175 90.1083 101.336 90.3292 101.496C90.4404 101.577 90.5544 101.651 90.677 101.73C90.7711 101.79 90.8666 101.859 90.9692 101.919C91.0105 101.944 91.0561 101.966 91.0975 101.991C91.2144 102.058 91.3384 102.12 91.4638 102.18C91.5864 102.24 91.7161 102.294 91.8472 102.348C91.89 102.365 91.9285 102.39 91.9712 102.405C92.1024 102.455 92.2406 102.495 92.3817 102.536C92.5499 102.585 92.721 102.633 92.8977 102.669C93.0773 102.702 93.2612 102.726 93.4522 102.74C93.6446 102.759 93.8456 102.77 94.0523 102.77C94.0922 102.77 94.1221 102.78 94.1463 102.797C94.1691 102.813 94.1877 102.834 94.1934 102.873C94.1991 103.196 93.9026 103.31 93.5819 103.332C93.3923 103.335 93.2042 103.329 93.0117 103.323C92.4473 103.308 91.8871 103.263 91.3227 103.172C91.2628 103.166 91.2115 103.152 91.1545 103.128C91.1003 103.104 91.0533 103.071 90.9963 103.032C90.8224 102.914 90.6385 102.78 90.4532 102.631C90.2665 102.479 90.0898 102.324 89.9187 102.172C89.742 102.015 89.5795 101.871 89.4384 101.738C89.3001 101.61 89.1903 101.499 89.112 101.42C89.0307 101.349 88.968 101.289 88.9138 101.232C88.8625 101.178 88.8183 101.124 88.7813 101.083C88.7128 100.998 88.6829 100.941 88.6444 100.887C88.6231 100.86 88.6017 100.836 88.5774 100.812C88.5033 100.733 88.3822 100.649 88.1099 100.502C88.0771 100.488 88.0558 100.475 88.0529 100.455C88.0501 100.443 88.0501 100.434 88.0615 100.418C88.0714 100.404 88.08 100.386 88.0971 100.371C88.127 100.347 88.1641 100.329 88.194 100.314C88.2211 100.299 88.2482 100.284 88.2781 100.277C88.308 100.269 88.338 100.26 88.3708 100.257V100.257Z" fill="#FDBE11"/>
</svg>
