<svg width="200" height="200" viewBox="0 0 200 200" fill="none" xmlns="http://www.w3.org/2000/svg">
<rect width="200" height="200" fill="white"/>
<path d="M159.556 99.7771C159.556 132.791 132.791 159.554 99.7779 159.554C66.7632 159.554 40 132.79 40 99.7771C40 66.7632 66.7632 40 99.7776 40C132.791 40 159.556 66.7632 159.556 99.7771Z" fill="white"/>
<path d="M156.562 99.777C156.562 131.136 131.139 156.561 99.7776 156.561C68.4165 156.561 42.9927 131.136 42.9927 99.777C42.9927 68.4167 68.4162 42.9924 99.7773 42.9924C131.138 42.9924 156.562 68.4165 156.562 99.777Z" fill="#EC2227"/>
<path d="M140.377 99.777C140.377 122.201 122.2 140.376 99.7776 140.376C77.3547 140.376 59.1777 122.201 59.1777 99.777C59.1777 77.3541 77.3547 59.1771 99.7776 59.1771C122.2 59.1768 140.377 77.3541 140.377 99.777Z" fill="white"/>
<path d="M99.7777 137.472C120.596 137.472 137.472 120.595 137.472 99.7771C137.472 78.9588 120.596 62.0823 99.7777 62.0823C78.9595 62.0823 62.083 78.9588 62.083 99.7771C62.083 120.595 78.9595 137.472 99.7777 137.472Z" fill="#010101"/>
<path d="M98.0695 83.5082C97.4625 84.3797 95.7751 87.1437 94.6719 88.6325C95.2747 90.985 97.0936 89.3041 99.6333 89.1958C102.043 89.0919 103.124 91.0835 104.65 88.5464C103.652 86.8855 101.88 84.1979 101.285 83.4167C100.82 83.7469 100.252 83.9459 99.6395 83.9518C99.0635 83.96 98.5276 83.7918 98.0695 83.5082Z" fill="white"/>
<path d="M99.4011 78.1333L99.4025 78.1313C99.4025 78.1313 99.2515 73.7247 99.2445 71.5082C97.3519 69.9895 96.7005 72.5696 94.7334 74.178C92.866 75.7008 90.6085 74.9044 90.906 77.8468C92.7582 78.604 96.1389 79.585 96.9647 79.8193C97.3951 78.8775 98.3103 78.2118 99.4011 78.1333Z" fill="white"/>
<path d="M96.7949 80.2957C96.1444 80.0905 92.6147 79.0006 90.5799 78.6055C88.718 80.9047 91.0466 81.4714 91.77 83.774C92.5362 86.1958 91.6675 88.7137 94.0808 88.4744C95.1301 86.8886 97.1505 84.0105 97.7005 83.2294C97.0949 82.7016 96.6987 81.9359 96.6877 81.0673C96.6857 80.7989 96.7294 80.5432 96.7949 80.2957Z" fill="white"/>
<path d="M99.8281 78.1333C100.919 78.2118 101.834 78.8775 102.265 79.8196C103.09 79.5851 106.47 78.6043 108.324 77.8471C108.621 74.9047 106.363 75.7009 104.496 74.1783C102.528 72.5699 101.876 69.9899 99.9848 71.5085C99.9783 73.725 99.8262 78.1316 99.8262 78.1316L99.8281 78.1333Z" fill="white"/>
<path d="M102.433 80.2957C102.499 80.5432 102.543 80.7989 102.542 81.0673C102.529 81.9359 102.189 82.6618 101.583 83.1901C102.133 83.9707 104.1 86.6397 105.149 88.226C107.562 88.4645 106.692 86.1955 107.46 83.7737C108.182 81.4711 110.511 80.9044 108.649 78.6052C106.613 79.0006 103.085 80.0908 102.433 80.2957Z" fill="white"/>
<path d="M89.4527 78.6193C89.4247 78.6424 89.0161 79.8687 89.2585 81.0997C89.3951 81.8002 90.6261 82.2822 91.0909 83.5542C91.7914 85.4733 90.8031 89.038 93.4108 88.9347C88.3568 92.4799 84.1328 80.1133 89.4527 78.6193Z" fill="white"/>
<path d="M109.506 78.3752C114.96 79.1747 111.249 89.0536 108.988 89.5477C108.096 89.8376 106.939 89.5226 106.256 89.2299C108.427 88.5148 107.593 86.6163 108.217 83.7969C108.58 82.1668 110.166 81.7793 110.203 80.3936C110.279 79.4053 109.547 79.241 109.506 78.3752Z" fill="white"/>
<path d="M94.0942 89.6024C95.308 91.9166 96.9274 90.1034 100.186 90.2047C102.367 90.2724 104.441 91.3626 105.36 89.6893C106.969 95.047 92.9249 95.9219 94.0942 89.6024Z" fill="white"/>
<path d="M98.9511 70.6694C96.5827 69.56 96.3928 71.9823 93.7354 73.8743C91.9591 75.1386 89.6446 75.5244 89.9243 77.4128C85.4034 74.1176 96.06 64.9279 98.9511 70.6694Z" fill="white"/>
<path d="M100.232 70.6694C102.6 69.56 102.79 71.9823 105.448 73.8743C107.224 75.1386 109.538 75.5244 109.258 77.4128C113.779 74.1176 103.123 64.9279 100.232 70.6694Z" fill="white"/>
<path d="M100.831 68.4803C100.831 68.4803 99.5701 69.3709 99.6029 70.3584C99.5524 69.3187 98.3247 68.5102 98.3247 68.5102C98.3247 68.5102 99.6034 67.6141 99.5563 66.634C99.6509 67.9655 100.831 68.4803 100.831 68.4803Z" fill="white"/>
<path d="M112.006 78.47C112.006 78.47 110.718 77.6786 109.812 77.7599C110.915 77.4379 111.43 76.116 111.43 76.116C111.43 76.116 112.258 76.9818 113.627 76.8249C112.768 77.0225 112.006 78.47 112.006 78.47Z" fill="white"/>
<path d="M106.24 92.1862C106.24 92.1862 106.63 90.8648 106.129 89.8655C106.763 90.6961 108.345 90.5659 108.345 90.5659C108.345 90.5659 107.824 92.0801 108.457 92.8898C107.825 92.0978 106.24 92.1862 106.24 92.1862Z" fill="white"/>
<path d="M91.2873 90.3086C91.2873 90.3086 92.6112 90.7754 93.5095 89.7357C92.925 90.6884 93.422 92.0281 93.422 92.0281C93.422 92.0281 92.0606 91.8484 91.1973 92.6022C91.8752 91.4744 91.2873 90.3086 91.2873 90.3086Z" fill="white"/>
<path d="M87.8785 76.3062C87.8675 77.2469 89.197 77.9733 89.197 77.9733C89.197 77.9733 88.1574 77.7368 87.2526 78.8312C86.9929 77.6849 85.9272 77.1608 85.9272 77.1608C85.9272 77.1608 87.4916 77.1498 87.8785 76.3062Z" fill="white"/>
<path d="M102.115 81.0134C102.132 82.3881 101.027 83.5184 99.6463 83.5336C98.2654 83.5514 97.1323 82.4502 97.1174 81.0743C97.101 79.7011 98.2048 78.5727 99.5834 78.5541C100.965 78.5386 102.098 79.6398 102.115 81.0134Z" fill="white"/>
<path d="M99.6187 82.4685C99.4807 82.6683 99.2673 82.7871 99.0297 82.7871C98.4639 82.7789 97.9073 82.2368 97.8876 81.6695C97.8828 81.4316 97.9971 81.2177 98.1918 81.0729C97.9928 80.9363 97.874 80.7244 97.874 80.487C97.8797 79.9198 98.4215 79.3626 98.9882 79.342C99.2261 79.3392 99.442 79.4493 99.5848 79.6443C99.7237 79.4459 99.9342 79.3291 100.173 79.3271C100.741 79.3353 101.297 79.878 101.316 80.4441C101.323 80.6834 101.21 80.8971 101.013 81.0388C101.213 81.179 101.33 81.3907 101.331 81.63C101.325 82.1939 100.783 82.7504 100.215 82.7722H100.21C99.9729 82.7747 99.7604 82.6641 99.6187 82.4685Z" fill="#010101"/>
<path d="M98.9979 79.8385C98.7052 79.8489 98.3725 80.1907 98.3696 80.4913C98.3696 80.5754 98.4264 80.6321 98.4729 80.6648L99.045 81.0585L98.4865 81.472C98.4388 81.507 98.382 81.5682 98.384 81.6594C98.3945 81.952 98.734 82.2848 99.0334 82.291C99.1215 82.2896 99.1785 82.2343 99.2098 82.1885L99.6069 81.6089L100.02 82.1767C100.067 82.243 100.129 82.276 100.201 82.276C100.498 82.265 100.832 81.9238 100.835 81.6252C100.835 81.5569 100.799 81.494 100.73 81.4454L100.158 81.047L100.722 80.6375C100.789 80.5889 100.823 80.5282 100.821 80.4577C100.811 80.1611 100.468 79.8275 100.168 79.8241C100.103 79.8241 100.041 79.8597 99.9921 79.9288L99.5945 80.4955L99.1858 79.9384C99.1517 79.8927 99.0915 79.8385 98.9979 79.8385Z" fill="white"/>
<path d="M100.501 80.3682C100.448 80.3451 100.385 80.3293 100.311 80.3298C100.305 80.1529 100.212 80.0298 100.151 79.9683C100.002 79.8255 99.7913 79.7693 99.5865 79.7685C99.3821 79.7727 99.1722 79.8348 99.0268 79.9833C98.9653 80.0434 98.8792 80.1692 98.8758 80.3468C98.8041 80.3496 98.7392 80.3651 98.685 80.3891C98.4381 80.5 98.3105 80.7732 98.3151 81.0718C98.3179 81.3707 98.4539 81.6424 98.7034 81.7466C98.7567 81.7697 98.8183 81.7827 98.8919 81.7833C98.9001 81.963 98.9904 82.0827 99.0539 82.147C99.2029 82.2884 99.4149 82.3466 99.6178 82.344C99.8221 82.3412 100.03 82.2797 100.178 82.1321C100.238 82.0672 100.327 81.9447 100.33 81.7663C100.402 81.7644 100.465 81.7466 100.519 81.7248C100.766 81.6139 100.895 81.3385 100.891 81.0399C100.887 80.7407 100.754 80.4687 100.501 80.3682Z" fill="#010101"/>
<path d="M100.329 81.28L100.311 81.282C100.275 81.2862 100.194 81.2546 100.098 81.1835C100.109 81.1375 100.117 81.0932 100.117 81.0447C100.115 81.0001 100.106 80.9566 100.098 80.9168C100.192 80.8443 100.27 80.8101 100.303 80.8158L100.323 80.8164C100.338 80.8164 100.41 80.9044 100.407 81.0466C100.413 81.1883 100.342 81.2781 100.329 81.28Z" fill="white"/>
<path d="M99.8298 81.7948C99.8038 81.8242 99.7101 81.8617 99.6111 81.8617C99.514 81.8645 99.4175 81.829 99.3923 81.7994L99.3774 81.7618C99.3686 81.7186 99.4234 81.6238 99.4846 81.5403C99.5284 81.5513 99.5693 81.5595 99.6164 81.5581C99.6576 81.5575 99.6952 81.5499 99.7352 81.5408C99.7954 81.6235 99.8529 81.7136 99.8453 81.7562L99.8298 81.7948Z" fill="white"/>
<path d="M98.8988 81.3007L98.883 81.2973C98.8658 81.2973 98.7975 81.2084 98.7997 81.0656C98.7935 80.9262 98.8612 80.8339 98.8751 80.8339L98.8934 80.8325L98.9022 80.8297C98.9372 80.8311 99.0176 80.8652 99.1175 80.9355C99.1071 80.9744 99.1009 81.0139 99.1009 81.0566C99.1009 81.1023 99.1099 81.1455 99.122 81.1864C99.021 81.2685 98.9358 81.3027 98.8988 81.3007Z" fill="white"/>
<path d="M99.3709 80.3211C99.4017 80.2884 99.4945 80.2528 99.5925 80.2528C99.6915 80.2523 99.7844 80.2841 99.8126 80.3158L99.8284 80.3519C99.8358 80.3917 99.7872 80.4778 99.7299 80.5571C99.6887 80.5497 99.6453 80.5413 99.6026 80.5421C99.5521 80.5427 99.5078 80.5531 99.466 80.5641C99.404 80.4868 99.3534 80.3987 99.3594 80.3578L99.3709 80.3211Z" fill="white"/>
<path d="M99.6005 81.2219C99.6911 81.2219 99.7645 81.1485 99.7645 81.058C99.7645 80.9674 99.6911 80.894 99.6005 80.894C99.5099 80.894 99.4365 80.9674 99.4365 81.058C99.4365 81.1485 99.5099 81.2219 99.6005 81.2219Z" fill="white"/>
<path d="M91.3308 125.818C91.8249 126.732 91.7451 127.707 90.8851 128.065C90.0266 128.425 88.611 128.031 88.0164 127.116C85.6003 123.463 86.942 119.104 84.8928 115.452C84.4014 114.538 84.4813 113.566 85.3432 113.207C86.1983 112.85 87.6179 113.242 88.2097 114.157C90.6247 117.808 89.2844 122.167 91.3308 125.818Z" fill="white"/>
<path d="M114.567 115.454C115.057 114.538 114.977 113.566 114.117 113.205C113.262 112.848 111.847 113.242 111.249 114.155C108.836 117.812 110.177 122.169 108.128 125.821C107.64 126.732 107.714 127.707 108.576 128.065C109.432 128.424 110.853 128.028 111.445 127.116C113.861 123.465 112.52 119.107 114.567 115.454Z" fill="white"/>
<path d="M77.5004 120.184C77.9965 120.334 78.2767 120.859 78.1272 121.355L77.3378 123.977C77.1922 124.474 76.6658 124.755 76.1717 124.606C75.6747 124.457 75.3933 123.935 75.5415 123.437L76.3289 120.814C76.4793 120.319 77.0008 120.035 77.5004 120.184Z" fill="#FCEE23"/>
<path d="M80.0003 120.107C80.5007 120.257 80.7809 120.78 80.6311 121.273L79.8417 123.898C79.6918 124.396 79.1711 124.677 78.675 124.529C78.178 124.379 77.8958 123.856 78.0428 123.357L78.833 120.736C78.9815 120.24 79.5047 119.958 80.0003 120.107Z" fill="#FCEE23"/>
<path d="M82.6231 119.834C83.1167 119.983 83.3995 120.507 83.2499 121.004L82.4645 123.625C82.3127 124.121 81.7905 124.404 81.2938 124.252C80.7977 124.105 80.5152 123.581 80.6662 123.084L81.4522 120.462C81.604 119.965 82.1255 119.683 82.6231 119.834Z" fill="#FCEE23"/>
<path d="M85.1649 119.637C85.6633 119.787 85.9433 120.312 85.7943 120.808L85.0063 123.431C84.8559 123.925 84.3352 124.208 83.8376 124.059C83.3401 123.909 83.059 123.386 83.2069 122.891L83.9954 120.267C84.1444 119.768 84.6674 119.488 85.1649 119.637Z" fill="#FCEE23"/>
<path d="M122.039 120.184C121.544 120.334 121.262 120.859 121.41 121.355L122.199 123.977C122.347 124.474 122.872 124.755 123.367 124.606C123.863 124.457 124.147 123.932 123.996 123.437L123.207 120.814C123.057 120.319 122.537 120.035 122.039 120.184Z" fill="#FCEE23"/>
<path d="M119.534 120.107C119.041 120.257 118.757 120.78 118.905 121.276L119.696 123.898C119.844 124.397 120.37 124.677 120.866 124.531C121.361 124.379 121.64 123.857 121.492 123.357L120.706 120.738C120.556 120.24 120.033 119.958 119.534 120.107Z" fill="#FCEE23"/>
<path d="M116.917 119.834C116.421 119.982 116.137 120.507 116.287 121.002L117.074 123.625C117.227 124.121 117.746 124.404 118.246 124.252C118.742 124.106 119.022 123.581 118.874 123.085L118.084 120.46C117.936 119.963 117.412 119.683 116.917 119.834Z" fill="#FCEE23"/>
<path d="M114.374 119.637C113.878 119.787 113.595 120.312 113.744 120.808L114.533 123.431C114.681 123.925 115.205 124.208 115.702 124.058C116.199 123.909 116.479 123.386 116.331 122.891L115.542 120.267C115.393 119.77 114.872 119.488 114.374 119.637Z" fill="#FCEE23"/>
<path d="M116.11 86.824C114.646 99.4536 108.114 106.842 100.37 113.193C101.648 114.071 102.948 114.874 104.247 115.62C116.147 108.856 125.736 99.7886 126.475 81.8674C122.927 83.4255 119.613 85.2232 116.11 86.824Z" fill="white"/>
<path d="M90.2723 118.87C90.4973 119.714 90.4507 120.578 90.6756 121.12C93.4307 120.049 96.7123 119.253 99.2057 117.92C97.8675 117.357 96.53 116.746 95.2033 116.076C93.8117 117.144 92.1192 118.004 90.2334 118.579C90.2472 118.676 90.2594 118.772 90.2723 118.87Z" fill="white"/>
<path d="M109.025 120.234C109.08 119.746 109.135 119.253 109.203 118.758C96.1496 112.525 85.7439 103.807 83.4421 86.8249C79.9383 85.2235 76.629 83.4264 73.0801 81.8682C74.3622 105.405 90.2949 115.381 108.964 120.786C108.985 120.603 109.005 120.419 109.025 120.234Z" fill="white"/>
<path d="M52.5992 97.0793C53.758 97.1889 54.2945 96.3289 54.3913 95.3045C54.4548 94.6336 54.3563 93.5908 53.4662 93.5064C52.5269 93.4175 52.245 94.7076 51.7824 95.9558C51.3187 97.2162 50.695 98.4741 49.061 98.3194C47.2802 98.1509 46.5856 96.3871 46.7344 94.814C46.9062 92.9967 47.857 91.4008 49.8693 91.5913L49.694 93.4449C48.6393 93.4068 48.3007 94.1253 48.2143 95.04C48.1565 95.6499 48.3458 96.3814 49.0776 96.4506C49.7485 96.5141 49.8729 96.1074 50.6406 93.9772C50.859 93.358 51.446 91.4445 53.4218 91.6316C55.0195 91.7826 56.0962 93.152 55.8721 95.5181C55.6898 97.4451 54.5679 99.1602 52.4236 98.9327L52.5992 97.0793Z" fill="white"/>
<path d="M47.7539 88.6489L48.2845 86.8L51.5108 87.7263L52.4876 84.3236L49.2612 83.3973L49.7918 81.5488L58.1989 83.9623L57.668 85.8109L54.0415 84.77L53.0647 88.173L56.6915 89.2139L56.1607 91.0624L47.7539 88.6489Z" fill="white"/>
<path d="M50.9097 78.8386L53.8383 72.9901L55.2838 73.714L53.2163 77.8429L54.8921 78.6822L56.7894 74.8926L58.1255 75.5617L56.2278 79.3511L58.1447 80.3106L60.256 76.0942L61.7015 76.8181L58.7291 82.7541L50.9097 78.8386Z" fill="white"/>
<path d="M55.4126 70.5314L59.0637 65.5858L60.3639 66.5456L57.8546 69.9444L59.4802 71.1444L61.655 68.1986L62.857 69.0859L60.6828 72.032L63.5888 74.1774L62.4472 75.7243L55.4126 70.5314Z" fill="white"/>
<path d="M60.3276 64.1821L64.6809 59.8395L65.8225 60.9842L62.8309 63.9687L64.2584 65.3996L66.8514 62.813L67.9067 63.8711L65.3136 66.4576L67.8657 69.0156L66.504 70.3737L60.3276 64.1821Z" fill="white"/>
<path d="M66.1333 58.7327L67.6415 57.5397L73.0669 64.3988L71.5587 65.5918L66.1333 58.7327Z" fill="white"/>
<path d="M69.6851 55.9567L75.2823 52.5721L76.1191 53.9558L72.1672 56.3454L73.1369 57.9492L76.7637 55.7561L77.5373 57.0351L73.9105 59.2282L75.0196 61.0627L79.0553 58.6226L79.8918 60.0063L74.2105 63.4409L69.6851 55.9567Z" fill="white"/>
<path d="M77.9937 51.2984L79.7869 50.6025L82.3664 57.2502L86.3412 55.7078L86.9262 57.2155L81.1582 59.4537L77.9937 51.2984Z" fill="white"/>
<path d="M86.5459 48.2488L90.2562 47.5695C92.4849 47.1616 94.4153 48.2524 94.9377 51.1076C95.3943 53.6013 94.4568 55.6903 91.831 56.171L88.1207 56.8503L86.5459 48.2488ZM89.7209 54.9139L91.4074 54.6052C92.5039 54.4045 93.4284 53.5381 93.0799 51.6348C92.7624 49.9 91.9572 48.9018 90.0779 49.2461L88.7286 49.4931L89.7209 54.9139Z" fill="white"/>
<path d="M108.861 52.8712C108.597 55.2199 107.082 56.2079 104.758 55.9469C102.421 55.6844 101.185 54.3994 101.45 52.0384L102.057 46.635L103.968 46.8498L103.361 52.2532C103.254 53.2023 103.392 54.1669 104.938 54.3405C106.301 54.4934 106.806 53.9465 106.951 52.6565L107.558 47.2531L109.468 47.4678L108.861 52.8712Z" fill="white"/>
<path d="M112.046 48.0111L113.87 48.5792L115.61 55.2661L115.634 55.2732L117.379 49.6717L119.098 50.2071L116.497 58.5565L114.661 57.9848L112.929 51.3134L112.905 51.306L111.164 56.896L109.445 56.3609L112.046 48.0111Z" fill="white"/>
<path d="M121.526 51.3585L123.265 52.1792L119.533 60.0865L117.794 59.2658L121.526 51.3585Z" fill="white"/>
<path d="M126.105 55.5605L123.879 54.1756L124.733 52.8026L130.818 56.5886L129.964 57.9619L127.738 56.5767L123.972 62.6306L122.338 61.6147L126.105 55.5605Z" fill="white"/>
<path d="M132.156 57.6252L137.098 61.9082L136.04 63.1296L132.551 60.1059L131.324 61.5218L134.526 64.2969L133.547 65.4257L130.345 62.6507L128.941 64.2701L132.504 67.3578L131.446 68.5796L126.43 64.2325L132.156 57.6252Z" fill="white"/>
<path d="M139.274 64.1552L141.601 67.1239C142.999 68.907 142.931 71.1232 140.647 72.9139C138.652 74.478 136.366 74.6199 134.719 72.5188L132.392 69.5501L139.274 64.1552ZM134.851 70.066L135.908 71.4156C136.596 72.2927 137.793 72.7082 139.316 71.5141C140.704 70.4261 141.213 69.249 140.034 67.7453L139.188 66.6658L134.851 70.066Z" fill="white"/>
<path d="M147.831 77.0832L150.163 82.7716L148.668 83.3846L147.065 79.4753L145.195 80.2418L146.584 83.6299L145.202 84.1965L143.813 80.8085L140.469 82.179L139.74 80.3998L147.831 77.0832Z" fill="white"/>
<path d="M143.718 85.4349L144.276 87.2753L142.471 87.8222L141.914 85.9822L143.718 85.4349Z" fill="white"/>
<path d="M149.57 93.6382C150.408 93.3752 150.925 92.4453 150.768 91.503C150.486 89.7992 148.93 89.399 147.42 89.6493C145.981 89.8875 144.638 90.7683 144.92 92.4721C145.112 93.6323 146.018 94.1527 147.178 94.1093L147.482 95.9462C145.299 96.1093 143.675 94.8512 143.325 92.7365C142.882 90.0659 144.616 88.1646 147.106 87.752C149.667 87.3272 151.921 88.5679 152.364 91.2385C152.678 93.1359 151.831 94.915 149.876 95.4749L149.57 93.6382Z" fill="white"/>
<path d="M145.923 97.3118L145.984 99.2343L144.099 99.2941L144.037 97.3717L145.923 97.3118Z" fill="white"/>
<path d="M89.9762 151.897L88.2756 151.533L89.4417 146.095L87.3335 145.643L87.6084 144.361C88.7892 144.639 89.966 144.466 90.4207 143.223L91.7742 143.513L89.9762 151.897Z" fill="white"/>
<path d="M95.8253 143.866C97.9481 144.054 98.5504 145.583 98.4767 146.413C98.4019 147.255 97.9021 147.899 97.0707 148.121L97.0727 148.096L97.0718 148.108L97.0707 148.121C98.063 148.443 98.5792 149.275 98.4838 150.349C98.3243 152.142 96.6347 152.89 95.0486 152.749C93.4013 152.603 91.8767 151.631 92.0404 149.788C92.1369 148.703 92.8154 147.988 93.8376 147.833L93.8398 147.809C93.0307 147.503 92.6644 146.782 92.7392 145.94C92.8752 144.403 94.4342 143.742 95.8253 143.866ZM95.1643 151.444C95.9937 151.517 96.6804 150.989 96.7563 150.134C96.8288 149.317 96.219 148.709 95.4135 148.638C94.5716 148.563 93.8582 148.979 93.78 149.857C93.7021 150.736 94.3346 151.37 95.1643 151.444ZM95.5044 147.477C96.2122 147.54 96.8204 147.201 96.8853 146.468C96.9245 146.029 96.7831 145.266 95.7093 145.171C95.0139 145.109 94.3659 145.482 94.2985 146.239C94.2324 146.983 94.809 147.415 95.5044 147.477Z" fill="white"/>
<path d="M102.524 143.954C104.652 143.824 105.475 145.247 105.526 146.078C105.578 146.922 105.18 147.633 104.391 147.976L104.389 147.952L104.39 147.964L104.391 147.976C105.42 148.147 106.055 148.893 106.121 149.969C106.23 151.767 104.671 152.758 103.081 152.856C101.43 152.956 99.7773 152.223 99.6644 150.376C99.5981 149.288 100.162 148.48 101.15 148.174L101.149 148.15C100.303 147.968 99.8329 147.31 99.7813 146.466C99.687 144.925 101.13 144.039 102.524 143.954ZM102.746 147.574C103.455 147.53 104.006 147.104 103.961 146.37C103.934 145.93 103.68 145.196 102.604 145.262C101.907 145.305 101.322 145.77 101.369 146.528C101.414 147.274 102.049 147.616 102.746 147.574ZM103.001 151.547C103.832 151.496 104.432 150.871 104.38 150.014C104.33 149.195 103.636 148.685 102.828 148.735C101.985 148.786 101.342 149.304 101.395 150.184C101.449 151.065 102.169 151.598 103.001 151.547Z" fill="white"/>
<path d="M109.145 149.735C109.373 150.275 109.907 150.662 110.494 150.536C111.727 150.271 111.704 148.585 111.552 147.64L111.523 147.621C111.197 148.38 110.645 148.787 109.831 148.962C109.112 149.116 108.309 148.937 107.718 148.513C107.164 148.093 106.811 147.442 106.67 146.783C106.303 145.07 107.198 143.463 108.947 143.087C111.486 142.543 112.644 144.612 113.098 146.733C113.538 148.78 113.128 151.311 110.745 151.822C109.295 152.133 108.035 151.514 107.527 150.082L109.145 149.735ZM110.983 145.745C110.815 144.967 110.145 144.296 109.295 144.479C108.481 144.653 108.181 145.532 108.342 146.287C108.512 147.077 109.089 147.78 109.963 147.593C110.873 147.397 111.16 146.572 110.983 145.745Z" fill="white"/>
</svg>
