<svg width="200" height="200" viewBox="0 0 200 200" fill="none" xmlns="http://www.w3.org/2000/svg">
<rect width="200" height="200" fill="white"/>
<g clip-path="url(#clip0)">
<path fill-rule="evenodd" clip-rule="evenodd" d="M142.572 40.0706H58.1343V130.707C58.1343 137.787 62.4379 143.36 71.0451 147.471C73.9074 148.848 77.716 150.268 82.4931 151.71L93.1446 154.959L94.6506 155.648C95.7692 156.164 96.5656 156.594 97.0178 156.939C98.1151 157.713 99.1909 158.703 100.246 159.93C101.257 158.875 102.075 158.1 102.677 157.605C103.861 156.637 105.367 155.798 107.239 155.088C108.573 154.571 112.102 153.453 117.825 151.71C122.753 150.203 126.627 148.805 129.402 147.513C138.181 143.446 142.571 137.852 142.571 130.708L142.572 40.0706Z" fill="#7B003A"/>
<path fill-rule="evenodd" clip-rule="evenodd" d="M97.2753 153.387C98.2649 154.054 99.2547 154.894 100.266 155.948C101.192 155.044 101.944 154.377 102.503 153.947C103.558 153.129 104.957 152.397 106.743 151.774C107.969 151.322 111.262 150.354 116.577 148.847C121.161 147.534 124.753 146.33 127.358 145.211C135.513 141.704 139.58 136.84 139.58 130.664L139.58 43.1263H61.1255V130.664C61.1255 136.797 65.1283 141.617 73.1112 145.167C75.7797 146.351 79.3299 147.577 83.7624 148.847L93.661 151.666L97.2753 153.387Z" fill="#A3C5E9"/>
<path fill-rule="evenodd" clip-rule="evenodd" d="M77.6123 72.8574L74.6857 72.4272L73.3516 69.7373L72.0601 72.4275L69.1123 72.8577L71.2424 74.9666L70.7261 77.9575C71.6083 77.4844 72.4908 77.011 73.3514 76.5375L75.9979 77.9575L75.4816 74.9666L77.6123 72.8574Z" fill="white"/>
<path fill-rule="evenodd" clip-rule="evenodd" d="M92.0997 78.1882C91.509 78.7785 91.5392 79.6864 90.9051 80.0422C90.4468 80.2995 89.924 80.2176 89.7018 79.9808C89.3838 79.6411 89.2736 79.1094 89.6898 78.6428C90.1838 78.0882 91.2207 78.1739 92.0996 78.1882L92.0997 78.1882ZM87.663 86.7948C87.6448 87.5191 87.7508 88.0779 88.1045 88.5119C87.5895 88.9212 87.692 89.5675 87.9303 90.1431C88.1888 90.7682 89.0728 91.7587 90.1652 92.2172C90.3513 91.8944 89.835 91.0325 90.0206 90.4401C90.6887 90.9526 91.3227 91.3547 91.7565 91.3147C91.4629 90.7213 91.4318 90.3228 91.5402 90.1646C92.7134 89.1889 94.1056 87.9551 94.9367 87.6827C95.6098 87.462 96.3147 87.9305 96.4295 88.7781C96.5605 89.7474 96.1859 90.5633 95.546 91.2457C94.4106 92.4578 92.8856 93.0411 91.7088 94.3461C89.8318 96.4273 89.4397 98.7274 87.163 98.8468C88.421 98.0001 89.1364 97.275 89.8558 95.9009C85.364 96.5854 82.6344 94.1638 79.8717 92.7483C78.6611 92.1278 77.4505 91.9977 76.7641 91.8495C75.6677 90.7166 75.1074 89.7867 74.8493 88.2658C74.557 86.5422 74.9937 85.0134 73.4136 84.8269C72.5074 83.5734 71.3548 82.724 69.6631 83.833C70.5682 83.9899 71.2256 84.2042 71.6722 85.5425C71.5415 85.7385 71.2377 86.0328 71.2297 86.3763C70.6582 86.4087 70.48 86.4571 70.1043 86.8171C68.601 86.2095 67.1855 86.4603 66.4673 87.9508C67.513 87.6715 68.3212 87.7055 69.0398 88.4095C69.1174 88.8916 69.1677 89.244 69.4413 89.5947C68.8199 89.9738 68.4409 90.7294 68.4168 91.232C67.203 91.5208 66.4694 92.2789 66.4043 93.4318C67.2726 92.8244 68.1713 92.75 68.6155 92.8694C68.8986 93.159 69.1509 93.7231 69.7331 93.8857C70.3925 94.0698 71.6696 93.7946 72.4073 94.0115C72.6963 94.5216 72.8032 94.7878 72.777 95.1123C72.6745 96.3868 70.6014 95.5476 70.7905 97.4542C70.0711 97.6605 69.6349 97.4087 69.0062 96.9578C69.429 98.8447 70.5318 99.7048 71.9984 98.8165C73.2426 99.0877 74.0122 97.7994 75.133 97.1852C76.2123 96.5941 77.7858 97.3537 78.6764 97.9841C80.0425 98.9512 81.4935 100.174 82.2456 103.09C82.7335 102.587 83.0642 101.851 83.1458 101.132L86.6898 104.414L79.048 110.34C78.5265 110.744 77.9385 111.115 77.3896 110.897C76.9201 110.711 76.6522 110.192 76.2422 109.805C75.6433 109.239 74.8376 108.863 73.9757 109.335C72.6097 109.289 71.3423 109.612 71.0844 111.663C71.5362 111.255 71.9516 110.893 72.7997 111.148C72.8035 111.663 72.9341 112.112 73.2652 112.496C72.8405 112.757 72.5627 113.166 72.5301 113.427C71.2694 113.5 70.3502 114.214 70.2269 115.706C70.942 114.989 71.5388 114.674 72.3834 115.02C72.6331 116.55 73.3367 116.741 74.1473 116.637C73.9185 117.291 73.8688 117.756 74.1629 118.303C73.723 119.28 74.2008 120.539 74.8333 120.959C74.7515 120.354 74.8498 119.634 75.1932 119.316C75.912 119.494 76.4456 119.206 77.1644 118.269C77.3357 119.057 77.8879 119.494 78.5824 119.43C78.676 120.251 79.0486 120.913 79.5346 121.341C79.3957 120.671 79.3173 119.928 79.4399 119.258C80.7427 118.229 80.4794 117.108 80.6953 115.828C80.9355 114.404 81.6532 113.77 82.8012 113.016C85.03 111.553 87.6594 110.443 91.8165 110.095C93.1152 111.663 94.408 113.36 96.0501 114.804C93.5378 116.83 91.8352 115.98 89.7982 116.219C88.8805 116.326 87.6664 116.755 87.0094 117.435C86.4305 118.034 86.135 118.796 85.4906 119.119C84.9898 119.371 84.3194 119.44 83.541 118.796C83.5029 120.629 84.2444 121.236 86.1163 121.129C85.4552 121.911 84.7607 122.208 83.3391 121.686C83.9416 123.145 84.9258 123.682 86.4533 123.521C86.8146 126.02 90.018 127.406 89.4477 129.378C88.6754 132.05 82.7686 132.783 80.6233 131.4C79.1151 130.428 78.441 128.807 76.6685 129.341C75.6916 128.452 73.8869 128.161 73.1429 130.293C74.4304 129.574 75.018 129.967 74.7402 130.813C72.4266 130.843 71.5544 131.993 71.8766 133.561C72.3252 132.739 72.8013 132.548 73.3877 132.661C73.1939 133.106 73.0683 133.688 73.0938 134.572C71.9509 135.263 71.9069 136.531 72.4256 137.593C72.7264 136.727 72.8761 135.936 73.5839 135.896C74.0072 136.469 74.5953 136.877 75.3479 137.121C75.0839 138.478 75.1492 139.712 75.5439 140.739C75.8048 139.83 76.0652 139.251 76.4084 138.836C77.5999 139.662 78.86 139.678 80.0915 139.346C82.607 138.668 84.152 136.707 86.1054 136.677C87.1912 136.661 87.6868 137.514 86.958 138.511C88.5163 138.416 89.3557 138.051 90.1127 137.614C91.2933 136.932 92.038 136.077 93.1825 135.803C95.0854 135.348 97.7679 137.528 99.0427 135.094C97.5441 135.347 96.6824 134.668 96.4199 133.959C98.3082 134.288 99.5347 134.232 100.548 132.654C97.7926 133.118 96.5666 130.715 96.3972 129.395C96.2382 128.156 96.638 125.835 99.2133 125.053C100.043 123.331 100.481 122.428 101.381 121.005L101.68 119.619C101.863 120.262 102.001 120.876 101.8 121.574C101.506 122.593 100.795 123.704 100.364 124.873C100.01 125.834 99.9033 126.891 99.9553 127.689C100.021 128.692 100.367 129.61 101.001 130.365C102.059 131.623 103.603 132.641 102.52 135.16C103.68 135.046 104.345 134.492 105.505 133.169C106.387 133.842 107.035 134.748 106.709 135.97C108.174 135.52 109.098 134.372 109.616 132.7C111.714 132.761 112.889 133.179 113.093 133.986C113.432 135.331 110.074 140.322 105.856 140.492C105.186 140.312 104.657 139.614 104.134 139.366C103.661 139.141 103.01 139.189 102.448 139.986C101.127 139.628 99.5722 139.971 99.1651 141.447C98.3809 141.796 97.6837 142.959 97.7976 143.984C98.0786 143.74 98.9792 143.138 99.3219 143.091C99.4168 143.397 99.9456 143.718 100.247 143.806C98.4624 145.371 98.4064 146.654 98.563 147.265C99.3167 146.046 100.2 145.818 100.629 145.851C100.932 146.613 101.534 146.93 102.416 147.029L102.458 149.148L103.966 147.478C105.812 148.381 107.754 147.813 109.125 146.784C111.654 144.886 112.709 141.175 114.587 141.42C114.98 141.471 115.344 141.863 115.156 142.427C115.621 142.539 116.063 142.353 116.399 141.953C117.138 141.073 117.596 139.32 118.975 137.257C119.856 135.938 121.972 134.51 122.576 133.203C121.593 133.851 120.444 133.647 120.285 133.074C122.016 132.169 123.575 131.112 124.221 128.625C123.274 129.063 122.409 129.391 121.461 129.28C122.253 127.603 122.522 125.871 121.769 124.746C119.359 128.277 116.476 127.689 115.31 126.869C114.402 126.23 113.536 125.267 113.465 123.019C113.447 122.43 113.59 121.493 113.843 120.616C114.096 119.739 114.377 119.045 114.387 118.244C117.949 120.296 120.743 120.914 122.753 120.825C126.518 120.659 128.958 117.671 128.826 113.852C128.761 111.982 127.97 110.175 126.573 108.391C124.992 106.373 122.754 104.424 121.276 102.406C120.501 101.348 119.982 100.159 119.765 99.0765C119.416 97.3347 119.679 95.3304 121.534 93.6477C123.528 94.801 125.406 95.2641 127.193 95.1285C129.022 94.9896 130.473 93.8968 131.882 92.737C132.517 92.214 133.184 91.667 134.534 91.8171C134.089 91.3 133.274 90.7419 132.046 90.8015C134.929 87.3051 136.088 82.9353 134.492 79.8806C134.231 81.6401 133.645 82.0659 133.116 82.4289C132.414 82.9109 131.85 83.0001 130.833 83.5346C131.358 82.51 131.305 81.7519 130.964 80.583C129.718 83.8056 128.102 83.0334 125.826 85.391C126.094 84.3128 126.128 83.4407 125.723 82.4451C125.582 83.4265 125.001 84.1738 124.426 84.5988C122.368 86.1165 119.796 86.4719 120.295 91.3751C117.658 93.4679 116.696 95.9485 116.883 98.425C117.038 100.479 117.867 102.361 119.2 104.129C120.619 106.011 122.581 107.764 123.974 109.458C125.498 111.312 126.931 114.571 125.268 116.897C124.184 118.414 121.062 119.29 114.477 115.16C114.134 111.635 111.431 108.009 110.858 104.783C110.643 103.572 110.75 102.527 110.97 101.427C111.165 100.456 111.465 99.4408 111.449 98.2288C112.577 99.1681 113.869 99.3937 114.832 99.0286C114.066 98.7358 113.417 97.7861 113.434 96.5875C113.461 94.7179 114.524 92.8189 113.513 90.709C114.361 91.3171 115.291 91.678 116.345 91.215C113.978 89.6452 116.141 87.6226 115.008 85.0231C115.841 85.4335 117.044 85.4322 117.917 84.9364C115.111 84.2969 116.547 80.6922 114.152 78.3641C115.187 78.4083 116.036 77.9167 116.535 77.137C114.015 77.555 112.729 74.1485 110.586 72.3205C108.574 70.6034 106.098 69.9855 103.206 70.5334C103.169 70.1086 103.86 69.478 104.702 69.0533C102.071 67.9319 99.3637 68.7689 97.0626 70.8329C97.1636 69.9494 97.0173 69.0661 96.3767 68.2236C96.0514 70.0676 93.2392 71.209 92.2534 72.7145C91.8054 73.3987 91.5386 74.15 91.5642 75.0063C89.0574 76.783 88.3627 76.6652 87.6268 78.8128C86.372 79.8583 84.8491 80.945 83.9238 81.9904C83.9532 82.3113 84.0854 82.6946 84.156 83.0572L84.8875 82.3371C84.6279 83.0113 84.6699 83.6708 84.9822 84.2097C85.578 85.2384 86.7691 85.793 87.4574 86.2332C87.0317 84.9446 87.1536 84.6029 87.653 84.2769C88.7482 83.5619 91.2962 83.8113 91.5219 84.1617C91.8285 84.6371 91.4454 86.8598 90.0563 87.4446C89.0552 87.8659 88.3877 87.5581 87.6635 86.7947" fill="#FFE500"/>
<path fill-rule="evenodd" clip-rule="evenodd" d="M129.101 46.9347C126.218 46.9347 123.773 47.7301 121.763 49.3164C121.297 49.6916 120.876 50.1206 120.506 50.5986C120.118 51.0813 119.775 51.6174 119.483 52.2117C119.199 52.806 118.975 53.4493 118.811 54.1464C118.637 54.839 118.55 55.5987 118.55 56.4251C118.55 58.0695 118.879 59.4591 119.538 60.6029C120.15 61.7469 120.945 62.694 121.918 63.4448C123.933 64.8254 126.314 65.5047 129.06 65.4867C130.102 65.4687 131.084 65.3437 131.998 65.1067C132.907 64.8968 133.72 64.6957 134.447 64.4947C134.872 63.7799 135.206 62.3722 135.443 60.2767C135.361 60.1205 135.201 60.0131 134.977 59.9641C134.744 59.9461 134.566 59.9909 134.447 60.0937C134.109 61.0632 133.519 61.9747 132.683 62.8326C132.259 63.2392 131.747 63.5743 131.153 63.8246C130.545 64.1151 129.837 64.258 129.023 64.258C127.369 64.258 125.934 63.5521 124.714 62.1356C123.463 60.7415 122.814 58.7085 122.782 56.0455C122.814 53.3647 123.467 51.3718 124.742 50.0626C125.98 48.7981 127.365 48.1636 128.895 48.1636C131.5 48.1814 133.163 49.4594 133.89 52.0019C134.027 52.1045 134.214 52.1402 134.447 52.1045C134.671 52.0687 134.817 51.9704 134.886 51.8051C134.663 49.8737 134.563 48.4842 134.577 47.6263C134.169 47.5771 133.498 47.4475 132.552 47.2464C131.619 47.0544 130.468 46.9516 129.102 46.9337L129.101 46.9347ZM108.295 49.686C108.277 49.1588 108.32 48.8342 108.438 48.712C108.523 48.6243 108.77 48.5824 109.175 48.5824H111.537C112.219 48.5824 112.77 48.6475 113.182 48.7924C113.608 48.9423 113.914 49.1765 114.127 49.4628C114.37 49.7886 114.638 50.4858 114.906 51.5626C115.076 51.6656 115.277 51.6855 115.514 51.6656C115.702 51.6499 115.836 51.5984 115.915 51.4554C115.868 49.3823 115.85 47.9881 115.85 47.2732C115.315 47.3269 114.108 47.3538 112.228 47.3538H106.296C105.651 47.3538 105.005 47.3358 104.356 47.3269C103.72 47.3183 103.103 47.309 102.508 47.2732C102.365 47.3447 102.296 47.4878 102.296 47.7066C102.296 47.9436 102.347 48.1134 102.457 48.2162L102.992 48.2965C103.605 48.3455 103.987 48.5422 104.148 48.8819C104.287 49.2259 104.356 50.0035 104.356 51.2143V61.1917C104.356 62.3667 104.287 63.1266 104.148 63.4705C103.987 63.7923 103.605 63.9887 102.992 64.0557L102.103 64.1898C101.997 64.2836 101.941 64.4356 101.941 64.6456C101.941 64.8646 101.997 65.0299 102.103 65.1325C103.715 65.079 105.125 65.0521 106.328 65.0521C107.572 65.0521 109.005 65.079 110.636 65.1325C110.742 65.0299 110.798 64.8646 110.798 64.6456C110.798 64.4356 110.742 64.2836 110.636 64.1898L109.65 64.0557C109.081 63.988 108.713 63.7917 108.538 63.4656C108.357 63.1254 108.275 62.3658 108.294 61.1898V57.575C108.294 57.1998 108.339 56.9619 108.436 56.8647C108.505 56.7968 108.708 56.7619 109.045 56.7619H111.36C112.047 56.7619 112.531 56.8439 112.793 57.0344C113.047 57.2192 113.197 57.6423 113.323 58.2676L113.452 58.911C113.572 59.0139 113.747 59.0495 113.977 59.0408C114.207 59.0319 114.369 58.9871 114.452 58.8843C114.401 58.0442 114.378 57.115 114.378 56.0961C114.378 55.0549 114.401 54.0989 114.452 53.2275C114.369 53.0888 114.208 53.0176 113.977 53.0176C113.747 53.0176 113.572 53.08 113.452 53.2007L113.323 53.844C113.198 54.4694 113.043 54.8823 112.793 55.073C112.527 55.2753 112.047 55.3497 111.36 55.3497H109.045C108.708 55.3497 108.506 55.3096 108.436 55.18C108.34 55.0908 108.294 54.8762 108.294 54.5366L108.295 49.686ZM96.3235 53.7744C97.2404 51.6251 97.9825 50.1193 98.5491 49.266C98.835 48.7385 99.3278 48.4261 100.024 48.3231L100.719 48.1891C100.825 48.0863 100.881 47.9254 100.881 47.7064C100.844 47.4876 100.77 47.3445 100.664 47.2732C99.8992 47.3267 99.0698 47.3535 98.1805 47.3535C97.1943 47.3535 96.0979 47.3267 94.886 47.2732C94.7201 47.3445 94.637 47.4785 94.637 47.6798C94.623 47.8986 94.6647 48.0686 94.7706 48.1891L95.5541 48.3722C95.8765 48.4261 96.0793 48.4929 96.1668 48.5688C96.2359 48.6405 96.2727 48.7297 96.2727 48.8324C96.2727 48.9711 96.1852 49.2973 96.0101 49.8022C95.4894 51.2855 94.7843 53.1575 93.8952 55.4096L92.9 57.9252C92.559 58.774 92.2778 59.4354 92.0521 59.918C91.8679 59.4891 91.5867 58.8009 91.2136 57.8449L88.8602 51.8083C88.5369 50.9861 88.2785 50.3159 88.0766 49.8022C87.8875 49.2793 87.79 48.9619 87.79 48.8593C87.7717 48.6224 87.9933 48.4527 88.4592 48.3454L89.2658 48.1889C89.3533 48.0505 89.3994 47.8807 89.3994 47.6796C89.3994 47.5052 89.3438 47.3667 89.2427 47.2731C87.699 47.3266 86.3582 47.3534 85.2152 47.3534C83.9852 47.3534 82.7733 47.3266 81.5797 47.2731C81.4737 47.3443 81.4002 47.4695 81.3541 47.6528C81.3171 47.845 81.3585 48.0236 81.4784 48.1889L82.2203 48.372C82.8146 48.4615 83.234 48.6492 83.4782 48.9352C83.7131 49.2078 84.0678 49.9942 84.5471 51.2943L88.8877 62.2102C89.2979 63.3183 89.671 64.337 90.0121 65.262C90.1687 65.4094 90.4085 65.4855 90.7309 65.4855C91.141 65.4855 91.4543 65.4094 91.671 65.262C92.2055 63.8591 93.1085 61.5758 94.3804 58.4123L96.3235 53.7744ZM72.2896 57.5768C71.9672 57.5946 71.7598 57.5366 71.6723 57.407C71.5615 57.3178 71.5801 57.1032 71.7274 56.7635L72.3911 54.7575C72.8196 53.4482 73.1837 52.4607 73.4924 51.7949C73.7459 52.4429 74.0683 53.3812 74.46 54.6144L75.1514 56.7905C75.3032 57.13 75.3309 57.3444 75.234 57.4338C75.1418 57.5277 74.9391 57.5767 74.6167 57.5767L72.2896 57.5768ZM74.7593 58.9887C75.2202 58.9887 75.5382 59.0067 75.7133 59.0424C75.8976 59.1094 76.0035 59.257 76.0405 59.4714L76.7594 61.7771C77.1004 62.7824 77.2708 63.39 77.2708 63.5999C77.2708 63.6761 77.2338 63.7608 77.1646 63.8458C77.0771 63.935 76.8744 64.0067 76.5519 64.0558L75.6856 64.1898C75.5659 64.3194 75.5152 64.4803 75.5289 64.6725C75.5289 64.8735 75.6027 65.03 75.7409 65.1325C76.8974 65.079 78.1047 65.0522 79.3625 65.0522C80.7911 65.0522 82.1641 65.079 83.4822 65.1325C83.6065 65.03 83.671 64.8555 83.671 64.6232C83.6526 64.4132 83.5974 64.2657 83.5097 64.1898L82.4867 64.0333C82.026 63.9441 81.6896 63.7206 81.4824 63.3631C81.3488 63.1621 81.2334 62.9209 81.1275 62.6439C81.0076 62.3712 80.8602 62.0405 80.6942 61.6475L77.0604 51.1253C76.4335 49.3335 76.0284 48.1139 75.8434 47.457C75.7615 47.1084 75.554 46.9342 75.2307 46.9342C75.1982 46.9699 74.9738 47.1934 74.563 47.5999C74.1211 48.011 73.5677 48.3283 72.9041 48.5426C72.9225 49.2175 72.5724 50.3524 71.8583 51.9475L69.4529 58.4795C68.7709 60.3388 68.2179 61.7731 67.7894 62.7741C67.573 63.2738 67.3333 63.6141 67.0707 63.7976C66.8035 63.9713 66.4946 64.0743 66.1582 64.1096L65.4349 64.1902C65.3472 64.3198 65.3106 64.4806 65.3288 64.6728C65.3288 64.8739 65.3932 65.0303 65.5178 65.1329C66.6051 65.0971 67.5267 65.0705 68.2731 65.0525C69.4158 65.0705 70.4619 65.0971 71.411 65.1329C71.5356 65.0436 71.5954 64.8828 71.5954 64.646C71.5954 64.4358 71.554 64.284 71.4667 64.1902L70.6554 64.0561C70.2776 63.9714 70.0332 63.8908 69.9089 63.8238C69.7616 63.7701 69.688 63.6942 69.688 63.6003C69.6694 63.4441 69.7339 63.1223 69.8815 62.6443L70.8766 59.5254C70.9457 59.2707 71.0426 59.1098 71.1669 59.0427C71.2497 59.007 71.448 58.989 71.7521 58.989L74.7593 58.9887Z" fill="#7B003A"/>
</g>
<defs>
<clipPath id="clip0">
<rect x="58" y="40" width="84.7059" height="120" fill="white"/>
</clipPath>
</defs>
</svg>
