<svg width="200" height="200" viewBox="0 0 200 200" fill="none" xmlns="http://www.w3.org/2000/svg">
<rect width="200" height="200" fill="white"/>
<path d="M99.2421 159.718L151.777 107.18L134.487 67.5151H144.256V41.5916H54.2221V67.5151H63.9942L46.7046 107.18L99.2421 159.718Z" fill="#ED2127"/>
<path d="M59.1465 46.5161C59.1465 51.4619 59.1465 57.6444 59.1465 62.5902C61.5716 62.5902 136.909 62.5902 139.334 62.5902C139.334 57.6444 139.334 51.4619 139.334 46.5161C131.04 46.5161 67.4403 46.5161 59.1465 46.5161Z" fill="#FBEE23"/>
<path d="M99.242 67.5149H69.3701C64.7917 78.0188 54.3351 102.004 52.561 106.072C56.587 110.101 93.4629 146.976 99.242 152.756V67.5149Z" fill="black"/>
<path d="M129.111 67.5149H99.2393V152.756C105.018 146.976 141.891 110.101 145.919 106.072C144.145 102.004 133.69 78.0188 129.111 67.5149Z" fill="#FBEE23"/>
<path d="M70.5702 52.4626L72.3209 60.5536H74.5995L77.2959 49.1176H75.2149L73.4795 57.9104L71.7412 49.1176H69.5487L67.787 57.9104L66.0188 49.1176H63.9043L66.6014 60.5536H68.9697L70.5702 52.4626Z" fill="black"/>
<path d="M81.1786 56.4915L82.4364 52.6062L83.6935 56.4915H81.1786ZM85.0045 60.5536H87.1941L83.5207 50.5631H81.3492L77.6758 60.5536H79.8647L80.6172 58.2269H84.2549L85.0045 60.5536Z" fill="black"/>
<path d="M87.23 50.5664V52.3014H89.9658V60.5536H92.0621V52.3014H94.741L95.1566 50.5664H87.23Z" fill="black"/>
<path d="M96.9331 50.5664V60.5536H98.958V56.2228H101.986V54.4907H98.958V52.3014H102.47L102.885 50.5664H96.9331Z" fill="black"/>
<path d="M108.823 59.2243C106.831 59.2243 106.338 57.6025 106.338 55.6045C106.338 53.6064 106.831 51.985 108.823 51.985C110.815 51.985 111.308 53.6064 111.308 55.6045C111.308 57.6025 110.812 59.2243 108.823 59.2243ZM108.823 50.4377C105.422 50.4377 103.997 52.7493 103.997 55.6045C103.997 58.4567 105.422 60.7716 108.823 60.7716C112.225 60.7716 113.652 58.4567 113.652 55.6045C113.649 52.7523 112.225 50.4377 108.823 50.4377Z" fill="black"/>
<path d="M119.679 54.9027H118.105V52.3014H119.679C120.25 52.3014 121.11 52.3909 121.11 53.5198C121.11 54.6488 120.25 54.9027 119.679 54.9027ZM120.963 56.3333V56.2257C121.632 56.2257 123.314 55.5925 123.314 53.4571C123.314 51.3247 121.686 50.5664 119.822 50.5664H116.039V60.5536H118.102V56.3872H118.276C118.971 56.3872 121.415 60.5536 121.415 60.5536H124.018L120.963 56.3333Z" fill="black"/>
<path d="M129.783 58.8182H128.203V52.3014H129.783C131.145 52.3014 131.93 53.6185 131.93 55.5837C131.933 57.5519 131.148 58.8182 129.783 58.8182ZM129.714 50.5664H126.166V60.5536H129.714C132.897 60.5536 134.223 58.4209 134.223 55.5866C134.223 52.7523 132.897 50.5664 129.714 50.5664Z" fill="black"/>
<path d="M82.3381 75.3818C82.3381 75.6864 82.3703 75.8775 82.3972 76.0508C82.427 76.2359 82.4599 76.4241 82.4599 76.9079C82.4599 78.4311 82.1105 79.1449 81.8685 79.1449C81.8178 79.1449 81.7939 79.1417 81.7759 79.1387C81.7491 79.1059 81.6988 79.0402 81.66 78.9805C81.2479 78.3921 80.6835 77.7679 79.1663 77.7679C77.7566 77.7679 76.8126 78.7685 76.8126 80.2558C76.8126 82.439 77.3652 84.2041 77.8072 85.6227C78.067 86.447 78.2877 87.1577 78.2877 87.6326C78.2877 88.0119 78.1058 88.3854 77.9953 88.466C77.4428 88.4571 77.2607 88.2777 76.8695 87.8955C76.3438 87.3758 75.6212 86.6621 74.0025 86.6621C73.3126 86.6621 71.7144 86.8979 71.7144 89.0931C71.7144 90.0488 72.0489 90.8672 72.3684 91.6557C72.7119 92.4949 73.064 93.3611 73.064 94.499C73.064 94.5886 73.0556 95.3948 72.7928 95.3948C71.7565 95.3948 71.3653 94.7527 70.768 93.6207C70.2453 92.6322 69.5971 91.4078 68.0949 91.4078C65.628 91.4078 65.6274 95.0932 65.6274 96.479C65.6274 104.316 73.0643 107.156 78.0638 107.156C79.0136 107.156 79.5693 107.075 80.1069 106.998C80.6624 106.917 81.1852 106.84 82.2185 106.84C85.2529 106.84 87.5498 107.446 88.9326 108.593C88.171 108.303 87.2626 108.112 86.1815 108.112C83.5712 108.112 82.6068 108.733 81.6899 109.483C81.3464 109.766 81.0927 109.972 80.6268 110.107L76.9169 111.167L80.68 112.01C82.251 112.362 83.12 113.595 84.0429 114.9C85.0255 116.292 86.1365 117.872 88.1793 117.872C88.3705 117.872 88.5501 117.857 88.7233 117.83C88.5471 118.795 88.4003 120.016 88.4003 121.429C88.4003 123.469 88.8997 124.264 89.5567 125.091L89.8702 125.509C90.1629 125.936 90.4734 126.351 90.778 126.751C91.8532 128.173 92.8714 129.52 92.8714 131.363C92.8714 132.345 92.9192 133.14 92.964 133.904C93.0118 134.672 93.0508 135.394 93.0508 136.302C93.0508 139.02 94.9295 139.862 95.939 140.313C96.0405 140.361 96.1628 140.415 96.2583 140.463C96.4525 141.392 97.3692 141.696 97.9427 141.881L98.1432 141.947L98.3517 142.031C98.6444 142.156 99.0421 142.329 99.7648 142.329C101.643 142.329 102.467 140.934 102.638 139.773C102.671 139.758 102.703 139.746 102.733 139.731C103.56 139.364 105.284 138.605 105.284 136.183C105.284 134.914 105.126 133.955 104.986 133.11C104.884 132.486 104.791 131.945 104.791 131.41C104.791 129.875 105.421 129.096 106.284 128.021C107.449 126.569 108.903 124.768 108.903 120.709C108.903 119.273 108.823 118.174 108.715 117.343C108.951 117.397 109.196 117.436 109.45 117.436C112.138 117.436 113.067 115.823 113.742 114.488C115.002 111.989 117.439 112.135 117.439 112.135C117.439 112.135 115.51 108.796 110.914 108.796C109.513 108.796 108.437 109.077 107.625 109.444C108.001 108.363 108.644 107.882 109.172 107.598C110.442 106.926 112.326 106.866 113.996 106.866C115.02 106.866 115.746 106.941 116.451 107.016C117.114 107.085 117.798 107.156 118.679 107.156C125.456 107.156 127.235 105.009 129.117 102.736C130.718 100.807 131.778 98.9342 131.778 96.0371C131.778 94.0899 131.217 92.0111 129.634 92.0111C128.266 92.0111 127.678 93.2893 127.206 94.3167C126.641 95.5412 126.309 96.055 125.727 96.055C124.965 96.055 124.347 95.3055 124.347 94.3856C124.347 93.5344 124.912 92.4591 125.459 91.4198C126.08 90.2311 126.727 89.0035 126.727 87.785C126.727 87.0981 126.444 86.4857 125.927 86.0616C125.497 85.7062 124.945 85.5093 124.369 85.5093C123.165 85.5093 122.206 86.5096 121.277 87.4773C120.686 88.0955 119.88 88.9349 119.39 88.9648C119.291 88.8781 119.138 88.5376 119.138 88.2659C119.138 87.4207 119.515 86.1722 119.882 84.9686C120.276 83.6725 120.644 82.4451 120.644 81.4625C120.644 79.3391 119.408 78.3921 118.18 78.3921C117.063 78.3921 116.337 78.9148 115.755 79.336C115.319 79.6495 115.038 79.8319 114.695 79.8588C114.686 79.8438 114.68 79.8318 114.677 79.8168C114.677 79.772 114.68 78.8015 114.68 78.8015C114.68 78.4939 114.683 78.195 114.683 77.9083C114.683 75.6594 114.59 74.1303 113.718 73.2552C113.294 72.8281 112.738 72.6132 112.069 72.6132C108.99 72.6132 107.608 76.6808 107.608 80.7097C107.608 82.5793 107.685 84.2309 107.76 85.8258C107.832 87.3489 107.897 88.7827 107.897 90.3418C107.897 94.081 107.133 97.1422 106.479 98.743C106.267 96.96 105.941 94.2748 103.866 94.2748C102.145 94.2748 101.741 96.473 101.279 99.0176C100.86 101.302 100.284 104.432 98.8658 104.432C97.6741 104.432 97.3307 102.255 96.9992 99.4091C96.6766 96.6196 96.3092 93.4596 93.8273 93.4596C91.1275 93.4596 90.9513 96.96 90.8378 99.2746C90.8229 99.5643 90.8049 99.9077 90.778 100.239C90.118 98.946 89.3234 96.7208 89.3234 94.678C89.3234 92.0856 89.4844 90.055 89.6457 88.0898C89.798 86.2082 89.9563 84.261 89.9563 81.8956C89.9563 76.681 88.6604 75.2713 87.5165 74.0288L87.4356 73.9421C86.6681 73.1088 85.9456 72.3204 84.8078 72.3204C83.192 72.3264 82.3381 73.8646 82.3381 75.3818Z" fill="black"/>
<path d="M106.488 118.783L106.32 119.058C106.32 119.058 105.391 118.756 104.534 118.756C102.99 118.756 102.423 119.816 102.423 119.816C102.423 119.816 102.931 119.515 103.931 119.515C105.257 119.515 106.222 120.226 106.222 120.491C106.222 120.766 105.813 120.913 105.484 120.913C105.484 121.552 104.615 122.433 101.995 122.433C101.995 123.723 102.793 124.58 102.793 124.956C102.127 124.956 102.032 125.596 102.032 126.73C102.032 126.73 101.115 123.099 101.115 121.638C101.115 119.479 101.983 117.848 103.829 117.848C105.149 117.854 106.488 118.783 106.488 118.783ZM112.069 111.514C112.475 111.514 112.703 111.585 112.703 111.585C110.269 112.03 110.296 114.972 108.348 114.972C107.924 114.972 107.643 114.781 107.643 114.781C107.918 114.247 108.829 114.118 108.829 113.398C108.199 113.398 107.736 113.452 107.118 113.577C107.121 113.341 109.068 111.514 112.069 111.514ZM95.7713 126.889V125.321C95.7713 124.885 95.5776 124.696 95.1924 124.696L96.2073 122.379V122.149C94.4094 122.149 92.8503 121.788 92.8503 120.509H92.3428C92.2353 120.509 92.0023 120.387 92.0023 120.169C92.0023 120.011 92.6055 119.327 94.0301 119.327C95.1172 119.327 95.7684 119.783 95.7684 119.783C95.7684 119.783 95.1531 118.335 93.4986 118.335C92.5219 118.335 92.2685 118.467 92.2685 118.467C92.2685 118.467 92.8594 117.705 93.6539 117.705C96.1507 117.705 96.8016 119.273 96.8016 122.035C96.8106 124.959 95.7713 126.889 95.7713 126.889ZM88.8364 113.849C88.8364 114.103 89.6464 114.297 90.1153 114.297C90.1153 114.587 89.5473 115.008 89.0186 115.008C86.9788 115.008 87.9672 111.845 83.8905 111.051C83.8905 111.051 84.1086 110.955 84.6372 110.955C87.8567 110.955 88.7888 113.452 90.5389 113.452C90.0282 113.509 88.8364 113.548 88.8364 113.849ZM129.651 92.9996C128.021 92.9996 128.132 97.0405 125.742 97.0405C124.422 97.0405 123.377 95.8581 123.377 94.3857C123.377 92.2383 125.754 89.7741 125.754 87.7851C125.754 86.9339 125.037 86.4948 124.377 86.4948C122.774 86.4948 121.143 89.9594 119.372 89.9594C118.538 89.9594 118.162 88.8721 118.162 88.2688C118.162 86.3395 119.671 83.1918 119.671 81.4655C119.671 80.0797 119.04 79.3779 118.192 79.3779C116.618 79.3779 116.092 80.8563 114.614 80.8563C114.05 80.8563 113.709 80.2382 113.709 79.841C113.709 75.9673 113.906 73.5958 112.085 73.5958C109.725 73.5958 108.611 77.1617 108.611 80.7097C108.611 84.3116 108.9 87.0983 108.9 90.3447C108.9 95.3712 107.688 99.5851 106.631 100.493C106.631 100.493 106.368 103.42 107.524 103.42C109.859 103.42 113.652 96.8794 118.359 96.8794C120.482 96.8794 120.629 98.1846 120.629 98.7132C120.629 100.425 118.216 101.297 118.216 102.381C118.216 102.936 119.058 102.984 120.097 102.984C123.185 102.984 125.455 101.079 125.455 101.079C125.455 101.079 123.237 103.71 119.763 103.71C118.24 103.71 117.06 103.229 117.06 102.333C117.06 100.911 119.933 99.7765 119.933 98.3519C119.933 97.9189 119.453 97.3154 118.366 97.3154C114.528 97.3154 110.474 104.579 107.314 104.579C106.663 104.579 105.758 104.146 105.758 102.494C105.758 101.085 105.648 95.2607 103.886 95.2607C101.769 95.2607 102.784 105.418 98.8833 105.418C94.7648 105.418 97.2227 94.4451 93.8449 94.4451C91.7931 94.4451 92.1156 97.4168 91.7931 100.09C91.5273 102.279 90.8942 104.271 89.5502 104.271C87.7762 104.271 86.5217 103.456 85.0105 102.521C84.0488 101.927 83.0274 101.341 82.1792 100.705C80.8024 99.6749 80.0469 98.6443 78.688 98.6443C77.9653 98.6443 77.1678 99.0418 77.1678 99.7825C77.1678 101.231 78.688 101.792 78.688 103.041C78.688 103.746 77.6577 104.307 76.478 104.307C72.8941 104.307 70.741 101.957 70.741 101.013C70.741 101.013 72.5326 103.545 76.6391 103.545C77.5261 103.545 77.8517 103.348 77.8517 102.912C77.8517 102.1 76.6216 101.374 76.6216 99.8004C76.6216 98.8058 77.3981 97.9903 78.5211 97.9903C79.9516 97.9903 80.9189 99.0355 82.3943 100.108C84.5178 101.652 87.2803 103.399 89.3978 103.399C90.2102 103.399 90.754 103.038 90.754 102.192C90.754 101.389 88.3471 99.1849 88.3471 94.6752C88.3471 89.5203 88.98 86.6411 88.98 81.8924C88.98 76.9406 87.7941 75.776 86.7189 74.6053C85.9125 73.7242 85.4705 73.3001 84.8195 73.3001C83.6965 73.3001 83.3174 74.5304 83.3174 75.3756C83.3174 75.8923 83.4428 75.9255 83.4428 76.9021C83.4428 78.6582 83.0274 80.1217 81.8686 80.1217C80.5127 80.1217 81.2182 78.7447 79.1664 78.7447C78.1838 78.7447 77.7985 79.4497 77.7985 80.2471C77.7985 83.6488 79.2736 86.0769 79.2736 87.621C79.2736 88.3915 78.8284 89.4399 78.0369 89.4399C75.9911 89.4399 76.3529 87.6297 74.0054 87.6297C73.0049 87.6297 72.7003 88.2091 72.7003 89.0782C72.7003 90.7597 74.0499 92.0471 74.0499 94.4812C74.0499 95.5564 73.6888 96.3628 72.7958 96.3628C69.7435 96.3628 70.1227 92.3725 68.1008 92.3725C67.0674 92.3725 66.6191 93.7256 66.6191 96.4583C66.6191 103.77 73.763 106.153 78.0697 106.153C79.8975 106.153 80.095 105.839 82.2244 105.839C92.2206 105.839 91.4139 111.959 91.4139 111.959C91.4139 111.959 90.1356 109.077 86.1874 109.077C82.3376 109.077 82.7557 110.498 80.901 111.033C84.7448 111.896 85.0858 116.872 88.1889 116.872C89.5747 116.872 90.2611 115.811 90.2611 115.811C90.2611 115.811 89.392 118.051 89.392 121.417C89.392 123.717 90.0701 124.031 90.6913 124.944C92.0144 126.889 93.8631 128.606 93.8631 131.354C94.3051 131.354 94.6397 129.308 94.8876 129.308C95.0489 129.308 95.1865 129.624 95.1865 130.075C95.1865 131.124 94.0483 132.97 94.0483 136.294C94.0483 138.286 95.2967 138.931 96.2285 139.352C96.4555 139.352 97.7604 136.613 97.7604 136.613C96.9779 138.745 97.2172 139.943 97.2172 140.087C97.2172 140.654 97.7694 140.771 98.4743 141.004C98.8745 141.138 99.0805 141.335 99.7824 141.335C101.419 141.335 101.706 139.877 101.706 139.304C101.706 138.725 101.115 137.637 101.115 136.986C101.115 136.986 101.09 136.589 101.186 136.589C101.389 136.589 102.256 138.865 102.256 138.865C103.023 138.525 104.316 138.029 104.316 136.174C104.316 134.015 103.008 131.082 103.008 129.762C103.008 129.457 103.116 129.254 103.226 129.254C103.48 129.254 103.907 130.449 103.907 130.449C104.472 127.146 107.945 126.832 107.945 120.703C107.945 116.824 107.354 115.576 107.354 115.576C107.354 115.576 108.384 116.445 109.474 116.445C113.213 116.445 112.329 112.717 115.265 111.475C115.265 111.104 113.685 109.773 110.935 109.773C107.461 109.773 106.338 111.657 106.338 111.657C106.338 106.204 110.158 105.878 114.011 105.878C116.075 105.878 116.961 106.168 118.694 106.168C125.016 106.168 126.57 104.283 128.383 102.094C129.992 100.15 130.808 98.4741 130.808 96.031C130.811 94.7199 130.485 92.9996 129.651 92.9996Z" fill="#ED2127"/>
<path d="M102.324 121.292L102.181 121.605C102.181 121.605 102.483 121.823 103.131 121.823C104.436 121.823 105.009 120.766 104.881 120.641C104.755 120.515 104.191 121.45 103.178 121.45C102.575 121.45 102.324 121.292 102.324 121.292Z" fill="#ED2127"/>
<path d="M103.736 120.931C103.736 121.029 103.608 121.113 103.447 121.113C103.288 121.113 103.157 121.032 103.157 120.931C103.157 120.832 103.285 120.748 103.447 120.748C103.608 120.748 103.736 120.832 103.736 120.931Z" fill="#ED2127"/>
<path d="M93.7615 120.447C93.8959 120.548 94.1677 121.232 94.8815 121.232C95.4011 121.232 95.4727 121.038 95.6339 120.948C95.7952 120.859 95.9652 121.029 95.8636 121.178C95.7621 121.331 95.5685 121.522 94.9055 121.522C94.0484 121.522 93.5494 120.823 93.4837 120.653C93.3642 120.357 93.4867 120.256 93.7615 120.447Z" fill="#ED2127"/>
<path d="M95.0101 120.65C95.0101 120.742 94.9023 120.817 94.7709 120.817C94.6365 120.817 94.5288 120.742 94.5288 120.65C94.5288 120.56 94.6365 120.485 94.7709 120.485C94.9023 120.485 95.0101 120.56 95.0101 120.65Z" fill="#ED2127"/>
</svg>
