<svg width="200" height="200" viewBox="0 0 200 200" fill="none" xmlns="http://www.w3.org/2000/svg">
<rect width="200" height="200" fill="white"/>
<g clip-path="url(#clip0)">
<path d="M139.355 126.645C130.108 137.636 116.254 144.626 100.759 144.626C85.4173 144.626 71.6981 137.783 62.4435 126.977L51.4878 140.152C63.7923 153.364 81.3474 161.64 100.83 161.64C120.429 161.64 138.062 153.276 150.367 139.921L139.355 126.645Z" fill="#211E1F"/>
<path d="M139.355 126.645C130.108 137.636 116.254 144.626 100.759 144.626C85.4173 144.626 71.6981 137.783 62.4435 126.977L51.4878 140.152C63.7923 153.364 81.3474 161.64 100.83 161.64C120.429 161.64 138.062 153.276 150.367 139.921L139.355 126.645Z" stroke="white" stroke-width="1.96203"/>
<path d="M130.684 76.1791V134.69C130.684 136.38 129.614 137.846 128.112 138.408L100.943 148.942L73.7654 138.408C72.2716 137.846 71.1924 136.38 71.1924 134.69L71.1964 76.1791H130.684" fill="#211E1F"/>
<path d="M130.684 76.1791V134.69C130.684 136.38 129.614 137.846 128.112 138.408L100.943 148.942L73.7654 138.408C72.2716 137.846 71.1924 136.38 71.1924 134.69L71.1964 76.1791H130.684V76.1791Z" stroke="white" stroke-width="1.96203"/>
<path d="M72.6064 121.347V85.2875H129.256L129.267 121.347H72.6064Z" fill="white"/>
<path d="M129.267 117.965C128.768 118.763 127.545 119.324 126.127 119.324C124.688 119.324 123.458 118.763 122.971 117.954C122.472 118.763 121.248 119.324 119.815 119.324C118.382 119.324 117.174 118.763 116.669 117.965C116.165 118.763 114.947 119.324 113.524 119.324C112.085 119.324 110.872 118.763 110.373 117.954H110.358C109.864 118.763 108.645 119.324 107.217 119.324C105.784 119.324 104.57 118.763 104.077 117.965C103.573 118.763 102.338 119.324 100.923 119.324C99.4859 119.324 98.2703 118.763 97.7702 117.954H97.7818C97.2749 118.763 96.0593 119.324 94.635 119.324C93.1999 119.324 91.9767 118.763 91.4768 117.965C90.9791 118.763 89.7504 119.324 88.3245 119.324C86.9022 119.324 85.679 118.763 85.1813 117.954H85.1685C84.6775 118.763 83.4515 119.324 82.0338 119.324C80.5939 119.324 79.3798 118.763 78.8748 117.965V117.985C78.3746 118.788 77.156 119.324 75.7423 119.324C74.2956 119.324 73.08 118.763 72.5894 117.954V117.886L72.6068 133.824C72.6068 135.441 73.6288 136.817 75.0593 137.352L100.944 147.404L126.81 137.352C128.243 136.817 129.267 135.441 129.267 133.824V117.896V117.965" fill="#ED1A3B"/>
<path d="M129.267 116.301C128.768 117.093 127.545 117.66 126.127 117.66C124.688 117.66 123.458 117.088 122.971 116.301C122.472 117.088 121.248 117.66 119.815 117.66C118.382 117.66 117.174 117.093 116.669 116.301C116.165 117.093 114.947 117.66 113.524 117.66C112.085 117.66 110.872 117.088 110.373 116.301H110.358C109.864 117.088 108.645 117.66 107.217 117.66C105.784 117.66 104.57 117.093 104.077 116.301C103.573 117.093 102.338 117.66 100.923 117.66C99.4859 117.66 98.2703 117.088 97.7702 116.301H97.7818C97.2749 117.088 96.0593 117.66 94.6349 117.66C93.1999 117.66 91.9767 117.093 91.4768 116.301C90.9791 117.093 89.7504 117.66 88.3245 117.66C86.9022 117.66 85.679 117.088 85.1813 116.301H85.1684C84.6775 117.088 83.4515 117.66 82.0338 117.66C80.5939 117.66 79.3798 117.093 78.8748 116.301V116.326C78.3746 117.124 77.156 117.66 75.7423 117.66C74.2956 117.66 73.08 117.088 72.5894 116.301V114.326C73.08 115.123 74.2956 115.696 75.7423 115.696C77.156 115.696 78.3746 115.134 78.8748 114.336C79.3798 115.134 80.5939 115.696 82.0338 115.696C83.4515 115.696 84.6775 115.123 85.1684 114.326H85.1813C85.679 115.123 86.9022 115.696 88.3245 115.696C89.7504 115.696 90.9791 115.134 91.4768 114.336C91.9767 115.134 93.1999 115.696 94.6349 115.696C96.0593 115.696 97.2749 115.123 97.7818 114.326H97.7702C98.2703 115.123 99.4859 115.696 100.923 115.696C102.339 115.696 103.573 115.134 104.077 114.336C104.57 115.134 105.784 115.696 107.217 115.696C108.646 115.696 109.864 115.123 110.358 114.326H110.373C110.872 115.123 112.085 115.696 113.524 115.696C114.947 115.696 116.165 115.134 116.669 114.336C117.174 115.134 118.382 115.696 119.815 115.696C121.249 115.696 122.472 115.123 122.971 114.326C123.459 115.123 124.688 115.696 126.127 115.696C127.545 115.696 128.768 115.134 129.267 114.336V116.301Z" fill="#00AEEF"/>
<path d="M129.267 112.745C128.768 113.538 127.545 114.095 126.127 114.095C124.688 114.095 123.458 113.532 122.971 112.745C122.472 113.532 121.248 114.095 119.815 114.095C118.382 114.095 117.174 113.538 116.669 112.745C116.165 113.538 114.947 114.095 113.524 114.095C112.085 114.095 110.872 113.532 110.373 112.745H110.358C109.864 113.532 108.645 114.095 107.217 114.095C105.784 114.095 104.57 113.538 104.077 112.745C103.573 113.538 102.338 114.095 100.923 114.095C99.4859 114.095 98.2703 113.532 97.7702 112.745H97.7818C97.2749 113.532 96.0593 114.095 94.6349 114.095C93.1999 114.095 91.9767 113.538 91.4768 112.745C90.9791 113.538 89.7504 114.095 88.3245 114.095C86.9022 114.095 85.679 113.532 85.1813 112.745H85.1684C84.6775 113.532 83.4515 114.095 82.0338 114.095C80.5939 114.095 79.3798 113.538 78.8748 112.745V112.765C78.3746 113.564 77.156 114.095 75.7423 114.095C74.2956 114.095 73.08 113.532 72.5894 112.745V110.771C73.08 111.564 74.2956 112.136 75.7423 112.136C77.156 112.136 78.3746 111.579 78.8748 110.775C79.3798 111.579 80.5939 112.136 82.0338 112.136C83.4515 112.136 84.6775 111.564 85.1684 110.771H85.1813C85.679 111.564 86.9022 112.136 88.3245 112.136C89.7504 112.136 90.9791 111.579 91.4768 110.775C91.9767 111.579 93.1999 112.136 94.6349 112.136C96.0593 112.136 97.2749 111.564 97.7818 110.771H97.7702C98.2703 111.564 99.4859 112.136 100.923 112.136C102.339 112.136 103.573 111.579 104.077 110.775C104.57 111.579 105.784 112.136 107.217 112.136C108.646 112.136 109.864 111.564 110.358 110.771H110.373C110.872 111.564 112.085 112.136 113.524 112.136C114.947 112.136 116.165 111.579 116.669 110.775C117.174 111.579 118.382 112.136 119.815 112.136C121.249 112.136 122.472 111.564 122.971 110.771C123.459 111.564 124.688 112.136 126.127 112.136C127.545 112.136 128.768 111.579 129.267 110.775V112.745Z" fill="#00AEEF"/>
<path d="M105.09 136.119C105.09 136.119 107.868 140.461 106.409 139.238C105.342 138.319 103.883 136.202 102.827 134.459L97.1258 136.675C97.1258 136.675 93.8539 140.656 94.5788 138.897C95.1013 137.625 96.7155 135.562 98.0472 134.002L94.1425 129.287C94.1425 129.287 89.3405 127.418 91.2442 127.559C92.4897 127.654 95.0884 128.588 96.961 129.345L100.212 124.167C100.212 124.167 100.518 119.015 100.972 120.869C101.286 122.14 101.187 124.891 101.035 126.928L106.997 128.378C106.997 128.378 111.985 127.071 110.358 128.074C109.218 128.787 106.729 129.533 104.744 130.011L105.09 136.119Z" fill="#211E1F"/>
<path d="M105.09 136.119C105.09 136.119 107.868 140.461 106.409 139.238C105.342 138.319 103.883 136.202 102.827 134.459L97.1258 136.675C97.1258 136.675 93.8539 140.656 94.5788 138.897C95.1013 137.625 96.7155 135.562 98.0472 134.002L94.1425 129.287C94.1425 129.287 89.3405 127.418 91.2442 127.559C92.4897 127.654 95.0884 128.588 96.961 129.345L100.212 124.167C100.212 124.167 100.518 119.015 100.972 120.869C101.286 122.14 101.187 124.891 101.035 126.928L106.997 128.378C106.997 128.378 111.985 127.071 110.358 128.074C109.218 128.787 106.729 129.533 104.744 130.011L105.09 136.119Z" stroke="#211E1F" stroke-width="1.20004"/>
<path d="M100.547 134.969C100.583 135.052 100.646 135.11 100.717 135.11C100.784 135.11 100.836 135.053 100.88 134.969C100.943 134.822 101.001 134.476 100.979 133.755C100.979 133.755 101.015 131.324 102.832 133.934C107.92 141.27 100.673 141.312 100.673 141.312H100.743C100.743 141.312 93.4952 141.27 98.5902 133.934C100.407 131.324 100.428 133.755 100.428 133.755C100.423 134.475 100.467 134.821 100.548 134.979V134.969" fill="white"/>
<path d="M100.547 134.969L100.717 135.11L100.88 134.969C100.943 134.822 100.979 134.476 100.979 133.755C100.979 133.755 101.015 131.324 102.832 133.934C107.92 141.27 100.673 141.312 100.673 141.312H100.743C100.743 141.312 93.4952 141.27 98.5902 133.934C100.407 131.324 100.428 133.755 100.428 133.755C100.428 134.475 100.467 134.821 100.548 134.979V134.969H100.547Z" stroke="#211E1F" stroke-width="1.20004"/>
<path d="M96.8203 132.028C96.7539 132.09 96.7233 132.159 96.753 132.217C96.7692 132.285 96.8337 132.338 96.9276 132.338H96.923C97.0923 132.349 97.4253 132.316 98.1122 132.076C98.1122 132.076 100.439 131.362 98.5189 133.877C93.1075 140.987 90.8442 134.124 90.8442 134.124V134.171C90.8442 134.171 88.6598 127.265 97.2052 129.844C100.257 130.753 97.9389 131.545 97.9389 131.545C97.2382 131.749 96.9386 131.907 96.8203 132.028Z" fill="white"/>
<path d="M96.8203 132.028C96.7539 132.09 96.753 132.217 96.753 132.217L96.9276 132.338H96.923C96.923 132.338 97.4253 132.316 98.1122 132.076C98.1122 132.076 100.439 131.362 98.5189 133.877C93.1075 140.987 90.8442 134.124 90.8442 134.124V134.171C90.8442 134.171 88.6598 127.265 97.2052 129.844C100.257 130.753 97.9389 131.545 97.9389 131.545C97.2382 131.749 96.9386 131.907 96.8203 132.028Z" stroke="#211E1F" stroke-width="1.20004"/>
<path d="M98.4479 127.553C98.3755 127.507 98.2938 127.507 98.2391 127.553C98.181 127.59 98.1651 127.664 98.181 127.749V127.742C98.2162 127.916 98.3571 128.231 98.8166 128.798C98.8166 128.798 100.208 130.783 97.2057 129.738C88.7818 126.797 94.6111 122.511 94.6111 122.511L94.5679 122.533C94.5679 122.533 100.44 118.316 100.647 127.249C100.718 130.431 99.2495 128.466 99.2495 128.466C98.845 127.879 98.5959 127.638 98.4479 127.553Z" fill="white"/>
<path d="M98.4479 127.553H98.2391L98.181 127.749V127.742C98.181 127.742 98.3571 128.231 98.8166 128.798C98.8166 128.798 100.208 130.783 97.2057 129.738C88.7818 126.797 94.6111 122.511 94.6111 122.511L94.5679 122.533C94.5679 122.533 100.44 118.316 100.647 127.249C100.718 130.431 99.2495 128.466 99.2495 128.466C98.845 127.879 98.5959 127.638 98.4479 127.553Z" stroke="#211E1F" stroke-width="1.20004"/>
<path d="M103.227 127.732C103.242 127.653 103.227 127.57 103.174 127.528C103.121 127.501 103.038 127.507 102.958 127.553C102.816 127.623 102.564 127.853 102.149 128.463C102.149 128.463 100.693 130.41 100.759 127.239C100.964 118.312 106.839 122.529 106.839 122.529L106.797 122.497C106.797 122.497 112.631 126.782 104.187 129.729C101.197 130.773 102.601 128.788 102.601 128.788C103.043 128.21 103.2 127.906 103.227 127.732Z" fill="white"/>
<path d="M103.227 127.732L103.174 127.528L102.958 127.553C102.816 127.623 102.564 127.853 102.149 128.463C102.149 128.463 100.693 130.41 100.759 127.239C100.964 118.312 106.839 122.529 106.839 122.529L106.797 122.497C106.797 122.497 112.631 126.782 104.187 129.729C101.197 130.773 102.601 128.788 102.601 128.788C103.043 128.21 103.227 127.732 103.227 127.732Z" stroke="#211E1F" stroke-width="1.20004"/>
<path d="M104.528 132.338C104.612 132.332 104.686 132.285 104.701 132.216C104.733 132.159 104.691 132.09 104.628 132.028C104.502 131.907 104.202 131.739 103.504 131.545C103.504 131.545 101.197 130.751 104.234 129.843C112.8 127.264 110.604 134.17 110.604 134.17L110.614 134.123C110.614 134.123 108.341 140.986 102.937 133.876C101.001 131.36 103.331 132.075 103.331 132.075C104.019 132.316 104.366 132.348 104.528 132.338Z" fill="white"/>
<path d="M104.528 132.338L104.701 132.216C104.701 132.216 104.691 132.09 104.628 132.028C104.502 131.907 104.202 131.739 103.504 131.545C103.504 131.545 101.197 130.751 104.234 129.843C112.8 127.264 110.604 134.17 110.604 134.17L110.614 134.123C110.614 134.123 108.341 140.986 102.937 133.876C101.001 131.36 103.331 132.075 103.331 132.075C104.019 132.316 104.528 132.338 104.528 132.338Z" stroke="#211E1F" stroke-width="1.20004"/>
<path d="M95.7457 124.109C95.7457 124.109 95.2018 124.486 94.7292 124.638C94.2581 124.775 94.0548 125.132 93.9951 125.217C93.9951 125.217 93.7261 125.836 93.554 125.584C93.3702 125.336 93.7368 124.87 93.7368 124.87C93.7909 124.775 94.0089 124.433 94.4654 124.272C94.9359 124.136 95.4791 123.763 95.4791 123.763C95.4791 123.762 96.0117 123.347 96.2945 122.953C96.5843 122.55 96.9744 122.46 97.0842 122.444C97.0842 122.444 97.636 122.245 97.829 122.486C98.0081 122.744 97.3432 122.791 97.3432 122.791C97.2306 122.833 96.8341 122.917 96.5501 123.306C96.2749 123.705 95.7457 124.109 95.7457 124.109Z" fill="#211E1F"/>
<path d="M105.652 124.103C105.652 124.103 105.133 123.7 104.859 123.294C104.57 122.901 104.171 122.811 104.077 122.774C104.077 122.774 103.399 122.727 103.577 122.475C103.766 122.228 104.323 122.433 104.323 122.433C104.432 122.449 104.832 122.538 105.105 122.942C105.394 123.335 105.919 123.763 105.919 123.763C105.919 123.761 106.476 124.125 106.938 124.266C107.395 124.419 107.605 124.76 107.658 124.849C107.658 124.849 108.025 125.327 107.852 125.579C107.674 125.831 107.416 125.211 107.416 125.211C107.348 125.117 107.143 124.771 106.671 124.63C106.214 124.476 105.652 124.103 105.652 124.103Z" fill="#211E1F"/>
<path d="M108.735 133.53C108.735 133.53 108.966 132.91 109.249 132.512C109.56 132.134 109.502 131.713 109.497 131.613C109.497 131.613 109.35 130.957 109.639 131.057C109.927 131.157 109.917 131.74 109.917 131.74C109.917 131.849 109.964 132.259 109.676 132.653C109.371 133.042 109.145 133.671 109.145 133.671C109.145 133.671 108.972 134.313 108.982 134.79C108.982 135.283 108.704 135.583 108.646 135.677C108.646 135.677 108.299 136.166 108.016 136.077C107.711 135.982 108.231 135.541 108.231 135.541C108.289 135.452 108.568 135.137 108.551 134.665C108.551 134.176 108.735 133.53 108.735 133.53Z" fill="#211E1F"/>
<path d="M100.718 139.343C100.718 139.343 101.387 139.369 101.844 139.527C102.308 139.679 102.675 139.516 102.781 139.479C102.781 139.479 103.347 139.128 103.342 139.443C103.342 139.731 102.781 139.921 102.781 139.921C102.675 139.953 102.308 140.125 101.844 139.963C101.387 139.806 100.718 139.774 100.718 139.774C100.718 139.774 100.038 139.806 99.5829 139.963C99.121 140.125 98.7575 139.953 98.6416 139.921C98.6416 139.921 98.0708 139.732 98.0708 139.443C98.0684 139.128 98.6416 139.479 98.6416 139.479C98.7575 139.516 99.121 139.679 99.5829 139.527C100.038 139.369 100.718 139.343 100.718 139.343Z" fill="#211E1F"/>
<path d="M92.7131 133.53C92.7131 133.53 92.9009 134.176 92.8923 134.665C92.8923 135.157 93.1568 135.452 93.2283 135.541C93.2283 135.541 93.7367 135.982 93.4466 136.077C93.1568 136.166 92.8085 135.677 92.8085 135.677C92.7407 135.583 92.4756 135.283 92.4756 134.79C92.4777 134.312 92.3047 133.671 92.3047 133.671C92.3047 133.671 92.076 133.042 91.7767 132.653C91.4924 132.259 91.5327 131.849 91.5327 131.74C91.5327 131.74 91.5327 131.157 91.8171 131.057C92.0974 130.957 91.9458 131.613 91.9458 131.613C91.9357 131.713 91.8978 132.134 92.1995 132.512C92.4897 132.91 92.7131 133.53 92.7131 133.53Z" fill="#211E1F"/>
<path d="M100.674 129.276C99.7811 129.276 99.0498 130.011 99.0498 130.91C99.0498 131.829 99.7814 132.543 100.674 132.543C101.586 132.543 102.317 131.829 102.317 130.91C102.317 130.011 101.586 129.276 100.674 129.276Z" fill="#FFC40D"/>
<path d="M100.674 129.276C99.7811 129.276 99.0498 130.011 99.0498 130.91C99.0498 131.829 99.7814 132.543 100.674 132.543C101.586 132.543 102.317 131.829 102.317 130.91C102.317 130.011 101.586 129.276 100.674 129.276Z" stroke="#FFC40D" stroke-width="0.475518"/>
<path d="M103.767 99.6759L103.983 104.085L107.711 101.664L108.881 103.577L104.486 106.118V107.037C104.486 107.037 109.6 109.909 103.367 109.799L103.368 109.831C101.187 111.653 99.1207 109.851 99.1207 109.851C92.8878 109.961 97.9959 107.1 97.9959 107.1V106.175L94.1089 103.156L95.0303 101.16L98.5065 104.133L98.7085 99.7309L103.767 99.6759Z" fill="#211E1F"/>
<path d="M108.409 103.456C112.022 107.589 114.673 103.237 114.673 103.237C119.237 102.129 116.528 98.8988 116.528 98.8988C121.285 95.7795 115.698 93.3321 115.698 93.3321C115.661 89.1871 112.132 89.4962 112.132 89.4962C108.445 86.2747 104.922 89.8508 104.922 89.8508C99.3963 85.2512 95.2014 90.5586 95.2014 90.5586C95.2014 90.5586 91.6709 88.1112 90.0857 91.9463C90.0857 91.9463 84.4643 91.79 86.5632 97.4649C86.5632 97.4649 82.2191 101.813 87.8894 103.955C87.8894 103.955 90.9042 109.537 95.0483 104.222C95.0483 104.222 97.5953 104.375 97.1945 100.785C97.1945 100.785 100.423 102.129 103.477 100.639C103.477 100.638 104.454 102.836 106.555 101.606C106.555 101.606 106.23 103.019 108.261 103.309L108.409 103.456Z" fill="#22B24C"/>
<path d="M108.409 103.456C112.022 107.589 114.673 103.237 114.673 103.237C119.237 102.129 116.528 98.8988 116.528 98.8988C121.285 95.7795 115.698 93.3321 115.698 93.3321C115.698 89.1871 112.132 89.4962 112.132 89.4962C108.445 86.2747 104.922 89.8508 104.922 89.8508C99.3963 85.2512 95.2014 90.5586 95.2014 90.5586C95.2014 90.5586 91.6709 88.1112 90.0857 91.9463C90.0857 91.9463 84.4643 91.79 86.5632 97.4649C86.5632 97.4649 82.2191 101.813 87.8894 103.955C87.8894 103.955 90.9042 109.537 95.0483 104.222C95.0483 104.222 97.5953 104.375 97.1945 100.785C97.1945 100.785 100.423 102.129 103.477 100.639C103.477 100.639 104.454 102.836 106.555 101.606C106.555 101.606 106.23 103.019 108.261 103.309L108.409 103.456Z" stroke="#211E1F" stroke-width="4.91424"/>
<path d="M60.0597 139.049L60.3287 139.274C59.4027 140.955 59.2715 142.142 59.9172 142.694C60.3819 143.103 60.9964 142.934 61.5587 142.3C61.799 142.026 61.9573 141.711 61.9573 141.47C61.9573 141.118 61.6962 140.724 61.4064 140.131C60.8494 138.996 60.8729 138.083 61.8629 136.938C62.8552 135.804 64.1515 135.426 64.9748 136.135C65.3313 136.455 65.5181 136.902 65.5524 137.479L66.1925 137.285L66.416 137.479L64.4389 139.883L64.2029 139.652C64.977 138.052 65.1424 137.09 64.5594 136.596C64.1157 136.197 63.5358 136.335 63.0222 136.927C62.3749 137.668 62.7476 138.099 63.2386 139.017C63.496 139.527 63.6997 139.921 63.5945 140.525C63.4976 141.066 63.1732 141.691 62.6532 142.3C61.5755 143.523 60.344 143.897 59.4736 143.14C59.0428 142.752 58.8432 142.294 58.8698 141.596L58.0887 141.858L57.8618 141.659L60.0597 139.049Z" fill="#FFC20E"/>
<path d="M67.477 139.873C68.3779 139.448 69.1258 139.464 69.7953 139.921C70.47 140.393 70.7528 141.071 70.6553 142.11C70.5773 143.024 70.1499 144.064 69.4333 145.098C68.7139 146.127 68.0151 146.794 67.1248 147.208C66.1737 147.655 65.3552 147.661 64.7242 147.208C64.0715 146.763 63.7982 146.058 63.8905 144.993C63.9743 143.984 64.3497 143.092 65.0767 142.057C65.8019 141.013 66.6362 140.261 67.477 139.873ZM65.0822 146.679C65.7836 147.162 66.8298 146.364 68.2804 144.284C69.7351 142.189 70.1206 140.95 69.4189 140.451C68.7237 139.973 67.6895 140.766 66.2324 142.856C64.7805 144.94 64.3769 146.191 65.0822 146.679Z" fill="#FFC20E"/>
<path d="M74.7682 143.933L74.4573 143.764C74.1828 143.623 74.0724 143.733 73.8523 144.147L71.8354 147.918C71.109 149.273 71.0763 150.076 71.8593 150.486C72.2121 150.664 72.5808 150.648 72.9064 150.486C73.4215 150.197 73.7652 149.609 74.2669 148.674L75.7261 145.954C76.1431 145.161 76.2278 144.709 75.6964 144.431C75.6912 144.421 75.6637 144.415 75.6582 144.411L75.9419 143.865L77.6537 144.784L77.3639 145.314C76.8291 145.125 76.5485 145.398 76.1324 146.175L74.6288 148.979C74.1959 149.798 73.8575 150.407 73.3552 150.838C72.6068 151.468 71.8736 151.552 71.0763 151.105C69.8516 150.46 69.6953 149.284 70.5618 147.624L72.741 143.56C72.9617 143.139 72.9773 142.981 72.715 142.84L72.405 142.672L72.6863 142.131L75.0541 143.391L74.7682 143.933Z" fill="#FFC20E"/>
<path d="M81.3475 146.868C81.1069 146.778 80.9856 146.878 80.8147 147.298L78.5749 152.964C78.3967 153.395 78.3967 153.553 78.6746 153.668L79.0109 153.804L78.7797 154.377L76.293 153.39L76.5217 152.807L76.85 152.943C77.1322 153.054 77.2227 152.943 77.4043 152.497L79.6593 146.841C79.8207 146.416 79.8207 146.269 79.5884 146.174C79.0763 145.958 78.3074 146.673 77.5642 148.196L77.2227 148.075L78.507 145.145L82.8208 146.857L81.7431 149.861L81.4267 149.745C81.9247 148.123 81.8608 147.067 81.3475 146.868Z" fill="#FFC20E"/>
<path d="M85.0574 155.69C85.3441 155.779 85.4294 155.649 85.5499 155.197L86.2708 152.523L84.4692 152.04L83.7596 154.703C83.633 155.155 83.6467 155.302 83.9363 155.385L84.2833 155.485L84.1145 156.079L81.5317 155.385L81.6919 154.786L82.0377 154.865C82.33 154.954 82.4119 154.833 82.5333 154.377L84.0956 148.58C84.2282 148.122 84.22 147.96 83.9204 147.875L83.5767 147.786L83.7437 147.198L86.3249 147.902L86.1635 148.49L85.8241 148.395C85.5337 148.311 85.4478 148.448 85.3136 148.905L84.674 151.315L86.4781 151.798L87.1198 149.387C87.2503 148.941 87.2381 148.768 86.9452 148.689L86.6071 148.6L86.7593 148.007L89.3467 148.721L89.196 149.304L88.8413 149.209C88.5527 149.13 88.4696 149.267 88.3409 149.723L86.7814 155.521C86.6557 155.978 86.6685 156.126 86.9636 156.199L87.3005 156.304L87.1473 156.893L84.5416 156.199L84.7159 155.595L85.0574 155.69Z" fill="#FFC20E"/>
<path d="M91.898 157.071L92.2523 157.092C92.4049 157.102 92.462 157.023 92.4896 156.85C92.4978 156.767 92.4978 156.661 92.4896 156.52L92.3688 155.165L90.5843 154.907L90.3302 155.5C90.2504 155.689 90.1853 155.92 90.1703 156.079C90.0863 156.604 90.2776 156.803 90.7897 156.913L90.7044 157.512L88.7236 157.224L88.8144 156.619C89.2617 156.567 89.5558 156.088 89.9361 155.196L92.5085 149.084L93.0267 149.163L93.8589 156.857C93.8956 157.224 93.991 157.365 94.2475 157.412L94.1585 158.027L91.8179 157.68L91.898 157.071ZM90.8787 154.204L92.3049 154.425L92.0239 151.494L90.8787 154.204Z" fill="#FFC20E"/>
<path d="M97.1053 156.115C97.0677 157.203 97.2059 157.607 97.8651 157.638L97.8504 158.263L95.8262 158.205V157.58C96.4587 157.554 96.5847 157.155 96.6134 156.094L96.7409 151.006C96.7547 150.554 96.7082 150.376 96.4049 150.354L96.0335 150.349L96.0594 149.734L98.3319 149.797L99.317 154.886L100.468 149.845L102.707 149.898L102.686 150.517L102.334 150.492C102.039 150.492 101.975 150.638 101.968 151.105L101.826 157.118C101.81 157.591 101.86 157.738 102.161 157.738L102.523 157.743L102.503 158.363L99.8777 158.305L99.8978 157.691H100.204C100.501 157.701 100.568 157.554 100.584 157.092L100.744 150.748L99.0167 158.289L98.6731 158.283L97.2319 150.707L97.1053 156.115Z" fill="#FFC20E"/>
<path d="M106.655 157.413L107.101 157.376L107.159 157.985L104.386 158.263L104.324 157.638L104.701 157.607C105.006 157.569 105.038 157.433 105.001 156.96L104.418 150.99C104.386 150.523 104.313 150.376 104.014 150.396L103.641 150.44L103.572 149.825L106.655 149.531C107.936 149.404 108.666 150.171 108.818 151.737C108.986 153.406 108.288 154.241 106.723 154.393C106.513 154.425 106.283 154.43 106.014 154.446L106.256 156.846C106.303 157.329 106.372 157.433 106.655 157.413ZM105.967 153.784C106.047 153.804 106.156 153.804 106.314 153.784C107.265 153.7 107.611 153.275 107.475 151.877C107.349 150.518 106.986 150.114 106.157 150.187C105.705 150.234 105.637 150.324 105.684 150.975L105.967 153.784Z" fill="#FFC20E"/>
<path d="M112.909 149.067C112.657 149.11 112.631 149.257 112.725 149.704L113.949 155.685C114.048 156.142 114.128 156.262 114.426 156.199L114.768 156.136L114.889 156.746L112.279 157.282L112.147 156.683L112.494 156.604C112.793 156.546 112.809 156.388 112.725 155.932L111.486 149.966C111.391 149.525 111.308 149.388 111.06 149.441C110.514 149.557 110.267 150.581 110.477 152.261L110.136 152.324L109.601 149.189L114.138 148.239L114.904 151.347L114.564 151.416C114.086 149.798 113.461 148.942 112.909 149.067Z" fill="#FFC20E"/>
<path d="M116.217 148.769C116.428 147.807 116.89 147.203 117.667 146.962C118.449 146.7 119.169 146.894 119.936 147.587C120.618 148.207 121.18 149.173 121.574 150.36C121.974 151.557 122.062 152.523 121.873 153.485C121.658 154.513 121.165 155.16 120.413 155.402C119.657 155.649 118.949 155.438 118.155 154.724C117.405 154.057 116.916 153.222 116.528 152.015C116.134 150.806 116.029 149.687 116.217 148.769ZM120.219 154.787C121.023 154.53 121.023 153.212 120.235 150.801C119.447 148.381 118.691 147.315 117.862 147.583C117.069 147.845 117.069 149.152 117.851 151.574C118.649 153.988 119.41 155.06 120.219 154.787Z" fill="#FFC20E"/>
<path d="M124.473 153.122C125.014 152.771 124.945 152.371 124.509 151.442L122.367 146.815L122.146 146.658C121.92 146.49 121.757 146.38 121.5 146.506L121.427 146.542L121.16 145.996L122.777 145.245L127.434 148.901L126.095 146.028C125.617 144.993 125.339 144.731 124.703 145.025L124.451 144.458L126.316 143.592L126.578 144.147C126.053 144.442 126.095 144.825 126.552 145.818L129.288 151.688L128.883 151.877L123.123 147.336L124.924 151.253C125.375 152.235 125.691 152.523 126.3 152.271L126.573 152.823L124.735 153.678L124.473 153.122Z" fill="#FFC20E"/>
<path d="M135.096 141.616L134.812 141.816C133.573 140.477 132.822 140.241 131.934 140.85C131.593 141.081 131.531 141.176 131.867 141.674L133.274 143.738C133.311 143.722 133.343 143.707 133.368 143.686C133.888 143.328 133.836 142.799 133.269 141.769L133.553 141.569L135.754 144.783L135.459 144.988C134.708 144.069 134.241 143.859 133.726 144.2C133.699 144.221 133.669 144.247 133.652 144.258L135.238 146.595C135.507 146.984 135.616 147.067 135.874 146.9L136.288 146.611L136.635 147.126L134.309 148.723L133.962 148.207L134.251 148.003C134.513 147.84 134.466 147.682 134.209 147.299L130.816 142.336C130.554 141.943 130.422 141.853 130.176 142.027L129.872 142.225L129.53 141.727L133.326 139.127L135.096 141.616Z" fill="#FFC20E"/>
<path d="M141.917 143.344C141.455 143.738 140.867 143.864 140.179 143.733C139.134 143.523 138.047 142.793 137.055 141.627C136.278 140.724 135.778 139.773 135.573 138.86C135.337 137.83 135.552 137.09 136.178 136.548C136.566 136.212 137.018 136.097 137.606 136.201L137.501 135.487L137.727 135.294L140.032 137.814L139.784 138.092C138.288 136.816 137.228 136.438 136.634 136.937C135.926 137.551 136.398 138.701 138.078 140.655C139.765 142.635 140.793 143.26 141.586 142.587C142.18 142.067 142.054 141.065 141.172 139.62L141.602 139.537C142.732 141.227 142.831 142.567 141.917 143.344Z" fill="#FFC20E"/>
<path d="M51.488 72.0735L52.8292 74.8477L49.0605 75.8767L50.2364 78.2217L54.0151 77.1898L55.1949 79.5372L51.4131 80.5614L52.5785 82.8956L56.3677 81.8739L57.5585 84.2215L53.7498 85.235L54.9342 87.568L58.7334 86.5637L60.4241 89.8142C61.1373 89.6121 61.8448 89.3706 62.5168 89.0872L53.6791 71.4504C53.038 71.7207 52.311 71.9335 51.488 72.0735Z" fill="white"/>
<path d="M61.8578 73.049C61.5955 71.7992 64.439 70.3067 66.7225 68.4677L63.6998 62.418C62.5062 63.072 61.1778 64.0931 59.8546 65.5835C59.5003 65.9489 59.1879 66.3332 58.8867 66.715L61.8578 73.049Z" fill="white"/>
<path d="M68.6324 62.292C67.8993 61.2938 66.0136 61.1606 63.6992 62.418L66.7216 68.4677C68.818 66.7553 70.4341 64.7342 68.6324 62.292Z" fill="#ED1A3B"/>
<path d="M53.6787 71.4501L62.5163 89.0868C64.9924 88.0602 67.035 86.6083 67.7238 85.5352L63.9193 77.442L62.0314 73.423C61.9333 73.2958 61.8835 73.1799 61.8572 73.0488L58.8861 66.715C57.3994 68.5647 56.1129 70.4091 53.6787 71.4501Z" fill="#ED1A3B"/>
<path d="M51.4882 72.0735C50.2977 72.2771 48.9118 72.3312 47.2178 72.1915L49.0607 75.877L52.8294 74.848L51.4882 72.0735Z" fill="#ED1A3B"/>
<path d="M54.0151 77.1898L50.2363 78.2216L51.4134 80.5613L55.1952 79.5371L54.0151 77.1898Z" fill="#ED1A3B"/>
<path d="M56.3676 81.8738L52.5781 82.8952L53.7497 85.2349L57.5581 84.2211L56.3676 81.8738Z" fill="#ED1A3B"/>
<path d="M54.9341 87.568L56.3135 90.3507C57.645 90.4231 59.0534 90.2027 60.4237 89.8141L58.7333 86.5637L54.9341 87.568Z" fill="#ED1A3B"/>
<path d="M66.668 68.5145L68.3455 71.8641C69.539 70.861 70.8112 69.6671 72.1686 68.5301L69.0251 62.9164C70.1572 65.0983 68.6136 66.9351 66.668 68.5145Z" fill="white"/>
<path d="M62.0316 73.4233C62.1169 73.552 62.245 73.6626 62.4165 73.7776C64.1078 74.9712 66.0923 73.7541 68.3452 71.8641L66.668 68.5145C64.1714 70.5271 61.0032 72.1065 62.0316 73.4233Z" fill="#ED1A3B"/>
<path d="M62.0314 73.4233C60.1337 70.983 72.5801 67.653 68.6323 62.2921C67.5198 60.7702 63.763 61.2327 59.854 65.5835C56.827 68.9218 55.4922 72.8904 47.2168 72.1915L56.3131 90.3504C60.9005 90.5913 66.506 87.4506 67.724 85.5251L62.0314 73.4233Z" stroke="#211E1F" stroke-width="3.9174"/>
<path d="M72.1685 68.5301C68.2748 71.802 65.006 75.5982 62.4168 73.7776C62.2453 73.6627 62.1172 73.552 62.0319 73.4233C60.2113 71.079 71.6197 67.9107 69.0254 62.9164L72.1685 68.5301Z" stroke="#211E1F" stroke-width="3.9174"/>
<path d="M149.201 72.0735L147.857 74.8477L151.612 75.8767L150.446 78.2217L146.665 77.1898L145.489 79.5372L149.27 80.5614L148.104 82.8956L144.318 81.8739L143.131 84.2215L146.928 85.235L145.751 87.568L141.949 86.5637L140.258 89.8142C139.549 89.6121 138.84 89.3706 138.168 89.0872L147.005 71.4504C147.652 71.7207 148.361 71.9335 149.201 72.0735Z" fill="white"/>
<path d="M138.824 73.049C139.082 71.7992 136.24 70.3067 133.962 68.4677L136.987 62.418C138.174 63.072 139.497 64.0931 140.847 65.5835C141.177 65.9489 141.492 66.3332 141.802 66.715L138.824 73.049Z" fill="white"/>
<path d="M132.04 62.292C132.781 61.2938 134.665 61.1606 136.987 62.418L133.962 68.4677C131.862 66.7553 130.243 64.7342 132.04 62.292Z" fill="#ED1A3B"/>
<path d="M147.005 71.4501L138.168 89.0868C135.7 88.0601 133.652 86.6082 132.959 85.5352L138.651 73.4232C138.751 73.296 138.798 73.1802 138.824 73.049L141.801 66.7147C143.293 68.5646 144.564 70.4091 147.005 71.4501Z" fill="#ED1A3B"/>
<path d="M149.201 72.0735C150.383 72.2771 151.78 72.3312 153.471 72.1915L151.612 75.877L147.857 74.848L149.201 72.0735Z" fill="#ED1A3B"/>
<path d="M146.664 77.1898L150.445 78.2216L149.269 80.5613L145.488 79.5371L146.664 77.1898Z" fill="#ED1A3B"/>
<path d="M144.317 81.8738L148.103 82.8952L146.927 85.2349L143.13 84.2211L144.317 81.8738Z" fill="#ED1A3B"/>
<path d="M145.75 87.568L144.365 90.3507C143.041 90.4231 141.624 90.2027 140.258 89.8141L141.949 86.5637L145.75 87.568Z" fill="#ED1A3B"/>
<path d="M134.009 68.5145L132.334 71.8641C131.142 70.861 129.861 69.6671 128.521 68.5301L131.656 62.9164C130.522 65.0983 132.071 66.9351 134.009 68.5145Z" fill="white"/>
<path d="M138.651 73.4233C138.557 73.552 138.425 73.6626 138.268 73.7776C136.566 74.9712 134.597 73.7541 132.334 71.8641L134.009 68.5145C136.509 70.5271 139.67 72.1065 138.651 73.4233Z" fill="#ED1A3B"/>
<path d="M138.651 73.4233C140.541 70.983 128.106 67.653 132.04 62.2921C133.168 60.7702 136.924 61.2327 140.846 65.5835C143.856 68.9218 145.189 72.8904 153.47 72.1915L144.364 90.3504C139.785 90.5913 134.177 87.4506 132.954 85.5251L138.651 73.4233Z" stroke="#211E1F" stroke-width="3.9174"/>
<path d="M128.521 68.5301C132.413 71.802 135.674 75.5982 138.268 73.7776C138.425 73.6627 138.557 73.552 138.651 73.4233C140.474 71.079 129.062 67.9107 131.656 62.9164L128.521 68.5301Z" stroke="#211E1F" stroke-width="3.9174"/>
<path d="M111.706 67.9235C110.892 68.5781 109.48 69.5271 107.904 70.4837V83.046C109.68 81.9686 111.486 80.8123 113.192 79.8918V66.8712C112.605 67.2604 112.084 67.6221 111.706 67.9235Z" fill="white"/>
<path d="M120.177 64.5132C120.104 64.5132 120.03 64.5315 119.956 64.5315L118.16 78.1036C118.229 78.1012 118.307 78.0825 118.381 78.0825C119.852 78.0825 121.216 78.5781 122.503 79.3036L126.521 66.9712C124.552 65.5634 122.435 64.5132 120.177 64.5132Z" fill="white"/>
<path d="M138.268 73.7776C136.588 74.9552 134.618 73.7776 132.392 71.9117L127.162 82.8362C129.289 84.6752 131.179 86.1943 132.954 85.5248L138.652 73.4229C138.557 73.552 138.425 73.6626 138.268 73.7776Z" fill="white"/>
<path d="M62.4166 73.7776C62.2451 73.6626 62.117 73.552 62.0317 73.4233L67.724 85.5245C69.5153 86.1946 71.3995 84.6755 73.5258 82.8366L68.2869 71.912C66.052 73.7776 64.0972 74.9552 62.4166 73.7776Z" fill="white"/>
<path d="M100.343 73.747C99.8195 73.747 99.1206 73.5688 98.3315 73.2854V85.9232C99.0604 86.1776 99.7348 86.3307 100.343 86.3307C100.943 86.3307 101.623 86.1776 102.344 85.9232V73.2854C101.568 73.5688 100.861 73.747 100.343 73.747Z" fill="white"/>
<path d="M80.5005 64.5132C78.2492 64.5132 76.1345 65.5634 74.1665 66.9709L78.1892 79.3033C79.4626 78.5778 80.8292 78.0822 82.3046 78.0822C82.3716 78.0822 82.448 78.1012 82.5174 78.1033L80.7262 64.5312C80.6513 64.5315 80.5803 64.5132 80.5005 64.5132Z" fill="white"/>
<path d="M88.9726 67.9235C88.5948 67.6224 88.0934 67.2604 87.4941 66.8715V79.8918C89.2038 80.8126 91.01 81.9686 92.7743 83.046V70.4837C91.1937 69.5264 89.7816 68.5778 88.9726 67.9235Z" fill="white"/>
<path d="M92.7744 70.4837V83.046C94.7528 84.2527 96.6871 85.3606 98.3316 85.9232V73.2854C96.6868 72.6944 94.6106 71.595 92.7744 70.4837Z" fill="#ED1A3B"/>
<path d="M80.7261 64.5315L82.5173 78.1036C83.9203 78.1715 85.6382 78.8908 87.4939 79.8918V66.8712C85.7932 65.792 83.3379 64.6036 80.7261 64.5315Z" fill="#ED1A3B"/>
<path d="M68.2866 71.912L73.5255 82.8365C74.9514 81.6017 76.4831 80.2498 78.1891 79.3033L74.1663 66.9709C72.0373 68.487 70.0748 70.4173 68.2866 71.912Z" fill="#ED1A3B"/>
<path d="M102.344 73.2854V85.9232C103.997 85.3606 105.925 84.2533 107.905 83.046V70.4837C106.078 71.595 104.003 72.6944 102.344 73.2854Z" fill="#ED1A3B"/>
<path d="M113.193 66.8712V79.8915C115.046 78.8908 116.759 78.1712 118.16 78.1033L119.956 64.5312C117.346 64.6036 114.895 65.792 113.193 66.8712Z" fill="#ED1A3B"/>
<path d="M126.521 66.9709L122.503 79.3033C124.194 80.2498 125.728 81.6017 127.161 82.8365L132.391 71.912C130.612 70.4167 128.653 68.487 126.521 66.9709Z" fill="#ED1A3B"/>
<path d="M100.343 86.3307C104.891 86.3307 113.603 78.0825 118.381 78.0825C124.735 78.0825 129.078 86.9852 132.953 85.5254L138.651 73.4235C138.556 73.5522 138.425 73.6629 138.268 73.7778C133.998 76.7899 127.918 64.5134 120.177 64.5134C116.569 64.5134 113.208 66.7608 111.706 67.9235C109.464 69.7126 102.899 73.747 100.343 73.747C97.7971 73.747 91.2093 69.7126 88.9726 67.9235C87.4736 66.7605 84.1094 64.5134 80.5006 64.5134C72.7765 64.5134 66.6892 76.7896 62.4166 73.7778C62.2451 73.6629 62.117 73.5522 62.0317 73.4235L67.7244 85.5248C71.6043 86.9852 75.9524 78.0825 82.3047 78.0825C87.0796 78.0822 95.8041 86.3307 100.343 86.3307Z" stroke="#211E1F" stroke-width="3.9174"/>
<path d="M100.539 61.3966C112.285 61.3966 121.806 56.2347 121.806 49.8805C121.806 43.5199 112.285 38.3602 100.539 38.3602C88.7985 38.3602 79.2705 43.5199 79.2705 49.8805C79.2705 56.2347 88.7982 61.3966 100.539 61.3966Z" fill="#211E1F"/>
<path d="M100.539 61.3966C112.285 61.3966 121.806 56.2347 121.806 49.8805C121.806 43.5199 112.285 38.3602 100.539 38.3602C88.7985 38.3602 79.2705 43.5199 79.2705 49.8805C79.2705 56.2347 88.7982 61.3966 100.539 61.3966Z" stroke="white" stroke-width="1.96203"/>
<path d="M100.561 59.5256C110.992 59.5256 119.468 55.2081 119.468 49.8805C119.468 44.548 110.992 40.2367 100.561 40.2367C90.1047 40.2367 81.6572 44.548 81.6572 49.8805C81.6575 55.2081 90.1047 59.5256 100.561 59.5256Z" fill="#FFC20E"/>
<path d="M100.561 59.5256C110.992 59.5256 119.468 55.2081 119.468 49.8805C119.468 44.548 110.992 40.2367 100.561 40.2367C90.1047 40.2367 81.6572 44.548 81.6572 49.8805C81.6575 55.2081 90.1047 59.5256 100.561 59.5256Z" stroke="#211E1F" stroke-width="0.00166556"/>
<path d="M100.578 57.2161C109.07 57.2161 115.976 54.4566 115.976 51.0542C115.976 47.6607 109.07 44.9045 100.578 44.9045C92.0762 44.9045 85.1812 47.661 85.1812 51.0542C85.1812 54.4566 92.0759 57.2161 100.578 57.2161Z" fill="white"/>
<path d="M100.578 57.2161C109.07 57.2161 115.976 54.4566 115.976 51.0542C115.976 47.6607 109.07 44.9045 100.578 44.9045C92.0762 44.9045 85.1812 47.661 85.1812 51.0542C85.1812 54.4566 92.0759 57.2161 100.578 57.2161Z" stroke="#211E1F" stroke-width="7.85812"/>
<path d="M100.525 46.6744C92.3366 46.6744 85.7173 53.3175 85.7173 61.4911C85.7173 69.6803 92.3366 76.3084 100.525 76.3084H100.343C108.514 76.3084 115.157 69.6803 115.157 61.4911C115.157 53.3175 108.514 46.6744 100.343 46.6744H100.525" fill="white"/>
<path d="M100.525 46.6744C92.3366 46.6744 85.7173 53.3175 85.7173 61.4911C85.7173 69.6803 92.3366 76.3084 100.525 76.3084H100.343C108.514 76.3084 115.157 69.6803 115.157 61.4911C115.157 53.3175 108.514 46.6744 100.343 46.6744H100.525V46.6744Z" stroke="#211E1F" stroke-width="3.9174"/>
<path d="M98.0625 73.7409L95.0141 68.5646L89.4318 67.653L88.0298 69.428C88.0931 69.5164 88.1279 69.6111 88.1952 69.6934L88.4367 70.0401C90.3062 72.6797 93.0003 74.681 96.1639 75.6578L96.7341 75.7639L98.0625 73.7409Z" fill="#211E1F"/>
<path d="M94.2476 59.4418L96.6435 66.83H104.219L106.613 59.4418L100.423 54.9595L94.2476 59.4418Z" fill="#211E1F"/>
<path d="M100.423 51.9653V51.9546L105.033 48.9432V47.4531C103.588 46.966 102.044 46.6927 100.428 46.6799C98.8292 46.6927 97.285 46.9663 95.8301 47.4531V48.9432L100.423 51.9653Z" fill="#211E1F"/>
<path d="M91.8873 57.092L92.0491 51.2165L90.8555 50.2877C90.223 50.8227 89.6421 51.4058 89.1208 52.0429L89.0597 52.1046C87.3742 54.1668 86.2476 56.6887 85.8643 59.4586L87.1847 60.0392L91.8873 57.092Z" fill="#211E1F"/>
<path d="M105.862 68.5646L102.816 73.7409L104.135 75.7636L104.686 75.6602C107.894 74.6758 110.651 72.6161 112.526 69.9166L112.642 69.7368C112.715 69.6313 112.774 69.516 112.842 69.4277L111.429 67.6526L105.862 68.5646Z" fill="#211E1F"/>
<path d="M108.986 57.092L113.676 60.0395L114.999 59.4589C114.616 56.6784 113.481 54.1436 111.781 52.0729L111.77 52.0708C111.245 51.422 110.641 50.8338 110.017 50.2881L108.819 51.2169L108.986 57.092Z" fill="#211E1F"/>
</g>
<defs>
<clipPath id="clip0">
<rect x="46" y="38" width="108.688" height="124" fill="white"/>
</clipPath>
</defs>
</svg>
