<svg width="200" height="200" viewBox="0 0 200 200" fill="none" xmlns="http://www.w3.org/2000/svg">
<rect width="200" height="200" fill="white"/>
<g clip-path="url(#clip0)">
<path d="M86.2753 117.999C86.053 117.967 85.8261 117.994 85.6176 118.077C85.409 118.161 85.2261 118.298 85.0874 118.474C84.7008 118.921 84.4085 119.442 84.2284 120.005C84.0482 120.568 83.9837 121.162 84.0389 121.75V121.749C84.0453 122.03 84.1001 122.308 84.2009 122.57C84.2694 122.778 84.3872 122.967 84.5443 123.119C84.7013 123.272 84.893 123.384 85.1028 123.446C85.3322 123.455 85.56 123.405 85.7637 123.299C85.9675 123.193 86.1401 123.036 86.2646 122.843C86.6936 122.282 86.988 121.631 87.1254 120.938C87.2627 120.245 87.2392 119.53 87.0568 118.848C87.0124 118.651 86.9169 118.468 86.7797 118.319C86.6425 118.17 86.4686 118.06 86.2753 117.999V117.999ZM114.04 130.122C114.236 129.339 114.135 128.511 113.758 127.798C113.598 127.511 113.382 127.261 113.121 127.062C112.861 126.863 112.562 126.72 112.244 126.641L111.56 126.497C110.939 126.371 109.999 126.181 108.591 125.83C106.707 125.359 105.09 126.222 104.198 128.146C105.116 128.413 106.02 128.66 106.901 128.883C106.983 128.497 107.041 128.107 107.073 127.714C107.082 127.571 107.147 127.438 107.254 127.343C107.361 127.248 107.501 127.2 107.643 127.208C107.786 127.216 107.92 127.281 108.015 127.387C108.11 127.494 108.159 127.634 108.151 127.777C108.115 128.235 108.048 128.69 107.95 129.139C108.125 129.18 108.299 129.221 108.471 129.26C108.648 129.3 108.821 129.338 108.992 129.374C109.147 128.616 109.244 127.971 109.247 127.959C109.269 127.817 109.346 127.69 109.461 127.606C109.576 127.521 109.72 127.486 109.861 127.507C110.003 127.529 110.13 127.605 110.215 127.72C110.3 127.835 110.335 127.979 110.314 128.121C110.306 128.172 110.207 128.818 110.048 129.592C110.41 129.662 110.752 129.724 111.077 129.779C111.15 129.387 111.2 128.992 111.227 128.595C111.234 128.453 111.297 128.318 111.403 128.222C111.509 128.126 111.649 128.076 111.792 128.082C111.934 128.089 112.069 128.153 112.165 128.258C112.261 128.364 112.311 128.504 112.304 128.647C112.278 129.081 112.225 129.513 112.146 129.941C112.893 130.043 113.521 130.098 114.04 130.122V130.122ZM104.046 131.441C104.378 132.184 104.988 132.768 105.747 133.065C107.105 133.453 108.494 133.725 109.899 133.878C111.61 134.067 112.948 133.114 113.713 131.188C113.14 131.156 112.526 131.089 111.892 131C111.777 131.388 111.621 131.763 111.425 132.117C111.354 132.241 111.237 132.331 111.099 132.369C110.961 132.407 110.814 132.388 110.69 132.317C110.566 132.247 110.475 132.13 110.437 131.992C110.399 131.854 110.417 131.707 110.488 131.583C110.62 131.343 110.729 131.091 110.813 130.831C110.479 130.774 110.143 130.711 109.808 130.645C109.711 131.052 109.583 131.45 109.425 131.836C109.397 131.902 109.356 131.96 109.305 132.01C109.254 132.059 109.193 132.098 109.127 132.124C109.061 132.15 108.991 132.163 108.92 132.162C108.849 132.16 108.779 132.145 108.714 132.117C108.649 132.088 108.59 132.047 108.541 131.996C108.491 131.945 108.453 131.884 108.427 131.818C108.401 131.752 108.389 131.681 108.39 131.61C108.392 131.539 108.407 131.469 108.436 131.404C108.565 131.087 108.67 130.761 108.751 130.428C108.578 130.389 108.403 130.351 108.232 130.312C108.05 130.27 107.866 130.227 107.68 130.184C107.58 130.512 107.462 130.834 107.329 131.15C107.301 131.215 107.261 131.275 107.211 131.324C107.16 131.374 107.101 131.414 107.035 131.44C106.969 131.467 106.899 131.481 106.828 131.48C106.757 131.48 106.687 131.465 106.622 131.438C106.557 131.41 106.497 131.37 106.448 131.319C106.398 131.269 106.359 131.209 106.332 131.143C106.305 131.078 106.292 131.007 106.293 130.936C106.293 130.866 106.308 130.796 106.336 130.73C106.45 130.459 106.547 130.187 106.63 129.927C105.721 129.697 104.787 129.44 103.84 129.164C103.649 129.925 103.722 130.727 104.046 131.441V131.441ZM116.05 117.699C115.235 115.558 112.504 114.041 108.907 113.227C102.259 111.724 93.5245 114.207 87.967 118.882C88.1703 119.81 88.123 120.776 87.8299 121.68C92.7399 124.194 97.8691 126.254 103.154 127.836C104.446 124.867 106.923 124.301 108.853 124.783C110.236 125.128 111.125 125.309 111.775 125.44L112.49 125.591C112.953 125.704 113.387 125.91 113.767 126.198C114.146 126.486 114.463 126.849 114.696 127.264C115.171 128.137 115.327 129.148 115.137 130.123C115.512 130.147 115.887 130.062 116.215 129.879C117.592 125.926 117.534 121.614 116.05 117.699V117.699ZM109.78 134.95C108.296 134.79 106.828 134.5 105.394 134.084C104.881 133.89 104.412 133.597 104.013 133.221C103.613 132.846 103.292 132.395 103.067 131.895C102.822 131.367 102.684 130.795 102.661 130.212C102.645 129.756 102.692 129.299 102.804 128.855C97.4988 127.262 92.348 125.195 87.4134 122.679C87.2746 122.935 87.1108 123.176 86.9245 123.4C86.6549 123.732 86.3118 123.997 85.9223 124.173C86.3113 127.583 87.4826 130.857 89.3448 133.74C91.8209 137.565 95.1936 140.186 98.8375 141.01C100.129 141.302 101.818 141.665 103.327 141.33C106.051 140.722 108.593 139.481 110.747 137.707C112.902 135.933 114.608 133.676 115.727 131.12C115.439 131.167 115.148 131.195 114.857 131.204C113.578 134.943 110.891 135.073 109.78 134.95V134.95ZM83.7683 119.169C83.9415 118.763 84.1721 118.385 84.4531 118.045C84.6529 117.804 84.8896 117.596 85.1545 117.428C85.7388 114.472 87.1432 111.74 89.2071 109.544C86.1747 111.699 83.8934 114.75 82.6837 118.268C83.0056 118.613 83.3701 118.916 83.7683 119.169ZM83.4254 120.216C83.048 119.955 82.6886 119.669 82.3496 119.36C81.8748 121.111 81.6717 122.924 81.7473 124.737C81.7628 125.111 81.7895 125.484 81.8275 125.853C82.1515 124.634 82.6761 123.478 83.3797 122.432C83.2387 121.698 83.2543 120.943 83.4254 120.216V120.216ZM84.8465 124.273C84.4424 124.165 84.0908 123.915 83.8568 123.569C82.5341 125.607 81.9776 127.43 82.4629 129.067C83.473 132.458 85.4732 135.47 88.207 137.717C90.9408 139.964 94.2835 141.342 97.8062 141.676C90.8733 139.57 85.7437 132.347 84.8465 124.273V124.273ZM93.3833 40.2545C93.3892 39.3503 93.2888 38.4486 93.0842 37.5678C93.0842 37.5678 94.6792 37.4841 94.6792 35.542C94.6792 33.9423 93.6117 32.8505 93.3251 32.8505C93.0937 32.8505 93.0373 33.095 92.5371 33.095C91.3177 33.095 91.2281 31.538 91.2281 31.538C91.4085 31.5315 91.5941 31.5283 91.7847 31.5285C95.2743 31.5285 98.5034 32.5859 98.5034 40.2545C98.4739 42.7904 98.3051 45.3228 97.9979 47.8401C97.7267 49.909 97.5971 51.994 97.6098 54.0806C97.6098 54.0806 91.5331 53.365 91.5331 48.7937C91.5331 45.8257 93.3833 45.1035 93.3833 40.2545V40.2545ZM103.047 90.9102C103.047 96.9115 100.488 101.791 99.0084 103.271C94.4264 107.853 90.6449 104.516 90.6039 109.115C88.5248 110.998 87.0289 113.862 86.2949 117.132C86.3403 117.136 86.3855 117.142 86.4302 117.151C86.8706 117.237 87.2595 117.493 87.5131 117.863C93.3334 113.119 102.296 110.626 109.145 112.175C111.136 112.551 113.001 113.419 114.569 114.701C112.452 111.277 109.238 108.672 105.45 107.31C104.547 106.987 102.944 106.616 102.944 103.689C102.944 98.2252 108.921 102.473 112.859 96.5216C113.052 96.2291 112.774 95.9716 112.543 96.2024C111.352 97.3933 108.426 98.2121 106.878 98.2121C106.149 98.2689 105.418 98.148 104.746 97.8597C105.706 95.9853 106.804 94.1846 108.03 92.4725C104.375 88.8162 110.527 68.7153 126.81 68.7153C126.846 65.0184 126.48 61.3285 125.719 57.7108C125.331 57.8045 122.264 58.5284 122.124 57.8828C122 57.312 124.383 56.0731 125.203 55.666C124.837 54.2421 124.301 52.8674 123.606 51.5718C109.65 55.9692 112.455 67.5238 109.055 67.5238C106.843 67.5238 105.105 65.8007 104.484 65.1801C96.1483 56.8456 100.033 51.3303 100.033 40.2545C100.033 32.7936 97.1351 30 91.7847 30C86.4332 30 84.5225 32.3159 84.5225 32.3159C84.5225 32.3159 91.8541 32.5533 91.8541 40.2545C91.8541 48.316 82.7751 50.5411 82.7751 60.7684C82.7751 77.7932 103.047 77.474 103.047 90.9102" fill="#132257"/>
<path d="M72.3235 139.534C73.6841 140.431 75.1254 141.237 75.1254 141.237L74.6204 142.545C74.4323 141.753 73.6473 141.323 72.6326 140.696L69.3139 145.496C68.7815 146.209 68.3574 146.997 68.0554 147.835C68.0554 147.835 67.5113 147.488 67.0135 147.118C66.4931 146.731 66 146.373 66 146.373C66.4949 146.251 67.3493 144.991 67.8638 144.294L71.0934 139.685C69.8836 138.752 69.4113 138.568 68.5568 138.524L69.7062 137.662C69.7062 137.662 70.811 138.536 72.3235 139.534" fill="#132257"/>
<path d="M78.2737 143.473C76.7998 142.771 75.6398 144.435 74.7658 146.265C73.8917 148.096 73.3203 150.057 74.7943 150.761C76.2688 151.463 77.4341 149.787 78.3076 147.957C79.1822 146.127 79.7477 144.178 78.2737 143.473V143.473ZM74.4715 151.438C72.1656 150.337 71.8607 147.798 72.9952 145.42C74.1356 143.032 76.3085 141.689 78.6025 142.785C80.897 143.88 81.2198 146.413 80.0788 148.803C78.9443 151.179 76.7767 152.539 74.4715 151.438Z" fill="#132257"/>
<path d="M84.7876 145.239C86.3464 145.68 87.6156 145.975 87.6156 145.975L87.4797 147.37C87.062 146.767 86.8709 146.619 85.54 146.28L83.9278 151.705C83.7973 152.201 83.1535 154.079 83.36 154.433C83.36 154.433 82.9114 154.338 82.1881 154.138C81.3758 153.912 80.9937 153.76 80.9937 153.76C81.4096 153.485 81.9353 151.879 82.1062 151.226L83.7279 145.765C82.3495 145.306 82.0291 145.273 81.3698 145.58L82.1691 144.39C82.1691 144.39 83.0692 144.754 84.7876 145.239" fill="#132257"/>
<path d="M91.219 146.681C92.7558 146.913 94.2031 147.044 94.2031 147.044L94.2594 148.444C93.6868 147.934 93.4708 147.768 91.953 147.577L91.0748 153.148C91.0131 153.658 90.6862 155.595 90.9395 155.917C90.9395 155.917 90.4079 155.859 89.6727 155.755C88.9375 155.651 88.486 155.549 88.486 155.549C88.845 155.267 89.1428 153.432 89.2051 152.922L90.1053 147.281C88.791 147.019 88.5204 147.12 87.8896 147.486L88.4611 146.162C88.4611 146.162 89.6893 146.45 91.219 146.681" fill="#132257"/>
<path d="M96.9166 151.977L96.8003 155.72C98.7625 155.746 100.107 155.623 100.706 154.771L100.406 156.471C100.406 156.471 99.3185 156.494 97.7271 156.471C95.9755 156.446 94.603 156.333 94.603 156.333C94.8938 156.044 94.9668 154.22 94.9703 153.706L95.1299 150.032C95.1365 149.054 95.2261 147.473 94.8979 147.14C96.3196 147.239 96.1387 147.237 97.4447 147.288C99.1541 147.356 100.124 147.305 100.124 147.305L100.338 148.709C99.6698 148.152 98.67 148.088 97.0364 148.078L96.9462 151.219L99.455 151.234C99.6816 151.236 99.6965 151.363 99.6947 151.614C99.6923 151.862 99.6888 151.995 99.4502 151.992L96.9166 151.977Z" fill="#132257"/>
<path d="M107.878 153.104C108.023 154.467 108.166 155.445 108.476 155.624C108.401 155.728 108.303 155.814 108.191 155.876C108.078 155.939 107.953 155.975 107.825 155.984C107.638 155.995 107.451 155.959 107.282 155.877C107.113 155.795 106.968 155.671 106.861 155.516L102.412 150.413L102.579 153.659C102.634 154.17 102.692 156.105 103.011 156.362L101.527 156.431C101.785 156.112 101.716 154.268 101.662 153.757L101.452 150.092C101.397 149.581 101.302 147.555 100.982 147.298L102.342 147.249L106.904 152.665L106.524 149.548C106.47 149.037 106.192 147.179 105.885 146.92C105.885 146.92 106.049 146.905 106.602 146.831C107.155 146.755 107.357 146.715 107.357 146.715C107.099 147.035 107.398 148.939 107.452 149.451L107.878 153.104Z" fill="#132257"/>
<path d="M116.239 151.173C116.396 151.806 116.709 153.434 117.176 153.753C117.176 153.753 116.471 153.956 116.042 154.088C115.659 154.207 114.815 154.425 114.815 154.425C115.014 154.074 114.57 152.121 114.448 151.632L114.024 149.932L111.196 150.626L111.518 152.355C111.611 152.914 111.906 154.794 112.286 155.023C112.286 155.023 111.892 155.106 111.067 155.274C110.376 155.416 109.897 155.492 109.897 155.492C110.108 155.14 109.824 153.396 109.736 152.84L109.051 149.186C108.926 148.505 108.612 146.781 108.234 146.58C108.234 146.58 108.599 146.51 109.407 146.353C110.216 146.196 110.611 146.089 110.611 146.089C110.413 146.498 110.763 148.151 110.859 148.731L111.077 149.89L113.859 149.213L113.558 148.027C113.395 147.401 113.049 145.893 112.662 145.614C112.662 145.614 113.045 145.503 113.819 145.284C114.593 145.065 114.928 144.94 114.928 144.94C114.773 145.358 115.204 146.825 115.382 147.581L116.239 151.173Z" fill="#132257"/>
<path d="M120.904 148.412L118.452 145.015L118.625 149.281L120.904 148.412ZM121.405 149.006L118.645 150.087L118.741 151.602C118.756 152.026 118.816 152.449 118.918 152.861C118.964 152.976 119.05 153.071 119.159 153.131C119.159 153.131 118.872 153.235 118.398 153.389C117.925 153.542 117.664 153.617 117.664 153.617C117.832 153.252 117.897 152.849 117.854 152.45L117.612 145.267C117.6 145.024 117.553 144.784 117.47 144.555C117.404 144.412 117.302 144.288 117.175 144.194C117.526 143.964 117.896 143.765 118.281 143.598C118.916 143.331 119.182 143.342 119.644 143.882L123.693 148.902C124.429 149.861 125.078 150.506 125.502 150.634C125.502 150.634 125.089 150.825 124.312 151.171C123.533 151.517 123.018 151.713 123.018 151.713C123.072 151.515 123.055 151.305 122.968 151.119C122.746 150.727 122.491 150.355 122.205 150.008L121.405 149.006Z" fill="#132257"/>
<path d="M132.965 146.402C132.411 146.776 131.995 147.063 131.995 147.063C131.954 146.517 130.9 145.166 130.59 144.757L128.212 141.654L130.124 147.77C130.034 147.917 129.921 148.048 129.788 148.157C129.636 148.285 129.441 148.353 129.242 148.347C129.042 148.341 128.852 148.261 128.708 148.123L124.181 144.369L125.765 147.288C126.153 148.028 126.9 149.566 127.402 149.717C127.402 149.717 127.091 149.884 126.695 150.077C126.302 150.266 126.062 150.378 126.062 150.378C126.149 149.949 125.414 148.672 124.985 147.855L123.221 144.538C122.686 143.54 122.097 142.524 121.589 142.321C121.982 142.13 122.1 142.072 122.661 141.796C123.129 141.565 123.54 141.339 123.54 141.339L128.639 145.677L126.634 139.536C126.634 139.536 126.903 139.354 127.411 139.014C127.92 138.673 128.38 138.335 128.38 138.335C128.418 138.885 129.478 140.284 129.865 140.785L132.061 143.611C132.527 144.191 133.397 145.485 134.018 145.634C134.018 145.634 133.52 146.028 132.965 146.402" fill="#132257"/>
<path d="M80.7918 157.568C81.2641 157.74 81.8741 157.952 81.8741 157.952C81.3609 158.324 80.8879 159.805 80.583 160.609L79.3992 163.894C79.0817 164.785 78.5418 166.077 78.7228 166.538C78.7228 166.538 78.0712 166.313 77.5437 166.126C77.0934 165.966 76.8376 165.879 76.3594 165.675C76.9403 165.522 77.488 163.592 77.6648 163.106L78.2071 161.573L75.3696 160.39L74.549 162.143C74.282 162.752 73.643 164.131 73.7943 164.564C73.7943 164.564 73.2941 164.359 72.5595 164.022C71.6955 163.624 71.5068 163.517 71.5068 163.517C72.1162 163.218 72.4758 162.236 72.9398 161.243L74.4244 157.956C74.9258 156.832 75.3785 155.857 75.3447 155.215C75.3447 155.215 75.6094 155.373 76.3392 155.702C76.9207 155.963 77.2174 156.093 77.5437 156.224C77.0815 156.408 76.4395 158.067 76.0995 158.81L75.6651 159.74L78.4373 160.88L78.8628 159.827C79.061 159.29 79.7481 157.684 79.6003 157.133C79.6003 157.133 80.1694 157.34 80.7918 157.568" fill="#132257"/>
<path d="M86.1944 159.876C84.6155 159.461 83.799 161.272 83.2935 163.192C82.7879 165.111 82.6052 167.102 84.1853 167.518C85.7642 167.934 86.5843 166.109 87.0892 164.191C87.5948 162.271 87.7752 160.292 86.1944 159.876ZM83.9978 168.229C81.5264 167.578 80.7396 165.186 81.3959 162.692C82.0551 160.186 83.9266 158.507 86.3861 159.153C88.8432 159.801 89.646 162.184 88.9874 164.69C88.3317 167.183 86.4692 168.879 83.9978 168.229Z" fill="#132257"/>
<path d="M90.6915 169.111C90.8139 168.958 90.9037 168.782 90.9555 168.594C91.1139 167.883 91.2355 167.165 91.3198 166.442L92.0123 161.092C90.5372 160.908 90.1634 161.014 89.5166 161.397L90.1224 160.027C90.5829 160.129 91.5993 160.239 92.8371 160.395C93.6636 160.499 96.1303 160.721 96.1303 160.721L96.2145 162.091C95.6704 161.461 95.1061 161.406 93.8784 161.308L93.1883 166.677C93.1266 167.176 92.8519 168.91 93.1243 169.423C92.8282 169.39 92.3363 169.335 91.9251 169.293C91.499 169.25 90.9371 169.152 90.6915 169.111" fill="#132257"/>
<path d="M102.438 167.252C102.454 168.863 101.144 170.03 99.1302 169.999C98.1468 170.027 97.1869 169.696 96.4292 169.069L96.7561 167.541C96.9352 167.996 97.2344 168.394 97.6219 168.692C98.0093 168.991 98.4705 169.179 98.9563 169.236C99.168 169.261 99.3825 169.242 99.5862 169.179C99.7899 169.117 99.9782 169.012 100.139 168.872C100.3 168.733 100.43 168.561 100.521 168.368C100.611 168.175 100.661 167.965 100.666 167.752C100.676 167.069 100.3 166.657 98.7172 165.833C97.2018 165.05 96.6375 164.269 96.6375 163.104C96.6375 161.52 98.017 160.714 99.6369 160.712C100.527 160.707 101.403 160.929 102.183 161.357L101.845 162.756C101.123 161.792 100.469 161.433 99.6797 161.422C99.5098 161.398 99.3368 161.412 99.1731 161.463C99.0093 161.514 98.8588 161.6 98.7324 161.716C98.6059 161.832 98.5066 161.974 98.4415 162.133C98.3764 162.292 98.3472 162.463 98.3559 162.634C98.3624 163.503 99.3195 163.975 100.612 164.698C102.097 165.528 102.428 166.362 102.438 167.252Z" fill="#132257"/>
<path d="M109.775 162.319C109.83 162.514 109.867 162.715 109.885 162.917C109.903 163.115 109.904 163.314 109.889 163.513C109.831 164.093 109.585 164.639 109.188 165.067C108.858 165.398 108.464 165.66 108.031 165.836C107.598 166.013 107.134 166.101 106.666 166.096C106.249 166.122 106.149 165.994 106.121 165.694L106.118 165.628C106.118 165.628 106.109 165.512 106.201 165.506L106.305 165.496C106.531 165.479 106.751 165.417 106.953 165.313C107.154 165.209 107.333 165.067 107.478 164.893C107.842 164.372 107.994 163.733 107.904 163.104C107.901 162.802 107.832 162.503 107.702 162.23C107.572 161.957 107.383 161.716 107.15 161.523C106.75 161.224 106.251 161.088 105.754 161.143C105.754 161.143 105.553 161.159 105.331 161.193C105.314 161.194 105.298 161.199 105.282 161.207C105.267 161.214 105.253 161.225 105.242 161.238C105.231 161.251 105.223 161.266 105.218 161.283C105.213 161.299 105.211 161.316 105.213 161.333L105.747 166.882C105.795 167.37 105.927 169.09 106.329 169.446C106.329 169.446 105.873 169.494 105.013 169.564C104.358 169.617 103.847 169.631 103.847 169.631C103.998 169.047 104.032 168.439 103.948 167.842L103.533 163.467C103.486 162.966 103.401 161.249 102.992 160.825C102.992 160.825 104.09 160.662 106.123 160.47C107.055 160.323 108.008 160.516 108.808 161.014C109.273 161.323 109.615 161.785 109.775 162.319" fill="#132257"/>
<path d="M118.089 164.108C118.218 164.537 118.255 164.988 118.198 165.433C118.141 165.877 117.991 166.305 117.759 166.687C117.526 167.07 117.216 167.4 116.847 167.655C116.479 167.91 116.061 168.085 115.621 168.169C114.215 168.52 112.189 168.004 111.624 165.537L110.937 162.624C110.754 161.81 110.458 160.365 109.985 159.99C109.985 159.99 110.513 159.914 111.341 159.76C112.169 159.606 112.553 159.514 112.553 159.514C112.336 159.856 112.564 161.205 112.78 162.197L113.658 165.9C113.73 166.449 114 166.953 114.418 167.316C114.572 167.417 114.744 167.485 114.924 167.517C115.105 167.55 115.29 167.545 115.469 167.504C115.66 167.474 115.842 167.402 116.001 167.293C116.161 167.184 116.295 167.041 116.392 166.874C116.597 166.361 116.613 165.792 116.438 165.268L115.451 161.566C115.181 160.547 114.871 159.271 114.538 159.058C114.538 159.058 114.939 158.948 115.701 158.731C116.277 158.566 116.62 158.466 116.869 158.379C116.642 158.936 117.185 160.644 117.299 161.134L118.089 164.108Z" fill="#132257"/>
<path d="M127.075 163.349C127.254 163.438 127.46 163.456 127.652 163.4C127.595 163.61 127.484 163.802 127.329 163.955C127.12 164.225 126.833 164.426 126.507 164.531C126.181 164.635 125.832 164.639 125.504 164.541C124.076 163.826 122.782 162.87 121.679 161.715C121.676 161.707 121.674 161.699 121.674 161.69C121.674 161.682 121.676 161.673 121.679 161.665C121.682 161.657 121.687 161.65 121.693 161.644C121.7 161.638 121.707 161.634 121.715 161.631L121.8 161.593C122.038 161.481 122.251 161.322 122.425 161.126C122.6 160.929 122.732 160.7 122.816 160.451C122.899 160.201 122.931 159.938 122.91 159.676C122.889 159.414 122.815 159.159 122.693 158.927C122.597 158.663 122.446 158.422 122.252 158.219C122.057 158.017 121.822 157.857 121.563 157.75C121.16 157.627 120.726 157.651 120.339 157.818C120.185 157.876 120.039 157.953 119.905 158.049C119.905 158.049 119.839 158.104 119.917 158.332L121.679 163.365C121.946 164.107 122.412 165.551 122.833 165.795C122.833 165.795 122.357 165.982 121.636 166.244C120.912 166.504 120.473 166.625 120.473 166.625C120.62 166.064 120.064 164.535 119.925 164.106L118.784 160.705C118.499 159.887 117.98 158.416 117.556 158.183C118.475 157.892 119.376 157.552 120.258 157.163C121.134 156.728 122.133 156.608 123.087 156.822C123.569 156.949 123.988 157.249 124.263 157.664C124.367 157.818 124.455 157.983 124.526 158.155C124.591 158.315 124.637 158.482 124.666 158.653C124.764 159.195 124.664 159.754 124.384 160.228C124.174 160.594 123.888 160.91 123.544 161.155C124.612 162.049 125.801 162.788 127.075 163.349" fill="#132257"/>
</g>
<defs>
<clipPath id="clip0">
<rect x="66" y="30" width="68.0178" height="140" fill="white"/>
</clipPath>
</defs>
</svg>
