<svg width="200" height="200" viewBox="0 0 200 200" fill="none" xmlns="http://www.w3.org/2000/svg">
<rect width="200" height="200" fill="white"/>
<path d="M106.386 157.551C105.886 159.022 104.292 162.628 100.435 162.628C96.0466 162.628 94.5249 157.881 94.4512 157.681L94.3213 157.231C94.3213 157.231 98.1002 157.545 100.182 157.545C102.258 157.545 105.816 157.34 106.392 157.231L106.386 157.551H106.386Z" fill="black"/>
<path d="M117.901 155.21L118.801 155.324C117.727 158.131 115.798 161.276 112.017 161.276C108.33 161.276 106.511 159.142 105.75 157.715L105.105 157.322C105.105 157.322 111.457 157.116 117.901 155.21" fill="black"/>
<path d="M83.1026 155.21L82.2021 155.324C83.271 158.131 85.2087 161.276 89.0017 161.276C92.6682 161.276 94.6445 159.029 95.4589 157.715L95.896 157.322C95.896 157.322 89.5545 157.116 83.1026 155.21" fill="black"/>
<path d="M103.513 157.85C102.914 158.707 102.513 158.663 101.805 158.663C101.438 158.663 100.912 158.958 100.917 159.502C100.933 159.93 101.282 160.278 101.856 160.278C103.162 160.278 104.161 158.468 104.426 157.697C104.426 157.697 105.191 157.666 105.414 157.643C105.414 157.643 104.045 161.736 100.482 161.736C96.9135 161.736 95.4585 157.692 95.4585 157.692C95.4585 157.692 98.4669 157.875 100.182 157.875C101.902 157.875 102.997 157.859 103.513 157.85" fill="url(#paint0_radial)"/>
<path d="M83.5869 156.046C85.9055 156.661 87.5624 157.18 91.4676 157.654C91.4676 157.654 91.343 158.049 90.4935 158.017C90.1688 157.996 90.1249 157.915 90.0126 157.896C89.7616 157.851 89.3983 158.105 89.4351 158.528C89.4737 158.826 89.723 159.197 90.59 159.197C91.4571 159.197 92.4663 158.491 92.977 157.831C92.977 157.831 93.4948 157.952 94.0337 157.979C94.0337 157.979 92.3645 160.31 89.0858 160.31C85.486 160.31 84.1451 157.078 83.5869 156.046" fill="url(#paint1_radial)"/>
<path d="M100.138 136.862C112.572 136.862 126.346 129.231 136.017 118.229C137.07 117.039 138.834 114.779 143.034 114.779C147.241 114.779 152.833 118.614 152.179 125.592C151.691 130.675 144.426 142.143 131.987 149.198C119.552 156.28 108.096 157.794 100.138 157.794C92.1732 157.794 80.7277 156.28 68.2854 149.198C55.8482 142.143 48.5854 130.675 48.1009 125.592C47.4463 118.614 53.04 114.779 57.2383 114.779C61.449 114.779 63.2199 117.039 64.2695 118.229C73.9265 129.231 87.708 136.862 100.138 136.862V136.862Z" fill="#FFE500"/>
<path fill-rule="evenodd" clip-rule="evenodd" d="M57.2384 115.226C53.2589 115.226 47.9208 118.877 48.5466 125.55C48.7767 127.963 50.6499 132.018 54.0634 136.38C57.4624 140.723 62.344 145.313 68.5062 148.808L68.5068 148.809C80.8669 155.844 92.2318 157.347 100.138 157.347C108.038 157.347 119.413 155.844 131.766 148.809L131.767 148.808C137.93 145.313 142.812 140.723 146.212 136.38C149.627 132.018 151.501 127.963 151.733 125.55C152.359 118.877 147.023 115.226 143.034 115.226C141.022 115.226 139.616 115.766 138.59 116.433C137.654 117.042 137.022 117.762 136.513 118.343C136.458 118.406 136.405 118.467 136.353 118.525M63.9336 118.525C63.8846 118.47 63.8346 118.412 63.7833 118.354C63.274 117.771 62.6395 117.046 61.6958 116.433C60.6673 115.766 59.2563 115.226 57.2384 115.226M47.6554 125.634C46.9721 118.35 52.8213 114.331 57.2384 114.331C59.4311 114.331 61.011 114.922 62.183 115.682C63.2365 116.366 63.9482 117.181 64.4555 117.762C64.5075 117.822 64.5574 117.879 64.6053 117.933L64.606 117.934C74.2062 128.871 87.8744 136.415 100.138 136.415C112.405 136.415 126.067 128.871 135.681 117.934L135.682 117.933C135.733 117.876 135.785 117.816 135.84 117.753C136.348 117.173 137.057 116.362 138.102 115.683C139.271 114.922 140.847 114.331 143.034 114.331C147.46 114.331 153.308 118.35 152.624 125.634L152.624 125.635C152.368 128.305 150.366 132.525 146.917 136.932C143.453 141.357 138.484 146.028 132.208 149.587C119.691 156.716 108.154 158.242 100.138 158.242C92.1148 158.242 80.5891 156.716 68.0646 149.587C61.7897 146.028 56.8213 141.357 53.3585 136.932C49.9103 132.525 47.9099 128.305 47.6555 125.635L47.6554 125.634Z" fill="black"/>
<path d="M100.032 138.554C87.5216 138.554 73.2855 131.172 62.8001 119.23C61.733 118.017 60.3745 116.457 57.1415 116.457C55.2529 116.457 53.1116 117.468 51.6917 119.031C50.6228 120.193 49.424 122.242 49.7119 125.382C50.1278 129.671 56.9256 140.773 69.0415 147.667C78.8072 153.222 89.2347 156.029 100.032 156.029C110.841 156.029 121.268 153.222 131.034 147.667C143.146 140.773 149.955 129.671 150.355 125.382C150.655 122.242 149.447 120.193 148.393 119.031C146.966 117.468 144.819 116.457 142.939 116.457C139.692 116.457 138.335 118.017 137.278 119.23C126.799 131.172 112.545 138.554 100.032 138.554V138.554Z" fill="#DA020E"/>
<path d="M153.851 76.2764L153.895 73.3769C154.788 74.0596 156.468 74.0702 157.451 73.0223C157.898 72.5449 158.153 71.806 158.116 71.046C158.074 70.1878 157.684 69.2961 157.044 68.6678C153.414 65.1206 150.19 61.5787 150.19 61.5787C149.856 61.0521 149.335 60.6713 149.033 60.5414C148.589 60.329 147.009 59.6076 145.805 61.4365C144.719 63.0934 144.88 65.4295 145.089 66.2825L148.492 70.9214C149.658 72.3993 152.942 75.5428 153.851 76.2764Z" fill="black"/>
<path d="M81.1087 46.2084C85.3931 44.7692 89.3106 43.5792 94.5901 43.1123L95.3905 42.663C92.4436 40.3374 89.516 38.7507 86.6006 38.7507C84.77 38.7507 81.0455 39.9951 80.2153 46.5665L81.1087 46.2084V46.2084Z" fill="black"/>
<path d="M119.176 46.2084C114.89 44.7692 110.976 43.5792 105.702 43.1123L104.891 42.663C107.85 40.3374 110.77 38.7507 113.689 38.7507C115.522 38.7507 119.23 39.9951 120.078 46.5665L119.176 46.2084V46.2084Z" fill="black"/>
<path d="M95.2969 42.8947C97.4522 38.7508 99.4233 37.2518 100.526 37.2518C101.888 37.2518 103.492 39.4177 104.752 42.2207L105.017 42.8561L103.909 42.7701C103.183 42.6332 101.113 42.6068 100.324 42.6068C99.5128 42.6068 97.7646 42.6069 96.7115 42.7051L95.2969 42.8947V42.8947Z" fill="black"/>
<path d="M78.3016 136.282L75.1809 141.923C74.2384 143.619 73.2678 144.695 71.6759 143.782C70.1085 142.896 70.4718 141.611 71.4337 139.859L74.5631 134.211L72.0392 132.81L68.7325 138.78C66.9124 142.065 69.2029 144.103 70.9966 145.091C72.9115 146.151 75.6987 146.94 77.503 143.678L80.8326 137.683L78.3016 136.282V136.282ZM118.432 147.904L117.38 144.668L120.512 143.657L120.078 142.31L116.943 143.327L116.052 140.561L119.257 139.509L118.825 138.177L112.957 140.085L116.218 150.11L122.686 148.013L122.26 146.676L118.432 147.904V147.904ZM125.135 134.93L121.563 136.989L126.851 146.16L130.409 144.102C134.086 141.982 134.435 138.77 132.987 136.194C131.244 133.136 128.368 133.066 125.135 134.93V134.93ZM130.532 137.721C131.871 140.067 131.599 141.779 129.537 142.96L128.554 143.532L124.671 136.824L125.728 136.211C128.205 134.788 129.61 136.055 130.532 137.721V137.721ZM101.96 142.018L102.151 143.392L105.103 142.974L106.379 152.038L109.124 151.657L107.852 142.599L110.76 142.195L110.56 140.802L101.96 142.018V142.018ZM99.4602 142.104L96.6958 141.953L96.1429 152.484L98.909 152.631L99.4602 142.104V142.104ZM91.067 140.816L89.1415 148.012L85.5382 139.333L83.2968 138.731L80.5658 148.92L83.0072 149.568L84.9484 142.312L88.6062 151.065L90.7984 151.656L93.5189 141.464L91.067 140.816V140.816Z" fill="#FFE500"/>
<path d="M76.5205 74.3262V123.72L100.138 138.895L123.754 123.72L123.789 74.4017C123.032 73.7348 121.462 72.2727 120.231 71.5074H79.9361C78.9163 72.2236 76.8733 73.9471 76.5205 74.3262H76.5205Z" fill="#FFE500"/>
<path d="M109.577 109.765V107.929C109.577 107.929 109.089 107.175 107.88 107.175C106.674 107.175 105.953 107.538 105.953 107.842C105.953 108.338 107.032 109.765 109.577 109.765V109.765ZM100.054 93.5142L101.879 90.3268L103.31 93.5142H105.679C104.254 94.8517 103.671 96.8754 103.671 98.2251V99.6959C103.671 100.321 103.357 101.355 103.357 101.355C103.357 101.355 105.414 102.922 105.73 103.194C105.862 103.298 106.006 103.361 105.911 103.633C105.748 104.091 104.351 104.721 104.208 104.84C103.892 105.121 103.81 105.29 103.892 105.567C103.992 105.834 104.254 105.883 104.789 105.693C105.33 105.52 106.45 104.932 107.389 104.53C108.324 104.122 109.577 104.226 109.577 104.226V102.427H106.039V96.7104L105.414 95.7029L106.974 92.9227L108.544 95.7205L107.926 96.7104V99.6959H109.728V96.7104L109.107 95.7205L110.673 92.9438L112.231 95.7205L111.615 96.7104V99.6959H113.43V96.7104L112.788 95.7205L114.358 92.9438L115.924 95.7205L115.299 96.7104L115.329 102.418H111.763V105.058C112.572 105.818 113.335 107.538 113.335 108.551C113.335 109.588 112.659 110.027 112.659 110.027C112.886 110.841 112.842 111.18 112.745 111.917C112.659 112.667 111.724 113.836 111.724 113.836V127.478C111.724 128.405 109.577 128.314 109.577 127.522V114.143C108.363 112.814 105.056 111.77 105.056 111.77C103.843 112.983 103.097 115.089 103.097 115.089C103.624 115.457 104.444 115.089 104.752 114.731C105.056 114.373 105.679 114.28 106.039 114.506C106.392 114.731 106.48 114.817 106.358 115.343C106.22 115.898 105.999 116.784 105.999 117.404C105.999 118.039 106.713 117.897 107.247 117.944C108.324 118.039 108.501 119.243 108.412 119.915C108.324 120.591 108.008 122.025 108.008 122.917C108.008 123.8 108.056 124.691 108.143 125.197C108.236 125.685 108.412 126.223 108.363 126.854C108.308 127.701 107.787 127.836 107.247 127.292C106.713 126.757 99.2412 118.792 99.2412 118.792C98.7445 120.412 100.812 123.175 101.479 124.028C102.151 124.881 102.107 125.507 101.519 126.092C100.944 126.669 99.8222 126.978 99.6028 127.522C99.3746 128.049 100.138 129.671 101.709 131.682C103.275 133.69 99.9117 135.038 97.9055 135.44C95.8853 135.837 95.8853 134.45 96.0257 133.69C96.1591 132.937 96.1591 132.479 96.11 131.817C96.0661 131.143 95.4483 130.209 94.59 129.091C93.7423 127.968 93.7423 126.947 94.0951 124.344C94.4514 121.748 94.3671 120.091 94.3671 120.091C94.3671 120.091 93.472 120.128 92.1732 120.091C90.8814 120.042 89.8089 119.292 89.7177 116.158C89.6282 113.032 89.5544 105.567 89.3421 104.784C89.135 104.01 88.2977 103.868 87.945 103.764C87.5781 103.673 87.5606 103.145 87.9151 102.955C88.8489 102.501 89.9687 101.355 89.5545 100.642C89.135 99.9276 87.4904 100.075 86.3899 100.614C85.2859 101.147 84.1222 102.32 83.8221 102.639C83.5325 102.955 83.2815 102.955 83.3131 102.615C83.35 102.25 83.1095 100.542 82.9673 99.9504C82.8094 99.3537 82.2758 98.2251 82.095 97.9267C81.9177 97.6266 82.095 97.5107 82.3969 97.6266C82.6865 97.7459 83.3499 98.0215 83.973 98.1865C84.6014 98.376 85.1999 98.0671 85.486 97.4809C85.7844 96.8754 86.3671 95.5994 86.6655 95.0289C86.9586 94.4655 87.4325 94.5919 87.8221 94.6779C88.2083 94.7692 88.5663 95.0079 88.9226 95.1501C89.2771 95.2975 89.5738 95.2694 89.7001 95.0886C89.8212 94.9166 89.9687 94.8517 90.1828 94.4059C90.3917 93.96 90.6514 94.1724 90.6848 94.3497C91.7519 100.767 94.5321 101.061 94.5321 101.061C94.1144 102.13 93.135 103.835 92.9033 104.265C92.6523 104.667 92.5593 105.239 92.4979 105.683C92.4505 106.125 92.6523 110.364 92.949 111.917C93.2508 113.472 94.2004 112.867 94.5093 112.391C94.7954 111.917 95.7274 109.944 95.7274 109.944C95.7274 109.944 95.9573 109.407 95.9573 108.961C95.9573 108.512 95.185 107.538 95.0078 107.234C94.8235 106.925 94.1723 106.334 94.1723 104.84C94.1723 103.352 95.5133 102.32 95.9959 101.929C96.4733 101.537 96.4733 100.995 96.4084 100.668C96.1995 99.5169 94.9762 97.0948 94.3882 96.1663C93.7862 95.2413 92.6243 93.4844 92.6243 93.4844H95.0394L96.5944 90.2549L98.2864 93.4984L100.054 93.5142L100.054 93.5142ZM99.6625 103.298C100.451 101.995 100.781 100.642 100.781 100.642H98.5023C98.5023 100.642 98.8674 102.027 99.6625 103.298ZM97.2895 96.7314C97.3808 97.3984 97.8775 97.6529 98.2548 97.4581C98.6304 97.251 98.5655 96.7104 98.2864 96.2786C98.0196 95.8556 97.465 95.3835 97.2947 95.4537C97.121 95.5257 97.2298 96.3383 97.2895 96.7314H97.2895ZM101.806 95.4537C101.642 95.3835 101.058 95.8556 100.781 96.2786C100.514 96.7104 100.445 97.251 100.824 97.4581C101.195 97.6529 101.672 97.3931 101.791 96.7314C101.856 96.3383 101.985 95.5257 101.806 95.4537" fill="url(#paint2_linear)"/>
<path d="M78.3735 86.64V89.6133H121.947V86.64H118.734V87.12H81.5869V86.64H78.3735Z" fill="#DA020E"/>
<path d="M78.3755 73.2783H121.94V85.1257H78.3755V73.2783V73.2783Z" fill="#DA020E"/>
<path d="M85.8611 81.6861L89.1977 82.5058L90.9984 77.4878V76.217L85.8611 81.6861ZM113.359 84.6442V83.0987H110.21V81.7999H112.784V76.071H110.412L109.601 74.4949L108.81 76.071H106.432V81.7999H109.015V83.0987H102.821V81.7999H105.398V76.071H103.023L102.221 74.4949L101.41 76.071H99.0424V81.7999H101.631V83.0987H95.3091V81.7999H97.891V76.071H95.5127L94.7176 74.4949L93.9015 76.071H91.532V81.7999H94.1227V83.0987L89.1204 83.1145L84.1445 81.9526L85.1415 84.6442H113.359V84.6442Z" fill="#FFE500"/>
<path d="M81.356 45.7416C85.5613 44.334 88.7399 43.237 93.9194 42.7772C91.5324 41.1203 89.4139 39.7179 86.9778 39.7179C85.6965 39.7179 84.6013 40.2076 84.3485 41.1027C84.1133 41.9171 84.7557 42.2717 84.9839 42.2173C85.2226 42.1558 85.3928 42.0856 85.3349 41.8645C85.2735 41.631 85.4543 41.0378 86.2687 41.0378C87.0971 41.0378 87.4095 41.8048 87.4095 42.3313C87.4095 42.8579 86.5741 43.7372 85.0383 43.7372C83.5324 43.7372 82.7601 42.7333 82.818 41.8048C82.0914 42.8684 81.6684 43.9443 81.356 45.7416" fill="url(#paint3_radial)"/>
<path d="M52.0518 70.9207L55.4674 66.2818C55.6639 65.4287 55.8202 63.0944 54.7284 61.4375C53.5349 59.6069 51.9623 60.33 51.5007 60.5424C51.2093 60.6722 50.6793 61.0514 50.3528 61.5797C50.3528 61.5797 47.0689 65.1953 43.455 68.753C42.9443 69.2603 42.3826 70.187 42.3352 71.0453C42.2913 71.807 42.5985 72.5723 43.0408 73.0497C44.029 74.1028 45.756 74.0607 46.6389 73.3761L46.7003 76.2757C47.6095 75.5438 50.8881 72.3985 52.0518 70.9207Z" fill="black"/>
<path d="M100.138 64.1698C119.585 64.1698 130.65 82.4235 133.065 85.6284C137.354 91.3538 142.606 96.0014 148.691 94.4657C157.63 92.1787 157.165 78.9377 157.165 78.9377C155.008 77.3844 151.333 75.4291 144.631 65.9302C138.069 56.619 123.218 42.8252 100.138 42.8252C77.0523 42.8252 62.2053 56.619 55.6585 65.9302C48.9503 75.4291 45.2627 77.3844 43.1266 78.9377C43.1266 78.9377 42.644 92.1787 51.5901 94.4657C57.6717 96.0014 62.9197 91.3538 67.2163 85.6284C69.6226 82.4235 80.6942 64.1698 100.138 64.1698V64.1698Z" fill="#FFE500"/>
<path fill-rule="evenodd" clip-rule="evenodd" d="M55.2925 65.6726C61.891 56.288 76.8585 42.3777 100.138 42.3777C123.412 42.3777 138.383 56.2882 144.997 65.6724C148.334 70.4023 150.908 73.2404 152.906 75.0848C154.479 76.5369 155.693 77.3732 156.676 78.05C156.942 78.2336 157.192 78.4054 157.427 78.5746L157.605 78.7028L157.612 78.9221L157.165 78.9378C157.612 78.9221 157.612 78.9223 157.612 78.9225L157.612 78.9233L157.612 78.9257L157.613 78.9341L157.613 78.965C157.614 78.9918 157.615 79.0309 157.616 79.0814C157.617 79.1825 157.617 79.3297 157.615 79.517C157.61 79.8915 157.593 80.427 157.544 81.076C157.447 82.3723 157.222 84.1296 156.711 85.9642C155.695 89.6141 153.506 93.6957 148.802 94.8993L148.801 94.8997C145.607 95.7057 142.646 94.8795 139.962 93.146C137.288 91.4187 134.865 88.7775 132.707 85.8977C132.5 85.6222 132.233 85.2425 131.906 84.7779C130.293 82.4853 127.226 78.1255 122.688 74.0295C117.238 69.1091 109.712 64.6174 100.138 64.6174C90.5653 64.6174 83.0388 69.1091 77.5879 74.0295C73.0372 78.1375 69.9653 82.5113 68.3593 84.798C68.0395 85.2533 67.7779 85.6259 67.5742 85.8971" fill="black"/>
<path d="M100.138 62.4367C118.887 62.4367 130.038 78.3402 134.07 84.0788C139.407 91.2021 143.924 93.891 148.265 92.787C154.538 91.1898 155.317 82.5562 155.401 79.9427V79.8392L155.331 79.7847C153.12 78.2525 149.42 75.7128 143.221 66.9246C139.522 61.6767 125.483 44.541 100.138 44.541C74.8024 44.541 60.7506 61.6767 57.0542 66.9246C50.9059 75.6566 47.0392 78.3192 44.9681 79.7409L44.8804 79.8128L44.8909 79.9041C44.9752 82.5228 45.7562 91.2021 52.0134 92.787C56.3592 93.891 60.8857 91.2021 66.2083 84.0788C70.2373 78.3402 81.3984 62.4367 100.138 62.4367" fill="#DA020E"/>
<path d="M89.953 49.1513C86.5128 49.8797 84.2469 52.4159 84.9893 55.8543C85.4211 57.7113 87.078 61.1286 92.3189 60.0141C93.774 59.7367 94.5603 59.1575 95.322 58.4291L94.3672 57.3322C94.0074 57.7323 93.4703 58.315 92.2645 58.566C89.7283 59.1014 88.2206 57.0496 87.845 55.2786C87.2869 52.6546 88.8156 50.8468 90.5427 50.473C91.7766 50.2009 92.5243 50.5362 92.9982 50.7205H93.014L93.3352 49.376C92.5032 49.0425 91.5045 48.8214 89.953 49.1513V49.1513ZM118.724 64.2781C120.691 65.4628 122.838 65.2609 123.842 63.5988C124.572 62.4369 124.579 61.4715 123.701 59.7427C123.475 59.253 123.178 58.902 122.98 58.4562C122.592 57.733 122.234 57.1415 122.567 56.5817C122.936 55.9744 123.789 55.9252 124.561 56.3974C125.37 56.887 125.706 57.6962 125.876 58.2491L127.145 57.7014C126.755 56.6589 126.178 55.7234 124.858 54.9423C122.603 53.5838 120.768 53.9419 120.005 55.2144C119.231 56.4939 119.45 57.5593 120.033 58.651C120.033 58.651 120.395 59.2706 120.603 59.6936C121.114 60.5466 121.709 61.6225 121.291 62.2947C120.786 63.1425 119.915 63.3268 119.068 62.8002C117.981 62.1157 117.727 61.3188 117.5 60.5413L116.105 61.1381C116.412 62.2087 117.133 63.318 118.724 64.2781H118.724ZM103.703 48.5979L103.624 52.8946L99.4923 52.8349L99.5537 48.5225L96.7841 48.4716L96.5998 59.0148L99.3747 59.0745L99.4624 54.2408L103.601 54.3163L103.522 59.1412L106.294 59.1833L106.474 48.64L103.703 48.5979V48.5979ZM143.382 82.0772C143.401 82.1035 145.007 82.8969 146.792 81.2944C148.284 79.9534 147.784 78.1158 146.225 76.3905L143.352 73.1978L135.519 80.2571L137.371 82.3106L140.489 79.5129L141.39 80.5291L139.415 84.9838L141.779 86.8723L143.382 82.0772V82.0772ZM144.781 76.8837C145.514 77.6981 145.527 78.6652 144.674 79.4164C143.844 80.1816 142.783 80.0061 141.978 79.1215L141.509 78.5967L144.161 76.2009L144.781 76.8837V76.8837ZM132.556 74.1902L135.18 72.012L137.285 74.5166L138.373 73.6092L136.256 71.0941L138.476 69.2248L140.644 71.8067L141.72 70.9098L137.76 66.1901L129.688 72.9686L134.048 78.1727L135.136 77.2687L132.556 74.1902V74.1902ZM129.53 58.3472L128.589 59.3792L130.801 61.3783L124.672 68.1779L126.739 70.0366L132.86 63.2353L135.043 65.2011L135.98 64.1691L129.53 58.3472V58.3472ZM111.482 59.0155L112.598 55.8001L115.703 56.8707L116.165 55.5333L113.054 54.4644L114 51.7105L117.2 52.8075L117.649 51.4771L111.821 49.4709L108.394 59.4561L114.818 61.6553L115.275 60.3249L111.482 59.0155V59.0155ZM78.1003 53.8499L82.06 60.1615L73.2438 56.8706L71.2815 58.1027L76.8717 67.0593L79.0007 65.7183L75.0148 59.3418L83.9222 62.6486L85.8459 61.4428L80.2451 52.4914L78.1003 53.8499ZM65.7685 63.3873L63.966 65.3215L69.0191 75.3698L70.253 74.0499L68.8804 71.3768L71.3201 68.7529L74.0863 69.9253L76.1187 67.7489L65.7685 63.3873V63.3873ZM70.0301 68.1719L68.1994 70.1377L66.3179 66.522L70.0301 68.1719V68.1719ZM59.8133 69.7636L57.851 72.0998L61.5175 79.6821L53.6544 77.1073L51.9624 79.1117L60.0414 85.8954L61.2683 84.4386L55.5587 79.6329L63.2113 82.1253L64.0169 81.1705L60.3679 73.8584L66.102 78.6658L67.8923 76.5474L59.8133 69.7636Z" fill="#FFE500"/>
<path d="M47.4707 75.1362L47.4619 72.8106C51.4303 69.1669 53.3014 65.5056 53.3014 65.5056C53.3014 65.5056 51.8428 64.9562 51.1899 64.126C50.8669 63.6644 50.7423 63.0343 50.7967 62.6113C50.9231 61.818 51.5409 61.4161 51.7515 61.3248C52.2079 61.1282 53.0556 60.6824 53.9999 61.9812C55.0056 63.3871 54.7406 66.055 54.6019 66.6693C54.6019 66.6693 52.752 69.89 47.4707 75.1362" fill="url(#paint4_radial)"/>
<path d="M51.8622 65.9299C51.3269 66.8637 49.9772 69.1173 46.5634 72.317C45.9965 72.8488 44.5818 73.2999 43.7797 72.3995C43.4796 72.0502 43.2812 71.5605 43.3111 70.9918C43.3497 70.3336 43.7446 69.5684 44.1413 69.2314C44.8293 68.6504 47.7622 65.6895 49.8473 63.3604C49.9052 63.7851 50.2703 64.496 50.2703 64.496C50.5581 64.8926 50.9092 65.463 51.8622 65.9299" fill="url(#paint5_linear)"/>
<path d="M100.032 138.554C87.5216 138.554 73.2855 131.172 62.8001 119.23C61.733 118.017 60.3745 116.457 57.1415 116.457C55.2529 116.457 53.1116 117.468 51.6917 119.031C50.6228 120.193 49.424 122.242 49.7119 125.382C50.1278 129.671 56.9256 140.773 69.0415 147.667C78.8072 153.222 89.2347 156.029 100.032 156.029" fill="url(#paint6_linear)"/>
<path d="M100.033 138.554C112.544 138.554 126.78 131.172 137.265 119.23C138.332 118.017 139.691 116.457 142.924 116.457C144.812 116.457 146.954 117.468 148.373 119.031C149.442 120.193 150.641 122.242 150.353 125.382C149.937 129.671 143.14 140.773 131.024 147.667C121.258 153.222 110.83 156.029 100.033 156.029" fill="url(#paint7_linear)"/>
<path d="M134.069 84.0788C139.406 91.2021 143.924 93.8911 148.264 92.7871C154.537 91.1899 155.317 82.5562 155.401 79.9427V79.8392L155.331 79.7848C153.119 78.2525 149.419 75.7128 143.22 66.9247" fill="url(#paint8_linear)"/>
<path d="M66.2235 84.0788C60.8869 91.2021 56.3691 93.8911 52.0286 92.7871C45.7556 91.1899 44.9763 82.5562 44.8921 79.9427V79.8392L44.9623 79.7848C47.1738 78.2525 50.8737 75.7128 57.0729 66.9247" fill="url(#paint9_linear)"/>
<path d="M118.937 45.7416C114.732 44.334 111.554 43.237 106.374 42.7772C108.761 41.1203 110.88 39.7179 113.316 39.7179C114.597 39.7179 115.692 40.2076 115.945 41.1027C116.18 41.9171 115.538 42.2717 115.31 42.2173C115.071 42.1558 114.901 42.0856 114.959 41.8645C115.02 41.631 114.839 41.0378 114.025 41.0378C113.196 41.0378 112.884 41.8048 112.884 42.3313C112.884 42.8579 113.719 43.7372 115.255 43.7372C116.761 43.7372 117.533 42.7333 117.475 41.8048C118.202 42.8684 118.625 43.9443 118.937 45.7416" fill="url(#paint10_radial)"/>
<path d="M100.335 40.2214C100.204 41.0253 99.2787 41.7958 98.3432 41.7958C97.406 41.7958 97.1252 41.6449 97.1252 41.6449C96.983 41.866 96.8584 42.0363 96.7109 42.275C97.5604 42.2416 99.5315 42.1872 100.321 42.1872C101.109 42.1872 103.295 42.3013 103.765 42.3347C103.005 40.5532 101.539 38.0872 100.527 38.0872C100.492 38.0872 100.448 38.0837 100.393 38.0837C100.156 38.0837 99.3356 38.7954 98.8958 39.4203C98.3181 40.2412 100.335 40.2214 100.335 40.2214V40.2214Z" fill="url(#paint11_radial)"/>
<path d="M152.823 75.1362L152.831 72.8106C148.863 69.1669 146.992 65.5056 146.992 65.5056C146.992 65.5056 148.45 64.9562 149.103 64.126C149.426 63.6644 149.551 63.0343 149.497 62.6113C149.37 61.818 148.752 61.4161 148.542 61.3248C148.085 61.1282 147.238 60.6824 146.293 61.9812C145.288 63.3871 145.553 66.055 145.691 66.6693C145.691 66.6693 147.541 69.89 152.823 75.1362" fill="url(#paint12_radial)"/>
<path d="M148.431 65.9299C148.966 66.8637 150.316 69.1173 153.73 72.317C154.297 72.8488 155.712 73.2999 156.514 72.3995C156.814 72.0502 157.012 71.5605 156.982 70.9918C156.944 70.3336 156.549 69.5684 156.152 69.2314C155.464 68.6504 152.531 65.6895 150.446 63.3604C150.388 63.7851 150.023 64.496 150.023 64.496C149.735 64.8926 149.384 65.463 148.431 65.9299" fill="url(#paint13_linear)"/>
<path fill-rule="evenodd" clip-rule="evenodd" d="M79.7944 71.0598H120.359L120.467 71.1273C121.556 71.8047 122.894 73.0022 123.718 73.739C123.856 73.8624 123.979 73.973 124.085 74.0659L124.236 74.1997L124.201 123.965L100.138 139.427L76.0728 123.964V73.8786H76.3358C76.6141 73.6137 77.1353 73.1621 77.6917 72.6991C78.3758 72.1299 79.1531 71.5102 79.6787 71.1411L79.7944 71.0598ZM80.079 71.9549C79.5874 72.3095 78.8943 72.8629 78.2643 73.3872C77.6977 73.8586 77.2089 74.2846 76.9679 74.5125V123.476L100.138 138.363L123.306 123.476L123.341 74.6029C123.267 74.5369 123.188 74.4662 123.104 74.3917C122.301 73.6734 121.096 72.5964 120.101 71.9549H80.079Z" fill="black"/>
<path d="M117.453 156.046C115.135 156.661 113.478 157.18 109.572 157.654C109.572 157.654 109.697 158.049 110.547 158.017C110.871 157.996 110.915 157.915 111.027 157.896C111.278 157.851 111.642 158.105 111.605 158.528C111.566 158.826 111.317 159.197 110.45 159.197C109.583 159.197 108.574 158.491 108.063 157.831C108.063 157.831 107.545 157.952 107.006 157.979C107.006 157.979 108.676 160.31 111.954 160.31C115.554 160.31 116.895 157.078 117.453 156.046" fill="url(#paint14_radial)"/>
<path d="M38.8125 105.345C38.8125 99.3861 43.648 94.5401 49.6138 94.5401C55.5814 94.5401 60.4133 99.3861 60.4133 105.345C60.4133 111.314 55.5814 116.15 49.6138 116.15C43.648 116.15 38.8125 111.314 38.8125 105.345Z" fill="#FFE500"/>
<path fill-rule="evenodd" clip-rule="evenodd" d="M49.6136 94.9877C43.8954 94.9877 39.2599 99.6329 39.2599 105.345C39.2599 111.067 43.8951 115.702 49.6136 115.702C55.3337 115.702 59.9656 111.067 59.9656 105.345C59.9656 99.6328 55.3335 94.9877 49.6136 94.9877ZM38.3647 105.345C38.3647 99.1393 43.4002 94.0925 49.6136 94.0925C55.8289 94.0925 60.8607 99.1394 60.8607 105.345C60.8607 111.561 55.8286 116.597 49.6136 116.597C43.4005 116.597 38.3647 111.561 38.3647 105.345Z" fill="black"/>
<path d="M41.2852 104.943C41.2852 100.425 45.0136 96.7512 49.6136 96.7512C54.215 96.7512 57.9407 100.425 57.9407 104.943C57.9407 109.469 54.215 113.135 49.6136 113.135C45.0136 113.135 41.2852 109.469 41.2852 104.943Z" fill="url(#paint15_radial)"/>
<path d="M51.9076 112.771C51.4337 112.922 51.2284 112.59 51.0125 112.351C50.1718 111.384 49.9559 108.809 49.9559 108.469C49.9559 108.127 50.0823 107.751 50.3227 107.742C52.3499 107.704 53.798 107.116 55.1266 106.012C56.4535 104.927 57.0292 103.683 57.1468 103.461C57.2626 103.216 57.5382 103.26 57.5891 103.6C57.6453 103.884 57.7524 104.395 57.7524 104.948C57.7524 108.659 55.2512 111.69 51.9076 112.771V112.771ZM49.7681 113.106C49.7102 113.106 49.6452 113.113 49.5908 113.113C48.0972 113.113 46.4526 112.543 45.4785 111.988C44.4693 111.439 44.0901 108.848 44.0901 107.539C44.0901 103.275 45.8383 100.737 46.1226 100.239C46.3999 99.7335 47.0248 99.6809 47.4829 99.8037C47.9568 99.9406 48.1253 100.023 48.6711 100.185C48.9555 100.278 49.5329 100.395 49.9664 100.472C50.4 100.576 50.8668 100.667 50.586 101.476C50.3087 102.287 49.3644 104.236 49.2696 106.545C49.1784 108.636 49.4557 110.712 49.9278 111.988C50.2385 112.813 50.2385 113.122 49.7681 113.106V113.106ZM43.5969 103.374C43.1985 103.163 42.7193 102.135 42.5579 101.834C42.449 101.619 42.4491 101.001 42.6053 100.737C43.2722 99.5703 44.2183 98.4891 45.4363 97.9257C45.5855 97.8608 45.7944 97.8485 45.7944 98.2065C45.7944 98.3978 45.898 98.6962 45.9015 98.8858C45.9015 99.0771 45.9822 99.4685 45.74 99.7774C45.4855 100.088 44.3955 102.021 44.1165 103.103C44.0708 103.346 43.9971 103.6 43.5969 103.374V103.374ZM43.3723 110.215C42.2419 109.099 41.4363 107.077 41.4363 104.948C41.4363 104.121 41.5592 103.33 41.7786 102.579C41.7786 102.579 41.9804 102.242 42.1559 102.528C42.2911 102.738 42.4771 102.951 42.6281 103.232C42.7966 103.512 43.6707 104.178 43.5969 104.72C43.2915 106.712 43.5654 109.359 43.6601 109.805C43.7444 110.245 43.6233 110.433 43.3723 110.215V110.215ZM46.9405 97.2307C47.7777 96.9533 48.6711 96.7971 49.5908 96.7971C50.9897 96.7971 52.3482 97.0516 53.482 97.7748C53.7734 97.9643 53.8559 98.1855 53.8559 98.5137C53.8559 99.5826 52.185 99.9406 51.0792 99.9406C49.9664 99.9406 48.5974 99.5001 47.6285 99.1929C46.6632 98.891 46.4526 98.3329 46.4526 98.0784C46.4526 97.8344 46.6404 97.3289 46.9405 97.2307V97.2307ZM54.4842 98.4189C54.6334 98.54 55.0283 98.8594 55.0283 98.8594C55.8076 99.5703 56.5114 100.381 56.9204 101.354C57.4312 102.579 55.8462 104.434 55.3811 104.862C53.2819 106.833 51.9673 106.796 51.2231 106.903C50.4789 107.012 49.9963 106.545 50.0156 105.985C50.063 104.346 51.2301 101.52 51.5654 100.988C51.7795 100.646 52.1516 100.434 52.1516 100.434C52.9309 100.218 53.6874 99.8932 54.0788 99.4474C54.4614 98.9946 54.4842 98.4189 54.4842 98.4189V98.4189ZM49.6716 96.2653C44.6535 96.2653 40.5903 100.33 40.5903 105.345C40.5903 110.363 44.6535 114.426 49.6716 114.426C54.6861 114.426 58.7581 110.363 58.7581 105.345C58.7581 100.33 54.6861 96.2653 49.6716 96.2653" fill="#DA020E"/>
<path d="M140.089 105.324C140.089 99.3651 144.925 94.5366 150.891 94.5366C156.86 94.5366 161.692 99.3651 161.692 105.324C161.692 111.293 156.86 116.13 150.891 116.13C144.925 116.13 140.089 111.293 140.089 105.324Z" fill="#FFE500"/>
<path fill-rule="evenodd" clip-rule="evenodd" d="M150.89 94.9842C145.171 94.9842 140.537 99.6128 140.537 105.324C140.537 111.046 145.172 115.683 150.89 115.683C156.612 115.683 161.244 111.046 161.244 105.324C161.244 99.6127 156.613 94.9842 150.89 94.9842ZM139.642 105.324C139.642 99.1173 144.678 94.0891 150.89 94.0891C157.107 94.0891 162.139 99.1174 162.139 105.324C162.139 111.54 157.107 116.578 150.89 116.578C144.677 116.578 139.642 111.54 139.642 105.324Z" fill="black"/>
<path d="M157.216 110.178C156.979 110.411 156.846 110.208 156.946 109.771C157.028 109.337 157.304 106.682 156.997 104.69C156.921 104.149 157.8 103.486 157.962 103.201C158.123 102.922 158.308 102.704 158.438 102.501C158.618 102.206 158.81 102.536 158.81 102.536C159.041 103.296 159.154 104.091 159.154 104.914C159.154 107.05 158.338 109.065 157.216 110.178V110.178ZM156.484 103.075C156.203 101.995 155.106 100.054 154.859 99.7453C154.61 99.4469 154.689 99.0502 154.692 98.8589C154.692 98.6693 154.801 98.3657 154.801 98.1691C154.801 97.8268 155.008 97.8339 155.155 97.8988C156.381 98.4622 157.321 99.5276 157.995 100.705C158.144 100.974 158.148 101.588 158.037 101.797C157.879 102.099 157.404 103.127 156.997 103.345C156.589 103.568 156.53 103.308 156.484 103.075V103.075ZM155.12 111.958C154.144 112.504 152.5 113.079 150.999 113.079H150.825C150.364 113.092 150.353 112.77 150.669 111.949C151.127 110.683 151.413 108.598 151.319 106.513C151.224 104.193 150.292 102.266 150.002 101.45C149.721 100.64 150.19 100.542 150.629 100.451C151.064 100.365 151.64 100.238 151.926 100.147C152.463 99.9839 152.637 99.9015 153.111 99.7663C153.572 99.647 154.194 99.7066 154.476 100.2C154.753 100.705 156.505 103.259 156.505 107.512C156.505 108.814 156.122 111.401 155.12 111.958ZM148.691 112.737C145.339 111.651 142.843 108.621 142.843 104.914C142.843 104.368 142.95 103.863 142.994 103.568C143.059 103.227 143.315 103.171 143.443 103.422C143.561 103.65 144.143 104.893 145.463 105.981C146.801 107.077 148.235 107.675 150.274 107.717C150.522 107.73 150.638 108.093 150.638 108.442C150.638 108.788 150.429 111.357 149.592 112.318C149.369 112.563 149.154 112.9 148.691 112.737V112.737ZM143.682 101.325C144.08 100.353 144.788 99.5276 145.567 98.8326C145.567 98.8326 145.953 98.5061 146.102 98.392C146.102 98.392 146.134 98.973 146.522 99.4083C146.908 99.8471 147.657 100.191 148.437 100.396C148.437 100.396 148.803 100.619 149.023 100.962C149.369 101.478 150.527 104.3 150.578 105.952C150.592 106.513 150.115 106.98 149.369 106.873C148.621 106.773 147.31 106.796 145.212 104.835C144.749 104.405 143.164 102.554 143.682 101.325V101.325ZM147.108 97.7444C148.258 97.0177 149.599 96.7632 150.999 96.7632C151.926 96.7632 152.807 96.9212 153.651 97.1985C153.962 97.295 154.144 97.7953 154.144 98.0463C154.144 98.2937 153.939 98.8589 152.967 99.1625C151.998 99.4609 150.634 99.9067 149.523 99.9067C148.405 99.9067 146.739 99.5434 146.739 98.4798C146.739 98.1586 146.82 97.9251 147.108 97.7444V97.7444ZM150.913 96.2419C145.9 96.2419 141.835 100.309 141.835 105.311C141.835 110.341 145.9 114.392 150.913 114.392C155.935 114.392 160 110.341 160 105.311C160 100.309 155.935 96.2419 150.913 96.2419Z" fill="#DA020E"/>
<path d="M142.685 104.903C142.685 100.385 146.413 96.7112 151.013 96.7112C155.615 96.7112 159.341 100.385 159.341 104.903C159.341 109.429 155.615 113.095 151.013 113.095C146.413 113.095 142.685 109.429 142.685 104.903Z" fill="url(#paint16_radial)"/>
<defs>
<radialGradient id="paint0_radial" cx="0" cy="0" r="1" gradientUnits="userSpaceOnUse" gradientTransform="translate(100.436 159.636) scale(4.23233 3.14619)">
<stop stop-color="#FFE500"/>
<stop offset="0.5" stop-color="#FFE500"/>
<stop offset="1" stop-color="#E15007"/>
</radialGradient>
<radialGradient id="paint1_radial" cx="0" cy="0" r="1" gradientUnits="userSpaceOnUse" gradientTransform="translate(88.8103 158.178) scale(4.47532 4.02391)">
<stop stop-color="#FFE500"/>
<stop offset="0.5" stop-color="#FFE500"/>
<stop offset="1" stop-color="#E15007"/>
</radialGradient>
<linearGradient id="paint2_linear" x1="98.9196" y1="90.1041" x2="98.9196" y2="113.599" gradientUnits="userSpaceOnUse">
<stop stop-color="#8F0904"/>
<stop offset="0.249601" stop-color="#B40509"/>
<stop offset="1" stop-color="#DA020E"/>
</linearGradient>
<radialGradient id="paint3_radial" cx="0" cy="0" r="1" gradientUnits="userSpaceOnUse" gradientTransform="translate(86.6949 42.9937) scale(5.11664 4.87178)">
<stop stop-color="#FFE500"/>
<stop offset="0.5" stop-color="#FFE500"/>
<stop offset="1" stop-color="#E15007"/>
</radialGradient>
<radialGradient id="paint4_radial" cx="0" cy="0" r="1" gradientUnits="userSpaceOnUse" gradientTransform="translate(49.501 68.9661) rotate(-60.273) scale(7.98406 7.02342)">
<stop stop-color="#FFE500"/>
<stop offset="0.5" stop-color="#FFE500"/>
<stop offset="1" stop-color="#E15007"/>
</radialGradient>
<linearGradient id="paint5_linear" x1="48.4281" y1="65.79" x2="50.3689" y2="67.9233" gradientUnits="userSpaceOnUse">
<stop stop-color="#FFE500"/>
<stop offset="0.5" stop-color="#FFE500"/>
<stop offset="1" stop-color="#E15007"/>
</linearGradient>
<linearGradient id="paint6_linear" x1="52.8363" y1="118.744" x2="66.2422" y2="134.131" gradientUnits="userSpaceOnUse">
<stop stop-color="#740703"/>
<stop offset="1" stop-color="#DA020E" stop-opacity="0"/>
</linearGradient>
<linearGradient id="paint7_linear" x1="147.229" y1="118.744" x2="133.823" y2="134.131" gradientUnits="userSpaceOnUse">
<stop stop-color="#740703"/>
<stop offset="1" stop-color="#DA020E" stop-opacity="0"/>
</linearGradient>
<linearGradient id="paint8_linear" x1="152.203" y1="90.4287" x2="144.947" y2="83.6021" gradientUnits="userSpaceOnUse">
<stop stop-color="#740703"/>
<stop offset="1" stop-color="#DA020E" stop-opacity="0"/>
</linearGradient>
<linearGradient id="paint9_linear" x1="48.0902" y1="90.4287" x2="55.7721" y2="82.3221" gradientUnits="userSpaceOnUse">
<stop stop-color="#740703"/>
<stop offset="1" stop-color="#DA020E" stop-opacity="0"/>
</linearGradient>
<radialGradient id="paint10_radial" cx="0" cy="0" r="1" gradientUnits="userSpaceOnUse" gradientTransform="translate(113.599 42.9937) rotate(180) scale(5.11663 4.87178)">
<stop stop-color="#FFE500"/>
<stop offset="0.5" stop-color="#FFE500"/>
<stop offset="1" stop-color="#E15007"/>
</radialGradient>
<radialGradient id="paint11_radial" cx="0" cy="0" r="1" gradientUnits="userSpaceOnUse" gradientTransform="translate(100.147 40.624) scale(3.86555 3.69479)">
<stop stop-color="#FFE500"/>
<stop offset="0.5" stop-color="#FFE500"/>
<stop offset="1" stop-color="#E15007"/>
</radialGradient>
<radialGradient id="paint12_radial" cx="0" cy="0" r="1" gradientUnits="userSpaceOnUse" gradientTransform="translate(150.792 68.9661) rotate(-119.727) scale(7.98406 7.02341)">
<stop stop-color="#FFE500"/>
<stop offset="0.5" stop-color="#FFE500"/>
<stop offset="1" stop-color="#E15007"/>
</radialGradient>
<linearGradient id="paint13_linear" x1="151.865" y1="65.79" x2="149.924" y2="67.9233" gradientUnits="userSpaceOnUse">
<stop stop-color="#FFE500"/>
<stop offset="0.5" stop-color="#FFE500"/>
<stop offset="1" stop-color="#E15007"/>
</linearGradient>
<radialGradient id="paint14_radial" cx="0" cy="0" r="1" gradientUnits="userSpaceOnUse" gradientTransform="translate(112.23 158.178) rotate(180) scale(4.47533 4.02391)">
<stop stop-color="#FFE500"/>
<stop offset="0.5" stop-color="#FFE500"/>
<stop offset="1" stop-color="#E15007"/>
</radialGradient>
<radialGradient id="paint15_radial" cx="0" cy="0" r="1" gradientUnits="userSpaceOnUse" gradientTransform="translate(49.6129 104.943) scale(8.32777 8.19197)">
<stop stop-color="#DA030E" stop-opacity="0"/>
<stop offset="0.875" stop-color="#DA020E" stop-opacity="0"/>
<stop offset="1" stop-color="#DA020E"/>
</radialGradient>
<radialGradient id="paint16_radial" cx="0" cy="0" r="1" gradientUnits="userSpaceOnUse" gradientTransform="translate(151.013 104.903) scale(8.32778 8.19196)">
<stop stop-color="#DA030E" stop-opacity="0"/>
<stop offset="0.875" stop-color="#DA020E" stop-opacity="0"/>
<stop offset="1" stop-color="#DA020E"/>
</radialGradient>
</defs>
</svg>
